<?xml version="1.0" encoding="UTF-8"?>
<svg width="137px" height="128px" viewBox="0 0 137 128" version="1.1" xmlns="http://www.w3.org/2000/svg" xmlns:xlink="http://www.w3.org/1999/xlink">
    <!-- Generator: Sketch 51.3 (57544) - http://www.bohemiancoding.com/sketch -->
    <title>cv_go</title>
    <desc>Created with Sketch.</desc>
    <defs>
        <polygon id="path-1" points="0 0.398703434 65.8572 0.398703434 65.8572 127 0 127"></polygon>
        <polygon id="path-3" points="0.2086 0.287 66.6064978 0.287 66.6064978 117.952817 0.2086 117.952817"></polygon>
    </defs>
    <g id="Page-1" stroke="none" stroke-width="1" fill="none" fill-rule="evenodd">
        <g id="A4" transform="translate(-354.000000, -101.000000)">
            <g id="cv_go" transform="translate(354.000000, 100.000000)">
                <g id="Group-3" transform="translate(0.000000, 1.713000)">
                    <mask id="mask-2" fill="white">
                        <use xlink:href="#path-1"></use>
                    </mask>
                    <g id="Clip-2"></g>
                    <path d="M62.0542,52.172 C62.1372,51.588 62.6762,51.244 63.3872,51.169 C63.1472,51.626 63.0802,52.351 62.0542,52.172 Z M60.2432,51.355 C60.2732,51.64 60.1012,51.37 59.9592,51.385 C59.9442,51.243 60.2282,51.214 60.2432,51.355 Z M58.2742,53.144 C57.8472,53.189 57.4212,53.234 57.4502,53.519 C57.8922,53.615 58.3192,53.57 58.2742,53.144 Z M57.3682,54.102 C57.2852,54.685 58.0122,54.754 57.9522,54.185 C57.8102,54.2 57.6532,54.072 57.3682,54.102 Z M57.2792,53.249 C56.8522,53.293 56.5682,53.323 56.5972,53.609 C56.8822,53.578 57.4802,53.803 57.2792,53.249 Z M47.3732,72.551 C47.3582,72.409 47.1862,72.14 46.9162,72.312 C47.0732,72.439 46.9612,72.739 47.2452,72.709 C47.2452,72.709 47.2312,72.567 47.3732,72.551 Z M46.6242,73.636 C46.5272,74.079 46.1002,74.124 46.2872,74.535 C47.0282,74.745 47.0512,73.591 46.6242,73.636 Z M46.8042,67.147 C47.0592,66.833 46.8572,66.279 46.5582,66.167 C46.4452,66.466 46.0182,66.511 46.2212,67.065 C46.5052,67.035 46.6482,67.02 46.8042,67.147 Z M46.5802,65.013 C46.1012,65.927 45.6372,64.251 46.5212,64.444 C46.6922,64.714 46.1542,65.058 46.5802,65.013 Z M45.9942,75.86 C45.8672,76.017 45.7402,76.174 45.9272,76.586 C46.3842,76.825 46.2642,75.689 45.9942,75.86 Z M46.0622,77.866 C46.2792,78.562 45.2452,79.677 46.0162,80.172 C45.8152,79.617 46.8332,78.36 46.0622,77.866 Z M45.2402,70.044 C45.2842,70.469 45.0752,71.212 45.7562,70.853 C45.8382,70.268 45.5392,70.156 45.2402,70.044 Z M44.8782,85.755 C45.0202,85.74 45.3052,85.71 45.2902,85.568 C45.1472,85.583 44.8632,85.612 44.8782,85.755 Z M44.7382,72.11 C44.8652,71.952 44.8502,71.81 44.8202,71.527 C45.0902,71.354 45.1942,72.349 44.7382,72.11 Z M44.9522,86.466 C44.9382,86.324 44.9082,86.04 44.6382,86.212 C44.6542,86.354 44.6832,86.638 44.8252,86.624 C44.8252,86.624 44.8102,86.481 44.9522,86.466 Z M45.0122,89.767 C44.5712,89.671 44.7582,90.082 44.4882,90.254 C45.0722,90.337 44.8852,89.925 45.0122,89.767 Z M44.9612,82.44 C45.8292,82.492 45.9202,80.613 45.4782,80.515 C45.1702,81.699 44.5492,82.626 44.3852,83.795 C45.2532,83.847 45.0362,83.151 44.9612,82.44 Z M44.3232,91.422 C44.4662,91.406 44.6082,91.392 44.6082,91.392 C44.5932,91.249 44.7202,91.092 44.8622,91.078 C44.8622,91.078 44.8472,90.936 44.8322,90.793 C44.6902,90.807 44.5482,90.822 44.4062,90.837 C44.4212,90.981 44.4212,90.981 44.2782,90.996 C44.2932,91.137 44.3082,91.279 44.3232,91.422 Z M43.8912,79.1 C44.1372,80.081 43.9952,80.095 43.9282,80.822 C44.5642,80.036 45.3512,77.941 44.8042,76.848 C44.8202,76.99 44.8492,77.275 44.5502,77.163 C44.9242,77.986 44.2732,78.63 43.8912,79.1 Z M44.1302,84.109 C44.2042,84.82 43.7782,84.864 43.8382,85.434 C44.2642,85.389 44.6992,84.049 44.1302,84.109 Z M43.7552,86.017 C43.8982,86.002 44.0402,85.987 44.0252,85.845 C43.8982,86.002 43.7402,85.875 43.7552,86.017 Z M43.7842,94.498 C43.9262,94.483 43.9412,94.625 43.9712,94.909 C43.8142,94.783 43.5142,94.67 43.7842,94.498 Z M43.8592,92.476 C43.7322,92.634 43.0802,93.277 43.6792,93.503 C43.6492,93.217 44.4582,92.702 43.8592,92.476 Z M42.9692,88.112 C42.6842,88.142 42.9842,88.256 42.9692,88.112 C43.1112,88.097 43.0962,87.956 43.0812,87.813 C43.3512,87.641 43.2912,87.072 43.5452,86.758 C42.9772,86.818 43.0362,87.386 43.0812,87.813 C42.9392,87.828 42.9542,87.97 42.9692,88.112 Z M42.7982,82.379 C43.2542,82.619 43.3062,81.751 43.0222,81.78 C42.8952,81.938 42.9102,82.08 42.7682,82.094 C42.7682,82.094 42.7832,82.236 42.7982,82.379 Z M43.0582,88.966 C43.0292,88.681 42.8712,88.555 42.5872,88.585 C42.7592,88.854 42.6462,89.153 42.9312,89.123 C42.9162,88.982 42.9012,88.839 43.0582,88.966 Z M43.0332,106.511 C42.6072,106.556 42.4792,106.714 42.4942,106.856 C42.7792,106.826 42.9212,106.811 43.0332,106.511 Z M44.5542,94.992 C44.3672,94.58 43.9262,94.483 43.8512,93.772 C43.2672,93.689 43.7992,94.64 43.2152,94.557 C43.1852,94.273 43.4702,94.243 43.4252,93.817 C42.3912,94.932 43.3262,96.99 42.4952,98.659 C42.5112,98.802 42.7952,98.772 42.8102,98.914 C42.1662,100.995 42.8462,103.368 42.4052,106.003 C42.5472,105.988 42.6892,105.973 42.6892,105.973 C42.7042,106.115 42.8612,106.241 43.0042,106.226 C43.0412,105.216 42.7792,104.093 43.5432,103.151 C42.3532,101.407 44.1352,99.207 43.1992,97.148 C43.4692,96.975 43.8282,97.657 43.9102,97.073 C43.4242,96.548 43.9182,95.778 43.9712,94.909 C44.1142,94.894 44.2702,95.022 44.5542,94.992 Z M42.8242,107.254 C42.0972,107.185 42.4562,107.865 42.7712,108.121 C42.7262,107.694 43.0112,107.664 42.8242,107.254 Z M42.2182,54.976 C42.5922,55.799 44.1272,55.35 44.4932,54.736 C44.9352,54.834 44.8522,55.418 45.4222,55.358 C45.3922,55.073 45.2042,54.662 45.4892,54.631 C46.1482,55.425 47.5252,54.849 48.7752,54.43 C48.5582,53.734 49.2542,53.517 49.1952,52.948 C49.4642,52.776 49.1652,52.664 49.1952,52.948 C47.3612,53.285 44.2092,54.766 42.2182,54.976 Z M42.3042,83.15 C42.4382,84.43 42.3862,85.298 42.0932,86.624 C43.0592,86.235 42.4532,84.571 42.7752,83.531 C43.3442,83.472 42.7532,84.685 43.3212,84.625 C43.3592,83.614 44.4592,81.774 43.8302,81.264 C43.4642,81.878 43.5542,82.731 43.1572,83.06 C42.9992,82.933 42.4302,82.993 42.3042,83.15 Z M42.1672,92.798 C42.1822,92.941 41.9282,93.255 42.2272,93.367 C42.3392,93.068 42.4672,92.911 42.1672,92.798 Z M42.6612,89.296 C42.0932,89.356 41.9952,89.797 41.9132,90.381 C42.4672,90.179 42.7362,90.006 42.6612,89.296 Z M41.7972,115.27 C42.2542,115.508 42.3062,114.641 41.8792,114.686 C41.8942,114.827 41.9092,114.97 41.7662,114.985 C41.7662,114.985 41.7822,115.127 41.7972,115.27 Z M41.8392,86.938 C42.0412,87.491 41.3742,87.992 41.9732,88.217 C41.9442,87.933 42.5502,86.863 41.8392,86.938 Z M41.6882,90.98 C41.8302,90.964 41.9732,90.95 41.9582,90.807 C41.8152,90.822 41.6732,90.837 41.6882,90.98 Z M41.6872,96.444 C42.0622,97.267 41.0432,98.524 42.2262,98.832 C41.7552,98.449 42.7432,96.907 41.6872,96.444 Z M42.0822,112.507 C41.9402,112.522 41.6552,112.552 41.5122,112.567 C41.5572,112.994 41.8572,113.106 41.6022,113.421 C42.1722,113.36 42.1272,112.934 42.0822,112.507 Z M41.8282,107.358 C41.6862,107.373 41.4022,107.403 41.4172,107.545 C41.7162,107.656 41.0942,108.585 41.9332,108.353 C41.7312,107.798 41.8882,107.925 41.8282,107.358 Z M41.2812,108.996 C41.3112,109.28 42.0232,109.206 41.8502,108.936 C41.8352,108.795 41.3932,108.697 41.2812,108.996 Z M41.5962,111.984 C41.1842,112.17 41.1392,111.744 41.0792,111.175 C41.5062,111.13 41.4232,111.714 41.5962,111.984 Z M41.7632,91.691 C41.6212,91.706 41.3222,91.593 41.2092,91.892 C41.7932,91.976 40.4302,92.693 41.2992,92.746 C41.3962,92.305 41.9652,92.245 41.7632,91.691 Z M41.2672,103.389 C40.6542,103.024 40.9612,101.84 41.6422,101.482 C41.4322,102.223 41.6642,103.061 41.2672,103.389 Z M41.2672,100.657 C41.1262,100.673 41.1112,100.531 40.9692,100.546 C40.9532,100.403 40.9382,100.261 40.9242,100.119 C41.0812,100.247 41.2082,100.089 41.1932,99.946 C41.6192,99.902 41.3952,100.501 41.2672,100.657 Z M41.5962,55.904 C41.5812,55.761 41.5672,55.619 41.5522,55.477 C41.2522,55.364 41.2822,55.649 40.8562,55.693 C40.7592,56.135 41.3122,55.934 41.5962,55.904 Z M41.3442,93.173 C40.8872,92.933 40.2212,93.434 40.8352,93.801 C40.8042,93.516 41.5462,93.727 41.3442,93.173 Z M41.4262,95.321 C40.5732,95.411 40.6472,96.122 40.5652,96.706 C41.1182,96.504 41.2012,95.92 41.4262,95.321 Z M40.4522,97.005 C40.4682,97.147 40.4822,97.289 40.4972,97.432 C40.9532,97.671 40.8492,96.676 40.4522,97.005 Z M40.4442,55.881 C40.4592,56.024 40.2042,56.338 40.5042,56.449 C40.4742,56.165 40.7432,55.993 40.4442,55.881 Z M40.1452,98.188 C39.7192,98.233 39.3822,99.131 39.9512,99.071 C39.7492,98.517 40.3472,98.742 40.1452,98.188 Z M39.5982,102.559 C39.7102,102.259 39.8382,102.102 39.9502,101.803 C40.2502,101.915 40.0402,102.656 39.5982,102.559 Z M39.1872,100.013 C39.4562,99.842 39.1722,99.872 39.1872,100.013 C38.9172,100.186 39.2022,100.156 39.1872,100.013 Z M39.8902,56.083 C39.4632,56.128 39.0362,56.173 38.9092,56.33 C38.8422,57.056 40.0932,56.637 39.8902,56.083 Z M40.0202,90.149 C40.0122,91.444 39.7202,92.767 38.5442,93.899 C38.5892,94.325 38.6492,94.894 39.2182,94.834 C39.5772,92.782 41.1492,91.325 41.1352,88.45 C41.6592,87.963 41.5252,86.683 41.8762,85.926 C41.1952,86.286 41.3002,87.281 40.8052,88.052 C41.0902,88.022 40.9782,88.321 41.1352,88.45 C40.3112,88.824 41.2842,89.872 40.0202,90.149 Z M38.2142,104.43 C38.2432,104.714 37.8162,104.759 38.0182,105.313 C38.7602,105.523 38.6552,104.527 38.2142,104.43 Z M38.6702,56.787 C38.6552,56.644 38.6402,56.502 38.6252,56.359 C38.3412,56.389 38.3252,56.248 38.1832,56.262 C38.3702,56.673 37.6302,56.464 37.8312,57.018 C38.1312,57.131 38.0862,56.703 38.6702,56.787 Z M37.7642,102.896 C37.9072,102.881 38.0492,102.866 38.0492,102.866 C38.3182,102.693 38.2882,102.408 37.8622,102.453 C37.8622,102.453 37.8772,102.596 37.7352,102.611 C37.7492,102.753 37.7492,102.753 37.7642,102.896 Z M37.4872,107.094 C36.9182,107.154 36.5062,107.342 36.5662,107.911 C37.0222,108.15 37.2322,107.408 37.4872,107.094 Z M36.0872,106.091 C36.2292,106.076 36.2442,106.218 36.3712,106.062 C36.3422,105.777 36.0572,105.807 36.0872,106.091 Z M37.2412,97.917 C36.3052,98.591 35.9152,100.357 35.8482,101.084 C37.0392,100.096 37.1292,98.216 38.0052,96.975 C37.7352,97.147 37.5932,97.161 37.4212,96.892 C37.8182,96.562 37.8472,96.847 38.2742,96.802 C38.2002,96.091 38.4842,96.062 38.5362,95.193 C38.8212,95.163 38.5212,95.05 38.5362,95.193 C37.5852,95.725 36.8372,96.809 37.2412,97.917 Z M36.0202,101.353 C35.7362,101.383 35.6092,101.541 35.6382,101.825 C35.9232,101.795 36.0502,101.637 36.0202,101.353 Z M38.7382,98.48 C37.6522,100.463 36.4092,102.318 35.9382,104.67 C35.7962,104.684 35.6682,104.841 35.6682,104.841 C35.2112,104.602 35.3012,105.455 35.5862,105.425 C35.5562,105.141 35.6982,105.126 35.6682,104.841 C35.8102,104.826 35.8102,104.826 35.9382,104.67 C37.0082,102.543 37.8402,100.875 38.8802,98.464 C39.9282,97.492 40.1082,96.465 40.2432,95.014 C40.9842,95.223 41.0072,94.07 40.2962,94.145 C39.8762,95.627 38.9852,96.728 38.8802,98.464 L38.7382,98.48 Z M35.2332,111.645 C35.1202,111.944 35.0912,111.66 34.9492,111.675 C34.9342,111.532 35.2182,111.503 35.2332,111.645 Z M34.7552,101.631 C34.7852,101.915 34.8002,102.056 34.8152,102.2 C35.2722,102.438 35.1672,101.443 34.7552,101.631 Z M35.4732,105.725 C34.9042,105.785 34.8222,106.367 34.5682,106.682 C34.9792,106.495 35.2342,106.181 35.4732,105.725 Z M34.6502,103.366 C35.3622,103.292 35.1442,102.595 35.6992,102.393 C34.8602,102.626 34.3892,102.244 34.1642,102.841 C34.5902,102.797 35.0472,103.037 34.6502,103.366 Z M34.5302,107.693 C34.6572,107.536 34.6422,107.393 34.2002,107.296 C34.2162,107.438 34.2302,107.581 34.1032,107.737 C34.2452,107.722 34.3872,107.708 34.5302,107.693 Z M34.6952,103.793 C34.4552,104.25 34.2242,103.411 33.8422,103.882 C33.9022,104.452 34.3132,104.264 34.6282,104.52 C34.7552,104.362 34.7252,104.077 34.6952,103.793 C34.9652,103.622 34.6652,103.509 34.6952,103.793 Z M34.3582,104.691 C33.7742,104.61 33.1232,105.253 33.7372,105.62 C33.6772,105.05 34.5602,105.246 34.3582,104.691 Z M33.5262,109.092 C33.3852,109.108 33.3852,109.108 33.3992,109.25 L33.2572,109.265 C33.2722,109.406 32.9052,110.021 33.3322,109.976 C33.4592,109.818 33.4292,109.534 33.3992,109.25 C33.5412,109.235 33.5412,109.235 33.5262,109.092 C33.6692,109.077 33.6542,108.936 33.7962,108.921 C33.9242,108.762 33.6242,108.651 33.7962,108.921 C33.6392,108.792 33.5122,108.951 33.5262,109.092 Z M33.4522,105.65 C33.1682,105.679 33.0262,105.694 32.8842,105.709 C32.9292,106.136 32.5322,106.465 33.1152,106.547 C33.3702,106.233 33.6552,106.203 33.4522,105.65 Z M32.7032,106.734 C32.7482,107.161 32.9202,107.43 33.2202,107.543 C33.3022,106.96 33.0032,106.847 32.7032,106.734 Z M32.4402,116.54 C32.4402,116.54 32.4102,116.256 32.5532,116.241 C32.5682,116.383 32.5832,116.525 32.4402,116.54 Z M32.4792,107.333 C32.3372,107.347 32.1942,107.362 32.0532,107.378 C32.0972,107.805 32.0292,108.531 32.5842,108.33 C32.3822,107.775 32.3822,107.775 32.4792,107.333 Z M31.8482,117.753 C31.8632,117.895 31.7212,117.91 31.5782,117.924 C31.5642,117.783 31.7062,117.768 31.8482,117.753 Z M31.5732,108.291 C31.7012,108.134 31.9992,108.246 31.9702,107.962 C31.8432,108.119 31.5432,108.006 31.5732,108.291 Z M31.0712,110.357 C31.1692,109.916 30.7572,110.102 30.5852,109.833 C30.7712,110.245 30.0752,110.461 30.6602,110.544 C30.6452,110.402 30.9292,110.372 31.0712,110.357 Z M30.2912,119.354 C30.4192,119.197 30.5462,119.04 30.8302,119.01 C30.7182,119.31 30.5762,119.324 30.2912,119.354 Z M30.2102,114.475 C30.3372,114.317 30.4942,114.444 30.4642,114.159 C30.3372,114.317 30.1802,114.19 30.2102,114.475 Z M29.3952,12.322 C28.6692,12.255 29.0812,12.069 28.8642,11.372 C29.3052,11.469 29.2232,12.054 29.3952,12.322 Z M28.5572,12.554 C28.5722,12.697 28.5872,12.839 28.6022,12.981 C28.6022,12.981 28.4592,12.996 28.3172,13.011 C28.3032,12.869 28.2872,12.727 28.2722,12.584 C28.4142,12.569 28.5572,12.554 28.5572,12.554 Z M28.5252,121.696 C28.5402,121.839 28.5402,121.839 28.5542,121.982 C28.4122,121.997 28.2702,122.011 28.2702,122.011 C28.2552,121.869 28.2552,121.869 28.2402,121.726 C28.2402,121.726 28.3832,121.712 28.5252,121.696 Z M28.1002,9.583 C27.9892,9.883 28.7972,9.366 28.6552,9.38 C28.4972,9.254 28.1002,9.583 28.1002,9.583 Z M27.9122,14.635 C28.0552,14.62 28.0552,14.62 28.1972,14.605 C28.1972,14.605 28.0702,14.762 27.9122,14.635 Z M27.4782,15.975 C27.5232,16.401 27.2392,16.431 26.9542,16.461 C26.9392,16.319 27.0662,16.162 27.0512,16.02 C27.1942,16.005 27.3362,15.99 27.4782,15.975 Z M27.1412,16.874 C27.1712,17.157 26.9992,16.889 26.8572,16.903 C26.8422,16.761 27.1262,16.731 27.1412,16.874 Z M25.5252,17.905 C25.5392,18.048 25.3972,18.063 25.2552,18.078 C25.2402,17.935 25.3972,18.063 25.5252,17.905 Z M25.2772,22.389 C25.3222,22.816 24.8802,22.719 25.0672,23.13 C25.5082,23.228 25.7182,22.487 25.2772,22.389 Z M25.1732,18.661 C25.2322,19.231 25.4422,18.49 25.7412,18.602 C25.6292,18.901 25.5162,19.201 24.9482,19.26 C24.6342,19.006 24.7162,18.423 25.3002,18.505 C25.3152,18.646 25.1732,18.661 25.1732,18.661 Z M25.0592,24.425 C24.8722,24.015 25.5082,23.228 24.7972,23.303 C24.8722,24.015 24.0042,23.961 24.4902,24.485 C24.6322,24.47 24.9172,24.441 25.0592,24.425 Z M23.5702,19.837 C23.5552,19.694 23.8252,19.523 23.8102,19.38 C24.2372,19.335 23.8702,19.949 23.5702,19.837 Z M23.7032,29.313 C23.5912,29.612 23.3222,29.785 23.7632,29.881 C23.7332,29.597 24.0032,29.426 23.7032,29.313 Z M23.4872,25.885 C23.3592,26.042 23.2472,26.342 23.4192,26.611 C23.8612,26.708 23.6592,26.154 23.6292,25.87 L23.7722,25.855 C23.8992,25.698 24.1382,25.241 23.6972,25.144 C23.5842,25.443 23.5992,25.586 23.6292,25.87 L23.4872,25.885 Z M22.2442,27.741 C22.0342,28.482 21.4952,28.826 21.4282,29.552 C22.1392,29.478 23.1422,28.078 22.2442,27.741 Z M20.2602,32.12 C20.5442,32.09 20.6862,32.075 20.8292,32.06 C20.7992,31.776 20.7842,31.632 20.7542,31.349 C21.3232,31.289 21.1212,30.735 21.3752,30.421 C20.6502,30.353 20.7092,30.922 20.7542,31.349 C20.4852,31.521 20.2152,31.692 20.2602,32.12 Z M20.1022,34.725 C20.2442,34.71 20.3872,34.695 20.3722,34.552 C20.2292,34.567 20.0872,34.582 20.1022,34.725 Z M20.1482,32.419 C19.8932,32.734 20.1102,33.43 20.6642,33.228 C20.4922,32.958 20.4472,32.532 20.1482,32.419 Z M20.1322,35.008 C20.0202,35.308 19.8782,35.322 19.7652,35.623 C20.2072,35.72 20.5742,35.106 20.1322,35.008 Z M19.9392,30.428 C19.9832,30.855 19.3992,30.772 19.6012,31.326 C20.0432,31.424 20.3802,30.526 19.9392,30.428 Z M20.0122,33.871 C19.9982,33.729 19.9832,33.587 19.9832,33.587 C19.8412,33.602 19.6982,33.616 19.5562,33.631 C19.5562,33.631 19.5712,33.774 19.5862,33.916 C19.7282,33.901 19.8702,33.886 20.0122,33.871 Z M19.5482,34.926 C19.2642,34.957 19.2342,34.672 19.0922,34.686 C18.9802,34.986 18.8372,35.002 18.7102,35.158 C19.1522,35.255 19.3092,35.382 19.5482,34.926 Z M19.1812,35.541 C18.8972,35.571 18.4702,35.615 18.6422,35.885 C18.9272,35.855 19.0542,35.697 19.1812,35.541 Z M18.6582,126.328 C18.6432,126.186 18.6282,126.044 18.6282,126.044 C18.4862,126.059 18.3442,126.074 18.3442,126.074 C18.3442,126.074 18.3592,126.215 18.3742,126.358 C18.3742,126.358 18.5162,126.343 18.6582,126.328 Z M17.7742,41.296 C17.7592,41.153 17.7442,41.012 17.4592,41.042 C17.4742,41.183 17.5042,41.468 17.6612,41.596 C17.6462,41.454 17.6312,41.311 17.7742,41.296 Z M18.0132,43.571 C17.7282,43.601 17.3162,43.789 17.2192,44.231 C17.6762,44.47 18.0732,44.141 18.0132,43.571 Z M17.4682,34.282 C16.8842,34.2 17.2952,34.013 17.3932,33.571 C17.8352,33.669 17.2952,34.013 17.4682,34.282 Z M17.3692,40.188 C17.3552,40.047 17.3402,39.903 17.3402,39.903 C17.1972,39.918 17.0552,39.933 17.0552,39.933 C17.0552,39.933 17.0702,40.076 17.0852,40.218 C17.0852,40.218 17.2272,40.203 17.3692,40.188 Z M17.5562,43.332 C17.3692,42.92 17.4812,42.621 17.6092,42.464 C17.3242,42.493 17.2942,42.209 16.9942,42.097 C17.0392,42.524 16.6282,42.711 16.6732,43.137 C17.0842,42.95 17.1292,43.377 17.5562,43.332 Z M17.1452,40.787 C16.5602,40.705 16.6052,41.131 16.6352,41.416 C17.0772,41.513 17.0332,41.087 17.1452,40.787 Z M16.9212,35.922 C16.7792,35.937 16.7632,35.795 16.6212,35.81 C16.6062,35.666 16.5922,35.525 16.5762,35.382 C16.8612,35.352 16.8912,35.636 16.9212,35.922 Z M16.5682,42.141 C16.5542,42 16.5542,42 16.5382,41.857 C16.3962,41.872 16.2542,41.887 16.1122,41.902 C16.1272,42.045 16.1272,42.045 16.1412,42.186 C16.2832,42.172 16.4262,42.156 16.5682,42.141 Z M15.3562,38.819 C15.3712,38.961 15.3862,39.102 15.4012,39.245 C15.2592,39.26 15.0872,38.99 15.3562,38.819 Z M15.1982,44.155 C16.0812,44.35 16.1032,43.197 15.7752,42.8 C15.7442,42.516 16.8972,42.538 16.4412,42.299 C16.1572,42.329 15.8722,42.359 15.5882,42.389 C15.8042,43.085 15.5652,43.541 15.1532,43.728 C15.4382,43.698 15.3252,43.998 15.1982,44.155 Z M15.0342,39.859 C14.4802,40.06 14.3902,39.207 14.9742,39.29 C14.9902,39.431 15.0192,39.716 15.0342,39.859 Z M14.5692,46.378 C15.4522,46.572 15.4302,44.993 15.2282,44.44 C15.2582,44.724 14.6742,44.641 14.7032,44.926 C15.3182,45.292 14.5092,45.81 14.5692,46.378 Z M14.6742,47.373 C14.6582,47.232 14.6292,46.947 14.3592,47.12 C14.3742,47.261 14.2622,47.561 14.5462,47.53 C14.5462,47.53 14.5322,47.388 14.6742,47.373 Z M14.0312,43.99 C14.1732,43.975 14.1872,44.117 14.3452,44.245 C14.0602,44.275 13.9182,44.29 14.0312,43.99 Z M13.8952,48.174 C13.9102,48.316 13.9252,48.459 13.9402,48.601 C14.3962,48.841 14.2922,47.846 13.8952,48.174 Z M13.4372,53.399 C13.3552,53.983 14.0812,54.049 14.1642,53.467 C13.7372,53.512 13.7222,53.369 13.4372,53.399 Z M13.3562,45.787 C13.3712,45.929 13.5142,45.914 13.4992,45.772 L13.3562,45.787 Z M13.5882,43.892 C13.1472,43.796 13.3422,42.912 13.4842,42.897 C14.0532,42.837 13.6862,43.451 13.5882,43.892 Z M13.6992,57.255 C13.2722,57.299 13.1452,57.457 13.1902,57.882 C13.6312,57.98 13.4452,57.568 13.6992,57.255 Z M14.1122,51.603 C14.3142,52.157 14.7552,52.254 14.5302,52.853 C15.2572,52.92 14.8832,52.097 15.2802,51.767 C14.2992,52.014 14.5382,51.558 14.7632,50.959 C14.0372,50.892 13.9392,51.334 13.3562,51.251 C13.1982,51.123 13.1832,50.982 13.1682,50.839 C13.4082,50.382 14.4262,49.126 13.6852,48.916 C13.6182,49.641 12.1872,51.086 13.3562,51.251 C13.4302,51.962 13.6842,51.648 14.1122,51.603 Z M13.6092,56.401 C13.1982,56.588 13.0402,56.461 12.8832,56.333 C13.0702,56.745 12.9882,57.329 13.6842,57.112 C13.6692,56.969 13.6392,56.685 13.6092,56.401 Z M12.7632,55.196 C12.9062,55.181 13.0482,55.166 13.0332,55.024 C12.8902,55.039 12.7492,55.053 12.7632,55.196 Z M12.6372,49.888 C12.6072,49.604 12.4952,49.902 12.6372,49.888 C12.7942,50.016 12.9212,49.858 12.6372,49.888 Z M12.5612,57.374 C12.7032,57.359 12.9882,57.329 12.9732,57.186 C12.8452,57.344 12.5472,57.231 12.5612,57.374 Z M13.5202,52.816 C13.5052,52.672 13.5052,52.672 13.6472,52.658 C13.7602,52.359 13.4752,52.388 13.3332,52.403 C13.2732,51.835 13.0862,51.423 12.5322,51.626 C12.5622,51.91 12.4352,52.066 12.4502,52.209 C12.8622,52.022 12.9062,52.448 13.3332,52.403 C13.3472,52.546 13.3782,52.831 13.5202,52.816 Z M12.4792,52.493 C12.2102,52.666 12.2552,53.092 12.8092,52.891 C12.7792,52.606 12.6222,52.478 12.4792,52.493 Z M12.3832,47.471 C12.3982,47.612 12.2562,47.627 12.1142,47.642 C12.0982,47.501 12.2412,47.485 12.3832,47.471 Z M12.2782,54.672 C12.0602,53.976 12.8012,54.184 12.7562,53.758 C12.4712,53.788 12.4272,53.361 11.8732,53.563 C12.0752,54.117 11.6342,54.021 11.8352,54.574 C11.9782,54.559 12.1352,54.687 12.2782,54.672 Z M12.0522,60.734 C12.0362,60.592 12.0362,60.592 12.0212,60.45 C12.0212,60.45 11.8792,60.465 11.7372,60.48 C11.7522,60.622 11.7522,60.622 11.7662,60.764 C11.9092,60.749 12.0522,60.734 12.0522,60.734 Z M12.0662,60.877 C12.4412,61.7 11.5432,61.363 11.7602,62.059 C12.1862,62.014 12.6802,61.244 12.0662,60.877 Z M11.9332,48.668 C11.3502,48.586 11.8742,48.1 11.8442,47.815 C12.5552,47.74 11.9182,48.526 11.9332,48.668 Z M12.1502,54.828 C11.4242,54.761 11.1622,56.371 12.0002,56.138 C12.2552,55.824 12.2102,55.398 12.1502,54.828 Z M11.7402,49.551 C11.4552,49.582 11.4252,49.297 11.3802,48.871 C11.9332,48.668 11.7092,49.266 11.7402,49.551 Z M11.8742,45.367 C11.9042,45.651 11.9192,45.795 11.9342,45.936 C11.7922,45.951 11.6492,45.966 11.3662,45.996 C11.3512,45.854 11.3362,45.711 11.3362,45.711 C11.4772,45.696 11.4632,45.554 11.5902,45.397 C11.5902,45.397 11.7322,45.381 11.8742,45.367 Z M10.9292,58.264 C11.2812,57.508 11.2882,58.945 11.6852,58.616 C11.6252,58.047 11.5512,57.336 12.1192,57.276 C12.0752,56.849 11.8052,57.022 11.8872,56.438 C11.4612,56.483 11.0342,56.527 10.7652,56.7 C11.4382,57.636 10.1582,57.771 10.9292,58.264 Z M11.3202,48.301 C11.1932,48.459 10.9232,48.63 10.6382,48.66 C10.7662,48.504 10.7362,48.219 10.7062,47.934 C11.0062,48.047 11.0202,48.19 11.3202,48.301 Z M10.9212,62.292 C10.7792,62.306 10.4952,62.336 10.3522,62.351 C10.5402,62.763 10.5702,63.047 11.0112,63.144 C10.9512,62.576 10.6672,62.606 10.9212,62.292 Z M10.9742,58.691 C10.2632,58.766 10.3532,59.618 10.2702,60.202 C11.5652,60.21 10.7492,59.289 10.9742,58.691 Z M10.5042,50.112 C10.5042,50.112 10.5192,50.255 10.5342,50.397 C10.3922,50.412 10.2492,50.427 10.1072,50.442 C10.0922,50.3 10.0772,50.157 10.0772,50.157 C10.2192,50.142 10.3622,50.127 10.5042,50.112 Z M9.8202,69.596 C9.8492,69.881 9.6252,70.48 10.0522,70.435 C9.7222,70.039 10.5312,69.521 9.8202,69.596 Z M10.7272,60.443 C10.4432,60.473 10.1582,60.503 9.8732,60.532 C9.7762,60.973 9.6792,61.416 9.5812,61.857 C10.1202,61.513 10.3462,60.913 10.7272,60.443 Z M9.9872,54.768 C10.0022,54.911 10.0162,55.052 10.0472,55.338 C9.9042,55.353 9.7622,55.367 9.6202,55.382 C9.6052,55.24 9.4482,55.112 9.4182,54.828 C9.5602,54.813 9.7022,54.798 9.9872,54.768 Z M9.8372,53.346 C9.4102,53.391 9.3812,53.106 9.3502,52.822 C9.6362,52.792 9.8072,53.061 9.8372,53.346 Z M9.5742,57.688 C9.6042,57.972 9.3052,57.86 9.1782,58.017 C9.1472,57.733 9.4472,57.845 9.5742,57.688 Z M9.5212,64.019 C9.3192,63.467 10.2022,63.66 10.0002,63.107 C9.5592,63.009 9.6042,63.437 9.1622,63.339 C9.0642,63.78 9.2222,63.908 9.5212,64.019 Z M9.2352,72.246 C9.1382,72.688 9.0252,72.987 9.0852,73.555 C9.7962,73.481 9.6612,72.201 9.2352,72.246 Z M9.3332,71.804 C9.3182,71.663 9.3032,71.52 9.2882,71.378 C9.1462,71.393 9.0042,71.408 8.8612,71.423 C8.8762,71.565 8.8912,71.708 8.9062,71.849 C9.0492,71.835 9.1902,71.819 9.3332,71.804 Z M8.7302,48.286 C8.7452,48.429 8.7602,48.57 8.7752,48.713 C8.6332,48.728 8.4912,48.743 8.4912,48.743 C8.4752,48.6 8.4612,48.459 8.4462,48.316 C8.4462,48.316 8.5882,48.301 8.7302,48.286 Z M8.4292,59.102 C8.5712,59.087 8.7282,59.214 8.7432,59.357 C8.3162,59.401 8.3012,59.259 8.4292,59.102 Z M8.5632,65.847 C8.3612,65.293 8.8032,65.389 8.7732,65.105 L8.9142,65.09 C9.0422,64.934 9.1542,64.633 8.8542,64.522 C8.8692,64.663 8.7432,64.821 8.7732,65.105 C8.3312,65.008 8.1212,65.749 8.5632,65.847 Z M8.5772,71.453 C8.5622,71.31 8.5622,71.31 8.5472,71.169 C8.4042,71.183 8.2622,71.198 8.2622,71.198 C8.2772,71.34 8.2772,71.34 8.2922,71.483 C8.2922,71.483 8.4342,71.467 8.5772,71.453 Z M8.4662,60.823 C8.1822,60.853 8.1522,60.568 8.1222,60.285 C8.2792,60.412 8.4362,60.538 8.4662,60.823 Z M8.3232,66.302 C8.4122,67.157 8.0152,67.485 7.9332,68.069 C8.3452,67.883 8.9522,66.812 8.3232,66.302 Z M8.2942,57.822 C8.1372,57.694 8.1072,57.41 7.9212,56.999 C8.3772,57.238 8.5342,57.366 8.2942,57.822 Z M8.3252,58.107 C7.9132,58.293 8.4592,59.387 7.8902,59.446 C7.6732,58.751 7.9282,58.435 7.8682,57.867 C8.0252,57.995 8.1822,58.121 8.3252,58.107 Z M7.5742,75.585 C7.5882,75.726 7.4612,75.883 7.5062,76.31 C8.0752,76.251 8.1422,75.525 7.5742,75.585 Z M7.5672,68.684 C7.5972,68.968 7.3272,69.139 7.3572,69.424 C7.7992,69.522 8.0082,68.78 7.5672,68.684 Z M7.5882,78.459 C7.1462,78.361 7.3482,78.916 7.0782,79.088 C7.5052,79.043 7.6332,78.886 7.5882,78.459 Z M7.2132,80.368 C7.2132,80.368 7.1982,80.225 7.1832,80.084 C7.1832,80.084 7.0412,80.098 6.8982,80.113 C6.9132,80.255 6.9282,80.398 6.9282,80.398 C7.0712,80.382 7.2132,80.368 7.2132,80.368 Z M7.2232,59.947 C8.0772,59.857 7.8002,61.325 7.2312,61.385 C6.9022,60.988 6.6702,60.151 7.2232,59.947 Z M7.1512,90.727 C7.1512,90.727 7.1372,90.585 7.1212,90.442 L6.8372,90.472 C6.8522,90.615 6.8672,90.757 6.8672,90.757 L7.1512,90.727 Z M7.2892,72.882 C7.4982,72.141 6.8172,72.501 6.9152,72.059 C7.2002,72.029 7.3112,71.73 7.5962,71.7 C7.5662,71.415 7.3942,71.146 7.1102,71.175 C7.0122,71.617 6.6002,71.804 6.6602,72.373 C6.9452,72.343 6.9902,72.77 7.2892,72.882 Z M6.5122,65.487 C6.4292,66.071 7.4252,65.966 7.0802,65.427 C7.9492,65.479 6.8492,64.589 7.0802,65.427 C6.9382,65.442 6.7962,65.457 6.5122,65.487 Z M7.0292,63.563 C6.8862,63.577 6.6012,63.608 6.3182,63.637 C6.4292,63.338 6.5562,63.182 6.5122,62.755 C6.6842,63.024 6.9842,63.137 7.0292,63.563 Z M6.6592,75.105 C6.4282,74.267 7.7612,73.264 6.7352,73.084 C6.4952,73.541 6.5702,74.253 6.1582,74.439 C6.4582,74.55 6.2482,75.292 6.6592,75.105 Z M6.1062,75.307 C6.0092,75.749 6.3082,75.86 6.5922,75.831 C6.6902,75.39 6.2782,75.577 6.1062,75.307 Z M6.1722,82.777 C5.9182,83.091 5.8212,83.534 6.2772,83.773 C6.1052,83.505 6.6142,82.875 6.1722,82.777 Z M6.0582,91.273 C5.3402,89.911 6.7032,86.461 5.7982,84.686 C6.0522,87.104 5.0112,89.515 5.4902,91.333 C5.4602,91.048 5.7742,91.303 6.0582,91.273 Z M5.3122,81.43 C5.7682,81.67 5.6792,80.816 5.4092,80.989 C5.4242,81.131 5.4242,81.131 5.2822,81.145 C5.2972,81.289 5.3122,81.43 5.3122,81.43 Z M5.2002,73.533 C5.4852,73.504 5.4032,74.088 5.9572,73.884 C5.9122,73.459 5.1712,73.248 5.2002,73.533 Z M5.0022,93.541 C5.0772,94.252 4.6812,94.582 4.8982,95.278 C5.6242,95.345 5.0472,93.968 5.0022,93.541 Z M4.7272,81.349 C5.4392,81.274 4.9082,80.322 5.8212,80.801 C6.0542,78.908 5.9042,77.485 6.4652,75.988 C5.5302,76.662 4.6682,78.046 5.6562,79.237 C5.2292,79.282 5.4542,78.683 5.0282,78.728 C5.1332,79.723 4.8922,80.18 4.7272,81.349 C4.6012,81.505 4.7572,81.632 4.7272,81.349 Z M4.6692,75.314 C4.9692,75.427 4.7592,76.168 5.3122,75.965 C4.9392,75.143 5.8222,75.337 5.6202,74.784 C5.3202,74.67 5.3502,74.955 5.2232,75.113 C4.9242,75 4.7812,75.015 4.6692,75.314 Z M4.8462,96.147 C4.7482,96.587 4.3962,97.343 4.7102,97.598 C4.8082,97.156 5.5862,96.355 4.8462,96.147 Z M5.3082,103.288 C5.2332,102.576 4.6492,102.494 5.1582,101.865 C4.8742,101.895 4.9712,101.453 4.5602,101.639 C4.4772,102.224 4.3802,102.666 4.4702,103.519 C5.0542,103.601 5.0392,103.459 5.3082,103.288 Z M4.7012,109.821 C5.0142,112.808 5.6502,117.486 7.3872,120.324 C5.6882,116.476 5.9952,112.562 4.8432,109.807 C5.2322,108.04 5.0232,106.049 4.3582,103.818 C4.4392,105.966 4.1622,107.434 4.8432,109.807 L4.7012,109.821 Z M5.0692,101.011 C4.8672,100.458 5.6302,99.515 5.1442,98.99 C5.0772,99.717 4.4032,98.781 4.3212,99.364 C4.3662,99.792 4.3282,100.802 5.0692,101.011 Z M6.9152,66.595 C6.6322,66.625 6.7282,66.183 6.4442,66.213 C6.1752,66.385 6.3922,67.081 5.8382,67.283 C5.8232,67.141 5.5382,67.171 5.5232,67.028 C5.3062,66.332 5.7182,66.146 6.3022,66.228 C6.5272,65.629 5.7182,66.146 5.6732,65.718 C6.3852,65.643 5.9802,64.537 6.2202,64.079 C6.6612,64.177 7.0662,65.284 7.5602,64.514 C6.6762,64.318 7.5152,64.087 7.9272,63.9 C7.7102,63.204 7.2832,63.249 6.7822,62.582 C7.0522,62.411 7.0362,62.268 7.3052,62.096 C7.3502,62.523 7.7772,62.478 8.2042,62.433 C8.2272,61.28 9.0352,60.764 8.7432,59.357 L9.0282,59.327 C9.4092,58.855 9.6342,58.256 10.0012,57.643 C9.5142,57.118 9.8972,56.647 10.2482,55.891 C10.6302,55.421 10.9972,54.806 10.7362,53.682 C10.7062,53.398 11.3042,53.623 11.2592,53.197 C10.6162,52.546 12.0902,51.528 11.6722,50.277 C12.1132,50.375 12.0832,50.091 12.3672,50.061 C12.1662,49.506 12.1662,49.506 12.5772,49.32 C12.5332,48.893 12.2332,48.781 12.3162,48.196 C12.7422,48.152 13.1542,47.965 13.2662,47.665 C13.1242,47.68 12.8392,47.71 12.8252,47.568 C13.3642,47.224 13.5742,46.483 13.7832,45.742 C13.6412,45.756 13.6412,45.756 13.4992,45.772 C13.4692,45.486 13.1252,44.948 13.5522,44.903 C13.7082,45.031 13.9922,45.001 14.2772,44.971 C14.2622,44.828 14.2472,44.686 14.3892,44.671 C14.3752,44.529 14.3602,44.387 14.3452,44.245 C14.7572,44.058 14.2402,43.249 14.2102,42.965 C14.7342,42.478 14.6292,41.482 15.1992,41.422 C14.5992,41.199 15.5952,41.094 15.5502,40.667 C14.5102,40.345 15.6332,40.083 15.4012,39.245 C15.5432,39.23 15.5432,39.23 15.6852,39.215 C15.7382,38.346 16.1202,37.875 16.8902,38.369 C16.8162,37.658 16.9582,37.644 16.7562,37.089 C17.4522,36.872 17.3402,37.172 17.9382,37.396 C17.7282,38.137 17.2052,38.625 17.1372,39.351 C18.1032,38.961 17.9832,37.823 18.1632,36.797 C17.5642,36.573 17.2652,36.461 16.8382,36.506 C17.0782,36.049 17.5052,36.005 17.9472,36.101 C18.1182,36.371 18.2762,36.498 18.5752,36.61 C18.5302,36.184 18.3732,36.056 17.9472,36.101 C17.9022,35.675 17.3472,35.877 17.4152,35.151 C18.0142,35.375 17.7972,34.679 18.5532,35.031 C18.3502,34.477 19.1072,34.83 19.0472,34.26 C18.4182,33.751 18.1262,35.076 17.7522,34.253 C18.6052,34.163 18.5312,33.452 18.4862,33.025 C18.7702,32.995 18.9122,32.98 19.1972,32.95 C19.3472,31.64 19.2802,29.634 20.7022,29.485 C20.4402,28.362 20.4932,27.494 21.8032,27.644 C21.4432,26.962 21.3682,26.251 22.2662,26.589 C22.4172,25.279 22.6342,23.243 24.1392,22.509 C24.0942,22.082 23.3232,21.589 23.8462,21.101 C24.2592,20.915 23.7802,21.828 24.3182,21.484 C24.6862,20.87 25.0222,19.971 24.8352,19.56 C25.3222,20.084 27.0812,19.036 26.2812,18.258 C27.5152,17.696 28.4892,16.012 28.1972,14.605 C28.2792,14.021 27.8672,14.21 27.6962,13.939 C27.6662,13.655 27.7782,13.355 28.0482,13.183 C28.2492,13.737 28.4372,14.15 29.0202,14.232 C29.7392,12.861 29.7252,9.987 31.4162,9.666 C31.6562,9.209 32.0382,8.737 32.0912,7.869 C31.2072,7.674 30.9302,9.141 30.4072,9.629 C25.8992,13.265 24.2222,19.193 20.6432,23.452 C20.0062,26.97 17.3262,28.833 16.6892,32.351 C15.1322,33.953 14.8182,36.43 13.7172,38.272 C13.5752,38.286 13.5602,38.144 13.4182,38.159 C13.7392,39.851 11.8672,41.198 11.9352,43.204 C11.6352,43.091 11.6652,43.376 11.5232,43.39 C10.2652,47.837 8.9912,52.141 7.1792,56.789 C7.5242,57.328 7.2242,57.216 7.2992,57.927 C6.4912,58.443 6.7672,59.708 6.5722,60.591 C6.4302,60.606 6.2872,60.621 6.0042,60.651 C6.8492,61.857 4.9182,62.635 6.0182,63.526 C5.7482,63.697 5.4642,63.727 5.1942,63.901 C5.3142,65.037 5.6882,65.861 4.6252,66.691 C4.9102,66.661 5.0672,66.789 5.2392,67.058 C4.8572,67.531 4.6172,67.986 4.5352,68.571 C4.6782,68.556 4.9622,68.526 4.9922,68.809 C4.7222,68.983 4.4682,69.297 4.1982,69.468 C4.7002,70.134 3.8612,70.366 4.2652,71.474 C4.9912,71.542 4.1462,70.337 4.7152,70.277 C4.9992,70.247 4.9172,70.831 5.3282,70.644 C5.5532,70.045 5.3062,69.064 5.4332,68.908 C6.1442,68.833 5.4552,70.487 6.1662,70.413 C6.1072,69.843 6.0622,69.417 6.5332,69.798 C6.5862,68.93 5.4042,68.623 5.7702,68.008 C6.2122,68.107 6.2722,68.674 6.6992,68.63 C6.6242,67.919 6.5642,67.351 7.1182,67.148 C7.0882,66.864 6.9452,66.879 6.9152,66.595 C7.3432,66.55 6.5572,65.914 6.9152,66.595 Z M4.8042,76.594 C4.7742,76.31 4.7592,76.168 4.7432,76.025 C4.3172,76.07 4.0332,76.1 4.0632,76.385 C4.3622,76.498 4.3772,76.639 4.8042,76.594 Z M4.1362,85.292 C4.1502,85.435 4.0092,85.449 3.8662,85.464 C3.8522,85.322 3.9942,85.307 4.1362,85.292 Z M4.4232,71.602 C3.8682,71.803 3.9662,71.362 3.6662,71.25 C3.4572,71.991 3.8902,73.383 5.0132,73.122 C4.5272,72.597 4.6552,72.44 4.4232,71.602 Z M3.4042,72.859 C3.5462,72.844 3.6892,72.829 3.6742,72.687 C3.5322,72.702 3.3892,72.716 3.4042,72.859 Z M3.9002,111.775 C3.7582,111.79 3.6152,111.805 3.4732,111.82 C3.5032,112.105 3.3612,112.12 3.3762,112.261 C3.6602,112.232 3.9442,112.202 3.9002,111.775 Z M3.8752,75.973 C3.8462,75.689 3.8302,75.547 3.8012,75.262 C4.3692,75.202 4.0252,74.663 4.2802,74.349 C3.8082,73.967 3.2842,74.454 3.1722,74.753 C3.5982,74.708 3.7562,74.835 3.8012,75.262 C3.0742,75.194 3.1792,76.19 3.8752,75.973 Z M2.9122,110.584 C3.0542,110.569 3.0842,110.855 3.1962,110.554 C3.1812,110.412 2.8822,110.3 2.9122,110.584 Z M3.1372,104.522 C3.0102,104.678 2.8672,104.693 2.8832,104.836 C2.7402,104.851 2.7252,104.709 2.5832,104.723 C2.5682,104.582 2.7112,104.567 2.6962,104.424 C2.8382,104.409 2.8522,104.552 3.1372,104.522 Z M2.6012,85.741 C2.5722,85.457 2.4592,85.756 2.6012,85.741 C2.7732,86.011 2.8862,85.711 2.6012,85.741 Z M2.8262,82.41 C3.3802,82.209 3.1632,81.513 3.5752,81.324 C2.8342,81.115 3.3282,80.344 3.4262,79.902 C2.9692,79.663 2.6842,79.693 2.4292,80.007 C3.1042,80.943 2.8792,81.543 2.8262,82.41 Z M3.0542,107.839 C2.6282,107.883 2.8002,108.152 2.3442,107.913 C3.5412,108.362 2.2382,109.649 3.1512,110.129 C3.1892,109.119 3.5862,108.789 3.0542,107.839 Z M2.6512,103.998 C2.5092,104.012 2.4932,103.87 2.3512,103.885 C2.3372,103.743 2.3222,103.602 2.3222,103.602 C2.5912,103.429 2.6212,103.714 2.6512,103.998 Z M3.0902,78.069 C2.5352,78.27 2.4532,78.855 2.2282,79.454 C2.7972,79.394 2.8802,78.81 3.1042,78.211 C3.0212,78.795 3.1792,78.923 3.5912,78.735 C3.0452,77.642 4.3772,76.639 3.0372,76.204 C2.4982,76.549 3.7562,77.568 2.5872,77.403 C2.5052,77.987 3.1722,77.485 3.0902,78.069 Z M2.4342,100.569 C2.4492,100.712 2.3072,100.727 2.1652,100.742 C2.1502,100.599 2.3072,100.727 2.4342,100.569 Z M2.2022,102.463 C1.6332,102.523 2.3142,102.164 2.1422,101.894 C2.7262,101.977 2.3142,102.164 2.2022,102.463 Z M3.3802,87.672 C3.3422,88.682 2.5782,89.626 2.5112,90.352 C2.5112,90.352 2.8402,90.749 2.8552,90.891 C3.0192,92.456 1.7692,95.607 1.7762,97.044 C1.9482,97.313 1.9782,97.597 2.1502,97.867 C1.2002,98.398 2.3592,99.859 1.4242,100.531 C1.4842,101.101 1.9102,101.056 2.0972,101.468 C1.8132,101.498 1.6712,101.513 1.5132,101.385 C2.0222,103.489 2.2312,105.479 2.2992,107.485 C2.5832,107.455 2.8672,107.425 3.0102,107.411 C3.0472,106.401 3.0472,106.401 3.2422,105.518 C2.8152,105.563 2.7032,105.861 2.6732,105.578 C3.5942,104.761 3.1902,103.653 2.6582,102.703 C3.0852,102.658 3.3552,102.485 3.4822,102.328 C3.2802,101.774 3.2502,101.49 3.6322,101.018 C3.1902,100.922 3.1452,100.495 2.8462,100.382 C3.9622,98.683 2.8462,94.918 4.2472,93.189 C4.0602,92.777 3.8582,92.223 3.6562,91.671 C3.9402,91.64 4.0822,91.626 4.3522,91.452 C3.3792,90.405 4.3152,89.731 4.2252,88.878 C3.7982,88.923 3.3712,88.967 3.3262,88.541 C3.7532,88.496 3.9112,88.622 4.2112,88.736 C3.8062,87.627 4.6442,87.396 4.8842,86.939 C4.9672,86.355 4.4122,86.557 4.2402,86.287 C4.4952,85.974 4.4652,85.689 5.0492,85.772 C4.8622,85.36 4.8022,84.791 4.6152,84.38 C4.8852,84.206 5.5212,83.421 4.9072,83.055 C5.0792,83.324 4.6982,83.796 4.6672,83.51 C4.7352,82.785 5.3042,82.726 5.3712,82 C4.9452,82.045 4.6312,81.789 4.2192,81.976 C4.2942,82.687 3.8962,83.017 3.6422,83.331 C3.9642,85.023 3.3872,86.377 3.3802,87.672 Z M0.9692,92.096 C0.2952,91.16 0.4302,89.708 0.5652,88.255 C1.3812,89.176 0.7212,91.115 0.9692,92.096 Z M0.7892,93.121 C0.6472,93.136 0.4742,92.867 0.3322,92.881 C0.4442,92.582 0.5572,92.282 0.9842,92.237 C0.8712,92.537 0.7592,92.837 0.7892,93.121 Z M23.9962,27.988 C24.1682,28.257 24.4822,28.512 25.0362,28.311 C25.4552,29.561 24.3172,29.68 23.9502,30.294 C23.9722,31.873 23.3362,32.658 22.5582,33.46 C22.9172,34.141 22.3252,35.354 21.4872,35.586 C21.5322,36.012 21.8162,35.983 21.8462,36.267 C21.4202,36.312 21.4502,36.596 21.0082,36.498 C21.0532,36.926 21.0822,37.21 21.1122,37.494 C20.8272,37.524 20.6862,37.539 20.5292,37.411 C20.1322,37.741 21.0452,38.221 20.0342,38.182 C20.1912,38.311 20.3342,38.296 20.6182,38.266 C19.6152,39.664 19.1212,40.436 19.0312,42.314 C18.4472,42.232 17.9082,42.576 17.9532,43.003 C19.1352,43.309 17.6982,46.049 16.8892,46.566 C17.3382,48.1 16.1932,49.514 15.8032,51.282 C15.1072,51.498 15.9012,50.839 15.3312,50.899 C15.1902,50.914 15.2052,51.056 15.0622,51.071 C16.1622,51.963 14.9572,52.808 14.8222,54.26 C14.6352,53.848 14.4782,53.721 13.9392,54.065 C13.9692,54.35 14.1112,54.335 14.2682,54.463 C14.4712,55.017 14.3662,54.02 14.8222,54.26 C14.6052,56.296 13.6692,56.969 13.6242,59.275 C13.4972,59.433 13.0702,59.478 12.6432,59.523 C13.3912,61.169 12.2902,63.009 11.8872,64.634 C11.4602,64.679 11.3472,64.979 10.7642,64.896 C10.9662,65.45 10.5692,65.779 10.8842,66.033 C11.7372,65.944 10.9362,65.165 11.4902,64.964 C12.1482,65.757 11.1902,67.584 10.8532,68.482 C10.9872,69.761 10.4862,71.827 9.8942,73.04 C10.2602,75.159 8.7632,77.33 9.2412,79.147 C9.1592,79.732 8.8452,79.477 8.4032,79.38 C8.9352,80.331 8.2232,80.405 8.8382,80.772 C8.7172,82.367 8.2382,83.28 7.4592,84.081 C7.9312,84.462 7.5722,83.781 8.1412,83.721 C8.1862,84.148 8.2312,84.574 8.2752,85.001 C7.7212,85.203 7.9162,84.32 7.3622,84.522 C7.1082,84.837 8.0212,85.315 8.3502,85.712 C7.1972,88.422 8.2742,90.465 7.0922,92.89 C7.2562,94.455 7.5772,96.146 6.7162,97.53 C6.9332,98.228 7.2252,99.634 6.3872,99.866 C6.5742,100.278 6.7452,100.548 7.2022,100.787 C6.5512,104.163 7.1942,107.547 7.4402,111.258 C9.3482,117.098 10.0582,125.22 18.3882,123.769 C24.1762,119.997 27.9042,114.428 30.5322,107.969 C30.9452,107.782 30.8852,107.214 31.4532,107.154 C31.4242,106.869 31.3942,106.585 31.3642,106.3 C34.2172,101.974 35.6392,96.36 38.4622,91.75 C39.8932,84.84 43.5242,79.714 44.2432,72.881 C44.5282,72.851 44.6852,72.978 44.7302,73.404 C45.0972,72.791 45.3062,72.05 45.5012,71.167 C45.4862,71.024 45.2012,71.054 44.9182,71.084 C44.7002,70.388 45.0972,70.059 44.8802,69.363 C45.1952,69.617 46.2052,69.654 46.1452,69.086 C45.9142,68.247 45.5622,69.003 45.0902,68.622 C45.0452,68.194 45.6292,68.277 46.0562,68.232 C46.3252,68.06 46.2952,67.777 46.2502,67.349 C45.6822,67.408 46.0412,68.089 45.3152,68.023 C45.5102,67.139 45.7202,66.399 45.9292,65.658 C46.4982,65.598 46.4002,66.039 46.9392,65.694 C47.1792,65.239 46.7452,63.847 46.2892,63.607 C46.4162,63.449 46.4012,63.307 46.3712,63.022 C46.9252,62.821 46.6022,63.862 46.8872,63.832 C47.5242,63.047 46.2292,63.037 46.4232,62.155 C46.8502,62.11 47.4342,62.192 47.3892,61.766 C47.4722,61.182 46.6782,61.841 46.6332,61.413 C46.9552,60.373 47.6592,58.861 47.4122,57.88 L47.5542,57.865 C47.5402,57.723 47.4122,57.88 47.4122,57.88 C41.8132,59.332 36.9702,61.134 31.9172,63.68 C30.1432,64.585 28.8252,65.731 27.3362,66.606 C26.1162,67.309 24.8802,67.87 23.9372,67.106 C21.5882,61.171 27.4792,58.394 32.1272,57.475 L32.1422,57.616 C32.2842,57.601 32.2702,57.46 32.1272,57.475 C32.1122,57.331 32.0822,57.047 32.0672,56.905 C32.9362,56.957 33.2732,56.06 33.9022,56.568 C34.1712,56.396 34.4262,56.082 34.5382,55.783 C39.6962,54.234 45.1532,52.798 50.3252,51.391 C54.2332,50.262 58.4542,49.386 62.4662,49.253 C63.6192,49.276 64.7872,49.44 65.8572,50.047 C65.3482,50.675 63.9712,51.252 63.3872,51.169 C62.4742,50.69 61.6202,50.78 60.8272,51.438 C60.7972,51.154 60.7822,51.011 60.9092,50.855 C60.0412,50.802 59.1882,50.891 58.9632,51.49 C58.4092,51.692 58.6192,50.951 58.3192,50.839 C55.9472,51.519 54.3672,51.542 52.2632,52.05 C53.2742,52.088 54.4872,52.679 55.1162,53.189 C54.3892,53.122 55.3022,53.6 55.3172,53.743 C55.8712,53.541 55.1302,53.33 55.1162,53.189 C55.3852,53.017 55.3552,52.732 55.4822,52.574 C55.9242,52.672 56.9942,53.278 56.7332,52.155 C57.1442,51.969 56.9342,52.71 56.9642,52.994 C58.0422,52.305 59.7492,52.126 61.7402,51.917 C61.1342,52.987 59.1792,52.186 58.4162,53.129 C59.2172,53.908 60.1232,52.949 61.0062,53.145 C59.8762,54.701 58.3562,55.292 55.8112,55.704 C57.0762,58.159 54.7782,59.551 54.9192,62.269 C54.5082,62.456 54.3952,62.755 54.1262,62.926 C54.7322,64.589 54.5142,66.624 53.0392,67.642 C52.8822,70.247 51.6842,72.53 51.9242,74.805 C51.4592,75.861 50.8232,76.647 50.9872,78.212 C49.9302,83.212 48.3132,89.708 48.0872,95.771 C47.3842,97.284 47.9082,99.529 47.1882,100.899 C47.5102,102.59 47.0092,104.656 46.7612,106.407 C47.0972,108.242 47.1652,110.247 46.7752,112.014 C46.9322,112.141 46.9322,112.141 47.2172,112.111 C46.8122,116.468 47.9562,120.518 48.9732,124.725 C48.5322,124.626 48.7342,125.18 48.4502,125.211 C47.8662,125.129 47.6942,124.86 47.2222,124.476 C47.0952,124.634 47.1102,124.776 47.1402,125.061 C46.1292,125.024 45.8382,123.616 44.9992,123.848 C44.3782,122.044 41.9912,122.583 41.8932,120.291 C42.2452,119.536 42.4932,117.785 41.3252,117.62 C41.8192,116.848 41.5572,115.726 41.4382,114.588 C41.3932,114.161 40.8842,114.79 41.0552,115.06 C40.5392,114.251 42.1572,113.219 40.8022,112.642 C41.3562,112.44 41.3112,112.013 42.0672,112.365 C41.9772,111.511 41.6622,111.256 41.9032,110.8 C41.1772,110.733 41.4462,110.561 40.5622,110.366 C40.5032,109.798 40.6152,109.498 40.7132,109.056 C40.8552,109.041 40.8852,109.325 40.9002,109.468 C41.5362,108.682 40.3532,108.375 40.5032,107.065 C41.4612,107.97 40.4362,105.059 41.5072,105.665 C41.7092,106.219 40.9972,106.294 41.3572,106.975 C41.7682,106.789 41.8352,106.063 41.7762,105.493 C41.8732,105.053 41.1922,105.411 40.8932,105.299 C40.9902,104.857 40.9452,104.43 41.2002,104.116 C41.9262,104.183 41.5302,104.513 41.5892,105.083 C42.2252,104.296 41.6192,102.634 42.0832,101.579 C42.0692,101.437 41.7842,101.467 41.6422,101.482 C41.4702,101.212 40.9162,101.413 40.9982,100.83 C41.5522,100.628 41.2002,101.383 41.8962,101.167 C42.3232,101.122 41.6642,100.328 42.4062,100.538 C42.1892,99.842 41.7622,99.887 42.2562,99.116 C41.9422,98.862 41.5072,100.202 41.0212,99.677 C41.2612,99.221 41.0582,98.667 41.2982,98.211 C40.3102,99.752 39.3372,101.436 39.2312,103.173 C39.3732,103.158 39.5012,103.001 39.6282,102.843 C39.5462,103.427 39.6202,104.138 38.9092,104.213 C38.8652,103.786 39.1492,103.756 38.9622,103.344 C38.3402,104.273 39.2162,105.762 37.9952,106.466 C37.8082,106.053 38.3482,105.71 37.8762,105.328 C37.4642,105.516 37.5392,106.226 37.1282,106.413 C37.4572,106.809 37.5842,106.653 37.9952,106.466 C37.6742,107.506 37.0372,108.292 36.7002,109.191 C36.4162,109.22 36.5282,108.921 36.6552,108.764 C35.0382,109.797 34.9932,112.102 33.5332,113.262 C33.4512,113.845 34.0342,113.928 33.8102,114.527 C33.3092,113.86 33.0472,115.47 32.3362,115.545 C32.3952,116.113 33.0162,115.186 33.0612,115.612 C33.1062,116.038 32.9792,116.197 32.5532,116.241 C32.2232,115.844 31.7442,116.757 31.6322,117.057 C31.4892,117.072 31.4592,116.787 31.4292,116.503 C31.0482,116.973 30.6512,117.303 30.4272,117.902 C30.8532,117.858 30.8082,117.431 31.2802,117.813 C31.1522,117.969 31.0252,118.127 31.4522,118.082 C31.6532,118.636 30.9122,118.426 31.1152,118.981 C31.1152,118.981 30.9722,118.995 30.8302,119.01 C30.8012,118.726 30.9422,118.711 30.7702,118.441 C30.2312,118.786 30.1492,119.369 29.7522,119.698 C29.7822,119.983 30.1942,119.796 30.0822,120.095 C29.7972,120.125 29.0862,120.2 29.5282,120.298 C29.3182,121.038 29.2132,120.042 29.0712,120.057 C28.4502,120.985 28.6072,121.113 27.6862,121.929 C27.7012,122.071 27.7312,122.356 28.0002,122.183 C25.3872,126.052 17.6332,128.881 13.1042,125.475 C12.5652,125.818 13.7032,125.699 13.4642,126.155 C8.3742,124.246 4.6242,120.039 3.0162,114.313 C3.1962,113.286 2.6652,112.336 2.1632,111.67 C2.1032,111.101 2.2002,110.659 2.4402,110.203 C2.2832,110.076 1.8872,110.405 1.5572,110.008 C1.0262,106.325 0.8182,101.602 0.9232,97.133 C0.9082,96.991 0.7652,97.006 0.6382,97.163 C0.4512,96.752 0.5642,96.452 0.9912,96.407 C0.4592,95.456 1.2832,95.082 0.8642,93.832 C0.4372,93.877 1.0962,94.671 0.4962,94.446 C0.3252,94.177 0.1672,94.049 0.2642,93.608 C0.5192,93.294 0.4072,93.592 0.8342,93.548 C1.5152,90.457 1.1032,87.911 2.0702,84.79 C1.5842,84.266 1.2912,85.591 1.0592,84.754 C0.7002,84.072 1.7412,84.394 1.8832,84.379 C2.0932,83.638 1.8762,82.941 2.0412,81.774 C1.6582,82.245 1.9062,83.226 1.5392,83.839 C0.7832,83.488 1.2852,81.422 1.7792,80.652 C1.9512,80.921 1.7412,81.662 2.0262,81.632 C2.4372,81.444 1.9212,80.636 2.3322,80.449 C2.1312,79.895 1.9212,80.636 1.6212,80.524 C1.1132,78.42 2.7832,76.52 2.1322,74.431 C2.5732,74.528 2.5132,73.959 2.7982,73.929 C2.0792,72.567 3.7792,70.951 3.0312,69.303 C3.1732,69.289 3.1432,69.004 3.4422,69.117 C6.2892,55.157 10.3782,42.073 16.2112,30.532 C16.1802,30.248 16.1512,29.963 16.1212,29.679 C17.5512,28.234 17.7082,25.63 19.2962,24.313 C19.4602,23.145 19.4832,21.992 20.5912,21.589 C20.0902,20.922 21.4972,20.63 21.0782,19.38 C21.2052,19.222 21.6322,19.177 21.9312,19.29 C21.9692,18.279 22.6202,17.635 23.2712,16.993 C23.3012,17.277 23.4132,16.978 23.2712,16.993 C23.8632,15.779 25.0682,14.934 25.0312,13.213 C25.1732,13.198 25.4582,13.169 25.4722,13.31 C26.1912,11.94 28.1232,11.161 27.8012,9.47 C29.4032,8.296 30.2862,5.758 32.1062,5.28 C32.3302,4.68 32.8172,5.205 32.5702,4.224 C34.2022,3.334 35.3622,2.061 36.8372,1.044 C40.9172,0.183 45.6402,-0.025 47.9832,1.741 C47.9752,3.036 48.9412,2.647 48.8882,3.516 C48.9482,4.085 48.5362,4.272 48.4392,4.713 C47.4432,4.817 46.7922,5.461 45.9082,5.267 C40.5272,7.414 36.8732,10.962 33.5492,14.906 C32.7472,16.859 31.7892,18.686 30.0452,19.876 C29.9482,20.317 29.5362,20.503 29.4542,21.088 C29.3412,21.387 28.9142,21.432 28.6452,21.604 C28.1582,23.813 27.0882,25.938 25.3882,27.555 C24.8942,28.326 24.6622,27.486 23.9962,27.988 Z M0.1742,98.218 C0.1442,97.935 0.2572,97.635 0.6982,97.732 C0.4292,97.905 0.6162,98.316 0.1742,98.218 Z M0.0022,95.217 C-0.0418,94.79 0.5412,94.873 0.5122,94.589 C0.9532,94.686 0.4442,95.315 0.0022,95.217 Z" id="Fill-1" fill="#5688C5" mask="url(#mask-2)"></path>
                </g>
                <g id="Group-6" transform="translate(70.000000, 0.713000)">
                    <mask id="mask-4" fill="white">
                        <use xlink:href="#path-3"></use>
                    </mask>
                    <g id="Clip-5"></g>
                    <path d="M63.1836,44.5455 C63.1686,44.4025 63.1686,44.4025 63.1546,44.2615 C63.1546,44.2615 63.0116,44.2765 62.8706,44.2915 C62.8846,44.4325 62.8846,44.4325 62.8996,44.5755 C63.0406,44.5605 63.1836,44.5455 63.1836,44.5455 Z M62.7426,41.7155 C63.2966,41.5135 62.3756,42.3305 62.9596,42.4115 C63.2136,42.0975 63.1096,41.1015 62.7426,41.7155 Z M62.7356,40.2785 C63.0196,40.2495 63.0496,40.5335 63.1626,40.2335 C63.1476,40.0915 62.8626,40.1215 62.7356,40.2785 Z M62.7876,36.6785 C62.5786,37.4195 62.8486,37.2465 62.7946,38.1155 C63.3496,37.9125 63.1026,36.9325 62.7876,36.6785 Z M62.8316,45.3015 C62.8466,45.4425 62.7046,45.4585 62.7046,45.4585 C62.7196,45.6005 62.7346,45.7435 62.7496,45.8855 C63.0346,45.8555 63.0036,45.5705 62.9746,45.2865 C63.5126,44.9425 62.3456,44.7765 62.9746,45.2865 L62.8316,45.3015 Z M62.8556,35.9515 L62.8266,35.6685 C62.6836,35.6835 62.5406,35.6985 62.5406,35.6985 C62.5556,35.8395 62.5556,35.8395 62.5716,35.9815 C62.5716,35.9815 62.7136,35.9665 62.8556,35.9515 Z M62.7416,49.9115 C62.7416,49.9115 62.7266,49.7695 62.7116,49.6275 L62.4266,49.6575 C62.4416,49.7995 62.4566,49.9415 62.4566,49.9415 C62.5986,49.9265 62.5986,49.9265 62.7416,49.9115 Z M62.4216,31.8275 C62.8406,33.0775 61.9346,34.0355 62.9236,35.2255 C62.8036,34.0885 63.0956,32.7635 62.4216,31.8275 Z M62.4726,47.3525 C62.8616,48.3175 62.3076,48.5195 62.3966,49.3735 C63.0786,49.0135 63.0856,47.7185 62.4726,47.3525 Z M62.3626,31.2595 C62.3766,31.4005 62.4216,31.8275 62.6916,31.6545 C62.8036,31.3565 62.6466,31.2295 62.3626,31.2595 Z M62.1836,29.5525 C62.3556,29.8225 62.0336,30.8625 62.5866,30.6595 C62.2576,30.2635 62.9096,29.6205 62.1836,29.5525 Z M61.8546,26.4235 C61.8836,26.7075 61.9136,26.9925 62.0716,27.1195 C62.3256,26.8055 62.2806,26.3785 61.8546,26.4235 Z M62.1796,51.4085 C62.1796,54.1415 61.4226,56.5205 61.5046,58.6695 C61.8496,56.4755 62.7476,54.0815 62.1796,51.4085 Z M60.9896,52.3975 C60.1516,52.6285 60.6156,51.5725 60.9586,52.1125 C60.9586,52.1125 60.9746,52.2535 60.9896,52.3975 Z M61.0336,61.0195 C60.9206,61.3195 60.6516,61.4915 60.7106,62.0605 L60.5686,62.0755 C60.4866,62.6595 60.4556,62.3745 60.6586,62.9285 C60.5456,63.2285 59.8796,63.7295 60.4786,63.9535 C60.4636,63.8115 60.6056,63.7965 60.7476,63.7815 C60.7176,63.4985 60.6886,63.2125 60.6586,62.9285 L60.8006,62.9145 C60.8826,62.3295 60.9126,62.6145 60.7106,62.0605 C60.9646,61.7455 61.3916,61.7005 61.1746,61.0045 C61.7136,60.6605 61.3256,59.6955 61.5646,59.2385 C60.8836,59.5975 61.1296,60.5785 61.1746,61.0045 L61.0336,61.0195 Z M60.1046,17.9795 C60.6726,17.9205 59.8866,17.2835 60.1046,17.9795 C59.8346,18.1515 60.1196,18.1215 60.1046,17.9795 Z M59.5566,67.5015 C59.7296,67.7715 59.6316,68.2135 59.9166,68.1835 C60.0436,68.0255 59.9986,67.5995 59.5566,67.5015 Z M58.8686,69.1555 C59.0556,69.5675 59.2276,69.8365 59.6546,69.7915 C59.7366,69.2095 59.1826,69.4105 58.8686,69.1555 Z M61.2846,31.9475 C60.5366,33.0325 60.6186,35.1805 61.3356,36.5435 C61.3666,36.8275 60.7676,36.6035 60.9546,37.0145 C61.1116,37.1425 61.2836,37.4115 61.3136,37.6955 L61.0136,37.5835 C61.0666,39.4475 61.2676,42.7335 60.6686,45.2415 C61.2226,45.0395 61.2826,45.6075 61.3416,46.1765 C61.0576,46.2065 60.7586,46.0945 60.6466,46.3935 C60.8476,46.9475 60.5406,48.1305 61.0416,48.7965 C60.6156,48.8415 60.7286,48.5415 60.4736,48.8575 C60.5026,49.1415 60.5476,49.5675 60.5786,49.8525 C60.7196,49.8375 61.0046,49.8075 61.0196,49.9485 C60.9376,50.5325 60.7356,49.9785 60.3536,50.4515 C60.2706,51.0345 60.9676,50.8165 60.8996,51.5435 C60.6156,51.5725 60.4576,51.4465 60.3156,51.4615 C60.1206,52.3435 60.5476,52.2985 60.6376,53.1535 C60.4956,53.1685 60.4646,52.8835 60.1966,53.0555 C60.0826,53.3545 60.1436,53.9235 59.8886,54.2385 C60.2176,54.6345 60.2866,53.9095 60.4726,54.3205 C60.3606,54.6205 59.6496,54.6945 59.6946,55.1215 C60.2256,56.0725 58.6976,57.9585 59.7976,58.8485 C58.9076,59.9495 58.9446,61.6705 58.5096,63.0105 C59.0796,62.9505 58.9216,62.8235 59.5056,62.9055 C58.7046,62.1285 60.6366,61.3495 59.5956,61.0275 C59.1546,60.9295 59.8276,61.8645 59.4006,61.9095 C59.0856,61.6555 59.4686,61.1845 59.2506,60.4875 C59.8356,60.5705 59.5506,60.6005 60.1046,60.3985 C60.0826,58.8185 60.4876,57.1945 60.7646,55.7285 C60.7346,55.4435 60.1956,55.7875 60.0086,55.3775 C60.2776,55.2035 60.7046,55.1585 60.8316,55.0025 C60.5846,54.0225 61.3486,53.0785 61.2886,52.5095 C61.5966,45.8625 62.1516,40.1965 61.7786,33.9085 C61.5616,33.2125 61.3896,32.9435 61.7706,32.4705 C61.1726,32.2475 61.3516,31.2215 61.5906,30.7645 C60.8356,30.4125 61.6816,28.8855 60.6256,28.4225 C60.9116,28.3925 61.1956,28.3625 61.1806,28.2185 C60.4696,25.5625 60.2686,22.2765 58.8016,19.2675 C59.5486,23.6465 60.6636,27.4115 60.6856,31.7225 C60.9696,31.6925 61.1276,31.8195 61.2846,31.9475 Z M58.3066,73.3855 C58.7626,73.6245 58.8156,72.7565 58.3886,72.8005 C58.4036,72.9435 58.4186,73.0865 58.2766,73.1015 C58.2766,73.1015 58.2906,73.2425 58.3066,73.3855 Z M58.0616,64.2085 C58.2626,64.7625 58.5776,65.0165 59.0346,65.2555 C58.4056,64.7475 59.5656,63.4755 58.6826,63.2795 C58.7116,63.5655 58.5846,63.7225 58.1586,63.7675 C58.1726,63.9085 58.2036,64.1925 58.0616,64.2085 Z M58.8536,66.2805 C58.7796,65.5695 58.0826,65.7885 57.9856,66.2295 C58.3976,66.0415 58.4266,66.3255 58.8536,66.2805 Z M57.9486,16.6245 C58.3226,17.4485 58.0446,18.9155 58.6436,19.1395 C58.8696,18.5415 58.4196,17.0065 57.9486,16.6245 Z M58.1796,68.0785 C58.0376,68.0935 58.0376,68.0935 57.8956,68.1085 C57.8796,67.9655 58.0076,67.8085 58.1796,68.0785 Z M58.2686,74.3955 C57.8416,74.4405 57.7146,74.5975 57.7596,75.0245 C58.3426,75.1065 58.1416,74.5525 58.2686,74.3955 Z M57.4926,16.3855 C57.7766,16.3555 57.7906,16.4985 57.9176,16.3405 C57.8886,16.0555 57.6046,16.0855 57.4926,16.3855 Z M58.4956,68.3335 C58.1346,67.6505 59.0856,67.1205 58.4566,66.6105 C58.4716,66.7535 58.3296,66.7685 58.1876,66.7835 C58.1576,66.4995 58.0156,66.5145 57.7316,66.5445 C57.8356,67.5395 57.8356,67.5395 57.4686,68.1535 C57.6256,68.2805 57.7526,68.1235 57.8956,68.1085 C57.9246,68.3925 58.2096,68.3625 58.4956,68.3335 Z M57.4986,20.5545 C57.4686,20.2705 57.4386,19.9845 57.4236,19.8435 C57.2816,19.8585 57.1396,19.8735 56.9966,19.8885 C57.0126,20.0295 57.0416,20.3155 57.0726,20.5995 C57.2136,20.5845 57.3566,20.5685 57.4986,20.5545 Z M58.0076,70.5405 C57.7456,69.4195 57.8586,69.1185 57.6556,68.5645 C57.5136,68.5795 57.3716,68.5945 57.0866,68.6245 C57.3196,69.4635 56.6526,69.9645 57.1686,70.7725 C57.7526,70.8555 57.5656,70.4435 58.0076,70.5405 Z M56.5856,14.6105 C57.0286,14.7085 57.0806,13.8395 56.8116,14.0125 C56.8266,14.1535 56.6836,14.1685 56.5406,14.1835 C56.5566,14.3275 56.5716,14.4685 56.5856,14.6105 Z M57.1986,71.0575 C57.0566,71.0715 56.7716,71.1025 56.4876,71.1315 C56.4356,72.0005 56.6216,72.4115 57.4916,72.4645 C57.5586,71.7385 57.5426,71.5955 57.1986,71.0575 Z M55.9936,74.6345 C56.4346,74.7325 56.3896,74.3055 56.8306,74.4025 C56.6146,73.7065 57.8496,73.1465 56.9656,72.9505 C56.9656,72.9505 56.9516,72.8095 56.9366,72.6665 C56.7936,72.6815 56.6526,72.6965 56.5096,72.7115 C56.5396,72.9955 56.6816,72.9805 56.9656,72.9505 C56.9136,73.8185 55.7466,73.6545 55.9936,74.6345 Z M55.7706,16.4215 C55.6726,16.8635 56.3546,16.5045 56.5266,16.7745 C56.4816,16.3475 56.1976,16.3775 55.7706,16.4215 Z M55.8526,15.8385 C55.8376,15.6955 55.8236,15.5535 55.8236,15.5535 C55.8236,15.5535 55.6806,15.5685 55.5386,15.5835 C55.5386,15.5835 55.5526,15.7255 55.5686,15.8685 C55.7096,15.8535 55.8526,15.8385 55.8526,15.8385 Z M55.3066,14.7445 C55.3356,15.0285 55.4936,15.1575 55.7786,15.1285 C55.8746,14.6855 55.4636,14.8725 55.3066,14.7445 Z M56.0526,75.2035 C55.8286,75.8025 55.4616,76.4165 55.2506,77.1575 C56.2466,77.0525 56.3816,75.6005 56.0526,75.2035 Z M55.2466,11.4435 C55.2766,11.7285 55.4346,11.8565 55.7186,11.8265 C55.6886,11.5425 55.5316,11.4135 55.2466,11.4435 Z M55.9256,78.0925 C55.4986,78.1375 55.7076,77.3965 55.0276,77.7565 C55.0416,77.8995 55.0726,78.1825 55.0866,78.3245 C55.6566,78.2645 55.8426,78.6765 55.9256,78.0925 Z M55.4036,14.3035 C55.3736,14.0195 55.2166,13.8925 55.0756,13.9075 C55.0896,14.0485 54.9476,14.0645 54.8206,14.2215 C55.1046,14.1915 55.1196,14.3335 55.4036,14.3035 Z M55.2506,79.8905 C55.2056,79.4625 54.9076,79.3505 54.6076,79.2375 C54.6526,79.6645 54.2106,79.5665 54.3976,79.9805 C54.6826,79.9495 54.9666,79.9205 55.2506,79.8905 Z M54.0766,81.0205 C54.5776,81.6865 55.1686,80.4725 54.4576,80.5475 C54.4726,80.6915 54.3296,80.7055 54.0456,80.7355 C54.0606,80.8775 54.0766,81.0205 54.0766,81.0205 Z M54.9996,13.1965 C54.4016,12.9715 54.4386,11.9615 53.9966,11.8635 C54.0416,12.2905 53.9286,12.5885 53.8016,12.7465 C54.6256,12.3725 54.0796,14.0115 54.9996,13.1965 Z M53.3196,83.4005 C53.0796,83.8565 53.8216,84.0665 53.9936,84.3365 C53.9336,83.7665 53.7606,83.4965 53.3196,83.4005 Z M53.7116,11.8935 C53.9216,11.1525 53.2486,10.2155 53.0536,11.1005 C53.6076,10.8975 53.2866,11.9385 53.7116,11.8935 Z M53.3576,85.1205 C53.3416,84.9785 53.3276,84.8365 53.3276,84.8365 L53.0416,84.8665 C53.0416,84.8665 53.0576,85.0085 53.0726,85.1505 L53.3576,85.1205 Z M52.3666,10.0215 C51.6016,10.9645 53.1736,9.5045 52.3506,9.8795 L52.3666,10.0215 Z M28.9226,5.8715 C28.4356,5.3465 28.8926,5.5875 28.8026,4.7325 C27.9186,4.5395 28.8106,3.4395 27.8146,3.5445 C28.0326,4.2395 28.1066,4.9505 27.8816,5.5485 C28.3086,5.5045 28.3686,6.0725 28.9226,5.8715 Z M27.5596,3.8575 C27.3886,3.5885 26.6776,3.6635 26.7366,4.2315 C27.0066,4.0595 27.4336,4.0145 27.5596,3.8575 Z M25.2166,7.5555 C25.2316,7.6965 25.2466,7.8395 25.2616,7.9815 C25.7186,8.2215 25.6136,7.2255 25.2166,7.5555 Z M24.3416,6.0655 C24.2446,6.5055 24.3036,7.0755 24.6476,7.6145 C24.8576,6.8745 24.7836,6.1635 24.3416,6.0655 Z M23.4656,7.3075 C23.6076,7.2925 23.7496,7.2775 23.7346,7.1355 C23.5926,7.1495 23.4506,7.1655 23.4656,7.3075 Z M23.9656,10.7055 C23.9216,10.2785 23.6216,10.1665 23.3226,10.0545 C23.2106,10.3545 23.3976,10.7655 23.6966,10.8785 C23.6816,10.7355 23.8236,10.7205 23.9656,10.7055 Z M20.1556,14.1255 C20.2836,13.9695 20.5676,13.9395 20.5526,13.7965 C20.4256,13.9545 20.1256,13.8415 20.1556,14.1255 Z M19.0256,15.6835 C18.8236,15.1285 19.2796,15.3685 19.4376,15.4955 C19.2346,14.9415 19.8186,15.0245 19.7586,14.4545 C19.0336,14.3875 19.4076,15.2105 18.5386,15.1585 C18.5686,15.4435 18.7416,15.7125 19.0256,15.6835 Z M17.7896,16.2445 C18.0746,16.2145 18.0896,16.3565 18.2166,16.1995 C18.1866,15.9145 17.9026,15.9445 17.7896,16.2445 Z M17.2886,18.3095 C17.2286,17.7405 17.8276,17.9655 17.6246,17.4115 C17.3406,17.4415 17.0566,17.4715 16.9296,17.6285 C16.9746,18.0555 17.1306,18.1825 17.2886,18.3095 Z M16.4526,95.1835 C16.1986,95.4975 16.4006,96.0505 16.6996,96.1635 C16.6696,95.8795 16.8796,95.1385 16.4526,95.1835 Z M16.9536,101.3145 C16.8936,100.7455 16.7146,99.0385 16.2496,100.0945 C17.0886,99.8615 15.9576,101.4195 16.9536,101.3145 Z M16.8096,19.2235 C16.7486,18.6545 15.8816,18.6025 16.0986,19.2985 C16.2406,19.2835 16.5256,19.2535 16.8096,19.2235 Z M15.8536,97.6905 C15.9956,97.6755 16.1676,97.9455 16.1386,97.6605 C16.1226,97.5185 15.8236,97.4055 15.8536,97.6905 Z M16.2876,99.0835 C16.4146,98.9255 16.6096,98.0425 16.1676,97.9455 C16.1986,98.2295 15.7566,98.1315 15.7866,98.4165 C16.1986,98.2295 15.9886,98.9705 16.2876,99.0835 Z M16.3476,94.1885 C16.4756,94.0295 16.3556,92.8935 16.0416,92.6375 C16.0716,92.9225 15.7876,92.9525 15.6746,93.2525 C16.5276,93.1625 15.6216,94.1195 16.3476,94.1885 Z M15.5636,88.0875 C15.5786,88.2285 15.4816,88.6715 15.7796,88.7825 C15.9076,88.6265 16.1176,87.8845 15.5636,88.0875 Z M15.5096,94.4195 C15.6516,94.4045 15.7946,94.3895 15.7796,94.2485 C15.7796,94.2485 15.4946,94.2775 15.5096,94.4195 Z M15.4426,95.1455 C15.8696,95.1005 15.2776,96.3135 15.9586,95.9545 C16.1836,95.3555 15.6666,94.5475 15.4426,95.1455 Z M15.3906,93.2815 C15.1216,93.4535 15.2926,93.7235 15.6066,93.9785 C15.8616,93.6635 15.8166,93.2365 15.3906,93.2815 Z M15.4666,83.0645 C15.4516,82.9215 15.4366,82.7805 15.4366,82.7805 C15.4366,82.7805 15.2946,82.7955 15.1516,82.8105 C15.1516,82.8105 15.1666,82.9515 15.1826,83.0945 C15.3246,83.0795 15.4666,83.0645 15.4666,83.0645 Z M15.2186,90.2795 C15.2476,90.5645 14.9786,90.7375 15.2786,90.8495 C15.2476,90.5645 15.5176,90.3925 15.2186,90.2795 Z M15.6156,87.2185 C15.6456,87.5025 15.0616,87.4215 15.0916,87.7065 C15.5336,87.8025 16.1996,87.3015 15.6156,87.2185 Z M15.6006,89.8085 C15.5556,89.3825 15.9966,89.4795 15.8096,89.0665 C15.6386,88.7975 14.9266,88.8725 14.9716,89.2995 C15.2566,89.2695 15.1736,89.8535 15.6006,89.8085 Z M15.3696,86.2385 C15.4356,85.5125 15.7586,84.4715 15.0026,84.1205 C14.9646,85.1305 14.9646,85.1305 14.7546,85.8715 C15.1826,85.8265 15.2116,86.1105 15.3696,86.2385 Z M14.4886,21.7685 C14.7726,21.7385 14.6756,22.1785 15.0876,21.9925 C14.8706,21.2955 16.3156,19.9945 15.3196,20.0995 C15.9036,20.1805 14.7656,20.3005 14.7806,20.4425 C15.0126,21.2805 14.5856,21.3255 14.4886,21.7685 Z M14.3006,71.9705 C14.7576,72.2105 14.8096,71.3425 14.5256,71.3725 C14.5406,71.5145 14.4136,71.6715 14.2706,71.6865 C14.2706,71.6865 14.2856,71.8295 14.3006,71.9705 Z M14.1656,73.4235 C14.6076,73.5205 14.6606,72.6525 14.2476,72.8395 C14.2636,72.9825 14.2636,72.9825 14.1206,72.9965 C14.1356,73.1385 14.1506,73.2805 14.1656,73.4235 Z M14.3896,75.5565 C14.3746,75.4145 14.3746,75.4145 14.3596,75.2715 C14.2186,75.2865 14.0766,75.3015 14.0766,75.3015 C14.0906,75.4445 14.0906,75.4445 14.1056,75.5865 C14.1056,75.5865 14.2476,75.5715 14.3896,75.5565 Z M13.9346,21.9695 C13.4106,22.4575 13.8966,22.9795 14.7356,22.7485 C14.8026,22.0225 14.2336,22.0825 13.9346,21.9695 Z M14.2026,80.6095 C14.1576,80.1825 14.1126,79.7555 13.8286,79.7855 C14.0296,80.3395 13.2366,80.9985 13.8506,81.3655 C14.1196,81.1915 13.6186,80.5255 14.2026,80.6095 Z M12.7966,19.3575 C12.6546,19.3715 12.5126,19.3865 12.5126,19.3865 C12.5276,19.5285 12.3856,19.5435 12.2586,19.7015 C12.5426,19.6715 12.9696,19.6275 12.7966,19.3575 Z M13.5596,23.8785 C12.9906,23.9375 12.8106,24.9635 12.4676,24.4245 C12.4676,24.4245 12.3396,24.5815 12.1976,24.5965 C12.2426,25.0235 12.5266,24.9935 12.4446,25.5775 C12.9386,24.8065 14.2186,24.6715 14.0836,23.3925 C13.5146,23.4525 13.6116,23.0095 13.0586,23.2125 C13.1036,23.6385 12.9606,23.6535 12.9906,23.9375 C13.3056,24.1925 13.5146,23.4525 13.5596,23.8785 Z M12.0336,20.2995 C12.0486,20.4425 11.3676,20.8015 11.9656,21.0255 C11.9356,20.7415 12.6176,20.3825 12.0336,20.2995 Z M11.8236,23.7735 C11.8086,23.6315 11.7926,23.4885 11.7786,23.3475 C11.7786,23.3475 11.6366,23.3625 11.4936,23.3775 C11.5086,23.5185 11.5236,23.6615 11.5386,23.8025 C11.6816,23.7885 11.8236,23.7735 11.8236,23.7735 Z M10.6546,26.3395 C10.6696,26.4835 9.6746,26.5875 10.2736,26.8125 C10.2436,26.5275 11.2536,26.5655 10.6546,26.3395 Z M9.9656,30.7265 C10.6326,30.2255 10.5726,29.6555 11.2986,29.7235 C11.1786,28.5865 11.7176,28.2425 11.7696,27.3735 C12.1966,27.3285 11.5536,26.6775 11.7696,27.3735 C10.8496,28.1895 10.4006,29.3875 9.9656,30.7265 Z M9.5626,24.1535 C9.7046,24.1385 9.8476,24.1245 9.8326,23.9825 C9.6896,23.9975 9.5476,24.0125 9.5626,24.1535 Z M9.8746,32.6055 C9.2466,32.0965 9.5696,31.0555 10.4816,31.5355 C10.4376,31.1085 10.4226,30.9655 10.2656,30.8395 C9.2846,31.0855 9.4186,32.3655 8.9106,32.9945 C9.4946,33.0775 9.2916,32.5235 9.8746,32.6055 Z M7.8026,30.6665 C7.8326,30.9505 7.7356,31.3925 8.0196,31.3625 C8.2886,31.1905 8.2446,30.7635 7.8026,30.6665 Z M46.6476,4.8715 C37.7476,0.9175 28.8996,9.7555 23.0076,15.2645 C22.4906,17.1885 20.5446,17.8235 20.2976,19.5755 C18.4106,20.7805 17.6396,23.0185 16.6956,24.9855 C16.5536,25.0005 16.2686,25.0305 16.1266,25.0455 C16.4866,25.7265 15.8206,26.2295 15.2956,26.7155 C15.2056,28.5945 13.0656,30.1135 12.7346,32.4485 C12.2786,32.2095 12.7946,33.0175 12.1966,32.7945 C10.4576,38.1515 8.9156,42.6285 7.5076,48.3835 C7.1186,52.8815 7.0946,56.7675 6.8996,60.3835 C7.1846,60.3535 7.3266,60.3385 7.3556,60.6225 C7.8266,66.4685 10.2586,71.8205 13.1776,74.9645 C13.4706,70.9075 14.1976,65.5115 15.3576,61.5075 C15.2156,58.7905 17.0126,56.7315 16.5726,53.9015 C16.8556,53.8715 16.8856,54.1565 17.1706,54.1275 C17.4476,52.6605 17.8816,51.3205 18.4736,50.1075 C17.8146,49.3145 19.0126,47.0305 20.0756,46.2005 C20.9306,40.6465 25.3316,36.0145 30.7136,36.5975 C31.1776,38.2745 32.1966,39.7495 32.2326,41.4705 C30.8706,42.1895 30.4516,43.6725 29.0886,44.3905 C28.2196,47.0695 26.5956,49.3975 25.6966,51.7935 C25.1196,53.1475 25.2686,54.5685 24.6926,55.9245 C24.5806,56.2245 24.1836,56.5535 23.9436,57.0095 C23.8316,57.3095 24.0636,58.1475 23.9666,58.5895 C23.8536,58.8885 23.4276,58.9335 23.3146,59.2335 C23.0376,60.7005 23.1046,62.7055 22.5286,64.0605 C22.4006,64.2165 22.1016,64.1055 21.9746,64.2615 C21.8766,64.7045 22.2216,65.2425 22.1386,65.8265 C22.0416,66.2695 21.5026,66.6115 21.4056,67.0545 C21.1426,68.6635 21.6216,70.4825 20.9476,72.2795 C20.7386,73.0205 20.7676,73.3055 20.5736,74.1875 C20.4156,76.7925 19.8016,79.1575 19.8986,81.4485 C21.4406,82.4365 23.5056,82.9385 24.9206,84.0845 C23.4686,83.9495 21.1186,83.4775 20.0326,82.7285 C18.9386,88.7385 20.3686,92.7585 20.3366,97.9375 C21.4146,99.9815 21.8406,102.6695 23.0386,105.8505 C25.6496,110.1775 29.7206,116.0775 34.8716,113.0905 C40.6956,108.3085 44.9326,102.1115 47.6286,94.9255 C47.8836,94.6115 48.2806,94.2815 48.5496,94.1105 C48.0936,93.8715 48.7746,93.5115 48.4456,93.1155 C52.2336,85.3825 53.7026,77.4645 56.2636,68.9995 C55.8976,66.8795 57.3416,65.5785 56.8926,64.0435 C58.5476,61.9995 57.5756,58.2195 58.6306,55.9525 C58.7286,52.7785 58.8566,49.8895 59.5236,46.6555 C59.5086,46.5125 59.2236,46.5425 59.0666,46.4165 C59.8246,38.5705 59.2716,30.5775 57.2816,22.5905 C57.6706,20.8245 56.4736,20.3745 56.1366,18.5405 C56.3916,18.2255 57.1176,18.2935 57.2296,17.9945 C56.6306,17.7695 56.4896,17.7845 55.9496,18.1285 C55.1496,14.6185 52.8356,13.1355 51.4966,9.9695 C50.0076,8.1125 48.1366,6.7275 46.6476,4.8715 Z M6.8446,29.7615 C6.9866,29.7465 6.9866,29.7465 7.1296,29.7315 C7.3836,29.4165 7.3686,29.2745 6.9416,29.3185 C6.9416,29.3185 6.9566,29.4615 6.8146,29.4765 C6.8296,29.6175 6.8296,29.6175 6.8446,29.7615 Z M6.1576,68.3695 C6.1276,68.0845 6.2696,68.0695 6.3976,67.9135 C6.1126,67.9425 6.0976,67.8005 5.9546,67.8155 C5.9706,67.9585 5.8426,68.1145 5.8576,68.2565 C5.9846,68.0995 5.9996,68.2415 6.1576,68.3695 Z M5.7676,67.4035 C5.8956,67.2465 6.0386,67.2315 6.0226,67.0895 C6.0386,67.2315 5.7386,67.1195 5.7676,67.4035 Z M5.1666,38.4205 C5.3086,38.4045 5.5936,38.3755 5.5786,38.2335 C5.4366,38.2485 5.1366,38.1365 5.1666,38.4205 Z M4.9046,42.7625 C5.0466,42.7475 5.1886,42.7325 5.1736,42.5895 C5.1736,42.5895 4.8896,42.6195 4.9046,42.7625 Z M5.3346,66.0105 C5.3196,65.8695 5.3046,65.7275 5.3046,65.7275 C5.1626,65.7425 5.0196,65.7575 4.8776,65.7725 C4.8776,65.7725 4.8926,65.9145 4.9076,66.0555 C5.0496,66.0405 5.1926,66.0255 5.3346,66.0105 Z M4.4926,40.2175 C4.6356,40.2025 4.7776,40.1885 4.7626,40.0445 C4.6206,40.0595 4.4776,40.0745 4.4926,40.2175 Z M5.8916,46.6855 C5.9586,45.9595 5.2776,46.3175 5.2326,45.8915 C5.4876,45.5765 5.4576,45.2925 6.0406,45.3745 C5.8396,44.8205 6.3926,44.6195 6.2056,44.2065 C5.9216,44.2355 5.7646,44.1095 5.7346,43.8255 C5.8466,43.5245 5.9146,42.7995 6.5426,43.3095 C6.1546,42.3435 5.9376,41.6475 7.0306,41.1005 C7.1276,40.6595 6.5736,40.8605 6.5436,40.5755 C7.0676,40.0905 7.3216,39.7745 6.9626,39.0945 C7.4866,38.6085 7.7116,38.0095 7.6216,37.1555 C7.9886,36.5425 9.3286,34.2445 8.8276,33.5785 C6.5436,37.8445 6.1396,42.2015 4.4386,46.5495 C5.0526,46.9165 5.0386,46.7745 5.8916,46.6855 Z M4.4976,52.5825 C4.5956,52.1415 4.0416,52.3425 4.1086,51.6165 C3.8926,50.9205 5.2316,51.3555 5.0146,50.6595 C4.9546,50.0895 4.4906,51.1465 4.5736,50.5615 C5.5086,49.8875 4.6336,48.3995 5.2846,47.7545 C4.5886,47.9715 5.1956,46.9015 4.5136,47.2605 C4.1846,49.5965 3.3526,51.2655 4.1616,53.4815 C4.5876,53.4365 4.0716,52.6275 4.4976,52.5825 Z M4.8856,64.4775 C4.8256,63.9075 4.6386,63.4975 4.4666,63.2265 C4.7506,63.1965 4.8936,63.1815 5.0056,62.8825 C4.8336,62.6135 4.4216,62.7995 4.3766,62.3735 C4.9316,62.1715 4.1596,61.6775 4.3766,62.3735 C4.0776,62.2615 4.0476,61.9775 3.7626,62.0075 C3.8376,62.7185 4.4066,62.6585 4.4666,63.2265 C3.9126,63.4295 4.1736,64.5515 4.8856,64.4775 Z M3.8866,44.0195 C4.0136,43.8625 4.1246,43.5635 4.2526,43.4055 C3.8116,43.3085 3.6986,43.6085 3.8866,44.0195 C3.3316,44.2215 4.1026,44.7155 3.8866,44.0195 Z M4.1676,60.3815 C4.0696,60.8235 3.5016,60.8835 3.7326,61.7225 C4.6016,61.7745 4.7366,60.3225 4.1676,60.3815 Z M4.0686,69.0205 C3.9566,69.3195 3.9266,69.0345 3.6426,69.0645 C3.7696,68.9085 4.0546,68.8785 4.0686,69.0205 Z M3.7116,54.6775 C3.5846,54.8365 3.6146,55.1205 3.6596,55.5465 C4.2436,55.6295 3.8836,54.9475 3.8536,54.6625 C4.4226,54.6035 4.4676,55.0305 4.6246,55.1575 C4.8346,54.4165 4.4906,53.8775 3.7646,53.8105 C3.7946,54.0955 3.8246,54.3795 3.8536,54.6625 L3.7116,54.6775 Z M4.5946,57.6065 C4.1676,57.6505 4.1826,57.7925 3.7116,57.4105 C3.3296,57.8825 3.7186,58.8475 4.1606,58.9455 C3.7706,57.9795 4.5126,58.1885 4.5946,57.6065 Z M4.1906,59.2295 C4.0486,59.2445 3.7636,59.2745 3.4786,59.3045 C3.6806,59.8585 3.8386,59.9855 3.5986,60.4415 C4.5946,60.3375 3.9506,59.6865 4.1906,59.2295 Z M3.5546,57.2825 C3.8246,57.1115 4.0936,56.9395 4.6626,56.8795 C4.5876,56.1685 4.1306,55.9275 3.6746,55.6895 C3.7046,55.9725 3.4196,56.0025 3.4346,56.1455 C4.1756,56.3555 3.4946,56.7145 3.5546,57.2825 Z M3.5406,46.2135 C3.5116,45.9285 3.4966,45.7855 3.2116,45.8155 C3.2416,46.1005 3.1296,46.3995 3.4136,46.3695 C3.3986,46.2285 3.3836,46.0855 3.5406,46.2135 Z M3.0466,46.9835 C3.2346,47.3945 2.4936,47.1855 2.8526,47.8665 C3.4206,47.8065 3.6306,47.0665 3.0466,46.9835 Z M2.6576,48.7495 C2.6876,49.0345 2.1486,49.3785 2.7466,49.6035 C2.5596,49.1915 3.0996,48.8465 2.6576,48.7495 Z M2.3806,50.2165 C2.1556,50.8165 2.2006,51.2425 2.3876,51.6545 C2.4996,51.3555 2.9786,50.4415 2.3806,50.2165 Z M2.1776,52.3955 C2.1926,52.5365 1.9826,53.2785 2.4096,53.2335 C2.3796,52.9495 2.8736,52.1785 2.1776,52.3955 Z M26.3326,3.1245 C27.8676,2.6745 28.8626,2.5695 30.1956,1.5665 C33.1666,1.1115 36.5206,0.1835 39.5516,0.2955 C44.1636,0.3875 51.4916,3.0675 54.3796,5.9275 C55.3376,6.8335 56.5796,7.7085 57.2536,8.6455 C57.7406,9.1695 57.8446,10.1645 58.3306,10.6895 C61.2116,14.8435 63.7556,19.8965 64.8336,24.6725 C67.7206,38.4605 66.6036,51.0885 64.8576,63.2065 C63.8316,65.7575 64.3996,68.4315 62.9626,71.1715 C63.1796,71.8665 62.9396,72.3225 63.0146,73.0335 C62.7296,73.0635 62.5876,73.0785 62.4306,72.9515 C62.4756,73.3785 62.7596,73.3485 62.6776,73.9325 C62.4976,74.9585 62.0566,74.8605 62.4456,75.8265 C62.1226,76.8665 61.9576,78.0335 61.3226,78.8195 C61.3526,79.1045 61.3816,79.3895 61.4126,79.6735 C60.3336,80.3615 60.6706,82.1955 59.8916,82.9975 C60.3846,84.9575 58.6186,87.2995 58.6256,88.7375 C58.5136,89.0365 58.3716,89.0515 58.0726,88.9395 C58.1176,89.3655 58.1626,89.7935 58.1916,90.0775 C54.8596,98.0485 51.3706,105.8935 45.8226,111.9395 C45.9126,112.7935 45.3586,112.9955 45.1336,113.5935 C43.4266,113.7735 43.6066,115.4805 41.8996,115.6595 C41.8176,116.2435 40.7906,116.0635 40.8666,116.7745 C38.0666,117.5005 35.4546,118.6375 33.4556,117.4095 C28.0216,117.6935 22.8056,113.2095 19.4676,108.8145 C19.0116,108.5745 18.6966,108.3195 18.3826,108.0665 C17.0726,105.1835 14.9246,102.5335 14.1696,99.4495 C13.9076,98.3265 14.0576,97.0165 13.7956,95.8945 C12.5536,89.5535 12.5396,83.9465 12.7126,78.7535 C9.6446,76.9185 6.9956,73.6015 5.1466,71.0645 C4.7876,70.3825 5.5286,70.5925 5.3416,70.1805 C4.9146,70.2255 4.7266,69.8135 4.2556,69.4325 C4.0386,68.7355 4.6076,68.6755 4.4056,68.1225 C2.9766,66.8345 4.3316,64.6785 2.5056,63.7215 C2.3036,63.1665 3.0446,63.3765 2.8566,62.9645 C2.4166,60.1355 2.5586,57.3875 2.4016,54.5285 C2.5146,54.2305 2.8586,54.7675 2.8136,54.3415 C1.9976,53.4205 2.0496,55.2845 1.8256,55.8835 C2.1326,57.4325 1.8096,58.4725 1.7346,60.4945 C2.0116,61.7585 1.9746,62.7695 2.1386,64.3335 C2.5126,65.1575 2.7596,66.1385 3.1486,67.1035 C2.0176,65.9285 0.8436,61.5955 0.9496,59.8575 C0.9346,59.7155 0.6496,59.7455 0.6346,59.6035 C0.2986,57.7695 0.7996,55.7035 0.2086,54.1835 C1.0266,41.4435 4.7636,29.1165 11.8166,19.6035 C11.7866,19.3185 11.7566,19.0355 11.6146,19.0505 C14.6916,14.1255 18.3976,9.7095 22.5746,5.6755 C23.4576,5.8695 24.2376,5.0695 24.8506,5.4365 C24.9626,5.1365 25.0006,4.1265 25.6146,4.4945 C25.7186,5.4895 25.0076,5.5645 25.0826,6.2745 C25.5236,6.3715 26.7746,5.9535 26.1006,5.0165 C26.5276,4.9715 26.6996,5.2415 26.9536,4.9265 C26.4526,4.2605 26.5646,3.9615 26.0786,3.4385 C26.2206,3.4235 26.3486,3.2655 26.3326,3.1245 Z" id="Fill-4" fill="#5688C5" mask="url(#mask-4)"></path>
                </g>
            </g>
        </g>
    </g>
</svg>