<?xml version="1.0" encoding="UTF-8"?>
<svg width="186px" height="142px" viewBox="0 0 186 142" version="1.1" xmlns="http://www.w3.org/2000/svg" xmlns:xlink="http://www.w3.org/1999/xlink">
    <!-- Generator: Sketch 51.3 (57544) - http://www.bohemiancoding.com/sketch -->
    <title>index_word_Email</title>
    <desc>Created with Sketch.</desc>
    <defs>
        <polygon id="path-1" points="0 0.212560275 72.0182716 0.212560275 72.0182716 100 0 100"></polygon>
        <polygon id="path-3" points="0.5215 0.737038851 42.508 0.737038851 42.508 113.6735 0.5215 113.6735"></polygon>
    </defs>
    <g id="Page-1" stroke="none" stroke-width="1" fill="none" fill-rule="evenodd">
        <g id="A4" transform="translate(-762.000000, -265.000000)">
            <g id="index_word_Email" transform="translate(762.000000, 264.000000)">
                <g id="Group-3" transform="translate(0.000000, 42.263000)">
                    <mask id="mask-2" fill="white">
                        <use xlink:href="#path-1"></use>
                    </mask>
                    <g id="Clip-2"></g>
                    <path d="M69.3418,1.2629 C69.1298,1.6679 69.9008,1.7149 69.7338,1.3489 C69.6078,1.3629 69.5948,1.2369 69.3418,1.2629 Z M68.8498,1.4419 C68.9768,1.4289 69.2288,1.4019 69.2158,1.2759 C69.1028,1.4149 68.8368,1.3159 68.8498,1.4419 Z M67.6998,1.4349 C67.9658,1.5349 68.1188,1.7749 68.6248,1.7209 C68.6978,1.2029 67.7998,1.1699 67.6998,1.4349 Z M67.4478,1.4619 C66.8758,0.8849 64.8548,1.0959 64.6688,1.7539 C65.4398,1.8009 66.3108,1.5819 67.4478,1.4619 Z M64.1238,1.4289 C63.9248,1.9599 63.5658,0.9749 63.3658,1.5079 C63.1668,2.0389 64.9078,1.6009 64.1238,1.4289 Z M63.2138,1.2689 C62.5818,1.3359 62.6608,2.0929 63.2798,1.8999 C63.2668,1.7739 63.2398,1.5209 63.2138,1.2689 Z M61.9498,1.4019 C60.4478,1.6869 59.6498,1.3869 58.3268,2.1659 C59.4648,2.0469 61.4108,2.3519 61.9498,1.4019 Z M58.0878,2.3189 C58.0748,2.1929 58.0478,1.9399 57.9088,1.8269 C57.9348,2.0789 57.5428,1.9929 57.5828,2.3719 C57.8358,2.3449 57.9618,2.3319 58.0878,2.3189 Z M57.3168,2.2719 C56.5458,2.2249 54.7638,2.2849 54.1858,2.8559 C54.6908,2.8029 56.8648,2.8299 57.3168,2.2719 Z M40.0718,5.8719 C43.6958,5.1079 49.5788,3.9789 53.5408,2.7969 C52.4908,2.5239 51.7858,3.1079 50.3838,3.1279 C47.3058,4.2179 43.3638,4.3769 40.0718,5.8719 Z M38.2118,85.3669 C37.9598,85.3939 37.8468,85.5339 37.7338,85.6739 C37.9868,85.6479 38.0998,85.5079 38.2118,85.3669 Z M39.9328,5.7579 C39.3418,6.2029 37.2938,6.1639 37.6128,6.7689 C37.8258,6.3629 39.7738,6.6689 39.9328,5.7579 Z M37.1948,89.0509 C36.6628,88.8509 35.9448,89.3099 35.8588,89.7009 C36.3638,89.6479 36.8418,89.3429 37.1948,89.0509 Z M35.7318,89.7149 C35.0138,90.1729 33.7248,90.0539 33.6908,90.9509 C34.6748,90.5919 35.4058,90.2609 35.7318,89.7149 Z M33.5248,7.9649 C34.7208,7.1999 35.7448,7.2209 37.1078,6.8219 C36.2698,6.1429 35.0008,7.4269 33.5708,7.1939 C33.7378,7.5589 33.3588,7.5989 33.5248,7.9649 Z M33.3588,87.7939 C33.4858,87.7809 33.6118,87.7669 33.5988,87.6399 C33.4718,87.6539 33.3458,87.6669 33.3588,87.7939 Z M33.2588,7.8649 C32.9798,7.6389 32.4878,7.8179 32.6538,8.1839 C33.0468,8.2699 33.2858,8.1169 33.2588,7.8649 Z M33.4388,90.9769 C33.0338,90.7639 32.1888,91.2359 31.9628,91.5159 C32.3678,91.7289 33.0868,91.2689 33.4388,90.9769 Z M31.6428,8.2899 C31.7698,8.2769 32.0358,8.3759 32.0088,8.1239 C31.8828,8.1379 31.6298,8.1639 31.6428,8.2899 Z M31.6438,88.4849 C31.2648,88.5239 31.0128,88.5509 31.0388,88.8029 C31.2918,88.7759 31.8238,88.9769 31.6438,88.4849 Z M30.8988,8.4959 C31.0248,8.4819 31.0508,8.7349 31.1518,8.4689 C31.1378,8.3429 30.8848,8.3699 30.8988,8.4959 Z M31.2178,91.7219 C30.9658,91.7489 30.5868,91.7889 30.7398,92.0269 C31.0058,92.1279 31.1178,91.9879 31.2178,91.7219 Z M30.9258,88.9439 C30.9258,88.9439 30.9128,88.8159 30.8998,88.6899 C30.7728,88.7029 30.6468,88.7169 30.5208,88.7299 C30.5338,88.8559 30.5478,88.9839 30.5478,88.9839 C30.6738,88.9709 30.7998,88.9569 30.9258,88.9439 Z M27.7088,89.9199 L27.4568,89.9469 C27.4828,90.1999 27.3558,90.2129 27.3688,90.3389 C27.6218,90.3119 27.8748,90.2859 27.7088,89.9199 Z M23.0948,94.6179 C23.0678,94.3659 22.8018,94.2659 22.5498,94.2929 C22.5628,94.4189 22.5768,94.5449 22.5898,94.6709 C22.7158,94.6579 22.8418,94.6439 23.0948,94.6179 Z M13.4888,94.3519 C13.6148,94.3389 13.8678,94.3119 13.8548,94.1849 C13.7288,94.1989 13.4758,94.2249 13.4888,94.3519 Z M11.4458,70.0479 C11.4718,70.3009 11.2728,70.8319 11.6518,70.7919 C11.8908,70.6399 11.8248,70.0079 11.4458,70.0479 Z M11.2668,67.1299 C11.2798,67.2559 11.2928,67.3819 11.3058,67.5089 C11.5588,67.4829 11.5458,67.3559 11.5198,67.1039 C11.7718,67.0769 11.5058,66.9769 11.5198,67.1039 L11.2668,67.1299 Z M11.4998,63.2739 C11.2868,63.6799 11.3268,64.0589 10.6818,63.9999 C10.7748,64.8839 11.8448,64.1319 11.4998,63.2739 C11.6388,63.3869 11.6258,63.2609 11.6128,63.1349 C11.8518,62.9819 11.5988,63.0089 11.6128,63.1349 C11.4868,63.1479 11.4998,63.2739 11.4998,63.2739 Z M10.9938,65.7539 C10.9938,65.7539 10.9808,65.6269 10.9668,65.5009 C10.8418,65.5139 10.7148,65.5279 10.5888,65.5409 C10.6018,65.6669 10.6148,65.7939 10.6148,65.7939 C10.7418,65.7809 10.8678,65.7669 10.9938,65.7539 Z M10.5218,64.9099 C10.5888,65.5409 11.4458,65.1949 11.6128,65.5599 C11.5598,65.0549 11.6988,65.1679 12.0908,65.2559 C12.1768,64.8639 12.4168,64.7109 12.3768,64.3319 C11.8848,64.5109 11.9708,64.1189 11.5928,64.1589 C11.5068,64.5509 12.2768,64.5969 11.7988,64.9029 C11.3798,64.5639 11.4598,65.3219 10.5218,64.9099 Z M10.2548,74.5139 C10.2158,74.1359 10.7198,74.0819 10.5538,73.7169 C11.1988,73.7769 10.7728,74.5869 10.2548,74.5139 Z M10.5008,73.2119 C10.5138,73.3389 10.5278,73.4649 10.5538,73.7169 C10.1888,73.8839 10.0958,72.9999 10.5008,73.2119 Z M10.7808,68.5849 C10.6748,67.5759 10.7078,66.6789 10.6548,66.1719 C10.3428,66.8449 10.0298,67.5149 10.0088,68.5389 C10.3758,68.3719 10.4158,68.7509 10.7808,68.5849 Z M9.9898,69.5629 C10.1418,69.8019 9.9428,70.3339 10.1958,70.3069 C10.4358,70.1539 10.3688,69.5229 9.9898,69.5629 Z M9.4718,69.4899 C9.5978,69.4769 9.8498,69.4509 9.8368,69.3239 C9.7108,69.3369 9.4588,69.3629 9.4718,69.4899 Z M9.2188,69.5169 C9.2988,70.2739 8.7458,71.0979 8.9258,71.5899 C9.4038,71.2839 9.9028,69.9549 9.2188,69.5169 Z M8.5648,80.3109 C8.5258,79.9319 8.6258,79.6659 8.7248,79.4009 C8.3598,79.5659 7.9938,79.7319 7.9068,80.1239 C8.3858,79.8189 8.3128,80.3379 8.5648,80.3109 Z M7.9418,74.3739 C7.9278,74.2479 7.9278,74.2479 7.9148,74.1219 C7.7888,74.1359 7.6618,74.1489 7.5358,74.1619 C7.5498,74.2879 7.5498,74.2879 7.5628,74.4139 C7.6888,74.4009 7.8158,74.3879 7.9418,74.3739 Z M8.3008,72.9319 C8.3068,74.2089 7.6428,75.1729 7.3568,76.0959 C8.1538,76.3959 7.6688,75.4259 8.3138,75.4859 C8.2148,75.7509 7.7618,76.3099 8.1668,76.5219 C8.8988,76.1899 8.5798,75.5849 8.7658,74.9279 C8.8918,74.9139 8.9188,75.1659 9.0448,75.1529 C8.4338,74.1949 9.7828,73.6709 9.2988,72.7009 C9.5108,72.2949 9.9558,72.8859 10.0288,72.3679 C9.7768,72.3939 9.7508,72.1419 9.7238,71.8879 C9.0318,72.6009 9.0258,71.3239 8.5598,71.7559 C8.7398,72.2489 8.5268,72.6539 9.0588,72.8529 C8.8588,73.3849 8.6398,72.5139 8.3008,72.9319 Z M7.9348,77.9509 C7.5688,78.1179 7.6618,79.0019 7.0168,78.9409 C6.8638,78.7029 6.7378,78.7159 6.8238,78.3239 C7.2028,78.2839 7.1498,77.7779 7.2368,77.3859 C7.5158,77.6109 8.0078,77.4319 7.9348,77.9509 Z M7.3708,68.9439 C6.6128,69.0229 6.0738,69.9739 6.5198,70.5659 C6.4268,69.6819 7.1848,69.6019 7.3708,68.9439 Z M6.0808,71.2509 C6.0808,71.2509 6.2068,71.2369 6.3338,71.2239 C6.3208,71.0979 6.3068,70.9709 6.4468,71.0849 C6.4328,70.9579 6.4198,70.8319 6.4068,70.7059 C6.2808,70.7189 6.2808,70.7189 6.1538,70.7319 C6.1668,70.8579 6.1798,70.9839 6.0408,70.8719 C6.0538,70.9979 6.0678,71.1249 6.0808,71.2509 Z M6.7708,82.6709 C6.4648,82.1929 5.6598,83.0419 6.2048,83.3689 C6.2918,82.9759 6.6708,82.9359 6.7708,82.6709 Z M5.9598,84.6719 C5.9988,85.0509 6.1378,85.1629 6.2648,85.1499 C6.2378,84.8979 6.0988,84.7839 5.9598,84.6719 Z M5.8008,73.4509 C5.9538,73.6899 5.3498,74.0089 5.8548,73.9559 C5.8548,73.9559 6.1798,73.4109 5.8008,73.4509 Z M5.3148,82.1849 C5.4408,82.1719 5.6938,82.1449 5.6798,82.0189 C5.5538,82.0329 5.3008,82.0589 5.3148,82.1849 Z M4.7958,86.9649 C5.1478,86.6719 5.5138,86.5069 5.7268,86.1009 C4.6488,85.5759 5.8198,84.5589 5.4478,83.4489 C5.6868,83.2949 5.6468,82.9159 5.7468,82.6499 C5.3678,82.6899 5.2408,82.7029 5.1418,82.9699 C5.2808,83.0819 5.4208,83.1959 5.4478,83.4489 C5.1488,84.2459 4.6888,85.9539 4.7958,86.9649 Z M5.1428,73.2639 C5.3228,73.7559 4.9438,73.7959 5.1228,74.2869 C5.2488,74.2739 5.3758,74.2609 5.3758,74.2609 C5.3888,74.3879 5.2758,74.5269 5.2888,74.6529 C5.0228,74.5539 4.8968,74.5669 4.6578,74.7199 C4.6968,75.0979 4.7238,75.3519 4.7508,75.6039 C5.2298,75.2989 5.5688,74.8799 5.7548,74.2209 C5.6288,74.2349 5.5018,74.2479 5.3758,74.2609 C5.3368,73.8829 5.3098,73.6299 5.2698,73.2509 C5.3958,73.2379 5.3958,73.2379 5.5228,73.2249 C5.5228,73.2249 5.6088,72.8329 5.4828,72.8459 C5.3688,72.9859 5.2568,73.1249 5.2698,73.2509 L5.1428,73.2639 Z M4.6908,76.2489 C4.6778,76.1219 4.6778,76.1219 4.6648,75.9959 C4.5378,76.0099 4.5378,76.0099 4.4118,76.0229 C4.4248,76.1489 4.4248,76.1489 4.4388,76.2759 C4.5648,76.2629 4.5648,76.2629 4.6908,76.2489 Z M4.2828,88.1669 C4.5498,88.2669 4.2368,88.9379 4.6418,89.1519 C4.6018,88.7719 4.5958,87.4959 4.2828,88.1669 Z M10.8608,71.7689 C10.2088,72.8599 9.5438,73.8229 9.9558,75.3129 C9.7298,75.5919 9.5168,75.9969 9.4438,76.5149 C9.3168,76.5289 9.3298,76.6559 9.3298,76.6559 C9.2308,76.9209 8.9648,76.8209 8.9918,77.0739 C9.0048,77.1999 9.1308,77.1869 9.1438,77.3129 C9.5498,77.5259 9.3698,77.0339 9.3298,76.6559 C9.4698,76.7679 9.4568,76.6419 9.4438,76.5149 C9.9358,76.3359 10.1488,75.9299 9.9558,75.3129 C10.3348,75.2729 10.1548,74.7819 10.5478,74.8679 C10.1348,75.8049 10.1418,77.0809 9.4498,77.7919 C9.0848,77.9589 9.2708,77.2999 8.6528,77.4919 C8.4328,76.6209 7.7418,77.3329 7.5228,76.4619 C7.0438,76.7669 7.1838,76.8809 7.2368,77.3859 C6.7308,77.4389 6.7838,77.9449 6.8238,78.3239 C6.2928,78.1239 6.7778,79.0949 6.3128,79.5259 C6.9828,79.8389 6.5978,78.6019 6.9038,79.0819 C7.5618,79.2669 6.7968,80.4969 6.5708,80.7759 C6.0398,80.5759 6.6448,80.2569 6.6048,79.8779 C6.4388,79.5129 6.1128,80.0579 5.8458,79.9579 C6.6578,80.3839 5.7268,81.2479 5.7928,81.8799 C5.9328,81.9919 6.3248,82.0789 6.7038,82.0389 C6.7638,81.3949 5.7928,81.8799 6.1058,81.2079 C6.4458,80.7899 6.7638,81.3949 6.8038,81.7739 C7.1898,80.5839 7.4828,78.5099 8.6528,77.4919 C8.7058,77.9989 8.4798,78.2769 8.6588,78.7689 C8.9648,79.2469 9.1108,78.2109 9.4168,78.6889 C9.3698,79.4599 8.9178,80.0179 8.7448,80.8039 C8.3528,80.7179 8.0868,80.6169 7.8208,80.5169 C7.5688,80.5439 7.7208,80.7839 7.4818,80.9359 C7.3958,81.3279 7.9938,82.1589 7.5418,82.7169 C8.0468,82.6639 7.8538,82.0469 8.0798,81.7669 C8.3528,83.1429 7.4878,84.6379 7.2558,86.0679 C6.8628,85.9819 6.8628,85.9819 6.3708,86.1599 C6.6638,86.5129 7.1548,86.3339 7.1958,86.7129 C7.0548,89.0259 5.9048,91.4449 7.2938,93.7249 C9.2418,94.0319 10.9568,93.3409 12.5258,93.6869 C14.4058,93.3609 15.7428,92.7089 17.1718,92.9419 C18.4678,91.9119 20.4028,92.0919 20.9018,90.7629 C27.6028,88.9089 33.4988,85.4789 39.2368,82.9619 C39.1638,83.4799 39.6548,83.3009 39.7078,83.8059 C39.0298,84.6429 39.3158,86.1459 37.7998,86.3049 C38.2588,87.0229 37.3148,87.7599 36.5298,87.5879 C36.1648,87.7539 36.8228,87.9399 36.5958,88.2189 C36.1178,88.5259 36.4168,87.7269 35.9388,88.0329 C35.8788,88.6789 36.5098,88.6119 36.5958,88.2189 C36.8488,88.1919 37.0028,88.4329 37.2418,88.2799 C37.2678,88.5319 37.2948,88.7849 37.3078,88.9109 C37.3208,89.0369 37.9658,89.0979 38.0648,88.8309 C37.6728,91.1709 33.3658,91.4969 31.9088,93.4369 C28.7918,94.1479 25.4078,97.1849 22.3358,97.1249 C20.5488,98.3349 18.8928,98.3809 16.7718,98.8599 C15.2498,100.1679 12.5838,100.3209 10.9628,99.4709 C9.6398,100.2469 9.1138,98.8969 7.8378,98.9029 C4.3358,95.9519 2.8598,91.6369 1.6978,86.6519 C1.6778,82.8229 3.2808,79.8449 3.3418,76.7739 C5.1238,71.8619 6.9058,66.9499 8.1428,61.7119 C7.2128,62.5759 4.6538,61.3119 4.8728,59.7579 C3.6828,59.3709 2.8458,58.6929 2.0078,58.0139 C2.0678,57.3699 2.5468,57.0639 2.7458,56.5329 C5.3718,55.9999 7.5058,55.6489 9.8388,54.7649 C11.7348,47.2869 13.2118,39.4709 15.1078,31.9919 C15.3538,28.2629 16.5908,25.4509 16.4058,21.2569 C17.0238,21.0639 17.5028,20.7589 17.9808,20.4519 C20.0938,21.1239 22.3478,21.9099 22.5608,23.9299 C22.6268,24.5619 22.6068,25.5849 22.5738,26.4819 C22.6398,27.1129 22.2008,27.7989 22.0278,28.5829 C21.5888,31.6939 20.9638,35.4639 19.8928,38.6409 C19.8058,39.0319 19.9858,39.5249 19.8988,39.9159 C19.7998,40.1819 19.4208,40.2219 19.3068,40.3609 C19.2208,40.7539 19.3868,41.1199 19.2998,41.5129 C18.4088,45.1809 17.3048,49.2559 16.6268,52.5199 C23.4538,50.6529 30.6738,48.8719 38.8958,48.1369 C39.1748,48.3619 39.3418,48.7269 39.2808,49.3719 C38.1978,49.9979 37.3808,50.7209 36.2698,51.0939 C36.9948,51.9109 36.1768,52.6359 36.5088,53.3669 C30.3528,55.5459 24.8218,56.3829 18.2148,59.1199 C17.0508,58.9879 16.8508,59.5189 15.1958,59.5659 C14.7048,59.7449 14.5048,60.2759 14.1528,60.5689 C14.4578,61.0489 14.6248,61.4139 14.2988,61.9589 C14.0198,61.7319 13.8668,61.4939 13.8268,61.1149 C13.4748,61.4069 13.7538,61.6329 13.8068,62.1379 C13.3148,62.3169 13.5078,62.9349 12.6098,62.9029 C13.7868,63.1609 12.7428,64.1649 13.5268,64.3389 C13.6798,64.5779 13.4408,64.7309 13.4668,64.9829 C13.1018,65.1489 12.9488,64.9099 12.4298,64.8369 C12.7488,65.4409 12.4098,65.8599 12.4628,66.3659 C12.7558,66.7179 12.7758,65.6939 13.1278,65.4009 C13.4468,66.0069 13.3408,67.4229 12.3168,67.4029 C12.9678,68.7389 11.6518,70.7919 11.3048,72.3619 C11.1788,72.3749 11.0398,72.2619 10.9008,72.1489 C10.8868,72.0229 10.8738,71.8949 10.8608,71.7689 C11.6178,71.6889 10.6408,70.8989 10.8608,71.7689 Z M69.8068,3.2579 C69.8608,3.7629 70.5918,3.4299 70.4188,4.2149 C69.6868,4.5469 68.6638,4.5259 68.0848,5.0969 C62.6008,5.1639 58.2868,6.6389 53.3348,6.9039 C47.4308,9.0569 39.8798,10.1059 33.2588,12.7179 C31.4888,12.9029 29.9008,13.5819 28.6508,13.8409 C28.2858,14.0059 27.9208,14.1719 27.8338,14.5639 C26.9098,14.2779 26.7368,15.0629 25.5728,14.9299 C23.5058,15.9129 21.3848,16.3919 19.6958,17.3359 C14.3188,18.4109 9.6258,22.3529 3.3428,22.1179 C2.5388,20.5429 0.2528,20.6549 -0.0002,18.2559 C1.0968,17.7579 2.3338,17.3729 3.1508,16.6479 C7.7718,15.6519 10.5438,14.0829 14.0738,12.4349 C15.7028,12.1369 17.4438,11.6979 18.5138,10.9469 C20.4358,10.9999 22.9278,9.2059 25.0758,8.9799 C26.7908,8.2899 28.2398,7.4979 30.5268,7.3869 C34.5358,5.4319 40.2458,5.0869 43.8888,3.3009 C52.4378,2.0179 60.0958,-0.4471 69.2488,0.3779 C70.0738,0.9309 72.2338,0.8319 72.0008,2.2599 C71.9268,2.7779 70.5388,2.9249 69.8068,3.2579 Z" id="Fill-1" fill="#D4535E" mask="url(#mask-2)"></path>
                </g>
                <path d="M102.084,96.2715 C101.905,95.7805 102.576,96.0915 102.396,95.6005 C102.802,95.8135 102.476,96.3575 102.084,96.2715 M97.989,98.6175 C97.098,99.8615 94.711,100.2395 94.997,101.7415 C95.941,101.0035 97.384,98.9375 98.46,99.4615 C98.082,99.5015 97.424,99.3145 97.73,99.7945 C98.108,99.7555 98.361,99.7285 98.46,99.4615 C98.687,99.1825 99.192,99.1285 99.139,98.6245 L99.392,98.5975 C99.378,98.4715 99.365,98.3455 99.352,98.2185 C99.099,98.2455 99.112,98.3725 99.139,98.6245 C98.673,99.0565 98.494,98.5645 97.989,98.6175 M97.543,98.0265 C97.291,98.0535 97.391,97.7875 97.251,97.6745 C96.141,98.0455 95.729,98.9825 94.911,99.7075 C96.015,100.4855 96.546,98.2585 97.61,98.6575 C97.584,98.4045 97.557,98.1525 97.543,98.0265 C97.949,98.2385 97.883,97.6075 98.428,97.9335 C98.209,97.0635 98.993,97.2355 99.192,96.7035 C99.232,97.0835 99.246,97.2085 99.498,97.1825 C99.226,95.8055 100.489,95.6735 100.788,94.8755 C101.014,94.5975 101.659,94.6565 101.48,94.1655 C101.24,94.3175 100.735,94.3705 100.788,94.8755 C99.605,95.7665 98.016,96.4435 97.543,98.0265 M94.658,99.7335 C94.685,99.9865 94.499,100.6455 94.99,100.4645 C94.951,100.0865 94.798,99.8465 94.658,99.7335 M94.054,100.0535 C94.292,99.8995 94.04,99.9265 94.054,100.0535 C93.814,100.2065 94.067,100.1805 94.054,100.0535 M91.56,104.2735 L91.533,104.0215 C91.407,104.0345 91.281,104.0475 91.281,104.0475 L91.307,104.2995 C91.307,104.2995 91.433,104.2865 91.56,104.2735 M67.231,98.7855 C67.178,98.2805 67.025,98.0415 66.521,98.0945 C66.7,98.5865 65.902,98.2875 66.221,98.8915 C66.36,99.0045 66.992,98.9385 67.231,98.7855 M65.981,99.0445 C65.995,99.1715 65.755,99.3235 66.021,99.4235 C66.134,99.2845 66.374,99.1315 65.981,99.0445 M65.835,100.0815 C65.809,99.8285 65.769,99.4495 65.263,99.5025 C64.851,100.4405 63.741,100.8135 63.468,101.8625 C64.731,101.7295 64.446,100.2275 65.835,100.0815 M63.202,101.7635 C62.444,101.8425 62.398,102.6145 62.338,103.2585 C62.803,102.8265 63.003,102.2945 63.202,101.7635 M61.773,103.9565 C61.747,103.7045 61.707,103.3245 61.467,103.4785 C61.48,103.6045 61.494,103.7305 61.494,103.7305 C61.62,103.7175 61.633,103.8435 61.773,103.9565 M48.551,105.7295 C48.451,105.9955 48.338,106.1345 48.604,106.2335 C48.577,105.9815 48.817,105.8295 48.551,105.7295 M48.245,107.6775 C47.853,107.5905 47.667,108.2495 48.045,108.2095 C48.019,107.9565 48.411,108.0425 48.245,107.6775 M43.142,95.5715 C43.268,95.5575 43.268,95.5575 43.254,95.4315 C45.408,94.0555 45.482,91.1115 49.311,91.0925 C50.806,91.9565 51.737,93.5185 53.119,94.5225 C54.334,100.0135 51.529,104.9055 51.042,111.2135 C57.73,106.8085 60.777,99.3365 68.149,95.3695 C69.698,96.7385 71.685,97.4235 72.782,99.3515 C72.655,99.3645 72.629,99.1115 72.502,99.1255 C73.824,103.2015 71.391,106.7765 72.8,110.4605 C78.749,112.3875 87.685,105.0635 90.603,102.4585 C95.264,99.4145 98.954,94.4305 103.281,90.6545 C103.534,93.0545 101.552,96.0715 99.797,96.3835 C100.003,97.1295 99.525,97.4355 99.212,98.1055 C100.435,97.5945 100.342,96.7105 101.971,96.4115 C101.798,97.1965 100.688,97.5675 101.525,98.2465 C96.113,105.0715 89.026,110.5425 80.683,114.9945 C77.565,115.7065 75.405,115.8045 72.228,114.7335 C71.909,114.1285 71.363,113.8035 70.805,113.3505 C68.971,110.4785 67.915,106.5035 67.855,102.2955 C65.934,104.6685 62.57,106.6825 60.476,109.8395 C57.929,113.5545 54.717,118.2345 49.885,117.2085 C48.908,116.4175 48.356,114.8165 47.379,114.0255 C45.818,107.6765 47.641,103.1435 48.247,97.9725 C42.455,104.8375 39.722,114.0645 36.849,123.1775 C35.964,123.2705 35.891,123.7885 35.106,123.6155 C34.509,122.7845 33.685,122.2325 33.652,120.7045 C32.05,118.8295 32.855,115.5525 33.5,113.1865 C35.163,107.1365 37.351,100.0105 37.89,94.2075 C37,93.0245 37.093,91.4825 37.884,90.5055 C41.168,90.1605 42.218,92.8595 43.254,95.4315 C43.128,95.4455 43.128,95.4455 43.142,95.5715" id="Fill-4" fill="#D4535E"></path>
                <path d="M134.1509,95.2002 C134.2509,94.9332 134.6299,94.8942 134.5889,94.5152 C134.9949,94.7282 134.5429,95.2862 134.1509,95.2002 M134.7629,91.3042 C134.3969,91.4712 134.0179,91.5112 134.1839,91.8762 C134.4629,92.1022 134.6759,91.6972 134.7629,91.3042 M133.7119,95.8852 C133.9769,95.9852 133.9379,95.6052 134.4569,95.6782 C134.6359,96.1712 133.6519,96.5302 133.7119,95.8852 M119.4839,108.7452 C119.0919,108.6592 119.6839,108.2132 119.9359,108.1862 C119.9759,108.5662 119.4579,108.4922 119.4839,108.7452 M119.7839,105.5222 C119.3919,105.4342 119.2919,105.7012 119.1919,105.9672 C119.5709,105.9282 119.6709,105.6612 119.7839,105.5222 C119.9099,105.5092 120.0369,105.4952 120.1629,105.4822 C119.9629,106.0132 119.3449,106.2062 118.8669,106.5122 C118.8389,106.2592 119.4449,105.9412 118.8129,106.0072 C118.6139,106.5382 118.4409,107.3222 117.6169,106.7712 C117.5299,107.1632 117.2169,107.8332 117.7219,107.7812 C124.1719,103.5272 130.2479,98.1642 134.0719,92.0162 C129.5839,96.7012 125.5019,101.5992 120.1629,105.4822 C120.0099,105.2422 119.7569,105.2682 119.7839,105.5222 M118.2879,109.5092 C117.7959,109.6892 117.3029,109.8682 117.1039,110.4002 C117.5829,110.0942 118.2139,110.0272 118.2879,109.5092 M117.6299,109.3242 C117.1249,109.3772 116.6189,109.4292 116.7979,109.9212 C117.0379,109.7692 117.5429,109.7162 117.6299,109.3242 M103.9039,99.0172 C103.9439,99.3962 103.2729,99.0842 103.4529,99.5752 C103.6049,99.8152 104.4359,99.2182 103.9039,99.0172 M102.4479,100.9582 C102.4219,100.7062 102.8139,100.7922 102.7739,100.4132 C102.8999,100.4002 102.9139,100.5262 103.0399,100.5122 C103.1529,100.3732 103.1389,100.2472 103.1129,99.9942 C102.8599,100.0212 102.7469,100.1612 102.7739,100.4132 C102.3809,100.3272 102.1949,100.9842 102.4479,100.9582 M102.0039,97.9402 C100.8999,97.1622 101.2129,94.0662 100.8399,92.9542 C92.7829,96.4832 90.5879,104.7592 87.6959,112.4702 C93.8049,108.6362 97.2889,102.9052 102.0039,97.9402 M86.0409,112.5152 C86.2529,112.1112 86.6059,111.8182 86.5259,111.0592 C86.7789,111.0332 86.5119,110.9332 86.5259,111.0592 C86.3129,111.4652 85.7609,112.2902 86.0409,112.5152 M85.3759,113.4792 C85.6279,113.4522 85.7809,113.6922 86.0329,113.6652 C86.2339,113.1342 85.3489,113.2272 85.3759,113.4792 M106.9749,101.5052 C106.8219,101.2642 106.8479,101.5182 106.8619,101.6442 C106.3969,102.0762 105.4129,102.4342 105.5919,102.9272 C105.1529,103.6112 104.3949,103.6902 103.6899,104.2752 C98.8579,108.1042 93.4309,119.6562 85.7999,117.5222 C85.4549,116.6632 84.8829,116.0852 84.5509,115.3542 C84.4849,114.7222 84.0719,115.6592 84.0189,115.1552 C83.5739,114.5632 83.2549,113.9572 82.8089,113.3672 C83.6489,104.3392 87.8379,98.0252 91.8599,91.3442 C93.4819,89.7692 95.4569,87.9012 98.3619,87.5962 C101.2069,87.9362 104.5839,88.4752 105.4479,91.8312 C105.8989,93.7002 105.2739,95.0432 104.6499,96.3862 C105.6599,96.2802 106.6899,95.1492 108.3589,95.2292 C110.7249,95.8752 111.5949,100.5072 110.1259,102.3222 C111.4619,104.0982 109.4799,107.1152 110.5889,109.1692 C123.0079,105.8212 129.1379,96.1102 136.0599,87.8482 C135.8799,94.6352 129.4179,98.7622 125.4739,103.7742 C122.7419,105.7212 120.7549,107.4622 117.7419,109.1832 C118.0359,109.5352 118.4609,108.7262 118.9789,108.7992 C118.8919,109.1912 118.3739,109.1172 118.4139,109.4962 C123.4069,107.1832 126.2389,102.5452 130.4469,100.0592 C130.2809,99.6932 129.9559,100.2382 129.6899,100.1382 C129.9019,99.7332 130.2009,98.9352 130.5469,99.7922 C130.8329,98.8692 132.0629,97.2072 133.7919,96.6422 C129.0499,103.7812 122.5679,108.9322 114.6439,113.7232 C113.5209,113.9692 112.5959,113.6822 111.4599,113.8022 C109.4989,113.3702 108.7609,112.4272 107.7049,110.8772 C107.3129,108.3642 106.7749,104.4622 106.8619,101.6442 C106.9879,101.6312 106.9749,101.5052 106.9749,101.5052" id="Fill-6" fill="#D4535E"></path>
                <path d="M158.3335,87.1675 C158.0815,87.1945 157.7025,87.2335 157.7425,87.6115 C157.9945,87.5855 158.3735,87.5455 158.3335,87.1675 M155.9465,89.9715 C155.8205,89.9845 155.6935,89.9985 155.5675,90.0115 C155.6535,89.6195 156.0325,89.5795 156.2595,89.3005 C156.2855,89.5525 156.5255,89.4005 156.5525,89.6535 C156.2985,89.6795 156.0465,89.7065 155.9465,89.9715 M155.1485,92.0995 C155.1085,91.7205 155.3615,91.6935 155.7405,91.6545 C155.6415,91.9205 155.3885,91.9465 155.1485,92.0995 M155.0355,92.2385 C154.7105,92.7835 154.1045,93.1025 153.4865,93.2945 C153.5465,92.6505 154.1515,92.3315 155.0355,92.2385 M153.4865,93.2945 C153.3735,93.4345 153.3735,93.4345 153.1205,93.4605 C153.1075,93.3345 153.2335,93.3215 153.4865,93.2945 M152.1445,95.0965 C152.1565,95.2225 152.1835,95.4755 152.1965,95.6015 C151.9445,95.6285 151.5655,95.6675 151.6515,95.2755 C151.7775,95.2625 151.7775,95.2625 151.7655,95.1365 C151.8915,95.1235 152.0185,95.1105 152.1445,95.0965 M149.8965,98.0145 C149.6835,98.4195 149.5305,98.1805 149.1395,98.0945 C149.2255,97.7025 149.8835,97.8885 149.8965,98.0145 M148.1075,99.2235 C148.1945,98.8315 148.6995,98.7785 148.7725,98.2605 C149.5575,98.4335 148.5265,99.5625 148.1075,99.2235 M143.7475,99.0435 C143.6205,99.0575 143.6205,99.0575 143.6075,98.9315 C143.7335,98.9175 143.7335,98.9175 143.7475,99.0435 M143.6075,98.9315 C143.4805,98.9445 143.4805,98.9445 143.4685,98.8175 C143.5945,98.8045 143.5945,98.8045 143.6075,98.9315 M156.5525,89.6535 C156.6785,89.6405 156.8045,89.6265 156.9315,89.6135 C156.9035,89.3605 156.7655,89.2485 156.5125,89.2745 C156.8375,88.7295 157.4425,88.4105 157.6155,87.6255 C152.3235,90.7355 148.1025,95.5215 143.0365,98.3525 C142.6705,98.5185 143.4415,98.5655 143.4685,98.8175 C141.7535,99.5085 141.1545,101.1045 139.4265,101.6695 C139.4125,101.5425 139.3995,101.4165 139.2725,101.4295 C145.7025,95.7735 152.1445,90.2445 159.8425,85.7325 C159.7565,86.1235 158.9985,86.2035 158.9125,86.5955 C159.2185,87.0745 159.3775,86.1635 159.9085,86.3635 C158.6525,87.7715 157.9545,89.6335 155.8735,90.4895 C155.8475,90.2375 156.0995,90.2115 155.9465,89.9715 C156.3255,89.9315 156.5785,89.9055 156.5525,89.6535 M139.1465,101.4425 C139.3005,101.6825 138.6945,102.0005 139.2005,101.9475 C139.0005,102.4795 138.6685,101.7495 138.6425,101.4965 C138.7685,101.4825 139.0215,101.4565 139.1465,101.4425 M137.4715,104.9395 C137.0925,104.9795 136.9925,105.2445 136.8935,105.5105 C137.3975,105.4585 137.6385,105.3045 137.4715,104.9395 M129.7455,71.5285 C127.9105,71.0825 126.2025,70.6245 125.6115,68.6425 C127.2465,67.1935 128.2305,64.4085 131.3025,64.4685 C133.1095,67.0875 132.4315,70.3515 129.7455,71.5285 M138.5085,102.6595 C137.7905,103.1185 137.0725,103.5755 136.4945,104.1485 C137.1395,104.2085 138.2095,103.4565 138.5085,102.6595 C140.7415,102.0415 142.0985,100.3655 143.7475,99.0435 C145.4625,98.3535 146.5395,96.4525 148.6205,95.5945 C150.6815,93.3345 152.9615,91.9465 155.5675,90.0115 C155.4945,90.5295 155.0025,90.7095 155.3215,91.3145 C153.5795,91.7535 152.1965,93.1755 151.6725,94.2525 C147.1115,97.0295 142.6965,101.1975 138.2025,104.6065 C137.9505,104.6335 137.8235,104.6465 137.8505,104.8995 C138.1035,104.8735 138.2295,104.8595 138.2025,104.6065 C140.1045,103.2565 142.5225,101.9815 143.5415,100.7265 C146.0615,99.1845 148.8395,96.4645 151.6725,94.2525 C152.5685,94.2865 152.3505,93.4145 153.1205,93.4605 C153.3005,93.9545 152.7825,93.8805 152.9615,94.3725 C152.3295,94.4385 151.6985,94.5045 151.7655,95.1365 C151.6395,95.1495 151.6515,95.2755 151.6515,95.2755 C151.4125,95.4285 151.2995,95.5685 151.0605,95.7215 C151.0865,95.9745 151.2385,96.2125 151.6045,96.0465 C151.5315,96.5655 151.2525,96.3385 150.8735,96.3785 C151.0655,96.9985 150.8405,97.2765 150.5015,97.6955 C150.1225,97.7355 149.9825,97.6225 149.8165,97.2565 C149.7765,96.8775 150.0295,96.8515 150.2815,96.8245 C149.0795,96.3125 148.8395,98.8925 147.4635,99.1645 C147.6295,99.5295 148.1345,99.4765 147.8085,100.0225 C147.4305,100.0625 146.9375,100.2415 146.9975,99.5965 C146.7455,99.6225 146.9255,100.1155 146.5325,100.0285 C146.4595,100.5475 147.2905,99.9495 147.1045,100.6065 C146.5125,101.0525 146.5595,100.2805 145.8145,100.4875 C145.6285,101.1455 146.2325,100.8255 146.1465,101.2175 C145.6545,101.3975 145.7285,100.8785 145.2355,101.0585 C145.0365,101.5905 145.7545,101.1315 145.6685,101.5235 C144.6385,102.6535 142.6765,104.6475 140.5225,106.0225 C140.2695,106.0495 140.4365,106.4165 140.4625,106.6675 C139.5785,106.7615 139.2665,107.4325 139.2065,108.0765 C133.3825,113.4145 121.8085,116.2905 118.2725,106.9575 C117.8945,104.5705 118.0405,103.5345 118.2805,100.9545 C119.8705,95.4245 119.7385,89.3085 123.9275,85.4195 C126.3535,85.4205 127.7755,86.8035 128.5205,89.0245 C128.1535,89.1905 127.7885,89.3555 127.2835,89.4095 C125.2085,93.9685 123.5195,99.7665 123.2925,104.8965 C122.5265,106.1265 122.9265,107.4895 123.3645,109.2315 C127.8525,109.3975 133.4825,105.8695 137.1725,103.3105 C137.1465,103.0575 136.8805,102.9585 136.9795,102.6915 C137.7245,102.4865 137.5715,102.2475 138.4815,102.4065 C138.4955,102.5325 138.4955,102.5325 138.5085,102.6595" id="Fill-8" fill="#D4535E"></path>
                <g id="Group-12" transform="translate(143.000000, 0.263000)">
                    <mask id="mask-4" fill="white">
                        <use xlink:href="#path-3"></use>
                    </mask>
                    <g id="Clip-11"></g>
                    <path d="M41.1245,84.4485 C40.6795,83.8575 41.6245,83.1195 41.9635,82.7005 C42.7735,83.1255 41.1855,83.8045 41.1245,84.4485 Z M39.1905,86.6955 C39.2365,85.9245 39.8425,85.6055 40.3085,85.1745 C40.1215,85.8315 39.7955,86.3765 39.1905,86.6955 Z M38.7385,84.8265 C38.7785,85.2065 38.3865,85.1195 38.4265,85.4995 C38.9325,85.4465 39.2575,84.9005 38.7385,84.8265 Z M38.4125,87.7985 C38.1735,87.9515 38.1465,87.6985 37.8945,87.7255 C38.0075,87.5855 38.1335,87.5725 38.1195,87.4465 C38.2465,87.4325 38.3865,87.5455 38.4125,87.7985 Z M37.8335,90.7975 C37.8075,90.5435 38.0605,90.5175 38.0325,90.2645 C38.4255,90.3515 38.1005,90.8975 37.8335,90.7975 Z M38.1735,87.9515 C38.1865,88.0785 38.1995,88.2045 38.2135,88.3305 C38.0875,88.3445 37.9605,88.3575 37.8345,88.3705 C37.8205,88.2445 37.8085,88.1185 37.7945,87.9915 C37.9205,87.9785 38.0475,87.9655 38.1735,87.9515 Z M37.8475,90.9235 C37.8605,91.0495 37.8735,91.1755 37.8875,91.3025 C37.7475,91.1885 37.7605,91.3155 37.7735,91.4415 C37.6465,91.4545 37.5205,91.4685 37.3955,91.4815 C37.3815,91.3555 37.3685,91.2285 37.3545,91.1025 C37.4945,91.2155 37.4815,91.0895 37.4685,90.9635 C37.5945,90.9495 37.7215,90.9365 37.8475,90.9235 Z M36.5045,90.2975 C36.3775,90.3105 36.2515,90.3235 36.1255,90.3375 C35.8335,89.9855 36.7175,89.8915 36.5045,90.2975 Z M36.3315,91.0825 C36.0925,91.2355 36.2705,91.7265 35.8795,91.6405 C35.8655,91.5145 35.8395,91.2615 35.8265,91.1355 C35.9525,91.1225 36.2055,91.0955 36.3315,91.0825 Z M35.9265,90.8695 C35.6735,90.8965 35.7205,90.1255 36.1255,90.3375 C36.1515,90.5905 36.0385,90.7295 35.9265,90.8695 Z M34.8825,91.8725 C34.9215,92.2515 34.8095,92.3915 34.4305,92.4305 C34.3905,92.0525 34.5035,91.9125 34.8825,91.8725 Z M36.6495,91.6875 C36.0855,92.3855 35.5205,93.0825 34.9415,93.6555 C34.4495,93.8345 34.5365,93.4415 34.2835,93.4685 C34.8755,93.0235 34.9015,93.2755 35.0615,92.3645 C35.3135,92.3385 35.3415,92.5915 35.5935,92.5645 C35.9585,92.3985 35.1875,92.3515 35.2745,91.9605 C35.6535,91.9205 36.0855,92.3855 35.8925,91.7665 C36.1455,91.7405 36.3975,91.7135 36.6495,91.6875 Z M33.8385,92.8765 C33.9375,92.6115 34.0375,92.3445 34.4305,92.4305 C34.5965,92.7965 34.3565,92.9495 33.8385,92.8765 Z M33.6325,92.1325 C33.6455,92.2585 33.5325,92.3985 33.5065,92.1465 L33.6325,92.1325 Z M34.5895,93.9475 C34.3765,94.3535 34.0235,94.6445 33.8115,95.0505 C33.5455,94.9505 33.2795,94.8515 33.2395,94.4725 C33.5925,94.1795 33.6325,94.5585 33.9975,94.3925 C34.0835,94.0005 33.7185,94.1665 33.7915,93.6475 C34.2835,93.4685 34.0975,94.1265 34.5895,93.9475 Z M32.4485,95.4485 C32.2555,94.8305 33.5455,94.9505 33.5855,95.3295 C33.0665,95.2565 32.9405,95.2705 32.4485,95.4485 Z M33.2325,95.6215 C33.2595,95.8745 32.8675,95.7885 33.0335,96.1545 C32.7805,96.1805 32.1765,96.4985 32.2495,95.9805 C32.8945,96.0405 32.7285,95.6745 33.2325,95.6215 Z M32.0435,95.2365 C32.0565,95.3635 32.0695,95.4895 32.0695,95.4895 C31.9425,95.5025 31.8165,95.5155 31.6905,95.5295 C31.6905,95.5295 31.6775,95.4035 31.6645,95.2765 C31.7905,95.2625 31.9165,95.2495 32.0435,95.2365 Z M31.7975,96.5385 C31.6715,96.5525 31.6715,96.5525 31.5445,96.5655 C31.5305,96.4395 31.5175,96.3135 31.5045,96.1865 C31.6315,96.1735 31.8965,96.2735 31.7975,96.5385 Z M31.0855,95.8475 C31.3385,95.8205 31.4645,95.8075 31.6045,95.9215 C31.6175,96.0475 31.4905,96.0605 31.5045,96.1865 C31.2515,96.2125 31.1115,96.1005 31.0855,95.8475 Z M30.9725,15.7925 C31.1505,16.2845 30.5735,16.8555 30.9785,17.0695 C30.9385,16.6905 31.7435,15.8395 30.9725,15.7925 Z M31.4585,96.9585 C30.8405,97.1505 30.9125,96.6315 30.7465,96.2655 C31.0255,96.4925 31.2915,96.5915 31.4585,96.9585 Z M30.9205,8.0095 C30.8945,7.7565 31.1455,7.7295 30.9935,7.4905 C30.8665,7.5035 30.7405,7.5165 30.6145,7.5305 C30.6415,7.7825 30.6545,7.9085 30.6675,8.0355 C30.7945,8.0225 30.7945,8.0225 30.9205,8.0095 Z M30.9595,10.8145 C30.6065,11.1055 30.7065,10.8405 30.3275,10.8805 C30.6335,11.3585 30.6005,12.2555 31.1325,12.4565 C30.8205,10.7015 31.6115,9.7245 30.8605,8.6535 C30.7945,8.0225 30.2155,8.5935 30.8605,8.6535 C30.6875,9.4375 30.7545,10.0695 30.9595,10.8145 Z M30.6195,20.9385 C30.6055,20.8115 30.5935,20.6855 30.5795,20.5585 C30.4525,20.5725 30.3265,20.5855 30.3265,20.5855 C30.3395,20.7125 30.3535,20.8385 30.3665,20.9655 C30.3665,20.9655 30.4925,20.9515 30.6195,20.9385 Z M31.0325,12.7215 C30.6535,12.7615 30.5265,12.7755 30.3885,12.6625 C30.1755,13.0675 30.2685,13.9515 30.7865,14.0245 C30.5935,13.4065 30.9595,13.2405 31.0325,12.7215 Z M30.7135,97.1635 C30.7395,97.4165 30.7535,97.5425 30.7665,97.6685 C30.5145,97.6955 30.3875,97.7085 30.2615,97.7215 C30.2475,97.5955 30.2345,97.4695 30.2345,97.4695 C30.3605,97.4565 30.3485,97.3305 30.3345,97.2035 C30.4615,97.1905 30.5875,97.1775 30.7135,97.1635 Z M30.1015,101.0595 C30.0745,100.8065 30.5935,100.8805 30.5665,100.6275 C30.9595,100.7135 30.5065,101.2715 30.1015,101.0595 Z M30.1545,16.5165 C29.9015,16.5435 29.9885,16.1525 29.9615,15.8995 C30.3535,15.9855 30.3805,16.2385 30.1545,16.5165 Z M30.0945,17.1615 C30.2735,17.6535 29.4895,17.4815 29.6685,17.9735 C30.8325,18.1065 30.2935,16.6305 30.5935,15.8325 C30.3275,15.7335 30.2745,15.2285 29.8955,15.2685 C29.2035,15.9785 30.0155,16.4045 29.5895,17.2155 C29.8415,17.1885 29.9415,16.9225 30.0945,17.1615 Z M30.1475,97.8625 C30.0485,98.1275 29.9485,98.3935 29.5695,98.4335 C29.5565,98.3075 29.5295,98.0545 29.5175,97.9285 C29.7695,97.9025 29.8955,97.8885 30.1475,97.8625 Z M30.0075,22.4065 C29.5025,22.4595 29.5685,23.0905 29.4955,23.6105 C29.9875,23.4305 30.4385,22.8715 30.0075,22.4065 Z M30.1135,18.5645 C29.7345,18.6045 29.6955,18.2255 29.3295,18.3925 C29.2705,19.0365 29.5495,19.2625 29.8145,19.3625 C29.9145,19.0965 29.8745,18.7175 30.1135,18.5645 Z M29.5275,25.1385 C29.5155,25.0115 29.5155,25.0115 29.5015,24.8855 C29.3745,24.8995 29.2485,24.9125 29.2485,24.9125 C29.2625,25.0385 29.2625,25.0385 29.2755,25.1655 L29.5275,25.1385 Z M29.2105,102.3015 C29.0435,101.9365 29.4225,101.8965 29.3955,101.6435 C30.0415,101.7035 29.5895,102.2615 29.2105,102.3015 Z M29.3905,97.9415 C29.4035,98.0675 29.4175,98.1935 29.4305,98.3205 C29.3045,98.3335 29.1785,98.3475 29.0515,98.3605 C29.0375,98.2335 29.0245,98.1075 29.0115,97.9815 C29.1385,97.9685 29.2645,97.9545 29.3905,97.9415 Z M29.1165,21.2235 C29.1895,20.7045 29.3825,21.3235 29.6355,21.2965 C29.8485,20.8915 29.7685,20.1335 29.8415,19.6145 C29.5895,19.6405 29.3365,19.6675 29.1965,19.5545 C28.8565,19.9735 29.4025,20.2995 29.5555,20.5375 C29.0365,20.4655 28.7245,21.1375 29.1165,21.2235 Z M29.2965,21.7155 C29.0165,21.4895 28.6385,21.5295 28.6905,22.0345 C29.0695,21.9945 29.3225,21.9685 29.2965,21.7155 Z M28.6175,22.5525 C28.6575,22.9315 29.0365,22.8915 29.2885,22.8655 C29.3625,22.3465 28.9835,22.3855 28.6175,22.5525 Z M28.4775,29.7195 C28.4635,29.5935 28.4505,29.4665 28.4505,29.4665 C28.3235,29.4795 28.1975,29.4925 28.1975,29.4925 C28.1975,29.4925 28.2115,29.6195 28.2245,29.7455 C28.2245,29.7455 28.3505,29.7325 28.4775,29.7195 Z M28.8835,25.0785 C28.7435,24.9655 28.3785,25.1315 28.4515,24.6135 C28.9435,24.4345 29.0165,23.9155 29.3545,23.4975 C28.9635,23.4095 28.5705,23.3235 28.2925,23.0975 C28.3975,24.1085 28.0325,24.2745 27.8725,25.1845 C28.2785,25.3975 28.7105,25.8625 28.8835,25.0785 Z M27.8605,102.8265 C27.8875,103.0795 27.6345,103.1065 27.6605,103.3585 C27.9275,103.4585 28.2535,102.9145 27.8605,102.8265 Z M27.8645,33.6135 C27.7255,33.5005 27.6985,33.2485 27.4595,33.4015 C27.4735,33.5275 27.4995,33.7805 27.6255,33.7665 C27.6255,33.7665 27.7385,33.6265 27.8645,33.6135 Z M27.3195,30.8615 C27.7125,30.9485 27.6865,30.6965 27.6595,30.4435 C27.5465,30.5835 27.4335,30.7225 27.3195,30.8615 Z M27.0545,33.1885 C26.9675,33.5805 26.8815,33.9725 26.6285,33.9985 C26.5895,33.6195 26.5495,33.2405 27.0545,33.1885 Z M26.9705,101.6435 C26.7175,101.6695 26.4915,101.9485 26.3915,102.2155 C26.7705,102.1755 27.0105,102.0225 26.9705,101.6435 Z M28.4655,102.5075 C28.4915,102.7605 28.8445,102.4685 28.9575,102.3275 C28.9365,103.3525 26.8835,104.4625 26.7365,105.4995 C26.4835,105.5265 26.5575,105.0075 26.1915,105.1725 C26.5045,104.5025 26.4645,104.1235 26.2715,103.5045 C26.8035,103.7045 26.6635,103.5915 27.1835,103.6645 C27.6745,103.4855 26.7895,103.5785 27.0035,103.1735 C30.2215,99.7705 33.4385,96.3655 36.5295,92.9765 C34.7025,96.2335 31.0655,99.2975 28.4655,102.5075 Z M26.2555,35.3155 L26.2825,35.5675 C26.2825,35.5675 26.1565,35.5805 26.0295,35.5945 C26.0295,35.5945 26.0165,35.4685 26.0035,35.3425 C26.1295,35.3285 26.2555,35.3155 26.2555,35.3155 Z M26.3365,33.6465 C26.3495,33.7725 26.3495,33.7725 26.3625,33.8995 C26.2355,33.9125 26.1095,33.9265 25.9835,33.9395 C25.9705,33.8125 25.9705,33.8125 25.9575,33.6865 C26.0835,33.6735 26.2095,33.6595 26.3365,33.6465 Z M26.3975,105.9185 C26.2715,105.9315 26.0195,105.9575 25.8935,105.9715 C26.0065,105.8315 25.9925,105.7045 25.9785,105.5785 C26.3455,105.4125 26.3715,105.6655 26.3975,105.9185 Z M25.7245,35.1155 C25.8375,34.9765 25.8115,34.7235 25.7845,34.4705 C26.0235,34.3185 26.1295,35.3285 25.7245,35.1155 Z M24.4375,105.4855 C24.0445,105.3985 23.8585,106.0575 24.2505,106.1435 C24.2245,105.8905 24.6165,105.9785 24.4375,105.4855 Z M25.3275,101.8155 C25.0755,101.8425 25.1755,101.5765 25.0355,101.4645 C24.6965,101.8825 24.2185,102.1885 24.0185,102.7195 C24.7765,102.6395 24.9765,102.1085 25.3275,101.8155 Z M24.2905,106.5225 C24.3305,106.9015 23.6725,106.7155 23.8385,107.0805 C24.2295,107.1665 24.6835,106.6095 24.2905,106.5225 Z M24.3805,41.7695 C24.1145,41.6705 23.8495,41.5705 23.8095,41.1925 C24.0745,41.2915 24.3405,41.3905 24.3805,41.7695 Z M24.4465,42.4005 C24.2215,42.6805 23.6755,42.3545 23.6365,41.9755 C23.8615,41.6975 23.9015,42.0755 24.3945,41.8955 C24.4205,42.1485 24.4335,42.2745 24.4465,42.4005 Z M23.0635,43.8235 C23.1775,43.6845 22.9975,43.1925 23.5165,43.2655 C23.2765,43.4185 23.4425,43.7835 23.0635,43.8235 Z M23.6485,44.5285 C23.5755,45.0465 22.6655,44.8875 22.8515,44.2295 C23.2295,44.1895 23.2565,44.4425 23.6485,44.5285 Z M22.7775,47.1745 C22.5125,47.0735 22.7515,46.9215 22.7245,46.6695 C22.9895,46.7685 22.7645,47.0475 22.7775,47.1745 Z M22.6355,104.1425 C22.7615,104.1295 22.8885,104.1155 23.0155,104.1025 C23.1275,103.9635 23.1145,103.8365 22.7225,103.7505 C22.7345,103.8765 22.7345,103.8765 22.6085,103.8895 C22.6215,104.0165 22.6355,104.1425 22.6355,104.1425 Z M23.1495,45.8585 C22.7705,45.8985 22.5185,45.9245 22.4785,45.5445 C22.7315,45.5185 23.1095,45.4785 23.1495,45.8585 Z M22.3295,108.5155 C21.8115,108.4435 21.7245,108.8355 21.6245,109.1015 C21.9895,108.9355 22.2285,108.7815 22.3295,108.5155 Z M22.0595,50.0585 C21.9335,50.0725 21.6805,50.0985 21.5545,50.1125 C21.5405,49.9865 21.5275,49.8605 21.5145,49.7335 C21.8935,49.6935 22.0195,49.6795 22.0595,50.0585 Z M21.8665,49.4415 C21.2475,49.6335 21.1815,49.0025 21.4075,48.7225 C21.7865,48.6825 21.8265,49.0625 21.8665,49.4415 Z M22.0385,10.9855 C21.4075,11.0525 21.3475,11.6975 21.2735,12.2155 C21.7665,12.0345 21.8255,11.3905 22.0385,10.9855 Z M21.4205,51.2755 C21.4345,51.4015 21.4465,51.5285 21.4605,51.6555 C21.3335,51.6685 21.2085,51.6815 21.0815,51.6955 C21.0675,51.5685 21.0555,51.4415 21.0415,51.3155 C21.1685,51.3015 21.2945,51.2885 21.4205,51.2755 Z M21.4545,50.3785 C21.6205,50.7435 20.9885,50.8105 20.9485,50.4315 C21.0625,50.2905 21.4405,50.2515 21.4545,50.3785 Z M20.6835,52.7575 C20.7095,53.0095 19.9515,53.0895 20.1645,52.6845 C20.4035,52.5315 20.4305,52.7835 20.6835,52.7575 Z M19.7375,55.9215 C20.1305,56.0075 19.6655,56.4395 19.6915,56.6915 C19.4385,56.7185 19.4125,56.4665 19.5125,56.1995 C19.6395,56.1865 19.6255,56.0605 19.7375,55.9215 Z M19.6495,108.5415 C19.4505,109.0745 18.4275,109.0545 18.2285,109.5855 C18.7195,109.4065 20.3215,108.8555 19.6495,108.5415 Z M17.5635,63.1745 C17.6035,63.5525 17.2105,63.4665 17.3775,63.8315 C17.6435,63.9305 17.9555,63.2605 17.5635,63.1745 Z M18.2025,19.4335 C17.5835,19.6275 17.7095,19.6145 17.2045,19.6665 C17.1455,20.3105 18.3815,19.9255 18.2025,19.4335 Z M17.1915,62.0635 C16.9125,61.8365 17.1255,61.4325 17.5045,61.3925 C17.5305,61.6445 17.5705,62.0235 17.1915,62.0635 Z M17.4305,64.3365 C16.7985,64.4035 16.8385,64.7815 16.9045,65.4125 C17.3965,65.2335 17.2045,64.6155 17.4305,64.3365 Z M16.9715,63.6185 C16.9585,63.4925 16.9445,63.3665 16.9325,63.2405 C16.9325,63.2405 16.8065,63.2535 16.6795,63.2675 C16.6925,63.3935 16.7055,63.5195 16.7195,63.6455 C16.8455,63.6315 16.9715,63.6185 16.9715,63.6185 Z M16.2465,22.7035 C16.4855,22.5515 16.8055,23.1555 16.8785,22.6375 C16.7525,22.6505 16.2075,22.3245 16.2465,22.7035 Z M16.7455,63.8985 C16.2545,64.0765 15.9805,65.1275 16.2735,65.4795 C16.3475,64.9605 16.6855,64.5425 16.7455,63.8985 Z M16.2405,23.8535 C16.2675,24.1055 15.8745,24.0195 15.9145,24.3985 C16.3195,24.6105 16.6185,23.8145 16.2405,23.8535 Z M23.9015,39.6495 C23.9415,40.0285 23.6895,40.0545 23.4375,40.0805 C24.0625,41.1655 22.9255,41.2845 23.3835,42.0015 C22.8645,41.9285 22.9045,42.3075 22.6655,42.4605 C22.5925,42.9785 22.8445,42.9515 22.8845,43.3315 C22.7845,43.5985 22.2535,43.3985 22.2795,43.6515 C22.7515,44.4955 22.2395,45.6975 21.6345,46.0175 C21.4745,46.9275 21.9935,47.0005 22.1585,47.3665 C21.0095,47.3605 20.9885,48.3835 21.1945,49.1285 C20.6895,49.1815 20.5905,49.4475 20.4905,49.7135 C20.6305,49.8255 20.7705,49.9395 20.7965,50.1915 C19.9975,52.3195 17.6855,54.6045 19.1995,56.8715 C18.9465,56.8985 18.9735,57.1505 18.5815,57.0645 C18.5675,56.9385 18.5415,56.6855 18.5275,56.5595 C16.4205,59.5895 16.1415,64.2175 14.0325,67.2475 C14.2525,68.1185 13.4215,68.7175 14.3325,68.8775 C14.6705,68.4575 14.0535,68.6505 14.1255,68.1315 C14.4655,67.7135 14.9565,67.5335 15.2965,67.1155 C15.1375,65.5985 16.2405,63.9505 16.7125,62.3685 C17.2045,62.1895 16.9185,63.1135 17.4105,62.9345 C17.3565,62.4285 17.5975,62.2765 17.8225,61.9965 C17.7495,62.5145 18.3415,62.0695 18.1755,61.7035 C17.9225,61.7305 17.9485,61.9835 17.8225,61.9965 C17.7565,61.3655 17.7035,60.8605 18.2085,60.8065 C18.4215,60.4025 17.5235,60.3685 17.8765,60.0765 C18.3815,60.0235 18.3095,60.5415 18.8005,60.3625 C19.2525,59.8025 18.3955,60.1495 18.4685,59.6305 C18.8075,59.2115 18.7335,59.7295 19.2385,59.6765 C18.7675,58.8325 18.9535,58.1755 19.0265,57.6565 C19.1665,57.7695 19.2925,57.7565 19.3185,58.0085 C19.3455,58.2615 19.1055,58.4135 19.1455,58.7925 C20.9875,55.6615 21.3805,50.8965 23.2635,48.1445 C22.8305,47.6785 23.0565,47.3995 23.5485,47.2205 C23.6355,46.8285 23.3685,46.7285 23.3295,46.3495 C23.8215,46.1705 23.8955,45.6515 23.7285,45.2855 C24.0945,45.1195 24.0405,44.6145 24.5465,44.5615 C24.4925,44.0565 24.1275,44.2225 23.9615,43.8575 C24.0615,43.5915 24.5925,43.7915 24.5535,43.4125 C24.3865,43.0465 24.0485,43.4655 23.8955,43.2255 C23.8285,42.5945 24.3865,43.0465 24.6395,43.0205 C24.8985,41.8425 24.9455,41.0725 25.2305,40.1485 C24.8395,40.0605 25.0315,40.6805 24.5145,40.6065 C24.4745,40.2275 24.9525,39.9215 24.4345,39.8485 C24.4745,40.2275 23.9295,39.9025 24.0275,39.6355 C24.5605,39.8355 23.9615,39.0045 24.6205,39.1905 C24.5205,39.4565 24.6735,39.6955 24.9125,39.5425 C25.2915,39.5025 24.6935,38.6725 25.3245,38.6055 C25.3645,38.9845 24.9255,39.6685 25.4575,39.8685 C25.3785,39.1105 25.9955,38.9185 25.7645,37.9215 C25.4105,38.2135 25.2715,38.1005 24.9785,37.7485 C26.1035,37.5035 24.6875,37.3955 25.1515,36.9635 C25.6575,36.9095 25.6105,37.6825 26.2425,37.6155 C25.9835,36.3655 27.0935,35.9935 26.8745,35.1235 C26.7225,34.8835 26.3685,35.1765 26.2025,34.8105 C26.3025,34.5435 26.3895,34.1515 26.6285,33.9985 C26.8085,34.4905 26.4295,34.5305 26.5815,34.7715 C27.1005,34.8445 27.3395,34.6915 27.5655,34.4105 C27.3985,34.0455 27.3465,33.5405 27.1675,33.0495 C27.5195,32.7565 27.9515,33.2225 27.8585,32.3385 C27.2275,32.4055 26.8215,32.1915 26.5685,32.2185 C26.5025,31.5865 27.5395,31.7325 27.7525,31.3265 C27.5255,31.6065 27.5925,32.2385 27.9725,32.1985 C28.0315,31.5525 27.9515,30.7955 28.0245,30.2775 C27.7595,30.1775 27.7855,30.4295 27.6595,30.4435 C27.3405,29.8385 27.9985,30.0245 27.9725,29.7725 C27.3265,29.7125 28.3175,28.2025 28.5235,28.9485 C28.3575,28.5815 29.2625,27.4655 28.4645,27.1665 C28.2255,27.3185 28.6965,28.1625 28.0525,28.1035 C28.5175,27.6715 27.5005,26.5015 28.6375,26.3815 C28.5845,25.8755 27.8535,26.2085 28.0255,25.4245 C27.6005,26.2355 26.5495,28.3885 27.7125,28.5215 C27.6135,28.7875 27.6535,29.1665 27.3995,29.1935 C27.2735,29.2065 27.1345,29.0945 26.8815,29.1205 C26.7885,30.6625 26.1375,31.7525 26.0435,33.2945 C25.8175,33.5735 25.4385,33.6135 25.2125,33.8925 C25.1405,34.4115 25.5185,34.3715 25.4325,34.7635 C25.0395,34.6765 25.2195,35.1695 24.9665,35.1955 C25.4115,35.7875 24.5545,36.1325 24.7725,37.0035 C24.6465,37.0165 24.3945,37.0425 24.1425,37.0695 C24.3615,37.9415 23.7295,38.0075 23.7965,38.6395 C23.9485,38.8775 23.9885,39.2565 24.0275,39.6355 L23.9015,39.6495 Z M19.4395,11.7695 C15.7095,18.8015 13.0285,26.1065 10.7345,34.6485 C13.3745,26.9645 16.8065,18.3025 19.4395,11.7695 Z M10.5655,51.2665 C10.5525,51.1405 10.5395,51.0145 10.5255,50.8875 C10.3995,50.9015 10.2725,50.9145 10.1465,50.9275 C10.1595,51.0545 10.1735,51.1805 10.1865,51.3065 C10.3125,51.2935 10.4385,51.2805 10.5655,51.2665 Z M9.3965,45.0055 C9.4235,45.2575 9.4365,45.3845 9.4495,45.5105 C9.8545,45.7225 9.7625,44.8385 9.3965,45.0055 Z M9.5565,46.5205 C9.5425,46.3945 9.5165,46.1415 9.5025,46.0155 L9.2505,46.0415 C9.2635,46.1675 9.2905,46.4205 9.3035,46.5465 C9.3035,46.5465 9.4295,46.5335 9.5565,46.5205 Z M10.8015,35.2795 C10.7875,35.1535 10.6475,35.0405 10.5345,35.1795 C10.0895,37.0145 9.3045,39.2685 9.0985,40.9495 C9.9365,39.2025 10.3685,37.2405 10.8015,35.2795 Z M9.1965,47.9625 C9.1845,47.8365 9.1575,47.5835 8.9175,47.7375 C8.9315,47.8635 8.9575,48.1165 9.0835,48.1025 C9.0835,48.1025 9.0705,47.9755 9.1965,47.9625 Z M9.2535,109.2515 C9.2135,108.8735 9.0615,108.6345 8.9085,108.3945 C9.2465,107.9765 9.6185,109.0855 9.7985,109.5775 C9.5325,109.4775 9.5195,109.3515 9.2535,109.2515 Z M9.1245,41.2015 C8.6325,41.3815 8.6985,42.0135 8.6265,42.5315 C9.2575,42.4655 9.4175,41.5545 9.1245,41.2015 Z M8.9445,43.1365 C8.9325,43.0105 8.9185,42.8845 8.9055,42.7585 C8.7785,42.7715 8.6525,42.7845 8.5265,42.7985 C8.5395,42.9245 8.5535,43.0505 8.5655,43.1765 C8.6925,43.1625 8.8185,43.1495 8.9445,43.1365 Z M8.9805,107.8765 C8.4765,107.9295 8.3105,107.5635 8.2575,107.0575 C8.7625,107.0045 8.8285,107.6375 8.9805,107.8765 Z M8.3935,43.9605 C8.1935,44.4915 7.9945,45.0245 7.9345,45.6695 C8.4255,45.4905 8.8255,44.4255 8.3935,43.9605 Z M7.8745,46.3135 C7.9005,46.5665 7.5095,46.4805 7.5615,46.9855 C7.9535,47.0715 8.2665,46.4005 7.8745,46.3135 Z M7.4135,60.1535 C7.4275,60.2805 7.4395,60.4065 7.4535,60.5325 C7.9845,60.7325 7.8925,59.8485 7.4135,60.1535 Z M7.8255,61.6435 C7.8115,61.5175 7.7995,61.3905 7.7855,61.2645 C7.6595,61.2785 7.5325,61.2915 7.4055,61.3045 C7.4195,61.4305 7.4335,61.5575 7.4455,61.6835 C7.5725,61.6705 7.6985,61.6565 7.8255,61.6435 Z M7.4885,47.5045 C7.2625,47.7825 7.4545,48.4015 7.9465,48.2225 C7.7945,47.9825 7.9795,47.3245 7.4885,47.5045 Z M24.6185,6.3715 C24.5315,6.7645 25.0235,6.5855 25.0635,6.9645 C24.2325,7.5615 24.2395,8.8385 23.2695,9.3235 C23.3685,9.0575 23.3545,8.9315 23.0895,8.8325 C22.6375,9.3905 22.4375,9.9215 22.1245,10.5935 C22.3045,11.0845 22.6775,9.7695 22.8695,10.3865 C22.1185,11.7435 21.1075,14.2755 19.9835,14.5215 C20.8885,15.8305 19.1125,17.1665 18.8535,18.3435 C18.7795,18.8615 19.5115,18.5305 19.4515,19.1755 C19.0725,19.2145 18.8195,19.2415 18.7075,19.3805 C18.6205,19.7725 18.8725,19.7465 19.0135,19.8595 C18.7605,19.8855 18.7865,20.1385 18.3955,20.0525 C19.2585,20.9825 17.0315,22.8775 18.3995,23.7545 C18.0345,23.9205 17.9615,24.4385 17.3305,24.5045 C17.2435,24.8975 17.7355,24.7185 17.7625,24.9715 C16.5325,29.0595 14.6435,32.9605 14.2105,37.3475 C12.7335,40.3125 13.3315,43.5695 11.0455,46.1085 C10.9715,46.6265 11.8295,46.2815 11.8685,46.6595 C11.4825,47.8505 11.6825,49.7445 10.7785,50.8615 C10.9905,52.8825 9.9675,55.2875 9.9395,57.4625 C9.8405,57.7275 9.1825,57.5415 9.2085,57.7935 C9.9795,57.8415 9.7865,59.6495 8.8895,59.6155 C9.2405,61.7495 9.0945,65.2125 7.7645,67.1405 C8.6025,67.8185 7.9235,68.6565 8.3955,69.5015 C7.4985,69.4675 7.8965,70.8305 7.5975,71.6265 C8.1155,71.7005 7.7435,70.5905 8.1765,71.0555 C7.8235,73.7745 6.9985,78.0755 7.1645,80.8675 C14.6045,65.3995 19.3075,48.1765 24.6745,32.4175 C26.0245,24.6135 28.4655,17.4605 28.4275,9.8025 C29.1655,8.3215 28.2945,6.1145 28.3485,4.1925 C26.8795,3.5805 25.7285,6.0005 25.1775,6.8235 C24.9105,6.7245 24.9835,6.2065 24.6185,6.3715 Z M7.3425,48.5405 C7.1825,49.4505 6.7965,50.6415 6.5505,51.9445 C7.2415,51.2335 7.6475,49.0195 7.3425,48.5405 Z M6.8695,52.5485 C6.7165,52.3105 6.8165,52.0435 6.4365,52.0835 C6.4505,52.2095 6.4635,52.3365 6.4775,52.4625 C6.6035,52.4495 6.7425,52.5625 6.8695,52.5485 Z M6.3915,52.8545 C6.4575,53.4865 5.7785,54.3235 6.0985,54.9285 C6.1575,54.2845 7.1885,53.1555 6.3915,52.8545 Z M6.1645,55.5605 C5.6455,55.4865 5.8395,56.1055 5.7385,56.3715 C6.1175,56.3315 6.2035,55.9405 6.1645,55.5605 Z M5.9115,58.0125 C5.6585,58.0395 5.6325,57.7875 5.3935,57.9395 C5.5855,58.5575 4.7805,59.4085 5.4385,59.5955 C5.4995,58.9505 5.8515,58.6585 5.9115,58.0125 Z M5.2595,61.5305 C5.2455,61.4045 5.2195,61.1505 5.2065,61.0245 C5.2065,61.0245 5.0795,61.0375 4.9535,61.0505 C4.9675,61.1765 4.9935,61.4305 5.0075,61.5565 L5.2595,61.5305 Z M3.9775,102.7835 C3.7505,103.0625 3.7765,103.3155 4.1695,103.4015 C4.1435,103.1485 4.2285,102.7575 3.9775,102.7835 Z M3.2905,71.9525 C3.4695,72.4435 2.9905,72.7505 3.6365,72.8105 C3.7485,72.6715 3.9075,71.7605 3.2905,71.9525 Z M3.6755,73.1895 C3.6755,73.1895 3.6625,73.0635 3.6485,72.9365 C3.5225,72.9495 3.3965,72.9635 3.2705,72.9765 C3.2835,73.1035 3.2965,73.2295 3.2965,73.2295 C3.4235,73.2165 3.5495,73.2025 3.6755,73.1895 Z M2.5885,98.0775 C2.3615,98.3555 2.9065,98.6815 2.8665,98.3025 C2.7405,98.3165 2.7145,98.0645 2.5885,98.0775 Z M2.5485,97.6985 C2.9535,97.9105 2.8735,97.1535 2.6345,97.3065 C2.6935,96.6595 2.1155,97.2335 2.6345,97.3065 C2.6615,97.5585 2.5345,97.5715 2.5485,97.6985 Z M1.5635,100.4835 C1.5635,100.4835 1.5765,100.6095 1.5905,100.7355 C1.4645,100.7485 1.4645,100.7485 1.3375,100.7615 C1.3245,100.6355 1.3115,100.5105 1.3115,100.5105 C1.4375,100.4965 1.4375,100.4965 1.5635,100.4835 Z M9.4455,109.8695 C9.6985,109.8435 9.6855,109.7175 9.7985,109.5775 C10.1905,109.6645 10.3705,110.1565 10.7755,110.3695 C17.0585,108.1765 20.5485,103.7235 24.6105,99.8485 C30.3545,93.7525 35.9725,87.6715 41.4375,81.3505 C41.5645,81.3375 41.8165,81.3115 42.0695,81.2845 C42.4625,81.3705 41.9895,80.5265 42.5085,80.6005 C41.9495,82.5745 39.2435,84.7735 38.9515,86.8485 C37.5485,86.8685 35.7935,89.6065 35.1545,90.8225 C35.0685,91.2155 34.7495,90.6095 34.6225,90.6225 C34.6495,90.8755 34.6765,91.1295 34.7025,91.3815 C34.0445,91.1965 33.5655,91.5005 33.5065,92.1465 C32.7745,92.4775 31.9705,93.3285 32.1495,93.8205 C31.6575,93.9995 30.8135,94.4715 30.5145,95.2695 C30.9065,95.3555 31.0525,94.3195 31.2595,95.0635 C31.0325,95.3425 30.7935,95.4955 30.2885,95.5495 C30.2625,95.2965 30.1615,95.5625 30.2885,95.5495 C30.5075,96.4195 29.3915,95.5145 29.8755,96.4865 C29.5105,96.6515 29.3705,96.5385 29.2305,96.4255 C29.1975,97.3235 27.5095,98.2665 27.6145,99.2765 C27.4765,99.1635 27.3625,99.3035 27.3365,99.0515 C27.4765,99.1635 27.4625,99.0375 27.4495,98.9105 C27.3225,98.9245 27.3365,99.0515 27.3365,99.0515 C26.6585,99.8875 25.9535,100.4745 25.4015,101.2975 C25.8595,102.0155 25.9535,100.4745 26.7775,101.0255 C26.7975,100.0025 28.4065,98.3005 29.5825,98.5595 C29.0585,99.6355 27.9605,100.1355 27.4355,101.2125 C28.9845,100.1555 29.9615,98.5195 31.5115,97.4635 C29.6435,100.3415 26.5305,102.3275 24.6625,105.2055 C25.0815,105.5455 25.7725,104.8335 25.8595,104.4415 C26.2655,104.6545 25.8795,105.8455 25.4475,105.3795 C25.3605,105.7715 25.4005,106.1505 25.7795,106.1105 C23.0535,109.3345 19.3305,112.7905 14.5705,113.6735 C7.6315,113.2545 2.7385,108.0215 1.6635,100.2175 C1.7495,99.8235 1.3845,99.9915 1.2315,99.7515 C1.7305,95.9965 2.0175,92.6455 0.5215,89.3555 C2.6835,86.8295 1.7265,82.5885 2.4175,79.4505 C2.8235,79.6625 2.3715,80.2205 2.5505,80.7145 C3.0025,80.1545 2.9705,78.6265 2.3115,78.4405 C3.9895,60.3865 7.4885,42.6515 12.0325,26.3395 C15.8425,17.6385 18.9755,7.3485 25.9425,0.7415 C34.4715,0.4835 34.3495,11.4785 32.8125,17.5135 C33.1975,21.1775 32.3075,24.8465 31.0965,27.9105 C27.9365,42.8015 23.5475,54.4995 19.0445,68.7645 C18.8185,69.0435 18.5935,69.3235 18.2405,69.6145 C18.2805,69.9935 18.5465,70.0935 18.4735,70.6125 C15.0815,77.2265 13.5585,85.8145 7.5675,90.7845 C6.5775,92.2945 7.1885,95.6775 6.4365,97.0335 C7.3135,100.5165 6.2295,105.9945 9.2535,109.2515 C9.2795,109.5045 9.4195,109.6165 9.4455,109.8695 Z" id="Fill-10" fill="#D4535E" mask="url(#mask-4)"></path>
                </g>
            </g>
        </g>
    </g>
</svg>