<?xml version="1.0" encoding="UTF-8"?>
<svg width="184px" height="121px" viewBox="0 0 184 121" version="1.1" xmlns="http://www.w3.org/2000/svg" xmlns:xlink="http://www.w3.org/1999/xlink">
    <!-- Generator: Sketch 51.3 (57544) - http://www.bohemiancoding.com/sketch -->
    <title>index_word_Works</title>
    <desc>Created with Sketch.</desc>
    <defs>
        <polygon id="path-1" points="0 0.518737528 69.2683 0.518737528 69.2683 106 0 106"></polygon>
        <polygon id="path-3" points="0.883835401 0.951 46.4499469 0.951 46.4499469 105.5592 0.883835401 105.5592"></polygon>
    </defs>
    <g id="Page-1" stroke="none" stroke-width="1" fill="none" fill-rule="evenodd">
        <g id="A4" transform="translate(-307.000000, -306.000000)">
            <g id="index_word_Works" transform="translate(307.000000, 305.000000)">
                <g id="Group-3" transform="translate(0.000000, 16.049000)">
                    <mask id="mask-2" fill="white">
                        <use xlink:href="#path-1"></use>
                    </mask>
                    <g id="Clip-2"></g>
                    <path d="M65.2823,3.9415 C65.5933,3.7995 65.0113,3.4265 65.2823,3.9415 C65.0673,3.9635 65.2933,4.0485 65.2823,3.9415 Z M64.7963,5.5125 C64.7723,5.2975 65.1693,4.9305 64.8353,4.8575 C64.8693,5.1795 64.4173,5.0095 64.4513,5.3325 C64.6663,5.3095 64.5813,5.5355 64.7963,5.5125 Z M62.8033,23.7495 C62.7913,23.6415 63.0073,23.6195 62.9953,23.5115 C62.8993,23.6305 62.7803,23.5345 62.8033,23.7495 Z M62.8953,12.2295 C62.8843,12.1215 62.9793,12.0025 62.9573,11.7875 C63.0533,11.6695 63.1613,11.6585 63.4833,11.6245 C62.9403,10.5945 63.6243,9.8715 63.8563,8.9775 C63.8683,9.0865 63.9873,9.1815 64.1053,9.2775 C63.5293,7.9255 64.2363,7.4185 64.0273,6.4625 C63.4613,7.2825 63.7893,8.3345 63.4383,9.1305 C63.3533,9.3565 63.0433,9.4985 62.9583,9.7245 C62.9803,9.9385 63.2293,10.2385 63.1443,10.4635 C63.0823,10.9055 62.3863,11.5215 62.9573,11.7875 C62.6123,11.6065 62.5733,12.2625 62.8953,12.2295 Z M62.5003,14.6595 C62.4763,14.4445 62.7023,14.5295 62.6793,14.3145 C63.0133,14.3875 62.6293,14.8625 62.5003,14.6595 Z M62.2343,9.0405 C62.2003,8.7175 62.3073,8.7075 62.2853,8.4925 C62.7153,8.4465 62.6753,9.1015 62.2343,9.0405 Z M62.1093,16.1115 C62.0753,15.7905 62.1723,15.6705 62.2663,15.5515 C62.2903,15.7675 62.3013,15.8755 62.3233,16.0885 C62.2173,16.0995 62.1203,16.2195 62.1093,16.1115 Z M61.6753,10.9445 C61.6523,10.7305 61.7483,10.6115 62.0703,10.5775 C61.9853,10.8025 61.8883,10.9215 61.6753,10.9445 Z M61.9233,11.2455 C61.8273,11.3635 61.9793,11.7825 61.6463,11.7085 C61.6353,11.6005 61.6243,11.4935 61.6013,11.2795 C61.7093,11.2675 61.8153,11.2565 61.9233,11.2455 Z M61.4923,19.5445 C61.5143,19.7575 61.6443,19.9615 61.4413,20.0915 C61.4193,19.8775 61.3853,19.5545 61.4923,19.5445 Z M61.4663,7.9255 C61.6183,8.3445 61.1663,8.1735 61.3193,8.5935 C61.6523,8.6665 61.8003,8.0005 61.4663,7.9255 Z M61.2543,27.6045 C61.4573,27.4735 61.5193,27.0345 61.1853,26.9595 C61.2083,27.1735 61.2313,27.3895 61.2543,27.6045 C60.8463,27.8655 61.4403,28.3455 61.2543,27.6045 Z M61.2783,11.3125 C61.3013,11.5265 61.1723,11.3245 61.0643,11.3355 C61.0533,11.2265 61.2663,11.2045 61.2783,11.3125 Z M61.0693,10.3565 C61.0813,10.4635 60.9733,10.4745 60.8663,10.4865 C60.8543,10.3785 60.9623,10.3675 61.0693,10.3565 Z M60.6713,31.3575 C61.0153,31.5395 61.0543,30.8835 60.7323,30.9185 C60.7443,31.0245 60.7563,31.1315 60.6483,31.1425 C60.6483,31.1425 60.6593,31.2505 60.6713,31.3575 Z M60.7983,13.9685 C60.2383,13.8105 61.0073,12.8615 60.9503,12.3245 C61.3913,12.3865 60.7533,13.5405 60.7983,13.9685 Z M60.6093,25.6085 C60.1683,25.5465 60.4453,25.0825 60.5303,24.8575 C60.8643,24.9305 60.5873,25.3935 60.6093,25.6085 Z M60.5773,17.0335 C60.5883,17.1405 60.5993,17.2485 60.5993,17.2485 C60.5993,17.2485 60.4923,17.2595 60.3843,17.2705 C60.3843,17.2705 60.3733,17.1635 60.3613,17.0555 C60.4703,17.0455 60.5773,17.0335 60.5773,17.0335 Z M60.3143,29.0055 C60.4223,28.9945 60.5293,28.9835 60.5183,28.8765 C60.4113,28.8865 60.3033,28.8985 60.3143,29.0055 Z M60.5153,11.2835 C60.3743,10.9725 60.3513,10.7575 60.4253,10.4235 C61.1033,10.6785 60.6793,11.8095 60.2613,11.9625 C60.1083,11.5445 60.3113,11.4145 60.5153,11.2835 Z M60.1413,15.9935 C60.2153,15.6595 60.0523,15.1335 60.2443,14.8965 C60.5883,15.0775 60.4413,15.7435 60.1413,15.9935 Z M60.4353,18.7855 C60.2093,18.7005 60.2943,18.4735 60.0793,18.4965 C60.1753,18.3795 60.3893,18.3565 60.3793,18.2485 C60.7123,18.3225 60.2943,18.4735 60.4353,18.7855 Z M60.1143,12.6295 C59.7803,12.5565 60.0573,12.0915 60.2613,11.9625 C60.4133,12.3795 60.0803,12.3065 60.1143,12.6295 Z M60.0093,30.2325 C60.1393,30.4375 59.9353,30.5665 59.9583,30.7815 C60.3873,30.7365 60.4383,30.1875 60.0093,30.2325 Z M60.5493,13.6695 C60.3113,13.4775 59.9893,13.5105 59.9553,13.1885 C60.2783,13.1555 60.5143,13.3465 60.5493,13.6695 Z M60.1473,17.0785 C60.1583,17.1855 60.1703,17.2935 60.1703,17.2935 C60.0623,17.3045 59.9663,17.4215 59.9773,17.5305 C59.9773,17.5305 59.8693,17.5425 59.7623,17.5535 C59.7513,17.4455 59.7403,17.3385 59.7283,17.2315 C59.8363,17.2195 59.8363,17.2195 59.8243,17.1125 C59.9323,17.1005 60.0403,17.0895 60.1473,17.0785 Z M60.1533,14.0375 C60.0343,13.9405 59.8083,13.8555 59.8313,14.0705 C59.3893,14.0085 59.9043,13.7375 59.8933,13.6305 C60.0003,13.6195 60.1313,13.8225 60.1533,14.0375 Z M59.6663,15.6085 C59.4523,15.6305 59.6103,15.0715 59.4923,14.9755 C59.8143,14.9415 59.8593,15.3715 59.6663,15.6085 Z M59.4423,37.2425 C59.4653,37.4585 59.4883,37.6725 59.5113,37.8865 C59.9633,38.0565 59.8493,36.9825 59.4423,37.2425 Z M59.4213,30.8375 C59.5403,30.9335 59.6473,30.9215 59.6363,30.8145 C59.5293,30.8265 59.5293,30.8265 59.4213,30.8375 Z M59.8023,16.8965 C59.7283,17.2315 59.4573,16.7165 59.2423,16.7395 C59.2203,16.5245 59.6613,16.5875 59.6383,16.3715 C60.0683,16.3255 59.4803,16.9305 59.8023,16.8965 Z M59.3323,23.7885 C59.1053,23.7035 59.3093,23.5735 59.2983,23.4655 C59.5123,23.4435 59.4283,23.6705 59.3323,23.7885 Z M59.1973,16.3095 C59.1523,15.8795 59.8923,15.6935 59.8423,16.2415 C59.6273,16.2645 59.4123,16.2875 59.1973,16.3095 Z M59.1303,17.7285 C59.1183,17.6215 59.1063,17.5125 59.0953,17.4065 C59.2143,17.5015 59.2033,17.3945 59.1913,17.2875 C59.4063,17.2645 59.4743,17.9095 59.1303,17.7285 Z M58.9703,26.5425 C58.8733,26.6595 58.7553,26.5645 58.7773,26.7795 C58.8733,26.6595 58.9803,26.6485 58.9703,26.5425 Z M58.8913,19.5995 C58.8063,19.8265 59.5183,20.4015 58.8743,20.4695 C59.0443,20.0175 58.7113,19.9435 58.6543,19.4065 C58.7173,18.9655 59.0053,18.6095 59.4233,18.4585 C59.0273,18.8245 59.4283,19.5435 58.8913,19.5995 Z M58.7023,39.4925 C58.6053,39.6115 58.4593,40.2785 58.7803,40.2445 C58.7473,39.9225 58.9513,39.7925 58.7023,39.4925 Z M58.6363,24.4045 C58.2693,24.0085 58.7503,23.4155 58.8123,22.9735 C59.3603,23.0255 58.7103,24.0715 58.6363,24.4045 Z M58.5963,25.0605 C58.5123,25.2855 58.4893,25.0715 58.3823,25.0835 C58.3593,24.8685 58.5853,24.9535 58.5963,25.0605 Z M58.3003,42.9015 C58.0013,43.1505 58.0793,43.9025 58.4643,43.4265 C58.0463,43.5805 58.7413,42.9635 58.3003,42.9015 Z M58.2523,26.9415 C57.7653,26.4505 58.4723,25.9425 58.1043,25.5455 C58.7263,25.2625 58.3033,26.3935 58.2523,26.9415 Z M58.0283,48.5775 C58.1363,48.5665 58.3503,48.5445 58.3393,48.4355 C58.2313,48.4465 58.0163,48.4685 58.0283,48.5775 Z M57.8343,25.0325 C57.6653,23.4205 58.2193,22.4935 58.2983,21.1815 C58.6203,21.1475 58.5473,21.4825 58.8573,21.3395 C58.1113,22.5045 58.4953,24.0935 57.8343,25.0325 Z M57.8153,34.1565 C57.7933,33.9405 57.6743,33.8445 57.5553,33.7495 C57.5783,33.9625 57.6963,34.0595 57.8153,34.1565 Z M57.4943,25.9355 C57.4613,25.6145 57.5463,25.3865 57.8683,25.3535 C57.9013,25.6755 57.8163,25.9015 57.4943,25.9355 Z M57.6913,30.9115 C57.4663,30.8265 57.5513,30.5995 57.4203,30.3965 C57.7423,30.3625 57.7763,30.6855 57.6913,30.9115 Z M57.8503,26.2235 C57.6803,26.6765 57.8553,27.3095 57.5673,27.6665 C57.0823,27.1745 57.4663,26.6995 57.4213,26.2685 C57.5283,26.2575 57.6363,26.2465 57.8503,26.2235 Z M57.9343,30.1265 L57.2903,30.1935 C57.3863,30.0745 57.3753,29.9665 57.3523,29.7525 C57.4713,29.8475 57.5783,29.8375 57.7943,29.8135 C57.7823,29.7065 57.7823,29.7065 57.7713,29.5995 C57.9863,29.5775 57.9123,29.9105 57.9343,30.1265 Z M57.1533,35.0935 C57.0463,35.1045 57.0113,34.7835 56.9893,34.5675 C57.4083,34.4165 57.2503,34.9755 57.1533,35.0935 Z M57.2893,38.4475 C57.1193,38.8985 56.8483,38.3835 56.9323,38.1575 C57.1473,38.1345 57.0743,38.4695 57.2893,38.4475 Z M57.1473,36.0725 C57.0743,36.4055 56.7193,36.1175 56.8993,35.7725 C57.0073,35.7615 56.9333,36.0945 57.1473,36.0725 Z M56.9143,53.4725 C56.6873,53.3875 56.7663,54.1385 56.9703,54.0095 C57.1623,53.7715 56.9593,53.9025 56.9143,53.4725 C57.0323,53.5675 57.0203,53.4615 57.0103,53.3535 C57.1053,53.2345 57.3603,52.5565 57.0263,52.4825 C56.8353,52.7205 56.7613,53.0525 57.0103,53.3535 C56.9023,53.3655 56.9143,53.4725 56.9143,53.4725 Z M57.0103,55.4165 C57.0103,55.4165 56.9983,55.3095 56.9873,55.2015 C56.8793,55.2125 56.7713,55.2235 56.6643,55.2355 C56.6763,55.3435 56.6863,55.4505 56.6863,55.4505 C56.7943,55.4385 56.9013,55.4275 57.0103,55.4165 Z M56.3473,58.4185 L56.2403,58.4295 C56.2973,58.9665 55.9123,59.4415 56.3863,59.8265 C56.4373,59.2775 56.6183,58.9325 56.3473,58.4185 C56.4543,58.4075 56.4433,58.2995 56.4433,58.2995 C56.5393,58.1805 56.8173,57.7175 56.6023,57.7405 C56.5063,57.8585 56.4093,57.9775 56.4433,58.2995 C56.3253,58.2035 56.3363,58.3105 56.3473,58.4185 Z M56.0953,40.5265 C56.0953,40.5265 56.0843,40.4195 56.0733,40.3115 C56.1803,40.2995 56.1693,40.1935 56.1693,40.1935 C56.3733,40.0625 56.4403,40.7075 56.0953,40.5265 Z M57.2343,29.6565 C56.9793,30.3345 57.0243,30.7645 57.3183,31.4935 C57.2113,31.5035 57.1033,31.5155 56.8883,31.5385 C57.1373,31.8385 57.0303,31.8495 56.8483,32.1945 C56.9683,32.2905 57.3453,32.7935 57.2893,32.2555 C57.8603,32.5225 56.9173,32.8385 56.7753,32.5275 C56.7023,32.8615 56.7133,32.9685 56.6623,33.5155 C56.6743,33.6245 56.8773,33.4935 56.8993,33.7095 C57.1033,33.5795 56.9503,33.1615 57.3903,33.2225 C57.3183,33.5565 57.1143,33.6865 57.1713,34.2235 C57.0523,34.1285 57.0413,34.0195 56.9103,33.8165 C56.5043,34.0755 56.7753,34.5895 56.4533,34.6245 C57.0173,35.8695 56.4523,36.6885 55.9213,37.8305 C55.7803,35.4565 56.6563,32.4315 56.9003,29.5825 C56.9963,29.4625 57.1273,29.6685 57.2343,29.6565 Z M56.6443,38.5145 C56.0623,38.1405 55.9033,38.7005 55.7343,39.1535 C54.9883,38.2535 56.8983,37.8355 56.6783,36.7725 C57.2373,36.9305 56.5883,37.9775 56.6443,38.5145 Z M55.5743,50.0295 C55.2523,50.0625 55.5283,49.5995 55.5173,49.4925 C55.9593,49.5545 55.4323,49.7175 55.5743,50.0295 Z M55.4183,40.2725 C55.2643,39.8535 55.5873,39.8195 55.4463,39.5085 C55.5533,39.4975 55.6723,39.5935 55.7793,39.5825 C55.9943,39.5595 55.8643,39.3555 55.9603,39.2375 C56.5313,39.5035 55.7283,40.1305 55.4183,40.2725 Z M55.1503,49.0955 C55.0433,49.1075 54.9243,49.0115 55.1393,48.9885 L55.1503,49.0955 Z M55.3053,67.1065 C54.7583,67.0555 54.9323,67.6895 55.2663,67.7625 C55.1253,67.4525 55.4473,67.4185 55.3053,67.1065 Z M55.0653,51.3855 C55.0993,51.7085 54.7433,51.4205 54.8163,51.0865 C54.9353,51.1825 54.9583,51.3975 55.0653,51.3855 Z M54.3013,57.5465 C53.9563,57.3665 54.4603,56.9885 54.2113,56.6885 C54.5333,56.6555 54.3973,57.4285 54.3013,57.5465 Z M59.3073,35.9535 C58.7593,35.9035 58.8033,36.3335 58.9563,36.7505 C58.3353,37.0345 59.0763,36.8465 59.0243,37.3945 C58.8093,37.4175 58.8323,37.6315 58.6173,37.6545 C58.5393,36.9025 58.3463,35.0775 59.5623,35.2755 C59.3023,34.8675 60.0203,34.4665 59.5563,34.1905 C59.4833,34.5235 59.1723,34.6655 58.8493,34.6995 C59.0303,34.3525 58.9733,33.8155 59.2743,33.5685 C59.4883,33.5455 59.5223,33.8685 59.7493,33.9535 C59.5733,33.3195 59.9693,32.9525 59.5163,32.7825 C59.4213,32.9015 59.3823,33.5565 59.2403,33.2455 C59.0533,32.5045 59.3423,32.1495 59.7493,31.8885 C59.7043,31.4595 59.3923,31.6015 59.3703,31.3855 C60.0493,31.6405 60.0203,30.3395 59.6363,30.8145 C59.2573,30.3115 59.7383,29.7175 60.2533,29.4475 C59.6703,29.0735 59.7383,27.6545 60.4623,28.3385 C60.4733,28.4475 59.7323,28.6335 60.1843,28.8035 C60.1623,28.5885 60.6033,28.6495 60.6993,28.5325 C60.6423,27.9955 60.6943,27.4465 60.7563,27.0045 C60.5413,27.0275 60.3263,27.0495 60.1963,26.8465 C60.3883,26.6095 60.9703,26.9815 60.9033,26.3375 C60.6883,26.3615 60.1743,26.6315 60.1393,26.3095 C60.4623,26.2765 60.4283,25.9535 60.6433,25.9305 C60.7503,25.9195 60.7723,26.1335 60.8813,26.1225 C61.2423,25.4335 60.9823,25.0255 60.5923,24.4165 C60.7963,24.2865 60.6213,23.6525 61.0613,23.7145 C60.5533,23.0075 61.1303,22.2955 61.4183,21.9395 C61.4283,22.0465 61.4523,22.2615 61.5593,22.2515 C61.6333,21.9175 61.5993,21.5945 61.6843,21.3695 C61.4473,21.1775 61.2883,21.7365 61.2543,21.4145 C61.1753,20.6635 61.5543,21.1665 61.6163,20.7245 C61.2823,20.6515 61.1413,20.3395 61.4413,20.0915 C61.4643,20.3055 61.4863,20.5205 61.8193,20.5955 C61.8713,20.0465 62.0413,19.5935 62.0913,19.0455 C61.9953,19.1645 61.8773,19.0675 61.8653,18.9615 C62.0683,18.8305 61.8543,18.8525 61.8653,18.9615 C61.7583,18.9725 61.3853,19.5545 61.2323,19.1355 C61.7583,18.9725 61.5823,18.3385 62.3463,18.3685 C62.3863,17.7115 61.8323,18.6375 61.6783,18.2205 C61.8383,17.6615 61.7923,17.2305 62.1773,16.7565 C62.2733,16.6365 62.1543,16.5425 62.1773,16.7565 C62.0693,16.7675 62.0473,16.5525 62.0353,16.4455 C62.3693,16.5195 62.4653,16.4005 62.3233,16.0885 L62.4303,16.0775 C62.9453,15.8065 62.0803,16.8755 62.5213,16.9375 C62.7033,16.5915 62.7423,15.9365 62.8033,15.4955 C62.5783,15.4115 62.2563,15.4455 62.2213,15.1235 C62.5453,15.0885 62.7483,14.9585 62.9513,14.8295 C62.8843,14.1845 63.3023,14.0315 63.2343,13.3865 C62.7933,13.3265 63.0763,13.9475 62.6243,13.7775 C62.4483,13.1435 62.9853,13.0875 62.6913,12.3585 C61.6743,15.0705 60.7913,19.0745 60.7973,22.2225 C59.0433,28.2705 58.7533,34.8175 57.7243,39.4875 C58.1923,40.8485 56.9433,42.3925 57.2543,44.3145 C56.8183,45.3375 57.0503,46.5075 56.5923,47.3165 C56.5923,49.3795 56.5353,50.9055 56.0493,52.4775 C55.7993,58.3675 54.7413,63.8005 54.1353,69.4025 C54.7623,68.1415 54.9273,66.6035 55.0463,64.6365 C55.5833,64.5815 55.5603,64.3655 55.0863,63.9805 C55.8383,61.8385 55.5223,58.8315 56.2623,56.5815 C55.9013,55.2085 57.0433,53.6755 56.4103,51.7875 C57.0443,51.6125 56.6323,50.7875 56.9303,50.5385 C57.4453,50.2665 57.0843,50.9565 57.3943,50.8155 C57.4233,50.0515 57.6213,48.8375 57.6943,48.5035 C56.7163,48.4975 57.5193,49.9335 56.7783,50.1205 C56.9933,48.0335 57.5873,46.4515 57.5373,44.9355 C57.7403,44.8065 58.1803,44.8685 58.2653,44.6415 C58.2433,44.4275 58.4133,43.9755 58.0913,44.0095 C58.1253,44.3315 57.6613,44.0545 57.7573,43.9355 C57.9723,41.8495 58.2213,40.0865 58.5543,38.0965 C58.6743,38.1915 58.7933,38.2895 58.9003,38.2775 C59.0583,37.7175 59.3353,37.2535 58.9563,36.7505 C59.6013,36.6825 58.9003,36.2125 59.3073,35.9535 Z M54.1543,58.2145 C54.1323,58.0005 54.1083,57.7865 54.2053,57.6665 C54.3233,57.7625 54.3233,57.7625 54.3463,57.9765 C54.2393,57.9885 54.2613,58.2035 54.1543,58.2145 Z M53.5413,75.1115 C53.6473,75.0995 53.8633,75.0775 53.8513,74.9695 C53.7443,74.9815 53.5293,75.0045 53.5413,75.1115 Z M54.0793,70.9285 C53.4853,72.5115 53.2593,74.4895 52.9133,76.3735 C53.7333,74.8745 54.0213,72.4555 54.0793,70.9285 Z M52.8023,64.9805 C52.3723,65.0255 52.4063,65.3475 52.4283,65.5625 C52.7513,65.5295 52.7283,65.3145 52.8023,64.9805 Z M55.6553,42.5275 C55.6783,42.7425 55.7623,42.5165 55.7513,42.4095 C55.8583,42.3975 55.8463,42.2905 56.0613,42.2675 C55.9993,42.7095 55.8073,42.9465 55.3883,43.0985 C55.7953,44.9015 55.0153,45.7435 55.2463,46.9155 C54.6363,49.3675 54.7153,52.1815 54.1823,55.3885 C54.2053,55.6035 54.4203,55.5815 54.5393,55.6755 C53.9623,56.3885 53.7983,57.9255 53.8263,59.2265 C54.2443,59.0745 53.7583,58.5825 54.1543,58.2145 C54.5103,58.5035 53.8483,59.4415 54.1933,59.6225 C54.0233,60.0745 53.7523,59.5595 53.6783,59.8935 C53.5943,60.1195 53.8083,60.0965 53.9283,60.1935 C53.6843,63.0435 52.7403,65.4225 52.4853,68.1645 C52.1173,65.7055 52.3273,62.5335 53.3283,60.6905 C52.8763,60.5205 53.2653,61.1305 52.8133,60.9625 C53.1773,58.2095 53.6113,55.1235 53.7933,52.7135 C54.0083,52.6915 54.0193,52.7975 54.2343,52.7755 C54.2113,52.5615 54.0933,52.4655 53.7703,52.4995 C53.7033,51.8545 54.3923,52.2155 54.4553,51.7765 C54.4093,51.3465 54.1433,51.9175 54.0023,51.6065 C54.1613,51.0465 53.9403,49.9835 54.6583,49.5825 C54.2123,48.4355 54.3373,47.5535 55.0203,46.8295 C54.8453,46.1965 54.6133,47.0885 54.4723,46.7795 C54.5623,45.5745 55.0203,44.7665 55.3493,43.7545 C55.3383,43.6475 55.1233,43.6705 54.9083,43.6925 C54.8913,42.4995 55.1463,41.8215 55.2143,40.4015 C56.2153,40.6225 55.5533,41.5605 55.7513,42.4095 C55.6433,42.4205 55.6553,42.5275 55.6553,42.5275 Z M51.9073,79.1925 C52.3193,80.0185 51.3973,80.5495 51.6183,81.6115 C52.4273,80.0065 52.9013,78.3285 52.8173,76.4905 C52.3133,76.8695 52.8333,77.6835 52.3073,77.8475 C52.4493,78.1585 52.2403,79.2665 51.9073,79.1925 Z M51.4483,82.0645 C51.3743,82.3985 51.0753,82.6475 51.5153,82.7085 C51.5153,82.7085 51.7813,82.1375 51.4483,82.0645 Z M50.4473,79.7805 C50.4593,79.8865 50.2333,79.8025 50.1363,79.9215 C50.1253,79.8145 50.3413,79.7925 50.4473,79.7805 Z M52.5643,68.9165 C51.8503,72.4655 51.1043,75.6935 50.6063,79.2205 C49.8933,78.6445 50.4363,79.6725 49.9113,79.8375 C49.6343,78.2375 50.8613,76.4785 50.7033,74.9755 C51.4773,75.1115 51.4043,73.3805 51.1893,73.4035 C50.8503,72.2455 51.8293,70.1875 51.5633,68.6955 C51.8743,68.5535 52.0663,68.3165 52.4853,68.1645 C52.5183,68.4865 52.5413,68.7015 52.5643,68.9165 Z M49.8593,82.4485 C49.7523,82.4595 49.7623,82.5675 49.7743,82.6735 C49.3223,82.5045 49.9223,82.0075 49.6613,81.5995 L49.7683,81.5885 C49.8033,81.9125 49.8253,82.1265 49.8593,82.4485 Z M49.6673,80.6235 C49.4303,80.4305 49.4693,79.7745 49.9113,79.8375 C49.9453,80.1595 49.7413,80.2895 49.6673,80.6235 Z M49.2553,83.9245 C49.0063,83.6245 49.3893,83.1505 49.5713,82.8055 C49.9163,82.9855 49.2943,83.2675 49.5653,83.7825 C49.4583,83.7945 49.3613,83.9135 49.2553,83.9245 Z M49.2033,84.4725 C49.2153,84.5795 49.0113,84.7095 49.1413,84.9135 C49.5823,84.9765 49.4283,84.5565 49.2033,84.4725 Z M48.5473,88.5595 C48.4513,88.6775 48.1623,89.0345 48.6033,89.0965 C48.7113,89.0855 48.8243,88.0955 48.5473,88.5595 Z M39.9073,65.2505 C40.0043,65.1315 39.8853,65.0355 39.9073,65.2505 C39.6923,65.2725 39.9183,65.3585 39.9073,65.2505 Z M39.2423,56.8505 C39.4443,56.7195 39.3143,56.5155 39.2083,56.5275 C39.2193,56.6355 39.2303,56.7425 39.2423,56.8505 Z M39.6313,61.5875 C39.8053,60.1575 39.6813,58.9755 39.6543,57.6755 C39.5693,57.9015 39.2593,58.0435 39.1733,58.2695 C39.6083,59.3095 39.1113,60.7735 39.6313,61.5875 Z M39.3153,54.4535 C38.8973,54.6055 39.0843,55.3465 39.4793,54.9795 C39.0383,54.9165 39.7453,54.4085 39.3153,54.4535 Z M39.3343,77.3645 C38.6893,77.4325 39.0863,77.0655 39.0403,76.6355 C39.4593,76.4825 39.2043,77.1615 39.3343,77.3645 Z M39.6843,80.6945 C39.0683,79.9985 39.2893,78.9995 38.9503,77.8405 C39.8883,78.5015 39.6673,79.5025 39.6843,80.6945 Z M38.8573,55.2615 C38.6653,55.4985 38.8293,56.0235 39.0663,56.2155 C39.1293,55.7765 39.2023,55.4415 38.8573,55.2615 Z M38.6593,56.4775 C38.7773,56.5725 38.6813,56.6925 38.5743,56.7035 C38.5233,57.2525 38.9413,57.0975 38.9863,57.5285 C38.7723,57.5515 38.9983,57.6345 38.9863,57.5285 C39.0943,57.5175 38.9983,57.6345 39.1173,57.7325 C39.7723,57.7715 38.8343,57.1095 39.2643,57.0645 C39.3713,57.0525 39.3933,57.2675 39.6083,57.2455 C39.6933,57.0195 39.7613,55.5995 39.2243,55.6565 C39.3773,56.0765 39.3883,56.1825 39.2083,56.5275 C39.0893,56.4315 38.8743,56.4545 38.6593,56.4775 Z M38.8893,61.7735 C38.3753,62.0455 38.5343,61.4855 38.3193,61.5075 C38.3423,61.7225 38.3753,62.0455 38.4093,62.3675 C38.8403,62.3225 38.9343,62.2035 38.8893,61.7735 Z M38.2873,50.8685 C38.2243,51.3095 38.2593,51.6315 38.6773,51.4795 C38.6433,51.1585 38.6093,50.8355 38.2873,50.8685 Z M39.1663,69.5635 C38.9513,69.5865 38.8443,69.5975 38.7253,69.5015 C38.6623,69.9425 39.0813,69.7905 39.1263,70.2195 C38.4023,71.5985 39.3183,74.1085 39.0573,75.7645 C38.2493,75.3065 38.5893,74.4035 38.7243,73.6285 C38.1593,70.3215 38.3413,67.9125 38.2063,64.5605 C38.9853,65.7825 38.5613,66.9135 38.9233,68.2865 C38.4203,68.6645 38.8213,69.3825 39.1663,69.5635 Z M38.2963,61.2935 C38.8003,60.9145 38.4043,61.2815 38.9643,61.4405 C39.0043,60.7845 38.5743,60.8295 38.4323,60.5195 C39.1733,60.3325 38.8453,59.2805 38.7043,58.9695 C38.6303,59.3025 38.3193,59.4455 38.1383,59.7895 C38.4953,60.0775 38.3703,60.9595 38.2963,61.2935 Z M34.8103,47.7595 C35.1333,47.7255 34.6473,47.2335 34.8103,47.7595 C34.6073,47.8885 34.8223,47.8665 34.8103,47.7595 Z M31.8373,50.4615 C31.8483,50.5675 31.3343,50.8395 31.7743,50.9015 C31.7743,50.9015 32.1713,50.5345 31.8373,50.4615 Z M31.3673,51.1615 C31.0283,52.0665 30.3213,52.5755 30.4123,53.4335 C30.8923,52.8405 31.6733,51.9985 31.3673,51.1615 Z M30.1053,56.7245 C30.0943,56.6165 30.0833,56.5095 30.0833,56.5095 C29.9763,56.5205 29.9763,56.5205 29.8693,56.5325 C29.8693,56.5325 29.8803,56.6385 29.8913,56.7475 C29.9993,56.7355 29.9993,56.7355 30.1053,56.7245 Z M29.7903,53.7165 C29.8573,54.3615 29.8353,54.1465 29.7843,54.6945 C30.1063,54.6615 30.3273,53.6605 29.7903,53.7165 Z M29.3483,55.7175 C29.2413,55.7295 29.0263,55.7525 28.8113,55.7745 C28.8573,56.2035 28.9133,56.7405 29.3433,56.6955 C29.5013,56.1355 29.2873,56.1585 29.3483,55.7175 Z M28.6143,54.9255 C27.9693,54.9935 28.1443,55.6275 27.9743,56.0785 C28.5003,55.9165 28.3253,55.2825 28.6143,54.9255 Z M26.9733,57.9225 C26.9853,58.0295 26.9973,58.1375 27.0083,58.2455 C26.9003,58.2555 26.9003,58.2555 26.7933,58.2675 C26.7823,58.1605 26.7703,58.0515 26.7593,57.9455 C26.8663,57.9335 26.8663,57.9335 26.9733,57.9225 Z M26.5103,59.7085 C26.1883,59.7425 26.1093,58.9905 26.5503,59.0525 C26.6913,59.3645 26.6063,59.5895 26.5103,59.7085 Z M26.0123,61.1715 C25.9053,61.1835 25.9053,61.1835 25.8943,61.0765 C26.0013,61.0645 26.0013,61.0645 26.0123,61.1715 Z M25.7303,60.5495 C25.9443,60.5275 25.8713,60.8615 25.8943,61.0765 C25.6683,60.9915 25.5373,60.7895 25.7303,60.5495 Z M24.2993,64.5025 C24.2763,64.2875 24.3733,64.1675 24.7063,64.2425 C24.6103,64.3605 24.5133,64.4795 24.2993,64.5025 Z M25.7583,63.9145 C25.2943,65.7005 24.0783,67.5665 24.1513,69.2955 C24.1403,69.1885 24.3553,69.1665 24.5703,69.1435 C24.4793,68.2835 24.6273,67.6165 25.2373,67.2275 C25.2713,67.5485 25.2823,67.6565 25.4973,67.6335 C25.4863,67.5265 25.4743,67.4205 25.4523,67.2055 C26.1193,67.3515 25.9223,66.5035 25.5983,66.5365 C25.3003,66.7855 25.7523,66.9565 25.4523,67.2055 C25.3443,67.2155 25.2253,67.1195 25.2033,66.9055 C25.7803,66.1915 25.2493,65.2715 26.1713,64.7395 C25.8373,64.6665 25.9953,64.1065 25.9723,63.8915 C26.0803,63.8795 26.2953,63.8575 26.4023,63.8465 C26.5663,62.3085 27.8493,61.0885 27.7033,59.6915 C28.1443,59.7545 27.7653,59.2515 28.3243,59.4095 C28.1273,58.5605 28.2623,57.7875 28.8853,57.5045 C28.8513,57.1825 28.8053,56.7525 28.9023,56.6335 C28.0643,56.9385 28.2973,58.1095 27.6863,58.4985 C27.5453,60.2515 26.1993,61.9135 25.9723,63.8915 C25.8653,63.9035 25.8653,63.9035 25.7583,63.9145 Z M23.4963,67.1935 C23.5073,67.2995 23.5183,67.4085 23.5183,67.4085 C23.5183,67.4085 23.4113,67.4195 23.3033,67.4305 C23.3033,67.4305 23.2923,67.3225 23.2813,67.2155 C23.3883,67.2045 23.4963,67.1935 23.4963,67.1935 Z M23.1903,68.4195 C22.9753,68.4415 22.9533,68.2275 23.1563,68.0965 C23.1683,68.2055 23.1783,68.3115 23.1903,68.4195 Z M23.1233,65.7125 C22.6823,65.6495 23.4003,65.2485 22.9703,65.2935 C23.1393,64.8395 23.3263,65.5825 23.1233,65.7125 Z M22.7613,66.4015 C22.4283,66.3285 22.7053,65.8645 23.0383,65.9365 C22.9423,66.0565 22.8463,66.1745 22.7613,66.4015 Z M22.5353,68.3795 C22.5233,68.2725 22.5123,68.1645 22.5013,68.0575 C22.6083,68.0465 22.6083,68.0465 22.5963,67.9385 C22.8013,67.8085 22.8683,68.4535 22.5353,68.3795 Z M22.3593,69.8095 C22.9923,69.6355 21.7943,70.6295 22.3703,69.9185 L22.3593,69.8095 Z M21.0083,74.5125 C21.0183,74.6205 20.9003,74.5245 20.7933,74.5355 C20.7703,74.3205 20.9963,74.4055 21.0083,74.5125 Z M22.4433,73.7115 C22.1553,76.1295 20.5323,78.2545 20.5543,80.5335 C21.1653,80.1435 20.8143,78.8775 21.6513,78.5725 C21.0803,78.3055 21.7193,77.1535 22.2343,76.8815 C21.4543,75.6615 23.1783,74.5015 22.6803,73.9025 C23.2013,72.6535 24.1683,70.4885 23.7563,69.6635 C23.5573,70.8785 22.6073,72.1725 22.7313,73.3545 C22.5173,73.3775 22.5403,73.5915 22.4433,73.7115 Z M20.2613,73.6145 C20.0533,72.6585 21.2623,71.7715 21.6013,70.8665 C21.5913,70.7585 21.3753,70.7815 21.1613,70.8045 C21.3703,69.6965 21.7203,68.9005 22.0493,67.8865 C22.8803,68.5615 21.0933,70.1605 21.8043,70.7365 C21.7883,71.6075 20.9513,71.9125 21.0533,72.8795 C20.5043,72.8285 20.6573,73.2465 20.6913,73.5685 C20.5833,73.5805 20.4763,73.5915 20.2613,73.6145 Z M20.6733,80.6295 C20.4583,80.6525 20.3503,80.6635 20.1363,80.6855 C19.8423,82.0185 19.1793,82.9585 19.3273,84.3545 C20.0613,83.0825 20.0453,81.8895 20.6733,80.6295 Z M19.2423,80.4555 C19.2313,80.3465 19.4463,80.3245 19.4343,80.2165 C19.3393,80.3355 19.2193,80.2395 19.2423,80.4555 Z M19.2893,76.7555 C19.0513,76.5645 19.1763,75.6815 19.7353,75.8415 C19.7813,76.2715 19.3503,76.3165 19.2893,76.7555 Z M18.6773,85.3995 C19.1183,85.4625 19.1913,85.1295 19.4063,85.1065 C19.2753,84.9035 19.3493,84.5695 19.1243,84.4855 C19.0273,84.6035 19.0273,84.6035 18.8123,84.6265 C18.9653,85.0445 18.7613,85.1745 18.6773,85.3995 Z M18.6883,85.5075 C18.7113,85.7215 18.5073,85.8525 18.7333,85.9365 C18.7113,85.7215 18.9143,85.5915 18.6883,85.5075 Z M18.4403,79.0175 C18.4293,78.9115 18.5253,78.7925 18.6213,78.6725 C18.6433,78.8885 18.6663,79.1025 18.4403,79.0175 Z M18.8463,87.0105 C18.7053,86.7005 18.8633,86.1405 18.6373,86.0565 C18.4783,86.6165 18.0833,86.9835 18.0203,87.4235 C18.3433,87.3895 18.6423,87.1415 18.8463,87.0105 Z M17.7773,88.2095 C17.8853,88.1985 18.0993,88.1755 18.2073,88.1645 C18.1963,88.0575 18.1843,87.9495 18.1733,87.8415 C18.0653,87.8535 17.9583,87.8645 17.8503,87.8765 C17.8503,87.8765 17.8623,87.9835 17.7553,87.9945 C17.7663,88.1025 17.7773,88.2095 17.7773,88.2095 Z M15.8043,89.0695 C15.4703,88.9955 15.7363,88.4235 16.1663,88.3795 C16.2113,88.8095 15.7703,88.7465 15.8043,89.0695 Z M15.7423,89.5095 C15.7533,89.6175 15.7643,89.7245 15.7643,89.7245 C15.6573,89.7355 15.5503,89.7475 15.4423,89.7575 C15.4423,89.7575 15.4313,89.6505 15.4203,89.5435 C15.5273,89.5325 15.6353,89.5205 15.7423,89.5095 Z M15.0913,96.7455 C14.6383,96.5755 14.2543,97.0495 14.7073,97.2205 C14.6733,96.8985 15.1253,97.0675 15.0913,96.7455 Z M13.5703,97.7735 C13.4123,98.3335 13.3493,98.7745 12.7053,98.8415 C12.8353,99.0465 12.7723,99.4865 12.9993,99.5715 C13.2533,98.8935 14.0053,98.8145 14.1073,97.7175 C14.4523,97.8985 14.3733,97.1465 14.1703,97.2775 C14.0733,97.3955 14.0853,97.5035 14.1073,97.7175 C13.9153,97.9555 13.8923,97.7405 13.5703,97.7735 Z M3.0213,98.6655 C2.8293,98.9025 3.3033,99.2875 3.2593,98.8575 C3.1513,98.8695 3.1293,98.6545 3.0213,98.6655 Z M2.9993,98.4515 C2.8683,98.2475 2.7843,98.4735 2.9993,98.4515 C3.0113,98.5575 3.0943,98.3325 2.9993,98.4515 Z M2.8513,60.8915 C2.7563,61.0105 2.5973,61.5705 2.9203,61.5375 C2.6713,61.2365 3.1853,60.9655 2.8513,60.8915 Z M2.2133,66.1715 C2.2353,66.3865 1.8393,66.7545 2.2803,66.8165 C2.2683,66.7095 2.5353,66.1375 2.2133,66.1715 Z M1.9013,68.3775 C2.2463,68.5575 2.1783,67.9135 1.9743,68.0435 C1.9743,68.0435 1.9863,68.1495 1.8793,68.1615 C1.8893,68.2695 1.9013,68.3775 1.9013,68.3775 Z M1.6123,70.7965 C1.7423,71.0005 1.5843,71.5595 1.7993,71.5375 C1.6573,71.2245 2.2573,70.7285 1.6123,70.7965 Z M1.4703,72.5475 C1.4763,73.6335 1.0083,74.3345 1.3233,75.2785 C1.5333,74.1715 1.6693,73.3965 1.5783,72.5375 C1.8893,72.3965 1.4143,72.0105 1.5783,72.5375 L1.4703,72.5475 Z M0.9713,80.2035 C1.0343,81.8255 1.1913,83.3285 1.0163,84.7585 C1.4293,83.5205 1.5713,81.7695 0.9713,80.2035 Z M1.3603,89.0665 C1.0783,90.5075 1.6263,92.6225 1.5813,94.2555 C1.8743,94.9855 2.2363,96.3595 2.4333,97.2075 C2.4333,97.2075 2.3203,98.1975 2.8233,97.8175 C1.7163,93.4815 1.4623,90.0345 1.2993,85.3805 C1.2883,85.2735 1.1803,85.2845 1.0733,85.2965 C1.0673,86.2745 1.0723,87.3595 0.9703,88.4565 C0.9093,88.8965 1.2303,88.8625 1.3603,89.0665 Z M1.1323,75.5155 C1.2893,77.0185 0.6103,78.8295 1.1763,80.0725 C1.1253,78.5575 1.8263,76.9625 1.1323,75.5155 Z M38.8623,62.5375 C38.4883,63.1195 38.6193,63.3225 38.7093,64.1815 C38.3643,64.0015 38.0253,62.8415 38.5623,62.7855 C38.5283,62.4625 38.4213,62.4745 38.2063,62.4975 C37.8733,58.2965 38.0773,54.0405 36.5803,49.0925 C34.5063,51.0495 33.4863,53.7625 31.8863,56.1025 C31.7683,56.0065 31.7793,56.1145 31.8863,56.1025 C31.9093,56.3175 32.0163,56.3065 32.0393,56.5215 C31.2483,57.2555 31.4393,59.0825 30.4623,59.0755 C30.4953,59.3975 30.8303,59.4725 30.5413,59.8275 C25.0213,73.4395 21.8373,87.5655 16.5203,101.0475 C15.0163,103.2695 13.3653,106.1585 9.7643,105.9935 C6.4793,104.7105 3.9543,102.3685 2.5923,98.7105 C1.3033,96.7835 0.5523,92.7355 0.8963,90.8525 C-0.3117,85.5495 -0.0227,81.0665 0.1983,75.9395 C0.1653,75.6175 0.1533,75.5095 0.0353,75.4145 C1.1683,59.3315 3.5393,43.6615 6.7743,28.9865 C9.0193,28.6415 10.6923,28.0315 12.1733,29.7225 C11.0303,33.3175 10.1713,37.5345 8.9553,41.4625 C8.6493,44.7535 8.4053,47.6025 7.4433,50.8535 C6.9793,54.7025 6.7933,58.0885 5.8313,61.3385 C6.1413,63.2605 5.4973,65.3915 5.5483,66.9075 C5.4853,67.3485 5.1743,67.4895 5.1123,67.9305 C5.0613,68.4785 5.2473,69.2185 5.2083,69.8755 C5.1453,70.3155 4.7503,70.6835 4.7843,71.0055 C4.7713,72.9615 4.9753,74.8945 4.3193,76.9195 C4.3533,77.2405 4.6753,77.2065 4.8053,77.4115 C4.2173,78.0155 4.9003,79.3545 4.2903,79.7445 C4.5333,81.0225 4.1603,81.6045 4.6793,82.4195 C4.2843,84.8495 4.8443,87.0715 4.7073,89.9095 C5.0073,91.7235 4.8083,92.9395 5.3853,94.2905 C5.8313,97.5015 6.4193,101.0235 8.8883,102.8275 C11.7613,101.2225 12.4733,97.6715 13.6433,95.3785 C13.5883,94.8405 13.5423,94.4115 13.4863,93.8745 C14.1703,93.1505 14.9613,92.4145 14.9333,91.1155 C15.2563,91.0815 15.0863,91.5335 15.4083,91.4995 C15.9693,89.5945 16.3253,87.8195 17.5743,86.2755 C17.3483,86.1925 17.4103,85.7505 17.3773,85.4285 C18.0213,85.3615 17.5173,83.6755 18.4513,83.2515 C18.5023,82.7035 18.4063,82.8225 18.3383,82.1765 C18.7903,82.3475 18.7573,82.0255 19.0673,81.8835 C18.5583,81.1775 19.8253,80.8275 19.0063,80.2615 C20.3003,79.1485 20.4083,77.0745 21.1093,75.4785 C20.9903,75.3835 21.0643,75.0495 20.7533,75.1915 C21.4603,74.6815 22.0303,72.8845 21.7603,72.3705 C21.8103,71.8225 21.9693,71.2625 22.4943,71.0985 C22.4713,70.8835 22.3533,70.7875 22.2353,70.6915 C22.8563,70.4095 23.0143,69.8505 22.7203,69.1215 C22.9253,68.9905 22.9473,69.2055 23.0663,69.3015 C23.3773,69.1595 22.7833,68.6785 23.1903,68.4195 C23.6823,67.9335 24.0443,67.2435 23.7503,66.5145 C23.8573,66.5035 23.9653,66.4925 24.0843,66.5875 C24.1573,66.2545 23.9423,66.2775 23.9093,65.9555 C24.1243,65.9325 24.2423,66.0285 24.3493,66.0175 C24.6213,64.4675 25.7013,63.3775 25.2553,62.2295 C25.4253,61.7775 25.9623,61.7205 26.0123,61.1715 C26.5843,59.3755 27.8223,57.7235 27.7153,55.6725 C26.0693,57.5825 26.0863,60.8385 24.1073,62.6755 C24.0453,63.1175 24.3673,63.0835 24.2943,63.4165 C23.4733,62.8505 24.3793,61.1275 25.0863,60.6185 C24.4353,59.6015 25.6913,59.1435 26.0533,58.4535 C25.3633,58.0915 26.1993,57.7875 26.0243,57.1535 C26.1323,57.1425 26.3463,57.1195 26.2613,57.3445 C26.5953,57.4195 26.3243,56.9045 26.7643,56.9655 C26.6243,56.6565 26.2173,56.9165 26.2793,56.4735 C26.4703,56.2365 26.7603,55.8815 26.7253,55.5595 C26.9403,55.5365 27.1553,55.5135 27.2853,55.7175 C27.5003,55.6955 27.5853,55.4685 27.4433,55.1585 C27.5513,55.1465 27.5513,55.1465 27.6583,55.1355 C27.6703,55.2435 27.6923,55.4585 27.7043,55.5645 C27.9073,55.4345 27.8733,55.1125 27.6583,55.1355 C28.1053,54.2195 27.7773,53.1685 28.3653,52.5635 C28.3883,52.7795 28.0143,53.3605 28.3603,53.5415 C28.5233,54.0675 27.9643,53.9085 28.2353,54.4225 C27.8043,54.4675 27.7203,54.6945 27.9583,54.8865 C27.7433,54.9095 27.9693,54.9935 27.9583,54.8865 C28.1623,54.7565 28.2583,54.6375 28.2353,54.4225 C28.5353,54.1745 28.4783,53.6375 28.9643,54.1295 C28.3143,53.1115 29.6373,53.2975 29.3093,52.2475 C29.4173,52.2355 29.5363,52.3315 29.5703,52.6545 C30.0733,52.2755 29.8243,51.9755 29.6603,51.4495 C29.8753,51.4265 29.9713,51.3085 29.9493,51.0935 C30.0553,51.0825 30.1523,50.9635 30.1403,50.8555 C29.9153,50.7715 29.9373,50.9875 29.9493,51.0935 C29.8523,51.2125 29.7453,51.2235 29.6603,51.4495 C29.5753,51.6755 29.2643,51.8175 29.3093,52.2475 C29.0943,52.2695 29.1173,52.4845 28.9023,52.5065 C28.8913,52.3995 28.6763,52.4215 28.4623,52.4445 C28.5523,51.2405 29.4963,50.9235 29.7063,49.8155 C31.2493,49.0025 32.0803,47.6115 33.3753,46.4985 C33.8163,46.5605 34.4273,46.1715 34.8673,46.2325 C36.1283,46.8605 37.1063,46.8655 38.6553,47.1385 C42.4533,50.2145 42.1473,57.6295 42.3443,62.6055 C42.9873,70.7915 42.9243,77.4225 44.2973,85.3145 C45.1093,86.8575 45.2793,88.4685 46.3423,90.3115 C47.5633,89.5315 47.1683,87.8365 48.2703,86.9595 C48.3843,85.9695 48.9603,85.2575 48.7513,84.3035 C48.9553,84.1715 49.1703,84.1495 49.2553,83.9245 C49.2153,84.5795 49.9213,84.0705 49.5653,83.7825 C50.1993,83.6085 49.8193,83.1045 49.8593,82.4485 C50.2663,82.1895 50.3353,80.7695 49.7683,81.5885 C49.6893,80.8375 49.9783,80.4805 50.2673,80.1255 C50.2903,80.3395 50.4203,80.5445 50.5383,80.6395 C50.3233,80.6625 50.2163,80.6735 50.2263,80.7815 C50.4423,80.7585 50.4423,80.7585 50.5383,80.6395 C50.8603,80.6065 50.7083,80.1875 50.9003,79.9505 C50.8783,79.7355 50.7933,79.9625 50.5783,79.9845 C50.9393,79.2945 51.5503,78.9045 51.3643,78.1655 C51.9803,76.7965 51.7033,75.1955 52.5233,73.6985 C52.5353,73.8045 52.6203,73.5795 52.5233,73.6985 C52.5693,72.0645 53.2083,70.9115 52.9543,69.5265 C53.2543,69.2775 53.0723,69.6225 53.4063,69.6965 C53.4343,68.9325 52.5123,69.4635 52.5643,68.9165 C52.6483,68.6895 53.0903,68.7525 53.0273,69.1925 C53.1853,68.6325 53.8363,67.5875 53.1693,67.4405 C53.5883,67.2875 53.3153,66.7735 53.8863,67.0395 C53.9373,66.4905 53.6043,66.4185 53.6663,65.9755 C53.7733,65.9645 53.9893,65.9425 54.2033,65.9195 C53.4743,64.1495 54.7293,63.6925 54.1763,62.5565 C54.8033,61.2965 54.8263,59.4475 54.8093,58.2545 C54.9173,58.2445 55.0243,58.2325 55.1213,58.1135 C55.0533,57.4685 55.3423,57.1135 54.9733,56.7165 C55.5913,53.2855 56.0993,49.8665 56.2303,45.9415 C56.4973,45.3705 56.5243,44.6085 56.6823,44.0485 C56.7003,43.1775 56.1923,42.4705 56.9323,42.2855 C56.9943,41.8435 56.4913,42.2225 56.5533,41.7815 C57.5883,40.2605 57.1593,38.2435 57.8713,36.7565 C57.6453,34.6085 58.5723,33.0985 58.5513,30.8205 C58.5173,30.4985 57.9063,30.8875 58.0763,30.4355 C58.3763,30.1875 58.4103,30.5095 58.6243,30.4865 C59.8013,23.0875 61.2503,14.1385 63.2973,6.7565 C62.9193,6.2535 63.3593,6.3155 63.0893,5.8005 C64.2303,6.3325 63.6483,3.8955 64.3893,3.7095 C64.3663,3.4945 64.1623,3.6245 64.0443,3.5285 C63.9873,2.9915 64.6433,3.0315 64.4683,2.3985 C64.0503,2.5495 64.0843,2.8725 63.8913,3.1095 C63.5473,2.9285 64.0383,2.4435 64.0153,2.2285 C63.2983,2.6295 63.0663,3.5225 63.0263,4.1785 C63.3833,4.4665 63.2693,3.3935 63.7113,3.4555 C63.8863,4.0875 63.2983,4.6925 63.5923,5.4215 C63.2693,5.4565 63.2473,5.2415 63.1283,5.1455 C62.8963,6.0385 61.7823,6.8055 61.8953,7.8795 C62.4433,7.9325 61.9243,7.1185 62.4713,7.1695 C62.3703,8.2655 61.5053,9.3345 61.5953,10.1935 C61.4143,10.5385 61.1203,9.8075 61.0973,9.5925 C60.7643,9.5205 61.2613,10.1195 60.8093,9.9505 C60.4703,8.7905 61.6243,7.3655 61.4033,6.3035 C61.6073,6.1735 61.7033,6.0545 61.9183,6.0325 C61.4313,5.5405 62.7613,4.7495 62.8963,3.9745 C62.3653,3.0525 62.8563,2.5685 63.2083,1.7705 C64.1753,1.6695 64.7793,0.1935 66.2323,0.5845 C67.0633,1.2555 67.9113,1.0585 69.2683,1.5675 C69.1943,1.9015 69.1213,2.2355 69.0473,2.5685 C66.4693,4.9025 66.7173,9.3295 65.2083,12.5295 C64.7323,16.2705 63.6123,20.0805 63.1593,24.0385 C62.9673,24.2755 63.0233,24.8115 62.5943,24.8565 C62.6163,25.0725 62.9273,24.9305 62.9613,25.2535 C61.5353,32.3525 60.9063,39.8035 59.4243,46.3665 C59.9103,46.8585 59.6383,48.4085 59.0393,48.9045 C58.8463,53.2695 58.8693,57.6105 57.6413,61.4315 C58.3073,63.6415 56.5723,64.6945 57.2393,66.9035 C57.1033,67.6775 56.8723,68.5715 56.5323,69.4755 C56.5663,69.7975 56.6843,69.8945 56.7303,70.3245 C56.7633,70.6465 56.5603,70.7765 56.4753,71.0025 C56.5653,73.9245 55.5133,76.3155 55.3033,79.4875 C53.6413,84.3325 53.5103,90.3175 49.4733,93.2415 C48.7213,93.3205 48.6253,93.4375 47.9703,93.3995 C47.6473,93.4325 47.4433,93.5615 47.3593,93.7895 C43.9443,92.3015 41.0283,89.3495 40.7293,85.4715 C40.6953,85.1505 40.2883,85.4105 40.2543,85.0875 C40.2093,84.6585 40.4533,83.8715 39.8823,83.6065 C39.9443,83.1645 40.0853,83.4755 40.4193,83.5495 C40.4593,82.8945 39.8253,83.0695 39.7683,82.5325 C40.6173,82.3345 39.3453,81.5985 39.7293,81.1245 C40.2553,80.9605 39.6563,81.4585 40.0013,81.6385 C40.1653,78.0375 39.6453,75.1605 39.2963,71.8315 C39.4833,68.4455 39.1333,65.1145 38.8623,62.5375 Z" id="Fill-1" fill="#D4535E" mask="url(#mask-2)"></path>
                </g>
                <path d="M90.3829,72.845 C89.6189,72.816 89.8059,73.557 90.2359,73.512 C90.0949,73.201 90.4169,73.167 90.3829,72.845 M90.0319,73.642 C89.8179,73.664 89.7949,73.449 89.5799,73.473 C89.6029,73.688 89.4949,73.699 89.5289,74.021 C89.8519,73.987 90.0669,73.964 90.0319,73.642 M89.1959,73.947 C89.1619,73.625 88.9469,73.648 88.7319,73.67 C88.7429,73.778 88.7539,73.885 88.7659,73.991 C88.8729,73.98 88.9809,73.969 89.1959,73.947 M88.9069,74.303 C88.1449,74.275 87.4039,74.461 86.7249,74.206 C86.9009,74.84 85.7809,74.524 85.7299,75.072 C86.7809,74.743 87.8899,74.953 88.9069,74.303 M85.0349,75.688 C84.2259,75.23 83.8539,75.812 83.0789,75.675 C83.1809,76.643 84.7459,76.043 85.0349,75.688 M82.6099,76.377 C82.6099,76.377 82.5019,76.389 82.4899,76.281 C82.5979,76.269 82.5979,76.269 82.6099,76.377 M82.6099,76.377 C82.7169,76.366 82.9319,76.343 83.0389,76.332 C83.0049,76.01 82.7789,75.925 82.4679,76.067 C82.4799,76.174 82.4799,76.174 82.4899,76.281 C81.8349,76.241 82.6659,76.914 82.6099,76.377 M82.1009,77.733 C82.0889,77.625 82.0039,77.853 82.1009,77.733 C82.2309,77.937 82.3159,77.71 82.1009,77.733 M80.7039,77.88 C80.9419,78.073 81.2979,78.361 81.3489,77.812 C81.2409,77.824 80.6819,77.666 80.7039,77.88 M80.6649,76.472 C80.5069,77.032 81.3879,77.157 81.3429,76.727 C81.1169,76.643 81.0829,76.321 80.6649,76.472 M79.3419,78.35 C79.1609,78.695 79.8059,78.627 79.6749,78.422 C79.5679,78.434 79.5449,78.219 79.3419,78.35 M70.0269,74.442 C69.4379,75.046 68.7659,75.877 68.8559,76.737 C70.3309,77.342 72.8229,77.296 74.5199,76.902 C75.2159,74.222 76.6569,70.379 73.8649,68.608 C72.0779,70.207 68.8279,71.309 70.0269,74.442 M66.7289,87.494 C70.5279,86.444 71.6079,83.289 73.0319,80.316 C70.6359,80.241 69.0079,79.219 67.2829,78.314 C66.5659,80.779 64.9709,84.203 66.7289,87.494 M94.4989,68.612 C94.9399,68.673 95.4539,68.404 95.8119,68.692 C95.6749,69.466 96.0309,69.753 96.2909,70.16 C94.8769,71.178 93.5829,72.291 92.0509,73.213 C91.9089,72.902 92.0169,72.891 91.8639,72.472 C91.6839,72.817 91.3839,73.066 91.1119,72.551 C90.8009,72.692 90.8469,73.122 90.6539,73.36 C90.6659,73.467 90.8799,73.445 90.8919,73.552 C91.3439,73.721 91.1919,73.303 91.1689,73.088 C92.2989,73.513 90.6989,73.788 90.6599,74.446 C90.2309,74.491 90.3999,74.038 89.9819,74.191 C89.3479,74.366 90.0829,75.158 89.7729,75.299 C89.3539,75.451 89.4789,74.57 89.5859,74.558 C88.9639,74.84 88.8059,75.401 88.3019,75.779 C87.8839,75.932 88.0539,75.48 87.7319,75.513 C87.5169,75.535 87.5499,75.858 87.5839,76.18 C87.1659,76.332 87.3239,75.772 87.0979,75.689 C86.7769,75.722 86.6169,76.282 86.2499,75.885 C85.8429,76.146 86.6069,76.173 86.5319,76.508 C85.9619,76.241 85.8039,76.801 85.1139,76.44 C85.0629,76.989 85.8769,76.467 85.8259,77.016 C85.3969,77.061 85.3009,77.181 84.9659,77.106 C84.9439,76.891 84.9329,76.784 84.9099,76.569 C84.2779,76.745 84.2779,76.745 83.7399,76.802 C83.6779,77.241 83.6899,77.35 83.2139,76.965 C82.9259,77.321 83.5709,77.253 83.4119,77.813 C81.6429,78.541 77.0009,78.812 77.1639,81.402 C75.0439,84.991 74.0369,89.875 68.8929,90.525 C61.5379,89.777 61.4269,78.386 65.4469,74.271 C65.3909,73.735 65.4529,73.293 65.1939,72.886 C65.1319,65.074 74.7929,65.035 78.6189,69.412 C79.8009,71.351 79.9299,73.617 79.0599,75.664 C84.5319,74.003 90.0099,71.364 94.4989,68.612" id="Fill-4" fill="#D4535E"></path>
                <path d="M111.7051,62.8938 C112.1241,62.7408 112.6611,62.6838 112.7121,62.1348 C112.4011,62.2778 112.1971,62.4078 111.8761,62.4418 C111.8981,62.6568 111.8021,62.7738 111.7051,62.8938 M111.5991,62.9048 C111.1451,62.7358 110.5241,63.0178 110.9031,63.5208 C111.3331,63.4758 111.4061,63.1428 111.5991,62.9048 M108.7611,62.7688 L108.7711,62.8758 C108.6641,62.8878 108.5461,62.7908 108.7611,62.7688 M110.4001,63.8998 C110.2591,63.5888 110.7511,63.1028 110.2251,63.2668 C109.6601,64.0848 108.6311,64.6288 108.0651,65.4488 C109.0201,65.2388 109.5411,63.9908 110.4001,63.8998 M108.0761,65.5548 C107.7761,65.8048 106.9291,66.0008 107.2961,66.3988 C107.5961,66.1488 108.0141,65.9978 108.0761,65.5548 M106.8261,67.0978 C106.7191,67.1098 106.6111,67.1208 106.5041,67.1318 C106.6801,67.7658 105.6161,67.9858 106.0921,68.3718 C106.2611,67.9178 106.8941,67.7438 106.8261,67.0978 M105.2041,69.2238 C105.1921,69.1168 105.1701,68.9018 104.9671,69.0328 C104.9781,69.1388 105.0011,69.3538 105.1081,69.3418 C105.1081,69.3418 105.0971,69.2348 105.2041,69.2238 M110.0271,62.4168 C109.6261,61.7008 110.8751,62.2208 110.9031,61.4568 C110.1741,61.7508 109.5411,61.9268 109.2071,61.8528 C103.6611,65.9118 99.5221,71.9938 96.9321,78.3458 C100.1271,72.5818 103.6781,67.1038 108.7711,62.8758 C109.5351,62.9048 109.4681,62.2598 110.0271,62.4168 M115.2051,62.0908 C111.9151,63.8478 109.8681,67.1048 106.9841,68.6018 C106.8711,69.5908 106.5201,70.3888 105.6841,70.6938 C102.9351,75.5428 100.1761,80.2868 98.1291,85.6048 C98.0661,88.1098 97.0431,89.7378 95.0821,90.7038 C89.4511,88.7978 91.6751,79.9848 91.7041,75.0958 C92.5181,72.5108 92.2301,68.7418 93.2091,66.6838 C98.0481,67.2608 96.6451,72.5128 96.4701,76.0068 C98.5441,71.9878 101.3321,68.5438 104.1081,64.9958 C106.7481,62.2198 113.6911,58.0148 116.7991,62.7918 C116.3361,62.5158 115.7651,62.2498 115.2051,62.0908" id="Fill-6" fill="#D4535E"></path>
                <g id="Group-10" transform="translate(111.000000, 0.049000)">
                    <mask id="mask-4" fill="white">
                        <use xlink:href="#path-3"></use>
                    </mask>
                    <g id="Clip-9"></g>
                    <path d="M46.1729,60.4552 C45.9579,60.4772 45.8609,60.5972 45.7769,60.8222 C45.9919,60.8002 46.0869,60.6812 46.1729,60.4552 Z M44.0579,63.0662 C43.8319,62.9812 43.5549,63.4442 43.8769,63.4112 C43.8649,63.3042 44.1889,63.2692 44.0579,63.0662 Z M43.3399,63.4672 C43.3619,63.6822 43.1589,63.8132 43.3849,63.8962 C43.3729,63.7902 43.5669,63.5522 43.3399,63.4672 Z M43.3969,61.9412 C43.8379,62.0032 43.3229,62.2742 43.3459,62.4902 C43.0129,62.4162 43.4079,62.0482 43.3969,61.9412 Z M42.7519,64.0722 C42.5369,64.0952 42.4409,64.2132 42.3569,64.4402 C42.5709,64.4182 42.6669,64.2982 42.7519,64.0722 Z M41.6329,65.8182 C41.9089,65.3552 42.3169,65.0962 42.8309,64.8242 C42.6609,65.2762 42.1469,65.5482 41.6329,65.8182 Z M41.3829,67.5832 C41.3949,67.6902 41.4059,67.7972 41.4169,67.9052 C41.4169,67.9052 41.3099,67.9162 41.2019,67.9282 C41.1919,67.8192 41.1799,67.7132 41.1679,67.6052 C41.2759,67.5942 41.3829,67.5832 41.3829,67.5832 Z M40.5919,68.3172 C40.6259,68.6402 40.4109,68.6622 40.0889,68.6962 C40.1739,68.4692 40.2699,68.3512 40.5919,68.3172 Z M40.0889,68.6962 C40.1009,68.8042 40.1009,68.8042 39.9919,68.8152 C39.9819,68.7082 39.9819,68.7082 40.0889,68.6962 Z M40.3039,66.6102 C40.3039,66.6102 40.3149,66.7182 40.3259,66.8242 C40.2189,66.8352 40.1109,66.8472 40.0039,66.8572 C39.9929,66.7512 39.9819,66.6432 39.9819,66.6432 C40.0889,66.6332 40.1959,66.6212 40.3039,66.6102 Z M39.9919,68.8152 C40.0039,68.9232 40.0039,68.9232 39.8969,68.9342 C39.8849,68.8262 39.8849,68.8262 39.9919,68.8152 Z M40.2639,67.2662 C40.1789,67.4922 39.5129,67.3452 39.6819,66.8922 C40.0999,66.7402 39.8339,67.3112 40.2639,67.2662 Z M35.8379,67.5142 C35.8599,67.7282 35.6459,67.7512 35.7759,67.9552 C35.4529,67.9892 35.5039,67.4402 35.8379,67.5142 Z M35.1979,70.7302 C34.8639,70.6562 35.3679,70.2782 35.5939,70.3622 C35.6159,70.5772 35.2829,70.5052 35.1979,70.7302 Z M32.7439,72.1832 C32.7559,72.2902 32.7679,72.3982 32.7679,72.3982 C32.7679,72.3982 32.6599,72.4092 32.5529,72.4212 C32.5529,72.4212 32.5409,72.3122 32.5289,72.2052 C32.6369,72.1932 32.7439,72.1832 32.7439,72.1832 Z M29.2959,74.5002 C29.1539,74.1882 29.3809,74.2732 29.5959,74.2512 C29.6069,74.3582 29.5109,74.4772 29.2959,74.5002 Z M27.9049,75.7322 C27.8199,75.9582 27.5099,76.1002 27.1869,76.1342 C27.2719,75.9072 27.5829,75.7662 27.9049,75.7322 Z M26.5209,75.9862 C26.6059,75.7602 26.8189,75.7372 27.0239,75.6072 C27.1759,76.0262 26.7349,75.9642 26.5209,75.9862 Z M26.4639,75.4492 C26.5489,75.2232 26.7299,74.8782 26.9789,75.1782 C26.8819,75.2972 26.6779,75.4272 26.4639,75.4492 Z M26.2979,12.9152 C26.3199,13.1302 26.3439,13.3452 26.5589,13.3222 C26.5349,13.1072 26.4169,13.0112 26.2979,12.9152 Z M26.2769,76.7722 C26.2319,76.3432 26.7569,76.1792 27.1869,76.1342 C26.8869,76.3822 26.5879,76.6312 26.2769,76.7722 Z M26.4189,75.0192 C25.9779,74.9572 26.6109,74.7822 26.4919,74.6852 C26.9339,74.7482 26.4069,74.9122 26.4189,75.0192 Z M26.1849,15.9672 C26.3369,16.3872 26.1219,16.4092 26.1669,16.8392 C26.5859,16.6842 26.5189,16.0412 26.1849,15.9672 Z M26.2479,75.4722 L26.2719,75.6862 C26.1639,75.6982 26.0569,75.7092 25.9489,75.7212 C25.9489,75.7212 25.9379,75.6132 25.9269,75.5062 C26.0339,75.4942 26.1409,75.4832 26.2479,75.4722 Z M26.0489,18.8062 C26.0709,19.0192 25.9859,19.2462 26.3089,19.2122 C25.7879,18.3982 26.3479,18.5582 26.3649,17.6862 C26.0319,17.6122 26.0029,18.3752 25.7429,17.9702 C26.0159,16.4202 26.0609,14.7862 26.4849,13.6552 C25.0819,16.8432 25.3929,20.8292 25.6239,24.0622 C25.6809,22.5362 26.4339,20.3942 26.0489,18.8062 Z M25.4319,24.3002 C25.5959,24.8252 24.9849,25.2162 25.4479,25.4932 C25.4139,25.1712 25.7879,24.5892 25.4319,24.3002 Z M25.6549,77.0552 C25.0559,77.5522 24.0889,77.6532 23.9419,78.3212 C24.4339,77.8352 25.8749,78.1172 25.6549,77.0552 Z M23.8069,77.0322 C23.5919,77.0552 23.3769,77.0772 23.3999,77.2922 C23.6139,77.2692 23.7099,77.1502 23.8069,77.0322 Z M23.6089,78.2462 C23.1909,78.3992 22.5449,78.4682 22.6019,79.0052 C23.2359,78.8282 23.5689,78.9032 23.6089,78.2462 Z M22.1389,78.7272 C21.9459,78.9642 21.9799,79.2872 22.3989,79.1342 C22.3759,78.9192 22.2579,78.8242 22.1389,78.7272 Z M20.5439,43.9272 C20.6969,44.3452 21.0189,44.3102 20.7419,44.7752 C21.2679,44.6112 21.1779,43.7512 20.5439,43.9272 Z M19.0119,48.9752 C19.0229,49.0822 19.0449,49.2972 19.0569,49.4042 C19.5089,49.5742 19.4179,48.7152 19.0119,48.9752 Z M18.1409,51.0212 C18.1519,51.1292 18.1749,51.3442 18.1859,51.4512 C18.6379,51.6202 18.5479,50.7612 18.1409,51.0212 Z M17.6989,53.0222 C17.1509,52.9712 16.8739,53.4352 17.1229,53.7342 C17.4339,53.5942 17.6259,53.3562 17.6989,53.0222 Z M16.3029,55.2312 C15.6579,55.3002 16.0699,56.1252 16.4039,56.1992 C16.8009,55.8322 15.9179,55.7082 16.3029,55.2312 Z M15.8509,57.1262 C15.8389,57.0182 15.7089,56.8152 15.5049,56.9442 C15.6239,57.0412 15.5389,57.2672 15.7539,57.2442 C15.7539,57.2442 15.7429,57.1372 15.8509,57.1262 Z M13.7519,60.9312 C13.5999,60.5122 13.9219,60.4782 13.7919,60.2742 C13.4699,60.3092 12.9889,60.9012 13.2269,61.0942 C13.2889,60.6532 13.4189,60.8552 13.7519,60.9312 Z M10.8809,20.1832 C10.8699,20.0742 10.8589,19.9672 10.8479,19.8602 C10.9549,19.8502 11.0619,19.8382 10.9439,19.7412 C11.0509,19.7292 11.0509,19.7292 11.1579,19.7192 C11.0729,19.9442 11.2029,20.1492 10.8809,20.1832 Z M10.3089,30.2332 C10.2239,30.4592 10.1159,30.4712 10.1509,30.7932 C10.6029,30.9632 10.5239,30.2112 10.3089,30.2332 Z M10.0769,31.1262 C10.0889,31.2342 9.8109,31.6972 10.1339,31.6632 C10.2299,31.5452 10.4099,31.2012 10.0769,31.1262 Z M10.0199,32.6532 C9.6869,32.5792 9.7209,32.9012 9.6239,33.0202 C9.9459,32.9862 10.0419,32.8682 10.0199,32.6532 Z M9.5839,33.6762 C9.6079,33.8912 9.6299,34.1052 9.8449,34.0832 C9.8219,33.8682 9.7029,33.7722 9.5839,33.6762 Z M9.4319,67.3572 C9.2689,66.8322 9.8169,66.8822 9.7599,66.3452 C9.2459,66.6162 8.9459,66.8662 8.7879,67.4262 C9.1099,67.3922 9.1949,67.1652 9.4319,67.3572 Z M24.1229,3.5872 C24.0159,3.5992 24.0049,3.4912 23.7889,3.5142 C18.7689,9.4722 16.4999,17.8542 13.6899,25.2092 C12.1799,32.5342 10.7259,40.3972 9.3669,48.1422 C9.1289,52.0772 8.9019,58.1822 8.5509,63.1062 C14.1149,56.1142 17.6049,46.9512 20.6299,37.5102 C23.0569,26.5042 26.3039,16.0642 24.1229,3.5872 Z M8.3409,66.2762 C17.3999,55.3342 22.3369,39.2872 24.4309,24.0802 C21.2629,39.3992 17.2069,53.5082 8.4329,65.0732 C8.5959,65.6002 8.1779,65.7512 8.3409,66.2762 Z M8.2149,41.3142 C8.2269,41.4212 8.1529,41.7542 8.4639,41.6122 C8.4419,41.3972 8.3219,41.3032 8.2149,41.3142 Z M7.8879,42.3252 C7.8479,42.9792 7.4629,43.4562 7.9269,43.7322 C7.7749,43.3142 8.3609,42.7102 7.8879,42.3252 Z M7.2019,49.2382 C7.2129,49.3462 7.1399,49.6812 7.3559,49.6582 C7.4629,49.6462 7.6199,49.0872 7.2019,49.2382 Z M6.9429,50.8942 C6.9979,51.4322 6.8399,51.9912 6.7999,52.6472 C7.3149,52.3762 7.3829,50.9572 6.9429,50.8942 Z M5.9649,42.6362 C5.6709,41.9062 6.0329,41.2172 6.1799,40.5502 C6.4629,41.1722 6.1349,42.1842 5.9649,42.6362 Z M5.7829,47.1072 C5.4619,47.1422 5.3649,47.2602 5.3989,47.5822 C5.8399,47.6442 5.6879,47.2252 5.7829,47.1072 Z M5.4209,47.7972 C5.4779,48.3342 5.0429,49.3572 5.4939,49.5262 C5.4389,48.9892 5.8969,48.1822 5.4209,47.7972 Z M3.1339,73.5582 C3.1219,73.4492 3.1109,73.3432 3.0999,73.2342 C2.7769,73.2682 2.6929,73.4952 2.5969,73.6142 C2.7039,73.6032 2.9189,73.5802 3.1339,73.5582 Z M30.5799,71.2162 C30.6029,71.4302 30.6979,71.3112 30.6879,71.2052 C30.9129,71.2892 31.1059,71.0522 30.8789,70.9682 C31.3489,70.2662 34.1929,69.4252 35.1189,67.9142 C35.2489,68.1192 35.4989,68.4182 35.7759,67.9552 C37.9569,65.9882 40.8409,64.4902 43.3459,62.4902 C44.1939,62.2912 44.9739,61.4502 45.6699,60.8342 C45.2289,60.7702 44.6629,61.5912 43.9219,61.7772 C44.4879,60.9582 45.5279,60.5232 46.4389,59.8852 C46.6189,61.6032 44.5499,62.5812 43.8259,63.9592 C38.5849,66.7912 34.6509,70.6792 29.3989,73.4032 C29.3019,73.5222 29.3139,73.6292 29.3359,73.8452 C27.5319,74.2512 24.3889,75.3422 22.3309,76.4272 C23.3939,76.2062 24.5979,76.2972 25.6149,75.6462 C25.8989,76.2682 24.1679,76.3422 24.0219,77.0092 C24.7509,76.7152 25.4799,76.4222 25.9839,76.0432 C26.0399,76.5802 24.3659,77.1902 23.9589,77.4502 C24.7559,77.8012 25.3839,76.5402 25.9549,76.8062 C25.8689,77.0322 25.6549,77.0552 25.9029,77.3542 C27.0859,77.2302 27.5099,76.1002 28.3799,76.1162 C29.0189,74.9642 32.7439,74.2462 33.3269,72.5572 C34.5929,72.2062 35.2439,71.1592 36.4869,70.5962 C36.4759,70.4872 36.3679,70.4982 36.1529,70.5202 C38.2739,68.9962 40.3829,67.3612 42.8479,66.0162 C41.8639,66.9892 40.6439,67.7692 39.5519,68.7532 C39.6709,68.8492 39.6939,69.0622 39.8969,68.9342 C39.8119,69.1602 39.1899,69.4412 39.4669,68.9782 C35.2429,73.2242 29.5719,76.1002 24.1959,79.7062 C20.3459,81.3052 14.4499,84.0972 10.1829,81.7222 C9.3509,81.0482 8.8939,79.7932 8.0619,79.1212 C7.3379,86.6902 8.3599,95.3792 7.6859,102.3992 C6.6909,103.2652 6.9899,105.0792 5.5199,105.5592 C4.7229,105.2092 3.9829,105.3952 3.1619,104.8302 C1.8919,99.9692 3.3909,94.5982 2.5609,89.7982 C2.9339,85.0902 3.0599,80.0812 3.0429,74.7612 C2.4329,75.1512 1.8609,74.8862 0.8839,74.8812 C0.8719,72.7102 2.5349,71.9922 3.2469,70.5052 C3.2419,65.2932 3.7349,60.6802 4.1309,56.1852 C4.3229,55.9482 4.7649,56.0112 4.8499,55.7852 C4.9009,55.2362 4.9619,54.7952 5.0139,54.2462 C5.4269,53.0092 5.1839,51.7312 5.4219,49.8612 C4.8789,50.8942 4.7929,53.1842 5.0139,54.2462 C4.6069,54.5072 4.5559,55.0562 4.6119,55.5932 C3.9339,55.3382 4.3239,53.8852 4.6019,53.4222 C4.6929,50.1542 4.8909,46.8752 5.9079,44.1622 C5.8799,44.9262 5.5519,45.9362 5.6529,46.9042 C6.5139,42.6862 6.8479,38.6332 7.8159,34.4052 C6.8989,36.0222 6.9949,37.9672 6.4459,39.9782 C6.2209,37.8302 6.9439,34.3882 8.0299,32.3192 C7.9899,32.9752 7.8199,33.4272 7.7929,34.1902 C8.3349,33.1562 8.3469,31.1992 8.6179,29.6502 C8.0079,30.0422 8.7029,31.4882 7.8659,31.7932 C8.1939,30.7812 7.9169,29.1822 8.8279,28.5432 C8.8399,28.6512 8.7429,28.7682 8.6479,28.8892 C9.4039,27.8302 9.6979,26.4962 9.8739,25.0662 C9.4789,25.4332 9.4279,25.9812 9.3759,26.5302 C8.8449,25.6092 9.4949,24.5632 9.9769,23.9702 C10.1289,24.3892 9.6879,24.3262 9.8519,24.8502 C10.6719,23.3532 10.6719,21.2902 11.4919,19.7932 C11.4699,19.5782 11.2549,19.6002 11.1579,19.7192 C10.8989,19.3122 12.1639,18.9622 11.3909,18.8252 C12.0009,18.4362 12.0179,17.5652 12.3909,16.9832 C11.8429,16.9322 12.2439,17.6492 11.7069,17.7062 C11.8429,16.9322 12.0859,16.1462 12.6859,15.6492 C12.6119,15.9822 12.4189,16.2202 12.4529,16.5422 C13.8219,13.0312 16.1169,8.0132 18.2489,4.5302 C19.6349,2.2132 22.1279,0.1032 25.2939,1.2932 C25.3609,1.9362 26.3059,1.6202 26.6509,1.8012 C28.4869,3.7802 29.1139,8.7092 28.7399,11.3552 C28.8419,12.3212 29.5939,14.3072 28.5649,14.8492 C29.3339,15.9632 28.4059,17.4732 28.2419,19.0092 C28.2649,19.2242 28.5649,18.9752 28.6939,19.1792 C27.9699,24.6852 27.9459,30.6602 25.4069,34.4022 C25.2719,35.1772 25.7239,35.3472 25.6609,35.7872 C25.7069,36.2182 25.5259,36.5622 24.9879,36.6192 C25.1859,39.5302 24.3259,41.6842 23.1219,43.6562 C23.4999,44.1592 23.2239,44.6222 23.2919,45.2672 C22.9639,46.2782 21.4649,47.5222 21.9959,48.4432 C20.6669,51.2992 19.5079,53.7012 18.0489,56.3512 C17.9759,56.6852 18.1399,57.2112 17.9469,57.4482 C17.6369,57.5902 17.6029,57.2672 17.2909,57.4092 C17.4329,57.7212 17.4549,57.9342 17.3819,58.2692 C16.8449,58.3252 16.6969,58.9912 16.3529,58.8102 C15.5319,62.3722 12.5029,64.5362 11.0259,68.0592 C9.5679,68.6452 9.1769,70.0982 8.3229,71.2732 C9.8609,71.4382 10.7099,69.1782 12.1679,68.5902 C13.3559,67.4882 14.7689,66.4702 16.0749,65.4642 C18.5689,63.3562 20.8139,60.9482 24.4929,59.8022 C25.1599,59.9482 25.5389,60.4522 25.7249,61.1912 C25.4709,61.8712 25.0979,62.4532 25.0809,63.3242 C19.1779,67.0932 14.5809,71.9202 9.3799,76.1582 C9.2889,77.3632 10.3529,77.1422 10.5379,77.8832 C16.9599,79.0552 23.1849,75.2512 28.4029,72.2042 C28.6179,72.1822 28.6289,72.2902 28.5449,72.5172 C29.1939,71.4702 30.1109,71.9162 30.5579,71.0012 C30.6649,70.9902 30.7829,71.0852 30.6879,71.2052 L30.5799,71.2162 Z" id="Fill-8" fill="#D4535E" mask="url(#mask-4)"></path>
                </g>
                <path d="M181.9707,59.8528 C181.5307,59.7898 181.3827,60.4568 181.8237,60.5188 C181.6707,60.1008 181.9937,60.0668 181.9707,59.8528 M181.7837,61.1748 C181.6997,61.4008 181.3657,61.3278 181.4947,61.5318 C181.8287,61.6048 182.1067,61.1408 181.7837,61.1748 M181.5007,64.6798 C181.2187,64.0578 181.8737,64.0978 182.1737,63.8488 C182.1117,64.2898 181.6927,64.4428 181.5007,64.6798 M180.6027,61.2988 C180.6997,61.1798 180.5797,61.0848 180.6027,61.2988 C180.3997,61.4288 180.6147,61.4068 180.6027,61.2988 M179.8557,66.5898 C179.3247,65.6688 180.6977,65.3078 181.5347,65.0018 C181.4097,65.8828 180.6927,66.2848 179.8557,66.5898 M180.8457,62.5768 C180.1167,62.8708 179.9357,63.2148 179.5737,63.9048 C180.6247,63.5778 181.0377,62.3388 181.3257,61.9838 C181.1847,61.6718 180.9077,62.1358 180.6937,62.1588 C180.7157,62.3738 180.7267,62.4808 180.8457,62.5768 M179.0757,65.3698 C178.5887,64.8768 179.0197,64.8318 179.0707,64.2838 C178.6627,64.5428 177.7297,64.9678 178.1087,65.4708 C178.2897,65.1248 178.6577,65.5218 179.0757,65.3698 M177.6517,64.2158 C178.1547,63.8368 178.6577,63.4568 178.9227,62.8868 C179.1497,62.9718 179.4267,62.5088 179.0927,62.4348 C179.1157,62.6498 178.9007,62.6718 178.9227,62.8868 C178.4197,63.2658 177.9167,63.6448 177.6517,64.2158 M177.8657,66.2558 C177.8207,65.8278 177.4977,65.8608 177.2607,65.6688 C177.2717,65.7758 177.1637,65.7868 177.1757,65.8948 C177.5097,65.9678 177.4477,66.4098 177.8657,66.2558 M175.8647,65.8158 C176.2837,65.6638 176.4637,65.3168 176.7637,65.0698 C176.5257,64.8768 175.9387,65.4818 175.8647,65.8158 C175.6607,65.9448 175.8757,65.9218 175.8647,65.8158 M177.2777,66.8608 C177.1927,65.0248 175.6657,67.0308 175.5077,67.5898 C176.3787,67.6078 176.5547,66.1768 177.2777,66.8608 M174.5807,67.0368 C174.2587,67.0708 174.1627,67.1878 174.1747,67.2958 C174.3887,67.2738 174.4847,67.1548 174.5807,67.0368 M172.6987,70.8178 C172.6867,70.7098 172.6867,70.7098 172.6757,70.6028 C172.5677,70.6138 172.5677,70.6138 172.4607,70.6248 C172.4717,70.7328 172.4717,70.7328 172.4837,70.8398 C172.5897,70.8288 172.5897,70.8288 172.6987,70.8178 M170.8097,71.4508 C170.4887,71.4848 170.1767,71.6248 170.2217,72.0548 C170.6517,72.0098 170.9617,71.8688 170.8097,71.4508 M170.5777,70.2808 C170.1597,70.4338 169.8497,70.5738 169.8947,71.0028 C170.3247,70.9578 170.3867,70.5178 170.5777,70.2808 M173.6367,69.4158 C172.2517,69.6708 171.5787,70.4998 170.9067,71.3318 C171.3587,71.5008 171.4317,71.1678 171.7877,71.4568 C171.9117,70.5758 172.6187,70.0658 173.5627,69.7488 C172.7377,72.2248 170.3007,72.8068 169.0117,75.0058 C170.5217,73.8708 172.1497,72.8308 173.2917,71.2978 C172.9477,71.1178 172.9177,71.8798 172.7657,71.4618 C173.1507,70.9878 174.6547,70.8298 174.3607,70.0998 C174.3087,70.6478 173.8347,70.2638 173.8007,69.9418 C174.0887,69.5848 174.9037,69.0658 174.5247,68.5618 C175.0617,68.5048 175.2077,67.8378 175.5537,68.0208 C175.3667,67.2798 174.6837,68.0018 174.3717,68.1448 C174.3947,68.3598 174.5017,68.3478 174.5247,68.5618 C173.9877,68.6188 173.6997,68.9758 173.6367,69.4158 M167.1577,75.9598 C167.1917,76.2838 166.5127,76.0288 166.7727,76.4368 C166.0717,75.9668 167.3047,75.2938 167.8187,75.0228 C167.8647,75.4528 166.6827,75.5778 167.1577,75.9598 M164.3247,76.9108 C164.3357,77.0168 164.3477,77.1248 164.3597,77.2328 C164.3597,77.2328 164.2517,77.2448 164.1447,77.2548 C164.1327,77.1478 164.1207,77.0398 164.1107,76.9328 C164.2177,76.9218 164.3247,76.9108 164.3247,76.9108 M163.0807,79.5388 C162.9397,79.2288 163.2737,79.3008 163.4887,79.2788 C163.3917,79.3978 163.2957,79.5158 163.0807,79.5388 M161.6847,79.6848 C161.9497,79.1148 162.4427,78.6278 162.9457,78.2488 C162.7977,78.9158 162.1877,79.3078 161.6847,79.6848 M161.0567,80.9458 C161.0687,81.0538 161.0687,81.0538 161.0787,81.1608 C160.7347,80.9798 160.7687,81.3018 160.5317,81.1108 C160.5087,80.8948 160.8527,81.0778 160.8297,80.8618 C160.9267,80.7428 160.9387,80.8498 161.0567,80.9458 M160.1237,81.3698 C160.4577,81.4438 160.5987,81.7538 160.6447,82.1848 C160.3107,82.1108 159.7287,81.7388 160.1237,81.3698 M159.3607,81.3408 C159.5747,81.3188 159.7057,81.5228 159.6317,81.8558 C159.5247,81.8678 159.5137,81.7608 159.4067,81.7718 C159.3947,81.6638 159.3717,81.4488 159.3607,81.3408 M159.3317,82.1048 C159.0217,82.2468 159.0617,81.5898 159.4067,81.7718 C159.4167,81.8778 159.3217,81.9978 159.3317,82.1048 M161.7007,80.8778 C161.8307,81.0818 161.3167,81.3528 161.7577,81.4148 C161.7237,81.0928 162.1767,81.2628 162.0237,80.8438 C161.9157,80.8558 161.8087,80.8668 161.7007,80.8778 C161.8707,80.4268 161.0627,79.9688 161.9097,79.7698 C162.1487,79.9618 161.9547,80.1998 161.8707,80.4268 C162.2777,80.1658 162.4917,80.1438 162.3337,80.7038 C163.3517,80.0528 164.0017,79.0068 165.0317,78.4658 C164.9867,78.0358 164.3537,78.2108 164.2117,77.8988 C164.3927,77.5538 164.5737,77.2098 165.0027,77.1648 C165.1327,77.3688 164.4047,77.6628 164.8667,77.9398 C166.2857,78.0078 166.5577,76.4588 167.8127,76.0008 C167.5527,75.5928 168.0567,75.2148 167.9887,74.5708 C168.6217,74.3958 170.0017,73.0558 170.1587,72.4968 C170.1937,72.8188 169.8707,72.8528 169.7297,72.5408 C169.6957,72.2188 170.2557,72.3768 170.1147,72.0668 C169.2997,72.5858 168.3567,72.9028 168.1237,73.7958 C168.1467,74.0108 168.4467,73.7618 168.4687,73.9768 C168.2657,74.1078 168.1807,74.3328 167.7507,74.3778 C167.0497,73.9098 165.1677,75.6258 164.7207,76.5428 C164.9357,76.5208 165.3427,76.2608 165.3767,76.5828 C165.1617,76.6058 165.1847,76.8208 164.9687,76.8428 C164.7427,76.7568 164.5057,76.5658 164.0877,76.7178 C163.7877,76.9668 163.7927,78.0528 163.4377,77.7638 C163.4147,77.5488 163.7477,77.6228 163.6077,77.3118 C162.6967,77.9508 160.6607,79.2498 161.2997,80.1608 C159.5137,79.6968 158.8347,81.5048 159.0037,83.1168 C159.5527,83.1668 159.1517,82.4498 159.6997,82.4998 C159.7337,82.8238 159.5307,82.9528 159.9707,83.0148 C160.1627,82.7788 160.2377,82.4438 160.6667,82.3988 C160.6557,82.2908 160.6447,82.1848 160.6447,82.1848 C161.2777,82.0088 161.1867,81.1498 161.7007,80.8778 M158.2587,82.2178 C158.2587,82.2178 158.2467,82.1108 158.2367,82.0028 C158.1277,82.0138 158.1277,82.0138 158.0207,82.0258 C158.0327,82.1328 158.0427,82.2408 158.0427,82.2408 C158.1507,82.2288 158.1507,82.2288 158.2587,82.2178 M157.2057,84.6088 C157.5177,84.4678 157.6357,84.5638 157.6697,84.8858 C158.3877,84.4848 159.3827,83.6208 159.4337,83.0718 C159.2417,83.3088 159.1577,83.5358 158.8457,83.6758 C158.7787,83.0318 158.7557,82.8168 158.3997,82.5288 C158.2187,82.8738 158.6707,83.0428 158.3707,83.2918 C158.2637,83.3028 158.0997,82.7778 158.0367,83.2178 C158.2637,83.3028 158.0087,83.9818 157.7947,84.0038 C157.7607,83.6818 157.4277,83.6078 157.3937,83.2868 C157.7037,83.1448 157.7557,82.5958 157.9357,82.2508 C157.4097,82.4148 157.3367,82.7488 156.9177,82.9018 C156.9127,83.8788 157.7727,83.7898 157.2057,84.6088 M152.7007,82.0408 C152.9097,82.9988 152.7857,83.8788 153.1757,84.4898 C153.2157,83.8328 152.9837,82.6638 152.7007,82.0408 M151.6317,87.3678 C151.9537,87.3328 152.0387,87.1058 152.1357,86.9888 C152.4577,86.9548 152.5427,86.7278 152.6267,86.5018 C152.3047,86.5368 152.2197,86.7618 152.1357,86.9888 C151.8017,86.9138 151.7167,87.1398 151.6317,87.3678 M151.4627,87.8188 C151.3557,87.8298 151.1407,87.8518 151.0337,87.8638 C151.0437,87.9718 151.0667,88.1868 151.1737,88.1748 C151.1627,88.0668 151.4857,88.0338 151.4627,87.8188 M149.3147,90.1078 C149.4207,90.0958 149.6357,90.0738 149.7427,90.0628 C149.7327,89.9568 149.7207,89.8478 149.6987,89.6328 C149.5907,89.6438 149.4837,89.6558 149.3757,89.6658 C149.3877,89.7748 149.3987,89.8808 149.2917,89.8928 C149.2917,89.8928 149.3027,90.0008 149.3147,90.1078 M148.3247,92.0578 C148.3357,92.1658 148.4437,92.1548 148.5507,92.1428 C148.3747,91.5098 149.0087,91.3338 149.0597,90.7868 C148.5447,91.0568 148.1497,91.4248 148.1097,92.0808 C148.2167,92.0698 148.3247,92.0578 148.3247,92.0578 M153.6637,106.7018 C157.4297,103.2638 157.1757,95.6878 155.0967,90.3688 C155.0967,90.3688 155.0857,90.2618 154.9787,90.2738 C151.2417,95.0088 146.2487,100.2038 147.0097,108.4858 C149.1017,109.7868 151.9287,107.7508 153.6637,106.7018 M147.6057,92.4588 C147.3637,93.2458 146.6337,93.5398 146.5087,94.4208 C147.1197,94.0308 147.9007,93.1888 147.6057,92.4588 M145.9777,95.5618 C145.4407,95.6188 145.5077,96.2638 145.3277,96.6088 C145.7457,96.4568 145.9267,96.1108 145.9777,95.5618 M144.7957,97.7498 C145.3327,97.6948 145.2877,97.2638 145.3507,96.8238 C145.0167,96.7488 144.8137,96.8798 144.8357,97.0948 C145.5027,97.2408 144.7507,97.3198 144.7957,97.7498 M144.9257,97.9548 C144.7217,98.0828 144.4957,97.9988 144.6377,98.3108 C144.8527,98.2878 144.9497,98.1688 144.9257,97.9548 M144.1577,98.9028 C144.2977,99.2138 143.9767,99.2478 144.1167,99.5588 C144.4507,99.6328 144.3607,98.7738 144.1577,98.9028 M175.1917,66.6468 C175.2987,66.6348 175.2877,66.5268 175.3957,66.5158 C175.4687,66.1828 175.1587,66.3248 174.9437,66.3468 C177.5607,63.3568 180.4497,60.8798 183.0787,57.9978 C183.2087,58.2018 183.3387,58.4058 183.6607,58.3728 C183.3167,60.2538 182.8187,61.7178 181.2857,62.6388 C181.1167,63.0908 181.5237,62.8318 181.7397,62.8088 C181.3767,63.4988 180.8227,64.4248 180.2627,64.2668 C179.9517,64.4078 180.3927,64.4708 180.3197,64.8038 C179.1827,65.3578 178.5727,65.7488 178.1597,66.9868 C176.6667,67.2498 175.6437,68.8788 174.4337,69.7668 C175.4567,70.2028 175.5987,68.4498 176.8867,68.3138 C177.0297,68.6248 176.6957,68.5508 176.7297,68.8738 C177.0517,68.8388 177.0057,68.4108 177.5537,68.4608 C177.5087,68.0328 177.1877,68.0658 177.3567,67.6128 C178.3677,67.9418 178.5547,66.6188 179.5217,66.5168 C179.5447,66.7318 179.5677,66.9458 179.6007,67.2688 C178.9557,67.3368 178.6167,68.2418 178.0457,67.9758 C178.0687,68.1898 178.1997,68.3928 178.3067,68.3818 C176.1067,71.2198 172.5507,73.5478 170.0907,75.9788 C169.9837,75.9908 169.9607,75.7758 169.8427,75.6778 C166.0597,79.9868 160.9717,83.2348 157.4257,87.7348 C158.2567,92.5348 160.7427,97.5948 160.5677,103.1518 C160.3287,105.0218 159.4917,107.3918 158.5027,109.3408 C156.4497,111.5108 153.0697,114.4738 148.9487,113.4958 C145.8677,112.0818 144.1327,109.0058 142.7937,105.5628 C142.4207,104.0818 142.0927,103.0298 142.3877,101.6958 C144.1807,94.9918 148.5387,89.9718 152.7697,84.7488 C152.7517,83.5578 152.3167,82.5168 152.2877,81.2158 C152.3967,81.2048 152.6107,81.1818 152.7177,81.1708 C151.7857,77.4678 152.1317,73.5218 151.7087,68.4618 C153.0427,64.6298 153.4007,60.7908 156.3967,58.3048 C158.5277,58.9498 161.0037,59.7748 160.5117,62.3248 C159.1037,62.3638 158.5277,63.0768 157.9387,63.6808 C155.4907,70.3458 155.1267,75.1628 156.6247,82.1718 C160.6267,78.9288 164.6477,74.8138 168.6957,71.9988 C168.6727,71.7838 168.4577,71.8058 168.5427,71.5808 C169.7867,71.0148 169.9737,69.6928 171.6807,69.4038 C171.6577,69.1898 171.4317,69.1038 171.6357,68.9748 C172.0657,68.9298 171.6467,69.0818 171.7877,69.3928 C172.9757,68.2908 173.2807,67.0638 174.9437,66.3468 C174.9537,66.4548 174.9767,66.6688 175.1917,66.6468" id="Fill-11" fill="#D4535E"></path>
            </g>
        </g>
    </g>
</svg>