<?xml version="1.0" encoding="UTF-8"?>
<svg width="219px" height="101px" viewBox="0 0 219 101" version="1.1" xmlns="http://www.w3.org/2000/svg" xmlns:xlink="http://www.w3.org/1999/xlink">
    <!-- Generator: Sketch 51.3 (57544) - http://www.bohemiancoding.com/sketch -->
    <title>logo_pink</title>
    <desc>Created with Sketch.</desc>
    <defs>
        <linearGradient x1="50.7578127%" y1="244.519384%" x2="50.7578127%" y2="10.1212022%" id="linearGradient-1">
            <stop stop-color="#851C21" offset="0%"></stop>
            <stop stop-color="#FC6B7C" offset="100%"></stop>
        </linearGradient>
    </defs>
    <g id="logo_pink" stroke="none" stroke-width="1" fill="none" fill-rule="evenodd" opacity="0.989229911">
        <g id="logo">
            <path d="M148.256931,91.8898 C142.554333,89.7803572 143.37318,84.0379294 145.832758,79.5351383 C148.726289,74.2374119 153.54176,70.3210239 158.677891,67.2764517 C162.536439,64.9891284 166.764707,62.7666259 171.215009,62.1214318 C170.68243,64.9695313 170.039591,67.7955214 169.245021,70.5732726 C166.824388,79.0351632 160.315587,96.3503821 148.256931,91.8898 M170.765882,39.4692925 C169.971818,40.8792726 166.517383,47.3025711 164.667263,44.7539542 C163.06649,42.5485363 165.48257,37.3940189 166.607917,35.3001532 C168.082753,32.5570736 170.811908,29.9205214 174.071113,29.8727851 C174.06555,29.8948945 174.055434,29.9129841 174.050882,29.935596 C173.350386,33.289198 172.458201,36.4619045 170.765882,39.4692925 M132.826788,38.3110587 C132.395363,39.5426557 131.946236,40.7807851 131.26597,41.9033423 C131.063155,42.2374965 129.838171,43.428392 130.069815,43.7811383 C129.058268,42.9922328 130.394522,38.0738846 130.638305,37.2101085 C130.955931,36.0850388 132.945644,31.0013721 135.045111,31.3154269 C134.094762,33.5655662 133.634508,36.0051433 132.826788,38.3110587 M62.9683164,41.0842876 C62.6021363,42.1189095 60.9320716,45.7192328 59.932157,44.3665363 C58.5539238,42.50281 59.7217552,37.9598199 60.5193603,36.1151881 C61.5071363,33.8323871 62.8125381,32.2018149 64.7966882,31.5631532 C64.4704642,34.7946507 64.0587644,38.0000189 62.9683164,41.0842876 M37.0357829,83.7213622 C36.845612,85.6348348 36.5133187,87.527203 36.0333395,89.3904269 C35.8497436,90.1029542 35.6803095,90.8471383 35.3778568,91.5209741 C35.3556028,91.5712229 35.0465751,92.0425562 34.7683995,92.4500736 C34.5787344,92.0189393 34.179679,91.5038896 34.0350277,91.1049144 C33.4260762,89.4230886 33.4053395,87.5960438 33.6546859,85.8418597 C34.217612,81.8772328 35.7035751,77.9166259 37.560776,74.1519891 C37.49806,77.3553473 37.3508799,80.5511682 37.0357829,83.7213622 M34.8629792,92.7299592 C34.852358,92.6706657 34.8341501,92.6083572 34.809873,92.5435363 C34.9631224,92.4334915 35.1108083,92.4847453 35.1831339,93.0359741 C35.1689723,92.9264318 34.8872564,92.8651284 34.8629792,92.7299592 M217.768947,39.0662975 C216.881314,36.7010886 212.542788,36.7704318 212.925658,39.7175214 C213.741977,45.9991184 210.259725,51.9586209 204.997656,55.3041831 C199.016882,59.1065065 192.236986,59.8054667 185.473275,57.9382229 C183.13306,57.2925264 180.823192,56.5548746 178.457182,56.0614318 C178.468815,55.9393274 178.482977,55.8167204 178.494104,55.6941134 C178.886584,51.532009 179.12885,47.3297055 179.120758,43.148004 C179.114688,39.6773224 178.656963,36.1046358 178.692873,32.6138547 C178.746485,31.9334866 178.77582,31.2521134 178.772279,30.5702378 C178.8704,29.3094965 177.943822,28.5185811 176.882203,28.3035164 C176.82151,27.9884567 176.617178,27.6934965 176.208513,27.491999 C171.066312,24.9554418 165.796656,27.292009 162.525818,31.593805 C160.012628,34.8996706 157.60464,39.8034468 157.99712,44.2288547 C157.741704,43.1866955 157.872194,41.9681632 157.931875,40.9290189 C158.074503,38.4482378 158.548413,35.995596 158.352679,33.5017502 C158.094229,30.2059343 156.226406,26.319193 152.241921,26.9854915 C148.541176,27.6045562 146.697125,31.8123871 145.860575,34.9891134 C145.230887,37.3799493 144.769115,39.8205313 144.325046,42.2500587 C144.153589,43.1887055 143.939141,44.1660438 143.797524,45.1479045 C143.738349,45.0961483 143.681196,45.0413771 143.629607,44.9805761 C143.201217,44.4765811 143.099557,43.632402 142.917478,43.0198697 C141.799718,39.2542279 141.241344,35.3860786 140.748215,31.4998398 C140.737594,31.4169294 140.715339,31.3380388 140.697637,31.2571383 C140.680441,31.0948348 140.67336,30.9345413 140.649589,30.7712328 C140.617725,30.7752527 140.585861,30.7797751 140.554503,30.783795 C140.035074,29.4813473 138.645714,28.5793821 137.381279,28.7632925 C133.970848,25.1227701 129.119467,28.5929493 126.832358,31.8219343 C124.519961,35.086596 122.696141,40.2622179 123.422938,44.4906507 C122.621792,44.6348647 121.828739,44.7057154 121.246088,44.1042378 C119.826381,42.6379791 121.135323,39.1843821 121.510102,37.5357204 C122.337547,33.8957005 122.955097,27.7598249 117.562538,27.6804318 C115.002312,27.6422428 112.765781,29.1778448 110.890372,31.0561433 C111.173605,29.8662527 111.450263,28.6743522 111.713266,27.4794368 C113.300889,20.2642179 115.110547,13.1359294 114.850074,5.70614826 C114.822762,4.92930249 113.700956,4.53183483 113.303924,5.29008856 C109.878319,11.8289592 108.212806,18.9145363 106.099684,25.9418249 C104.971303,29.6938995 103.881866,33.4575313 102.828845,37.2312129 C102.032758,36.5196905 100.927136,36.3734667 99.7446374,36.9005761 C96.6761085,38.2683473 93.7244134,47.167402 89.4035889,44.6705413 C89.0237529,44.4509542 88.6919654,44.1886557 88.3976051,43.8947005 C88.3890069,43.8364119 88.3859723,43.7796308 88.3758568,43.7208398 C88.2261478,42.8424915 87.7360531,42.1952876 87.0846166,41.773198 C85.7873072,38.239203 86.9045612,33.0299144 87.5559977,30.0823224 C88.7986836,24.460994 90.9871663,19.1175413 93.6267991,14.0102577 C95.8228684,9.76273035 100.17758,3.2479791 105.99246,5.86392935 C107.305954,6.45485473 108.532455,4.9976408 107.543667,3.86654129 C101.875462,-2.62308557 93.4406744,3.0017602 89.7642055,8.5648 C85.2309561,15.4232527 81.5828106,23.5851582 79.977485,31.6465662 C79.1591432,35.7538995 78.8855196,40.6320488 80.2248083,44.6926507 C79.9638291,44.8861085 79.6725035,45.0484119 79.3225081,45.1519244 C77.990806,45.5453721 77.0197206,45.0087154 76.2393118,43.9052527 C73.6128291,40.1923721 73.4256928,34.3132677 72.6260647,30.0014219 C72.2740462,28.1020189 70.0714018,26.9166507 68.2819746,27.1839741 C67.8773557,27.2442726 67.5076351,27.3543174 67.1718014,27.5045612 C64.1816674,25.0629741 58.6297898,28.240203 56.4822748,30.9807701 C54.0995751,34.0208199 52.3389769,38.2849294 52.175612,42.4178896 C49.7256443,44.4082428 47.4193164,46.5980836 45.2586513,48.9321383 C45.0578591,43.4158299 44.7973857,37.9015313 44.510612,32.3912527 C44.3007159,28.3648199 38.1151039,27.1050836 37.1283395,31.3988398 C36.3560231,34.7619891 35.377351,38.076397 34.0850993,41.2807602 C33.1610508,43.571601 31.8435104,47.75481 29.6282217,49.1838846 C26.9187921,50.9320388 27.4579469,45.5694915 27.4083811,44.2208149 C27.3234111,41.9028398 27.5464573,39.6215463 27.7290416,37.3367353 C28.2216651,36.4498448 28.6712979,35.550392 29.057709,34.6343572 C30.409642,31.4264766 25.6204711,29.167795 23.4309769,31.3802478 C21.6349746,33.1942279 20.3523326,35.5323025 18.9432471,37.6477751 C17.4992633,39.8155065 16.0588199,41.9857502 14.614836,44.1529791 C13.6670162,45.5760239 9.84488453,52.0510786 7.25987529,49.67381 C6.2088776,48.7065214 7.53906236,45.7081781 7.89664434,44.5951682 C8.56932333,42.5013025 9.41497691,40.4802975 10.3931432,38.5095413 C12.3257044,34.6177751 14.6552979,30.9390637 16.9327968,27.2417602 C20.9744342,20.6807801 27.701224,11.2189393 22.9135704,3.41329751 C17.7066305,-5.07673234 6.44810855,4.08009851 7.56637413,11.6440438 C7.79093764,13.1620587 9.80391686,12.9967403 10.5130115,12.0269393 C11.8067806,10.2566756 12.6509169,8.25828259 14.476254,6.91714328 C15.0725612,6.47897413 16.4244942,5.49962587 17.2352494,5.83026269 C18.1021455,6.18401393 18.2665219,7.9266408 18.3140647,8.67886468 C18.5674573,12.704795 15.7467575,16.7427851 13.7342841,20.016994 C9.20204619,27.3904965 3.87624942,34.4398945 1.16884296,42.7525463 C-0.0682794457,46.5498448 -1.02368591,51.247601 2.10654734,54.4308597 C4.79524018,57.1648945 9.1595612,57.5297005 12.5598776,56.0403274 C16.2874296,54.4072428 18.5446975,50.9491234 20.7266051,47.7025512 C20.8232079,47.5583373 20.9228453,47.4141234 21.0214711,47.2699095 C21.0280462,52.4309592 22.9783095,56.7794866 28.7921778,56.6186905 C32.7893072,56.5081433 35.5144157,53.8263672 37.4930023,50.7039095 C37.5223372,53.2570488 37.5410508,55.8106905 37.5390277,58.3648348 C37.5390277,58.4678448 37.5400393,58.5718597 37.5400393,58.6753721 C36.87697,59.6476856 36.2331201,60.6290438 35.6110185,61.6174368 C30.9346351,69.042193 26.2162725,78.0683771 25.7135335,86.9669294 C25.4667159,91.3310338 26.5490716,96.4488697 30.1264088,99.3261134 C33.833224,102.30687 38.7023072,101.075273 41.4041501,97.4548498 C44.2592425,93.6289095 44.8282379,88.3276657 45.2601686,83.7213622 C45.7295266,78.7261333 45.6460739,73.6726159 45.6486028,68.6613075 C45.6501201,66.1443473 45.6243256,63.6273871 45.5838637,61.1104269 C48.4308637,57.3653871 51.603582,53.9595264 54.9715289,50.6481333 C58.3485797,53.6479841 64.1138938,52.8063174 67.3361778,49.3572428 C68.0098684,48.6356706 68.5829099,47.8512876 69.0886836,47.0267055 C70.1543487,49.0869045 71.6423349,50.9008846 73.7256166,52.077208 C77.1244157,53.996208 81.932806,53.4007602 85.1272725,51.1013771 C85.8975658,51.5666806 86.7528291,51.9636458 87.7137991,52.2706657 C91.8338314,53.5871831 95.8183164,52.0199244 98.8747067,49.2170488 C99.2145866,48.9055065 99.5706513,48.5592925 99.9312679,48.1849393 C99.7036697,51.0335413 104.108453,52.9726408 105.424982,49.9778149 C107.337818,45.6262726 109.271896,41.3269891 112.262536,37.5749144 C113.025748,36.6176756 113.861792,35.7126955 114.745885,34.864999 C115.045808,34.5770736 116.086691,33.9735861 116.682998,33.5258697 C116.540875,34.0760935 116.465009,34.6524468 116.319852,35.2036756 C115.987559,36.4634119 115.528822,37.6864667 115.227887,38.9547453 C114.269446,42.9952478 114.725148,47.9181184 118.828995,50.0531881 C121.069067,51.2184567 124.51288,50.9702279 126.101515,49.1979542 C129.06636,51.3028746 133.588988,50.0848448 136.118363,46.9533423 C136.454196,46.5372826 136.75058,46.095596 137.028249,45.6413473 C137.749483,48.074392 138.990145,50.3285512 141.657596,51.067208 C142.994356,51.4375413 144.620924,50.8315413 145.296637,49.5959244 C145.318386,49.5567303 145.334065,49.5175363 145.354296,49.4783423 C145.452921,49.430606 145.548007,49.3718149 145.63146,49.288402 C148.379834,46.5468299 149.215878,41.3445761 150.355891,37.7522925 C150.579443,37.047805 150.783776,36.3277403 151.06448,35.6423473 C151.350748,34.9423821 151.935928,34.2765861 152.321834,33.6178249 C152.355215,34.3725612 152.524649,35.3614567 152.496831,35.8157055 C152.271256,39.4939144 150.935508,43.9117851 152.706727,47.409601 C154.009095,49.9818348 158.042134,51.7048647 159.999478,49.1904169 C161.386815,50.8456109 163.40991,51.9862577 165.630256,51.9274667 C168.729637,51.8455612 171.05215,49.754208 172.839048,47.4467851 C172.920478,47.3417652 172.997356,47.2332279 173.077268,47.1267005 C172.976113,48.4959791 172.867372,49.8647552 172.735365,51.2305164 C172.595266,52.6756706 172.429878,54.1213274 172.244259,55.5659791 C169.625868,55.751397 167.037824,56.4227204 164.602524,57.3653871 C158.311206,59.8019493 152.239898,63.4731234 147.231727,67.9809393 C142.429406,72.3028348 138.095938,78.3769045 137.52846,84.9680338 C137.022686,90.8476408 140.534778,95.72579 145.967293,97.8226706 C151.51563,99.9637701 157.570247,98.8045313 162.26939,95.3122428 C167.448513,91.4626856 170.541824,85.7016657 172.908339,79.8577353 C175.181792,74.2424368 176.690515,68.3713721 177.64491,62.4068448 C183.634282,63.7193423 189.013185,66.0639493 195.348506,65.4358398 C207.507811,64.2308746 222.946046,52.8666159 217.768947,39.0662975" id="Fill-1" fill="url(#linearGradient-1)"></path>
            <path d="M215.612452,24.4236349 C215.245109,24.2005436 214.826279,24.0838576 214.402003,24.0550717 C213.734153,23.9255348 213.024716,24.0201173 212.423205,24.3855963 C211.799416,24.7644403 211.294443,25.444509 211.102851,26.1682706 C210.965716,26.6966988 210.965716,27.2256411 211.102851,27.7540693 C211.238995,28.259366 211.485541,28.6983521 211.841497,29.0705136 C211.948927,29.2103312 212.323696,29.4966488 212.473702,29.586091 C212.634105,29.6817015 213.01432,29.8482489 213.19106,29.8981104 C213.724251,30.0487227 214.30695,30.0219929 214.838161,29.8857735 C216.094651,29.5629594 217.020928,28.2516555 216.99964,26.9254445 C216.983798,25.9189635 216.454567,24.9351 215.612452,24.4236349" id="Fill-4" fill="#FC6C7D"></path>
        </g>
    </g>
</svg>