<svg height="162" viewBox="0 0 234 162" width="234" xmlns="http://www.w3.org/2000/svg" xmlns:xlink="http://www.w3.org/1999/xlink"><mask id="a" fill="#fff"><path d="m0 .0119899h64.468v121.9879221h-64.468z" fill="#fff" fill-rule="evenodd"/></mask><mask id="b" fill="#fff"><path d="m.5802.77637777h32.0038v136.58322223h-32.0038z" fill="#fff" fill-rule="evenodd"/></mask><g fill="#cfa56b" fill-rule="evenodd" transform="translate(0 -1)"><path d="m62.529 56.9665c.015.143-.112.3-.112.3.344.54.553-.202.112-.3zm-.151 9.507s.142-.015.284-.03l.031.285c-.143.014-.285.029-.285.029s-.015-.143-.03-.284zm.03-5.18c-.014-.142-.029-.285-.029-.285s-.142.015-.285.03c0 0 .016.143.03.285.142-.015.284-.03.284-.03zm.219-10.231c-.186-.412.135-1.453-.561-1.237-.097.442.09.854-.135 1.454.3.111.412-.188.696-.217zm-.534 15.441c-.015-.142-.03-.285-.03-.285l-.284.029s.015.143.03.285zm-.291-6.872c-.097.441-.352.756-.307 1.183.585.082.607-1.071.307-1.183zm.205-10.375c.568-.06.456.239.71-.075.008-1.295-1.452-.135-1.25.42.457.24.412-.188.54-.345zm-.399 8.526c-.187-.412-.366-2.118.016-2.589.643.651.164 1.564-.016 2.589zm-.216-3.427c.456.238.426-.045.696-.218.015.142.03.284.187.411-.255.314-.838.232-.883-.193zm.021 7.043c-.03-.286-.142.015 0 0 .172.269.284-.03 0 0zm-.131-25.869c.285-.031.315.253.427-.045-.015-.143-.3-.112-.427.045zm.31 27.575c.045.427-.366.614-.321 1.04.583.084 1.048-.973.321-1.04zm.43-21.902c-.478.914.097 2.291-.053 3.602-.441-.099-.246-.981-.672-.936-.099.44.074.711.006 1.436.427-.044.681-.359.884.195-.255.315-.278 1.467.291 1.406.12-1.592.024-3.882-.089-6.316-.426.045-.329-.396-.74-.21-.016-.142-.031-.285-.045-.427-.143.016-.284.03-.284.03-.113.3.186.412.329.397-.083.585.329.398.373.823zm-.801 4.686c.045.427.09.853.374.824-.045-.428-.089-.853-.374-.824zm.05 12.793c-.03-.284-.045-.428-.075-.711.442.097.929.621.075.711zm.471 5.846c-.442-.098-.936.673-.337.897.112-.298.367-.613.337-.897zm-.206-23.848c-.426.044-.539.344-.494.769.427-.045.382-.47.494-.769zm-.217 2.035s-.015-.142-.03-.284c0 0-.142.015-.285.03.015.143.03.283.03.283.142-.013.285-.029.285-.029zm-.34 17.291c.03.285.075.711.344.539-.029-.284-.187-.412-.344-.539zm1.074-21.25c-.344-.539-.546-1.094-.876-1.49-.082.584-.689 1.654.194 1.849.128-.157-.373-.823.054-.868.156.126.074.711.628.509.03.283.142-.016 0 0zm-1.182-3.039c.141-.016.314.255.427-.045-.143.015-.315-.254-.427.045zm.191 23.705c.479-.913.913.481 1.436-.008-.702-1.22.084-3.314-.223-4.865.382-.471.262-1.608-.688-1.077-.09-.854.831-1.669-.255-2.418-.113 3.032-.345 4.926-.629 7.687.284-.03.314.255.359.681-.284.03.014.143 0 0zm.123-26.184s-.015-.14-.03-.283c-.299-.113-.358-.681-.673-.937.232.84-.36 2.053.823 2.359.068-.726-.786-.637-.12-1.139.173.27.285-.029 0 0zm-.723 34.157c.014.14.029.283.044.426.599.224.494-.772-.044-.426zm1.242-1.858c-.426.045-.853.09-1.04-.32-.502-.668.704-1.514-.179-1.709-.308 1.184-.158 2.605.501 3.4.509-.629.366-.615.718-1.371zm-1.452 2.598c.045.427.216.696.374.824.382-.472.068-.726-.374-.824zm-.032-39.971c.045.426.218.697.36.682-.03-.285.052-.869-.36-.682zm.254 2.418c-.096.442-.366.614-.321 1.04.741.21.621-.928.321-1.04zm-.301 13.548c.457.239.367-.614.083-.585.015.143.03.285-.128.158.015.142.03.285.045.427zm.059 8.765c.554-.201-.232-.838 0 0-.27.172.03.285 0 0zm.337-3.63c-.015-.143-.03-.285-.045-.427-.142.016-.285.03-.427.045.015.142.03.284.045.427.142-.015.285-.03.427-.045zm-.644 4.811c.284-.029.314.256.426-.045-.014-.14-.299-.111-.426.045zm.494 1.963c.239-.457-.218-.697.007-1.295-.554.202-.809.516-.764.944.554-.203.202.552.757.351zm-.063 15.824c-.426.045-.329-.398-.741-.208.045.425.09.851.517.806-.03-.285.096-.441.224-.598zm-.39 1.766c.584.082.195-.883-.029-.284-.015-.142-.031-.285-.045-.427-.142.016-.285.029-.285.029-.112.301.188.413.33.398 0 0 .014.142.029.284zm-.395-5.135c.823-.374.718-1.37.756-2.381-.142.016-.284.031-.427.045.217.697.09.854-.509.629.359.682.09.854.18 1.707zm-.24-44.694c.045.426-.21.741.374.823.127-.156.195-.883-.374-.823zm.845 46.356c-.239.457-.396.329-.838.233-.067.725.629.51 1.198.449-.36-.682.18-1.025.105-1.738-.966.39-.412.187-1.183-.306.217.696-.352.756-.15 1.31.187.412.681-.36.868.052zm-.659 1.938c-.014-.141-.014-.141-.03-.283-.142.014-.284.029-.426.045.015.142.015.142.03.283.142-.015.284-.029.426-.045zm.594-12.141c-.203-.552-.232-.838-.165-1.564-.284.029-.396.33-.568.059-.203-.552.135-1.452-.18-1.706-.748 1.084.823 2.358.06 3.301.329.398.284-.03.853-.09zm-.906.959c-.015-.142-.188-.412-.456-.24.015.143.045.426.187.412.141-.015.126-.157.269-.172zm-.682 5.823c-.142.015-.142.015-.128.158-.142.014-.172-.271-.201-.555.284-.029.299.113.329.397zm-.084 14.245s-.015-.143-.031-.284c0 0-.142.014-.284.029l.03.285c.143-.016.285-.03.285-.03zm.112-50.915c-.015-.143-.172-.27-.457-.24.03.285.06.57.203.555.127-.159.112-.3.254-.315zm-.539 48.226c.142-.014.427-.045.412-.185-.143.013-.427.044-.412.185zm.114-8.494c.014.142.029.284.045.426 0 0-.143.015-.285.029-.015-.14-.03-.283-.044-.426.142-.013.284-.029.284-.029zm-.421 6.945c.03.286-.239.457.06.569-.015-.141.24-.456-.06-.569zm-.147-17.814c.03.284.06.569-.052.868.457.239.322-1.04.052-.868zm2.423 14.843c-.142.014-.285.03-.285.03-.253.314-.111.3.061.568-.427.045-.951.532-1.153-.021.128-.158.337-.899-.09-.854-.067.727-.457-.24-.838.232.075.712.584.083.614.368-.083.583-.15 1.309-.861 1.384.202.553.546 1.093 1.115 1.032.21-.74.86-1.385 1.213-2.141.127-.156.112-.298.224-.598zm-2.587-13.675c.06.568-.052.867-.165 1.167.583.083.734-1.228.165-1.167zm.06-4.896s-.157-.128-.299-.112c-.015-.142-.015-.142-.03-.284.412-.188.314.254.329.396zm-.116 24.889c.06.568-.719 1.37-.09 1.878-.12-1.137 1.341-2.297.539-3.076.03.285-.097.442-.382.472-.673-.937.876-1.244 1.086-1.984-1.677.465-1.444 1.303-1.594 2.612.142-.014.426-.044.441.098zm-.357-17.074c.188.411-.494.77.09.852.143-.015.352-.755-.09-.852zm-.003 21.856c-.03-.284-.045-.425-.329-.396.03.285.06.57.202.555-.015-.144-.03-.286.127-.159zm-.123-24.431c-.128.157-.269.172-.255.314.127-.157.284-.029.255-.314zm.822 10.554c-.472-.381-.644-.652-1.213-.591.239-.456.509-.629 1.078-.688.202.553.06.568.135 1.279zm-1.085-6.213c-.098.442-.038 1.01-.15 1.31.584.083.607-1.069.15-1.31zm.65 7.553c-.285.029-.711.074-.696.216-.442-.097.082-.583.052-.868.172.271.599.226.644.652zm-.725-5.532c.412-.187-.217-.696 0 0-.554.202.232.839 0 0zm.2 11.482c-.015-.141-.03-.284-.03-.284-.142.016-.284.03-.427.045 0 0 .016.143.03.284.142-.014.285-.03.427-.045zm-.747-12.575c-.456-.24.195-.883-.149-1.422.727.068.09.854.149 1.422zm.105 3.729c-.015-.143-.03-.285-.045-.428-.143.016-.284.03-.284.03.014.143.029.284.044.427 0 0 .142-.016.285-.029zm.148 12.349c-.368.614-.869-.052-1.079.689.427-.044.472.382.756.352-.231-.839 1.618-1.033.659-1.938-.224.598.038-1.011-.373-.823-.255.313.104.994-.465 1.054-.083.584.472.383.502.666zm-1.356 2.157c.045.425.075.711.12 1.136.666-.5.584.084 1.167.166-.104-.996.719-1.37.458-2.493-.427.045-.382.472-.652.644.442.097.247.98-.195.883-.044-.426-.089-.854-.516-.809-.127.158.06.569-.382.473-.157-.127-.27.171 0 0zm.651 2.087c-.412.188-.771-.494-.853.09.614.367-.659 1.939.748 1.647-.374-.822.18-1.026.105-1.737zm-1.137-2.612c.142-.014.284-.03.426-.045.113-.299.098-.441-.201-.553.014.142-.113.299-.27.171.015.143.03.285.045.427zm.42-6.946c-.157-.128-.314-.255-.457-.24 0 0-.014-.141-.029-.284.426-.044.456.239.486.524zm-.014-5.606c-.068.725-.943 1.967-.187 2.321-.09-.854.846-1.529.187-2.321zm-.599 2.506c.015.143-.352.756.074.711-.171-.267.51-.628-.074-.711zm.186 5.876c.083-.584-.247-.979.12-1.594-.554.203-.785-.636-.105-.995.015.143.015.143-.127.158.158.126.726.067.853-.09.615.366-.778.801-.165 1.167-.711.074.15 1.422-.576 1.354zm-.188 5.054c-.112.299-.494.77.09.852.128-.157.336-.897-.09-.852zm.113-.299c.253-.315-.614-.369-.442-.098 0 0 .142-.015.157.127.142-.015.142-.015.285-.029zm-.532 1.78c.045.427.756.353.569-.059 0 0-.442-.098-.569.059zm.181-9.221c-.584-.084-.06-.569-.09-.854.285-.03.075.711.09.854zm-.075 2.02c-.142.015-.127.157-.127.157-.143.014-.173-.269-.188-.412.27-.171.3.114.315.255zm.702 3.952c-.261-1.122.263-1.609.173-2.463-.142.016-.314-.253-.726-.067.502.667-.15 1.31-.988 1.542.089.854.546 1.094 1.541.988zm-1.317 3.878c-.015-.142-.03-.284-.03-.284-.142.016-.285.029-.427.045 0 0 .015.142.03.284.142-.014.285-.03.427-.045zm-.523-7.71c-.142.015-.127.157-.127.157-.285.029-.172-.269-.187-.412.269-.17.299.113.314.255zm.155 11.055c.539-.344.697-.217 1.281-.134.111-.3.621-.928.179-1.024.03.283-.621.927-.823.373.067-.727 1.669-1.901.741-2.523-.636.787-.629 2.224-1.954 1.931.345.539.928.621.576 1.377zm-.657-8.989c-.09-.853.621-.927.531-1.781.742.209-.276 1.467-.531 1.781zm-.144 10.943c.352-.756 1.19-.987 1.685-1.758-.555.201-.809.515-1.408.291.045.427-.082.584-.367.615l.09.852c-.269.173.03.284 0 0zm-.567-10.868c-.187-.412.24-.457.337-.898.299.112.105.996-.337.898zm-.19 15.98c-.015-.142-.03-.283-.045-.427-.142.015-.142.015-.284.03.015.144.03.285.045.428.142-.015.142-.015.284-.031zm-.424-13.615c.015.143-.128.156-.27.172-.014-.143.27-.172.27-.172zm.111 5.164c.015.143.015.143.157.127-.224.6-.471-.381-.995.105.127-.157.112-.299.097-.441.599.225.554-.201 1.108-.404.202.554-.239.456-.367.613zm-1.132 9.754c.285-.029-.015-.142 0 0-.127.158.173.27 0 0zm.6-5.24c-1.138.119-.905.959-1.146 1.414-.142.016-.142.016-.284.03.023-1.151.516-1.923 1.326-2.44.03.285.172.269.202.555-.727-.067-.127.158-.098.441zm-1.453 2.598c-.269.171.03.284 0 0 .142-.015.142-.015.128-.158.427-.045-.217-.696 0 0-.143.015-.143.015-.128.158zm.016-2.59c-.143.014-.285.029-.285.029-.014-.142-.157-.127-.299-.111-.03-.285.823-.374.584.082zm-.681.359c-.27.172-.217-.695.097-.441.172.267.045.425-.097.441zm-1.415 1.586c.03.285.045.428.074.711 0 0-.142.016-.284.03-.029-.284-.045-.426-.074-.711.141-.014.284-.03.284-.03zm-1.588 6.781c.157.128.202.554.374.825-.299-.112-.928-.622-.374-.825zm.389-1.766c.015.143-.269.173-.254.315-.427.045-.472-.383-.217-.696.157.126.314.255.471.381zm-1.339-.434c-.202-.554.539-.345.823-.374.03.284-.397.329-.823.374zm.097 2.29c-.427.045-.458-.24-.487-.523.299.111.457.238.487.523zm-.884-.195c-.412.187-.441-.097-.471-.381.285-.029.441.098.471.381zm-.105 1.738c.188.41-.682.359-.442-.099.285-.03.3.114.442.099zm-.86 1.384c-.427.044-.772-.493-.375-.823.553-.202.344.539.375.823zm-.585 2.649c-.015-.142-.03-.283-.045-.427-.142.015-.142.015-.284.031.015.142.03.285.045.428.142-.016.142-.016.284-.032zm-.322 1.041c-.015-.142-.187-.412-.457-.24.015.143.045.428.187.412.143-.014.128-.157.27-.172zm-.531-.951c-.24.457.614.367.584.082-.285.03-.3-.111-.584-.082zm.127-.157c.113-.3-.187-.411-.472-.382.015.142.03.285.045.427.143-.015.285-.03.427-.045zm-1.146 1.415c.142-.016.285-.029.27-.172-.142.014-.284.029-.27.172zm-.268-5.293c.142-.015.284-.029.427-.045-.015-.142-.015-.142.126-.157-.015-.142-.029-.283-.045-.427-.141.016-.284.029-.426.045.015.144.03.285-.112.301 0 0 .015.14.03.283zm-.398 5.793c-.014-.141-.03-.283-.045-.426-.142.016-.284.03-.284.03.015.143.03.285.045.426 0 0 .142-.014.284-.03zm.113-5.763c-.067.726-1.856 1.49-.801 1.954-.09-.853 1.46-1.16.801-1.954zm-.869 5.412c-.359-.68 1.153.023.779-.8-.726-.07-.742-.21-.389-.966-1.138.119-1.019 1.258-1.685 1.759.569-.06.869.052 1.295.007zm-.621.929c.112-.301-.173-.27-.218-.696-.284.03-.71.075-.995.104.075.711.487.524.898.336.015.143.045.427.315.256zm-1.58 2.754c-.015-.143-.015-.143-.03-.285-.142.015-.142.015-.284.03l.03.284c.142-.014.142-.014.284-.029zm-.929-.623c.24-.455.009-1.294.72-1.369.03.285.06.568.217.697.067-.726.793-.658 1.235-.562-.344-.538-.914-.479-1.415-1.145-.067.727-1.587 1.317-1.228 1.998.51-.629-.082.584.471.381zm-.044 2.307c-.015-.143-.03-.285-.06-.569-.412.187-.809.516-.92.816.44.096.396-.329.98-.247zm-1.16-1.46c.426-.044.381-.472.337-.898-.614-.367-1.093.545-1.49.875.584.082 1.205-.846 1.153.023zm-1.235.561c-.158-.127-.143.016-.127.156.141-.014.141-.014.127-.156zm.059.57c.143-.015.367-.615-.059-.57.052-.869-.712.074-.127.156.029.286.044.428.186.414zm-2.755 1.151c.03.284-.239.457.06.569-.015-.142.24-.456-.06-.569zm.257-107.008c-.27.171-.569.059-.382.471.284-.031.412-.188.382-.471zm-1.161 1.272c.128-.158.285-.032.255-.315-.127.157-.27.172-.255.315zm-.256 107.008c-.015-.142-.03-.284-.045-.426 0 0-.142.014-.285.029.016.142.03.285.045.428.142-.016.285-.031.285-.031zm-.417-105.213c-.016-.142-.03-.284-.045-.426-.142.015-.285.029-.427.045.015.142.03.284.045.426.142-.014.284-.03.427-.045zm-1.034 1.117c-.029-.286-.045-.428-.329-.399.03.285.06.57.202.555-.015-.142-.015-.142.127-.156zm-.479.912c-.015-.142-.03-.284-.045-.426-.142.015-.284.029-.426.045.014.141.029.283.045.426.142-.016.284-.031.426-.045zm-1.288 1.429c-.284.03-.411.188-.524.487.427-.045.555-.202.524-.487zm-.779.801c.045.428-.224.6.217.696-.044-.426.368-.614-.217-.696zm-.591 3.945c.127-.158.284-.031.255-.314-.128.156-.27.172-.255.314zm-.082-2.148-.03-.285c-.143.016-.284.03-.284.03.015.142.015.142.03.284 0 0 .142-.014.284-.029zm-.637 51.4c.127-.157.285-.029.255-.313.014.142-.27.171-.255.313zm-.352-49.859s.143-.016.285-.029c.113-.3.098-.442-.202-.555.015.143.03.285-.128.158.016.142.03.285.045.426zm-1.086 52.6c-.015-.144-.029-.285-.044-.428-.143.016-.285.029-.285.029.015.143.03.285.045.428 0 0 .142-.014.284-.029zm-.778-49.815c-.112.299-.225.6-.18 1.026.6.224.622-.93.18-1.026zm-1.093 51.16c-.098.442.202.555.486.526.083-.585-.329-.398-.486-.526zm-.187-48.294c.187.412-.097.441-.052.869.568-.06.651-.645.336-.899.127-.156-.015-.14 0 0-.142.016-.142.016-.284.03zm-.884 2.539c.142-.016.285-.031.27-.173 0 0-.285.03-.27.173zm.232.836c-.015-.141-.03-.284-.045-.425-.142.014-.142.014-.284.03.015.141.03.283.045.426.142-.016.142-.016.284-.031zm-.539 48.229c.03.284.187.411.33.396-.03-.284-.188-.411-.33-.396zm-.726-47.951c.045.427.359.68.105.996.741.21.592-1.214-.105-.996zm.636 49.829c-.285.029-.427.045-.583-.082-.128.156-.241.455-.196.883.412-.188.667-.502.779-.801zm-2.32-.188c-.27.174-.57.06-.525.487.285-.03.412-.187.525-.487zm-1.857 1.49c-.426.045-.397.33-.352.756.427-.045.382-.471.352-.756zm-2.47 1.122c.015.142.015.142.03.285.441.098.411-.188.396-.33.27-.172-.03-.283 0 0-.142.015-.284.03-.426.045zm-.45 1.197c.457.24.368-.613.098-.441 0 0 .015.142-.127.158.015.142.015.142.029.283zm-.403-1.107c.142-.015.426-.045.411-.188-.142.016-.284.03-.411.188zm-.001 5.464c.142-.015.284-.03.269-.171-.142.014-.285.029-.269.171zm-.614-.367c.045.426-.696.217-.509.629.441.097 1.093-.547.509-.629zm-2.411 7.157c.127-.158.426-.045.396-.331-.127.159-.269.173-.396.331zm.328 3.128c-.569.059-.352.756-.479.913.441.098.524-.487.479-.913zm-.762-7.253c-.584-.083-.51.628-.068.726-.045-.427.24-.457.068-.726zm-.84 11.16c.03.285.06.569.329.396.113-.299-.045-.427-.329-.396zm.322-3.772s-.015-.142-.03-.285c-.142.016-.284.03-.426.045.015.142.03.284.03.284.142-.015.284-.03.426-.044zm-1.159-6.925c.142-.014.427-.044.411-.186-.142.014-.284.029-.411.186zm15.82 27.384c.382-.472.935-.674 1.377-.576 1.841-1.632 4.911-2.529 6.708-4.588.157.128.441.098.583.083.973-1.684 2.733-2.733 4.477-3.923.083-.583.719-1.369 1.175-1.129.181-1.026.674-1.797 1.655-2.043 3.549-4.544 6.326-9.58 9.576-14.236-.044-.427-.105-.996.322-1.041-.157 2.606-.787 4.829-2.673 6.033-.068.727-.307 1.183-.39 1.768-.427.045-.456-.24-.696.216.082 2.149-2.501 3.571-3.145 5.651.157.127.442.097.615.367-.398.328-.57.06-.884-.195-.479.914-1.43 1.444-1.752 2.485 1.138-.12.217.697.404 1.109.995-.106.045.425.074.711.443.095.255-.315.839-.233-.261-1.123.862-1.385 1.071-2.127.427-.045.486.526 1.041.324.051-.869.606-1.071 1.302-1.289.254-.313-.105-.994.135-1.451.427-.045.853-.09.898.337-1.19.988-1.25 3.151-3.257 3.218.075.711.914.479 1.482.42-.276-1.265.352-.756.936-.674.097-.442-.315-.255-.359-.681.397-.33.539-.344.996-.104-.375-.824.591-1.213.801-1.955-.015-.143-.03-.283-.03-.283.143-.016.284-.031.284-.031.255-.315.195-.884.667-.501-.03-.285-.173-.269-.218-.697.427-.045.472.383.884.195.434-1.34.726-2.664 2.261-3.113.098-.441-.457-.24-.374-.823.756.35.966-.39 1.19-.989-.584-.082-.681.36-1.025-.18.441.098.568-.059.509-.627-.966.389-1.13 1.556-1.168 2.566-1.58.023-1.752 2.485-2.957 3.33-.187-.412-.884-.195-1.198-.448-.03-.285.097-.442.225-.598.501.666 2.784-.87 1.527-1.887.681-.36.299.112.883.195-.045-.427.54-.344.352-.757-.442-.096-.255.316-.539.345-.075-.711-.344-.539-.119-1.138.157.127.441.097.726.068.082-.584-.345-.54-.09-.854.456.238.456.238.853-.09-.374-.822-.292-1.407.218-2.037.186.414.598.227 1.167.166-.045-.426.023-1.152 1.033-1.115.06.569-.651.645-.576 1.355l-.143.014c.016.143-.112.3-.097.443.285-.031.202.553.742.209.097-.442-.33-.397-.502-.666.584.082 1.22-.705 1.31.149.225-.598.21-.74-.008-1.436.255-.314 1.026.18.779-.802-.285.03-.456-.239-.898-.336.202.554-.382.47-.651.644.112-.301-.187-.412-.202-.554.823-.375-.719-1.362.247-1.752.202.554.374.824.816.921.067-.726-.008-1.437-.592-1.519.427-.045.068-.727.494-.772.03.286.629.509.584.082-.314-.253-.247-.98-.434-1.391.442.097.869.052.951-.532-.981.247-.186-.411-.531-.95-.584-.083-.607 1.07-.936.672-.007-1.435 1.534-.449 1.542-1.742-.696.217-.77-.494-1.085-.75.555-.201.48-.913.891-1.1.172.27.472.382.531.951-.299-.113-.314-.255-.613-.367.045.426-.397.331-.21.742.554-.202.344.54.898.336-.03-.285-.06-.569-.075-.711.143-.015.427-.044.57-.06-.375-.824.194-.883.262-1.609-.412.187-.457-.24-.742-.209.045.426.09.853-.194.883-.3-.114-1.055-.465-.517-.809.03.284.172.27.457.239.352-.755-.434-1.391-.067-2.006.142-.014.785.636.711-.075.397-.328-.725-.066-.502-.666.899.338.509-.628 1.206-.846.329.398.643.652 1.212.592.225-.597-.06-.568-.277-1.263.57-.061-.134-1.282 1.019-1.259.172.268.284-.03 0 0-.217-.696.21-.741.538-.345.353-.756-.561-1.234-.65-2.088.157.127.314.255.584.082 1.55-3.037 1.999-6.967 2.666-10.201-.217-.697-.816-.921-1.243-.876.479-.913.742.21 1.453.134-.105-.994-.659-.793-1.243-.875.098-.442-.262-1.123.292-1.324.06.568-.351.755.232.838.053-.87.456.239.741.209.113-.299.225-.598.651-.643.472.381 1.071.605 1.909.374-.359-.681-1.482-.419-1.062-1.901-.682.359-.292 1.324-1.303 1.287-.06-.569.21-.742-.261-1.123-.255.314.119 1.137-.45 1.197-.074-.711-.344-.538-.644-.65.615-2.366.091-4.612.705-6.977.158.127.299.112.584.082.007-1.295-.554-2.529-.247-3.712.015.142.173.269.173.269.412-.188-.12-1.137.621-.928.082-.584-.456-.239-.501-.666-.045-3.158.091-7.343-.253-10.614.255-.314.142-.015.569-.06-1.19-1.744-.201-6.019-1.93-7.418.523 2.245.665 4.963.493 7.425-.09-.854-.726-.067 0 0 1.04 3.056-.173 5.196.126 8.04.284-.03.396-.33.426-.045-.719 1.369-.981 2.979-.816 4.543.172.27.569-.06.755.352-.396.33-.493.771-1.047.972.06.57.726.069.658.795-.808.516-.629 2.223-1.049 3.705.697-.219.293-1.324.675-1.797.815 3.653-1.701 7.08-.22 10.232-.553.202.061.569-.336.898-.599-.223.067-.725-.419-1.249.569-.06-.217-.696 0 0l-.142.015c-.053.868-.39 1.765.366 2.118-1.19.988-1.34 2.298-1.191 3.721-.98.246-.09 1.877.224 2.132-.239.456-.321 1.041-.876 1.243-.074-.712.876-1.243-.164-1.565-.337.898-.277 1.467.225 2.133-.869-.052-.712.074-.809.517-.315-.255-.172-.269-.726-.068 1.131-1.556 1.176-3.862 1.678-5.927-1.131 1.556-.877 3.974-1.865 5.516-.472-.382-.398.329-.666.501.067-.726-.233-.838.291-1.326-.082.585.315.256.442.1.097-.444-.584-.084-.486-.526.733-1.228.479-3.644 1.587-4.049-.014-.142.127-.157.113-.299-.142.014-.427.043-.442-.097.239-.457.165-1.169.405-1.625.187.412.074.711-.053.869 1.407-.292-.591-1.52.374-1.91.015.142.045.428.188.412.164-1.168 1.011-2.695.449-3.93.173.27-.195.884-.24.457.225-.599-.021-1.579.375-1.908.345.539-.322 1.04.12 1.138 1.521-8.788 2.001-17.898.828-27.696-.12-3.87-.568-8.135-1.893-11.161-1.592-8.316-4.787-15.458-9.734-20.113-5.113-.758-7.314 2.925-10.735 4.578.187.412-.224.6-.179 1.026-2.269 1.677-3.138 4.356-5.421 5.889.007 1.439-.929 2.113-1.707 2.913.029.283.06.569.089.852-1.767 2.344-3.062 5.067-4.043 8.047-.427.045-.554.202-.696.217-1.131 4.289-3.519 7.56-4.336 12.103-.157-.129-.269.172-.412.188.247.979-.419 1.48-.801 1.953-.038 1.009.022 1.578-.644 2.08-1.123 5.726-1.686 12.687-2.054 18.765-.442-.096-.255.315-.524.486.277 1.265-.158 2.605-.592 3.946-.135 4.184-.982 8.443-1.746 12.117 4.328-5.344 8.498-10.815 14.097-14.998.622-.928 1.924-2.215 3.219-2.207-.382.471-1.078.69-1.303 1.286.487.525.412-.186.839-.231.195 1.849-2.748 2.59-3.122 4.498-1.123.262-.988 1.543-2.254 1.818.045.428.472.383.771.494-.045-.425.068-.725.51-.629.075.713-.974 1.684-1.497 2.171-.083.584.598.224.501.667-.427.045-.981.246-1.25.418-.098.443.314.255.344.539-.981.248-.562 1.498-1.684 1.759-.015-.141.351-.756-.076-.711-.066.726-.524.488-.778.801.561 1.235-.719 4.103-2.299 4.124-.082.584.472.382.389.966-.583-.081-.209.741-.636.786-.172-.27-.456-.24-.726-.066.03.283.06.568.09.851-.442-.097-.397.329-.981.248.045.426.486.524.09.852-.285.03-.33-.396-.727-.067.734 1.504-1.07 2.125-.921 3.547-.142.016-.426.045-.568.061.276 1.265-1.018 1.258-.884 2.537-2.149 2.814-2.853 7.058-4.844 10-.151 1.31-.001 2.732-1.079 3.421.045.427.599.224.517.808-.997 2.837-1.394 5.898-1.147 9.611 1.377 2.156 1.481 5.884 4.767 5.682.014.143.029.285.044.426.794-.658 1.041.323 1.677-.463.03.283.187.411.487.525-.031-.286.097-.443.224-.6.015.143.03.283.06.568 2.643-.851 5.247-.695 6.692-1.997.944.764 1.236-.561 1.962-.493.172.27.284-.03 0 0zm-16.075-21.605c.299.113.457.24.741.211.366-.616-.644-.653-.741-.211zm-.72 6.834c.127-.157.284-.03.255-.315-.128.158-.269.173-.255.315zm1.439-10.936c-.366.613-.749 1.084-.659 1.938-.397.33-1.175 1.13-.546 1.64.082-.584.636-.785.546-1.64.539-.344.592-1.211.801-1.953.255-.313.666-.502.749-1.084-.569.058-.652.642-.749 1.084zm-2.658 6.174c.427-.045.539-.344.352-.756.554-.201.793-.658.576-1.354-.726-.068-.336.898-.576 1.354-.27.174-.225.6-.352.756zm-.232-.837c-.03-.285-.045-.428-.075-.711-.142.015-.284.03-.426.045.029.283.045.426.074.711.142-.015.285-.03.427-.045zm-.557 16.595c-.015-.143-.015-.143-.03-.285-.142.014-.285.029-.285.029.016.142.016.142.03.285 0 0 .143-.015.285-.029zm-.387-11.895c.651-.644 1.438-2.738.809-3.248-.36 2.051-1.063 3.563-1.438 5.471.681-.359.734-1.227.629-2.223zm-.741 2.523c.015.142.044.426.059.568.457.241.352-.755-.059-.568zm-.292 1.324c.157.128.06.569.343.54-.171-.27.353-.756-.343-.54zm-.053.868c.202.554-.21.741-.008 1.295.599.227.292-1.324.008-1.295zm.179 1.707c-.583-.082-.494.772.06.57-.015-.144-.045-.427-.06-.57zm-.201-6.017c-.142.015-.142.015-.284.03 0 0-.368.612.06.567.127-.156.254-.314.224-.597.142-.015.127-.159.112-.3.397-.329.704-1.513.518-1.923-.255.314-.054.868-.637.785.045.427.089.854.119 1.138-.142.014-.127.157-.112.3zm49.636-5.217c.014.142.299.111.441.097-1.085 1.983-1.685 4.491-4.169 5.471.059.568-.21.741-.009 1.294-1.549.308-1.213 2.141-2.605 2.575.113-.301.083-.584-.202-.552-.411.185-.224.597.202.552-.239.457-.936.673-1.333 1.003.786.636-.853 2.821-1.796 2.058-.21.741-.704 1.512-1.685 1.76-.254.313.173.268.09.853-.382.471-1.43 1.443-2.028 1.219-.75 1.086-1.812 1.916-2.778 2.305-1.22.704-2.621 2.433-3.968 3.292-.538.345-1.407.291-1.946.636-2.298 1.393-5.008 2.972-7.868 3.128-9.693 2.17-16.519-2.577-21.653-7.645-.958-3.638-.231-6.303-.149-9.619 1.633-6.355 4.523-11.691 6.785-17.537-1.182-.307-1.759-1.684-3.099-2.119-.373-.822-.605-1.662-.837-2.5 1.019-9.453 1.934-19.902 4.465-28.652.689-4.387 1.91-7.822 1.94-13.002-.246-.981-.365-2.119-.044-3.158-.192-7.314.415-16.58-.295-24.701-.075-.711.307-1.184.232-1.895 1.25-.42 1.707-.18 3.017-.029 3.166 4.125 3.936 10.083 3.949 15.689 5.099-10.314 9.428-21.121 21.285-25.963 1.167.166 1.437-.008 2.56-.269.696-.217.614.367 1.041.322 3.143-.187 7.387.518 9.281 3.482 2.559 2.463 5.351 5.765 6.451 9.387.957.906 2.095 3.52 1.915 4.545 1.759 1.684 2.177 8.399 3.397 10.428.261 1.123.172 3.001.449 4.265.171.27.269-.171.569-.058.178 7.17 1.06 12.829 1.066 19.73-.441-.097.217.696-.524.487.33.397.404 1.108.322 1.691-1.086 1.984.471 5.846-1.289 6.895.928.621.539 2.387-.225 3.33.329.398.644.65.419 1.25-.823.374.225-.6-.486-.524-.524.487 1.122 2.471-.57 2.792-.007 1.296-.501 2.066-.981 2.979.045.427.584.083.502.667-1.723 5.501-3.048 10.673-4.733 15.164-.27.172-.397.328-.838.232-.353 3.488-2.419 5.717-3.4 8.697-.143.015-.285.03-.427.045.083-.585-.314-.255-.441-.097z" mask="url(#a)" transform="translate(0 40.224)"/><path d="m122.0407 95.6807c.202.555-.396.33-.666.502.112-.3.239-.457.666-.502m-6.805 5.029c.584.082.075.711-.397.33-.344-.539.585.082.397-.33m-2.029 1.221c.24-.457.794-.659 1.632-.891-.224.598-.905.957-1.632.891m-.156-.129c.014.145.029.285.045.428-.143.014-.285.029-.428.045-.015-.143-.029-.283-.044-.428.142-.015.284-.029.427-.045m-.21.741c.172.271-.113.3-.397.33-.014-.141.127-.157.113-.299.141-.016.284-.031.284-.031m-8.984 7.56c-.299-.113-.33-.397-.359-.682.569-.06.629.509.359.682m-1.392.433c.014.143.029.285.045.427-.143.015-.285.031-.427.045-.015-.142-.03-.284-.045-.427.142-.015.284-.03.427-.045m-1.685 1.759c-.284.031-.426.045-.569.06-.015-.142-.015-.142-.03-.284.27-.173.569-.06.599.224m-1.737-.104c-.538.344-1.392.433-1.317 1.144.539-.343 1.25-.419 1.317-1.144m-1.085 1.982c-.329-.395-.868-.052-.809.517.413-.187.697-.216.809-.517m-1.063.831c-.015-.141-.015-.141-.03-.284-.142.015-.284.029-.427.045.016.143.016.143.03.283.142-.013.284-.029.427-.044m-2.156 1.378c-.3-.113-.598-.225-.411.186.299.113.426-.045.411-.186m-3.9-2.898c7.232-2.342 14.141-6.375 18.82-9.742-9.088 3.832-17.637 10.049-28.169 12.451 3.518.636 6.341-1.242 9.349-2.709m-11.684 5.111c-.315-.255-2.366-.615-2.306-.045.741.209 1.939.658 2.306.045m-4.998-14.717c.284-.03.553-.203.583.082-.621.928-2.186 1.092-2.365 2.117 6.333-2.677 11.595-5.962 13.468-12.773-.569.059-.472-.383-.757-.353.03.285-.096.443-.082.584-5.128 1.834-8.309 5.763-10.847 10.343m47.39-7.426c-3.534 1.953-8.286 4.61-11.648 6.833.577 1.376 1.363-.719 2.088-.652-2.148 2.815-6.124 4.671-9.103 6.421-.068.727.516.809.576 1.377-.695.219-.486-.523-1.07-.605-.561 1.498-2.186 1.092-3.062 2.335-.112.299.315.254.614.366-.509.629-1.206.845-1.872 1.347.03.285.202.555.615.366-.652.644-1.73 1.334-2.644.853-.366.615-.733 1.229-.973 1.685-5.494 2.448-9.903 5.643-17.127 6.689-11.677 1.083-14.273-11.297-10.371-19.328 4.282-5.77 8.677-11.841 17.48-12.909 3.794 1.901 4.46 6.863 3 10.756-3.669 3.406-6.094 7.687-10.893 9.916-3.099.613-5.307.127-6.317-2.643-1.445 1.303-2.074 3.526-2.074 6.258.8.777 1.871 1.385 3.21 1.818 20.338-2.136 32.713-14.365 49.399-21.152 0 0 .029.285.172.269"/><path d="m175.2126 55.7256c.569-.059.435 1.393 1.513.705-.854.09-.914-.48-.517-.809-.555.202-.217-.697-.913-.48-.015-.142-.629-.51-.727-.066.158.127.443.096.727.066.471.383.015.143-.083.584zm-1.048.974c-.172-.269-.284.03 0 0-.21.741.427-.045 0 0zm-.666-2.232c-.456-.238-.599-.223-1.152-.021-.083.584 1.212.591 1.152.021zm-1.459 1.16c.171.27-.098.442-.383.472-.014-.143-.014-.143-.029-.284.143-.015.127-.157.412-.188zm-.809.517c-.171-.269-.187-.411.381-.472l.016.143c-.143.015-.269.172-.397.329zm-1.894-.232c-.157-.128-.142.014 0 0 .172.269.285-.031 0 0zm-.419-1.249c.03.283-.112.297-.098.44-.141.015-.283.03-.425.045-.015-.143-.031-.284-.045-.426.142-.015.426-.045.568-.059zm-1.265.275c-.284.03-.314-.255-.359-.681.568-.059.03.284.359.681zm-1.354-.576c-.143.015-.127.156-.127.156-.285.03-.173-.269-.33-.397.269-.171.441.098.457.241zm-2.126 1.661c.509-.629 1.107-.405 1.818-.48-.067.727-.995.106-1.818.48zm-.435-1.392c.031.283-.823.373-.584-.083.285-.03.427-.045.584.083zm-.584-.083c-.142.015-.157-.128-.014-.142zm-.726 2.664c.269-.171.868.054.839-.231-.284.03-.883-.194-.839.231zm.704-1.51c.045.425-.554.201-.711.074.098-.442.441.096.711-.074zm-1.16-1.461c-.045-.426-.315-.254-.06-.569.555-.202.644.652.06.569zm.299 2.845c-.314-.255-.741-.21-.697.216.3.112.584.083.697-.216zm-2.103-2.224c-.03-.283.098-.442.225-.598.03.284.059.568-.225.598zm-.345 2.193c-.224.6 1.055.465 1.026.18-.554.201-.456-.239-1.026-.18zm-1.1-.891c-.044-.425.397-.329.697-.216-.113.298-.412.186-.697.216zm.234 35.061.029.285c-.141.016-.283.029-.425.045-.015-.142-.015-.142-.031-.285.143-.016.285-.029.427-.045zm-1.266-36.678c.014.143.029.285.044.426-.142.016-.284.031-.426.045-.016-.141-.031-.283-.045-.426.142-.013.284-.029.427-.045zm1.564 2.569c-.667.5-.217-.697-1.041-.323-.149 1.311-1.624-.404-2.088.651.471.381 2.605.157 3.129-.328zm-6.266 47.102c.472.383.397-.329.838-.231.203.554-.748 1.086-.838.231zm1.857-46.639c-.696.216-.869-.053-1.154-.023-2.702.284-.463 1.056 1.154.023zm-3.152 43.901c-.014-.144-.03-.285-.044-.428-.142.015-.142.015-.285.03.016.143.031.284.045.428.143-.015.143-.015.284-.03zm-.336 6.361c.014.142.044.427.059.57.456.238.352-.757-.059-.57zm.554-53.549c-.428.045-.853.089-.808.515.425-.044.696-.215.808-.515zm-1.25 48.302c.142-.014.142-.014.284-.029.113-.299.097-.444-.202-.555.015.142.031.285-.112.301 0 0 .015.141.03.283zm.322 4.424c-.015-.143-.015-.143-.031-.285-.142.015-.284.031-.427.045.015.142.015.142.031.285.141-.016.284-.03.427-.045zm-2.104-50.106c.015.141.015.141.03.284 0 0-.142.015-.285.029-.015-.143-.015-.143-.029-.283.141-.016.284-.03.284-.03zm-1.019 1.256c-.298-.112-.314-.254-.359-.681.3.113.285-.03.255-.315.584.084.218.698.104.996zm-.755-.351c.029.284.314.254.202.554-.427.045-.854.09-.913-.48.284-.029.569-.059.711-.074zm-3.452 1.369c-.388-.965-1.338-.434-1.706.18.869.052 1.108-.405 1.706-.18zm-2.694-1.012c-.015-.141.285-.029.255-.314.584.084-.067.727-.255.314zm.831 1.065c-1.123.26-1.736-.106-2.336-.33.03.285-.254.314-.066.725.965-.389 2.035.218 2.402-.395zm-3.256.484c.726.068-.06-.568 0 0-.27.174.015.143 0 0zm-.393-21.525c-.24.455-.494.77-.577 1.353.996-.104.891-1.099.577-1.353zm-.398 3.06c-.427.045-.538.344-.351.756.441.098.396-.33.351-.756zm.238 18.668c-.015-.142-.031-.284-.031-.284-.142.015-.157-.128-.314-.255.059.568-1.011-.037-.652.644.554-.202.554-.202.997-.105zm-1.129-14.836c.712-.074.322-1.041.135-1.451.015.141-.128.156-.269.171.201.554.217.696.134 1.28zm-.786 4.828c-.016-.142-.016-.142-.031-.284 0 0-.141.015-.284.03.015.141.015.141.03.284.143-.015.285-.03.285-.03zm-.524.487c-.099.441-.383.471.201.554.127-.158.082-.584-.201-.554zm-.195.883c-.128.157-.098.442-.053.868.569-.06.621-.927.053-.868zm-.292 1.326c.014.14.044.425.059.568.456.238.352-.756-.059-.568zm-.834 18.06c-.015-.142-.03-.285-.06-.568.411-.188.516.808.06.568zm-.276-12.193c.427-.045.368-.613.607-1.07-.442-.098-.397.33-.839.232-.097.441.315.254.232.838zm-1.999 9.701c-.015-.143-.03-.285-.045-.428l-.285.032c.016.14.031.283.045.425zm-1.342-31.926c-.443-.095-.233-.837-.787-.635.501.666-.322 1.04.165 1.564.097-.442.509-.63.622-.929zm-1.951 25.226c1.01.037.225-.599 0 0-.142.014.015.141 0 0zm-.988-1.191c-.186-.412.397-.329.682-.359.029.285-.24.457-.682.359zm-.282-16.362c-.127.157-.336.898.09.853-.329-.397.352-.756-.09-.853zm-.359-3.414c.442.098.27-.171.241-.456.269-.174-.031-.285 0 0-.128.156-.114.299-.241.456zm6.343-14.901c-1.505.733-.255 3.046-1.804 3.353-.21.741.598.223.516.807-.51.63-.42 1.482-1.116 1.7.592 1.519-.015 2.59-.966 3.121.868.053.329.396.247.981.995-.105.576-1.355 1.115-1.699.607 1.662-1.692 3.053-.532 4.514-.65.644-.674 1.795-1.34 2.297.329.396.495-.772.869.053-1.318 1.144-.316 5.209-1.85 5.658.815 3.653-1.686 7.222-1.693 11.25.725.068 1.092-.546 1.848-.194-.097.442-.996.104-.794.658 1.393-.434 1.048-.974 3.339-1.07 2.563-13.929 6.584-29.019 7.027-42.582-.456-.24-.912-.479-1.653-.689.217.697.801.779 1.273 1.16-1.977 3.084-4.576 7.096-4.486 10.682zm-6.522 15.925c-.196.885-.786 2.096-.443 2.636.069-.725 1.229-1.999.443-2.636zm3.081 18.371c-.082.585.344.54.247.981-.584-.083-.441-.098-.666.502 1.691-.322.815-1.813 1.437-2.74-.584-.083-.808.515-1.025-.18.284-.03.568-.06.853-.09-.015-.142.113-.299.097-.441.27-.173-.029-.285 0 0-1.309-.151-2.515.695-3.653.814.285-.029.584.082.614.367-.681.36-.584-.082-1.182-.306-.209.74-.42 1.481-.615 2.365 1.109-.404 2.373-.682 3.811-.687-.045-.428-.09-.854.194-.884.016.142.157.128.157.128.015.14-.127.156-.269.171zm-3.92-15.406c.172.27-.352.756.09.855.127-.159.337-.9-.09-.855zm-.943 1.969c.186.412.104.996.673.936-.187-.413-.104-.995-.673-.936zm-.637 3.518c-.112.299-.307 1.183.262 1.123.396-.328.606-1.07-.262-1.123zm-.457 2.493c-.098.442-.666.501-.607 1.071.569-.06 1.348-.861.607-1.071zm-.427 2.776c-.128.157-.667.502-.067.727-.031-.285.65-.645.067-.727zm-.353 3.488c-.03-.283.098-.441.225-.597-.427.045-1.235.56-.637.785-.014-.143.27-.172.412-.188zm1.474 7.18c.718 1.361.501 3.397-.503 4.797.666 2.23-1.594 5.344-.495 8.968-.142.014-.284.03-.427.045.546 1.092-1.018 3.989.03 5.748-.81.516-.278 1.467-.929 2.11 4.006-7.035 5.579-16.69 7.587-24.955-1.55.308-2.8.728-3.968.563-.194.881-.659 1.938-1.295 2.724zm-2.089.651c-.097.441-.749 1.084.12 1.138-.487-.525.591-1.215-.12-1.138zm-.096-5.024c-.158-.127-.614-.367-.412.188.299.113.569-.06.838-.233-.343-.538.165-1.167-.149-1.422-.112.299-.225.599-.651.644-.082.585.598.225.374.823zm-.78 3.533c.031.285.06.57.345.539-.03-.283-.186-.412-.345-.539zm-.286 10.959c.03.284-.411.187-.223.598.456.24.651-.643.223-.598zm-.096-7.756c.427-.045.54-.343.495-.77-.427.045-.57.059-.697.218.031.283.045.425.202.552zm-.126.159c.029.283-.241.457-.068.725.599.224.621-.929.068-.725zm-.603 18.9c-.029-.285-.188-.412-.471-.383.172.27.06.57.344.539-.016-.14-.03-.285.127-.156zm-.321 1.04c.03.284-.098.442-.21.741.427-.045.935-.674.21-.741zm.236-29.215c-.143.015-.284.03-.427.045-.187-.411.255-.315.225-.599.157.127.187.412.202.554zm-.469 31.109c-.128.158-.352.756.075.712-.015-.144.352-.757-.075-.712zm-.206-29.313c-.014-.142-.029-.284-.029-.284.143-.015.284-.03.427-.045-.127.157-.098.442-.398.329zm.381 10.457c.704 1.22-.554 2.936.15 4.154-.285.03-.3-.113-.584-.082-.068.727.389.965.59 1.52-.568.059-.456-.24-.711.074.188.412.105.996.817.922.096-.442.419-1.482-.18-1.707.554-.202.831-1.67.119-1.596.45-1.195.712-2.806.959-4.556-.284.029-.441-.098-.584-.083-.268.172-.193.883.12 1.137-.254.315-.298-.113-.696.217zm-.361 12.979c.269-.172.239-.455-.187-.411.015.143.03.284-.097.44.141-.014.284-.029.284-.029zm.57-5.524c-.314-.254-.614-.367-.786-.635.021 1.579-.315 2.477-.067 3.457.164-1.168.83-1.668.853-2.822zm-1.17 8.032c.061.57-.209.742.39.966.127-.158.306-1.183-.39-.966zm.06 3.3c-.015-.14-.172-.268-.299-.111-.135 1.452-.757 2.379-.323 3.771.007-1.293 1.026-2.551.622-3.66zm-.944 4.701c.217.698-.179 1.026-.12 1.596.569-.06.703-1.514.12-1.596zm-.295-32.897c.255-.314.809-.517 1.123-.263-.224.6-.411.188-1.123.263zm.361-2.05c.014.141.157.127.299.111.015.142.314.254.216.696-.456-.24-1.025-.18-.972-1.047.569-.061.966-.389 1.04.322 0 0-.142.014-.284.029-.015-.141-.299-.111-.299-.111zm-1.198 2.281c-.143.016-.143.016-.158-.127 0 0 .143-.015.158.127zm-.846-1.205c.269-.172.112-.299-.029-.285 0 0-.015-.14-.031-.283-.112.299-.696.217-.741-.209 1.107-.404 1.295.007 2.275-.239.188.411-.493.77.203.551-.038 1.012-1.265.28-1.617 1.036-.554.201-.471-.383-1.169-.166.225-.6.353-.756 1.08-.69.014.145.014.145.029.285zm-.906.959c-.158-.129-.142.014-.127.157-.285.029-.172-.27-.203-.554.285-.03.3.112.33.397zm-12.081-.025c.03.285-.27.172-.24.457-.3-.111-.186-.412-.344-.539.285-.03.299.112.584.082zm49.808-7.679c-.539.343-.921.816-1.49.876-.695.216-.83-1.064-1.467-.279-.029-.283-.299-.111-.456-.238.029.283.299.112.456.238.016.142.03.285.045.428-1.265.277-1.924-.516-2.845.298-.059-.568-.883-.195-1.07-.605-.067.726.741.209.546 1.092-.688-1.077-1.849.194-2.507-.6-.143.016-.352.757-.427.045-.636.787-1.752-.246-2.073.793-1.183-.307-3.174-.098-4.379.748.329.397.726.068 1.295.008-.128.158-.382.473.045.428-.225.597-.839.23-.869-.053-.696.217-.636.785-.719 1.369 1.565-.164 4.027.008 4.65-.92.867.052-.255.315-.083.584 1.153.023 3.211-.912 3.428-.217.584.082.225-.599.793-.659.329.398-.478.915-.733 1.229-.711.075-1.056-.465-1.565.165.172.268 1.452.134 1.565-.165 1.011.037 1.863-.053 3.241-.628-.3-.114-.599-.226-.202-.555.711-.074.202.555.516.809.711-.075 1.752.248 2.418-.254-.486-.525-.883-.195-1.227-.735.905-.957 3.173.099 3.623-1.099.299.112.313.255.186.412 1.124-.262 1.565-.165 2.418-.255.285-.03-.015-.142-.044-.426 3.121.966 6.115-.642 10.374.204.599.225.24-.457.667-.502-.113.299.74.21.71-.074.143-.016.127-.158.27-.172.412-.187.584.082.613.366.098-.442.682-.358 1.123-.262-.808.517.487.525 1.198.45 1.497.561 2.815-.583 4.185.136.082-.584-.599-.225-.802-.78.285-.029-.014-.142 0 0-.883-.195-2.036-.216-2.948-.696-.203-.555.553-.202.493-.77-1.137.119-.651.642-1.204.845-.712.075-.045-.425-.232-.84-.427.045-.682.36-.622.93-.329-.396-.726-.068-.883-.195-.03-.285.097-.442.523-.486.031.285.158.126.143-.016.284-.029-.015-.143 0 0l-.143.016c-.972-1.049-3.981.417-4.812-.645-.427.045-.068.727-.509.629-.172-.27-.33-.397-.359-.682-.427.045-.666.502-.921.816-.045-.426-.727-.068-.501-.666.284-.031.299.112.583.083.21-.742-.981.247-.928-.621 4.154-.151 7.485.076 11.542.368-.112.3.061.569.217.696-.284.029-.494.771.045.426.015.142.015.142.03.285.128-.156-.03-.285-.03-.285-.015-.143-.03-.285-.045-.426.142-.016.284-.03.269-.172.6.224.959.905 1.752.246 2.043 1.656 2.987 5.152 1.286 6.768.353-.756-1.279.135-1.81-.817-1.078.69-1.932.779-3.129.329.352-.756 1.489-.875 2.155-1.377-4.902-1.497-8.623.045-13.623-1.012.06.568-2.044 1.078-2.402.396-.666.502-.839.233-1.819.479-.015-.143-.045-.428-.06-.568-.284.029-.083.583-.225.597-.898-.337-1.437.008-1.909-.373-.337.897-3.353.926-4.82.65-3.81.688-8.346 1.308-12.994 2.229-.69 1.653-.922 3.547-1.453 5.328-.143.016-.315-.255-.472-.381-.068.725.374.823.307 1.549-.255.315-.286.029-.712.074.007 1.438-1.183 2.426-.352 3.489-.142.015-.427.045-.568.059-1.814 7.38-3.544 14.177-6.487 20.382-.434 4.072-2.763 7.912-5.18 10.897.135 1.281.665 2.232-.099 3.174.06.569.27-.171.457.24.022 1.58.089 3.586.254 5.15-.255.314-.367.613-.779.801 2.064 5.967.552 13.459 4.623 19.358.441.097.868.052 1.168.163 7.612-2.812 9.582-10.065 14.538-14.898-.202-.555.21-.742.008-1.296 1.235-.562 1.041-2.41 2.418-2.987.007-1.295.959-1.827 1.737-2.626 1.476-3.75 3.706-7.15 5.952-10.406 2.329-3.839 3.715-8.441 6.985-11.517-1.624 2.328-2.164 5.403-4.117 7.336-.083.583.201.552.232.838-2.762 2.447-2.943 6.204-5.847 8.667.015.141.314.253.201.553-.141.015-.172-.269-.314-.255-3.01 6.932-8.37 13.391-12.421 19.998 1.168.165 1.213-2.14 2.635-2.29.24-.455-.569.06-.344-.539 1.025.18 1.175-1.13 1.856-1.488.098-.442-.314-.255-.231-.838.157.127.314.254.471.381 4.297-5.627 7.869-11.324 11.066-17.844.284-.029.696-.217.966-.387.104-1.738 1.557-4.335 2.875-5.48-.03-.285-.188-.411-.487-.523.854-.09.038-1.011 1.303-1.287-.516-.809.576-1.355.786-2.096-.494 3.502-3.721 7.006-4.044 10.777-.867-.052-1.092.545-1.017 1.258.202.553.539-.344.868.053-.067.726-.651.642-1.235.56-.113.3.075.711-.323 1.041.329.397.509-.629 1.266-.277-1.213 2.141-2.119 5.83-3.983 8.615.045.426.127-.157.441.098-4.096 6.181-7.929 13.486-13.536 18.965-2.853 1.594-6.858 3.165-9.799 1.174-8.218-7.045-8.312-20.264-8.865-30.991-.187-.411-.487-.523-1.056-.464-1.175-1.602-2.507-3.331-2.618-5.764.711-.074.621-.928 1.018-1.258.726.068.816.921 1.174 1.603.285-.03.57-.06.585.083.411-.188.666-.502 1.077-.69.556-8.398.864-17.777 2.191-25.682-.525-2.245.913-4.984.502-7.529-10.12 2.215-17.239 4.256-27.106 6.156-1.893-.232-2.874.014-5.194-.172-1.414-1.146-2.17-4.23-1.368-6.183 5.322.015 11.879-.53 17.649-1.713l.016.143c.142-.015.127-.158-.016-.143-.029-.283.271-.172.255-.314 2.748.143 3.639-.957 5.974-.627.554-.202-.315-.256-.217-.697 1.025.18 1.025.18 1.691-.321.015.143.045.426.06.568.285-.03.083-.583.367-.613.456.238 2.036.217 2.089-.651.472.383.756.352.912.479.106.995-1.504.735-1.385 1.871-.501-.666-1.548.307-2.319-.187 1.115 1.033 2.903.269 4.595-.053.285-.029.187.414.045.428.285-.029.883.195.839-.233.755.354 2.163.061 2.53-.553-.352.757.441.098.898.339.538-.346.449-1.2.501-2.068.128-.157-.014-.141 0 0-.411.187-.351.757-.935.674-.344-.54-.824.374-1.168-.165.113-.3.54-.345.651-.643-.328-.398-.681.358-.501-.667.689 1.078 1.932-.778 2.29-.096.016-2.59 1.229-4.731 1.004-6.864 4.188-13.525 6.001-29.102 13.787-39.842 3.129-.329 5.143 1.041 7.043 2.71.793 2.074.838 5.233.051 7.329.03.284.315.254.585.082-1.701 12.545-3.664 21.235-6.151 33.143 7.868-.394 15.584-2.213 24.05-2.383-.382.471-.621.928-1.474 1.018-2.208-.486-5.045 1.249-7.186.036z"/><path d="m176.7155 105.6085c-.427.045-.202-.555-.247-.981.24-.456.232.838.247.981zm-.082-2.148c-.157-.127-.143.015-.127.156 0 0-.03-.283-.075-.711.142-.014.172.269.202.555zm-2.864-12.209c-.143.014-.143.014-.158-.128.142-.015.142-.015.158.128zm-4.096 6.182c.143-.014.285-.03.568-.059l-.044-.428c-.284.03-.426.045-.569.06 0 0 .015.142.045.427zm-1.213-.591c.412-.189.928.621.359.68-.044-.426-.598-.225-.359-.68zm-.209.741c.015.141.029.284.044.425 0 0-.142.016-.284.03-.015-.141-.03-.284-.045-.426.143-.014.285-.029.285-.029zm-.143 2.746.015.143c-.142.015-.3-.114-.015-.143zm-.546-1.092c.067-.727.337-.899 1.049-.973-.413.188-.51.627-1.049.973zm-.921.815c-.015-.141-.03-.285.255-.315.014.144-.114.301-.255.315zm-.756 2.38c-.015-.141-.03-.285-.03-.285s.141-.016.284-.029c.015.142.059.568-.254.314zm-.135-1.28c-.03-.284.097-.44.382-.471.045.426-.083.583-.382.471zm-1.228 7.462.029.285-.143.016-.029-.286zm.113-5.763c-.128.156.059.569-.667.501.412-.185.239-.457.667-.501zm-1.288 1.43c.112-.3.494-.771.621-.929.359.682-.224.6-.621.929zm-1.37-.72c.24-.456.951-.531 1.378-.576-.045-.426-.217-.695-.105-.994.3.111.471.381.629.51-.24.455-.383.47.074.711-.584-.084-.367.613-.966.388-.089-.853-.965.389-1.01-.039zm.179 1.707c-.284.029-.711.074-.666.502.427-.045.711-.074.666-.502zm-1.1 4.573c-.016-.141-.045-.425-.061-.568-.142.015-.284.03-.426.045.015.143.044.427.06.568.143-.014.284-.03.427-.045zm.943-4.7c.143-.015.854-.09 1.153.022-1.191.988-2.082 2.09-2.658 3.444.299.112.981-.247.756.351.427-.045.682-.358.637-.786-.284.03-.712.075-.712.075-.074-.711.966-.389.906-.957.284-.03.233.838.629.508.509-.628-.359-.68-.074-.711.681-.36 2.253-1.818 1.354-2.155.113-.299.57-.06 1.138-.119.645-2.082 1.834-3.07 2.995-4.341.142-.014.127-.159.27-.173.546-1.638 3.069-3.629 1.662-6.07-.097.441-.554.201-.995.104.045.427.314.255.343.54-.569.059-.576 1.354-1.556 1.6.374.824-.404 1.625-1.401 1.73-.366.614-.007 1.295-.659 1.938-.141.016-.156-.126-.313-.254-.03-.285.965-.389.336-.898-2.141 1.519-3.511 3.531-4.754 5.389.427-.045.502.667.869.052.097-.441-.442-.097-.345-.539.539-.344.817.921 1.168.165-.427.045-.06-.569.239-.456.121 1.137-.606 1.07-.988 1.541zm-1.49 3.609-.029-.286-.143.015c.015.143.03.285.03.285zm-.269-2.561c.082-.585.876-1.242.247-1.752-.381.472.052 1.864-.449 1.198-.082.584.187.411.202.554zm-.696 2.948c.045.428.74.211.942.764.083-.583-.374-.823-.942-.764zm.554-2.933c-.57.06-.696.216-.838.231.283-.03 1.04.322.838-.231zm-6.393-.623c-.202-.553.367-.613.18-1.025.442.097.247.981-.18 1.025zm-.449 1.198c-.441-.097-.074-.711.366-.614-.111.3-.395.33-.366.614zm-.756 2.38c-.457-.239.18-1.026.008-1.295.883.195-.068.725-.008 1.295zm-.839 2.965c-.375-.825.374-1.909.427-2.778.486.524-.517 1.924-.427 2.778zm-3.166-4.125c-.014-.143-.045-.428-.045-.428l-.284.03s.03.285.045.427zm7.052-6.781c.016.142-.127.157-.239.456.015.143.269-.171.239-.456l-.015-.141c-1.676 3.195-3.579 6.99-4.507 11.832.299.113.269-.172.396-.329.016.142.03.284.06.569 7.921-6.729 12.899-15.447 18.822-23.403 1.804-.621 2.807.711 3.211 1.819.142-.016.128-.157.255-.314.157.127.082-.584-.188-.413 4.828.788 2.297 6.805 2.962 11.768-.141.016-.314-.255-.202-.555-.381.473-.231 1.895.112 2.434l.015.142c-.194 3.615-.959 7.29.178 9.903-.127.157-.426.045-.426.045.059.568-.307 1.183.292 1.408.045.426-.427.045-.382.471 1.04.321.523 2.246 1.624 3.136-.555.202-1.198-.45-.951.532-.741-.211-.741-.211-1.423.149-.77-.493-.845-1.206-2.013-1.37-3.413-5.105-2.438-12.255-2.744-19.268-5.959 6.235-8.985 15.755-18.476 18.478-.899-.337-2.208-.487-3.279-1.093.098-.441-.216-.695-.659-.794-.306-1.549-1.01-2.768-1.81-3.548.173-10.658 6.329-20.507 12.67-27.214 1.28-.134 1.991-.209 2.784-.868 2.126 1.071 6.482 1.476 5.56 5.024-.456-.24-.269.172-.553.202-.554.202-.756-.353-1.325-.292-2.867 1.451-4.514 4.932-6.528 6.295-.24.455-.524.484-.181 1.024-1.519.591-2.148 2.815-3.294 4.23z"/><path d="m192.7214 66.3956c-2.193-.346-3.652-1.916-3.479-4.379 2.042-1.078 3.653-3.548 6.071-3.803.299 2.846.246 6.446-2.592 8.182m-4.67 47.223c.172.271 1.384.862 1.16 1.461.06.568-.696.216-.779.8-5.539-.712-6.429-7.808-5.29-13.392-.344-.537.382-.471.352-.756.824-5.838 1.866-10.979 2.69-16.818 1.43-1.445 3.825-.545 5.449-.143 2.305 2.779.133 6.746-.391 9.965-1.221 6.166-3.085 11.683-2.623 18.824-.411.188-.598-.225-.568.059"/><path d="m31.1242 18.3176c-.284.03-.412.187-.539.344.284-.03.411-.188.539-.344zm-1.303-4.177c-.426.045-.47-.381-.217-.696.443.097.472.382.217.696zm-1.316 1.145c.097-.441.808-.516.725.067-.269.173-.426.045-.725-.067zm-.106 4.469c-.412.187-.442-.098-.471-.382.284-.031.441.097.471.382zm-.532 1.781c.06.569-.053.868-.494.771-.016-.142-.045-.426-.075-.711.142-.015.427-.045.569-.06zm-1.033 3.847c-.173-.269-.584-.082-.486-.524.283-.03.441.098.486.524zm-.847 1.526c.016.143.031.285.045.428-.141.015-.284.03-.284.03-.016-.142-.03-.285-.045-.427 0 0 .143-.016.284-.031zm-.359 2.053c.172.268-.539.342-.427.044-.029-.284.411-.187.427-.044zm-1.483 5.043c.015.143.03.285.044.427-.142.015-.142.015-.127.157-.157-.126-.71.075-.628-.508.457.239.285-.031.711-.076zm-.546 1.64c-.143.015-.143.015-.286.03-.014-.142-.014-.142-.029-.285.143-.015.128-.157.128-.157.283-.03.299.112.187.412zm-.159 2.604c-.426.045-.584-.081-.613-.366.411-.188.584.082.613.366zm-.135 4.185c.203.554-.397.33-.195.883-.584-.083-.172-.268-.374-.823.284-.03.427-.045.569-.06zm-1.849.195c-.029-.285.24-.456.682-.359.045.425-.367.614-.682.359zm-.173 7.926c-.015-.143.127-.156.112-.299-.142.016-.299-.112-.442-.098.016.143-.127.159-.112.299.142-.015.3.113.442.098zm-.689-40.764c.014.142-.241.456.045.426-.016-.142.254-.314-.045-.426zm-.372 36.129c-.045-.426.381-.47.68-.357-.097.441-.382.471-.68.357zm-.272 5.639c.03.283.285-.031.27-.173-.142.015-.284.03-.27.173zm-.18-1.707c-.411.187-.314-.256-.74-.211.098-.441.839-.231.74.211zm-.523.486c.016.143-.098.441-.225.598-.412.187-.202-.553-.231-.838.284-.03.313.255.456.24zm-.39 1.767c.015.141.045.425.06.569-.142.016-.284.029-.426.045-.015-.144-.045-.428-.059-.569.141-.015.283-.031.425-.045zm-1.931 6.241c-.031-.283-.045-.426-.06-.569.397-.328.501.666.06.569zm-.257-36.639c.127-.159-.015-.143 0 0-.27.172.03.283 0 0zm.077 37.664c-.143.016-.285.03-.428.045-.014-.141-.044-.426-.059-.568.285-.03.585.083.487.523zm-1.491 3.61c.015.14.015.14.03.285-.141.013-.141.013-.284.029-.015-.144-.015-.144-.03-.285.142-.016.142-.016.284-.029zm-.336.896c-.143.016-.3-.111-.442-.097-.015-.142-.03-.284-.044-.425.426-.045.313.253.486.522zm-.734-43.922c.141-.015.284-.03.426-.045-.015-.142-.03-.285-.045-.427-.285.029-.412.187-.381.472-.27.172.014.142 0 0zm.335 7.298s-.015-.143-.03-.285c-.142.016-.284.031-.427.045.015.142.031.284.031.284.142-.014.284-.029.426-.044zm-1.324 39.394c-.141.015-.284.03-.426.045-.015-.141-.045-.426-.06-.569.285-.029.584.082.486.524zm-.591-46.67s-.367.613.06.568c-.172-.269.509-.628-.06-.568zm-.293 1.324c-.126.158-.239.456.061.569-.016-.142.111-.299.082-.584.569-.06-.217-.696 0 0zm-.202 4.911c-.097.441.314.255.614.367-.045-.427-.456-.24-.614-.367zm.023 1.579c-.016-.142-.03-.284-.045-.427-.143.016-.285.03-.428.045.016.143.03.284.045.427.143-.015.285-.03.428-.045zm-.607 1.071c.696-.217-.075-.711 0 0-.27.171.015.142 0 0zm-.452 14.858c.457.24.367-.614.083-.585.015.144.03.285-.113.301 0 0 .015.141.03.284zm-.09 1.878c-.015-.143-.015-.143-.03-.283 0 0-.142.013-.284.029.016.141.016.141.03.284.142-.015.284-.03.284-.03zm-.073-8.908c-.015-.141-.03-.284-.045-.426 0 0-.142.015-.285.03.016.142.03.284.045.426.143-.015.285-.03.285-.03zm-.421 9.679c.127-.158-.157-.128 0 0-.269.172.015.143 0 0zm-.335-12.762c.457.239.367-.614.098-.443 0 0 .015.144-.128.159.016.141.016.141.03.284zm-.096-5.023c.157.128.03.285-.113.3 0 0 .015.142.031.284.44.098.253-.314.366-.614.142-.015-.157-.127 0 0-.142.015-.142.015-.284.03zm-.165 1.168c.015.142-.255.315.044.426-.014-.142.241-.456-.044-.426zm-.562 1.497c.03.284.075.711.217.696.128-.158.338-.898-.217-.696zm-.149 97.076c.014.142.014.142.029.285-.142.014-.142.014-.284.029-.015-.143-.015-.143-.03-.283.142-.016.142-.016.285-.031zm.642-89.651c-.868-.052-.232-.838-.592-1.52-.082.584-.546 1.64-.231 1.894.127-.156.396-.329.823-.374zm-.373-6.288c-.569.06-1.033 1.116-.719 1.37.397-.329.637-.785.719-1.37zm-.999 16.499c.27-.173-.029-.285 0 0-.284.029.016.141 0 0zm-.134-4.014c.57-.06-.382.473.345.539.27-.172-.119-1.136-.345-.539zm-.531-.95c.427-.045.367-.613.322-1.04.143-.016.143-.016.285-.029-.045-.428.277-1.467-.023-1.581-.254.315-.337.899-.262 1.61-.269.172-.367.613-.322 1.04zm.003 31.49c.029.285-.24.458.06.57-.015-.142.24-.457-.06-.57zm-.126-10.772c.172.271-.053.87.232.84.254-.315.068-.726-.232-.84zm9.214-43.674c.284-.03.254-.314.539-.344.516.808-.255 3.047-1.07 2.126.021 1.579-.585 2.65-1.349 3.592.696-.216.757.352.929.622-.255.314.104.995-.78.801-.224 3.33-.562 6.961-2.882 9.506.425-.045.763-.944 1.107-.405-1.288 6.893-1.978 11.28-3.326 17.606.613 3.098-1.034 6.579-.691 9.849-.696.217-.351.756-.134 1.452-.457-.239-1.138.12-1.595-.119.218.697 1.58-.022 1.655.689-1.333 1.002-.046 2.305-1.049 3.705.217.695.501 3.398-.36 4.781.412-.185.202.555.629.51 1.662-3.337 2.299-6.855 4.261-10.081-.488 2.208-1.078 3.421-1.88 5.374.3.111.741.209 1.041.322.508-.629.478-.913.247-1.752 1.422-.149 1.272-1.572 1.295-2.723.868.051.622-.929 1.003-1.4.3.112.09.854.771.494-.958-.906.494-.771-.082-2.148.711-.075.337-.898 1.048-.974-.501-.666-.164-1.564 1.019-1.256-.187-.413-.045-.428.066-.727-.426.045-.65.644-.726-.067.54-.345 1.521-.591.99-1.542-.114.298-.181 1.025-.51.628 1.797-2.058 3.257-5.949 3.572-8.427.029.284-.112.299-.397.329-.195-1.85 1.026-2.552 1.774-3.638-.299-.112-.509.629-.711.075.053-.868.562-1.497.502-2.067.27-.171.3.114.727.069-.202-.554.763-.944.149-1.309.03.283-.494.769-.539.343.21-.741.292-1.326 1.288-1.429-.231-.84.464-1.056.531-1.781-.298-.114-.651.642-.852.089.374-1.908 2.53-3.287 1.58-5.487.538-.344.636-.786 1.033-1.116.082-.582-.726-.067-.629-.507.337-.899 1.31.148 1.303-1.288-.285.03-.711.075-.727-.067-.074-.711.337-.898.735-1.228.172.27.598.225.897.337.21-.741-.928-.622-.897-.337-.577-1.377.344-2.193.823-3.106-.501-.666.397-3.061 1.153-2.709-.597-5.689 3.326-12.142 1.688-20.885-.419 1.482-.735 3.96-.016 5.322-.396.33-.351.756-1.107.405.217.696-.196.883-.136 1.453.314.253.854-.09 1.011.037-.098.441-.48.913-1.094.546-.276 1.467-1.011 2.694-.576 4.087.142-.015.569-.06.598.223-.141.015.031.285-.253.316-.286.029-.457-.241-.772-.494-1.132 7.021-3.266 12.708-5.37 18.682-.989 7.006-3.228 11.699-5.077 17.357.329.397.711-.074 1.025.18-.097.442.262 1.123-.008 1.295-.314-.254-1.152-.023-1.212-.592.553-.202.457.24.741.21.097-.442-.958-.907-.741-.21l-.143.014c-1.146 4.148-2.321 8.01-4.313 10.951 1.476-6.482 4.973-12.888 5.767-19.012 4.148-9.781 6.171-20.634 8.68-30.964-.643-3.384 1.356-7.62-.942-11.692-2.282 1.534-3.952 3.435-5.292 5.733.299.111.344.539.516.809-.509.628-.921.815-1.317 1.145.441.097.059.568-.24.456-.015 2.59-2.658 6.174-2.898 9.363-.412.188.217.697 0 0zm-9.069 27.269c-.254.313-.262 1.608-.09 1.877-.217-.697.831-1.669.09-1.877zm.18 46.856c.015.144.03.285.045.427-.142.014-.285.03-.427.045-.015-.142-.03-.284-.045-.427.142-.016.285-.03.427-.045zm-.196 3.615c.016.143.03.285.045.427-.142.015-.142.015-.284.03-.015-.142-.031-.285-.045-.427.142-.014.142-.014.284-.03zm.065-32.217c-.142.016-.314-.254-.441-.095.202.552-.067.725.247.98-.03-.285.239-.457.194-.885zm.194 10.047c-.284.03-.711.074-.666.5.426-.045.539-.343.666-.5zm-.318-31.746c.076.711-.704 1.512-.216 2.036-.076-.711.704-1.51.216-2.036zm-.437 23.197c.187.413-.21.742-.008 1.295.569-.06.576-1.355.008-1.295zm-.028-16.677c.188.412-.351.756.089.853-.029-.285.495-.771-.089-.853zm.236 72.015c-.142.016-.284.031-.427.045-.015-.142-.029-.284-.044-.426.299.112.442.098.471.381zm-.025-80.952c-.157-.128-.187-.413-.456-.24.015.143.045.427.187.412-.015-.142.127-.157.269-.172zm-.204 10.374c-.014-.141-.029-.284-.029-.284-.142.015-.142.015-.284.03 0 0 .014.143.029.284.143-.015.143-.015.284-.03zm-.354 19.88c.014.143-.352.757.075.712.127-.157.352-.756-.075-.712zm-.233 1.895c-.096.44.33.395.487.524.097-.441-.074-.711-.487-.524zm-.013 39.544c-.299-.112-.03-.284-.06-.569.299.114.045.427.06.569zm.658-41.625c-.359-.681.846-1.527-.18-1.706.247.98-.449 1.196-.674 1.795.285-.029.569-.059.854-.089zm.805-26.543c-.082.584-.105 1.737-.891 1.101-.083.583-.465 1.055-.248 1.75l-.142.016c.105.996-.577 1.355-.172 2.463-.57.059.216.695 0 0 .367-.615.277-1.467.314-2.479.21-.74.719-1.368 1.416-1.586-.045-.426-.09-.853-.135-1.279.569-.061-.218-.697 0 0zm-1.371 10.211c-.233-.84.322-1.041.232-1.895.112-.299.225-.599.352-.756-.442-.097-.554.202-.352.756-.398.328-.831 1.669-.232 1.895zm-.198 14.543c.27-.172-.029-.286 0 0-.284.03.016.142 0 0zm-.159 8.07c.03.283.024 1.579.248.98-.03-.285-.022-1.58-.248-.98zm-.013-11.072c.061.569.233.839.533.951-.031-.285-.061-.569-.106-.996.711-.075-.074-.711 0 0-.142.015-.284.03-.427.045zm.495 47.113c-.285.029-.584-.083-.487-.526.285-.029.442.098.487.526zm.029-39.403c-1.011-.038-.502 2.067.149 1.422-.487-.525-.232-.838-.149-1.422zm-.613 42.053c.269-.173-.031-.285 0 0-.27.171.014.141 0 0zm.189-61.133c.06.569-.18 1.026-.42 1.483.868.051.861-1.385.42-1.483zm-.442 2.634c.03.285-.255.316-.068.728.457.238.353-.758.068-.728zm-.078 15.683c.203.555-.239.455-.051.868.456.239.336-.898.051-.868zm-.002-26.028.141-.013c-.202-.555.465-1.056-.119-1.139.029.285-.226.599-.022 1.152-.271.172.014.143 0 0zm-.054 6.334c.142-.015.142-.015.284-.031.225-.598.486-2.207.128-2.888-.038 1.01-.218 2.037-.412 2.919-.367.614.419 1.25 0 0zm-.144 8.211.143-.015c-.202-.555.239-.457.194-.883-.584-.082-.224.599-.337.898-.269.172.015.143 0 0zm-.129 13.818.426-.045c-.029-.284-.059-.569-.202-.555.03.285-.411.188-.382.473.143-.015.285-.03.158.127zm.108-20.862c.045.427-.621.929-.008 1.296.112-.299.465-1.055.008-1.296zm-.144 8.212c-.127.157-.337.898.09.853-.172-.271.352-.756-.09-.853zm.113-.3c.112-.299.097-.442-.203-.554.031.285-.096.442-.082.585 0 0 .142-.016.285-.031zm-.299-5.577c.247.982-.674 1.797-.03 2.448-.232-.838.689-1.654.03-2.448zm-.233 7.36c.217.695-.038 1.01-.12 1.594.583.082.846-1.528.12-1.594zm-.032 7.91c.173.27-.351.756.09.854-.172-.27.495-.771-.09-.854zm-.111-5.165c.03.285-.24.458-.209.741-.428.045.358.682 0 0 .284-.03.396-.328.351-.756.382-.47-.403-1.107 0 0zm-.367 3.347.142-.016c.127-.156.337-.897-.09-.852-.128.157-.239.455-.052.868-.269.171.014.142 0 0zm.544 9.289s.016.142.031.285c.142-.016.285-.03.427-.045-.031-.285-.172-.27-.458-.24-.029-.286-.314-.254-.284.031-.502-.666-.808.515-.224.599-.03-.286.412-.189.224-.599.143-.016.284-.031.284-.031zm-.641-8.848c.045.427-.24.457-.21.74.584.084.651-.642.21-.74zm-.277-3.998c.674-1.795.51-3.36.712-5.538.539-.345-.247-.98 0 0-.673 1.797-.495 3.503-.712 5.538zm-.015 5.323c.186.411-.338.898.104.996.082-.585.494-.772-.104-.996zm-.097-5.023c.119 1.138-.614 2.366-.083 3.316.008-1.296.487-2.208.083-3.316zm-.188 5.053c-.202-.554.21-.742-.007-1.437.269-.172-.016-.143 0 0-.239.457-.592 1.213.007 1.437zm-.016 8.053c-.218-.695.194-.882-.022-1.579.284-.03-.015-.142 0 0-.412.188-.435 1.341.022 1.579zm.135 1.281c-.143.014-.3-.112-.173-.269-.143.015-.285.029-.427.045.172.269-.037 1.01.232.838-.187-.412.397-.328.368-.614zm-.966.389c.023-1.152.397-3.061.105-4.469.405-1.624.734-3.959.33-5.068-.12 1.596-.382 3.205-.33 5.068.007 1.438-.636 3.518-.105 4.469zm-.23 36.116c.171.271-.165 1.167.261 1.123.255-.315.037-1.01-.261-1.123zm-.195-1.848c.03.284.202.553.345.539-.03-.285.194-.884-.345-.539zm.211-11.669c.128-.158.098-.443.053-.869l.142-.015c-.03-.285.053-.869-.359-.682-.098.442.06.57.217.697-.27.172-.494.77-.053.869zm-.261-3.856c.015.142-.083.584.203.554-.173-.269.493-.771-.203-.554zm.088 9.05c.368-.613-.419-1.25 0 0-.269.172.031.283 0 0zm-.135 4.184c.015.142.03.285.06.569.584.081.48-.913-.06-.569zm-.013-8.338c.186.412-.353.756.089.852.142-.014.352-.756-.089-.852zm-.23-19.964c.329.397-.351.756.09.853.127-.157.239-.456.195-.883.337-.899.615-2.366.068-3.457-.322 1.039.209 1.99-.427 2.776.299.112.187.411.359.681-.142.015-.142.015-.285.03zm-.049 32.358c-.098.444-.076 2.022.268 2.561-.246-.981.375-1.909-.268-2.561zm.235-21.018c-.569.059-.494.772-.577 1.354.554-.201.338-.896.577-1.354zm-.503 4.8c.188.41-.479.912.105.994-.03-.283.336-.899-.105-.994zm-.149 1.308c.03.285-.068.727.217.695.126-.156.336-.898-.217-.695zm.119 1.138c.187.413-.479.913.12 1.139.128-.16.164-1.169-.12-1.139zm-.051-4.596c.201.554-.435 1.339.164 1.565-.202-.554.577-1.355-.164-1.565zm-.024 9.35c.216.695-.419 1.481.194 1.847-.218-.696.434-1.339-.194-1.847zm-.113-2.434c.36.683-.291 1.325.165 1.565.27-.171.075-2.021-.165-1.565zm-.06 7.628c.77.493-.233 1.893.396 2.402.239-.457.127-2.888-.396-2.402zm26.144-83.704c-.255.315-.097.443.187.413-1.744 6.653-3.281 15.299-6.524 21.391.159.129.188.412.233.84-3.947 13.068-7.369 25.65-13.973 36.697-.099.441.456.238.516.808-.554.202-.456-.24-.756-.351-.696 2.948-.697 5.68-.81 8.711-.285.031-.426.045-.584-.082-.037 1.011.674.935.636 1.947-.411.187-.441-.098-.472-.383-.508.629.674.936.352 1.977-.426.045-.854.09-.509.629.188.412.225-.6.568-.061.045.428-.067.727-.006 1.296-.555.201-.329-.397-.884-.196.045.427.104.996.659.795-.225.598-.465 1.054-.847 1.527.217.695.569-.061 1.041.322.203.553-.539.344-.651.643.03.284.06.569.217.695-.142.016-.27.174-.255.315.173.27.218.696.771.494-.508.63-.352.756-.419 1.482-.127.158-.27.172-.24.457.285-.029.27-.173.24-.457.142-.015.157.127.314.254.045.428-.382.473-.794.659.359.681-.188 2.321.839 2.501.231.838-.494.771-.577 1.356.202.552.913.478.733 1.504-.141.015-.427.045-.568.06.029.283.074.711.119 1.137.172.269.284-.03.568-.061.135 1.282-.448 1.2-.471 2.352.187.412.24-.457.681-.359.06.568.119 1.138.164 1.564-.141.014-.426.044-.411.187 0 0-.142.016-.285.031.218.694.39.965.008 1.435.014.143.77.495.217.697.187.412.396-.33.726.068-.068.727.403 1.107.149 1.422-.397.329-.442-.098-.742-.21-.067.725.488.524.405 1.108-.285.031-.569.061-.853.09.598.224.771.494 1.295.008.389.965.179 1.705.441 2.829-.285.03-.299-.112-.569.06.801.777.651 2.087 1.736 2.837-.375 1.909 1.317 1.586 1.384 3.592-.726-.066-.966.39-1.535.45-.815-.921-2.521-.743-2.971-2.277-.569.06-.396.33-.965.39-5.77-9.746-4.892-24.649-4.464-32.891-.785-.637-.24-2.275-.044-3.159-.471-3.114.053-6.331-.388-9.161.284-.03.412-.188.682-.361-.457-.239-.659-.792.194-.881-.097-5.024.855-11.02 1.058-15.93.285-.03.112-.299.082-.584-.127.158-.097.441-.082.584-.711.074-.389-.965.352-.756-.434-1.392.411-2.92-.262-3.855.307-1.182.772-4.969.667-5.965-.074-.711.286-.03.57-.059.509-.63-.419-1.251.12-1.595-.03-.285-.143.015-.428.044.989-1.541.293-4.057 1.424-5.613-.119-1.137-.516-3.541.308-3.915.195-.882-.15-1.422.531-1.782-.015-.141-.299-.111-.584-.082.704-1.512-.208-4.723 1.768-5.074-.458-.241-.203-.554-.105-.996-.569.06-.053.868-.48.913-1.256-1.017 1.311-2.581.039-3.743.269-.172.038-1.01.763-.943-.576-1.377-.201-3.286.72-4.102.082-.583-.218-.696-.263-1.122 2.241-7.425 3.567-15.33 7.16-22.179 1.714-4.205 3.116-8.666 7.331-10.979-.084.584.186.413.231.84.411-.189-.217-.697-.105-.996 3.211-.914 7.186-.037 8.877 2.374-.141.015-.426.045-.568.06 1.295.007 1.317 1.586 1.735 2.836-.426.045-.598-.225-.68.359.014.142.441.097.725.067-.082.585.15 1.423.224 2.134-.269.172-.396.33-.666.502.404 1.108.592 1.519.486 3.256-.127.158-.569.06-.68.359.912 3.211-.63 7.687-1.597 10.809.576 1.378-.27 2.904-1.16 4.004.329.398.515.808-.181 1.025.404 1.109-.157 2.605-.651 3.377-.031-.285-.172-.27-.187-.413z" mask="url(#b)" transform="translate(201 .224)"/></g></svg>