<?xml version="1.0" encoding="UTF-8"?>
<svg width="132px" height="125px" viewBox="0 0 132 125" version="1.1" xmlns="http://www.w3.org/2000/svg" xmlns:xlink="http://www.w3.org/1999/xlink">
    <!-- Generator: Sketch 51.3 (57544) - http://www.bohemiancoding.com/sketch -->
    <title>index_word_Web</title>
    <desc>Created with Sketch.</desc>
    <defs>
        <filter x="-1.9%" y="-2.1%" width="103.8%" height="108.3%" filterUnits="objectBoundingBox" id="filter-1">
            <feOffset dx="0" dy="5" in="SourceAlpha" result="shadowOffsetOuter1"></feOffset>
            <feColorMatrix values="0 0 0 0 1   0 0 0 0 1   0 0 0 0 1  0 0 0 1 0" type="matrix" in="shadowOffsetOuter1" result="shadowMatrixOuter1"></feColorMatrix>
            <feMerge>
                <feMergeNode in="shadowMatrixOuter1"></feMergeNode>
                <feMergeNode in="SourceGraphic"></feMergeNode>
            </feMerge>
        </filter>
        <polygon id="path-2" points="0 0.20748993 80.4578 0.20748993 80.4578 102.999628 0 102.999628"></polygon>
        <polygon id="path-4" points="0.1053 0.353 39.3786878 0.353 39.3786878 108.77456 0.1053 108.77456"></polygon>
    </defs>
    <g id="Page-1" stroke="none" stroke-width="1" fill="none" fill-rule="evenodd">
        <g id="A4" transform="translate(-295.000000, -527.000000)">
            <g id="index_word_Web" filter="url(#filter-1)" transform="translate(295.000000, 526.000000)">
                <g id="Group-3" transform="translate(0.000000, 17.647000)">
                    <mask id="mask-3" fill="white">
                        <use xlink:href="#path-2"></use>
                    </mask>
                    <g id="Clip-2"></g>
                    <path d="M76.0898,3.6951 C76.4258,3.5841 75.8658,3.1351 76.0898,3.6951 C75.8658,3.6951 76.0898,3.8071 76.0898,3.6951 Z M75.4178,5.2631 C75.4178,5.0401 75.8658,4.7041 75.5298,4.5911 C75.5298,4.9271 75.0818,4.7041 75.0818,5.0401 C75.3058,5.0401 75.1938,5.2631 75.4178,5.2631 Z M72.7298,11.9831 C72.7298,11.8721 72.8418,11.7591 72.8418,11.5351 C72.9538,11.4241 73.0658,11.4241 73.4018,11.4241 C72.9538,10.3031 73.7378,9.6321 74.0738,8.7351 C74.0738,8.8471 74.1858,8.9601 74.2978,9.0711 C73.8498,7.6151 74.6338,7.1681 74.5218,6.1601 C73.8498,6.9431 74.0738,8.0631 73.6258,8.8471 C73.5138,9.0711 73.1778,9.1831 73.0658,9.4071 C73.0658,9.6321 73.2898,9.9671 73.1778,10.1911 C73.0658,10.6391 72.2818,11.1991 72.8418,11.5351 C72.5058,11.3111 72.3938,11.9831 72.7298,11.9831 Z M72.3938,8.6241 C72.3938,8.2881 72.5058,8.2881 72.5058,8.0631 C72.9538,8.0631 72.8418,8.7351 72.3938,8.6241 Z M72.0578,14.4471 C72.0578,14.2231 72.2818,14.3361 72.2818,14.1111 C72.6178,14.2231 72.1698,14.6721 72.0578,14.4471 Z M71.6098,10.5271 C71.6098,10.3031 71.7218,10.1911 72.0578,10.1911 C71.9458,10.4161 71.8338,10.5271 71.6098,10.5271 Z M71.4978,15.9031 C71.4978,15.5671 71.6098,15.4561 71.7218,15.3431 L71.7218,15.9031 C71.6098,15.9031 71.4978,16.0151 71.4978,15.9031 Z M71.8338,10.8631 C71.7218,10.9751 71.8338,11.4241 71.4978,11.3111 L71.4978,10.8631 L71.8338,10.8631 Z M71.7218,7.3911 C71.8338,7.8401 71.3858,7.6151 71.4978,8.0631 C71.8338,8.1751 72.0578,7.5041 71.7218,7.3911 Z M71.3858,23.8551 C71.3858,23.7431 71.6098,23.7431 71.6098,23.6321 C71.4978,23.7431 71.3858,23.6321 71.3858,23.8551 Z M71.1618,10.8631 C71.1618,11.0881 71.0498,10.8631 70.9378,10.8631 C70.9378,10.7521 71.1618,10.7521 71.1618,10.8631 Z M71.0498,9.8551 C71.0498,9.9671 70.9378,9.9671 70.8258,9.9671 C70.8258,9.8551 70.9378,9.8551 71.0498,9.8551 Z M70.4898,19.3761 C70.4898,19.5991 70.6018,19.8231 70.3778,19.9351 C70.3778,19.7121 70.3778,19.3761 70.4898,19.3761 Z M70.3778,13.5511 C69.8178,13.3281 70.7138,12.4311 70.7138,11.8721 C71.1618,11.9831 70.3778,13.1031 70.3778,13.5511 Z M70.3778,10.7521 C70.2658,10.4161 70.2658,10.1911 70.3778,9.8551 C71.0498,10.1911 70.4898,11.3111 70.0418,11.4241 C69.9298,10.9751 70.1538,10.8631 70.3778,10.7521 Z M69.8178,12.0951 C69.4818,11.9831 69.8178,11.5351 70.0418,11.4241 C70.1538,11.8721 69.8178,11.7591 69.8178,12.0951 Z M69.5938,16.9121 L69.8178,16.9121 L69.8178,16.6871 L69.5938,16.6871 L69.5938,16.9121 Z M70.1538,13.2161 C69.9298,12.9911 69.5938,12.9911 69.5938,12.6551 C69.9298,12.6551 70.1538,12.8801 70.1538,13.2161 Z M69.4818,15.5671 C69.5938,15.2311 69.4818,14.6721 69.7058,14.4471 C70.0418,14.6721 69.8178,15.3431 69.4818,15.5671 Z M69.7058,13.5511 C69.5938,13.4391 69.3698,13.3281 69.3698,13.5511 C68.9218,13.4391 69.4818,13.2161 69.4818,13.1031 C69.5938,13.1031 69.7058,13.3281 69.7058,13.5511 Z M69.3698,27.6641 C69.5938,27.5511 69.7058,27.1031 69.3698,26.9911 L69.3698,27.6641 C68.9218,27.8871 69.4818,28.4471 69.3698,27.6641 Z M69.4818,18.4791 C69.2578,18.3671 69.3698,18.1431 69.1458,18.1431 C69.2578,18.0311 69.4818,18.0311 69.4818,17.9201 C69.8178,18.0311 69.3698,18.1431 69.4818,18.4791 Z M69.3698,16.6871 L69.3698,16.9121 C69.2578,16.9121 69.1458,17.0231 69.1458,17.1351 L68.9218,17.1351 L68.9218,16.7991 C69.0338,16.7991 69.0338,16.7991 69.0338,16.6871 L69.3698,16.6871 Z M69.0338,15.1191 C68.8098,15.1191 69.0338,14.5591 68.9218,14.4471 C69.2578,14.4471 69.2578,14.8951 69.0338,15.1191 Z M68.9218,25.5351 C68.4738,25.4241 68.8098,24.9751 68.9218,24.7521 C69.2578,24.8631 68.9218,25.3111 68.9218,25.5351 Z M69.0338,16.4641 C68.9218,16.7991 68.6978,16.2391 68.4738,16.2391 C68.4738,16.0151 68.9218,16.1281 68.9218,15.9031 C69.3698,15.9031 68.6978,16.4641 69.0338,16.4641 Z M68.4738,15.7921 C68.4738,15.3431 69.2578,15.2311 69.1458,15.7921 L68.4738,15.7921 Z M68.3618,31.4711 C68.6978,31.6951 68.8098,31.0231 68.4738,31.0231 C68.4738,31.1351 68.4738,31.2481 68.3618,31.2481 L68.3618,31.4711 Z M68.2498,29.0071 C68.3618,29.0071 68.4738,29.0071 68.4738,28.8951 C68.3618,28.8951 68.2498,28.8951 68.2498,29.0071 Z M68.2498,17.2481 L68.2498,16.9121 C68.3618,17.0231 68.3618,16.9121 68.3618,16.7991 C68.5858,16.7991 68.5858,17.4711 68.2498,17.2481 Z M67.8018,23.5191 C67.5778,23.4071 67.8018,23.2961 67.8018,23.1831 C68.0258,23.1831 67.9138,23.4071 67.8018,23.5191 Z M67.8018,30.2391 C67.9138,30.4641 67.6898,30.5751 67.6898,30.7991 C68.1378,30.7991 68.2498,30.2391 67.8018,30.2391 Z M67.8018,19.1511 C67.6898,19.3761 68.3618,20.0481 67.6898,20.0481 C67.9138,19.5991 67.5778,19.4871 67.5778,18.9271 C67.6898,18.4791 68.0258,18.1431 68.4738,18.0311 C68.0258,18.3671 68.3618,19.1511 67.8018,19.1511 Z M67.1298,30.7991 C67.2418,30.9111 67.3538,30.9111 67.3538,30.7991 L67.1298,30.7991 Z M67.0178,24.0801 C66.6818,23.6321 67.2418,23.0711 67.3538,22.6241 C67.9138,22.7351 67.1298,23.7431 67.0178,24.0801 Z M67.1298,26.3191 C67.0178,26.4311 66.9058,26.3191 66.9058,26.5441 C67.0178,26.4311 67.1298,26.4311 67.1298,26.3191 Z M66.9058,24.7521 C66.7938,24.9751 66.7938,24.7521 66.6818,24.7521 C66.6818,24.5271 66.9058,24.6391 66.9058,24.7521 Z M66.4578,37.4071 L66.4578,38.0791 C66.9058,38.3031 66.9058,37.1831 66.4578,37.4071 Z M66.3458,26.6551 C65.8978,26.0951 66.6818,25.6471 66.3458,25.1991 C67.0178,24.9751 66.4578,26.0951 66.3458,26.6551 Z M66.1218,24.6391 C66.1218,22.9601 66.7938,22.0631 67.0178,20.7191 C67.3538,20.7191 67.2418,21.0551 67.5778,20.9431 C66.6818,22.0631 66.9058,23.7431 66.1218,24.6391 Z M65.6738,25.5351 C65.6738,25.1991 65.7858,24.9751 66.1218,24.9751 C66.1218,25.3111 66.0098,25.5351 65.6738,25.5351 Z M66.0098,25.8711 C65.7858,26.3191 65.8978,26.9911 65.5618,27.3271 C65.1138,26.7671 65.5618,26.3191 65.5618,25.8711 L66.0098,25.8711 Z M65.4498,39.6471 C65.3378,39.7591 65.1138,40.4311 65.4498,40.4311 C65.4498,40.0951 65.6738,39.9831 65.4498,39.6471 Z M65.3378,30.6871 C65.1138,30.5751 65.2258,30.3511 65.1138,30.1281 C65.4498,30.1281 65.4498,30.4641 65.3378,30.6871 Z M65.6738,29.9031 L65.0018,29.9031 C65.1138,29.7921 65.1138,29.6791 65.1138,29.4551 C65.2258,29.5671 65.3378,29.5671 65.5618,29.5671 L65.5618,29.3431 C65.7858,29.3431 65.6738,29.6791 65.6738,29.9031 Z M65.1138,34.0481 C65.1138,33.8231 65.0018,33.7121 64.8898,33.5991 C64.8898,33.8231 65.0018,33.9351 65.1138,34.0481 Z M64.6658,43.1191 C64.3298,43.3431 64.3298,44.1281 64.7778,43.6791 C64.3298,43.7911 65.1138,43.2311 64.6658,43.1191 Z M64.3298,34.9431 C64.2178,34.9431 64.2178,34.6071 64.2178,34.3831 C64.6658,34.2711 64.4418,34.8321 64.3298,34.9431 Z M64.2178,35.9511 C64.1058,36.2871 63.7698,35.9511 63.9938,35.6151 C64.1058,35.6151 63.9938,35.9511 64.2178,35.9511 Z M63.7698,48.9431 C63.8818,48.9431 64.1058,48.9431 64.1058,48.8311 C63.9938,48.8311 63.7698,48.8311 63.7698,48.9431 Z M64.1058,38.4161 C63.8818,38.8631 63.6578,38.3031 63.7698,38.0791 C63.9938,38.0791 63.8818,38.4161 64.1058,38.4161 Z M65.0018,29.3431 C64.6658,30.0151 64.6658,30.4641 64.8898,31.2481 L64.4418,31.2481 C64.6658,31.5841 64.5538,31.5841 64.3298,31.9201 C64.4418,32.0311 64.7778,32.5911 64.7778,32.0311 C65.3378,32.3671 64.3298,32.5911 64.2178,32.2561 C64.1058,32.5911 64.1058,32.7031 63.9938,33.2631 C63.9938,33.3761 64.2178,33.2631 64.2178,33.4871 C64.4418,33.3761 64.3298,32.9271 64.7778,33.0391 C64.6658,33.3761 64.4418,33.4871 64.4418,34.0481 C64.3298,33.9351 64.3298,33.8231 64.2178,33.5991 C63.7698,33.8231 63.9938,34.3831 63.6578,34.3831 C64.1058,35.7271 63.4338,36.5111 62.7618,37.6321 C62.8738,35.1681 64.1058,32.1431 64.6658,29.2311 C64.7778,29.1191 64.8898,29.3431 65.0018,29.3431 Z M62.6498,40.4311 L62.6498,40.2071 C62.7618,40.2071 62.7618,40.0951 62.7618,40.0951 C62.9858,39.9831 62.9858,40.6551 62.6498,40.4311 Z M63.4338,38.4161 C62.8738,37.9671 62.6498,38.5271 62.4258,38.9751 C61.7538,37.9671 63.7698,37.7431 63.6578,36.6231 C64.2178,36.8471 63.4338,37.8551 63.4338,38.4161 Z M61.9778,40.0951 C61.8658,39.6471 62.2018,39.6471 62.0898,39.3111 C62.2018,39.3111 62.3138,39.4241 62.4258,39.4241 C62.6498,39.4241 62.5378,39.1991 62.6498,39.0881 C63.2098,39.4241 62.3138,39.9831 61.9778,40.0951 Z M62.0898,53.8711 C61.8658,53.7591 61.8658,54.5431 62.0898,54.4311 C62.3138,54.2071 62.0898,54.3191 62.0898,53.8711 C62.2018,53.9831 62.2018,53.8711 62.2018,53.7591 C62.3138,53.6471 62.6498,52.9751 62.3138,52.8631 C62.0898,53.0881 61.9778,53.4241 62.2018,53.7591 C62.0898,53.7591 62.0898,53.8711 62.0898,53.8711 Z M61.6418,55.8881 L61.9778,55.8881 L61.9778,55.6631 L61.6418,55.6631 L61.6418,55.8881 Z M61.0818,50.1751 C60.7458,50.1751 61.0818,49.7271 61.0818,49.6151 C61.5298,49.7271 60.9698,49.8401 61.0818,50.1751 Z M60.9698,58.9111 L60.8578,58.9111 C60.8578,59.4711 60.4098,59.9201 60.8578,60.3671 C60.9698,59.8071 61.1938,59.4711 60.9698,58.9111 C61.0818,58.9111 61.0818,58.7991 61.0818,58.7991 C61.1938,58.6871 61.5298,58.2391 61.3058,58.2391 C61.1938,58.3511 61.0818,58.4641 61.0818,58.7991 C60.9698,58.6871 60.9698,58.7991 60.9698,58.9111 Z M60.7458,49.1681 C60.6338,49.1681 60.5218,49.0551 60.7458,49.0551 L60.7458,49.1681 Z M60.4098,51.5191 C60.4098,51.8551 60.0738,51.5191 60.1858,51.1831 C60.2978,51.2961 60.2978,51.5191 60.4098,51.5191 Z M58.9538,57.7911 C58.6178,57.5671 59.1778,57.2311 58.9538,56.8951 C59.2898,56.8951 59.0658,57.6791 58.9538,57.7911 Z M58.7298,58.4641 C58.7298,58.2391 58.7298,58.0151 58.8418,57.9031 C58.9538,58.0151 58.9538,58.0151 58.9538,58.2391 C58.8418,58.2391 58.8418,58.4641 58.7298,58.4641 Z M58.9538,67.7591 C58.3938,67.6471 58.5058,68.3191 58.8418,68.4311 C58.7298,68.0951 59.0658,68.0951 58.9538,67.7591 Z M66.4578,36.0631 C65.8978,35.9511 65.8978,36.3991 66.0098,36.8471 C65.3378,37.0711 66.1218,36.9601 66.0098,37.5191 C65.7858,37.5191 65.7858,37.7431 65.5618,37.7431 C65.5618,36.9601 65.5618,35.0551 66.7938,35.3911 C66.5698,34.9431 67.3538,34.6071 66.9058,34.2711 C66.7938,34.6071 66.4578,34.7191 66.1218,34.7191 C66.3458,34.3831 66.3458,33.8231 66.6818,33.5991 C66.9058,33.5991 66.9058,33.9351 67.1298,34.0481 C67.0178,33.3761 67.4658,33.0391 67.0178,32.8151 C66.9058,32.9271 66.7938,33.5991 66.6818,33.2631 C66.5698,32.4791 66.9058,32.1431 67.3538,31.9201 C67.3538,31.4711 67.0178,31.5841 67.0178,31.3591 C67.6898,31.6951 67.8018,30.3511 67.3538,30.7991 C67.0178,30.2391 67.5778,29.6791 68.1378,29.4551 C67.5778,29.0071 67.8018,27.5511 68.4738,28.3361 C68.4738,28.4471 67.6898,28.5591 68.1378,28.7831 C68.1378,28.5591 68.5858,28.6721 68.6978,28.5591 C68.6978,28.0001 68.8098,27.4391 68.9218,26.9911 C68.6978,26.9911 68.4738,26.9911 68.3618,26.7671 C68.5858,26.5441 69.1458,26.9911 69.1458,26.3191 C68.9218,26.3191 68.3618,26.5441 68.3618,26.2081 C68.6978,26.2081 68.6978,25.8711 68.9218,25.8711 C69.0338,25.8711 69.0338,26.0951 69.1458,26.0951 C69.5938,25.4241 69.3698,24.9751 69.0338,24.3031 C69.2578,24.1911 69.1458,23.5191 69.5938,23.6321 C69.1458,22.8471 69.8178,22.1751 70.1538,21.8401 C70.1538,21.9511 70.1538,22.1751 70.2658,22.1751 C70.3778,21.8401 70.3778,21.5041 70.4898,21.2791 C70.2658,21.0551 70.0418,21.6151 70.0418,21.2791 C70.0418,20.4961 70.3778,21.0551 70.4898,20.6071 C70.1538,20.4961 70.0418,20.1591 70.3778,19.9351 C70.3778,20.1591 70.3778,20.3831 70.7138,20.4961 C70.8258,19.9351 71.0498,19.4871 71.1618,18.9271 C71.0498,19.0401 70.9378,18.9271 70.9378,18.8151 C71.1618,18.7031 70.9378,18.7031 70.9378,18.8151 C70.8258,18.8151 70.3778,19.3761 70.2658,18.9271 C70.8258,18.8151 70.7138,18.1431 71.4978,18.2561 C71.6098,17.5841 70.9378,18.4791 70.8258,18.0311 C71.0498,17.4711 71.0498,17.0231 71.4978,16.5751 C71.6098,16.4641 71.4978,16.3511 71.4978,16.5751 C71.3858,16.5751 71.3858,16.3511 71.3858,16.2391 C71.7218,16.3511 71.8338,16.2391 71.7218,15.9031 L71.8338,15.9031 C72.3938,15.6791 71.3858,16.6871 71.8338,16.7991 C72.0578,16.4641 72.1698,15.7921 72.2818,15.3431 C72.0578,15.2311 71.7218,15.2311 71.7218,14.8951 C72.0578,14.8951 72.2818,14.7831 72.5058,14.6721 C72.5058,14.0001 72.9538,13.8871 72.9538,13.2161 C72.5058,13.1031 72.7298,13.7751 72.2818,13.5511 C72.1698,12.8801 72.7298,12.8801 72.5058,12.0951 C71.1618,14.7831 69.8178,18.8151 69.4818,22.0631 C67.0178,28.1111 66.0098,34.8321 64.4418,39.5351 C64.7778,40.9911 63.3218,42.4471 63.4338,44.4641 C62.8738,45.4711 62.9858,46.7031 62.4258,47.4871 C62.2018,49.6151 61.9778,51.1831 61.3058,52.7521 C60.4098,58.7991 58.7298,64.2871 57.4978,69.9991 C58.2818,68.7671 58.6178,67.1991 58.9538,65.1831 C59.5138,65.1831 59.5138,64.9591 59.0658,64.5111 C60.0738,62.3831 60.0738,59.2471 61.0818,57.0081 C60.8578,55.5511 62.2018,54.0951 61.7538,52.0791 C62.4258,51.9671 62.0898,51.0711 62.4258,50.8471 C62.9858,50.6231 62.5378,51.2961 62.8738,51.1831 C62.9858,50.3991 63.3218,49.1681 63.4338,48.8311 C62.4258,48.7191 63.0978,50.2871 62.3138,50.3991 C62.7618,48.2711 63.5458,46.7031 63.6578,45.1351 C63.8818,45.0231 64.3298,45.1351 64.4418,44.9111 C64.4418,44.6871 64.6658,44.2391 64.3298,44.2391 C64.3298,44.5751 63.8818,44.2391 63.9938,44.1281 C64.4418,42.0001 64.8898,40.2071 65.4498,38.1911 C65.5618,38.3031 65.6738,38.4161 65.7858,38.4161 C66.0098,37.8551 66.3458,37.4071 66.0098,36.8471 C66.6818,36.8471 66.0098,36.2871 66.4578,36.0631 Z M56.2658,75.8231 C56.3778,75.8231 56.6018,75.8231 56.6018,75.7111 C56.4898,75.7111 56.2658,75.7111 56.2658,75.8231 Z M56.6018,65.2951 C56.1538,65.2951 56.1538,65.6321 56.1538,65.8551 C56.4898,65.8551 56.4898,65.6321 56.6018,65.2951 Z M61.9778,42.4471 C61.9778,42.6721 62.0898,42.4471 62.0898,42.3361 C62.2018,42.3361 62.2018,42.2231 62.4258,42.2231 C62.3138,42.6721 62.0898,42.8951 61.6418,43.0081 C61.8658,44.9111 60.9698,45.6951 61.0818,46.9271 C60.1858,49.3911 59.9618,52.3031 59.0658,55.5511 C59.0658,55.7751 59.2898,55.7751 59.4018,55.8871 C58.7298,56.5591 58.3938,58.1271 58.2818,59.4711 C58.7298,59.3591 58.2818,58.7991 58.7298,58.4641 C59.0658,58.7991 58.2818,59.6951 58.6178,59.9201 C58.3938,60.3671 58.1698,59.8071 58.0578,60.1431 C57.9458,60.3671 58.1698,60.3671 58.2818,60.4791 C57.7218,63.3911 56.4898,65.7431 55.9298,68.5431 C55.8178,65.9671 56.3778,62.7191 57.6098,60.9271 C57.1618,60.7031 57.4978,61.3751 57.0498,61.1511 C57.7218,58.3511 58.5058,55.2161 58.9538,52.7521 C59.1778,52.7521 59.1778,52.8631 59.4018,52.8631 C59.4018,52.6391 59.2898,52.5271 58.9538,52.5271 C58.9538,51.8551 59.6258,52.3031 59.7378,51.8551 C59.7378,51.4071 59.4018,51.9671 59.2898,51.6321 C59.5138,51.0711 59.4018,49.9511 60.1858,49.6151 C59.8498,48.3831 60.0738,47.4871 60.8578,46.8151 C60.7458,46.1431 60.4098,47.0391 60.2978,46.7031 C60.5218,45.4711 61.0818,44.6871 61.5298,43.6791 C61.5298,43.5671 61.3058,43.5671 61.0818,43.5671 C61.1938,42.3361 61.5298,41.6631 61.7538,40.2071 C62.7618,40.5441 61.9778,41.4391 62.0898,42.3361 C61.9778,42.3361 61.9778,42.4471 61.9778,42.4471 Z M57.2738,71.5671 C56.4898,73.1351 56.0418,75.1511 55.4818,77.0551 C56.4898,75.5991 57.0498,73.1351 57.2738,71.5671 Z M54.1378,79.8551 C54.4738,80.7511 53.4658,81.1991 53.5778,82.3191 C54.5858,80.7511 55.2578,79.0711 55.3698,77.1671 C54.8098,77.5031 55.2578,78.3991 54.6978,78.5111 C54.8098,78.8471 54.4738,79.9671 54.1378,79.8551 Z M53.3538,82.7671 C53.2418,83.1031 52.9058,83.3271 53.3538,83.4391 C53.3538,83.4391 53.6898,82.8791 53.3538,82.7671 Z M52.5698,80.3031 C52.5698,80.4151 52.3458,80.3031 52.2338,80.4151 C52.2338,80.3031 52.4578,80.3031 52.5698,80.3031 Z M55.9298,69.3271 C54.8098,72.9111 53.6898,76.1591 52.7938,79.7431 C52.1218,79.0711 52.5698,80.1911 52.0098,80.3031 C51.8978,78.6231 53.3538,76.9431 53.3538,75.3751 C54.1378,75.5991 54.2498,73.8071 54.0258,73.8071 C53.8018,72.5751 55.0338,70.5591 54.9218,68.9911 C55.2578,68.8791 55.4818,68.6551 55.9298,68.5431 L55.9298,69.3271 Z M51.6738,81.0871 C51.4498,80.8631 51.5618,80.1911 52.0098,80.3031 C52.0098,80.6391 51.7858,80.7511 51.6738,81.0871 Z M51.6738,82.9911 C51.5618,82.9911 51.5618,83.1031 51.5618,83.2151 C51.1138,82.9911 51.7858,82.5431 51.5618,82.0951 L51.6738,82.0951 L51.6738,82.9911 Z M50.8898,84.4471 C50.6658,84.1111 51.1138,83.6631 51.3378,83.3271 C51.6738,83.5511 51.0018,83.7751 51.2258,84.3351 C51.1138,84.3351 51.0018,84.4471 50.8898,84.4471 Z M50.7778,85.0081 C50.7778,85.1191 50.5538,85.2311 50.6658,85.4551 C51.1138,85.5671 51.0018,85.1191 50.7778,85.0081 Z M49.6578,89.1511 C49.5458,89.2631 49.2098,89.5991 49.6578,89.7111 C49.7698,89.7111 49.9938,88.7031 49.6578,89.1511 Z M43.8338,52.9751 C43.3858,53.0881 43.4978,53.8711 43.9458,53.5351 C43.4978,53.4241 44.2818,52.9751 43.8338,52.9751 Z M43.4978,55.4391 C43.7218,55.3271 43.6098,55.1031 43.4978,55.1031 L43.4978,55.4391 Z M43.3858,60.3671 C43.7218,58.9111 43.7218,57.6791 43.8338,56.3361 C43.7218,56.5591 43.3858,56.6721 43.2738,56.8951 C43.6098,58.0151 42.9378,59.4711 43.3858,60.3671 Z M43.2738,64.1751 C43.3858,64.0631 43.2738,63.9511 43.2738,64.1751 C43.0498,64.1751 43.2738,64.2871 43.2738,64.1751 Z M43.2738,53.7591 C43.0498,53.9831 43.1618,54.5431 43.3858,54.7671 C43.4978,54.3191 43.6098,53.9831 43.2738,53.7591 Z M43.1618,49.1681 C43.0498,49.6151 43.0498,49.9511 43.4978,49.8401 C43.4978,49.5041 43.4978,49.1681 43.1618,49.1681 Z M42.9378,54.9911 C43.0498,55.1031 42.9378,55.2161 42.8258,55.2161 C42.7138,55.7751 43.1618,55.6631 43.1618,56.1111 C42.9378,56.1111 43.1618,56.2231 43.1618,56.1111 C43.2738,56.1111 43.1618,56.2231 43.2738,56.3361 C43.9458,56.4471 43.0498,55.6631 43.4978,55.6631 C43.6098,55.6631 43.6098,55.8871 43.8338,55.8871 C43.9458,55.6631 44.1698,54.2071 43.6098,54.2071 C43.7218,54.6551 43.7218,54.7671 43.4978,55.1031 C43.3858,54.9911 43.1618,54.9911 42.9378,54.9911 Z M42.6018,60.4791 C42.0418,60.7031 42.2658,60.1431 42.0418,60.1431 L42.0418,61.0391 C42.4898,61.0391 42.6018,60.9271 42.6018,60.4791 Z M42.0418,59.9201 C42.6018,59.5831 42.1538,59.9201 42.7138,60.1431 C42.8258,59.4711 42.3778,59.4711 42.2658,59.1351 C43.0498,59.0231 42.8258,57.9031 42.7138,57.5671 C42.6018,57.9031 42.2658,58.0151 42.0418,58.3511 C42.3778,58.6871 42.1538,59.5831 42.0418,59.9201 Z M41.3698,76.6071 C40.6978,76.6071 41.1458,76.2711 41.1458,75.8231 C41.5938,75.7111 41.2578,76.3831 41.3698,76.6071 Z M41.3698,80.0791 C40.8098,79.2951 41.1458,78.2871 40.9218,77.0551 C41.8178,77.8401 41.4818,78.8471 41.3698,80.0791 Z M42.0418,68.5431 C41.8178,68.5431 41.7058,68.5431 41.5938,68.4311 C41.4818,68.8791 41.9298,68.7671 41.9298,69.2161 C41.0338,70.5591 41.7058,73.2471 41.2578,74.9271 C40.4738,74.3671 40.9218,73.4711 41.1458,72.6871 C40.9218,69.2161 41.3698,66.7511 41.5938,63.2791 C42.2658,64.6231 41.7058,65.7431 41.9298,67.1991 C41.3698,67.5351 41.7058,68.3191 42.0418,68.5431 Z M39.9138,45.5841 C40.2498,45.5841 39.8018,45.0231 39.9138,45.5841 C39.6898,45.6951 39.9138,45.6951 39.9138,45.5841 Z M36.5538,48.0481 C36.5538,48.1591 35.9938,48.3831 36.4418,48.4951 C36.4418,48.4951 36.8898,48.1591 36.5538,48.0481 Z M35.9938,48.7191 C35.5458,49.6151 34.7618,50.0631 34.7618,50.9591 C35.3218,50.3991 36.2178,49.6151 35.9938,48.7191 Z M34.0898,51.1831 C34.0898,51.8551 34.0898,51.6321 33.9778,52.1911 C34.3138,52.1911 34.6498,51.1831 34.0898,51.1831 Z M33.8658,54.3191 L34.0898,54.3191 L34.0898,54.0951 L33.8658,54.0951 L33.8658,54.3191 Z M33.4178,53.1991 L32.8578,53.1991 C32.8578,53.6471 32.8578,54.2071 33.3058,54.2071 C33.5298,53.6471 33.3058,53.6471 33.4178,53.1991 Z M32.7458,52.3031 C32.0738,52.3031 32.1858,52.9751 31.9618,53.4241 C32.5218,53.3111 32.4098,52.6391 32.7458,52.3031 Z M30.5058,55.5511 L30.7298,55.5511 L30.7298,55.2151 L30.5058,55.2151 L30.5058,55.5511 Z M30.0578,57.0081 C29.7218,57.0081 29.7218,56.2231 30.1698,56.3361 C30.2818,56.6721 30.1698,56.8951 30.0578,57.0081 Z M29.3858,58.4641 C29.2738,58.4641 29.2738,58.4641 29.2738,58.3511 C29.3858,58.3511 29.3858,58.3511 29.3858,58.4641 Z M29.1618,57.7911 C29.3858,57.7911 29.2738,58.1271 29.2738,58.3511 C29.0498,58.2391 28.9378,58.0151 29.1618,57.7911 Z M27.2578,61.7111 C27.2578,61.4871 27.3698,61.3751 27.7058,61.4871 C27.5938,61.5991 27.4818,61.7111 27.2578,61.7111 Z M28.8258,61.2631 C28.1538,63.0551 26.6978,64.8471 26.5858,66.6391 C26.5858,66.5271 26.8098,66.5271 27.0338,66.5271 C27.0338,65.6321 27.2578,64.9591 27.9298,64.6231 C27.9298,64.9591 27.9298,65.0711 28.1538,65.0711 L28.1538,64.6231 C28.8258,64.8471 28.7138,63.9511 28.3778,63.9511 C28.0418,64.1751 28.4898,64.3991 28.1538,64.6231 C28.0418,64.6231 27.9298,64.5111 27.9298,64.2871 C28.6018,63.6151 28.1538,62.6071 29.1618,62.1591 C28.8258,62.0481 29.0498,61.4871 29.0498,61.2631 L29.4978,61.2631 C29.8338,59.6951 31.2898,58.5751 31.2898,57.1191 C31.7378,57.2311 31.4018,56.6721 31.9618,56.8951 C31.8498,55.9991 32.0738,55.2161 32.7458,54.9911 C32.7458,54.6551 32.7458,54.2071 32.8578,54.0951 C31.9618,54.3191 32.0738,55.5511 31.4018,55.8871 C31.0658,57.6791 29.4978,59.2471 29.0498,61.2631 L28.8258,61.2631 Z M25.9138,64.6231 L26.1378,64.6231 L26.1378,64.3991 L25.9138,64.3991 L25.9138,64.6231 Z M25.9138,62.8311 C25.4658,62.7191 26.2498,62.3831 25.8018,62.3831 C26.0258,61.9351 26.1378,62.7191 25.9138,62.8311 Z M25.6898,65.6321 C25.4658,65.6321 25.4658,65.4071 25.6898,65.2951 L25.6898,65.6321 Z M25.4658,63.5041 C25.1298,63.3911 25.4658,62.9431 25.8018,63.0551 C25.6898,63.1671 25.5778,63.2791 25.4658,63.5041 Z M25.0178,65.5191 L25.0178,65.1831 C25.1298,65.1831 25.1298,65.1831 25.1298,65.0711 C25.3538,64.9591 25.3538,65.6321 25.0178,65.5191 Z M24.6818,66.9751 C25.3538,66.8631 24.0098,67.7591 24.6818,67.0881 L24.6818,66.9751 Z M22.7778,71.6791 C22.7778,71.7911 22.6658,71.6791 22.5538,71.6791 C22.5538,71.4551 22.7778,71.5671 22.7778,71.6791 Z M22.1058,70.6721 C21.9938,69.6631 23.3378,68.8791 23.7858,67.9831 C23.7858,67.8711 23.5618,67.8711 23.3378,67.8711 C23.6738,66.7511 24.1218,65.9671 24.5698,64.9591 C25.3538,65.7431 23.3378,67.1991 24.0098,67.8711 C23.8978,68.7671 23.0018,68.9911 23.0018,69.9991 C22.4418,69.8871 22.5538,70.3351 22.5538,70.6721 L22.1058,70.6721 Z M24.3458,71.0081 C23.7858,73.4711 21.8818,75.4871 21.6578,77.8401 C22.3298,77.5031 22.1058,76.1591 23.0018,75.9351 C22.4418,75.5991 23.2258,74.4791 23.7858,74.2561 C23.1138,72.9111 25.0178,71.9031 24.5698,71.2311 C25.2418,69.9991 26.4738,67.8711 26.1378,66.9751 C25.8018,68.2071 24.6818,69.4391 24.6818,70.6721 C24.4578,70.6721 24.4578,70.8951 24.3458,71.0081 Z M20.7618,73.8071 C20.5378,73.5831 20.7618,72.6871 21.3218,72.9111 C21.3218,73.3591 20.8738,73.3591 20.7618,73.8071 Z M20.3138,77.6151 C20.3138,77.5031 20.5378,77.5031 20.5378,77.3911 C20.4258,77.5031 20.3138,77.3911 20.3138,77.6151 Z M21.7698,77.9511 L21.2098,77.9511 C20.7618,79.2951 19.9778,80.1911 19.9778,81.6471 C20.8738,80.4151 20.9858,79.1831 21.7698,77.9511 Z M19.6418,76.0471 C19.6418,75.9351 19.7538,75.8231 19.8658,75.7111 C19.8658,75.9351 19.8658,76.1591 19.6418,76.0471 Z M19.1938,82.6551 C19.6418,82.7671 19.7538,82.4311 19.9778,82.4311 C19.8658,82.2071 19.9778,81.8711 19.7538,81.7591 C19.6418,81.8711 19.6418,81.8711 19.4178,81.8711 C19.5298,82.3191 19.3058,82.4311 19.1938,82.6551 Z M19.1938,82.7671 C19.1938,82.9911 18.9698,83.1031 19.1938,83.2151 C19.1938,82.9911 19.4178,82.8791 19.1938,82.7671 Z M19.1938,84.3351 C19.0818,83.9991 19.3058,83.4391 19.0818,83.3271 C18.8578,83.8871 18.4098,84.2231 18.2978,84.6711 C18.6338,84.6711 18.9698,84.4471 19.1938,84.3351 Z M17.9618,85.4551 L18.4098,85.4551 L18.4098,85.1191 L18.0738,85.1191 C18.0738,85.1191 18.0738,85.2311 17.9618,85.2311 L17.9618,85.4551 Z M15.8338,86.1271 C15.4978,86.0151 15.8338,85.4551 16.2818,85.4551 C16.2818,85.9031 15.8338,85.7911 15.8338,86.1271 Z M15.3858,86.7991 L15.7218,86.7991 L15.7218,86.5751 L15.3858,86.5751 L15.3858,86.7991 Z M14.2658,93.9661 C13.8178,93.7431 13.3698,94.1911 13.8178,94.4151 C13.8178,94.0791 14.2658,94.3031 14.2658,93.9661 Z M12.5858,94.8631 C12.3618,95.4231 12.2498,95.8711 11.5778,95.8711 C11.6898,96.0951 11.5778,96.5431 11.8018,96.6551 C12.1378,95.9831 12.9218,95.9831 13.1458,94.8631 C13.4818,95.0871 13.4818,94.3031 13.2578,94.4151 C13.1458,94.5271 13.1458,94.6391 13.1458,94.8631 C12.9218,95.0871 12.9218,94.8631 12.5858,94.8631 Z M5.5298,55.6631 C5.4178,55.7751 5.1938,56.3361 5.5298,56.3361 C5.3058,55.9991 5.8658,55.7751 5.5298,55.6631 Z M4.2978,61.0391 C4.2978,61.2631 3.8498,61.5991 4.2978,61.7111 C4.2978,61.5991 4.6338,61.0391 4.2978,61.0391 Z M3.7378,63.2791 C4.0738,63.5041 4.0738,62.8311 3.8498,62.9431 C3.8498,62.9431 3.8498,63.0551 3.7378,63.0551 L3.7378,63.2791 Z M3.1778,65.7431 C3.2898,65.9671 3.0658,66.5271 3.2898,66.5271 C3.1778,66.1911 3.8498,65.7431 3.1778,65.7431 Z M2.8418,67.5351 C2.7298,68.6551 2.1698,69.3271 2.3938,70.3351 C2.7298,69.2161 2.9538,68.4311 2.9538,67.5351 C3.2898,67.4241 2.8418,66.9751 2.9538,67.5351 L2.8418,67.5351 Z M2.1698,70.5591 C2.1698,72.1271 1.2738,73.9191 1.7218,75.2631 C1.8338,73.6951 2.7298,72.1271 2.1698,70.5591 Z M1.6098,94.6391 C1.3858,94.8631 1.8338,95.3111 1.8338,94.8631 C1.7218,94.8631 1.7218,94.6391 1.6098,94.6391 Z M1.6098,94.4151 C1.4978,94.1911 1.3858,94.4151 1.6098,94.4151 C1.6098,94.5271 1.7218,94.3031 1.6098,94.4151 Z M1.4978,75.3751 C1.3858,77.0551 1.3858,78.6231 1.0498,80.0791 C1.6098,78.8471 1.9458,77.0551 1.4978,75.3751 Z M0.9378,84.5591 C0.4898,86.0151 0.8258,88.2551 0.6018,89.9351 C0.8258,90.7191 1.0498,92.1751 1.1618,93.0711 C1.1618,93.0711 0.9378,94.0791 1.4978,93.7431 C0.8258,89.1511 0.9378,85.5671 1.2738,80.7511 C1.2738,80.6391 1.1618,80.6391 1.0498,80.6391 C0.9378,81.6471 0.8258,82.7671 0.6018,83.8871 C0.4898,84.3351 0.8258,84.3351 0.9378,84.5591 Z M42.4898,61.2631 C42.0418,61.8231 42.1538,62.0481 42.1538,62.9431 C41.8178,62.7191 41.5938,61.4871 42.1538,61.4871 C42.1538,61.1511 42.0418,61.1511 41.8178,61.1511 C41.9298,56.7831 42.6018,52.4151 41.5938,47.1511 C39.2418,48.9431 37.8978,51.6321 35.9938,53.8711 C35.8818,53.7591 35.8818,53.8711 35.9938,53.8711 C35.9938,54.0951 36.1058,54.0951 36.1058,54.3191 C35.2098,54.9911 35.2098,56.8951 34.2018,56.7831 C34.2018,57.1191 34.5378,57.2311 34.2018,57.5671 C27.0338,71.0081 22.2178,85.2311 15.2738,98.5591 C13.4818,100.6871 11.4658,103.4871 7.7698,102.9271 C4.5218,101.2471 2.1698,98.5591 1.1618,94.6391 C0.0418,92.5111 -0.2942,88.2551 0.2658,86.3511 C-0.4062,80.7511 0.3778,76.1591 1.1618,70.8951 C1.1618,70.5591 1.1618,70.4471 1.0498,70.3351 C3.9618,53.8711 8.1058,37.9671 13.0338,23.1831 C15.3858,23.0711 17.1778,22.6241 18.5218,24.5271 C16.9538,28.1111 15.6098,32.3671 13.9298,36.2871 C13.2578,39.6471 12.6978,42.5591 11.3538,45.8071 C10.4578,49.7271 9.8978,53.1991 8.5538,56.4471 C8.6658,58.4641 7.7698,60.5911 7.6578,62.1591 C7.5458,62.6071 7.2098,62.7191 7.0978,63.1671 C6.9858,63.7271 7.0978,64.5111 6.9858,65.1831 C6.8738,65.6321 6.4258,65.9671 6.4258,66.3031 C6.2018,68.3191 6.2018,70.3351 5.3058,72.3511 C5.3058,72.6871 5.6418,72.6871 5.7538,72.9111 C5.0818,73.4711 5.6418,74.9271 4.9698,75.2631 C5.0818,76.6071 4.6338,77.1671 5.0818,78.0631 C4.4098,80.5271 4.7458,82.8791 4.2978,85.7911 C4.4098,87.6951 4.0738,88.9271 4.5218,90.3831 C4.6338,93.7431 4.8578,97.4391 7.2098,99.5671 C10.3458,98.2231 11.4658,94.6391 12.9218,92.3991 L12.9218,90.8311 C13.7058,90.1591 14.6018,89.4871 14.7138,88.1431 C15.0498,88.1431 14.8258,88.5911 15.1618,88.5911 C15.9458,86.6871 16.5058,84.8951 17.9618,83.4391 C17.7378,83.3271 17.8498,82.8791 17.8498,82.5431 C18.5218,82.5431 18.1858,80.7511 19.1938,80.4151 C19.3058,79.8551 19.1938,79.9671 19.1938,79.2951 C19.6418,79.5191 19.6418,79.1831 19.9778,79.0711 C19.5298,78.2871 20.8738,78.0631 20.0898,77.3911 C21.5458,76.3831 21.8818,74.2561 22.7778,72.6871 C22.6658,72.5751 22.7778,72.2391 22.4418,72.3511 C23.2258,71.9031 24.0098,70.1111 23.7858,69.5511 C23.8978,68.9911 24.1218,68.4311 24.6818,68.3191 C24.6818,68.0951 24.5698,67.9831 24.4578,67.8711 C25.1298,67.6471 25.3538,67.0881 25.1298,66.3031 C25.3538,66.1911 25.3538,66.4151 25.4658,66.5271 C25.8018,66.4151 25.2418,65.8551 25.6898,65.6321 C26.2498,65.1831 26.6978,64.5111 26.4738,63.7271 C26.5858,63.7271 26.6978,63.7271 26.8098,63.8401 C26.9218,63.5041 26.6978,63.5041 26.6978,63.1671 C26.9218,63.1671 27.0338,63.2791 27.1458,63.2791 C27.5938,61.7111 28.8258,60.7031 28.4898,59.4711 C28.7138,59.0231 29.2738,59.0231 29.3858,58.4641 C30.1698,56.6721 31.6258,55.1031 31.7378,52.9751 C29.8338,54.7671 29.4978,58.1271 27.2578,59.8071 C27.1458,60.2561 27.4818,60.2561 27.3698,60.5911 C26.5858,59.9201 27.7058,58.2391 28.4898,57.7911 C27.9298,56.6721 29.2738,56.3361 29.7218,55.6631 C29.0498,55.2161 29.9458,54.9911 29.8338,54.3191 C29.9458,54.3191 30.1698,54.3191 30.0578,54.5431 C30.3938,54.6551 30.1698,54.0951 30.6178,54.2071 C30.5058,53.8711 30.0578,54.0951 30.1698,53.6471 C30.3938,53.4241 30.7298,53.0881 30.7298,52.7521 C30.9538,52.7521 31.1778,52.7521 31.2898,52.9751 C31.5138,52.9751 31.6258,52.7521 31.5138,52.4151 L31.7378,52.4151 L31.7378,52.8631 C31.9618,52.7521 31.9618,52.4151 31.7378,52.4151 C32.2978,51.5191 32.0738,50.3991 32.7458,49.8401 C32.7458,50.0631 32.2978,50.6231 32.6338,50.8471 C32.7458,51.4071 32.1858,51.1831 32.4098,51.7431 C31.9618,51.7431 31.8498,51.9671 32.0738,52.1911 C31.8498,52.1911 32.0738,52.3031 32.0738,52.1911 C32.2978,52.0791 32.4098,51.9671 32.4098,51.7431 C32.7458,51.5191 32.7458,50.9591 33.1938,51.5191 C32.6338,50.3991 33.9778,50.7351 33.7538,49.6151 C33.8658,49.6151 33.9778,49.7271 33.9778,50.0631 C34.5378,49.7271 34.3138,49.3911 34.2018,48.8311 C34.4258,48.8311 34.5378,48.7191 34.5378,48.4951 C34.6498,48.4951 34.7618,48.3831 34.7618,48.2711 C34.5378,48.1591 34.5378,48.3831 34.5378,48.4951 C34.4258,48.6071 34.3138,48.6071 34.2018,48.8311 C34.0898,49.0551 33.7538,49.1681 33.7538,49.6151 C33.5298,49.6151 33.5298,49.8401 33.3058,49.8401 C33.3058,49.7271 33.0818,49.7271 32.8578,49.7271 C33.0818,48.4951 34.0898,48.2711 34.4258,47.1511 C36.1058,46.4791 37.1138,45.1351 38.5698,44.1281 C39.0178,44.2391 39.6898,43.9031 40.1378,44.0151 C41.3698,44.7991 42.3778,44.9111 43.9458,45.3591 C47.5298,48.9431 46.4098,56.5591 46.0738,61.7111 C45.8498,70.2231 45.0658,77.0551 45.6258,85.3431 C46.2978,87.0231 46.2978,88.7031 47.1938,90.7191 C48.5378,90.0471 48.3138,88.2551 49.5458,87.4711 C49.7698,86.4631 50.4418,85.7911 50.3298,84.7831 C50.5538,84.6711 50.7778,84.6711 50.8898,84.4471 C50.7778,85.1191 51.5618,84.6711 51.2258,84.3351 C51.8978,84.2231 51.5618,83.6631 51.6738,82.9911 C52.1218,82.7671 52.3458,81.3111 51.6738,82.0951 C51.6738,81.3111 52.0098,80.9751 52.3458,80.6391 C52.3458,80.8631 52.4578,81.0871 52.5698,81.1991 C52.3458,81.1991 52.2338,81.1991 52.2338,81.3111 C52.4578,81.3111 52.4578,81.3111 52.5698,81.1991 C52.9058,81.1991 52.7938,80.7511 53.0178,80.5271 C53.0178,80.3031 52.9058,80.5271 52.6818,80.5271 C53.1298,79.8551 53.8018,79.5191 53.6898,78.7351 C54.4738,77.3911 54.3618,75.7111 55.3698,74.2561 C55.3698,74.3671 55.4818,74.1431 55.3698,74.2561 C55.5938,72.5751 56.3778,71.4551 56.2658,69.9991 C56.6018,69.7751 56.3778,70.1111 56.7138,70.2231 C56.8258,69.4391 55.8178,69.8871 55.9298,69.3271 C56.0418,69.1031 56.4898,69.2161 56.3778,69.6631 C56.6018,69.1031 57.3858,68.0951 56.7138,67.8711 C57.1618,67.7591 56.9378,67.1991 57.4978,67.5351 C57.6098,66.9751 57.2738,66.8631 57.3858,66.4151 L57.9458,66.4151 C57.3858,64.5111 58.7298,64.1751 58.2818,62.9431 C59.0658,61.7111 59.2898,59.8071 59.4018,58.5751 C59.5138,58.5751 59.6258,58.5751 59.7378,58.4641 C59.7378,57.7911 60.0738,57.4551 59.7378,57.0081 C60.7458,53.5351 61.6418,50.0631 62.2018,46.0311 C62.5378,45.4711 62.6498,44.6871 62.8738,44.1281 C62.9858,43.2311 62.5378,42.4471 63.3218,42.3361 C63.4338,41.8871 62.8738,42.2231 62.9858,41.7751 C64.2178,40.3191 63.9938,38.1911 64.8898,36.7351 C64.8898,34.4951 66.0098,33.0391 66.2338,30.6871 C66.2338,30.3511 65.5618,30.6871 65.7858,30.2391 C66.1218,30.0151 66.1218,30.3511 66.3458,30.3511 C68.3618,22.8471 70.8258,13.7751 73.7378,6.3831 C73.4018,5.8231 73.8498,5.9351 73.6258,5.3761 C74.7458,6.0481 74.4098,3.4711 75.1938,3.3591 C75.1938,3.1351 74.9698,3.2481 74.8578,3.1351 C74.8578,2.5761 75.5298,2.6871 75.4178,2.0151 C74.9698,2.1281 74.9698,2.4641 74.7458,2.6871 C74.4098,2.4641 74.9698,2.0151 74.9698,1.7921 C74.1858,2.1281 73.8498,3.0231 73.7378,3.6951 C74.0738,4.0311 74.0738,2.9121 74.5218,3.0231 C74.6338,3.6951 73.9618,4.2561 74.1858,5.0401 C73.8498,5.0401 73.8498,4.8151 73.7378,4.7041 C73.4018,5.5991 72.1698,6.2711 72.1698,7.3911 C72.7298,7.5041 72.2818,6.6071 72.8418,6.7191 C72.6178,7.8401 71.6098,8.8471 71.6098,9.7441 C71.3858,10.0801 71.1618,9.2961 71.1618,9.0711 C70.8258,8.9601 71.2738,9.6321 70.8258,9.4071 C70.6018,8.1751 71.9458,6.8321 71.8338,5.7121 C72.0578,5.5991 72.1698,5.4871 72.3938,5.4871 C71.9458,4.9271 73.4018,4.2561 73.6258,3.4711 C73.1778,2.4641 73.7378,2.0151 74.1858,1.2311 C75.1938,1.2311 75.9778,-0.2249 77.4338,0.3361 C78.2178,1.1201 79.1138,1.0071 80.4578,1.6791 C80.3458,2.0151 80.2338,2.3511 80.1218,2.6871 C77.2098,4.8151 76.9858,9.4071 75.0818,12.5441 C74.1858,16.3511 72.6178,20.1591 71.7218,24.1911 C71.4978,24.4161 71.4978,24.9751 71.0498,24.9751 C71.0498,25.1991 71.3858,25.0881 71.3858,25.4241 C69.1458,32.5911 67.6898,40.2071 65.4498,46.8151 C65.8978,47.3751 65.4498,48.9431 64.7778,49.3911 C64.1058,53.8711 63.6578,58.3511 61.9778,62.1591 C62.4258,64.5111 60.5218,65.4071 60.9698,67.7591 C60.7458,68.5431 60.4098,69.4391 59.9618,70.3351 C59.9618,70.6721 60.0738,70.7831 60.0738,71.2311 C60.0738,71.5671 59.8498,71.6791 59.7378,71.9031 C59.5138,74.9271 58.1698,77.2791 57.6098,80.5271 C55.3698,85.3431 54.5858,91.5031 50.1058,94.0791 C49.3218,94.0791 49.2098,94.1911 48.5378,94.0791 C48.2018,94.0791 47.9778,94.1911 47.8658,94.4151 C44.5058,92.5111 41.8178,89.1511 41.9298,85.1191 C41.9298,84.7831 41.4818,85.0081 41.4818,84.6711 C41.4818,84.2231 41.8178,83.4391 41.2578,83.1031 C41.3698,82.6551 41.4818,82.9911 41.8178,83.1031 C41.9298,82.4311 41.2578,82.5431 41.2578,81.9831 C42.1538,81.8711 40.9218,80.9751 41.3698,80.5271 C41.9298,80.4151 41.2578,80.8631 41.5938,81.0871 C42.1538,77.3911 41.9298,74.3671 41.9298,70.8951 C42.4898,67.4241 42.4898,63.9511 42.4898,61.2631 Z" id="Fill-1" fill="#325C2A" mask="url(#mask-3)"></path>
                </g>
                <path d="M77.8808,90.7826 C78.4408,90.4466 78.7768,90.2216 79.3368,90.7826 C79.5608,90.5576 79.1128,90.1096 79.5608,90.1096 C80.3448,90.1096 81.6888,89.5506 82.3608,89.1016 C80.6808,89.9986 78.5528,89.4376 77.2088,90.1096 C77.5448,90.2216 77.9928,89.8866 77.8808,90.7826 M79.8968,71.9666 C77.9928,73.4226 76.3128,74.9906 74.8568,76.8936 C78.5528,74.9906 81.9128,72.7506 84.0408,69.3896 C82.1368,70.1746 79.8968,70.7346 78.7768,72.3026 C79.2248,72.4146 79.5608,71.5176 79.8968,71.9666 M85.7208,74.4296 C84.3768,77.7906 81.1288,79.3576 78.6648,81.5976 C76.5368,82.0466 73.9608,83.5026 71.9448,82.0466 C70.7128,83.7256 70.6008,85.7426 70.0408,88.2066 C74.6328,91.4546 81.3528,87.1986 86.0568,85.7426 C88.6328,84.2866 91.4328,82.8306 94.3448,81.5976 C94.6808,81.1506 95.3528,81.0386 95.6888,80.7026 C96.0248,81.7106 93.6728,82.2696 92.8888,83.0536 C92.8888,83.2786 93.1128,83.1666 93.3368,83.1666 C90.2008,85.9666 86.7288,87.6456 82.5848,89.1016 C83.3688,89.1016 85.0488,89.1016 86.0568,88.5426 C85.9448,89.1016 85.4968,89.2146 85.0488,89.4376 C85.0488,89.6626 85.7208,89.3266 85.4968,89.7736 C84.1528,90.2216 82.9208,91.5656 82.2488,91.1186 C81.6888,91.3426 82.1368,91.5656 81.9128,91.9026 C78.8888,93.2466 76.8728,94.1416 72.9528,94.1416 C67.5768,93.0216 66.9048,87.7586 67.5768,82.9416 C69.5928,76.7826 73.9608,69.9506 80.1208,66.9266 C81.2408,66.3666 82.5848,66.5906 83.7048,66.5906 C84.6008,66.7026 84.8248,67.3746 85.6088,67.4866 C85.8328,68.8306 86.7288,69.5026 87.5128,70.2866 C87.1768,72.1896 87.5128,73.4226 85.7208,74.4296" id="Fill-4" fill="#325C2A"></path>
                <g id="Group-8" transform="translate(92.000000, 0.647000)">
                    <mask id="mask-5" fill="white">
                        <use xlink:href="#path-4"></use>
                    </mask>
                    <g id="Clip-7"></g>
                    <path d="M37.7373,5.0155 C37.5133,5.3515 37.9613,5.7995 38.0733,5.4635 C37.8493,5.3515 38.0733,5.0155 37.7373,5.0155 Z M37.6253,10.2795 C37.9613,10.0555 37.4013,9.4955 37.6253,10.2795 C37.4013,10.3915 37.6253,10.3915 37.6253,10.2795 Z M36.9533,11.0635 C36.5053,10.9525 36.5053,11.3995 36.5053,11.7355 C36.9533,11.8475 36.6173,11.1755 36.9533,11.0635 Z M36.2813,12.6315 C36.1693,12.8555 36.0573,12.9675 36.0573,13.1915 C36.5053,13.4155 36.5053,12.6315 36.2813,12.6315 Z M35.8333,23.3835 C35.4973,23.3835 35.3853,23.6075 35.3853,23.9435 C35.8333,24.0555 35.8333,23.8315 35.8333,23.3835 Z M35.6093,24.6155 C35.7213,24.2795 35.1613,24.2795 35.1613,24.5035 C35.2733,24.5035 35.2733,24.5035 35.2733,24.6155 L35.6093,24.6155 Z M35.1613,25.6235 C35.1613,25.3995 35.1613,25.2875 34.9373,25.2875 C34.9373,25.5115 34.8253,25.7355 35.0493,25.7355 C35.0493,25.6235 35.0493,25.5115 35.1613,25.6235 Z M34.4893,25.2875 C34.4893,25.5115 34.2653,25.6235 34.4893,25.7355 C34.4893,25.5115 34.7133,25.3995 34.4893,25.2875 Z M34.2653,27.6395 C34.2653,27.7515 34.1533,28.0875 34.3773,28.0875 C34.4893,28.0875 34.7133,27.5275 34.2653,27.6395 Z M33.9293,27.1915 C34.1533,26.8555 33.4813,26.7445 33.5933,27.0795 C33.5933,27.0795 33.7053,27.0795 33.7053,27.1915 L33.9293,27.1915 Z M33.3693,30.6645 L33.7053,30.6645 L33.7053,30.4395 L33.3693,30.4395 L33.3693,30.6645 Z M32.9213,2.7755 C32.8093,3.2235 33.4813,3.2235 33.3693,2.7755 L32.9213,2.7755 Z M32.4733,24.9515 C33.5933,24.9515 32.3613,24.1675 32.9213,23.8315 C33.1453,23.8315 33.0333,24.1675 33.2573,24.0555 C33.2573,23.1605 33.8173,22.5995 33.3693,21.8155 C33.5933,21.8155 33.8173,21.8155 33.9293,21.7035 C33.9293,20.6955 33.7053,19.9115 34.4893,20.0235 C34.3773,19.4635 33.9293,18.4555 34.7133,18.2315 C34.2653,16.9995 35.6093,15.6555 35.1613,14.6475 C35.1613,14.8715 34.9373,14.9835 34.7133,14.9835 C34.4893,18.7915 32.9213,21.7035 32.4733,24.9515 Z M32.4733,31.2235 C32.3613,31.4475 32.8093,31.7835 32.9213,31.4475 C32.6973,31.4475 32.8093,31.1115 32.4733,31.2235 Z M32.3613,33.1275 C32.3613,33.3515 32.4733,33.5755 32.6973,33.4635 C32.8093,33.2395 32.5853,33.1275 32.3613,33.1275 Z M31.9133,34.6955 C31.9133,34.9195 31.9133,35.1435 32.2493,35.1435 C32.2493,34.9195 32.1373,34.8075 31.9133,34.6955 Z M32.6973,25.7355 C32.0253,25.6235 33.0333,25.1755 32.5853,25.0635 C32.1373,25.2875 32.0253,25.9595 31.9133,26.5195 C32.1373,26.7445 32.1373,26.4075 32.5853,26.5195 C32.4733,26.0715 32.6973,26.0715 32.6973,25.7355 C32.9213,25.6235 32.6973,25.5115 32.6973,25.7355 Z M31.8013,26.6315 C31.8013,26.8555 31.8013,27.1915 31.9133,27.1915 C31.9133,26.8555 32.1373,26.7445 31.8013,26.6315 Z M31.3533,32.7915 C31.3533,32.6795 31.3533,32.5675 31.1293,32.5675 C31.1293,32.6795 31.1293,32.9035 31.2413,33.0155 C31.2413,32.9035 31.2413,32.7915 31.3533,32.7915 Z M31.2413,29.8795 C31.5773,29.0955 32.3613,28.1995 32.2493,27.3035 C31.9133,27.7515 31.8013,28.4235 31.2413,28.5355 C31.5773,28.6475 30.7933,29.5435 31.2413,29.8795 Z M31.1293,37.9435 C31.1293,37.8315 31.1293,37.6075 30.9053,37.7195 C30.9053,37.8315 30.7933,38.0555 31.0173,38.0555 C31.0173,37.9435 31.0173,37.9435 31.1293,37.9435 Z M30.6813,2.3275 C31.0173,1.8795 31.1293,1.3195 31.8013,1.2075 C31.5773,1.7675 31.1293,1.9925 30.6813,2.3275 Z M30.5693,34.3595 C30.5693,34.4715 30.5693,34.8075 30.6813,34.8075 C30.9053,34.6955 30.9053,34.3595 30.5693,34.3595 Z M30.5693,7.7045 L30.9053,7.7045 L30.9053,7.4795 L30.5693,7.4795 L30.5693,7.7045 Z M30.2333,39.5115 L30.4573,39.5115 L30.4573,39.2865 L30.2333,39.2865 L30.2333,39.5115 Z M30.2333,2.5515 C30.5693,2.7755 30.1213,3.1115 29.8973,3.1115 C29.7853,2.7755 30.2333,2.8875 30.2333,2.5515 Z M29.8973,39.8475 C30.0093,40.1835 29.8973,40.2955 29.7853,40.5195 C30.2333,40.7435 30.4573,39.7355 29.8973,39.8475 Z M29.7853,30.3275 C30.0093,30.2155 30.3453,30.2155 30.3453,29.8795 C29.8973,29.9915 29.8973,29.6555 29.6733,29.8795 C29.6733,30.1035 29.6733,30.2155 29.7853,30.3275 Z M29.6733,37.0475 C29.4493,37.1595 29.5613,37.3835 29.7853,37.4955 C30.0093,37.3835 30.0093,37.0475 29.6733,37.0475 Z M29.6733,35.3675 C29.7853,33.4635 31.3533,31.5595 31.0173,29.9915 C30.6813,31.2235 29.8973,32.1195 30.0093,33.3515 C29.3373,33.6875 29.1133,34.9195 29.6733,35.3675 Z M29.2253,7.9275 C29.3373,7.5915 29.5613,7.3685 29.8973,7.2555 C29.6733,7.4795 29.7853,8.1515 29.2253,7.9275 Z M29.1133,38.5035 L29.3373,38.5035 L29.3373,38.1675 L29.1133,38.1675 L29.1133,38.5035 Z M29.1133,42.5355 C28.6653,42.4235 28.6653,42.8705 28.6653,43.3195 C29.1133,43.3195 28.8893,42.7595 29.1133,42.5355 Z M28.6653,9.0475 C28.6653,8.8245 28.7773,8.7115 28.8893,8.4875 C29.1133,8.4875 29.1133,9.2715 28.6653,9.0475 Z M28.6653,36.8235 C29.3373,36.8235 29.2253,36.0395 29.5613,35.7025 C29.2253,35.5915 29.1133,35.2555 28.8893,35.4795 C29.3373,36.1515 28.3293,36.3755 28.6653,36.8235 Z M28.8893,39.0635 C28.7773,39.2865 28.8893,39.6235 28.4413,39.8475 C28.6653,40.2955 29.5613,39.1755 28.8893,39.0635 Z M28.4413,40.6315 C28.6653,40.5195 28.4413,40.5195 28.4413,40.6315 C27.9933,40.7435 28.5533,41.3035 28.4413,40.6315 Z M28.2173,44.8875 L28.4413,44.8875 L28.4413,44.6635 L28.2173,44.6635 L28.2173,44.8875 Z M27.9933,35.1435 C28.5533,35.1435 28.5533,34.5835 28.5533,34.0235 C29.1133,33.3515 29.3373,32.2315 29.7853,31.1115 C29.2253,31.8955 28.6653,32.6795 28.5533,34.0235 C28.2173,34.1355 28.3293,34.9195 27.9933,35.1435 Z M28.6653,9.2715 C28.6653,9.8315 28.3293,10.0555 27.9933,10.3915 C28.1053,9.8315 28.1053,9.3835 28.6653,9.2715 Z M27.9933,5.1275 C28.1053,3.8955 29.4493,3.8955 29.8973,3.1115 C29.6733,4.1195 28.7773,4.5675 27.9933,5.1275 Z M27.7693,41.9755 L27.9933,41.9755 L27.9933,41.4155 L27.7693,41.4155 L27.7693,41.9755 Z M27.7693,12.8555 L27.9933,12.8555 C27.9933,12.7445 28.1053,12.6315 28.2173,12.6315 L28.2173,12.4085 L27.8813,12.4085 C27.8813,12.5195 27.8813,12.5195 27.7693,12.5195 L27.7693,12.8555 Z M27.5453,45.7835 C27.6573,45.7835 27.5453,46.0075 27.5453,46.1195 C28.2173,46.3435 27.7693,45.2235 27.5453,45.7835 Z M27.5453,6.1355 C27.0973,5.7995 27.5453,5.2405 27.8813,5.2405 C27.9933,5.7995 27.5453,5.7995 27.5453,6.1355 Z M27.0973,11.8475 C27.4333,11.3995 27.6573,10.7275 27.9933,10.3915 C27.9933,11.1755 27.5453,11.5115 27.0973,11.8475 Z M26.8733,45.8955 L27.0973,45.8955 L27.0973,45.5595 L26.8733,45.5595 L26.8733,45.8955 Z M27.0973,7.2555 C26.8733,7.2555 27.0973,6.9195 26.8733,6.9195 C26.9853,6.4715 27.4333,7.1435 27.0973,7.2555 Z M26.8733,47.5755 C26.7613,47.7995 26.6493,48.0235 26.6493,48.2475 C27.0973,48.4715 27.0973,47.5755 26.8733,47.5755 Z M26.9853,12.2955 C27.2093,12.2955 26.9853,12.9675 26.6493,12.8555 C26.6493,12.4085 26.9853,12.5195 26.9853,12.2955 Z M26.9853,46.1195 C26.7613,46.1195 26.6493,46.2315 26.5373,46.4545 C26.7613,46.4545 26.8733,46.3435 26.9853,46.1195 Z M26.9853,44.7755 C26.8733,44.5515 27.0973,43.8795 26.8733,43.8795 C26.8733,44.2155 26.5373,44.3275 26.4253,44.6635 C26.6493,44.6635 26.7613,44.7755 26.9853,44.7755 Z M26.6493,7.9275 C26.2013,8.1515 26.5373,7.4795 26.4253,7.1435 C26.8733,7.0315 26.6493,7.7035 26.6493,7.9275 Z M26.4253,13.7515 C26.0893,13.5275 26.5373,13.0795 26.5373,12.8555 L26.6493,12.8555 C26.7613,13.3035 26.5373,13.4155 26.4253,13.7515 Z M26.2013,45.5595 C26.5373,45.7835 26.5373,45.1115 26.3133,45.2235 C26.3133,45.3355 26.3133,45.3355 26.2013,45.3355 L26.2013,45.5595 Z M25.5293,15.0955 C25.4173,14.6475 25.8653,14.6475 25.8653,14.1995 C26.4253,14.0875 25.8653,15.0955 25.5293,15.0955 Z M25.1933,46.7915 C25.5293,46.7915 25.4173,47.2395 25.6413,47.2395 C25.9773,47.0155 25.4173,46.3435 25.1933,46.7915 Z M24.9693,50.4875 L25.1933,50.4875 L25.1933,50.1515 L24.9693,50.1515 L24.9693,50.4875 Z M25.6413,42.1995 C26.3133,40.0715 27.8813,37.8315 27.8813,35.3675 C26.8733,37.6075 26.4253,40.5195 24.9693,41.9755 C25.4173,41.8635 25.4173,42.0875 25.6413,42.1995 Z M24.9693,16.2155 C25.1933,15.9925 25.0813,15.6555 25.5293,15.6555 C25.3053,15.7675 25.3053,16.1035 25.6413,16.2155 C25.5293,16.6635 25.1933,16.1035 24.9693,16.2155 Z M24.9693,10.8395 C24.9693,10.6155 25.0813,10.5035 25.3053,10.5035 C25.3053,10.7275 25.1933,10.8395 24.9693,10.8395 Z M24.6333,52.5035 L24.6333,52.8395 C25.0813,53.0635 25.0813,52.2795 24.6333,52.5035 Z M24.4093,18.2315 C23.8493,18.0075 24.7453,16.9995 24.8573,16.5515 C24.9693,16.8875 24.6333,17.7835 24.4093,18.2315 Z M24.5213,49.5915 C24.2973,49.5915 23.9613,50.1515 24.2973,50.1515 C24.2973,49.9275 24.6333,50.0385 24.5213,49.5915 Z M24.4093,53.5115 C23.9613,53.3995 23.8493,54.0715 24.2973,54.0715 C24.2973,53.8475 24.5213,53.8475 24.4093,53.5115 Z M23.8493,50.5995 L23.8493,50.9355 C24.2973,51.1595 24.2973,50.3755 23.8493,50.5995 Z M23.6253,54.8555 C23.6253,55.0785 23.5133,55.4155 23.7373,55.4155 C23.9613,55.1915 23.9613,54.9675 23.6253,54.8555 Z M24.1853,19.9115 C23.9613,19.9115 24.0733,19.5765 23.8493,19.5765 C23.6253,20.2475 22.8413,21.1435 23.0653,21.9275 C23.4013,21.2555 23.6253,20.4715 24.1853,19.9115 Z M23.0653,52.2795 C22.9533,52.9515 22.7293,53.3995 22.9533,53.8475 C23.1773,53.5115 23.4013,52.5035 23.0653,52.2795 Z M23.0653,25.1755 C22.9533,25.1755 22.9533,25.1755 22.9533,25.0635 L22.6173,25.0635 C22.6173,25.2875 22.3933,25.7355 22.6173,25.9595 C22.7293,25.7355 22.8413,25.3995 23.0653,25.1755 Z M22.2813,55.1915 C22.2813,54.9675 22.1693,54.8555 21.9453,54.8555 C22.0573,55.0785 21.9453,55.3035 22.1693,55.3035 C22.1693,55.1915 22.1693,55.0785 22.2813,55.1915 Z M26.8733,41.8635 C26.4253,42.5355 25.7533,43.5435 25.7533,44.2155 C24.4093,46.5675 23.1773,49.5915 21.9453,52.9515 C23.9613,49.5915 25.4173,46.0075 26.8733,41.8635 C27.5453,41.0795 28.2173,39.6235 28.2173,38.6155 C28.5533,38.2795 28.6653,37.7195 28.8893,37.2715 C28.2173,37.2715 28.2173,38.0555 27.6573,38.1675 C27.9933,38.1675 28.1053,38.3915 28.2173,38.6155 C27.4333,39.5115 27.0973,40.8555 26.8733,41.8635 Z M22.2813,58.9995 C22.2813,58.8875 22.2813,58.5515 21.9453,58.6625 C21.9453,58.7755 21.9453,58.8875 21.8333,58.9995 L22.2813,58.9995 Z M21.7213,55.4155 C21.7213,55.6395 21.7213,55.8635 21.9453,55.8635 C21.9453,55.6395 21.8333,55.5275 21.7213,55.4155 Z M21.1613,56.7595 C21.1613,56.8705 20.9373,57.0955 21.1613,57.2065 C21.1613,56.9835 21.3853,56.8705 21.1613,56.7595 Z M20.4893,19.3515 C20.4893,19.0155 20.7133,18.9035 21.0493,18.9035 C20.9373,19.1275 20.8253,19.3515 20.4893,19.3515 Z M20.9373,58.1035 C20.9373,57.8795 20.9373,57.6555 20.8253,57.5435 C20.8253,57.8795 20.3773,57.7675 20.4893,58.1035 L20.9373,58.1035 Z M26.5373,85.0955 C24.8573,88.4545 22.1693,92.5995 20.3773,95.7355 C21.3853,95.3995 21.2733,93.7195 22.3933,93.8305 C22.5053,93.2715 22.0573,94.0555 21.9453,93.6075 C22.1693,93.3835 22.2813,93.1595 22.6173,93.1595 C23.9613,89.9115 26.9853,86.4395 27.5453,82.4075 C27.4333,82.6315 27.3213,82.7435 26.9853,82.7435 C27.2093,83.5275 26.4253,83.9755 26.5373,85.0955 Z M20.3773,79.7195 L20.3773,79.3835 C20.8253,79.1595 20.8253,79.9435 20.3773,79.7195 Z M23.5133,87.6715 C22.6173,89.7995 20.7133,91.5915 20.1533,93.4945 C21.1613,91.5915 23.0653,89.7995 23.5133,87.6715 Z M20.1533,28.3115 C20.4893,27.5275 20.2653,26.9675 21.0493,26.6315 C20.7133,27.1915 20.8253,28.0875 20.1533,28.3115 Z M19.5933,59.5595 L19.5933,59.8955 C19.8173,59.8955 19.8173,59.7835 19.8173,59.5595 C20.1533,59.5595 20.2653,59.4475 20.2653,59.2235 C19.9293,59.1115 19.8173,59.3355 19.8173,59.5595 L19.5933,59.5595 Z M19.9293,95.9585 C19.3693,95.8475 19.4813,96.8555 19.8173,96.9675 C20.0413,96.7435 19.7053,96.4075 19.9293,95.9585 Z M19.7053,30.5515 C19.1453,30.3275 19.9293,29.3195 19.9293,28.7595 C20.6013,29.0955 19.5933,29.8795 19.7053,30.5515 Z M19.5933,22.7115 C19.3693,22.7115 19.5933,22.4875 19.5933,22.3755 C19.8173,22.4875 19.5933,22.5995 19.5933,22.7115 Z M19.1453,57.8795 C19.4813,58.1035 19.5933,57.5435 20.1533,57.8795 C20.6013,56.0875 22.0573,54.5195 21.8333,53.2865 C21.1613,54.2955 20.6013,55.1915 20.4893,56.3115 C19.5933,56.4235 19.7053,57.4315 19.1453,57.8795 Z M19.4813,80.8395 C19.3693,81.1755 18.8093,80.7275 19.1453,80.5035 C19.3693,80.6155 19.2573,80.8395 19.4813,80.8395 Z M19.4813,60.1195 C19.3693,60.4545 19.0333,60.5675 19.0333,60.9035 C19.3693,60.7905 19.9293,60.2315 19.4813,60.1195 Z M18.8093,81.8475 C18.8093,81.5115 19.1453,81.3995 19.1453,81.0635 C19.4813,81.2865 19.1453,81.9585 18.8093,81.8475 Z M20.3773,73.5595 C19.7053,73.8955 19.1453,74.3435 18.5853,74.9035 C19.3693,74.6795 20.0413,74.2315 20.3773,73.5595 Z M18.3613,77.1435 L18.5853,77.1435 L18.5853,76.9195 L18.3613,76.9195 L18.3613,77.1435 Z M18.9213,24.7275 L18.9213,25.0635 L18.3613,25.0635 C18.3613,24.8395 18.5853,24.8395 18.5853,24.6155 C18.6973,24.6155 18.8093,24.7275 18.9213,24.7275 Z M18.2493,66.2795 C18.0253,66.5035 18.0253,66.8395 18.4733,66.7275 C18.4733,66.5035 18.3613,66.3915 18.2493,66.2795 Z M17.9133,65.7195 L18.2493,65.7195 L18.2493,65.4945 L17.9133,65.4945 L17.9133,65.7195 Z M18.9213,35.1435 C18.6973,34.9195 18.9213,34.2475 18.4733,34.3595 C18.3613,34.9195 18.1373,35.3675 17.9133,35.9275 C18.5853,35.9275 18.2493,35.0315 18.9213,35.1435 Z M18.2493,83.1915 L17.9133,83.1915 C17.8013,83.0785 17.8013,82.8555 18.2493,82.8555 L18.2493,83.1915 Z M17.5773,63.0315 C17.5773,63.2555 17.6893,63.3675 17.8013,63.4795 C17.8013,63.2555 17.6893,63.1435 17.5773,63.0315 Z M19.5933,93.6075 C19.0333,94.7275 18.0253,95.3995 17.4653,96.4075 C18.2493,95.6225 19.7053,94.8395 19.5933,93.6075 Z M17.1293,64.1515 C17.2413,64.4875 16.9053,64.3745 16.9053,64.7115 C17.2413,64.8235 17.4653,64.2635 17.1293,64.1515 Z M17.1293,38.3915 C17.0173,39.0635 17.4653,39.3995 16.7933,39.5115 C17.0173,39.2865 16.5693,38.3915 17.1293,38.3915 Z M16.4573,65.6075 C16.4573,65.8305 16.2333,65.9435 16.4573,66.0555 C16.4573,65.8305 16.6813,65.7195 16.4573,65.6075 Z M16.4573,32.1195 C16.2333,32.2315 16.1213,32.0075 16.2333,31.7835 C16.3453,31.7835 16.4573,31.8955 16.4573,32.1195 Z M16.3453,85.2065 C16.7933,85.2065 16.2333,84.6475 16.3453,85.2065 C15.8973,85.3195 16.4573,85.7675 16.3453,85.2065 Z M16.4573,30.6635 C16.4573,31.1115 16.5693,31.3355 16.5693,31.6715 C16.3453,31.6715 16.2333,31.2235 16.2333,31.7835 C15.6733,31.7835 16.1213,30.6635 16.4573,30.6635 Z M15.8973,85.8795 L16.2333,85.8795 L16.2333,85.6555 L15.8973,85.6555 L15.8973,85.8795 Z M16.3453,43.0955 C16.1213,43.0955 16.0093,43.2075 15.8973,43.3195 C16.1213,43.3195 16.2333,43.2075 16.3453,43.0955 Z M25.0813,42.1995 C22.5053,49.2555 18.5853,56.1995 15.5613,63.4795 C19.1453,56.9835 23.4013,49.2555 25.0813,42.1995 Z M16.1213,33.2395 C15.7853,33.6875 15.6733,33.1275 15.2253,33.6875 C15.3373,33.2395 15.3373,32.7915 15.5613,32.4555 C15.7853,32.6795 15.6733,33.2395 16.1213,33.2395 Z M16.1213,66.8395 C15.8973,66.8395 15.7853,66.6155 15.5613,66.7275 C15.6733,67.1755 15.1133,66.8395 15.1133,67.2865 C15.3373,67.5115 15.8973,67.1755 16.1213,66.8395 Z M15.2253,87.1115 C15.2253,87.3345 15.0013,87.3345 15.0013,87.5595 C15.2253,87.6715 15.5613,87.2235 15.2253,87.1115 Z M15.0013,34.8075 C15.0013,34.2475 15.4493,34.0235 15.7853,33.7995 C15.6733,34.2475 15.6733,34.9195 15.0013,34.8075 Z M15.6733,69.6395 C15.3373,69.7515 14.7773,69.7515 14.8893,70.1995 C15.2253,70.0875 15.6733,70.0875 15.6733,69.6395 Z M15.2253,78.2635 C15.1133,78.4875 14.6653,78.3745 14.7773,78.8235 C15.1133,78.8235 15.2253,78.5995 15.2253,78.2635 C15.6733,78.1515 15.7853,77.7035 15.8973,77.4795 C16.1213,77.2555 17.0173,77.0315 16.3453,76.8075 C16.4573,77.2555 15.7853,76.9195 15.8973,77.4795 C15.4493,77.4795 15.4493,77.9275 15.2253,78.2635 Z M19.0333,58.9995 C18.6973,60.2315 17.4653,61.2395 17.2413,62.2465 C16.9053,62.3595 16.5693,62.3595 16.5693,62.8075 C16.9053,62.9195 17.0173,62.3595 17.1293,62.8075 C16.7933,63.0315 16.2333,63.0315 16.2333,63.5915 C16.4573,63.5915 16.5693,63.5915 16.5693,63.7035 C16.4573,64.1515 15.8973,64.2635 15.8973,64.9355 C15.4493,64.5995 15.1133,65.4945 15.4493,65.9435 C15.3373,66.0555 15.1133,66.0555 14.8893,66.0555 C15.0013,66.6155 14.6653,66.8395 14.5533,67.2865 C15.1133,66.9515 15.0013,66.0555 15.7853,66.0555 C16.9053,62.9195 18.6973,61.1275 19.8173,57.9915 C19.4813,57.9915 19.3693,58.4395 19.0333,58.5515 C18.9213,58.7755 19.4813,58.9995 19.0333,58.9995 C19.0333,58.5515 18.4733,59.1115 19.0333,58.9995 Z M14.1053,65.2715 C14.3293,65.0475 14.6653,64.7115 15.1133,64.7115 C14.6653,64.1515 15.3373,63.8155 15.1133,63.3675 C14.8893,64.0385 14.3293,64.4875 14.1053,65.2715 C13.8813,65.2715 14.1053,65.3835 14.1053,65.2715 Z M14.2173,89.2395 C14.2173,89.4625 13.6573,89.6875 14.1053,89.7995 C13.9933,89.6875 14.5533,89.4625 14.2173,89.2395 Z M14.1053,71.6555 C14.1053,71.5425 14.2173,71.5425 14.2173,71.4315 C14.1053,71.4315 13.9933,71.3195 13.8813,71.3195 C13.8813,71.4315 13.7693,71.4315 13.7693,71.5425 C13.8813,71.5425 13.9933,71.6555 14.1053,71.6555 Z M13.4333,40.1835 C13.6573,38.7275 13.9933,37.2715 14.7773,36.3755 C14.7773,35.9275 14.6653,35.7025 14.5533,35.3675 C14.6653,35.2555 15.1133,35.3675 15.1133,35.1435 C14.8893,36.8235 14.3293,38.7275 13.4333,40.1835 Z M29.8973,29.0955 C32.1373,21.3675 35.1613,14.3115 35.6093,4.1195 C35.3853,4.1195 35.4973,3.8955 35.2733,3.7845 C22.6173,19.1275 17.5773,43.8795 13.0973,64.8235 C20.0413,54.1835 25.0813,40.6315 29.8973,29.0955 Z M13.2093,68.9675 C13.3213,69.1915 12.8733,69.5275 13.2093,69.6395 C13.2093,69.3035 13.7693,69.1915 13.2093,68.9675 Z M13.4333,67.5115 C12.8733,67.3995 13.4333,66.8395 13.0973,66.7275 C13.0973,67.3995 12.0893,67.8475 12.5373,68.6315 C12.6493,68.0715 13.0973,67.8475 13.4333,67.5115 Z M31.8013,3.8955 C31.3533,4.1195 30.9053,4.3435 31.0173,5.0155 L30.6813,5.0155 C21.0493,18.4555 16.3453,37.3835 12.3133,54.5195 C14.1053,50.3755 14.5533,45.8955 15.7853,42.0875 C16.1213,42.4235 16.5693,42.1995 16.4573,41.7515 C16.4573,41.1915 16.0093,41.9755 16.1213,41.5275 C16.2333,40.8555 16.2333,40.7435 16.4573,40.4075 C16.9053,40.7435 16.9053,40.0715 17.4653,40.1835 C17.0173,39.5115 17.6893,38.8395 17.6893,38.0555 C17.4653,37.7195 17.2413,38.2795 17.1293,37.9435 C17.4653,37.3835 17.2413,36.9355 17.6893,36.4875 C18.0253,36.7115 17.3533,37.4955 17.6893,37.7195 C18.1373,37.1595 18.1373,36.1515 17.6893,35.7025 C18.4733,34.1355 18.4733,32.5675 19.4813,31.2235 C19.3693,32.3435 18.6973,32.9035 18.8093,34.1355 C19.5933,33.7995 19.2573,30.7755 20.3773,30.4395 C20.4893,30.1035 20.1533,30.2155 20.1533,29.9915 C21.1613,28.3115 21.9453,26.1835 21.9453,24.0555 C21.4973,24.7275 21.7213,26.0715 20.9373,26.4075 C22.1693,23.4955 22.5053,21.3675 23.9613,18.6795 C24.5213,18.9035 24.5213,18.4555 25.0813,18.9035 C24.9693,18.3435 24.6333,17.8955 24.9693,17.2235 C25.1933,17.2235 25.1933,17.4475 25.5293,17.3355 C25.5293,16.8875 26.0893,16.4395 25.6413,16.2155 C26.2013,15.0955 26.3133,13.6395 27.5453,13.0795 C28.1053,9.8315 31.1293,6.5835 32.4733,3.6715 C31.9133,4.2315 31.3533,5.6875 30.6813,5.7995 C30.5693,5.3515 31.0173,5.4635 31.0173,5.0155 C31.3533,4.6795 31.6893,4.4555 31.8013,3.8955 Z M12.0893,44.8875 C11.9773,44.4395 12.3133,44.4395 12.3133,43.9915 C12.9853,43.9915 12.5373,44.9995 12.0893,44.8875 Z M20.9373,72.1035 C17.2413,74.2315 13.4333,77.1435 11.7533,80.9515 C14.4413,77.5915 17.5773,74.7905 20.9373,72.1035 Z M11.7533,72.2165 L12.0893,72.2165 L12.0893,71.9915 L11.7533,71.9915 L11.7533,72.2165 Z M11.6413,82.4075 C12.7613,81.7355 13.2093,80.2795 14.2173,79.4945 C14.4413,79.3835 14.5533,79.2715 14.5533,79.0475 C14.3293,79.0475 14.2173,79.1595 14.2173,79.4945 C12.8733,80.0555 12.4253,81.3995 11.6413,82.4075 Z M11.6413,76.6955 C11.6413,76.8075 11.4173,76.9195 11.6413,77.0315 C11.6413,76.9195 11.8653,76.8075 11.6413,76.6955 Z M11.5293,46.7915 C11.6413,46.0075 11.6413,46.0075 12.0893,45.4475 C12.4253,45.7835 12.2013,46.6795 11.5293,46.7915 Z M11.6413,57.6555 C11.7533,57.9915 11.1933,58.1035 11.6413,58.2155 C11.6413,58.1035 11.9773,57.7675 11.6413,57.6555 Z M11.8653,77.8155 C11.9773,77.4795 11.4173,77.5915 11.4173,77.3675 L11.4173,77.8155 L11.8653,77.8155 Z M11.1933,75.6875 C11.6413,75.6875 11.0813,75.1265 11.1933,75.6875 C11.0813,75.7995 11.3053,75.9115 11.1933,75.6875 Z M11.5293,48.9195 L11.5293,49.4795 C11.1933,49.5915 11.0813,49.3675 11.0813,48.9195 L11.5293,48.9195 Z M11.0813,50.8235 C10.9693,50.8235 10.9693,50.4875 10.9693,50.2635 C11.4173,50.1515 11.1933,50.7115 11.0813,50.8235 Z M10.4093,52.1675 C9.6253,51.8315 10.8573,51.7195 10.7453,51.1595 C11.4173,51.3835 10.5213,51.9435 10.4093,52.1675 Z M10.1853,57.2065 C9.7373,57.0955 10.0733,56.4235 10.4093,56.3115 C10.4093,56.6475 10.0733,56.7595 10.1853,57.2065 Z M10.0733,55.3035 C9.7373,55.3035 9.9613,54.8555 10.0733,54.7435 C10.4093,54.7435 10.0733,55.1915 10.0733,55.3035 Z M10.9693,76.6955 C10.8573,76.5825 10.8573,76.4715 10.7453,76.4715 C10.0733,78.0385 9.2893,80.0555 9.5133,82.0715 C10.1853,80.6155 10.6333,78.0385 10.9693,76.6955 C11.1933,76.5825 10.9693,76.4715 10.9693,76.6955 Z M9.4013,60.9035 C8.9533,61.3515 9.0653,60.4545 9.1773,60.2315 C9.7373,60.3435 9.0653,61.0155 9.4013,60.9035 Z M8.5053,80.2795 C8.1693,80.2795 8.1693,80.6155 8.1693,80.8395 C8.5053,80.8395 8.5053,80.5035 8.5053,80.2795 Z M8.1693,61.6875 C8.8413,59.7835 8.2813,57.0955 10.0733,55.6395 C9.0653,57.3195 9.0653,60.5675 8.1693,61.6875 Z M8.2813,78.9355 C8.0573,79.1595 8.0573,79.3835 8.3933,79.4945 C8.6173,79.2715 8.6173,78.9355 8.2813,78.9355 Z M8.1693,90.4715 C7.9453,90.8075 8.6173,90.9185 8.5053,90.5825 C8.3933,90.5825 8.3933,90.4715 8.1693,90.4715 Z M8.0573,99.9915 L8.0573,99.6555 C8.3933,99.4315 8.3933,100.2145 8.0573,99.9915 Z M7.8333,62.2465 L7.8333,62.0235 C7.9453,62.0235 8.0573,61.9115 8.0573,61.9115 C8.2813,61.7995 8.1693,62.4715 7.8333,62.2465 Z M7.6093,67.6225 C7.8333,67.5115 7.6093,66.8395 7.8333,66.7275 C8.0573,66.8395 7.9453,67.7355 7.6093,67.6225 Z M7.7213,91.2555 C7.7213,91.3675 7.3853,91.9275 7.7213,91.9275 C7.8333,91.7035 8.1693,91.3675 7.7213,91.2555 Z M7.4973,63.9275 C7.4973,63.5915 7.6093,63.5915 7.6093,63.3675 C7.9453,63.3675 7.8333,63.9275 7.4973,63.9275 Z M6.9373,95.7355 C6.9373,95.8475 6.7133,96.0715 6.9373,96.1835 C6.9373,95.9585 7.1613,95.8475 6.9373,95.7355 Z M7.0493,96.6305 C7.0493,96.5195 7.0493,96.4075 6.8253,96.4075 C6.8253,96.5195 6.8253,96.7435 6.9373,96.8555 C6.9373,96.7435 6.9373,96.6305 7.0493,96.6305 Z M6.8253,68.9675 C6.4893,68.8555 6.7133,68.2955 7.0493,68.4075 C7.1613,68.8555 6.8253,68.7435 6.8253,68.9675 Z M6.8253,70.6475 C6.4893,70.6475 6.6013,70.4235 6.4893,70.1995 C6.7133,70.3115 6.8253,70.4235 6.8253,70.6475 Z M6.4893,72.1035 C6.9373,72.1035 6.3773,71.5425 6.4893,72.1035 C6.1533,72.5515 6.7133,73.1115 6.4893,72.1035 Z M6.3773,99.5425 L6.3773,98.9835 L6.4893,98.9835 C6.6013,98.3115 6.8253,98.0865 6.8253,97.3035 C6.3773,97.5275 6.1533,98.5355 6.3773,98.9835 C6.1533,99.0955 6.0413,99.4315 6.3773,99.5425 Z M5.4813,103.2395 L5.7053,103.2395 L5.7053,103.0155 L5.4813,103.0155 L5.4813,103.2395 Z M7.1613,84.7595 C6.8253,84.5355 6.6013,85.3195 6.2653,84.8705 C6.6013,84.7595 6.7133,84.4235 7.0493,84.4235 C6.6013,83.8635 7.0493,82.5195 7.4973,82.0715 C6.6013,81.7355 8.2813,81.2865 7.3853,80.9515 C7.7213,80.9515 7.9453,80.1665 7.6093,79.8305 C7.2733,80.9515 6.4893,81.5115 6.2653,82.5195 C6.6013,82.5195 6.8253,82.6315 6.8253,82.8555 C6.6013,82.9675 6.8253,83.5275 6.2653,83.4145 C6.3773,83.3035 6.6013,82.7435 6.1533,82.8555 C6.2653,83.3035 6.0413,83.4145 6.0413,83.7505 C6.3773,83.6395 6.3773,83.9755 6.4893,84.1995 C5.5933,84.9835 5.9293,86.6625 5.3693,87.5595 C6.1533,86.5515 6.6013,85.3195 7.1613,84.7595 C7.7213,84.8705 7.2733,84.3115 7.1613,84.7595 Z M38.9693,5.2405 C38.9693,5.5765 39.3053,5.2405 39.1933,5.0155 C39.7533,9.8315 38.9693,14.3115 37.8493,17.8955 C38.1853,18.0075 38.1853,19.4635 37.2893,19.3515 C37.8493,20.1355 37.5133,21.3675 36.9533,21.8155 C36.8413,24.3915 35.4973,26.1835 35.1613,28.6475 C34.9373,28.8715 34.4893,28.5355 34.3773,29.0955 C34.3773,29.3195 34.7133,29.2075 34.9373,29.2075 C34.6013,29.9915 34.6013,30.5515 34.3773,31.4475 C34.1533,31.5595 34.0413,31.3355 33.8173,31.3355 C34.4893,32.5675 33.1453,33.1275 33.0333,33.9115 L32.9213,33.9115 C32.9213,34.0235 33.0333,34.0235 33.0333,33.9115 L33.3693,33.9115 C33.3693,34.3595 33.1453,34.4715 32.5853,34.4715 C33.5933,35.1435 32.1373,35.5915 32.0253,36.4875 C32.1373,36.8235 32.3613,36.3755 32.5853,36.4875 C31.9133,38.1675 30.7933,38.9515 30.9053,40.8555 C30.5693,41.0795 30.6813,40.8555 30.3453,40.8555 C30.6813,41.6395 29.8973,42.1995 29.3373,42.5355 C29.3373,42.7595 29.8973,42.5355 30.0093,42.6475 C29.5613,43.7675 29.4493,45.3355 28.2173,45.5595 C28.2173,47.6875 26.9853,50.7115 25.3053,52.6155 C26.3133,53.3995 24.2973,54.5195 24.8573,54.9675 C24.7453,55.1915 24.5213,55.1915 24.2973,55.1915 C24.5213,56.0875 24.0733,57.0955 22.9533,57.5435 C23.1773,59.1115 22.0573,60.1195 21.2733,61.0155 C21.2733,61.4635 21.7213,61.3515 21.6093,61.6875 C20.7133,62.6955 19.9293,63.7035 19.5933,65.2715 C19.2573,65.3835 18.5853,64.9355 18.5853,65.7195 C18.6973,66.0555 19.0333,65.8305 19.0333,65.6075 C19.1453,66.5035 18.4733,66.8395 18.2493,67.6225 C17.9133,67.7355 17.9133,67.3995 17.6893,67.3995 C17.4653,67.5115 18.1373,68.0715 17.2413,67.9585 C17.2413,68.1835 17.4653,68.1835 17.5773,68.2955 C17.6893,68.7435 17.2413,68.6315 17.2413,68.9675 C16.7933,68.7435 16.2333,68.9675 15.8973,69.3035 C16.0093,69.5275 16.1213,69.7515 16.2333,70.0875 C14.8893,70.6475 15.3373,72.5515 13.4333,72.7755 C13.0973,73.6715 13.0973,74.7905 12.3133,75.1265 C12.3133,75.3515 12.6493,75.3515 12.7613,75.4635 C12.3133,75.7995 12.6493,76.9195 11.8653,76.9195 C12.2013,77.4795 11.8653,78.2635 12.0893,78.7105 C13.2093,77.5915 14.4413,76.5825 15.4493,75.3515 C17.4653,74.0075 19.2573,72.1035 21.8333,70.9835 C26.8733,69.6395 31.8013,70.5355 32.3613,75.5755 C32.5853,79.6075 31.4653,83.3035 29.3373,86.5515 C28.1053,90.6955 24.9693,94.2795 22.3933,97.7505 C20.8253,98.5355 19.4813,99.7675 17.6893,100.6625 C15.1133,100.7755 12.3133,99.2065 10.9693,97.1915 C11.1933,91.2555 15.0013,85.9915 18.2493,81.7355 C18.2493,82.0715 18.6973,82.5195 18.2493,82.8555 C18.1373,82.7435 18.1373,82.6315 17.9133,82.5195 C17.5773,82.6315 17.3533,83.9755 17.8013,83.1915 L17.9133,83.1915 C15.5613,87.2235 13.7693,92.5995 14.2173,96.6305 C20.8253,92.0385 27.4333,81.5115 26.4253,72.4395 C26.3133,72.4395 26.2013,72.4395 26.2013,72.3275 C25.0813,72.5515 24.8573,73.2235 23.6253,73.4475 C22.8413,74.5675 19.7053,75.5755 19.1453,77.3675 C17.4653,78.8235 15.5613,80.1665 14.4413,82.1835 C13.9933,82.2945 14.1053,82.1835 13.6573,82.1835 C14.3293,82.8555 13.3213,83.7505 12.4253,83.7505 C12.3133,84.3115 12.9853,83.9755 12.8733,84.4235 C12.0893,84.6475 11.7533,86.4395 10.4093,86.5515 C9.9613,87.6715 10.1853,89.4625 9.4013,89.7995 C9.5133,92.0385 8.7293,93.2715 8.5053,95.9585 C9.0653,96.0715 8.7293,95.5115 9.1773,95.6225 C9.0653,96.6305 8.2813,96.9675 8.1693,97.9755 C8.1693,98.4235 8.3933,97.8635 8.7293,97.9755 C6.8253,101.6705 6.9373,104.6955 6.7133,108.7275 C5.1453,108.9515 3.2413,108.3915 2.4573,106.7105 C1.3373,107.1595 1.0013,105.7035 0.1053,105.3675 C0.2173,96.5195 3.6893,88.6795 4.4733,80.5035 C4.8093,80.2795 5.0333,79.1595 4.8093,78.8235 C5.3693,78.4875 4.9213,78.0385 5.3693,77.5915 C4.4733,76.3595 3.1293,77.5915 2.0093,76.6955 C3.4653,75.5755 5.3693,74.2315 6.3773,73.1115 C5.9293,72.5515 6.2653,71.9915 6.3773,71.3195 C6.6013,71.3195 6.7133,71.3195 6.7133,71.5425 C7.2733,70.8705 7.1613,69.3035 7.4973,68.2955 C7.8333,68.2955 7.7213,68.5195 8.0573,68.2955 C8.0573,66.6155 9.4013,64.5995 8.7293,63.2555 C11.3053,55.4155 12.6493,48.2475 14.3293,40.7435 C15.0013,40.0715 15.8973,37.4955 15.6733,36.3755 C16.1213,36.1515 16.4573,35.0315 16.2333,34.3595 C16.7933,34.1355 17.0173,33.2395 16.7933,32.5675 C17.3533,32.0075 18.0253,30.9995 17.5773,30.4395 C18.0253,29.7675 18.9213,28.5355 18.4733,27.4155 C18.8093,27.5275 19.0333,27.4155 19.1453,27.3035 C18.9213,25.3995 20.4893,24.3915 20.4893,22.3755 C20.7133,22.3755 20.7133,22.5995 20.6013,22.7115 C21.2733,20.5835 22.3933,18.9035 22.8413,16.5515 C23.5133,16.3285 23.8493,15.2075 23.7373,14.5365 C23.9613,14.5365 24.0733,14.6475 24.1853,14.6475 C25.5293,11.3995 27.2093,8.0395 29.3373,5.1275 C29.5613,3.6715 31.2413,2.5515 32.2493,1.4315 C32.2493,1.2075 31.9133,1.3195 31.9133,0.9835 C32.9213,0.5365 33.7053,0.2005 35.0493,0.4235 C35.2733,0.7595 35.0493,0.6475 35.0493,0.9835 C35.9453,1.0955 36.2813,1.6565 37.1773,1.7675 C37.1773,2.9995 39.3053,3.2235 39.1933,5.0155 C38.9693,5.0155 38.9693,5.1275 38.9693,5.2405 Z" id="Fill-6" fill="#325C2A" mask="url(#mask-5)"></path>
                </g>
            </g>
        </g>
    </g>
</svg>