<?xml version="1.0" encoding="UTF-8"?>
<svg width="211px" height="117px" viewBox="0 0 211 117" version="1.1" xmlns="http://www.w3.org/2000/svg" xmlns:xlink="http://www.w3.org/1999/xlink">
    <!-- Generator: Sketch 51.3 (57544) - http://www.bohemiancoding.com/sketch -->
    <title>index_word_Banner</title>
    <desc>Created with Sketch.</desc>
    <defs>
        <filter x="-1.2%" y="-2.2%" width="102.4%" height="108.8%" filterUnits="objectBoundingBox" id="filter-1">
            <feOffset dx="0" dy="5" in="SourceAlpha" result="shadowOffsetOuter1"></feOffset>
            <feColorMatrix values="0 0 0 0 1   0 0 0 0 1   0 0 0 0 1  0 0 0 1 0" type="matrix" in="shadowOffsetOuter1" result="shadowMatrixOuter1"></feColorMatrix>
            <feMerge>
                <feMergeNode in="shadowMatrixOuter1"></feMergeNode>
                <feMergeNode in="SourceGraphic"></feMergeNode>
            </feMerge>
        </filter>
        <polygon id="path-2" points="0 0.866037992 58.155905 0.866037992 58.155905 112 0 112"></polygon>
        <polygon id="path-4" points="0.990798598 0.156947248 29.381 0.156947248 29.381 33.5782 0.990798598 33.5782"></polygon>
    </defs>
    <g id="Page-1" stroke="none" stroke-width="1" fill="none" fill-rule="evenodd">
        <g id="A4" transform="translate(-262.000000, -219.000000)">
            <g id="index_word_Banner" filter="url(#filter-1)" transform="translate(262.000000, 218.000000)">
                <g id="Group-3" transform="translate(0.000000, 0.134000)">
                    <mask id="mask-3" fill="white">
                        <use xlink:href="#path-2"></use>
                    </mask>
                    <g id="Clip-2"></g>
                    <path d="M55.3018,15.876 C55.6848,16.078 55.7288,15.349 55.4908,15.375 C55.5038,15.494 55.3968,15.625 55.2638,15.519 C55.2768,15.638 55.2888,15.758 55.3018,15.876 Z M55.3268,16.115 C55.3518,16.354 55.1258,16.498 55.3768,16.593 C55.4718,16.341 55.6978,16.197 55.3268,16.115 Z M55.4968,14.288 C55.4968,14.288 55.5098,14.407 55.6288,14.394 C55.6158,14.275 55.5918,14.036 55.5788,13.917 C55.4588,13.929 55.3408,13.942 55.1008,13.967 C55.0068,14.218 55.0568,14.696 55.4158,14.659 C55.4028,14.539 55.2588,14.313 55.4968,14.288 Z M54.7998,17.98 C54.9558,18.326 54.6108,18.483 54.7808,18.947 C55.1378,18.91 55.2508,17.692 54.7998,17.98 Z M54.6348,21.014 C54.5288,21.146 54.3528,21.768 54.7228,21.849 C54.5788,21.624 55.0068,21.096 54.6348,21.014 Z M53.1288,20.449 C53.3098,21.032 52.8448,21.202 52.9078,21.799 C53.2538,21.642 53.6058,20.399 53.1288,20.449 Z M52.7508,23.746 C52.6318,23.758 52.5118,23.771 52.4998,23.652 C52.4998,23.652 52.3808,23.664 52.2608,23.677 C52.5498,24.128 51.9778,24.43 52.3478,24.512 C52.4428,24.261 52.6558,23.997 52.7508,23.746 Z M52.0278,71.964 C52.0898,72.561 51.6998,73.446 52.2408,73.992 C52.0458,73.288 52.6488,72.14 52.0278,71.964 Z M52.2668,24.883 C51.7638,24.695 51.7328,25.542 51.9848,25.636 C51.9468,25.278 52.1728,25.133 52.2668,24.883 Z M51.9698,74.866 C52.1898,75.808 51.4048,76.373 52.1018,77.264 C52.0268,76.548 52.6668,75.757 51.9698,74.866 Z M51.6868,77.912 C51.8318,78.138 51.6428,78.641 52.0008,78.603 C52.1078,78.471 52.2718,77.73 51.6868,77.912 Z M51.6558,78.76 C51.8248,79.224 51.2338,80.493 51.6548,81.051 C51.6988,80.323 51.9818,79.569 51.6558,78.76 Z M51.3618,67.932 C51.4118,68.408 51.4628,68.886 51.5128,69.364 C52.0968,69.181 51.8638,68.12 51.3618,67.932 Z M51.3238,27.395 C51.8268,27.584 51.6068,26.642 51.3678,26.667 C51.5378,27.13 51.2868,27.037 51.3238,27.395 C50.9668,27.433 51.5068,27.979 51.3238,27.395 Z M51.2678,28.004 C50.9098,28.042 50.6268,28.796 50.8788,28.89 C50.9608,28.519 51.3178,28.481 51.2678,28.004 Z M50.4328,63.686 C50.6528,64.627 50.6718,65.953 51.2118,66.499 C51.0168,65.795 50.9858,64.352 50.4328,63.686 Z M50.2678,78.181 C50.4368,78.647 49.8778,79.068 50.2738,79.387 C50.3558,79.018 50.7698,78.37 50.2678,78.181 Z M50.6308,83.935 C50.3608,84.808 49.9588,85.574 49.9398,86.542 C50.2348,85.906 50.9578,84.745 50.6308,83.935 Z M50.0788,80.977 C49.9718,81.109 49.7838,81.61 50.1408,81.573 C50.1288,81.454 50.4368,80.939 50.0788,80.977 Z M49.8998,62.052 C50.0558,62.397 50.0938,62.755 50.3578,62.969 C50.4518,62.717 50.3768,62.001 49.8998,62.052 Z M49.8848,30.925 C50.2308,30.768 50.1938,30.41 50.2758,30.039 C50.6208,29.881 50.4508,29.417 50.6768,29.273 C50.1878,29.204 50.4758,29.656 50.2758,30.039 C49.9168,30.076 49.9678,30.554 49.8848,30.925 Z M49.7958,81.73 C49.9408,81.956 49.5008,82.364 49.8708,82.446 C49.9658,82.194 50.2858,81.799 49.7958,81.73 Z M49.6188,86.938 C49.6438,87.175 49.2168,87.704 49.5878,87.785 C49.5628,87.546 49.9898,87.018 49.6188,86.938 Z M48.4318,90.561 C48.0738,90.598 47.9678,90.731 48.0048,91.088 C48.4818,91.038 48.3248,90.693 48.4318,90.561 Z M46.5848,91.358 C46.9628,90.353 47.5088,89.814 47.6348,88.714 C48.6898,87.275 49.3928,84.789 49.5758,83.081 C48.9278,84.959 48.1498,86.73 47.6348,88.714 C47.2328,89.48 46.2458,90.428 46.5848,91.358 Z M45.1648,96.213 C46.2328,94.894 46.7598,93.029 48.0928,91.923 C48.0678,91.685 48.0298,91.327 47.7788,91.232 C46.8668,92.897 45.9438,94.442 44.7688,95.893 C45.0078,95.868 44.9258,96.238 45.1648,96.213 Z M44.6748,96.143 C44.2718,96.91 43.4748,97.355 43.3368,98.335 C43.8138,98.285 45.0008,96.955 44.6748,96.143 Z M44.6938,95.177 C44.7758,94.806 44.4178,94.844 44.4998,94.473 C45.3788,93.657 46.3148,92.23 46.1888,91.038 C45.0648,92.966 44.0588,94.882 42.8028,96.702 C43.9708,96.338 43.6328,95.408 44.6938,95.177 Z M42.9688,4.142 C42.6928,3.809 42.1578,4.468 42.5288,4.551 C42.5038,4.312 42.9928,4.38 42.9688,4.142 Z M42.8288,96.941 C42.2318,97.004 42.1618,97.493 41.9618,97.876 C42.2938,97.601 42.8908,97.538 42.8288,96.941 Z M42.8598,98.385 C42.7088,99.247 41.6468,99.478 41.5088,100.458 C42.0548,99.918 43.6508,99.027 42.8598,98.385 Z M41.3208,100.96 C41.1878,100.854 41.2828,100.602 41.0438,100.627 C41.0558,100.747 40.8298,100.892 40.8428,101.011 C40.9618,100.998 41.0818,100.985 41.3208,100.96 Z M40.7738,99.208 C40.6918,99.578 39.7748,100.037 40.1708,100.357 C40.2528,99.986 41.3018,99.635 40.7738,99.208 Z M40.7488,101.262 C40.1518,101.325 39.9378,101.588 40.0008,102.185 C40.3338,101.909 40.6788,101.751 40.7488,101.262 Z M40.0788,6.497 C40.7698,6.182 41.2098,5.773 41.5048,5.14 C40.8138,5.454 40.3738,5.861 40.0788,6.497 C39.3498,6.453 40.0098,6.986 40.0788,6.497 Z M40.0268,97.839 C39.6688,97.876 39.7188,98.354 39.3858,98.63 C39.8508,98.461 40.0648,98.197 40.0268,97.839 Z M39.1968,101.425 C38.9578,101.451 38.8388,101.463 38.7198,101.476 C38.7328,101.595 38.6248,101.727 38.6378,101.846 C38.9958,101.808 39.0908,101.557 39.1968,101.425 Z M39.2248,7.552 C38.7208,7.363 37.0568,8.745 38.1808,9.109 C38.2258,8.381 39.0608,8.293 39.2248,7.552 Z M39.0528,98.906 C38.2808,99.591 37.4948,100.156 37.1058,101.041 C37.6768,100.74 38.9268,100.005 39.0528,98.906 Z M37.6518,102.793 C37.5328,102.806 37.4128,102.818 37.2808,102.712 C37.4378,103.058 36.9608,103.108 36.9858,103.347 C37.4758,103.416 37.5578,103.045 37.6518,102.793 Z M36.4668,10.014 C36.9318,9.844 37.2518,9.448 37.4528,9.065 C37.5598,8.934 37.3088,8.839 37.4528,9.065 C36.9878,9.235 36.6678,9.631 36.4668,10.014 Z M35.5748,10.71 C35.5058,11.201 35.7448,11.176 36.2088,11.006 C36.2778,10.516 35.7188,10.937 35.5748,10.71 Z M35.2268,104.98 C35.7858,104.559 36.4898,104.364 36.7728,103.61 C36.1758,103.673 36.4648,104.126 35.9618,103.937 C36.0248,104.534 34.9008,104.168 35.2268,104.98 Z M34.9888,105.004 C34.5108,105.055 33.4998,105.764 34.1218,105.941 C34.1908,105.451 34.9198,105.495 34.9888,105.004 Z M32.6968,60.241 C32.5518,60.014 33.5068,59.914 32.8848,59.738 C32.9098,59.977 32.6468,59.764 32.4078,59.789 C32.4198,59.908 32.4328,60.027 32.4458,60.146 C32.4458,60.146 32.5768,60.253 32.6968,60.241 Z M33.3618,106.745 C33.4558,106.493 34.0028,105.954 33.4998,105.764 C33.5878,106.599 32.2248,106.26 32.1808,106.989 C32.6458,106.82 32.7518,106.687 33.3618,106.745 Z M32.4258,108.169 C32.1858,108.194 31.9598,108.339 31.9728,108.459 C32.2238,108.552 32.4508,108.408 32.4258,108.169 Z M31.7538,60.46 C31.4778,60.127 31.1578,60.523 31.0628,60.775 C31.4338,60.855 31.7918,60.818 31.7538,60.46 C32.3638,60.517 31.8228,59.97 31.7538,60.46 Z M30.8238,107.855 C31.1938,107.937 31.4208,107.793 31.3958,107.553 C31.6338,107.528 31.7538,107.516 31.9918,107.491 C31.9798,107.372 31.9668,107.252 31.9418,107.014 C31.5838,107.052 31.4898,107.303 31.3958,107.553 C31.0368,107.591 30.7988,107.616 30.8238,107.855 Z M32.2768,14.918 C32.0308,16.03 30.9818,16.381 30.7498,17.612 C32.1638,16.137 33.1938,14.459 34.4748,12.877 C34.5938,12.865 34.6068,12.984 34.7258,12.972 C34.8898,12.23 35.4738,12.049 35.6498,11.426 C34.9458,11.622 34.3748,11.922 34.4748,12.877 C33.5078,12.858 33.4578,14.673 32.2768,14.918 Z M30.8498,61.038 C30.6118,61.063 30.3598,60.968 30.3978,61.327 C30.6358,61.302 30.7428,61.17 30.8498,61.038 Z M30.5238,17.756 C30.2408,18.51 29.1098,19.232 29.3178,20.056 C29.7198,19.29 30.7188,18.46 30.5238,17.756 Z M28.6958,62.35 C29.1848,62.42 29.2668,62.05 29.4688,61.667 C29.8638,61.987 30.3158,61.698 30.2658,61.22 C29.7758,61.15 29.6948,61.521 29.4688,61.667 C29.1218,61.823 28.6578,61.993 28.6958,62.35 Z M30.8488,108.095 C30.1078,107.931 28.9768,108.653 28.1788,109.099 C29.2908,109.343 30.0258,108.302 30.8488,108.095 Z M27.9798,22.247 C28.0608,21.876 28.7398,21.443 28.3438,21.123 C28.6888,20.966 28.9038,20.702 28.9848,20.332 C28.5078,20.382 28.4258,20.751 28.3438,21.123 C28.1308,21.387 27.5838,21.926 27.9798,22.247 Z M27.5648,63.073 C27.9228,63.036 28.0168,62.784 28.2308,62.52 C28.4688,62.495 28.2178,62.4 28.2308,62.52 C27.7528,62.57 27.6588,62.821 27.5648,63.073 Z M27.5148,22.418 C27.5268,22.537 27.3018,22.68 27.5518,22.775 C27.5398,22.655 27.7648,22.511 27.5148,22.418 Z M27.2748,109.676 C27.2748,109.676 27.2618,109.557 27.2498,109.438 C27.1308,109.45 27.0108,109.462 27.0108,109.462 C27.0238,109.582 27.0358,109.701 27.0358,109.701 C27.0358,109.701 27.1558,109.689 27.2748,109.676 Z M27.3138,62.978 C27.2318,63.348 26.5028,63.304 26.6858,63.889 C27.0438,63.852 27.5768,63.191 27.3138,62.978 Z M26.3518,64.165 C26.3518,64.165 26.3398,64.046 26.3268,63.927 C26.3268,63.927 26.2078,63.939 26.0888,63.952 C26.1008,64.071 26.1138,64.19 26.1138,64.19 C26.2328,64.178 26.3518,64.165 26.3518,64.165 Z M26.0188,64.441 C25.7808,64.466 25.5418,64.491 25.3028,64.516 C25.3158,64.635 25.2088,64.768 25.2208,64.887 C25.5788,64.85 25.7938,64.585 26.0188,64.441 Z M36.1438,102.228 C36.2258,101.858 37.0108,101.293 36.6288,101.091 C33.5628,104.069 29.1598,106.944 24.2978,108.904 C29.2598,107.899 32.5508,104.778 36.1438,102.228 Z M24.6938,66.752 C24.4548,66.778 24.3358,66.79 24.2418,67.042 C24.4798,67.017 24.5868,66.884 24.6938,66.752 Z M23.8208,108.954 C23.9398,108.941 24.1788,108.916 24.1658,108.797 C24.0468,108.81 23.8078,108.834 23.8208,108.954 Z M24.0338,66.218 C24.0098,65.98 23.8778,65.873 23.6378,65.898 C23.7828,66.125 23.6888,66.376 23.9278,66.351 C23.9148,66.231 23.9148,66.231 24.0338,66.218 Z M22.9978,66.689 C23.0228,66.928 22.7968,67.072 23.0478,67.168 C23.1548,67.035 23.3678,66.772 22.9978,66.689 Z M22.7758,41.616 C22.6558,41.628 22.4678,42.132 22.8258,42.094 C22.5628,41.88 23.1338,41.578 22.7758,41.616 Z M22.3608,44.555 C22.2918,45.045 22.3298,45.404 22.2978,46.252 C22.7498,45.963 22.5998,44.53 22.3608,44.555 Z M21.8068,48.475 C21.9768,48.94 21.5618,49.587 21.9578,49.908 C22.0398,49.537 22.5358,48.519 21.8068,48.475 Z M21.7348,69.597 C21.8538,69.584 22.0928,69.56 22.0808,69.441 C21.9618,69.454 21.7228,69.479 21.7348,69.597 Z M21.3838,68.549 C21.6218,68.524 21.7288,68.392 21.7038,68.153 C21.4658,68.178 21.3588,68.31 21.3838,68.549 C20.7618,68.373 21.4218,68.906 21.3838,68.549 Z M20.9798,45.183 C21.0978,45.171 21.2178,45.158 21.2048,45.039 C21.0858,45.052 20.9668,45.064 20.9798,45.183 Z M21.4178,51.653 C21.4238,52.859 20.7708,53.531 21.0028,54.592 C21.3798,53.587 21.9828,52.438 21.4178,51.653 Z M20.8268,55.215 C20.9468,55.203 21.0658,55.19 21.0528,55.07 C20.9338,55.083 20.8138,55.095 20.8268,55.215 Z M20.7568,55.704 C20.9018,55.931 20.6188,56.684 21.0838,56.514 C20.9398,56.288 21.0088,55.798 20.7568,55.704 Z M20.8088,47.011 C21.2858,46.961 20.6268,46.428 20.8088,47.011 C20.4638,47.168 21.1228,47.702 20.8088,47.011 Z M20.4998,56.697 C20.7318,57.757 19.7828,59.065 20.0158,60.126 C20.6558,59.334 20.9458,57.494 20.4998,56.697 Z M20.1928,50.334 C20.3998,51.156 19.5328,52.093 20.2868,52.375 C20.2118,51.659 20.3998,51.156 20.3118,50.321 C20.5518,50.296 20.6898,49.317 20.3188,49.235 C20.2368,49.605 20.1428,49.856 20.3118,50.321 L20.1928,50.334 Z M20.1528,70.608 C20.2458,70.357 20.3408,70.106 20.2908,69.629 C20.5298,69.604 20.6608,69.71 20.8998,69.685 C20.9688,69.196 20.2398,69.151 20.2908,69.629 C19.6818,69.572 19.6618,70.54 20.1528,70.608 Z M19.9668,52.771 C19.9918,53.009 19.5768,53.656 19.9598,53.857 C19.9228,53.499 20.4688,52.959 19.9668,52.771 Z M19.5708,54.743 C19.8468,55.076 19.2628,55.258 19.6338,55.34 C19.7398,55.208 19.9418,54.824 19.5708,54.743 Z M19.2908,39.449 C19.4098,39.436 19.6488,39.411 19.6358,39.292 C19.5158,39.304 19.2778,39.33 19.2908,39.449 Z M19.3508,56.094 C19.2688,56.464 19.0548,56.727 19.5448,56.797 C19.4008,56.57 19.5898,56.069 19.3508,56.094 Z M19.6998,70.897 C19.6748,70.659 19.7568,70.288 19.5178,70.313 C18.9708,70.853 18.9958,71.091 19.0718,71.807 C19.9068,71.719 18.8518,70.866 19.6998,70.897 Z M19.5198,61.143 C19.6198,62.097 18.7398,62.915 19.0668,63.724 C19.6258,63.303 20.1658,61.558 19.5198,61.143 Z M18.9848,64.094 C19.1548,64.559 18.6518,64.371 18.8218,64.836 C19.3108,64.905 19.4628,64.044 18.9848,64.094 Z M18.9628,43.224 C18.9758,43.343 18.9888,43.462 19.0008,43.583 C18.8818,43.595 18.8818,43.595 18.7618,43.607 C18.7498,43.487 18.7378,43.368 18.7248,43.249 C18.8438,43.236 18.8438,43.236 18.9628,43.224 Z M18.2778,44.745 C18.2658,44.625 18.2398,44.386 18.2278,44.266 C18.8128,44.084 18.6358,44.707 18.2778,44.745 Z M18.4888,60.527 C18.5648,61.244 18.0998,61.413 18.1758,62.129 C18.6268,61.84 18.6838,61.231 18.6088,60.514 C18.8348,60.37 18.9288,60.119 18.8908,59.761 C18.4018,59.692 18.7028,60.263 18.6088,60.514 L18.4888,60.527 Z M18.1148,45.484 C18.0208,45.736 17.9958,45.497 17.7568,45.522 C17.8638,45.39 18.1028,45.365 18.1148,45.484 Z M18.0398,42.476 C17.6818,42.513 17.7188,42.872 17.6258,43.123 C18.1028,43.073 17.9458,42.728 18.0398,42.476 Z M18.9908,65.3 C18.7518,65.325 18.6328,65.338 18.3938,65.363 C18.5128,67.644 16.7358,70.243 16.8668,72.643 C17.8468,70.488 18.4318,68.014 18.9908,65.3 Z M16.7638,45.265 C16.8838,45.252 17.0028,45.24 16.9908,45.12 C16.8708,45.132 16.7518,45.145 16.7638,45.265 Z M16.7338,79.414 C16.7208,79.294 16.5768,79.068 16.3508,79.212 C16.4828,79.32 16.3878,79.57 16.6268,79.545 C16.6138,79.426 16.6138,79.426 16.7338,79.414 Z M16.3638,70.162 C16.0568,70.677 16.0008,71.286 15.9568,72.015 C16.1818,71.87 16.5338,70.626 16.3638,70.162 Z M15.9608,44.504 L15.9728,44.625 C15.8538,44.637 15.7218,44.529 15.9608,44.504 Z M15.9238,75.154 C16.0818,75.501 15.2588,75.708 15.7608,75.896 C15.8678,75.765 16.4268,75.343 15.9238,75.154 Z M15.2458,77.881 C15.3148,77.391 15.6358,76.996 15.7038,76.505 L15.8238,76.493 C15.8108,76.374 15.8108,76.374 15.9308,76.361 C15.9188,76.241 15.9058,76.122 15.8928,76.003 C15.6538,76.028 15.6788,76.266 15.7038,76.505 C15.2268,76.556 14.9688,77.547 15.2458,77.881 Z M12.2098,89.179 C12.4358,89.035 12.1848,88.942 12.2098,89.179 C11.9848,89.324 12.2228,89.299 12.2098,89.179 Z M23.0878,51.477 C23.4148,52.287 22.9808,53.902 22.4848,54.919 C22.7668,56.459 22.1448,58.575 21.4608,60.094 C21.8868,61.859 19.9708,63.147 20.5678,65.376 C20.1908,66.381 19.5058,67.901 19.8698,69.069 C24.1788,64.153 29.9958,59.801 36.9108,57.867 C37.0678,58.212 37.7598,57.899 37.9158,58.244 C33.1358,59.833 29.6878,62.608 26.7668,65.811 C26.5148,65.717 26.6098,65.465 26.3708,65.49 C26.1008,66.363 24.9068,66.488 25.0328,67.683 C23.9338,67.556 23.8588,69.133 22.7968,69.366 C22.5328,69.152 22.4948,68.793 22.2938,69.177 C22.2618,70.024 22.8468,69.842 23.0978,69.937 C22.5388,70.358 21.3448,70.483 21.3268,71.451 C21.4958,71.915 21.7658,71.042 21.8168,71.519 C21.5208,72.154 20.9308,73.422 20.2838,73.008 C20.3588,73.724 20.3588,73.724 19.7378,73.548 C19.4168,73.943 19.9058,74.012 19.9568,74.491 C19.5298,75.017 18.7568,75.702 18.7008,76.311 C17.6638,76.782 17.8398,78.453 17.0298,78.779 C15.3078,83.062 13.0518,88.004 12.0778,93.658 C12.0028,95.235 11.7378,97.313 11.6748,99.009 C12.0458,99.091 11.9198,100.19 12.3408,100.749 C12.3218,101.716 12.4658,101.942 12.5788,103.017 C12.7608,103.6 13.0498,104.053 13.1368,104.888 C13.7718,105.183 14.0858,105.875 14.5188,106.553 C15.3358,107.433 17.0058,107.257 17.7158,108.268 C19.0408,108.25 19.5178,108.2 20.7238,108.193 C21.2138,108.261 20.7938,107.703 21.1518,107.666 C21.1638,107.785 21.1888,108.024 21.2018,108.143 C22.1438,107.923 23.2298,107.93 23.6578,107.402 C23.7888,107.509 23.8838,107.257 23.6578,107.402 C23.8458,106.899 24.5748,106.944 24.8508,107.277 C25.3468,106.259 26.8978,106.096 28.1738,105.599 C28.4688,104.966 29.1598,104.651 29.8758,104.576 C30.1958,104.181 30.6488,103.892 30.9688,103.496 C33.2548,102.291 35.2528,100.633 36.8668,98.774 C36.9868,98.762 37.1188,98.869 37.2378,98.856 C39.5998,96.074 41.8298,93.185 44.0728,90.416 C47.5028,84.022 49.9598,76.403 49.6908,68.107 C49.2838,65.375 49.0078,62.75 48.2038,59.697 C47.9278,59.364 47.6388,58.912 47.6828,58.183 C45.4788,54.434 43.4888,50.419 39.1488,49.307 C38.5958,48.641 37.8428,48.358 36.9698,48.088 C36.6308,47.158 35.8518,46.637 35.1918,46.103 C35.2488,45.493 34.9848,45.28 34.8408,45.053 C35.0668,44.91 35.0288,44.552 34.9908,44.193 C37.9188,42.196 41.1788,39.923 43.5028,36.783 C45.5198,34.159 47.0778,30.616 48.7928,27.419 C49.5848,25.768 50.2568,24.128 50.8098,22.502 C52.6008,17.729 54.1538,10.688 52.5338,4.464 C52.2458,4.011 51.8498,3.692 51.5608,3.239 C49.1358,3.132 48.1998,4.557 46.0648,4.902 C45.6758,5.788 44.2308,5.818 43.9728,6.811 C42.0068,7.621 41.4668,9.367 39.7638,10.391 C37.4398,13.531 34.4428,16.018 32.7658,19.572 C29.6558,23.278 27.3248,27.504 25.1388,31.957 C25.3268,33.747 24.9878,35.11 24.7928,36.699 C24.8558,37.295 24.9058,37.773 25.0628,38.118 C24.3268,39.161 25.2378,42.082 24.1568,43.281 C24.1068,45.096 24.1508,48.954 23.0628,51.238 C23.0748,51.358 23.0878,51.477 23.0878,51.477 C22.8618,51.622 23.1128,51.716 23.0878,51.477 Z M10.8018,56.269 C10.7898,56.148 10.7898,56.148 10.7768,56.029 C10.8968,56.017 10.8848,55.897 10.8848,55.897 C11.2298,55.74 11.1848,56.468 10.8018,56.269 Z M10.1498,90.24 C10.1628,90.36 10.1628,90.36 10.2818,90.347 C10.2568,90.108 10.4948,90.083 10.4578,89.726 C10.0998,89.763 9.6858,90.41 10.0558,90.492 C10.0438,90.373 10.0308,90.252 10.1498,90.24 Z M9.2618,63.428 C9.3008,63.786 8.9538,63.943 8.8728,64.313 C9.2678,64.634 9.9908,63.472 9.2618,63.428 Z M8.4328,67.014 C8.4068,66.775 8.3698,66.417 8.1438,66.562 C8.1558,66.681 8.1688,66.8 8.1688,66.8 C8.2878,66.788 8.3008,66.908 8.4328,67.014 Z M7.9928,62.837 C8.3518,62.8 8.2698,63.171 8.6158,63.013 C9.2438,62.103 9.3828,61.123 9.6148,59.892 C10.7898,58.44 11.1918,55.381 12.5678,53.548 C12.4238,53.322 11.7888,53.027 12.1348,52.87 C12.3728,52.845 12.2788,53.096 12.5168,53.071 C13.6988,50.534 14.9618,47.626 15.9728,44.625 C16.9098,43.198 18.2348,40.887 17.9648,39.467 C18.2168,39.562 18.2408,39.801 18.4678,39.656 C18.7248,38.664 19.6988,37.597 19.4668,36.535 C19.5858,36.522 19.8238,36.498 20.0638,36.472 C19.9888,35.756 19.9638,35.517 20.1268,34.776 C15.7028,43.204 12.1408,51.784 8.8798,60.935 C8.5848,61.568 8.2888,62.203 7.9928,62.837 Z M7.6658,68.905 C7.5468,68.917 7.5338,68.798 7.5208,68.678 C7.6288,68.546 7.3778,68.452 7.5208,68.678 C7.0448,68.728 7.6088,69.514 7.6658,68.905 Z M6.5098,71.68 C6.5228,71.799 6.2968,71.944 6.5478,72.039 C6.5348,71.919 6.7608,71.774 6.5098,71.68 Z M6.3348,67.716 C6.3848,68.195 6.3028,68.565 6.7558,68.276 C6.6928,67.679 6.8818,67.177 6.3348,67.716 Z M5.6248,71.291 C5.2668,71.328 5.4428,70.706 5.5498,70.575 C5.7878,70.549 5.6128,71.172 5.6248,71.291 Z M15.9848,49.328 C15.8788,49.46 15.6528,49.605 15.4138,49.63 C15.5268,50.704 14.7728,50.421 15.1238,51.47 C15.0048,51.482 14.8728,51.376 14.6348,51.401 C14.7728,52.713 13.6288,53.315 13.6858,54.999 C13.3148,54.918 13.2078,55.049 12.9818,55.193 C13.0128,56.639 11.9068,57.6 11.9008,58.686 C11.9828,58.315 11.8508,58.208 11.6118,58.233 C11.7748,59.785 10.8838,60.482 10.7818,61.821 C10.2798,61.631 10.4118,61.738 10.0788,62.015 C10.0538,61.776 10.1358,61.405 9.8968,61.43 C9.9218,61.669 9.5078,62.316 9.8908,62.517 C9.9968,62.385 9.9598,62.027 10.0788,62.015 C9.9838,64.559 8.9478,65.03 8.9598,67.44 C7.9118,67.793 8.2248,68.483 7.9678,69.476 C7.4278,68.93 7.5908,70.48 7.1448,69.683 C6.8368,70.198 7.3518,70.505 7.4018,70.984 C6.8808,71.762 6.7678,72.981 6.8928,74.173 C6.1708,75.335 5.5668,76.485 5.3598,77.955 C5.2278,77.848 5.2398,77.968 5.0018,77.993 C5.2218,78.934 5.1138,79.066 4.5548,79.487 C5.3468,80.127 5.0448,81.849 4.1848,81.698 C4.7868,82.841 3.6498,84.649 4.3028,86.27 C3.9698,86.547 3.8008,86.081 3.7318,86.572 C3.7058,88.626 3.4428,90.705 3.9188,92.946 C10.6728,84.877 12.9158,72.937 16.2908,62.568 C17.6298,55.791 18.6608,49.53 19.5848,43.399 C19.6548,42.91 19.2958,42.947 19.3898,42.696 C19.4848,42.445 19.6978,42.181 19.5158,41.597 C19.2078,42.112 18.2218,43.06 18.2278,44.266 C17.2918,45.692 16.5128,47.462 15.9848,49.328 Z M6.2158,67.729 C6.1148,69.067 5.6058,69.965 5.1098,70.983 C4.6318,75.618 2.4448,80.071 2.1488,85.29 C1.7908,85.328 2.0798,85.78 2.1048,86.019 C1.8788,86.164 1.7838,86.415 1.8218,86.773 C2.3118,86.842 2.0098,86.269 2.1048,86.019 C2.3308,85.874 2.4128,85.503 2.1488,85.29 C3.2428,79.625 5.1348,73.514 6.7558,68.276 L6.8748,68.264 C7.0318,66.317 9.2308,64.275 7.7548,62.862 C7.7988,64.426 6.7688,66.103 6.3348,67.716 L6.2158,67.729 Z M51.2168,34.405 C49.1938,38.115 47.1698,41.827 43.5648,44.257 C43.2138,45.501 41.8188,46.01 40.3678,47.127 C44.9208,50.269 49.1408,53.687 51.2378,59.86 C52.1978,60.966 52.5248,61.775 52.7508,63.924 C53.3288,64.829 53.1768,65.689 53.6608,66.845 C53.7228,67.441 53.2468,67.492 53.4278,68.077 C54.0438,69.338 54.1438,70.293 53.6478,71.311 C53.5918,71.92 54.0558,71.751 53.9738,72.121 C53.9168,72.73 53.9548,73.087 54.1248,73.553 C53.8788,76.957 53.3568,80.028 52.6468,83.603 C52.2328,84.249 51.9118,84.645 52.1318,85.587 C51.4908,86.378 50.6738,87.791 50.6558,88.759 C50.3728,89.512 49.9458,90.039 49.2798,90.593 C49.3048,90.831 49.3428,91.189 49.4618,91.176 C47.7338,94.253 45.7418,97.117 43.6188,99.875 C43.3808,99.899 43.2478,99.793 43.0098,99.818 C42.6768,100.094 42.8588,100.678 42.7768,101.049 C37.4748,105.708 32.6768,110.557 24.0148,111.949 C23.7888,112.094 23.7508,111.737 23.7258,111.498 C22.6888,111.968 22.4128,111.635 21.2448,112 C14.5878,110.648 10.1598,106.408 7.5488,99.926 C7.8868,98.562 7.5608,97.752 7.7688,96.282 C7.3288,96.69 6.6498,97.124 5.8278,97.331 C2.5998,96.464 0.3448,94.529 -0.0002,90.101 C3.2638,69.488 11.7638,50.495 20.1638,32.842 C20.3658,30.167 20.1338,26.812 19.7958,23.59 C19.8768,23.22 19.5308,23.376 19.3998,23.27 C19.3748,23.031 19.7448,23.112 19.7198,22.874 C19.7458,20.82 18.8788,19.463 18.2128,17.724 C18.5588,15.274 22.4908,15.947 23.4768,17.291 C23.9408,19.414 25.1098,21.342 25.0018,23.768 C29.3868,17.273 33.9038,10.886 39.6078,5.46 C42.3218,3.727 44.7088,1.184 48.5398,0.902 C49.0048,0.732 48.9358,1.222 49.2938,1.184 C51.1658,0.626 52.8298,1.537 54.4308,1.852 C55.8378,3.754 57.6028,5.621 58.0918,7.981 C58.2928,12.184 58.0338,15.469 57.1348,19.544 C56.5698,21.052 56.6068,23.702 55.3578,24.438 C55.5898,25.498 54.3138,25.995 54.6348,27.891 C54.0508,28.074 54.2448,28.777 53.6608,28.959 C53.2648,30.931 52.2088,32.37 51.4178,34.021 C51.2168,34.405 51.0468,33.939 50.5818,34.109 C50.7268,34.335 50.9778,34.43 51.2168,34.405 Z" id="Fill-1" fill="#325C2A" mask="url(#mask-3)"></path>
                </g>
                <path d="M102.0508,56.7043 C102.1458,56.4543 102.5038,56.4163 102.4658,56.0583 C102.8488,56.2593 102.4218,56.7873 102.0508,56.7043 M102.6298,53.0243 C102.2838,53.1813 101.9258,53.2193 102.0828,53.5643 C102.3468,53.7783 102.5478,53.3953 102.6298,53.0243 M101.6368,57.3523 C101.8878,57.4453 101.8498,57.0873 102.3408,57.1573 C102.5088,57.6213 101.5798,57.9613 101.6368,57.3523 M88.1938,69.5033 C87.8228,69.4213 88.3818,69.0003 88.6208,68.9753 C88.6588,69.3343 88.1688,69.2643 88.1938,69.5033 M88.4768,66.4573 C88.1058,66.3753 88.0118,66.6253 87.9178,66.8773 C88.2758,66.8393 88.3698,66.5883 88.4768,66.4573 C88.5958,66.4443 88.7158,66.4323 88.8348,66.4193 C88.6458,66.9213 88.0628,67.1043 87.6098,67.3923 C87.5848,67.1543 88.1558,66.8523 87.5588,66.9143 C87.3708,67.4173 87.2078,68.1583 86.4288,67.6383 C86.3468,68.0083 86.0518,68.6423 86.5298,68.5923 C92.6228,64.5733 98.3638,59.5053 101.9768,53.6953 C97.7358,58.1233 93.8788,62.7513 88.8348,66.4193 C88.6908,66.1933 88.4508,66.2183 88.4768,66.4573 M87.0628,70.2253 C86.5978,70.3943 86.1338,70.5643 85.9448,71.0663 C86.3978,70.7773 86.9938,70.7143 87.0628,70.2253 M86.4418,70.0493 C85.9638,70.0993 85.4868,70.1493 85.6558,70.6143 C85.8828,70.4703 86.3598,70.4193 86.4418,70.0493 M73.4728,60.3123 C73.5098,60.6693 72.8768,60.3743 73.0458,60.8393 C73.1908,61.0653 73.9748,60.5003 73.4728,60.3123 M72.0968,62.1463 C72.0718,61.9073 72.4428,61.9883 72.4048,61.6303 C72.5238,61.6173 72.5368,61.7373 72.6558,61.7253 C72.7628,61.5923 72.7508,61.4743 72.7248,61.2353 C72.4868,61.2603 72.3798,61.3923 72.4048,61.6303 C72.0348,61.5493 71.8588,62.1713 72.0968,62.1463 M71.6768,59.2943 C70.6338,58.5583 70.9288,55.6333 70.5778,54.5833 C62.9658,57.9173 60.8918,65.7363 58.1578,73.0213 C63.9308,69.3983 67.2228,63.9853 71.6768,59.2943 M56.5938,73.0653 C56.7958,72.6833 57.1288,72.4063 57.0528,71.6903 C57.2918,71.6653 57.0408,71.5713 57.0528,71.6903 C56.8518,72.0733 56.3298,72.8523 56.5938,73.0653 M55.9668,73.9753 C56.2048,73.9513 56.3488,74.1773 56.5878,74.1523 C56.7768,73.6493 55.9418,73.7373 55.9668,73.9753 M76.3748,62.6613 C76.2298,62.4353 76.2548,62.6733 76.2668,62.7933 C75.8278,63.2013 74.8978,63.5403 75.0678,64.0063 C74.6528,64.6523 73.9368,64.7273 73.2718,65.2803 C68.7048,68.8963 63.5778,79.8123 56.3678,77.7953 C56.0408,76.9843 55.5008,76.4383 55.1878,75.7473 C55.1248,75.1503 54.7348,76.0353 54.6838,75.5583 C54.2638,74.9993 53.9628,74.4283 53.5418,73.8693 C54.3348,65.3403 58.2928,59.3733 62.0928,53.0613 C63.6258,51.5743 65.4908,49.8083 68.2368,49.5193 C70.9248,49.8413 74.1148,50.3503 74.9308,53.5223 C75.3578,55.2873 74.7678,56.5553 74.1768,57.8253 C75.1318,57.7253 76.1048,56.6573 77.6818,56.7333 C79.9168,57.3423 80.7398,61.7193 79.3518,63.4343 C80.6128,65.1113 78.7408,67.9623 79.7898,69.9043 C91.5228,66.7403 97.3148,57.5643 103.8548,49.7583 C103.6848,56.1713 97.5788,60.0703 93.8528,64.8063 C91.2718,66.6453 89.3938,68.2913 86.5478,69.9173 C86.8238,70.2503 87.2268,69.4843 87.7168,69.5533 C87.6348,69.9233 87.1448,69.8543 87.1818,70.2133 C91.8998,68.0273 94.5758,63.6443 98.5518,61.2953 C98.3948,60.9503 98.0878,61.4653 97.8358,61.3713 C98.0368,60.9873 98.3198,60.2343 98.6468,61.0443 C98.9168,60.1713 100.0788,58.6013 101.7118,58.0683 C97.2328,64.8123 91.1078,69.6793 83.6208,74.2063 C82.5588,74.4393 81.6858,74.1683 80.6118,74.2813 C78.7588,73.8723 78.0618,72.9813 77.0638,71.5173 C76.6938,69.1433 76.1848,65.4563 76.2668,62.7933 C76.3868,62.7813 76.3748,62.6613 76.3748,62.6613" id="Fill-4" fill="#325C2A"></path>
                <path d="M117.7153,56.5061 C118.0993,56.7081 118.0243,55.9911 117.7973,56.1351 C117.7973,56.1351 117.8103,56.2561 117.6903,56.2681 L117.7153,56.5061 Z M117.6593,54.8241 C117.6843,55.0611 117.4453,55.0861 117.6033,55.4321 C117.9863,55.6331 117.8863,54.6781 117.6593,54.8241 Z M117.4953,57.8561 C117.5213,58.0951 117.4133,58.2271 117.4393,58.4661 C117.7973,58.4291 117.9733,57.8061 117.4953,57.8561 Z M117.9923,56.8391 C117.6343,56.8761 117.1693,57.0471 117.3513,57.6311 C117.8283,57.5801 117.9103,57.2101 117.9923,56.8391 Z M112.4603,44.3901 C112.4223,44.0311 112.3033,44.0441 112.0653,44.0691 C112.0773,44.1881 112.0903,44.3081 112.1033,44.4271 C112.2223,44.4151 112.3413,44.4021 112.4603,44.3901 Z M110.3563,48.4711 C110.4253,47.9821 110.6133,47.4801 111.2103,47.4171 C110.7583,47.7071 110.6893,48.1951 110.3563,48.4711 Z M109.3823,49.5401 C109.7273,49.3831 109.6643,48.7861 110.1423,48.7361 C110.3233,49.3201 109.6473,49.7541 109.3823,49.5401 Z M109.2563,50.6391 L109.2813,50.8771 C109.1623,50.8901 109.0433,50.9021 108.9233,50.9151 L108.8983,50.6761 C109.0183,50.6641 109.1373,50.6521 109.2563,50.6391 Z M109.8973,47.5551 C109.5393,47.5931 109.3263,47.8571 109.3763,48.3341 C109.0183,48.3711 109.1003,48.0011 108.6353,48.1701 C108.5093,49.2691 110.2363,48.4841 109.8973,47.5551 Z M108.2003,52.0771 C108.0193,51.4931 108.7473,51.5361 108.5653,50.9521 C109.1623,50.8901 108.6783,52.0271 108.2003,52.0771 Z M107.9313,50.6581 C107.8683,50.0611 108.0943,49.9171 108.5973,50.1041 C108.5023,50.3561 108.4083,50.6081 107.9313,50.6581 Z M111.1853,47.1781 C111.1723,47.0591 111.0533,47.0711 111.0403,46.9521 C111.0033,46.5951 111.4803,46.5451 111.8253,46.3871 C111.7873,46.0281 112.2023,45.3821 111.8193,45.1811 C111.7373,45.5521 111.5563,44.9661 111.2233,45.2441 C110.8593,46.3681 109.8093,46.7201 108.7603,47.0701 C108.6923,47.5611 109.1443,47.2721 109.1813,47.6311 C108.9433,47.6551 108.7293,47.9201 108.6353,48.1701 C107.9063,48.1271 107.8623,48.8551 107.6613,49.2371 C108.2333,48.9371 109.0683,48.8491 108.7733,49.4831 C108.3773,49.1621 108.0443,49.4381 107.3283,49.5131 C107.3653,49.8721 107.5483,50.4561 107.0453,50.2671 C107.0013,50.9961 107.6923,50.6831 107.8623,51.1471 C107.5163,51.3031 107.4793,50.9461 107.1333,51.1031 C107.0513,51.4741 106.8383,51.7371 106.7443,51.9891 C107.6163,52.2581 107.0383,51.3541 107.7803,51.5181 C107.5793,51.9011 107.6293,52.3781 107.2833,52.5351 C107.2583,52.2961 106.7943,52.4651 106.6623,52.3591 C106.5803,52.7301 107.0013,53.2891 106.7623,53.3141 C106.5113,53.2191 106.1163,52.8991 106.0463,53.3891 C106.9073,53.5401 106.4673,53.9481 106.2913,54.5701 C107.8303,54.2881 106.8883,52.2141 108.8223,52.2521 C108.9043,51.8821 109.1063,51.4991 109.5823,51.4491 C109.2563,50.6391 110.2923,50.1681 110.8523,49.7471 C110.9713,47.4421 113.2583,46.2361 113.5603,44.5161 C113.0693,44.4461 113.2273,44.7911 112.9873,44.8161 C112.9753,44.6971 112.9633,44.5791 112.9503,44.4591 C112.4983,44.7471 112.3283,44.2831 112.2603,44.7721 C112.3913,44.8791 112.6423,44.9741 112.9873,44.8161 C112.2153,45.5021 112.2343,46.8271 111.1853,47.1781 Z M105.9213,54.4881 C105.8263,54.7391 106.1843,54.7021 106.1153,55.1911 C106.8183,54.9971 106.1723,54.5831 105.9213,54.4881 Z M115.0233,43.5171 C116.2033,43.2731 116.8513,43.6861 117.6053,43.9691 C117.6173,44.0891 117.3783,44.1151 117.2593,44.1281 C118.4453,45.0891 120.0413,46.4891 119.5013,48.2341 C119.6573,48.5801 120.0473,47.6951 120.4553,48.1341 C120.5063,48.6121 120.1603,48.7691 120.3423,49.3531 C120.1153,49.4971 119.9723,49.2711 119.5193,49.5601 C120.0223,49.7481 119.8963,50.8471 120.2033,50.3321 C120.7323,50.7601 119.8273,51.3381 119.7453,51.7081 C120.1033,51.6701 120.0773,51.4321 120.4483,51.5141 C119.5943,52.5681 120.1033,53.9631 119.2743,55.2561 C119.2863,55.3771 119.6443,55.3391 119.8833,55.3141 C118.9083,58.6731 119.9513,61.7011 121.3823,63.8431 C120.9803,64.6091 120.3203,64.0761 119.7363,64.2571 C113.8083,60.6571 117.1823,52.5811 115.5263,45.9981 C113.7403,47.3931 113.2643,49.7351 111.5993,51.1161 C110.5623,53.8801 109.2873,56.6671 107.6033,59.0161 C105.7243,62.9541 104.8323,68.2361 99.8693,69.2411 C96.1273,68.0661 96.5053,62.4761 97.7303,59.2101 C98.0573,55.4361 99.1623,52.1811 100.0173,48.8361 C101.5813,48.7921 103.7303,48.5661 104.9663,50.0041 C104.5583,51.8561 103.7413,53.2701 103.4523,55.1101 C104.7833,54.0051 105.0483,51.9251 106.3793,50.8211 C108.3213,47.4791 109.4773,42.4111 114.5903,42.8381 C114.7353,43.0651 114.9863,43.1591 115.0233,43.5171 Z" id="Fill-6" fill="#325C2A"></path>
                <path d="M145.2827,53.6086 C145.6657,53.8106 145.5907,53.0936 145.3647,53.2376 C145.3647,53.2376 145.3767,53.3586 145.2577,53.3706 L145.2827,53.6086 Z M145.2257,51.9266 C145.2517,52.1636 145.0117,52.1886 145.1697,52.5346 C145.5537,52.7356 145.4527,51.7806 145.2257,51.9266 Z M145.0617,54.9586 C145.0877,55.1976 144.9807,55.3296 145.0067,55.5686 C145.3637,55.5316 145.5397,54.9086 145.0617,54.9586 Z M145.5587,53.9416 C145.2007,53.9786 144.7367,54.1496 144.9187,54.7336 C145.3947,54.6826 145.4767,54.3126 145.5587,53.9416 Z M140.0277,41.4926 C139.9897,41.1336 139.8707,41.1466 139.6317,41.1716 C139.6437,41.2906 139.6567,41.4106 139.6697,41.5296 C139.7897,41.5176 139.9087,41.5046 140.0277,41.4926 Z M137.9237,45.5736 C137.9927,45.0846 138.1797,44.5826 138.7767,44.5196 C138.3247,44.8096 138.2557,45.2986 137.9237,45.5736 Z M136.9487,46.6426 C137.2947,46.4856 137.2317,45.8886 137.7097,45.8386 C137.8907,46.4226 137.2137,46.8566 136.9487,46.6426 Z M136.8227,47.7416 L136.8477,47.9796 C136.7287,47.9926 136.6097,48.0046 136.4907,48.0176 L136.4657,47.7786 C136.5847,47.7666 136.7037,47.7546 136.8227,47.7416 Z M137.4647,44.6576 C137.1057,44.6956 136.8927,44.9596 136.9427,45.4366 C136.5847,45.4736 136.6667,45.1046 136.2017,45.2726 C136.0767,46.3716 137.8037,45.5866 137.4647,44.6576 Z M135.7677,49.1796 C135.5857,48.5956 136.3147,48.6396 136.1327,48.0546 C136.7287,47.9926 136.2457,49.1296 135.7677,49.1796 Z M135.4987,47.7606 C135.4347,47.1636 135.6617,47.0196 136.1647,47.2066 C136.0697,47.4586 135.9747,47.7106 135.4987,47.7606 Z M138.7527,44.2806 C138.7397,44.1616 138.6207,44.1736 138.6077,44.0546 C138.5697,43.6976 139.0477,43.6476 139.3927,43.4896 C139.3547,43.1306 139.7697,42.4846 139.3867,42.2836 C139.3047,42.6546 139.1227,42.0696 138.7907,42.3466 C138.4257,43.4706 137.3767,43.8226 136.3277,44.1726 C136.2587,44.6636 136.7107,44.3746 136.7487,44.7336 C136.5097,44.7576 136.2967,45.0226 136.2017,45.2726 C135.4727,45.2296 135.4287,45.9576 135.2277,46.3396 C135.7997,46.0396 136.6357,45.9516 136.3397,46.5856 C135.9437,46.2646 135.6117,46.5406 134.8947,46.6156 C134.9327,46.9746 135.1147,47.5586 134.6127,47.3696 C134.5687,48.0986 135.2597,47.7856 135.4287,48.2496 C135.0837,48.4056 135.0457,48.0486 134.6997,48.2056 C134.6187,48.5766 134.4047,48.8396 134.3107,49.0916 C135.1837,49.3606 134.6057,48.4566 135.3467,48.6206 C135.1457,49.0036 135.1957,49.4806 134.8507,49.6386 C134.8257,49.3996 134.3607,49.5676 134.2287,49.4616 C134.1467,49.8326 134.5677,50.3916 134.3297,50.4166 C134.0787,50.3216 133.6827,50.0016 133.6137,50.4916 C134.4737,50.6426 134.0337,51.0506 133.8587,51.6726 C135.3967,51.3906 134.4557,49.3166 136.3897,49.3556 C136.4707,48.9846 136.6727,48.6016 137.1497,48.5516 C136.8227,47.7416 137.8597,47.2706 138.4187,46.8506 C138.5387,44.5446 140.8247,43.3386 141.1267,41.6186 C140.6367,41.5486 140.7937,41.8936 140.5547,41.9186 C140.5427,41.7996 140.5297,41.6816 140.5167,41.5616 C140.0647,41.8496 139.8957,41.3856 139.8267,41.8746 C139.9587,41.9816 140.2097,42.0766 140.5547,41.9186 C139.7827,42.6046 139.8017,43.9296 138.7527,44.2806 Z M133.4877,51.5916 C133.3927,51.8416 133.7517,51.8046 133.6817,52.2936 C134.3857,52.0996 133.7387,51.6856 133.4877,51.5916 Z M142.5907,40.6196 C143.7707,40.3756 144.4177,40.7896 145.1717,41.0716 C145.1837,41.1916 144.9457,41.2176 144.8257,41.2306 C146.0127,42.1916 147.6077,43.5916 147.0677,45.3366 C147.2237,45.6826 147.6147,44.7976 148.0227,45.2366 C148.0727,45.7146 147.7267,45.8716 147.9097,46.4556 C147.6827,46.6006 147.5387,46.3736 147.0867,46.6626 C147.5887,46.8506 147.4627,47.9506 147.7707,47.4356 C148.2987,47.8626 147.3937,48.4406 147.3117,48.8106 C147.6707,48.7726 147.6447,48.5346 148.0157,48.6166 C147.1617,49.6706 147.6707,51.0656 146.8417,52.3586 C146.8527,52.4796 147.2117,52.4416 147.4497,52.4166 C146.4757,55.7756 147.5177,58.8036 148.9497,60.9456 C148.5477,61.7116 147.8877,61.1786 147.3037,61.3596 C141.3757,57.7596 144.7497,49.6836 143.0927,43.1006 C141.3077,44.4956 140.8307,46.8376 139.1657,48.2186 C138.1297,50.9826 136.8537,53.7706 135.1707,56.1186 C133.2917,60.0566 132.3987,65.3386 127.4367,66.3436 C123.6937,65.1686 124.0717,59.5786 125.2967,56.3126 C125.6247,52.5386 126.7297,49.2836 127.5847,45.9386 C129.1477,45.8946 131.2967,45.6686 132.5337,47.1066 C132.1247,48.9596 131.3077,50.3726 131.0187,52.2126 C132.3507,51.1076 132.6147,49.0276 133.9467,47.9236 C135.8877,44.5816 137.0447,39.5136 142.1567,39.9406 C142.3017,40.1676 142.5527,40.2616 142.5907,40.6196 Z" id="Fill-8" fill="#325C2A"></path>
                <path d="M164.1372,60.7966 C164.6962,60.3766 165.0302,60.1006 165.6882,60.6336 C165.9022,60.3706 165.3742,59.9426 165.8522,59.8926 C166.6872,59.8046 168.0572,59.0586 168.7232,58.5046 C167.0332,59.6486 164.7022,59.2896 163.3462,60.1556 C163.7162,60.2386 164.1562,59.8296 164.1372,60.7966 M164.1782,40.5226 C162.3122,42.2876 160.6982,44.1466 159.3602,46.3386 C163.0842,43.8956 166.4132,41.1316 168.3052,37.3136 C166.3642,38.3616 164.0392,39.2106 163.0232,41.0056 C163.5112,41.0756 163.7702,40.0836 164.1782,40.5226 M170.6582,42.4946 C169.6032,46.2266 166.3182,48.2606 163.9442,50.9226 C161.7262,51.6396 159.1452,53.4786 156.8332,52.1536 C155.7092,54.0816 155.8162,56.2416 155.4942,58.9306 C160.7512,61.8776 167.4352,56.5896 172.2832,54.5106 C174.8662,52.6716 177.6862,50.8066 180.6522,49.1666 C180.9592,48.6526 181.6612,48.4586 181.9832,48.0636 C182.4532,49.0986 180.0102,49.9586 179.2632,50.8826 C179.2872,51.1206 179.5142,50.9766 179.7522,50.9516 C176.7252,54.2856 173.2132,56.4646 168.9612,58.4796 C169.7962,58.3926 171.5862,58.2036 172.5972,57.4956 C172.5412,58.1036 172.0762,58.2736 171.6242,58.5626 C171.6492,58.8016 172.3272,58.3676 172.1392,58.8696 C170.7572,59.4986 169.5952,61.0676 168.8282,60.6656 C168.2572,60.9676 168.7592,61.1546 168.5582,61.5386 C165.4872,63.3096 163.4402,64.4896 159.2622,64.9286 C153.4082,64.3386 152.1032,58.8046 152.2802,53.5976 C153.7382,46.8076 157.6272,39.0396 163.8522,35.1276 C164.9832,34.4056 166.4402,34.4936 167.6332,34.3676 C168.6002,34.3866 168.9142,35.0776 169.7622,35.1096 C170.1522,36.5166 171.1812,37.1316 172.1052,37.8796 C171.9602,39.9456 172.4552,41.2216 170.6582,42.4946" id="Fill-10" fill="#325C2A"></path>
                <g id="Group-14" transform="translate(181.000000, 32.134000)">
                    <mask id="mask-5" fill="white">
                        <use xlink:href="#path-4"></use>
                    </mask>
                    <g id="Clip-13"></g>
                    <path d="M23.7222,2.6792 C24.1872,2.5102 24.7842,2.4472 24.8402,1.8382 C24.4952,1.9942 24.2682,2.1392 23.9102,2.1772 C23.9362,2.4162 23.8292,2.5472 23.7222,2.6792 M23.6032,2.6922 C23.1012,2.5032 22.4102,2.8172 22.8302,3.3762 C23.3082,3.3262 23.3892,2.9552 23.6032,2.6922 M20.4502,2.5402 L20.4622,2.6592 C20.3432,2.6722 20.2112,2.5652 20.4502,2.5402 M22.2722,3.7972 C22.1152,3.4512 22.6602,2.9122 22.0762,3.0932 C21.4482,4.0042 20.3052,4.6072 19.6772,5.5172 C20.7392,5.2852 21.3172,3.8972 22.2722,3.7972 M19.6902,5.6372 C19.3572,5.9132 18.4142,6.1332 18.8232,6.5722 C19.1562,6.2972 19.6202,6.1272 19.6902,5.6372 M18.3012,7.3502 C18.1822,7.3632 18.0632,7.3752 17.9432,7.3882 C18.1382,8.0922 16.9572,8.3382 17.4852,8.7642 C17.6722,8.2622 18.3762,8.0672 18.3012,7.3502 M16.4982,9.7122 C16.4862,9.5932 16.4602,9.3542 16.2352,9.4992 C16.2462,9.6182 16.2722,9.8572 16.3912,9.8452 C16.3912,9.8452 16.3782,9.7242 16.4982,9.7122 M21.8572,2.1512 C21.4102,1.3532 22.7992,1.9322 22.8302,1.0832 C22.0212,1.4092 21.3172,1.6052 20.9472,1.5222 C14.7842,6.0322 10.1862,12.7892 7.3072,19.8482 C10.8572,13.4432 14.8032,7.3572 20.4622,2.6592 C21.3102,2.6922 21.2352,1.9762 21.8572,2.1512 M27.6102,1.7872 C23.9542,3.7412 21.6802,7.3572 18.4772,9.0222 C18.3512,10.1212 17.9612,11.0072 17.0322,11.3452 C13.9792,16.7342 10.9122,22.0032 8.6382,27.9122 C8.5692,30.6952 7.4322,32.5052 5.2512,33.5782 C-1.0038,31.4602 1.4662,21.6692 1.4982,16.2362 C2.4042,13.3662 2.0832,9.1762 3.1702,6.8912 C8.5472,7.5312 6.9882,13.3672 6.7932,17.2482 C9.0992,12.7832 12.1962,8.9582 15.2812,5.0142 C18.2142,1.9312 25.9282,-2.7408 29.3812,2.5672 C28.8672,2.2602 28.2322,1.9642 27.6102,1.7872" id="Fill-12" fill="#325C2A" mask="url(#mask-5)"></path>
                </g>
            </g>
        </g>
    </g>
</svg>