<?xml version="1.0" encoding="UTF-8"?>
<svg width="145px" height="162px" viewBox="0 0 145 162" version="1.1" xmlns="http://www.w3.org/2000/svg" xmlns:xlink="http://www.w3.org/1999/xlink">
    <!-- Generator: Sketch 51.3 (57544) - http://www.bohemiancoding.com/sketch -->
    <title>index_word_App</title>
    <desc>Created with Sketch.</desc>
    <defs>
        <filter x="-1.7%" y="-1.6%" width="103.4%" height="106.3%" filterUnits="objectBoundingBox" id="filter-1">
            <feOffset dx="0" dy="5" in="SourceAlpha" result="shadowOffsetOuter1"></feOffset>
            <feColorMatrix values="0 0 0 0 1   0 0 0 0 1   0 0 0 0 1  0 0 0 1 0" type="matrix" in="shadowOffsetOuter1" result="shadowMatrixOuter1"></feColorMatrix>
            <feMerge>
                <feMergeNode in="shadowMatrixOuter1"></feMergeNode>
                <feMergeNode in="SourceGraphic"></feMergeNode>
            </feMerge>
        </filter>
        <polygon id="path-2" points="0 0.937168153 87.031094 0.937168153 87.031094 118.1007 0 118.1007"></polygon>
        <polygon id="path-4" points="0.722883822 0.159757595 40.3316766 0.159757595 40.3316766 113 0.722883822 113"></polygon>
        <polygon id="path-6" points="0.761983822 0.951313342 40.37 0.951313342 40.37 113.791785 0.761983822 113.791785"></polygon>
    </defs>
    <g id="Page-1" stroke="none" stroke-width="1" fill="none" fill-rule="evenodd">
        <g id="A4" transform="translate(-295.000000, -343.000000)">
            <g id="index_word_App" filter="url(#filter-1)" transform="translate(295.000000, 342.000000)">
                <g id="Group-3" transform="translate(0.000000, 0.063000)">
                    <mask id="mask-3" fill="white">
                        <use xlink:href="#path-2"></use>
                    </mask>
                    <g id="Clip-2"></g>
                    <path d="M84.966,46.7297 C85.111,46.8467 85.388,46.9517 85.651,46.9237 C85.726,46.3847 85.229,46.7017 84.952,46.5987 C84.911,46.2047 84.31,46.7987 84.952,46.5987 L84.966,46.7297 Z M80.42,46.4117 L80.551,46.3977 C80.565,46.5287 80.447,46.6737 80.42,46.4117 Z M76.156,47.5227 C75.894,47.5507 75.5,47.5917 75.673,47.9727 C75.935,47.9447 76.053,47.7987 76.156,47.5227 Z M69.876,47.1217 C70.008,47.1077 70.139,47.0947 70.125,46.9627 C69.994,46.9767 69.862,46.9897 69.876,47.1217 Z M69.213,45.8637 C69.434,45.4427 69.593,45.6907 70.118,45.6357 C70.146,45.8987 70.015,45.9127 70.042,46.1747 C69.883,45.9267 69.724,45.6777 69.213,45.8637 Z M68.957,47.2187 C68.722,47.5077 69.468,47.0317 69.337,47.0447 C69.192,46.9267 68.957,47.2187 68.957,47.2187 Z M69.068,45.7467 C69.081,45.8767 68.819,45.9047 68.556,45.9327 C68.674,45.7877 68.937,45.7607 69.068,45.7467 Z M67.624,48.4197 L67.637,48.5507 C67.506,48.5647 67.361,48.4477 67.624,48.4197 Z M67.362,45.9257 C67.375,46.0567 67.112,46.0837 66.981,46.0987 C66.967,45.9677 67.23,45.9397 67.362,45.9257 Z M66.836,45.9807 C66.85,46.1117 66.718,46.1257 66.588,46.1397 C66.574,46.0087 66.705,45.9947 66.836,45.9807 Z M66.456,48.6747 C66.339,48.8197 66.193,48.7027 66.221,48.9667 C66.339,48.8197 66.484,48.9387 66.456,48.6747 Z M65.488,47.0517 C65.62,47.0377 65.882,47.0107 65.868,46.8797 C65.737,46.8937 65.475,46.9207 65.488,47.0517 Z M65.143,48.8127 C65.171,49.0767 64.894,48.9717 64.777,49.1177 C64.749,48.8547 65.025,48.9577 65.143,48.8127 Z M63.61,46.8507 C63.492,46.9967 63.478,46.8647 63.347,46.8777 C63.32,46.6167 63.582,46.5887 63.61,46.8507 Z M63.333,49.2697 L63.36,49.5317 C63.36,49.5317 63.229,49.5457 63.098,49.5597 L63.07,49.2977 C63.201,49.2837 63.333,49.2697 63.333,49.2697 Z M58.846,107.6107 C59.164,108.1087 59.012,109.1877 59.564,109.3947 C59.233,108.7657 59.399,107.8187 58.846,107.6107 Z M57.507,102.4427 C57.887,102.2697 57.458,103.2447 57.852,103.2037 C58.232,103.0297 57.714,101.8897 57.507,102.4427 Z M57.362,99.8027 C57.348,99.6717 57.306,99.2777 57.057,99.4377 C57.071,99.5687 57.071,99.5687 57.085,99.6997 C57.217,99.6867 57.231,99.8167 57.362,99.8027 Z M68.017,48.3787 C68.059,48.7727 67.81,48.9317 68.348,49.0077 C68.729,48.8347 68.701,48.5717 68.674,48.3097 C69.067,48.2687 68.757,49.0977 69.254,48.7797 C69.302,47.9777 70.525,48.2477 70.947,48.4697 C74.167,46.2717 81.097,47.8007 84.02,46.5637 C83.888,46.5787 83.758,46.5917 83.744,46.4597 C83.992,46.3007 83.716,46.1977 83.744,46.4597 C82.755,45.9007 81.484,46.4317 80.551,46.3977 C80.669,46.2517 80.799,46.2387 80.786,46.1077 C79.778,46.6117 78.644,45.9337 77.78,46.5557 C77.649,46.5697 77.635,46.4387 77.622,46.3077 C74.761,46.8727 72.502,46.8457 68.984,47.4797 C68.605,47.6537 68.681,47.1137 68.418,47.1417 C64.998,48.6957 61.122,48.4397 57.004,49.6687 C57.48,50.4157 56.706,50.6287 57.418,51.0847 C59.332,50.3527 61.405,49.8707 63.388,49.7937 C63.257,49.8087 63.374,49.6637 63.374,49.6637 C63.955,50.1337 64.016,49.4627 64.397,49.2907 C65.37,49.7187 67.444,49.2357 67.637,48.5507 C67.768,48.5367 67.886,48.3927 68.017,48.3787 Z M57.22,76.9897 L57.248,77.2507 C57.117,77.2647 56.985,77.2787 56.985,77.2787 L56.958,77.0177 C56.958,77.0177 57.09,77.0027 57.22,76.9897 Z M56.955,97.1917 C56.582,96.1687 57.142,95.1807 56.679,94.5657 C56.665,94.4357 56.519,94.3167 56.388,94.3307 C56.499,95.3807 56.478,96.4457 56.823,97.2057 C56.775,98.0077 57.169,97.9657 56.955,97.1917 Z M56.564,35.3807 C56.633,36.0357 56.356,35.9327 56.307,36.7337 C56.846,36.8107 56.854,35.6157 56.564,35.3807 Z M56.168,92.2297 C56.367,92.8737 56.264,93.1487 56.347,93.9377 C57.004,93.8687 56.575,92.3207 56.168,92.2297 Z M56.452,44.4177 C56.424,44.1547 56.528,43.8797 56.134,43.9207 L56.161,44.1827 C56.292,44.1687 56.306,44.3007 56.452,44.4177 Z M56.162,39.1377 C56.045,39.2847 55.941,39.5607 56.217,39.6637 C56.203,39.5327 56.321,39.3877 56.294,39.1247 C56.542,38.9657 56.279,38.9937 56.294,39.1247 L56.162,39.1377 Z M56.034,60.6537 C55.813,61.0757 56.615,61.1257 56.442,60.7447 C56.311,60.7577 56.297,60.6257 56.034,60.6537 Z M56.293,88.3687 C56.265,88.1057 56.251,87.9747 55.989,88.0027 C56.016,88.2647 56.044,88.5267 56.175,88.5127 C56.161,88.3817 56.161,88.3817 56.293,88.3687 Z M56.222,51.0787 C56.209,50.9477 56.195,50.8157 56.195,50.8157 C56.064,50.8297 56.064,50.8297 55.932,50.8437 C55.932,50.8437 55.946,50.9757 55.96,51.1057 C56.091,51.0927 56.091,51.0927 56.222,51.0787 Z M55.918,55.7557 C55.814,56.0317 56.38,56.3707 56.47,55.9627 C56.208,55.9907 56.298,55.5837 55.918,55.7557 Z M56.389,91.8097 C56.202,91.2977 56.79,90.5717 56.105,90.3797 C56.154,89.5777 55.567,90.3027 56.105,90.3797 C56.32,91.1527 55.85,91.7327 56.389,91.8097 Z M55.825,71.2947 C56.247,71.5167 56.295,70.7147 55.916,70.8877 C55.929,71.0197 55.929,71.0197 55.798,71.0327 L55.825,71.2947 Z M55.787,53.2487 C55.932,53.3657 55.842,53.7727 56.104,53.7447 C56.222,53.6007 56.181,53.2067 55.787,53.2487 Z M56.159,54.2707 C55.897,54.2977 55.634,54.3257 55.648,54.4567 C55.911,54.4287 55.821,54.8367 56.215,54.7957 C56.187,54.5327 56.173,54.4007 56.159,54.2707 Z M55.602,84.3267 C55.699,85.2457 55.63,87.1097 56.092,87.7247 C56.141,86.9237 56.341,85.0447 55.602,84.3267 Z M56.071,44.5897 C55.402,44.5277 55.498,45.4467 56.023,45.3917 C56.127,45.1147 56.113,44.9837 56.071,44.5897 Z M55.548,83.8017 C55.678,83.7877 55.837,84.0367 55.809,83.7737 C55.796,83.6417 55.533,83.6697 55.548,83.8017 Z M55.527,82.3427 C55.685,82.5917 55.492,83.2757 55.754,83.2487 C55.582,82.8687 56.315,82.2607 55.527,82.3427 Z M55.53,62.1677 C55.412,62.3127 55.247,63.2597 55.64,63.2177 C55.467,62.8387 55.951,62.3887 55.53,62.1677 Z M55.297,94.0477 C55.456,94.2967 55.352,94.5727 55.629,94.6767 C55.456,94.2967 55.939,93.8467 55.297,94.0477 Z M55.3,71.3507 C55.632,71.9797 55.031,72.5737 55.452,72.7947 C55.659,72.2417 55.867,71.6887 55.3,71.3507 Z M55.286,71.2197 C55.418,71.2057 55.681,71.1777 55.667,71.0467 C55.535,71.0607 55.273,71.0887 55.286,71.2197 Z M55.658,79.8077 C55.555,77.5617 55.728,75.4197 55.273,73.6097 C55.389,75.9857 54.995,78.5497 55.755,80.7267 C55.99,80.4367 55.583,80.3467 55.658,79.8077 Z M55.453,67.7497 C55.287,68.6977 55.397,69.7477 55.245,70.8247 C55.978,70.2177 55.681,68.6557 55.453,67.7497 Z M55.212,22.5157 C55.342,22.5007 55.37,22.7627 55.474,22.4877 C55.46,22.3557 55.198,22.3837 55.212,22.5157 Z M55.207,50.2557 C55.338,50.2427 55.469,50.2287 55.456,50.0977 C55.324,50.1117 55.193,50.1257 55.207,50.2557 Z M55.416,42.1367 C55.388,41.8757 55.375,41.7437 55.112,41.7717 C55.139,42.0337 55.167,42.2957 55.298,42.2817 C55.284,42.1507 55.27,42.0207 55.416,42.1367 Z M55.117,92.3407 C55,92.4857 55.186,92.9977 55.463,93.1017 C55.304,92.8527 55.497,92.1677 55.117,92.3407 Z M55.097,5.0057 C55.518,5.2277 55.435,4.4387 55.173,4.4667 C55.186,4.5997 55.2,4.7297 55.069,4.7437 C55.069,4.7437 55.083,4.8747 55.097,5.0057 Z M55.159,90.2127 C54.924,90.5037 55.111,91.0147 55.387,91.1187 C55.228,90.8687 55.422,90.1847 55.159,90.2127 Z M54.951,56.6537 C54.86,57.0617 55.006,57.1787 55.282,57.2837 C55.254,57.0197 55.33,56.4807 54.951,56.6537 Z M55.01,24.3937 C55.494,23.9457 54.458,24.1877 55.01,24.3937 C54.948,25.0647 55.549,24.4697 55.01,24.3937 Z M54.814,86.9317 C54.766,87.7317 54.717,88.5337 55.063,89.2937 C55.111,88.4927 55.263,87.4157 54.814,86.9317 Z M54.572,83.3727 C54.704,83.3587 54.835,83.3447 54.821,83.2127 C54.704,83.3587 54.559,83.2407 54.572,83.3727 Z M54.492,25.7757 C54.755,25.7487 54.782,26.0107 54.886,25.7347 C54.872,25.6037 54.61,25.6317 54.492,25.7757 Z M55.17,63.7977 C54.762,63.7087 55.191,62.7337 54.68,62.9207 C54.721,63.3147 54.459,63.3427 54.369,63.7497 C54.632,63.7217 55.08,64.2057 55.17,63.7977 Z M54.581,27.8907 C54.609,28.1527 54.202,28.0627 54.374,28.4417 C54.782,28.5317 55.03,28.3737 55.134,28.0977 C55.003,28.1117 54.858,27.9937 54.713,27.8767 C54.844,27.8627 54.844,27.8627 54.975,27.8487 C54.906,27.1927 54.734,26.8127 54.81,26.2737 C54.692,26.4187 54.429,26.4457 54.299,26.4597 C54.617,26.9567 54.264,27.3927 54.713,27.8767 L54.581,27.8907 Z M54.551,89.4807 C54.538,89.3487 54.524,89.2177 54.524,89.2177 C54.392,89.2317 54.261,89.2457 54.261,89.2457 C54.261,89.2457 54.275,89.3757 54.289,89.5077 C54.289,89.5077 54.42,89.4947 54.551,89.4807 Z M54.449,74.6247 C54.436,74.4937 54.712,74.5967 54.685,74.3347 C54.934,74.1767 54.671,74.2047 54.685,74.3347 C54.408,74.2317 53.924,74.6797 54.449,74.6247 Z M54.201,77.3067 C54.228,77.5687 54.387,77.8177 54.65,77.7897 C54.767,77.6447 54.712,77.1187 54.201,77.3067 Z M54.096,40.9487 C54.165,41.6047 53.958,42.1577 54.276,42.6557 C54.234,42.2617 54.621,40.8937 54.096,40.9487 Z M54.282,43.9817 C54.123,43.7327 54.227,43.4567 53.833,43.4987 C53.847,43.6297 53.861,43.7607 53.874,43.8917 C54.006,43.8777 54.151,43.9957 54.282,43.9817 Z M54.123,46.2547 C54.109,46.1247 54.095,45.9927 54.081,45.8617 C53.95,45.8757 53.95,45.8757 53.819,45.8887 C53.833,46.0197 53.847,46.1517 53.861,46.2827 C53.991,46.2687 53.991,46.2687 54.123,46.2547 Z M53.899,61.8077 C53.547,62.2437 54.003,64.0537 53.982,62.5957 C54.217,62.3057 54.32,62.0297 53.899,61.8077 Z M53.653,7.6797 C53.68,7.9427 53.576,8.2187 53.97,8.1767 C53.942,7.9157 53.797,7.7977 53.653,7.6797 Z M54.008,70.4247 C53.994,70.2927 53.98,70.1617 53.98,70.1617 C53.849,70.1757 53.718,70.1887 53.587,70.2037 C53.587,70.2037 53.601,70.3337 53.614,70.4657 C53.746,70.4517 53.877,70.4377 54.008,70.4247 Z M53.774,68.1927 C53.083,69.1947 54.534,67.8467 53.759,68.0627 L53.774,68.1927 Z M53.675,35.6837 C53.82,35.8007 53.82,35.8007 53.848,36.0637 C53.716,36.0777 53.426,35.8427 53.675,35.6837 Z M53.293,53.5107 C53.555,53.4827 53.569,53.6137 53.686,53.4687 C53.658,53.2057 53.396,53.2327 53.293,53.5107 Z M53.204,85.5077 C53.232,85.7697 53.156,86.3087 53.536,86.1367 C53.626,85.7287 53.467,85.4797 53.204,85.5077 Z M53.272,54.5737 C53.237,55.5067 53.057,56.3217 53.022,57.2537 C53.361,56.6877 53.865,55.1747 53.272,54.5737 Z M52.98,61.9037 C53.111,61.8907 53.139,62.1537 53.243,61.8767 C53.229,61.7457 52.966,61.7727 52.98,61.9037 Z M52.904,59.9217 C52.932,60.1847 52.96,60.4467 53.208,60.2877 C53.181,60.0257 53.036,59.9077 52.904,59.9217 Z M52.846,79.5717 C52.978,79.5587 53.24,79.5307 53.226,79.3997 C53.109,79.5437 52.832,79.4407 52.846,79.5717 Z M52.91,68.8137 C53.069,69.0627 52.441,69.3947 52.979,69.4707 C52.966,69.3397 53.304,68.7727 52.91,68.8137 Z M52.802,47.5887 C52.976,47.9677 52.713,47.9957 52.45,48.0227 C52.437,47.8927 52.554,47.7477 52.54,47.6157 C52.672,47.6027 52.802,47.5887 52.802,47.5887 Z M52.699,89.5417 C52.16,89.4657 52.409,89.3077 52.368,88.9137 C52.906,88.9897 52.658,89.1487 52.699,89.5417 Z M52.575,88.3607 C52.182,88.4027 52.361,87.5867 52.188,87.2077 C52.479,87.4407 52.81,88.0697 52.575,88.3607 Z M52.666,85.4317 C52.679,85.5627 52.285,85.6047 52.023,85.6317 C52.099,85.0917 52.127,85.3557 51.94,84.8437 C52.334,84.8027 52.272,85.4727 52.666,85.4317 Z M53.979,36.0497 C54.083,35.7737 54.173,35.3657 54.422,35.2067 C53.972,34.7227 54.242,33.5007 54.712,32.9197 C53.758,31.4277 55.708,29.7627 54.284,28.8507 C54.222,29.5207 54.077,29.4037 53.725,29.8387 C53.883,30.0867 54.25,29.7837 54.408,30.0317 C53.675,30.6397 54.277,32.5677 53.04,32.1667 C53.489,32.6507 52.992,32.9687 53.558,33.3077 C53.192,33.6107 53.772,34.0817 53.012,34.4267 C53.157,34.5437 53.669,34.3577 53.696,34.6197 C53.633,35.2897 52.943,36.2917 53.654,36.7477 C53.26,36.7887 53.157,37.0657 52.867,36.8307 C52.895,37.0927 53.737,37.5357 52.818,37.6327 C53.44,38.4957 52.687,40.1677 52.942,41.3357 C52.707,41.6257 52.811,41.3497 52.417,41.3907 C52.618,42.0337 52.347,43.2567 53.046,43.5807 C52.521,43.6357 52.548,43.8987 52.168,44.0707 C52.327,44.3207 52.147,45.1357 52.41,45.1077 C52.382,44.8457 53.066,45.0387 53.08,45.1707 C52.686,45.2117 53.004,45.7087 52.61,45.7507 C52.347,45.7777 52.424,45.2397 52.161,45.2677 C51.919,46.7517 52.174,47.9197 51.891,49.0127 C52.519,48.6797 52.208,49.5087 52.616,49.5987 C52.575,49.2047 52.893,49.7027 53.272,49.5297 C53.217,49.0047 52.927,48.7707 52.755,48.3907 C52.885,48.3767 53.148,48.3487 53.28,48.3347 C53.004,45.7087 54.041,42.9447 53.467,41.2807 C53.751,40.1877 54.276,37.6117 53.848,36.0637 L53.979,36.0497 Z M52.293,84.4087 C51.65,84.6087 51.961,83.7807 51.788,83.3997 C52.459,83.4617 51.988,84.0427 52.293,84.4087 Z M52.051,80.8507 C52.024,80.5887 51.879,80.4697 51.734,80.3527 C51.761,80.6157 51.906,80.7327 52.051,80.8507 Z M51.683,52.0867 C51.593,52.4947 52.512,52.3977 52.208,52.0317 C52.498,52.2657 52.878,52.0937 52.968,51.6857 C52.837,51.6987 52.692,51.5817 52.678,51.4507 C53.072,51.4097 53.045,51.1467 53.148,50.8707 C53.017,50.8847 53.003,50.7537 52.989,50.6217 C52.45,50.5457 52.36,50.9537 51.821,50.8777 C51.849,51.1397 51.655,51.8237 52.049,51.7817 C52.035,51.6507 52.008,51.3897 52.139,51.3757 C52.153,51.5067 52.18,51.7687 52.208,52.0317 C52.076,52.0457 51.945,52.0597 51.683,52.0867 Z M51.817,78.6187 C51.83,78.7497 51.699,78.7637 51.568,78.7767 C51.554,78.6467 51.686,78.6327 51.817,78.6187 Z M51.591,67.6257 C51.314,67.5217 51.563,67.3627 51.549,67.2307 C51.826,67.3347 51.577,67.4947 51.591,67.6257 Z M51.499,75.5997 C51.458,75.2047 51.403,74.6807 51.521,74.5357 C52.163,74.3337 51.907,75.6887 51.499,75.5997 Z M51.708,70.0027 C51.736,70.2647 51.75,70.3967 51.777,70.6587 C51.645,70.6727 51.514,70.6867 51.514,70.6867 C51.487,70.4237 51.473,70.2917 51.445,70.0307 C51.445,70.0307 51.576,70.0167 51.708,70.0027 Z M51.735,72.7867 C51.459,72.6827 51.562,72.4077 51.403,72.1587 C51.797,72.1167 51.839,72.5107 51.735,72.7867 Z M49.976,52.2667 C50.108,52.2527 50.37,52.2247 50.384,52.3557 C50.253,52.3697 49.99,52.3967 50.004,52.5277 C49.873,52.5417 49.845,52.2797 49.976,52.2667 Z M50.183,10.0357 C48.573,11.1337 48.441,13.6687 47.267,15.1207 C47.585,15.6187 46.576,16.1217 47.363,16.0387 C48.379,14.3387 48.974,12.4197 50.28,10.9547 C50.964,8.6257 52.678,7.2517 53.508,5.0407 C54.123,4.5767 55.166,3.1417 54.731,2.7877 C53.203,4.6737 51.89,7.3337 49.969,9.2617 C49.865,9.5377 50.025,9.7877 50.183,10.0357 Z M45.835,22.9697 C45.966,22.9557 46.098,22.9417 46.084,22.8107 C45.966,22.9557 45.821,22.8377 45.835,22.9697 Z M44.763,26.6667 C44.66,26.9417 44.543,27.0867 44.57,27.3497 C44.846,27.4537 45.157,26.6247 44.763,26.6667 Z M43.402,30.1267 C42.877,30.1817 43.602,30.7707 43.402,30.1267 C43.533,30.1127 43.519,29.9817 43.506,29.8517 C43.755,29.6907 43.478,29.5877 43.506,29.8517 C43.375,29.8647 43.388,29.9957 43.402,30.1267 Z M42.863,30.0507 C42.849,29.9197 42.821,29.6567 42.808,29.5257 C42.676,29.5397 42.545,29.5537 42.414,29.5667 C42.427,29.6977 42.455,29.9617 42.469,30.0927 C42.6,30.0787 42.732,30.0647 42.863,30.0507 Z M42.51,30.4857 C42.51,30.4857 42.497,30.3547 42.483,30.2237 C42.351,30.2367 42.22,30.2507 42.089,30.2647 C42.103,30.3957 42.116,30.5277 42.116,30.5277 C42.248,30.5137 42.379,30.4997 42.51,30.4857 Z M42.436,20.9377 C42.45,21.0677 42.464,21.1997 42.478,21.3317 C42.346,21.3457 42.215,21.3597 42.084,21.3737 C42.07,21.2417 42.056,21.1097 42.042,20.9787 C42.173,20.9647 42.305,20.9507 42.436,20.9377 Z M41.453,34.3137 C41.466,34.4447 41.232,34.7357 41.508,34.8387 C41.481,34.5777 41.729,34.4167 41.453,34.3137 Z M41.494,32.1857 C41.536,32.5797 41.142,32.6217 40.866,32.5177 C40.969,32.2407 41.246,32.3447 41.494,32.1857 Z M40.105,35.3847 C40.016,35.7927 40.451,36.1437 40.41,35.7507 C40.278,35.7657 40.25,35.5027 40.105,35.3847 Z M40.402,36.9457 C39.994,36.8557 39.815,37.6707 40.222,37.7607 C40.036,37.2497 40.444,37.3407 40.402,36.9457 Z M39.663,38.7497 C40.174,38.5627 39.448,37.9767 39.663,38.7497 C39.02,38.9507 39.745,39.5377 39.663,38.7497 Z M39.352,37.0567 C39.538,37.5677 39.131,37.4787 39.303,37.8567 C39.58,37.9617 39.863,36.8697 39.352,37.0567 Z M37.7,40.2827 C37.438,40.3107 37.631,39.6277 37.617,39.4947 C38.288,39.5587 37.935,39.9927 37.7,40.2827 Z M36.862,56.2987 C37.373,56.1127 37.532,56.3607 37.794,56.3327 C38.002,55.7807 36.834,56.0367 36.862,56.2987 Z M36.961,42.0857 C36.974,42.2177 36.843,42.2317 36.712,42.2457 C36.698,42.1137 36.843,42.2317 36.961,42.0857 Z M36.041,44.7047 C36.055,44.8357 36.069,44.9677 36.083,45.0987 L35.689,45.1397 C35.675,45.0087 35.661,44.8767 35.647,44.7457 L36.041,44.7047 Z M35.828,38.8867 C35.855,39.1497 35.385,39.7297 35.794,39.8207 C35.91,39.6737 36.381,39.0947 35.828,38.8867 Z M34.803,51.8697 C34.79,51.7387 34.79,51.7387 34.776,51.6067 C34.644,51.6207 34.644,51.6207 34.513,51.6347 C34.527,51.7667 34.527,51.7667 34.541,51.8967 C34.672,51.8837 34.672,51.8837 34.803,51.8697 Z M34.839,48.4157 C34.445,48.4567 34.652,47.9037 34.493,47.6547 C35.135,47.4537 34.679,48.1667 34.839,48.4157 Z M34.168,53.3967 C34.154,53.2657 34.126,53.0017 33.878,53.1617 C33.891,53.2937 33.919,53.5557 34.049,53.5417 C34.049,53.5417 34.036,53.4107 34.168,53.3967 Z M41.581,54.4747 C41.595,54.6067 41.477,54.7517 41.505,55.0137 C42.016,54.8277 41.989,54.5647 42.673,54.7587 C42.908,54.4687 42.355,54.2607 42.866,54.0747 C43.212,54.8347 42.969,53.7987 43.64,53.8617 C43.785,53.9787 43.668,54.1237 43.681,54.2537 C44.22,54.3307 44.179,53.9377 44.428,53.7787 C44.497,54.4347 45.45,53.4047 45.782,54.0327 C45.989,53.4807 46.57,53.9507 46.936,53.6467 C46.674,53.6747 46.708,52.7417 47.261,52.9497 C46.674,53.6747 48.09,53.2607 48.38,53.4957 C48.428,52.6937 49.824,53.3437 50.004,52.5277 C50.833,52.8387 51.407,51.9827 51.31,51.0637 C48.304,51.5117 46.052,52.8117 42.901,53.1427 C41.118,53.8597 39.466,54.5647 37.629,54.7577 C36.426,55.9467 34.257,55.5107 33.476,56.9197 C35.507,56.0427 37.608,55.8227 39.639,54.9457 C39.653,55.0767 39.929,55.1797 39.944,55.3117 C40.351,55.4007 40.309,55.0067 40.572,54.9797 C41.125,55.1877 41.07,54.6617 41.581,54.4747 Z M33.671,51.1917 C33.408,51.2197 33.276,51.2327 33.249,50.9717 C33.511,50.9437 33.643,50.9307 33.671,51.1917 Z M33.621,54.5157 C33.504,54.6597 33.096,54.5707 33.269,54.9517 C33.532,54.9237 33.649,54.7777 33.621,54.5157 Z M32.412,54.3767 C32.426,54.5087 32.177,54.6667 32.046,54.6807 C32.164,54.5367 32.15,54.4047 32.412,54.3767 Z M52.996,7.7487 C50.48,11.5967 48.227,15.4177 46.424,19.7217 C46.686,19.6937 46.699,19.8257 46.727,20.0877 C46.582,19.9707 46.451,19.9837 46.319,19.9977 C45.421,21.5527 44.218,22.7417 44.031,24.7517 C43.901,24.7657 43.769,24.7787 43.638,24.7927 C41.744,29.5047 39.767,33.4297 37.859,38.0087 C38.06,38.6517 37.603,39.3637 37.106,39.6827 C36.221,43.8897 34.092,46.3697 33.249,50.9717 C32.869,51.1437 32.938,51.7997 32.295,52.0007 C32.613,52.4987 33.049,52.8507 32.578,53.4317 C32.55,53.1677 32.537,53.0367 32.509,52.7737 C31.645,53.3967 31.521,54.7357 31.341,55.5507 C32.011,55.6137 31.666,54.8537 32.046,54.6807 C33.987,54.2117 33.567,51.4687 34.782,50.4117 C34.796,50.5427 34.81,50.6737 34.824,50.8057 C34.955,50.7917 35.101,50.9097 35.232,50.8957 C35.19,50.5007 35.149,50.1077 34.782,50.4117 C34.873,50.0037 34.362,50.1907 34.437,49.6517 C34.7,49.6247 34.831,49.6107 35.094,49.5827 C35.281,47.5717 36.062,46.1627 36.96,44.6077 C36.967,45.9357 35.882,46.9787 36.11,47.8827 C36.697,47.1577 36.912,45.4097 37.686,45.1947 C36.414,48.2497 35.342,51.9447 34.146,54.4597 C39.944,52.7897 45.085,51.1877 51.186,49.8817 C51.09,48.9627 51.186,47.3607 51.773,46.6347 C51.718,46.1097 51.442,46.0067 51.386,45.4807 C51.947,39.4487 52.688,32.6017 52.972,26.4667 C53.352,26.2937 53.311,25.8997 53.559,25.7417 C53.36,20.0547 54.964,15.1077 54.674,9.8287 C53.921,11.5007 52.974,13.8557 51.599,14.6657 C51.882,16.0957 50.624,16.7597 50.065,17.7467 C49.491,18.6037 49.85,19.4947 48.917,19.4587 C48.945,19.7217 48.972,19.9857 49,20.2477 C48.765,20.5377 48.648,20.6837 48.267,20.8557 C46.816,24.7237 44.246,28.0467 43.595,31.9647 C42.952,32.1657 42.8,33.2427 42.261,33.1667 C42.434,33.5467 42.289,33.4287 42.358,34.0857 C40.284,37.0917 39.821,41.5207 37.852,44.2497 C37.623,43.3437 38.543,43.2467 38.315,42.3417 C38.564,42.1837 38.287,42.0807 38.315,42.3417 C37.424,42.7007 37.852,44.2497 36.815,44.4907 C37.243,43.5167 36.428,43.3367 36.622,42.6517 C36.871,42.4937 36.56,43.3227 37.057,43.0047 C37.831,42.7917 37.209,41.9267 37.327,41.7817 C38.273,41.9487 39.724,40.6017 39.206,39.4617 C38.971,39.7507 38.909,40.4207 38.819,40.8287 C38.267,40.6217 38.218,41.4227 38.046,41.0427 C38.404,39.4117 39.531,38.7637 38.944,36.9667 C39.338,36.9257 39.601,36.8977 39.994,36.8557 C40.071,36.3177 39.442,36.6487 39.4,36.2537 C39.635,35.9647 39.884,35.8067 39.567,35.3087 C39.933,35.0047 39.933,35.0047 40.341,35.0937 C40.416,34.5547 40.14,34.4517 40.112,34.1887 C40.347,33.8987 41.046,34.2247 41.239,33.5397 C40.845,33.5807 40.465,33.7537 40.555,33.3467 C41.08,33.2917 41.315,33.0007 41.695,32.8277 C42.303,31.0387 41.44,29.1387 43.312,28.0127 C43.243,27.3557 43.32,26.8177 43.831,26.6307 C44.397,26.9697 44.446,26.1677 44.68,25.8777 C44.419,25.9057 44.156,25.9337 44.114,25.5387 C44.363,25.3797 44.584,24.9587 45.123,25.0357 C44.75,24.0127 45.352,23.4177 45.621,22.1947 C45.924,22.5627 46.056,22.5487 46.568,22.3607 C46.631,21.6907 45.752,22.1817 45.828,21.6427 C45.849,20.5787 46.755,20.3517 47.369,19.8877 C47.107,19.9157 46.831,19.8117 46.921,19.4047 C47.653,18.7967 47.501,17.3527 48.51,16.8487 C48.392,16.9937 48.406,17.1247 48.434,17.3867 C49.443,16.8837 48.303,14.8787 49.851,14.4507 C49.789,15.1207 50.389,14.5267 49.851,14.4507 C49.885,13.5177 50.508,11.8597 51.793,11.4587 C51.447,10.6997 51.876,9.7257 52.781,9.4977 C52.305,8.7507 53.078,8.5367 53.127,7.7347 L53.258,7.7207 C53.244,7.5897 53.507,7.5627 53.769,7.5347 C53.791,6.4707 54.813,6.0977 55.111,5.1377 C54.26,5.8907 53.03,6.8167 53.127,7.7347 L52.996,7.7487 Z M31.508,47.0397 C31.405,47.3157 31.432,47.5787 31.17,47.6057 C31.142,47.3437 30.955,46.8317 31.508,47.0397 Z M30.677,61.8597 C30.704,62.1227 30.614,62.5297 30.877,62.5017 C30.981,62.2257 30.953,61.9637 30.677,61.8597 Z M30.582,48.3317 C30.672,47.9227 30.789,47.7777 31.17,47.6057 C31.211,47.9997 31.121,48.4067 30.582,48.3317 Z M30.858,48.4347 C30.872,48.5657 30.886,48.6967 30.9,48.8287 C30.768,48.8427 30.637,48.8567 30.506,48.8707 C30.492,48.7387 30.478,48.6077 30.465,48.4757 C30.596,48.4617 30.727,48.4487 30.858,48.4347 Z M30.512,57.7627 C31.009,57.4447 31.942,57.4797 32.149,56.9267 C31.596,56.7197 30.588,57.2237 30.512,57.7627 C30.263,57.9217 30.539,58.0247 30.512,57.7627 Z M46.292,17.2147 C46.098,17.8977 45.588,18.0847 45.38,18.6367 C45.325,18.1117 44.737,18.8367 45.38,18.6367 C40.625,28.9587 35.897,39.5427 32.261,50.4117 C31.75,50.5977 32.095,51.3577 31.438,51.4267 C31.984,52.8297 29.932,54.7717 30.422,55.6477 C31.804,53.6457 32.226,51.3437 32.911,49.0157 C33.118,48.4627 33.719,47.8697 34.044,47.1717 C34.783,45.3677 35.233,43.3297 35.959,41.3957 C36.802,39.3157 37.687,37.6297 38.371,35.3007 C38.966,33.3817 40.244,31.6547 41.101,29.7057 C41.529,28.7307 41.654,27.3907 42.2,26.2717 C42.747,25.1507 43.438,24.1507 44.101,22.8857 C44.958,20.9377 45.974,19.2377 46.424,17.2007 C46.803,17.0277 46.894,16.6207 46.983,16.2117 C46.458,16.2667 46.645,16.7787 46.424,17.2007 L46.292,17.2147 Z M29.925,50.9217 C29.518,50.8327 29.988,50.2517 29.96,49.9887 C30.513,50.1967 29.911,50.7917 29.925,50.9217 Z M29.979,61.5357 C29.848,61.5487 29.716,61.5627 29.586,61.5767 C29.703,61.4317 29.572,61.4457 29.426,61.3277 C29.399,61.0647 30.2,61.1127 29.979,61.5357 Z M29.682,62.4957 C29.55,62.5097 29.42,62.5227 29.288,62.5367 C29.115,62.1577 29.378,62.1297 29.35,61.8657 C29.613,61.8387 29.772,62.0877 29.682,62.4957 Z M29.973,57.6867 C29.565,57.5967 29.462,57.8737 29.227,58.1627 C29.62,58.1217 30.001,57.9487 29.973,57.6867 Z M28.845,63.3787 C28.804,62.9857 29.081,63.0897 29.33,62.9307 C29.225,63.2077 29.108,63.3517 28.845,63.3787 Z M29.018,63.7597 C29.046,64.0227 28.887,63.7737 28.756,63.7877 C28.742,63.6557 29.004,63.6277 29.018,63.7597 Z M28.112,66.5097 C28.112,66.5097 28.126,66.6407 28.14,66.7717 C28.009,66.7857 27.878,66.7997 27.746,66.8127 C27.732,66.6817 27.718,66.5507 27.718,66.5507 C27.85,66.5367 27.981,66.5227 28.112,66.5097 Z M27.684,67.4827 C27.698,67.6137 27.698,67.6137 27.712,67.7467 C27.581,67.7607 27.581,67.7607 27.449,67.7747 C27.435,67.6417 27.435,67.6417 27.422,67.5107 C27.553,67.4977 27.553,67.4977 27.684,67.4827 Z M27.532,68.5617 C27.573,68.9557 27.311,68.9827 27.049,69.0107 C27.035,68.8797 27.152,68.7337 27.138,68.6037 C27.27,68.5897 27.401,68.5757 27.532,68.5617 Z M30.525,60.4157 C30.042,60.8647 29.648,60.9067 29.33,60.4087 C29.164,61.3547 29.011,62.4327 28.396,62.8957 C28.576,64.6037 26.814,66.7777 26.993,68.4847 C26.482,68.6717 26.419,69.3407 26.343,69.8807 C26.883,69.9577 26.71,69.5777 26.959,69.4187 C27.159,70.0617 26.765,70.1027 26.965,70.7447 C27.787,69.7287 28.865,67.3587 28.044,65.8537 C29.391,64.7827 30.559,62.0057 30.746,59.9947 C30.656,60.4017 30.325,59.7727 30.103,60.1937 C29.606,60.5117 30.629,60.1387 30.525,60.4157 Z M28.092,62.5297 C28.299,61.9767 29.226,60.6857 28.687,60.6087 C27.436,62.5987 26.911,65.1757 26.24,67.6347 C27.138,66.0807 27.76,64.4227 28.092,62.5297 Z M26.787,58.9497 L26.774,58.8187 C26.235,58.7437 26.144,59.1497 25.855,58.9157 C25.778,59.4557 26.67,59.0947 26.787,58.9497 C26.801,59.0807 26.932,59.0667 26.918,58.9367 C27.485,59.2757 28.086,58.6817 27.506,58.2107 C27.416,58.6197 26.732,58.4247 26.918,58.9367 L26.787,58.9497 Z M26.006,67.9267 C26.039,69.5157 24.692,70.5847 25.106,72.0017 C25.376,70.7787 26.641,68.9207 26.006,67.9267 Z M25.23,75.7067 C24.899,75.0767 25.313,73.9707 26.378,73.9917 C26.218,73.7437 26.425,73.1897 26.032,73.2317 C26.204,73.6127 26.087,73.7567 25.838,73.9157 C25.811,73.6537 25.679,73.6677 25.665,73.5357 C26.046,73.3637 25.845,72.7207 26.212,72.4157 C26.239,72.6797 26.267,72.9407 26.544,73.0457 C26.461,72.2577 26.944,71.8087 27.007,71.1387 C26.612,71.1797 26.564,71.9817 26.246,71.4837 C26.218,71.2217 26.467,71.0627 26.862,71.0217 C26.571,70.7857 26.62,69.9847 26.226,70.0257 C25.617,71.8157 24.905,73.8807 24.719,75.8927 C24.836,75.7477 24.968,75.7337 25.23,75.7067 Z M25.225,59.2467 C24.832,59.2877 24.583,59.4477 24.479,59.7237 C24.728,59.5657 25.412,59.7577 25.225,59.2467 Z M24.346,74.8697 C24.394,74.0667 25.023,73.7367 24.781,72.7007 L24.913,72.6867 C24.899,72.5537 24.899,72.5537 25.03,72.5407 L24.989,72.1477 C24.726,72.1747 24.754,72.4367 24.781,72.7007 C24.443,73.2667 23.883,74.2537 24.346,74.8697 Z M23.731,75.3327 C23.89,75.5807 23.406,76.0297 23.814,76.1197 C23.8,75.9887 24.387,75.2637 23.731,75.3327 Z M23.503,76.9487 C23.503,76.9487 23.634,76.9357 23.765,76.9217 C23.765,76.9217 23.751,76.7897 23.883,76.7757 C23.869,76.6457 23.855,76.5137 23.855,76.5137 C23.723,76.5267 23.723,76.5267 23.592,76.5407 C23.592,76.5407 23.606,76.6727 23.475,76.6867 C23.488,76.8167 23.488,76.8167 23.503,76.9487 Z M24.539,79.2287 C24.656,79.0837 24.629,78.8227 24.587,78.4277 C24.194,78.4697 24.221,78.7307 24.103,78.8777 C23.889,78.1027 24.822,78.1377 24.912,77.7297 C24.712,77.0867 24.277,76.7347 25.168,76.3757 C24.774,76.4167 24.85,75.8787 24.47,76.0507 C24.173,77.0107 23.889,78.1027 23.461,79.0777 C23.868,79.1667 24.145,79.2707 24.539,79.2287 Z M23.322,77.7637 C23.192,77.7777 23.06,77.7917 22.929,77.8057 C23.101,78.1857 22.487,78.6487 23.026,78.7247 C23.129,78.4487 23.378,78.2897 23.322,77.7637 Z M22.804,81.6677 C23.225,81.8887 23.274,81.0877 22.88,81.1287 C22.894,81.2597 22.907,81.3917 22.777,81.4057 C22.777,81.4057 22.79,81.5367 22.804,81.6677 Z M22.161,81.8677 C22.686,81.8127 21.961,81.2257 22.161,81.8677 C22.044,82.0127 22.32,82.1167 22.161,81.8677 Z M76.669,44.8147 C76.682,44.9457 76.696,45.0767 76.71,45.2087 C77.117,45.2987 76.918,44.6557 77.179,44.6277 C77.691,44.4407 77.746,44.9667 77.891,45.0847 C79.121,44.1587 81.229,45.2657 82.472,44.4697 C85.084,44.0627 87.337,45.2867 86.997,48.3757 C86.396,48.9687 85.698,48.6447 85.159,48.5687 C83.805,48.3117 82.665,48.8307 81.484,48.9547 C81.221,48.9817 81.034,48.4707 80.772,48.4987 C80.509,48.5257 79.369,49.0437 78.436,49.0087 C77.255,49.1327 76.308,48.9677 75.652,49.0367 C69.889,49.7747 64.051,51.0517 57.162,52.4397 C57.286,53.6207 57.556,54.9207 56.692,55.5427 C56.616,56.0807 57.231,55.6177 57.141,56.0257 C56.304,56.9097 57.562,58.7687 56.449,59.5487 C57.071,60.4127 56.918,61.4897 55.91,61.9947 C56.069,62.2437 56.359,62.4797 56.621,62.4517 C56.359,65.0007 56.966,68.2557 56.405,71.7657 C56.936,80.6027 57.005,88.8247 58.115,98.1317 C59.711,104.4687 60.593,112.8697 64.593,116.8297 C64.621,117.0927 64.649,117.3547 64.69,117.7487 C64.193,118.0657 63.377,117.8857 62.603,118.1007 C62.244,117.2087 60.641,117.1117 60.676,116.1797 C56.669,113.4157 54.893,107.8947 53.617,102.0557 C54.155,102.1317 54.197,102.5247 54.383,103.0367 C55.067,103.2297 54.314,102.3807 54.985,102.4417 C55.343,103.3337 54.674,103.2717 54.307,103.5757 C55.447,105.5787 56.02,109.7677 57.581,111.9917 C56.952,109.8017 56.048,107.5067 55.668,105.1577 C55.406,105.1857 55.723,105.6837 55.62,105.9597 C55.461,105.7107 54.825,104.7147 55.482,104.6467 C55.558,104.1067 54.915,104.3087 54.743,103.9277 C54.832,103.5207 55.24,103.6097 55.385,103.7287 C55.053,103.0987 55.192,101.8907 54.404,101.9737 C55.413,101.4677 53.99,100.5567 54.633,100.3557 C54.446,99.8447 53.79,99.9137 53.838,99.1117 C54.087,98.9537 54.404,99.4507 54.218,98.9397 C54.28,98.2697 54.073,98.8217 53.81,98.8497 C53.859,98.0477 53.451,97.9587 53.513,97.2877 C54.039,97.2327 53.569,97.8127 53.886,98.3117 C54.225,97.7447 53.984,96.7087 53.638,95.9477 C53.376,95.9757 53.549,96.3547 53.576,96.6167 C53.272,96.2517 53.085,95.7397 53.016,95.0837 C53.41,95.0417 53.438,95.3057 53.479,95.6977 C53.963,95.2507 53.327,94.2547 53.521,93.5707 C53.466,93.0457 53.065,94.2827 52.864,93.6397 C53.902,90.8757 52.665,87.9527 52.728,84.7607 C52.991,84.7337 53.254,84.7057 53.398,84.8227 C53.474,84.2847 53.08,84.3257 52.555,84.3817 C53.301,83.9037 52.362,82.5437 52.701,81.9757 C52.528,81.5967 51.781,82.0727 51.858,81.5337 C52.148,81.7697 52.383,81.4787 52.777,81.4377 C52.093,78.7217 52.758,74.9357 52.371,71.2597 C52.606,70.9697 53.041,71.3227 53.248,70.7697 C52.917,70.1407 53.013,71.0597 52.461,70.8527 C52.433,68.0667 52.468,64.6137 52.524,62.6167 C53.312,62.5337 52.828,62.9827 52.883,63.5077 C53.409,63.4527 53.049,62.5617 53.298,62.4017 C53.008,62.1677 53.049,62.5617 52.51,62.4847 C52.649,61.2767 52.525,60.0947 52.663,58.8857 C52.884,58.4647 53.478,59.0647 53.568,58.6567 C53.485,57.8697 52.808,59.0037 52.622,58.4917 C52.718,56.8887 52.801,55.1547 52.899,53.5517 C52.319,53.0817 52.269,53.8827 51.586,53.6897 C51.62,55.2787 51.509,56.7507 51.557,58.4707 C50.928,63.8467 51.612,69.0837 50.961,73.0017 C51.79,75.8337 50.891,79.9097 51.644,83.2827 C51.65,87.1307 52.568,92.0777 52.933,96.8187 C53.216,98.2487 54.356,100.2517 53.402,101.2817 C50.033,84.3807 50.443,69.3387 51.089,54.0067 C45.865,54.8207 40.503,56.8447 35.874,58.2607 C35.769,58.5377 36.44,58.5997 36.06,58.7717 C35.403,58.8417 35.666,58.8137 35.611,58.2887 C35.203,58.1977 35.244,58.5927 34.85,58.6337 C34.996,58.7507 35.023,59.0137 35.272,58.8547 C35.299,59.1167 34.761,59.0417 34.643,59.1857 C34.001,59.3867 34.629,59.0547 34.47,58.8067 C33.724,59.2827 33.172,59.0757 32.28,59.4347 C32.204,59.9737 32.819,59.5107 32.612,60.0637 C32.114,60.3817 32.473,61.2727 31.83,61.4727 C29.86,69.2467 27.441,76.5357 25.167,83.9417 C24.689,88.2387 23.776,92.1847 22.573,95.8947 C22.344,100.0337 20.652,102.8657 20.713,107.2387 C20.665,108.0407 19.759,108.2687 20.001,109.3047 C18.626,110.1137 17.625,109.4217 15.89,109.3387 C14.743,108.5307 13.21,106.5677 14.647,105.0897 C14.503,99.9277 16.742,95.9767 17.151,91.0217 C18,90.2697 17.483,89.1287 18.595,88.3487 C18.657,87.6787 18.367,87.4437 18.195,87.0627 C18.325,87.0487 18.471,87.1667 18.602,87.1527 C20.966,79.3397 23.601,70.3017 26.317,62.0527 L26.448,62.0387 C26.421,61.7767 26.303,61.9217 26.317,62.0527 C19.878,63.9237 13.693,66.9637 6.949,68.4687 C3.799,68.7997 1.843,66.6167 0.047,64.6817 C0.255,64.1277 -0.278,62.8557 0.22,62.5397 C1.664,62.3877 2.756,62.6707 3.467,63.1267 C8.394,63.2727 12.388,60.8627 15.904,60.2267 C16.153,60.0677 16.271,59.9227 16.389,59.7787 C17.701,59.6407 19.408,59.4607 20.244,58.5767 C20.258,58.7077 20.141,58.8527 20.154,58.9837 C21.585,58.7007 23.374,56.7877 24.797,57.6987 C25.019,57.2787 25.862,57.7207 25.765,56.8017 C26.318,57.0087 26.974,56.9397 26.905,56.2837 C27.05,56.4007 27.091,56.7947 27.354,56.7667 C27.748,56.7257 27.983,56.4357 28.508,56.3797 C28.612,56.1047 28.702,55.6957 28.661,55.3027 C28.778,55.1567 28.937,55.4067 28.937,55.4067 C29.172,55.1157 29.676,53.6037 30.077,52.3667 C30.478,51.1297 30.968,49.4847 31.031,48.8147 C33.077,45.5477 33.686,41.2357 35.6,37.9817 C35.517,37.1937 36.001,36.7457 36.049,35.9437 C37.667,33.6497 38.033,30.8237 39.547,28.8077 C39.747,26.9267 41.13,24.9247 42.001,23.1067 C42.92,20.4877 44.406,18.2087 45.325,15.5897 C45.705,15.4177 45.795,15.0097 46.175,14.8377 C46.03,14.7197 46.002,14.4567 45.961,14.0627 C47.204,13.2687 47.599,10.7047 49.064,9.4897 C48.878,8.9777 49.127,8.8197 49.099,8.5567 C50.923,5.7097 52.554,3.5477 54.275,0.9777 C55.443,0.7227 55.684,1.7587 56.735,1.6477 C56.776,2.0417 57.052,2.1467 57.093,2.5397 C57.225,2.5257 57.342,2.3807 57.315,2.1187 C58.448,2.7957 59.568,3.3417 60.479,4.4397 C61.418,10.8447 60.277,16.4087 60.069,22.0047 C59.44,22.3347 59.944,23.3437 59.301,23.5457 C59.329,23.8077 59.709,23.6347 59.633,24.1737 C59.28,29.6537 58.367,33.5987 58.443,38.1027 C57.799,38.3037 58.525,38.8897 57.738,38.9727 C58.2,39.5877 58.311,40.6387 57.405,40.8667 C57.447,41.2597 57.972,41.2047 58.014,41.5997 C57.633,44.2927 57.211,46.5937 57.535,48.4187 C62.718,47.2107 65.723,46.7617 70.042,46.1747 C72.875,45.3467 74.098,45.6157 76.669,44.8147 Z" id="Fill-1" fill="#325C2A" mask="url(#mask-3)"></path>
                </g>
                <g id="Group-6" transform="translate(64.000000, 45.063000)">
                    <mask id="mask-5" fill="white">
                        <use xlink:href="#path-4"></use>
                    </mask>
                    <g id="Clip-5"></g>
                    <path d="M37.1511,13.0368 C36.9781,12.6558 37.3721,12.6148 37.3311,12.2208 C36.9501,12.3928 37.0411,11.9868 36.7781,12.0148 C36.8951,11.8678 36.9991,11.5928 36.7231,11.4888 C36.6051,11.6338 36.5161,12.0418 36.7781,12.0148 C36.6881,12.4208 36.5081,13.2368 37.1511,13.0368 M29.2691,2.4498 C29.7941,2.3938 30.0431,2.2358 30.1321,1.8288 C30.5411,1.9188 31.1551,1.4548 30.7481,1.3658 C30.6441,1.6408 30.0911,1.4348 30.1321,1.8288 C29.6081,1.8838 29.5171,2.2908 29.2691,2.4498 M29.4971,0.8328 C29.2341,0.8608 29.2211,0.7298 29.0891,0.7438 C29.0761,0.6128 29.1931,0.4668 29.1791,0.3348 C29.3241,0.4538 29.4701,0.5708 29.4971,0.8328 M28.7711,2.7678 C28.7981,3.0298 28.5361,3.0578 28.5641,3.3208 C28.8401,3.4238 29.1791,2.8578 28.7711,2.7678 M27.3821,5.9678 C27.3961,6.0988 27.1611,6.3888 27.4381,6.4918 C27.4101,6.2288 27.6591,6.0708 27.3821,5.9678 M26.5771,28.6158 C31.0131,25.3608 32.4511,21.3618 34.2901,16.1248 C34.8011,15.9378 35.2161,14.8328 34.6771,14.7568 C34.7331,15.2828 34.3381,15.3238 34.2901,16.1248 C31.9611,20.4838 30.0671,25.1958 26.5771,28.6158 M26.1461,3.0438 C26.8371,2.0418 27.1901,1.6068 28.4611,1.0738 C27.7291,1.6828 26.8021,2.9748 26.1461,3.0438 M26.9741,8.3988 C26.9461,8.1358 26.8011,8.0188 26.6561,7.9008 C26.5661,8.3078 25.8821,8.1158 26.0691,8.6268 C26.4631,8.5858 26.8571,8.5438 26.9741,8.3988 M25.4471,10.2848 C25.4741,10.5468 25.2261,10.7058 25.5021,10.8098 C25.4741,10.5468 25.7231,10.3888 25.4471,10.2848 M24.0721,6.0488 C24.3561,4.9568 24.7981,4.1148 25.6761,3.6238 C25.3921,4.7158 24.6601,5.3238 24.0721,6.0488 M24.5971,11.0378 C24.3351,11.0648 24.3211,10.9338 24.0581,10.9618 C24.0861,11.2238 23.9681,11.3698 23.9961,11.6308 C24.5351,11.7078 24.4931,11.3138 24.5971,11.0378 M23.9411,6.0618 C23.3951,7.1828 22.8491,8.3008 21.9991,9.0548 C22.4001,7.8168 23.1051,6.9468 23.9411,6.0618 M21.9991,9.0548 C22.0131,9.1858 22.0261,9.3168 21.8821,9.1998 C21.8821,9.1998 21.8681,9.0688 21.9991,9.0548 M19.4551,20.2058 C19.4681,20.3368 19.4821,20.4688 19.4961,20.5988 C20.0491,20.8068 19.9531,19.8888 19.4551,20.2058 M18.3071,24.4408 C18.0451,24.4688 17.7821,24.4958 17.9411,24.7458 C18.2171,24.8488 18.3351,24.7038 18.3071,24.4408 M24.4801,8.6608 L24.3491,8.6748 C24.2581,9.0818 23.8791,9.2548 23.9201,9.6488 L23.7891,9.6618 C21.3151,13.9048 19.0131,18.5268 17.4361,23.7358 C17.3051,23.7498 17.3191,23.8808 17.3191,23.8808 C17.0701,24.0398 17.3471,24.1438 17.3191,23.8808 C17.4501,23.8668 17.4501,23.8668 17.4361,23.7358 C18.0661,23.4048 17.9831,22.6168 18.4661,22.1678 L18.4801,22.2988 C19.0191,22.3748 19.2541,22.0848 19.3441,21.6778 C18.8191,21.7328 18.8601,22.1268 18.4661,22.1678 C19.4971,18.0778 22.4681,13.5188 23.9201,9.6488 C24.0371,9.5038 24.3001,9.4758 24.5631,9.4488 C24.5351,9.1858 24.5071,8.9238 24.4801,8.6608 C24.9911,8.4738 25.2131,8.0528 25.4331,7.6318 C26.2561,6.6158 27.7971,4.8608 28.0521,3.5068 C27.1271,4.7988 25.9101,5.8548 25.4331,7.6318 C25.0531,7.8048 24.5561,8.1218 24.4801,8.6608 M16.7241,30.8448 C16.4621,30.8728 16.3431,31.0178 16.3581,31.1498 C16.6201,31.1228 16.7371,30.9768 16.7241,30.8448 M15.5221,29.5108 C15.4951,29.2488 16.1781,29.4418 16.2821,29.1668 C15.9991,27.7358 16.8351,26.8508 17.2641,25.8778 C17.3391,25.3388 16.7251,25.8018 16.8001,25.2628 C17.1941,25.2208 17.4571,25.1938 17.7201,25.1658 C17.6791,24.7728 17.2711,24.6818 16.8631,24.5928 C16.7451,24.7368 16.7731,25.0008 16.8001,25.2628 C16.1231,26.3948 15.6741,28.4338 15.5221,29.5108 M15.2741,29.6718 C15.1701,29.9468 14.8311,30.5138 15.1071,30.6168 C15.2251,30.4728 15.5501,29.7748 15.2741,29.6718 M14.4711,34.6658 C14.2221,34.8258 14.2081,34.6938 14.1811,34.4318 C14.2981,34.2858 14.2571,33.8928 14.4921,33.6018 C14.8991,33.6918 15.0861,34.2028 15.3621,34.3078 C15.3351,34.0438 15.8731,34.1198 15.8321,33.7268 C15.5421,33.4918 15.2031,34.0578 15.1621,33.6638 C15.1481,33.5338 15.1481,33.5338 15.1341,33.4018 C15.6601,33.3468 14.9341,32.7598 15.1341,33.4018 C14.3051,33.0908 14.8931,32.3658 14.8511,31.9708 C13.7801,33.1458 14.0361,34.3128 13.5451,35.9578 C13.8071,35.9308 13.8211,36.0618 14.0841,36.0348 C14.0561,35.7708 14.0421,35.6408 14.0141,35.3788 C14.4091,35.3368 14.3671,34.9428 14.4711,34.6658 M13.8491,36.3238 C13.7171,36.3378 13.5861,36.3518 13.3231,36.3788 C13.2071,36.5248 13.1571,37.3258 13.4341,37.4288 C13.5101,36.8908 14.0491,36.9678 13.8491,36.3238 M13.4001,38.3628 C13.1371,38.3908 13.1091,38.1278 12.9641,38.0108 C12.7291,38.2998 12.5901,39.5088 13.3511,39.1648 C13.1651,38.6528 13.1781,38.7838 13.4001,38.3628 M12.4251,40.4558 C12.4661,40.8498 11.9681,41.1668 12.5071,41.2438 C12.3481,40.9948 12.8331,40.5448 12.4251,40.4558 M11.8581,45.1608 C11.3191,45.0848 11.8021,44.6358 11.5121,44.4008 C12.4171,44.1728 11.9551,43.5578 12.7011,43.0818 C11.0841,42.8538 11.5531,44.7948 11.1251,45.7688 C11.5471,45.9898 11.7541,45.4378 11.8581,45.1608 M10.8961,52.4288 C10.7931,52.7058 10.4261,53.0098 10.9651,53.0858 C10.8061,52.8368 11.4351,52.5068 10.8961,52.4288 M10.4261,50.4878 C10.3581,49.8318 10.6341,49.9348 10.7931,50.1848 C10.7521,49.7898 11.2901,49.8658 11.1041,49.3538 C10.8411,49.3818 10.6961,49.2648 10.5511,49.1478 C11.0621,48.9618 11.0211,48.5668 10.8491,48.1868 C10.9651,48.0428 11.2141,47.8838 11.3321,47.7378 C11.4221,47.3298 11.2351,46.8188 10.9591,46.7158 C10.8691,47.1238 10.8831,47.2548 11.1871,47.6208 C10.2821,47.8478 10.1841,49.4508 10.4261,50.4878 M10.2391,55.0208 C10.2941,55.5448 9.8801,56.6508 10.4041,56.5958 C10.0871,56.0988 11.0411,55.0688 10.2391,55.0208 M9.9981,51.4618 C9.8801,51.6068 9.8181,52.2778 10.2121,52.2358 C9.9081,51.8698 10.4191,51.6828 9.9981,51.4618 M7.1151,58.1368 C7.0121,58.4128 6.8801,58.4268 6.7631,58.5708 C7.1851,58.7928 7.5091,58.0948 7.1151,58.1368 M6.8181,59.0968 C6.7151,59.3728 6.6241,59.7808 7.2671,59.5808 C7.2401,59.3178 7.0941,59.2008 6.8181,59.0968 M6.7701,59.8988 C6.6931,60.4368 6.4241,61.6598 6.8311,61.7498 C6.5421,61.5158 7.5991,60.2088 6.7701,59.8988 M6.0011,74.0488 C6.1601,74.2968 5.9661,74.9808 6.2291,74.9538 C6.0421,74.4418 6.7881,73.9668 6.0011,74.0488 M3.2981,82.4288 C3.1381,82.1808 3.1251,82.0498 2.8621,82.0778 C2.8901,82.3388 2.9181,82.6018 3.0491,82.5878 C3.0351,82.4558 3.1661,82.4418 3.2981,82.4288 M2.8131,87.9218 C2.9801,86.9748 3.2001,86.5538 3.0001,85.9118 C3.3391,85.3448 3.1251,84.5718 3.1591,83.6388 C2.8201,84.2038 2.8141,85.3998 3.0001,85.9118 C2.3441,85.9808 2.2471,87.5828 2.8131,87.9218 M2.6811,90.4578 C2.4821,89.8158 3.1511,89.8778 2.6891,89.2628 C2.9511,89.2348 3.1311,88.4198 2.5921,88.3438 C2.6611,88.9998 2.3301,88.3708 2.0671,88.3988 C2.1221,88.9248 2.5301,89.0138 2.6891,89.2628 C2.1911,89.5798 2.1291,90.2498 2.6811,90.4578 M1.9761,96.3708 C2.2381,96.3438 1.9621,96.2408 1.9761,96.3708 C1.5821,96.4118 2.1761,97.0148 1.9761,96.3708 M16.1981,35.9448 C16.3291,35.9308 16.3161,35.7998 16.3011,35.6678 C16.1711,35.6818 16.1851,35.8138 16.1981,35.9448 C15.9221,35.8418 16.0181,36.7608 16.2671,36.6008 C16.6811,38.0178 15.5621,39.9938 15.2161,41.7548 C12.8101,54.2198 9.6711,67.2918 8.9011,78.9198 C8.7491,82.5198 9.3421,85.6428 8.1951,89.8788 C9.5361,90.0028 7.7461,91.9158 8.7061,92.2148 C8.7611,92.7388 8.2361,92.7938 8.1471,93.2018 C8.3751,94.1058 8.8581,98.7008 7.9731,100.3868 C8.8211,104.6778 7.1981,108.1658 8.1921,112.5758 C7.0931,113.4878 6.2091,112.6518 5.2761,112.6168 C5.2211,112.0908 5.0341,111.5798 4.8611,111.2008 C4.3361,111.2548 5.2491,112.3528 4.4331,112.1738 C4.4051,111.9118 4.2331,111.5308 4.3361,111.2548 C2.4921,110.1208 0.9791,107.0948 1.0071,104.8358 C-0.5039,89.2008 4.5351,77.7868 3.8461,63.6568 C4.3931,57.4938 4.6431,52.2898 4.2431,45.9608 C5.1841,37.2348 3.7691,27.5608 4.7311,20.2928 C4.0681,16.5138 4.5521,13.5428 3.6681,10.1848 C6.5771,8.8168 10.0181,11.2428 10.0871,14.4208 C10.3281,20.5018 10.1751,26.6228 10.2841,32.7178 C9.7731,32.9038 10.3531,33.3738 9.7111,33.5738 C10.1801,35.5148 10.2421,37.3678 9.9521,39.6538 C13.0621,28.8418 15.8831,17.7938 21.8821,9.1998 C17.6521,16.9438 14.2931,25.3938 12.0251,34.1268 C11.9491,34.6668 12.5641,34.2028 12.3571,34.7558 C11.4101,34.5888 10.9741,36.7598 11.5961,37.6218 C10.2491,38.6938 9.6401,43.0058 10.0201,45.3538 C11.8931,36.6628 15.2191,26.6238 18.0521,18.2288 C18.1981,18.3468 18.3421,18.4638 18.4881,18.5828 C18.3631,17.3998 19.9601,16.1708 19.3651,15.5698 C19.8631,15.2518 20.4511,14.5268 20.4851,13.5928 C22.4761,9.8008 24.9291,6.6228 27.0791,3.0788 C29.0761,0.6128 32.6271,-0.9562 35.5011,1.1308 C35.5291,1.3948 35.4121,1.5388 35.1351,1.4358 C36.3581,1.7038 37.3461,2.2648 38.2161,2.9698 C37.6431,3.8268 38.8521,3.9648 39.1701,4.4618 C41.3671,7.6828 40.0801,15.6488 38.3381,19.2828 C38.1311,19.8348 37.3711,20.1808 37.0321,20.7478 C35.9261,22.8548 35.8571,24.7198 34.4201,26.1988 C32.7751,28.2288 31.2611,30.2458 29.0081,31.5458 C28.3801,31.8768 27.7861,31.2748 27.7231,31.9458 C24.7731,30.3978 21.1121,25.8708 24.3671,22.7428 C24.2011,23.6888 24.2431,24.0828 23.9591,25.1748 C24.0691,26.2248 25.4311,25.2848 25.0441,26.6528 C31.2561,21.3548 37.4831,11.1438 33.7261,3.1768 C32.8201,3.4038 32.3021,4.7868 31.3561,4.6198 C23.8371,13.9048 20.3181,24.6278 16.3981,36.5868 L16.2671,36.6008 C16.2261,36.2068 16.5021,36.3108 16.1981,35.9448" id="Fill-4" fill="#325C2A" mask="url(#mask-5)"></path>
                </g>
                <g id="Group-9" transform="translate(104.000000, 40.063000)">
                    <mask id="mask-7" fill="white">
                        <use xlink:href="#path-6"></use>
                    </mask>
                    <g id="Clip-8"></g>
                    <path d="M37.1892,13.8288 C37.0172,13.4478 37.4112,13.4068 37.3702,13.0128 C36.9902,13.1848 37.0792,12.7788 36.8172,12.8068 C36.9342,12.6598 37.0382,12.3848 36.7612,12.2808 C36.6442,12.4258 36.5542,12.8338 36.8172,12.8068 C36.7272,13.2128 36.5472,14.0288 37.1892,13.8288 M29.3082,3.2418 C29.8332,3.1858 30.0822,3.0278 30.1712,2.6208 C30.5792,2.7108 31.1942,2.2468 30.7872,2.1578 C30.6822,2.4328 30.1292,2.2268 30.1712,2.6208 C29.6462,2.6758 29.5562,3.0828 29.3082,3.2418 M29.5362,1.6248 C29.2732,1.6518 29.2592,1.5208 29.1282,1.5358 C29.1152,1.4048 29.2322,1.2588 29.2182,1.1268 C29.3632,1.2448 29.5082,1.3628 29.5362,1.6248 M28.8102,3.5598 C28.8372,3.8218 28.5762,3.8498 28.6032,4.1118 C28.8792,4.2158 29.2172,3.6498 28.8102,3.5598 M27.4212,6.7588 C27.4352,6.8898 27.2002,7.1808 27.4762,7.2838 C27.4492,7.0208 27.6982,6.8618 27.4212,6.7588 M26.6162,29.4078 C31.0522,26.1528 32.4902,22.1528 34.3292,16.9168 C34.8392,16.7298 35.2542,15.6248 34.7152,15.5488 C34.7712,16.0748 34.3762,16.1158 34.3292,16.9168 C32.0002,21.2758 30.1062,25.9878 26.6162,29.4078 M26.1842,3.8358 C26.8762,2.8328 27.2282,2.3978 28.5002,1.8658 C27.7672,2.4748 26.8412,3.7668 26.1842,3.8358 M27.0122,9.1898 C26.9852,8.9278 26.8402,8.8098 26.6952,8.6928 C26.6052,9.0998 25.9202,8.9068 26.1082,9.4188 C26.5012,9.3768 26.8952,9.3358 27.0122,9.1898 M25.4862,11.0768 C25.5132,11.3388 25.2642,11.4978 25.5412,11.6018 C25.5132,11.3388 25.7622,11.1798 25.4862,11.0768 M24.1112,6.8408 C24.3952,5.7488 24.8372,4.9068 25.7142,4.4158 C25.4312,5.5078 24.6992,6.1148 24.1112,6.8408 M24.6352,11.8298 C24.3742,11.8568 24.3592,11.7258 24.0972,11.7538 C24.1252,12.0158 24.0062,12.1618 24.0352,12.4228 C24.5732,12.4998 24.5322,12.1058 24.6352,11.8298 M23.9802,6.8538 C23.4342,7.9738 22.8872,9.0928 22.0382,9.8468 C22.4392,8.6088 23.1432,7.7388 23.9802,6.8538 M22.0382,9.8468 C22.0522,9.9768 22.0662,10.1078 21.9202,9.9908 C21.9202,9.9908 21.9072,9.8598 22.0382,9.8468 M19.4942,20.9968 C19.5072,21.1278 19.5212,21.2598 19.5352,21.3908 C20.0872,21.5988 19.9912,20.6808 19.4942,20.9968 M18.3452,25.2318 C18.0842,25.2598 17.8212,25.2878 17.9792,25.5368 C18.2552,25.6408 18.3742,25.4958 18.3452,25.2318 M24.5182,9.4528 L24.3872,9.4668 C24.2972,9.8738 23.9182,10.0468 23.9592,10.4398 L23.8282,10.4538 C21.3532,14.6958 19.0512,19.3188 17.4752,24.5278 C17.3442,24.5418 17.3582,24.6728 17.3582,24.6728 C17.1092,24.8318 17.3852,24.9348 17.3582,24.6728 C17.4892,24.6588 17.4892,24.6588 17.4752,24.5278 C18.1042,24.1968 18.0212,23.4088 18.5042,22.9598 L18.5182,23.0908 C19.0582,23.1668 19.2932,22.8768 19.3822,22.4698 C18.8572,22.5248 18.8992,22.9178 18.5042,22.9598 C19.5352,18.8698 22.5072,14.3098 23.9592,10.4398 C24.0762,10.2958 24.3382,10.2678 24.6012,10.2408 C24.5742,9.9778 24.5462,9.7148 24.5182,9.4528 C25.0302,9.2658 25.2512,8.8448 25.4722,8.4228 C26.2942,7.4078 27.8352,5.6528 28.0912,4.2978 C27.1662,5.5898 25.9492,6.6468 25.4722,8.4228 C25.0912,8.5968 24.5942,8.9128 24.5182,9.4528 M16.7622,31.6368 C16.5012,31.6638 16.3822,31.8098 16.3962,31.9418 C16.6592,31.9138 16.7762,31.7688 16.7622,31.6368 M15.5612,30.3028 C15.5332,30.0408 16.2162,30.2338 16.3212,29.9578 C16.0372,28.5278 16.8742,27.6428 17.3022,26.6698 C17.3782,26.1308 16.7632,26.5938 16.8392,26.0548 C17.2332,26.0128 17.4962,25.9848 17.7582,25.9578 C17.7172,25.5648 17.3102,25.4738 16.9022,25.3838 C16.7852,25.5288 16.8122,25.7928 16.8392,26.0548 C16.1632,27.1868 15.7122,29.2248 15.5612,30.3028 M15.3122,30.4638 C15.2092,30.7388 14.8702,31.3058 15.1462,31.4088 C15.2632,31.2648 15.5882,30.5668 15.3122,30.4638 M14.5102,35.4578 C14.2612,35.6168 14.2472,35.4848 14.2202,35.2238 C14.3362,35.0768 14.2952,34.6838 14.5302,34.3938 C14.9382,34.4838 15.1252,34.9948 15.4012,35.0998 C15.3732,34.8358 15.9122,34.9118 15.8712,34.5188 C15.5812,34.2838 15.2422,34.8498 15.2012,34.4558 C15.1872,34.3248 15.1872,34.3248 15.1732,34.1928 C15.6982,34.1388 14.9732,33.5518 15.1732,34.1928 C14.3442,33.8828 14.9312,33.1578 14.8902,32.7628 C13.8192,33.9378 14.0742,35.1048 13.5832,36.7498 C13.8462,36.7228 13.8602,36.8538 14.1232,36.8268 C14.0952,36.5628 14.0812,36.4318 14.0532,36.1698 C14.4472,36.1288 14.4062,35.7338 14.5102,35.4578 M13.8882,37.1158 C13.7562,37.1298 13.6252,37.1428 13.3622,37.1708 C13.2452,37.3168 13.1962,38.1178 13.4722,38.2208 C13.5492,37.6828 14.0872,37.7588 13.8882,37.1158 M13.4382,39.1548 C13.1752,39.1818 13.1482,38.9188 13.0022,38.8028 C12.7682,39.0918 12.6292,40.3008 13.3892,39.9558 C13.2032,39.4448 13.2172,39.5758 13.4382,39.1548 M12.4632,41.2468 C12.5052,41.6418 12.0072,41.9588 12.5462,42.0358 C12.3872,41.7868 12.8712,41.3368 12.4632,41.2468 M11.8962,45.9528 C11.3572,45.8768 11.8412,45.4268 11.5502,45.1928 C12.4562,44.9648 11.9932,44.3498 12.7392,43.8728 C11.1232,43.6448 11.5922,45.5868 11.1642,46.5608 C11.5852,46.7818 11.7932,46.2298 11.8962,45.9528 M10.9342,53.2208 C10.8312,53.4978 10.4642,53.8018 11.0032,53.8778 C10.8452,53.6288 11.4732,53.2988 10.9342,53.2208 M10.4652,51.2798 C10.3962,50.6228 10.6722,50.7268 10.8322,50.9758 C10.7902,50.5818 11.3292,50.6578 11.1422,50.1458 C10.8792,50.1738 10.7352,50.0568 10.5892,49.9398 C11.1012,49.7538 11.0592,49.3588 10.8872,48.9788 C11.0042,48.8348 11.2532,48.6748 11.3712,48.5298 C11.4602,48.1218 11.2742,47.6108 10.9982,47.5068 C10.9082,47.9158 10.9212,48.0468 11.2262,48.4118 C10.3202,48.6398 10.2232,50.2428 10.4652,51.2798 M10.2782,55.8118 C10.3332,56.3368 9.9182,57.4428 10.4432,57.3878 C10.1262,56.8898 11.0792,55.8608 10.2782,55.8118 M10.0362,52.2538 C9.9192,52.3978 9.8572,53.0698 10.2512,53.0278 C9.9472,52.6618 10.4582,52.4748 10.0362,52.2538 M7.1542,58.9278 C7.0512,59.2038 6.9192,59.2188 6.8022,59.3628 C7.2232,59.5838 7.5482,58.8868 7.1542,58.9278 M6.8572,59.8888 C6.7532,60.1648 6.6632,60.5718 7.3062,60.3718 C7.2782,60.1098 7.1332,59.9928 6.8572,59.8888 M6.8092,60.6898 C6.7322,61.2278 6.4622,62.4518 6.8702,62.5418 C6.5812,62.3068 7.6372,61.0008 6.8092,60.6898 M6.0392,74.8408 C6.1982,75.0888 6.0052,75.7728 6.2672,75.7448 C6.0812,75.2338 6.8272,74.7578 6.0392,74.8408 M3.3362,83.2208 C3.1772,82.9728 3.1642,82.8418 2.9012,82.8688 C2.9292,83.1308 2.9572,83.3928 3.0872,83.3798 C3.0742,83.2478 3.2052,83.2338 3.3362,83.2208 M2.8522,88.7138 C3.0182,87.7668 3.2392,87.3458 3.0392,86.7038 C3.3772,86.1368 3.1642,85.3628 3.1982,84.4308 C2.8592,84.9958 2.8532,86.1918 3.0392,86.7038 C2.3822,86.7718 2.2862,88.3748 2.8522,88.7138 M2.7202,91.2498 C2.5202,90.6078 3.1902,90.6698 2.7272,90.0548 C2.9902,90.0268 3.1692,89.2108 2.6302,89.1358 C2.7002,89.7918 2.3682,89.1628 2.1062,89.1908 C2.1612,89.7158 2.5692,89.8058 2.7272,90.0548 C2.2302,90.3708 2.1682,91.0408 2.7202,91.2498 M2.0142,97.1628 C2.2772,97.1358 2.0012,97.0328 2.0142,97.1628 C1.6212,97.2048 2.2152,97.8068 2.0142,97.1628 M16.2372,36.7368 C16.3682,36.7228 16.3542,36.5918 16.3402,36.4598 C16.2102,36.4738 16.2232,36.6058 16.2372,36.7368 C15.9602,36.6338 16.0572,37.5528 16.3062,37.3928 C16.7202,38.8088 15.6002,40.7858 15.2552,42.5468 C12.8482,55.0108 9.7092,68.0838 8.9402,79.7118 C8.7882,83.3118 9.3812,86.4338 8.2342,90.6708 C9.5752,90.7938 7.7852,92.7078 8.7452,93.0058 C8.8002,93.5308 8.2752,93.5858 8.1852,93.9928 C8.4132,94.8978 8.8962,99.4928 8.0112,101.1778 C8.8602,105.4698 7.2362,108.9578 8.2312,113.3668 C7.1312,114.2798 6.2472,113.4428 5.3152,113.4088 C5.2602,112.8828 5.0732,112.3708 4.9002,111.9918 C4.3762,112.0468 5.2882,113.1448 4.4722,112.9658 C4.4452,112.7038 4.2722,112.3228 4.3762,112.0468 C2.5312,110.9128 1.0182,107.8868 1.0462,105.6278 C-0.4648,89.9918 4.5742,78.5778 3.8852,64.4488 C4.4322,58.2848 4.6812,53.0818 4.2822,46.7528 C5.2232,38.0268 3.8082,28.3528 4.7692,21.0848 C4.1072,17.3058 4.5912,14.3338 3.7072,10.9758 C6.6162,9.6078 10.0572,12.0348 10.1262,15.2128 C10.3662,21.2928 10.2132,27.4148 10.3232,33.5098 C9.8122,33.6958 10.3922,34.1658 9.7492,34.3658 C10.2192,36.3068 10.2812,38.1598 9.9902,40.4458 C13.1012,29.6338 15.9212,18.5858 21.9202,9.9908 C17.6912,17.7348 14.3322,26.1848 12.0642,34.9188 C11.9882,35.4578 12.6032,34.9948 12.3952,35.5478 C11.4492,35.3808 11.0132,37.5508 11.6342,38.4138 C10.2872,39.4858 9.6782,43.7968 10.0582,46.1458 C11.9322,37.4548 15.2572,27.4158 18.0902,19.0208 C18.2362,19.1378 18.3812,19.2548 18.5262,19.3738 C18.4022,18.1918 19.9992,16.9628 19.4042,16.3618 C19.9022,16.0438 20.4902,15.3178 20.5242,14.3848 C22.5142,10.5918 24.9672,7.4148 27.1182,3.8708 C29.1152,1.4048 32.6662,-0.1652 35.5412,1.9228 C35.5682,2.1858 35.4502,2.3308 35.1732,2.2278 C36.3972,2.4958 37.3842,3.0568 38.2552,3.7608 C37.6812,4.6188 38.8912,4.7568 39.2092,5.2538 C41.4062,8.4748 40.1192,16.4398 38.3762,20.0738 C38.1692,20.6268 37.4102,20.9728 37.0712,21.5388 C35.9642,23.6468 35.8962,25.5118 34.4592,26.9908 C32.8142,29.0208 31.2992,31.0378 29.0472,32.3368 C28.4182,32.6688 27.8252,32.0668 27.7622,32.7378 C24.8122,31.1898 21.1512,26.6618 24.4062,23.5338 C24.2402,24.4808 24.2812,24.8748 23.9982,25.9668 C24.1082,27.0168 25.4692,26.0768 25.0822,27.4448 C31.2942,22.1468 37.5222,11.9348 33.7642,3.9688 C32.8592,4.1958 32.3402,5.5788 31.3942,5.4118 C23.8752,14.6968 20.3562,25.4198 16.4372,37.3788 L16.3062,37.3928 C16.2642,36.9988 16.5412,37.1018 16.2372,36.7368" id="Fill-7" fill="#325C2A" mask="url(#mask-7)"></path>
                </g>
            </g>
        </g>
    </g>
</svg>