<?xml version="1.0" encoding="UTF-8"?>
<svg width="137px" height="128px" viewBox="0 0 137 128" version="1.1" xmlns="http://www.w3.org/2000/svg" xmlns:xlink="http://www.w3.org/1999/xlink">
    <!-- Generator: Sketch 51.3 (57544) - http://www.bohemiancoding.com/sketch -->
    <title>naked_go</title>
    <desc>Created with Sketch.</desc>
    <defs>
        <polygon id="path-1" points="0 0.398910435 65.8572 0.398910435 65.8572 127 0 127"></polygon>
        <polygon id="path-3" points="0.2086 0.287 66.6064978 0.287 66.6064978 117.953217 0.2086 117.953217"></polygon>
    </defs>
    <g id="Page-1" stroke="none" stroke-width="1" fill="none" fill-rule="evenodd">
        <g id="A4" transform="translate(-79.000000, -376.000000)">
            <g id="naked_go" transform="translate(79.000000, 375.000000)">
                <g id="Group-3" transform="translate(0.000000, 1.713000)">
                    <mask id="mask-2" fill="white">
                        <use xlink:href="#path-1"></use>
                    </mask>
                    <g id="Clip-2"></g>
                    <path d="M62.0542,52.1718 C62.1372,51.5878 62.6762,51.2438 63.3872,51.1688 C63.1472,51.6258 63.0802,52.3518 62.0542,52.1718 Z M60.2432,51.3558 C60.2732,51.6408 60.1012,51.3698 59.9592,51.3848 C59.9442,51.2428 60.2282,51.2138 60.2432,51.3558 Z M58.2742,53.1438 C57.8472,53.1888 57.4212,53.2338 57.4502,53.5188 C57.8922,53.6148 58.3192,53.5698 58.2742,53.1438 Z M57.3682,54.1028 C57.2852,54.6858 58.0122,54.7538 57.9522,54.1848 C57.8102,54.1998 57.6532,54.0718 57.3682,54.1028 Z M57.2792,53.2488 C56.8522,53.2928 56.5682,53.3228 56.5972,53.6088 C56.8822,53.5778 57.4802,53.8028 57.2792,53.2488 Z M47.3732,72.5518 C47.3582,72.4088 47.1862,72.1398 46.9162,72.3128 C47.0732,72.4398 46.9612,72.7388 47.2452,72.7088 C47.2452,72.7088 47.2312,72.5668 47.3732,72.5518 Z M46.6242,73.6368 C46.5272,74.0788 46.1002,74.1238 46.2872,74.5348 C47.0282,74.7448 47.0512,73.5918 46.6242,73.6368 Z M46.8042,67.1478 C47.0592,66.8328 46.8572,66.2788 46.5582,66.1668 C46.4452,66.4668 46.0182,66.5118 46.2212,67.0648 C46.5052,67.0348 46.6482,67.0198 46.8042,67.1478 Z M46.5802,65.0138 C46.1012,65.9268 45.6372,64.2508 46.5212,64.4438 C46.6922,64.7148 46.1542,65.0588 46.5802,65.0138 Z M45.9942,75.8598 C45.8672,76.0178 45.7402,76.1738 45.9272,76.5858 C46.3842,76.8248 46.2642,75.6888 45.9942,75.8598 Z M46.0622,77.8658 C46.2792,78.5628 45.2452,79.6768 46.0162,80.1718 C45.8152,79.6168 46.8332,78.3598 46.0622,77.8658 Z M45.2402,70.0438 C45.2842,70.4698 45.0752,71.2118 45.7562,70.8528 C45.8382,70.2688 45.5392,70.1558 45.2402,70.0438 Z M44.8782,85.7548 C45.0202,85.7398 45.3052,85.7098 45.2902,85.5678 C45.1472,85.5828 44.8632,85.6118 44.8782,85.7548 Z M44.7382,72.1098 C44.8652,71.9518 44.8502,71.8098 44.8202,71.5258 C45.0902,71.3548 45.1942,72.3498 44.7382,72.1098 Z M44.9522,86.4658 C44.9382,86.3238 44.9082,86.0398 44.6382,86.2118 C44.6542,86.3548 44.6832,86.6388 44.8252,86.6238 C44.8252,86.6238 44.8102,86.4818 44.9522,86.4658 Z M45.0122,89.7678 C44.5712,89.6708 44.7582,90.0818 44.4882,90.2538 C45.0722,90.3368 44.8852,89.9248 45.0122,89.7678 Z M44.9612,82.4398 C45.8292,82.4918 45.9202,80.6128 45.4782,80.5158 C45.1702,81.6988 44.5492,82.6258 44.3852,83.7948 C45.2532,83.8468 45.0362,83.1508 44.9612,82.4398 Z M44.3232,91.4218 C44.4662,91.4058 44.6082,91.3918 44.6082,91.3918 C44.5932,91.2488 44.7202,91.0928 44.8622,91.0778 C44.8622,91.0778 44.8472,90.9368 44.8322,90.7928 C44.6902,90.8078 44.5482,90.8218 44.4062,90.8368 C44.4212,90.9808 44.4212,90.9808 44.2782,90.9958 C44.2932,91.1378 44.3082,91.2788 44.3232,91.4218 Z M43.8912,79.1008 C44.1372,80.0808 43.9952,80.0958 43.9282,80.8218 C44.5642,80.0358 45.3512,77.9418 44.8042,76.8488 C44.8202,76.9898 44.8492,77.2758 44.5502,77.1628 C44.9242,77.9858 44.2732,78.6298 43.8912,79.1008 Z M44.1302,84.1088 C44.2042,84.8198 43.7782,84.8638 43.8382,85.4338 C44.2642,85.3898 44.6992,84.0488 44.1302,84.1088 Z M43.7552,86.0178 C43.8982,86.0018 44.0402,85.9868 44.0252,85.8448 C43.8982,86.0018 43.7402,85.8748 43.7552,86.0178 Z M43.7842,94.4978 C43.9262,94.4828 43.9412,94.6248 43.9712,94.9088 C43.8142,94.7828 43.5142,94.6698 43.7842,94.4978 Z M43.8592,92.4768 C43.7322,92.6338 43.0802,93.2768 43.6792,93.5028 C43.6492,93.2178 44.4582,92.7018 43.8592,92.4768 Z M42.9692,88.1118 C42.6842,88.1428 42.9842,88.2558 42.9692,88.1118 C43.1112,88.0978 43.0962,87.9558 43.0812,87.8138 C43.3512,87.6418 43.2912,87.0718 43.5452,86.7578 C42.9772,86.8178 43.0362,87.3868 43.0812,87.8138 C42.9392,87.8278 42.9542,87.9708 42.9692,88.1118 Z M42.7982,82.3788 C43.2542,82.6188 43.3062,81.7508 43.0222,81.7798 C42.8952,81.9388 42.9102,82.0798 42.7682,82.0948 C42.7682,82.0948 42.7832,82.2358 42.7982,82.3788 Z M43.0582,88.9668 C43.0292,88.6818 42.8712,88.5548 42.5872,88.5848 C42.7592,88.8548 42.6462,89.1528 42.9312,89.1228 C42.9162,88.9818 42.9012,88.8388 43.0582,88.9668 Z M43.0332,106.5118 C42.6072,106.5568 42.4792,106.7138 42.4942,106.8558 C42.7792,106.8258 42.9212,106.8108 43.0332,106.5118 Z M44.5542,94.9918 C44.3672,94.5798 43.9262,94.4828 43.8512,93.7718 C43.2672,93.6898 43.7992,94.6408 43.2152,94.5578 C43.1852,94.2738 43.4702,94.2428 43.4252,93.8168 C42.3912,94.9328 43.3262,96.9898 42.4952,98.6588 C42.5112,98.8018 42.7952,98.7728 42.8102,98.9138 C42.1662,100.9948 42.8462,103.3678 42.4052,106.0028 L42.6892,105.9738 C42.7042,106.1148 42.8612,106.2408 43.0042,106.2268 C43.0412,105.2168 42.7792,104.0938 43.5432,103.1508 C42.3532,101.4068 44.1352,99.2068 43.1992,97.1488 C43.4692,96.9758 43.8282,97.6568 43.9102,97.0728 C43.4242,96.5488 43.9182,95.7778 43.9712,94.9088 C44.1142,94.8948 44.2702,95.0228 44.5542,94.9918 Z M42.8242,107.2538 C42.0972,107.1848 42.4562,107.8648 42.7712,108.1208 C42.7262,107.6938 43.0112,107.6638 42.8242,107.2538 Z M42.2182,54.9758 C42.5922,55.7998 44.1272,55.3498 44.4932,54.7358 C44.9352,54.8338 44.8522,55.4178 45.4222,55.3578 C45.3922,55.0728 45.2042,54.6618 45.4892,54.6318 C46.1482,55.4258 47.5252,54.8498 48.7752,54.4308 C48.5582,53.7338 49.2542,53.5178 49.1952,52.9478 C49.4642,52.7758 49.1652,52.6638 49.1952,52.9478 C47.3612,53.2848 44.2092,54.7668 42.2182,54.9758 Z M42.3042,83.1498 C42.4382,84.4298 42.3862,85.2988 42.0932,86.6238 C43.0592,86.2348 42.4532,84.5708 42.7752,83.5308 C43.3442,83.4718 42.7532,84.6858 43.3212,84.6248 C43.3592,83.6138 44.4592,81.7738 43.8302,81.2648 C43.4642,81.8778 43.5542,82.7308 43.1572,83.0598 C42.9992,82.9338 42.4302,82.9928 42.3042,83.1498 Z M42.1672,92.7988 C42.1822,92.9418 41.9282,93.2548 42.2272,93.3668 C42.3392,93.0678 42.4672,92.9108 42.1672,92.7988 Z M42.6612,89.2958 C42.0932,89.3558 41.9952,89.7968 41.9132,90.3808 C42.4672,90.1798 42.7362,90.0068 42.6612,89.2958 Z M41.7972,115.2708 C42.2542,115.5088 42.3062,114.6408 41.8792,114.6858 C41.8942,114.8268 41.9092,114.9698 41.7662,114.9848 C41.7662,114.9848 41.7822,115.1268 41.7972,115.2708 Z M41.8392,86.9378 C42.0412,87.4908 41.3742,87.9918 41.9732,88.2168 C41.9442,87.9328 42.5502,86.8628 41.8392,86.9378 Z M41.6882,90.9798 C41.8302,90.9648 41.9732,90.9498 41.9582,90.8078 C41.8152,90.8218 41.6732,90.8368 41.6882,90.9798 Z M41.6872,96.4438 C42.0622,97.2678 41.0432,98.5238 42.2262,98.8318 C41.7552,98.4488 42.7432,96.9068 41.6872,96.4438 Z M42.0822,112.5068 C41.9402,112.5228 41.6552,112.5518 41.5122,112.5678 C41.5572,112.9938 41.8572,113.1068 41.6022,113.4208 C42.1722,113.3598 42.1272,112.9338 42.0822,112.5068 Z M41.8282,107.3588 C41.6862,107.3728 41.4022,107.4028 41.4172,107.5448 C41.7162,107.6558 41.0942,108.5848 41.9332,108.3538 C41.7312,107.7988 41.8882,107.9258 41.8282,107.3588 Z M41.2812,108.9958 C41.3112,109.2798 42.0232,109.2058 41.8502,108.9368 C41.8352,108.7948 41.3932,108.6968 41.2812,108.9958 Z M41.5962,111.9838 C41.1842,112.1698 41.1392,111.7438 41.0792,111.1748 C41.5062,111.1298 41.4232,111.7148 41.5962,111.9838 Z M41.7632,91.6908 C41.6212,91.7058 41.3222,91.5928 41.2092,91.8928 C41.7932,91.9758 40.4302,92.6928 41.2992,92.7458 C41.3962,92.3048 41.9652,92.2448 41.7632,91.6908 Z M41.2672,103.3898 C40.6542,103.0238 40.9612,101.8398 41.6422,101.4828 C41.4322,102.2228 41.6642,103.0608 41.2672,103.3898 Z M41.2672,100.6568 C41.1262,100.6728 41.1112,100.5308 40.9692,100.5458 C40.9532,100.4028 40.9382,100.2618 40.9242,100.1188 C41.0812,100.2468 41.2082,100.0888 41.1932,99.9458 C41.6192,99.9008 41.3952,100.5008 41.2672,100.6568 Z M41.5962,55.9038 C41.5812,55.7618 41.5672,55.6188 41.5522,55.4778 C41.2522,55.3638 41.2822,55.6488 40.8562,55.6928 C40.7592,56.1348 41.3122,55.9338 41.5962,55.9038 Z M41.3442,93.1728 C40.8872,92.9328 40.2212,93.4348 40.8352,93.8018 C40.8042,93.5168 41.5462,93.7268 41.3442,93.1728 Z M41.4262,95.3208 C40.5732,95.4108 40.6472,96.1218 40.5652,96.7058 C41.1182,96.5038 41.2012,95.9198 41.4262,95.3208 Z M40.4522,97.0048 C40.4682,97.1468 40.4822,97.2888 40.4972,97.4318 C40.9532,97.6708 40.8492,96.6758 40.4522,97.0048 Z M40.4442,55.8808 C40.4592,56.0238 40.2042,56.3378 40.5042,56.4488 C40.4742,56.1648 40.7432,55.9928 40.4442,55.8808 Z M40.1452,98.1878 C39.7192,98.2328 39.3822,99.1308 39.9512,99.0708 C39.7492,98.5168 40.3472,98.7418 40.1452,98.1878 Z M39.5982,102.5588 C39.7102,102.2588 39.8382,102.1028 39.9502,101.8028 C40.2502,101.9148 40.0402,102.6558 39.5982,102.5588 Z M39.1872,100.0138 C39.4562,99.8418 39.1722,99.8718 39.1872,100.0138 C38.9172,100.1858 39.2022,100.1558 39.1872,100.0138 Z M39.8902,56.0828 C39.4632,56.1278 39.0362,56.1728 38.9092,56.3298 C38.8422,57.0568 40.0932,56.6378 39.8902,56.0828 Z M40.0202,90.1498 C40.0122,91.4438 39.7202,92.7678 38.5442,93.8998 C38.5892,94.3248 38.6492,94.8948 39.2182,94.8338 C39.5772,92.7818 41.1492,91.3248 41.1352,88.4498 C41.6592,87.9628 41.5252,86.6838 41.8762,85.9268 C41.1952,86.2858 41.3002,87.2808 40.8052,88.0528 C41.0902,88.0228 40.9782,88.3208 41.1352,88.4498 C40.3112,88.8238 41.2842,89.8718 40.0202,90.1498 Z M38.2142,104.4308 C38.2432,104.7148 37.8162,104.7598 38.0182,105.3128 C38.7602,105.5238 38.6552,104.5268 38.2142,104.4308 Z M38.6702,56.7868 C38.6552,56.6438 38.6402,56.5018 38.6252,56.3588 C38.3412,56.3898 38.3252,56.2478 38.1832,56.2628 C38.3702,56.6738 37.6302,56.4638 37.8312,57.0188 C38.1312,57.1308 38.0862,56.7028 38.6702,56.7868 Z M37.7642,102.8958 C37.9072,102.8808 38.0492,102.8658 38.0492,102.8658 C38.3182,102.6928 38.2882,102.4078 37.8622,102.4528 C37.8622,102.4528 37.8772,102.5968 37.7352,102.6108 C37.7492,102.7528 37.7492,102.7528 37.7642,102.8958 Z M37.4872,107.0948 C36.9182,107.1538 36.5062,107.3418 36.5662,107.9108 C37.0222,108.1498 37.2322,107.4078 37.4872,107.0948 Z M36.0872,106.0918 C36.2292,106.0758 36.2442,106.2178 36.3712,106.0618 C36.3422,105.7768 36.0572,105.8078 36.0872,106.0918 Z M37.2412,97.9168 C36.3052,98.5908 35.9152,100.3578 35.8482,101.0838 C37.0392,100.0958 37.1292,98.2168 38.0052,96.9758 C37.7352,97.1468 37.5932,97.1608 37.4212,96.8928 C37.8182,96.5628 37.8472,96.8478 38.2742,96.8028 C38.2002,96.0918 38.4842,96.0618 38.5362,95.1928 C38.8212,95.1628 38.5212,95.0508 38.5362,95.1928 C37.5852,95.7248 36.8372,96.8098 37.2412,97.9168 Z M36.0202,101.3538 C35.7362,101.3828 35.6092,101.5408 35.6382,101.8248 C35.9232,101.7948 36.0502,101.6378 36.0202,101.3538 Z M38.7382,98.4798 C37.6522,100.4628 36.4092,102.3178 35.9382,104.6698 C35.7962,104.6848 35.6682,104.8408 35.6682,104.8408 C35.2112,104.6018 35.3012,105.4548 35.5862,105.4258 C35.5562,105.1418 35.6982,105.1258 35.6682,104.8408 C35.8102,104.8258 35.8102,104.8258 35.9382,104.6698 C37.0082,102.5428 37.8402,100.8748 38.8802,98.4648 C39.9282,97.4918 40.1082,96.4658 40.2432,95.0138 C40.9842,95.2238 41.0072,94.0698 40.2962,94.1458 C39.8762,95.6268 38.9852,96.7278 38.8802,98.4648 L38.7382,98.4798 Z M35.2332,111.6458 C35.1202,111.9438 35.0912,111.6598 34.9492,111.6748 C34.9342,111.5318 35.2182,111.5028 35.2332,111.6458 Z M34.7552,101.6308 C34.7852,101.9148 34.8002,102.0568 34.8152,102.1998 C35.2722,102.4388 35.1672,101.4428 34.7552,101.6308 Z M35.4732,105.7258 C34.9042,105.7848 34.8222,106.3668 34.5682,106.6828 C34.9792,106.4948 35.2342,106.1818 35.4732,105.7258 Z M34.6502,103.3658 C35.3622,103.2918 35.1442,102.5958 35.6992,102.3938 C34.8602,102.6258 34.3892,102.2438 34.1642,102.8418 C34.5902,102.7968 35.0472,103.0368 34.6502,103.3658 Z M34.5302,107.6928 C34.6572,107.5358 34.6422,107.3938 34.2002,107.2958 C34.2162,107.4388 34.2302,107.5808 34.1032,107.7368 C34.2452,107.7228 34.3872,107.7078 34.5302,107.6928 Z M34.6952,103.7928 C34.4552,104.2498 34.2242,103.4108 33.8422,103.8828 C33.9022,104.4518 34.3132,104.2648 34.6282,104.5198 C34.7552,104.3618 34.7252,104.0768 34.6952,103.7928 C34.9652,103.6218 34.6652,103.5088 34.6952,103.7928 Z M34.3582,104.6918 C33.7742,104.6098 33.1232,105.2528 33.7372,105.6198 C33.6772,105.0508 34.5602,105.2458 34.3582,104.6918 Z M33.5262,109.0928 C33.3852,109.1078 33.3852,109.1078 33.3992,109.2498 L33.2572,109.2648 C33.2722,109.4058 32.9052,110.0208 33.3322,109.9758 C33.4592,109.8178 33.4292,109.5338 33.3992,109.2498 C33.5412,109.2348 33.5412,109.2348 33.5262,109.0928 C33.6692,109.0768 33.6542,108.9358 33.7962,108.9208 C33.9242,108.7628 33.6242,108.6508 33.7962,108.9208 C33.6392,108.7918 33.5122,108.9508 33.5262,109.0928 Z M33.4522,105.6498 C33.1682,105.6798 33.0262,105.6938 32.8842,105.7088 C32.9292,106.1358 32.5322,106.4648 33.1152,106.5468 C33.3702,106.2328 33.6552,106.2028 33.4522,105.6498 Z M32.7032,106.7348 C32.7482,107.1608 32.9202,107.4308 33.2202,107.5428 C33.3022,106.9598 33.0032,106.8468 32.7032,106.7348 Z M32.4402,116.5398 C32.4402,116.5398 32.4102,116.2568 32.5532,116.2408 C32.5682,116.3828 32.5832,116.5248 32.4402,116.5398 Z M32.4792,107.3328 C32.3372,107.3478 32.1942,107.3618 32.0532,107.3778 C32.0972,107.8058 32.0292,108.5308 32.5842,108.3298 C32.3822,107.7758 32.3822,107.7758 32.4792,107.3328 Z M31.8482,117.7528 C31.8632,117.8948 31.7212,117.9098 31.5782,117.9248 C31.5642,117.7828 31.7062,117.7688 31.8482,117.7528 Z M31.5732,108.2908 C31.7012,108.1338 31.9992,108.2458 31.9702,107.9618 C31.8432,108.1188 31.5432,108.0068 31.5732,108.2908 Z M31.0712,110.3568 C31.1692,109.9158 30.7572,110.1028 30.5852,109.8328 C30.7712,110.2448 30.0752,110.4608 30.6602,110.5438 C30.6452,110.4008 30.9292,110.3718 31.0712,110.3568 Z M30.2912,119.3548 C30.4192,119.1968 30.5462,119.0398 30.8302,119.0108 C30.7182,119.3098 30.5762,119.3238 30.2912,119.3548 Z M30.2102,114.4748 C30.3372,114.3178 30.4942,114.4438 30.4642,114.1588 C30.3372,114.3178 30.1802,114.1898 30.2102,114.4748 Z M29.3952,12.3218 C28.6692,12.2548 29.0812,12.0688 28.8642,11.3718 C29.3052,11.4698 29.2232,12.0538 29.3952,12.3218 Z M28.5572,12.5548 C28.5722,12.6968 28.5872,12.8398 28.6022,12.9818 C28.6022,12.9818 28.4592,12.9958 28.3172,13.0108 C28.3032,12.8688 28.2872,12.7268 28.2722,12.5838 C28.4142,12.5688 28.5572,12.5548 28.5572,12.5548 Z M28.5252,121.6958 C28.5402,121.8388 28.5402,121.8388 28.5542,121.9818 C28.4122,121.9968 28.2702,122.0118 28.2702,122.0118 C28.2552,121.8688 28.2552,121.8688 28.2402,121.7268 C28.2402,121.7268 28.3832,121.7118 28.5252,121.6958 Z M28.1002,9.5828 C27.9892,9.8828 28.7972,9.3658 28.6552,9.3808 C28.4972,9.2538 28.1002,9.5828 28.1002,9.5828 Z M27.9122,14.6358 C28.0552,14.6198 28.0552,14.6198 28.1972,14.6058 C28.1972,14.6058 28.0702,14.7618 27.9122,14.6358 Z M27.4782,15.9758 C27.5232,16.4008 27.2392,16.4308 26.9542,16.4608 C26.9392,16.3188 27.0662,16.1618 27.0512,16.0208 C27.1942,16.0048 27.3362,15.9898 27.4782,15.9758 Z M27.1412,16.8738 C27.1712,17.1568 26.9992,16.8888 26.8572,16.9028 C26.8422,16.7608 27.1262,16.7318 27.1412,16.8738 Z M25.5252,17.9048 C25.5392,18.0478 25.3972,18.0638 25.2552,18.0778 C25.2402,17.9358 25.3972,18.0638 25.5252,17.9048 Z M25.2772,22.3898 C25.3222,22.8168 24.8802,22.7198 25.0672,23.1308 C25.5082,23.2288 25.7182,22.4868 25.2772,22.3898 Z M25.1732,18.6608 C25.2322,19.2308 25.4422,18.4898 25.7412,18.6018 C25.6292,18.9008 25.5162,19.2008 24.9482,19.2608 C24.6342,19.0068 24.7162,18.4228 25.3002,18.5048 C25.3152,18.6468 25.1732,18.6608 25.1732,18.6608 Z M25.0592,24.4258 C24.8722,24.0148 25.5082,23.2288 24.7972,23.3028 C24.8722,24.0148 24.0042,23.9608 24.4902,24.4848 C24.6322,24.4708 24.9172,24.4408 25.0592,24.4258 Z M23.5702,19.8368 C23.5552,19.6938 23.8252,19.5228 23.8102,19.3798 C24.2372,19.3348 23.8702,19.9488 23.5702,19.8368 Z M23.7032,29.3138 C23.5912,29.6118 23.3222,29.7848 23.7632,29.8818 C23.7332,29.5978 24.0032,29.4258 23.7032,29.3138 Z M23.4872,25.8858 C23.3592,26.0418 23.2472,26.3418 23.4192,26.6108 C23.8612,26.7078 23.6592,26.1538 23.6292,25.8698 L23.7722,25.8558 C23.8992,25.6978 24.1382,25.2408 23.6972,25.1448 C23.5842,25.4428 23.5992,25.5858 23.6292,25.8698 L23.4872,25.8858 Z M22.2442,27.7408 C22.0342,28.4818 21.4952,28.8258 21.4282,29.5528 C22.1392,29.4778 23.1422,28.0778 22.2442,27.7408 Z M20.2602,32.1198 C20.5442,32.0898 20.6862,32.0748 20.8292,32.0608 C20.7992,31.7758 20.7842,31.6328 20.7542,31.3498 C21.3232,31.2888 21.1212,30.7348 21.3752,30.4208 C20.6502,30.3538 20.7092,30.9218 20.7542,31.3498 C20.4852,31.5208 20.2152,31.6928 20.2602,32.1198 Z M20.1022,34.7258 C20.2442,34.7098 20.3872,34.6948 20.3722,34.5518 C20.2292,34.5668 20.0872,34.5818 20.1022,34.7258 Z M20.1482,32.4188 C19.8932,32.7348 20.1102,33.4298 20.6642,33.2278 C20.4922,32.9578 20.4472,32.5318 20.1482,32.4188 Z M20.1322,35.0088 C20.0202,35.3078 19.8782,35.3218 19.7652,35.6228 C20.2072,35.7208 20.5742,35.1068 20.1322,35.0088 Z M19.9392,30.4278 C19.9832,30.8548 19.3992,30.7718 19.6012,31.3258 C20.0432,31.4238 20.3802,30.5258 19.9392,30.4278 Z M20.0122,33.8708 C19.9982,33.7298 19.9832,33.5868 19.9832,33.5868 C19.8412,33.6018 19.6982,33.6158 19.5562,33.6318 C19.5562,33.6318 19.5712,33.7748 19.5862,33.9158 C19.7282,33.9008 19.8702,33.8858 20.0122,33.8708 Z M19.5482,34.9268 C19.2642,34.9568 19.2342,34.6718 19.0922,34.6868 C18.9802,34.9858 18.8372,35.0018 18.7102,35.1578 C19.1522,35.2558 19.3092,35.3828 19.5482,34.9268 Z M19.1812,35.5408 C18.8972,35.5708 18.4702,35.6148 18.6422,35.8848 C18.9272,35.8558 19.0542,35.6968 19.1812,35.5408 Z M18.6582,126.3278 C18.6432,126.1858 18.6282,126.0438 18.6282,126.0438 C18.4862,126.0598 18.3442,126.0738 18.3442,126.0738 C18.3442,126.0738 18.3592,126.2158 18.3742,126.3588 C18.3742,126.3588 18.5162,126.3438 18.6582,126.3278 Z M17.7742,41.2958 C17.7592,41.1528 17.7442,41.0118 17.4592,41.0418 C17.4742,41.1838 17.5042,41.4688 17.6612,41.5968 C17.6462,41.4538 17.6312,41.3118 17.7742,41.2958 Z M18.0132,43.5708 C17.7282,43.6018 17.3162,43.7888 17.2192,44.2308 C17.6762,44.4698 18.0732,44.1408 18.0132,43.5708 Z M17.4682,34.2818 C16.8842,34.1998 17.2952,34.0138 17.3932,33.5708 C17.8352,33.6688 17.2952,34.0138 17.4682,34.2818 Z M17.3692,40.1888 C17.3552,40.0468 17.3402,39.9028 17.3402,39.9028 C17.1972,39.9178 17.0552,39.9328 17.0552,39.9328 C17.0552,39.9328 17.0702,40.0758 17.0852,40.2178 C17.0852,40.2178 17.2272,40.2028 17.3692,40.1888 Z M17.5562,43.3318 C17.3692,42.9198 17.4812,42.6208 17.6092,42.4638 C17.3242,42.4928 17.2942,42.2088 16.9942,42.0968 C17.0392,42.5238 16.6282,42.7108 16.6732,43.1378 C17.0842,42.9498 17.1292,43.3768 17.5562,43.3318 Z M17.1452,40.7868 C16.5602,40.7048 16.6052,41.1318 16.6352,41.4158 C17.0772,41.5138 17.0332,41.0868 17.1452,40.7868 Z M16.9212,35.9218 C16.7792,35.9368 16.7632,35.7948 16.6212,35.8098 C16.6062,35.6658 16.5922,35.5248 16.5762,35.3818 C16.8612,35.3528 16.8912,35.6368 16.9212,35.9218 Z M16.5682,42.1418 C16.5542,41.9998 16.5542,41.9998 16.5382,41.8578 C16.3962,41.8718 16.2542,41.8878 16.1122,41.9018 C16.1272,42.0448 16.1272,42.0448 16.1412,42.1868 C16.2832,42.1718 16.4262,42.1558 16.5682,42.1418 Z M15.3562,38.8188 C15.3712,38.9608 15.3862,39.1028 15.4012,39.2448 C15.2592,39.2598 15.0872,38.9898 15.3562,38.8188 Z M15.1982,44.1548 C16.0812,44.3508 16.1032,43.1968 15.7752,42.8008 C15.7442,42.5168 16.8972,42.5378 16.4412,42.2988 C16.1572,42.3288 15.8722,42.3588 15.5882,42.3888 C15.8042,43.0848 15.5652,43.5408 15.1532,43.7278 C15.4382,43.6978 15.3252,43.9978 15.1982,44.1548 Z M15.0342,39.8588 C14.4802,40.0608 14.3902,39.2068 14.9742,39.2898 C14.9902,39.4318 15.0192,39.7168 15.0342,39.8588 Z M14.5692,46.3778 C15.4522,46.5718 15.4302,44.9928 15.2282,44.4398 C15.2582,44.7238 14.6742,44.6418 14.7032,44.9268 C15.3182,45.2918 14.5092,45.8098 14.5692,46.3778 Z M14.6742,47.3728 C14.6582,47.2318 14.6292,46.9468 14.3592,47.1198 C14.3742,47.2618 14.2622,47.5608 14.5462,47.5298 C14.5462,47.5298 14.5322,47.3878 14.6742,47.3728 Z M14.0312,43.9898 C14.1732,43.9748 14.1872,44.1168 14.3452,44.2448 C14.0602,44.2758 13.9182,44.2898 14.0312,43.9898 Z M13.8952,48.1748 C13.9102,48.3168 13.9252,48.4588 13.9402,48.6018 C14.3962,48.8408 14.2922,47.8458 13.8952,48.1748 Z M13.4372,53.3988 C13.3552,53.9838 14.0812,54.0498 14.1642,53.4678 C13.7372,53.5128 13.7222,53.3688 13.4372,53.3988 Z M13.3562,45.7868 C13.3712,45.9298 13.5142,45.9138 13.4992,45.7718 L13.3562,45.7868 Z M13.5882,43.8928 C13.1472,43.7958 13.3422,42.9118 13.4842,42.8978 C14.0532,42.8368 13.6862,43.4508 13.5882,43.8928 Z M13.6992,57.2548 C13.2722,57.2988 13.1452,57.4568 13.1902,57.8828 C13.6312,57.9808 13.4452,57.5678 13.6992,57.2548 Z M14.1122,51.6028 C14.3142,52.1568 14.7552,52.2538 14.5302,52.8538 C15.2572,52.9198 14.8832,52.0978 15.2802,51.7678 C14.2992,52.0148 14.5382,51.5578 14.7632,50.9588 C14.0372,50.8918 13.9392,51.3338 13.3562,51.2508 C13.1982,51.1228 13.1832,50.9818 13.1682,50.8388 C13.4082,50.3828 14.4262,49.1258 13.6852,48.9158 C13.6182,49.6418 12.1872,51.0858 13.3562,51.2508 C13.4302,51.9618 13.6842,51.6478 14.1122,51.6028 Z M13.6092,56.4008 C13.1982,56.5878 13.0402,56.4608 12.8832,56.3328 C13.0702,56.7448 12.9882,57.3288 13.6842,57.1118 C13.6692,56.9698 13.6392,56.6858 13.6092,56.4008 Z M12.7632,55.1958 C12.9062,55.1818 13.0482,55.1658 13.0332,55.0238 C12.8902,55.0388 12.7492,55.0538 12.7632,55.1958 Z M12.6372,49.8878 C12.6072,49.6038 12.4952,49.9018 12.6372,49.8878 C12.7942,50.0168 12.9212,49.8588 12.6372,49.8878 Z M12.5612,57.3738 C12.7032,57.3588 12.9882,57.3288 12.9732,57.1868 C12.8452,57.3438 12.5472,57.2318 12.5612,57.3738 Z M13.5202,52.8168 C13.5052,52.6728 13.5052,52.6728 13.6472,52.6578 C13.7602,52.3588 13.4752,52.3888 13.3332,52.4028 C13.2732,51.8348 13.0862,51.4238 12.5322,51.6258 C12.5622,51.9098 12.4352,52.0668 12.4502,52.2088 C12.8622,52.0218 12.9062,52.4478 13.3332,52.4028 C13.3472,52.5458 13.3782,52.8308 13.5202,52.8168 Z M12.4792,52.4928 C12.2102,52.6658 12.2552,53.0928 12.8092,52.8908 C12.7792,52.6058 12.6222,52.4788 12.4792,52.4928 Z M12.3832,47.4708 C12.3982,47.6118 12.2562,47.6268 12.1142,47.6428 C12.0982,47.5008 12.2412,47.4848 12.3832,47.4708 Z M12.2782,54.6718 C12.0602,53.9758 12.8012,54.1848 12.7562,53.7588 C12.4712,53.7878 12.4272,53.3608 11.8732,53.5638 C12.0752,54.1168 11.6342,54.0208 11.8352,54.5738 C11.9782,54.5598 12.1352,54.6868 12.2782,54.6718 Z M12.0522,60.7348 C12.0362,60.5928 12.0362,60.5928 12.0212,60.4498 C12.0212,60.4498 11.8792,60.4648 11.7372,60.4798 C11.7522,60.6218 11.7522,60.6218 11.7662,60.7638 L12.0522,60.7348 Z M12.0662,60.8768 C12.4412,61.6998 11.5432,61.3628 11.7602,62.0598 C12.1862,62.0148 12.6802,61.2438 12.0662,60.8768 Z M11.9332,48.6678 C11.3502,48.5858 11.8742,48.0998 11.8442,47.8148 C12.5552,47.7398 11.9182,48.5258 11.9332,48.6678 Z M12.1502,54.8278 C11.4242,54.7618 11.1622,56.3708 12.0002,56.1388 C12.2552,55.8238 12.2102,55.3978 12.1502,54.8278 Z M11.7402,49.5518 C11.4552,49.5818 11.4252,49.2968 11.3802,48.8708 C11.9332,48.6678 11.7092,49.2668 11.7402,49.5518 Z M11.8742,45.3668 C11.9042,45.6508 11.9192,45.7948 11.9342,45.9368 C11.7922,45.9508 11.6492,45.9658 11.3662,45.9958 C11.3512,45.8548 11.3362,45.7108 11.3362,45.7108 C11.4772,45.6958 11.4632,45.5548 11.5902,45.3968 C11.5902,45.3968 11.7322,45.3818 11.8742,45.3668 Z M10.9292,58.2648 C11.2812,57.5088 11.2882,58.9448 11.6852,58.6158 C11.6252,58.0468 11.5512,57.3358 12.1192,57.2758 C12.0752,56.8498 11.8052,57.0218 11.8872,56.4378 C11.4612,56.4828 11.0342,56.5268 10.7652,56.6998 C11.4382,57.6358 10.1582,57.7708 10.9292,58.2648 Z M11.3202,48.3018 C11.1932,48.4588 10.9232,48.6298 10.6382,48.6598 C10.7662,48.5038 10.7362,48.2198 10.7062,47.9348 C11.0062,48.0468 11.0202,48.1898 11.3202,48.3018 Z M10.9212,62.2918 C10.7792,62.3068 10.4952,62.3358 10.3522,62.3518 C10.5402,62.7628 10.5702,63.0468 11.0112,63.1448 C10.9512,62.5758 10.6672,62.6058 10.9212,62.2918 Z M10.9742,58.6918 C10.2632,58.7658 10.3532,59.6178 10.2702,60.2018 C11.5652,60.2098 10.7492,59.2888 10.9742,58.6918 Z M10.5042,50.1118 C10.5042,50.1118 10.5192,50.2558 10.5342,50.3978 C10.3922,50.4118 10.2492,50.4268 10.1072,50.4428 C10.0922,50.3008 10.0772,50.1568 10.0772,50.1568 C10.2192,50.1418 10.3622,50.1268 10.5042,50.1118 Z M9.8202,69.5968 C9.8492,69.8808 9.6252,70.4798 10.0522,70.4348 C9.7222,70.0388 10.5312,69.5218 9.8202,69.5968 Z M10.7272,60.4428 C10.4432,60.4728 10.1582,60.5028 9.8732,60.5318 C9.7762,60.9738 9.6792,61.4158 9.5812,61.8568 C10.1202,61.5128 10.3462,60.9128 10.7272,60.4428 Z M9.9872,54.7688 C10.0022,54.9108 10.0162,55.0528 10.0472,55.3378 C9.9042,55.3528 9.7622,55.3668 9.6202,55.3828 C9.6052,55.2398 9.4482,55.1118 9.4182,54.8278 C9.5602,54.8138 9.7022,54.7978 9.9872,54.7688 Z M9.8372,53.3468 C9.4102,53.3918 9.3812,53.1068 9.3502,52.8218 C9.6362,52.7918 9.8072,53.0618 9.8372,53.3468 Z M9.5742,57.6878 C9.6042,57.9718 9.3052,57.8598 9.1782,58.0168 C9.1472,57.7328 9.4472,57.8458 9.5742,57.6878 Z M9.5212,64.0198 C9.3192,63.4668 10.2022,63.6598 10.0002,63.1078 C9.5592,63.0098 9.6042,63.4378 9.1622,63.3388 C9.0642,63.7798 9.2222,63.9078 9.5212,64.0198 Z M9.2352,72.2458 C9.1382,72.6888 9.0252,72.9868 9.0852,73.5558 C9.7962,73.4808 9.6612,72.2008 9.2352,72.2458 Z M9.3332,71.8048 C9.3182,71.6628 9.3032,71.5208 9.2882,71.3778 C9.1462,71.3928 9.0042,71.4078 8.8612,71.4228 C8.8762,71.5658 8.8912,71.7078 8.9062,71.8498 C9.0492,71.8348 9.1902,71.8188 9.3332,71.8048 Z M8.7302,48.2858 C8.7452,48.4288 8.7602,48.5698 8.7752,48.7128 C8.6332,48.7278 8.4912,48.7428 8.4912,48.7428 C8.4752,48.6008 8.4612,48.4588 8.4462,48.3168 C8.4462,48.3168 8.5882,48.3008 8.7302,48.2858 Z M8.4292,59.1018 C8.5712,59.0868 8.7282,59.2148 8.7432,59.3578 C8.3162,59.4008 8.3012,59.2588 8.4292,59.1018 Z M8.5632,65.8468 C8.3612,65.2928 8.8032,65.3898 8.7732,65.1058 L8.9142,65.0898 C9.0422,64.9338 9.1542,64.6338 8.8542,64.5218 C8.8692,64.6628 8.7432,64.8208 8.7732,65.1058 C8.3312,65.0088 8.1212,65.7488 8.5632,65.8468 Z M8.5772,71.4528 C8.5622,71.3108 8.5622,71.3108 8.5472,71.1688 C8.4042,71.1838 8.2622,71.1978 8.2622,71.1978 C8.2772,71.3398 8.2772,71.3398 8.2922,71.4828 C8.2922,71.4828 8.4342,71.4678 8.5772,71.4528 Z M8.4662,60.8228 C8.1822,60.8538 8.1522,60.5678 8.1222,60.2848 C8.2792,60.4118 8.4362,60.5378 8.4662,60.8228 Z M8.3232,66.3028 C8.4122,67.1568 8.0152,67.4848 7.9332,68.0688 C8.3452,67.8828 8.9522,66.8128 8.3232,66.3028 Z M8.2942,57.8218 C8.1372,57.6938 8.1072,57.4098 7.9212,56.9988 C8.3772,57.2378 8.5342,57.3658 8.2942,57.8218 Z M8.3252,58.1068 C7.9132,58.2928 8.4592,59.3868 7.8902,59.4458 C7.6732,58.7508 7.9282,58.4358 7.8682,57.8668 C8.0252,57.9948 8.1822,58.1208 8.3252,58.1068 Z M7.5742,75.5848 C7.5882,75.7268 7.4612,75.8838 7.5062,76.3108 C8.0752,76.2508 8.1422,75.5248 7.5742,75.5848 Z M7.5672,68.6838 C7.5972,68.9678 7.3272,69.1398 7.3572,69.4248 C7.7992,69.5228 8.0082,68.7798 7.5672,68.6838 Z M7.5882,78.4588 C7.1462,78.3608 7.3482,78.9158 7.0782,79.0878 C7.5052,79.0428 7.6332,78.8858 7.5882,78.4588 Z M7.2132,80.3678 C7.2132,80.3678 7.1982,80.2258 7.1832,80.0838 C7.1832,80.0838 7.0412,80.0988 6.8982,80.1128 C6.9132,80.2548 6.9282,80.3978 6.9282,80.3978 C7.0712,80.3828 7.2132,80.3678 7.2132,80.3678 Z M7.2232,59.9468 C8.0772,59.8578 7.8002,61.3248 7.2312,61.3848 C6.9022,60.9878 6.6702,60.1508 7.2232,59.9468 Z M7.1512,90.7278 C7.1512,90.7278 7.1372,90.5848 7.1212,90.4428 C6.9792,90.4568 6.8372,90.4728 6.8372,90.4728 C6.8522,90.6148 6.8672,90.7578 6.8672,90.7578 C6.8672,90.7578 7.0092,90.7418 7.1512,90.7278 Z M7.2892,72.8828 C7.4982,72.1408 6.8172,72.5008 6.9152,72.0588 C7.2002,72.0288 7.3112,71.7298 7.5962,71.6998 C7.5662,71.4148 7.3942,71.1458 7.1102,71.1758 C7.0122,71.6168 6.6002,71.8048 6.6602,72.3728 C6.9452,72.3428 6.9902,72.7698 7.2892,72.8828 Z M6.5122,65.4868 C6.4292,66.0708 7.4252,65.9668 7.0802,65.4268 C7.9492,65.4798 6.8492,64.5888 7.0802,65.4268 C6.9382,65.4428 6.7962,65.4568 6.5122,65.4868 Z M7.0292,63.5628 C6.8862,63.5768 6.6012,63.6078 6.3182,63.6378 C6.4292,63.3378 6.5562,63.1818 6.5122,62.7548 C6.6842,63.0248 6.9842,63.1368 7.0292,63.5628 Z M6.6592,75.1058 C6.4282,74.2678 7.7612,73.2648 6.7352,73.0838 C6.4952,73.5408 6.5702,74.2528 6.1582,74.4388 C6.4582,74.5508 6.2482,75.2918 6.6592,75.1058 Z M6.1062,75.3078 C6.0092,75.7488 6.3082,75.8598 6.5922,75.8308 C6.6902,75.3908 6.2782,75.5768 6.1062,75.3078 Z M6.1722,82.7768 C5.9182,83.0918 5.8212,83.5338 6.2772,83.7728 C6.1052,83.5048 6.6142,82.8748 6.1722,82.7768 Z M6.0582,91.2728 C5.3402,89.9108 6.7032,86.4608 5.7982,84.6868 C6.0522,87.1048 5.0112,89.5148 5.4902,91.3328 C5.4602,91.0488 5.7742,91.3028 6.0582,91.2728 Z M5.3122,81.4308 C5.7682,81.6698 5.6792,80.8168 5.4092,80.9888 C5.4242,81.1308 5.4242,81.1308 5.2822,81.1458 C5.2972,81.2888 5.3122,81.4308 5.3122,81.4308 Z M5.2002,73.5328 C5.4852,73.5038 5.4032,74.0878 5.9572,73.8848 C5.9122,73.4588 5.1712,73.2478 5.2002,73.5328 Z M5.0022,93.5408 C5.0772,94.2518 4.6812,94.5818 4.8982,95.2778 C5.6242,95.3448 5.0472,93.9678 5.0022,93.5408 Z M4.7272,81.3488 C5.4392,81.2748 4.9082,80.3218 5.8212,80.8018 C6.0542,78.9078 5.9042,77.4848 6.4652,75.9878 C5.5302,76.6618 4.6682,78.0458 5.6562,79.2368 C5.2292,79.2818 5.4542,78.6838 5.0282,78.7288 C5.1332,79.7238 4.8922,80.1798 4.7272,81.3488 C4.6012,81.5048 4.7572,81.6318 4.7272,81.3488 Z M4.6692,75.3148 C4.9692,75.4268 4.7592,76.1678 5.3122,75.9658 C4.9392,75.1428 5.8222,75.3368 5.6202,74.7838 C5.3202,74.6698 5.3502,74.9548 5.2232,75.1128 C4.9242,74.9998 4.7812,75.0158 4.6692,75.3148 Z M4.8462,96.1468 C4.7482,96.5868 4.3962,97.3428 4.7102,97.5988 C4.8082,97.1558 5.5862,96.3558 4.8462,96.1468 Z M5.3082,103.2878 C5.2332,102.5758 4.6492,102.4938 5.1582,101.8648 C4.8742,101.8948 4.9712,101.4528 4.5602,101.6398 C4.4772,102.2238 4.3802,102.6658 4.4702,103.5198 C5.0542,103.6008 5.0392,103.4588 5.3082,103.2878 Z M4.7012,109.8208 C5.0142,112.8078 5.6502,117.4858 7.3872,120.3238 C5.6882,116.4768 5.9952,112.5618 4.8432,109.8068 C5.2322,108.0398 5.0232,106.0498 4.3582,103.8178 C4.4392,105.9658 4.1622,107.4338 4.8432,109.8068 L4.7012,109.8208 Z M5.0692,101.0118 C4.8672,100.4578 5.6302,99.5148 5.1442,98.9898 C5.0772,99.7168 4.4032,98.7808 4.3212,99.3638 C4.3662,99.7918 4.3282,100.8018 5.0692,101.0118 Z M6.9152,66.5948 C6.6322,66.6248 6.7282,66.1828 6.4442,66.2128 C6.1752,66.3858 6.3922,67.0808 5.8382,67.2828 C5.8232,67.1418 5.5382,67.1708 5.5232,67.0278 C5.3062,66.3318 5.7182,66.1468 6.3022,66.2278 C6.5272,65.6288 5.7182,66.1468 5.6732,65.7188 C6.3852,65.6438 5.9802,64.5368 6.2202,64.0788 C6.6612,64.1768 7.0662,65.2838 7.5602,64.5138 C6.6762,64.3178 7.5152,64.0868 7.9272,63.8998 C7.7102,63.2038 7.2832,63.2488 6.7822,62.5818 C7.0522,62.4108 7.0362,62.2688 7.3052,62.0958 C7.3502,62.5228 7.7772,62.4778 8.2042,62.4328 C8.2272,61.2798 9.0352,60.7638 8.7432,59.3578 C8.7432,59.3578 8.8862,59.3418 9.0282,59.3268 C9.4092,58.8558 9.6342,58.2558 10.0012,57.6428 C9.5142,57.1178 9.8972,56.6468 10.2482,55.8918 C10.6302,55.4208 10.9972,54.8068 10.7362,53.6828 C10.7062,53.3988 11.3042,53.6228 11.2592,53.1968 C10.6162,52.5458 12.0902,51.5278 11.6722,50.2768 C12.1132,50.3748 12.0832,50.0908 12.3672,50.0618 C12.1662,49.5068 12.1662,49.5068 12.5772,49.3198 C12.5332,48.8928 12.2332,48.7808 12.3162,48.1958 C12.7422,48.1518 13.1542,47.9658 13.2662,47.6648 C13.1242,47.6808 12.8392,47.7098 12.8252,47.5678 C13.3642,47.2248 13.5742,46.4828 13.7832,45.7418 C13.6412,45.7568 13.6412,45.7568 13.4992,45.7718 C13.4692,45.4858 13.1252,44.9478 13.5522,44.9028 C13.7082,45.0308 13.9922,45.0008 14.2772,44.9708 C14.2622,44.8278 14.2472,44.6858 14.3892,44.6708 C14.3752,44.5288 14.3602,44.3868 14.3452,44.2448 C14.7572,44.0578 14.2402,43.2488 14.2102,42.9648 C14.7342,42.4788 14.6292,41.4828 15.1992,41.4228 C14.5992,41.1988 15.5952,41.0948 15.5502,40.6668 C14.5102,40.3458 15.6332,40.0828 15.4012,39.2448 C15.5432,39.2308 15.5432,39.2308 15.6852,39.2148 C15.7382,38.3468 16.1202,37.8748 16.8902,38.3688 C16.8162,37.6578 16.9582,37.6438 16.7562,37.0888 C17.4522,36.8718 17.3402,37.1718 17.9382,37.3968 C17.7282,38.1378 17.2052,38.6248 17.1372,39.3508 C18.1032,38.9608 17.9832,37.8228 18.1632,36.7968 C17.5642,36.5728 17.2652,36.4608 16.8382,36.5058 C17.0782,36.0498 17.5052,36.0048 17.9472,36.1018 C18.1182,36.3708 18.2762,36.4978 18.5752,36.6098 C18.5302,36.1838 18.3732,36.0568 17.9472,36.1018 C17.9022,35.6758 17.3472,35.8768 17.4152,35.1508 C18.0142,35.3748 17.7972,34.6798 18.5532,35.0308 C18.3502,34.4768 19.1072,34.8298 19.0472,34.2608 C18.4182,33.7508 18.1262,35.0758 17.7522,34.2528 C18.6052,34.1628 18.5312,33.4518 18.4862,33.0258 C18.7702,32.9948 18.9122,32.9808 19.1972,32.9498 C19.3472,31.6408 19.2802,29.6338 20.7022,29.4848 C20.4402,28.3618 20.4932,27.4938 21.8032,27.6448 C21.4432,26.9618 21.3682,26.2508 22.2662,26.5888 C22.4172,25.2788 22.6342,23.2428 24.1392,22.5088 C24.0942,22.0818 23.3232,21.5888 23.8462,21.1018 C24.2592,20.9148 23.7802,21.8278 24.3182,21.4848 C24.6862,20.8698 25.0222,19.9718 24.8352,19.5598 C25.3222,20.0838 27.0812,19.0358 26.2812,18.2588 C27.5152,17.6958 28.4892,16.0128 28.1972,14.6058 C28.2792,14.0218 27.8672,14.2098 27.6962,13.9398 C27.6662,13.6548 27.7782,13.3558 28.0482,13.1838 C28.2492,13.7368 28.4372,14.1498 29.0202,14.2318 C29.7392,12.8608 29.7252,9.9868 31.4162,9.6658 C31.6562,9.2088 32.0382,8.7368 32.0912,7.8688 C31.2072,7.6748 30.9302,9.1418 30.4072,9.6288 C25.8992,13.2658 24.2222,19.1928 20.6432,23.4518 C20.0062,26.9698 17.3262,28.8328 16.6892,32.3518 C15.1322,33.9528 14.8182,36.4298 13.7172,38.2718 C13.5752,38.2858 13.5602,38.1438 13.4182,38.1588 C13.7392,39.8508 11.8672,41.1978 11.9352,43.2038 C11.6352,43.0918 11.6652,43.3758 11.5232,43.3908 C10.2652,47.8368 8.9912,52.1408 7.1792,56.7888 C7.5242,57.3278 7.2242,57.2158 7.2992,57.9268 C6.4912,58.4428 6.7672,59.7078 6.5722,60.5908 C6.4302,60.6068 6.2872,60.6208 6.0042,60.6508 C6.8492,61.8568 4.9182,62.6348 6.0182,63.5258 C5.7482,63.6968 5.4642,63.7278 5.1942,63.9008 C5.3142,65.0368 5.6882,65.8608 4.6252,66.6918 C4.9102,66.6608 5.0672,66.7888 5.2392,67.0588 C4.8572,67.5308 4.6172,67.9858 4.5352,68.5708 C4.6782,68.5558 4.9622,68.5258 4.9922,68.8098 C4.7222,68.9828 4.4682,69.2968 4.1982,69.4688 C4.7002,70.1348 3.8612,70.3658 4.2652,71.4748 C4.9912,71.5418 4.1462,70.3368 4.7152,70.2768 C4.9992,70.2468 4.9172,70.8308 5.3282,70.6438 C5.5532,70.0448 5.3062,69.0648 5.4332,68.9078 C6.1442,68.8328 5.4552,70.4868 6.1662,70.4128 C6.1072,69.8438 6.0622,69.4168 6.5332,69.7988 C6.5862,68.9298 5.4042,68.6228 5.7702,68.0088 C6.2122,68.1078 6.2722,68.6748 6.6992,68.6298 C6.6242,67.9188 6.5642,67.3518 7.1182,67.1488 C7.0882,66.8638 6.9452,66.8788 6.9152,66.5948 C7.3432,66.5498 6.5572,65.9138 6.9152,66.5948 Z M4.8042,76.5948 C4.7742,76.3108 4.7592,76.1678 4.7432,76.0258 C4.3172,76.0698 4.0332,76.0998 4.0632,76.3848 C4.3622,76.4978 4.3772,76.6398 4.8042,76.5948 Z M4.1362,85.2918 C4.1502,85.4348 4.0092,85.4488 3.8662,85.4648 C3.8522,85.3218 3.9942,85.3068 4.1362,85.2918 Z M4.4232,71.6028 C3.8682,71.8038 3.9662,71.3618 3.6662,71.2498 C3.4572,71.9908 3.8902,73.3828 5.0132,73.1218 C4.5272,72.5978 4.6552,72.4398 4.4232,71.6028 Z M3.4042,72.8588 C3.5462,72.8448 3.6892,72.8288 3.6742,72.6868 C3.5322,72.7018 3.3892,72.7168 3.4042,72.8588 Z M3.9002,111.7758 C3.7582,111.7898 3.6152,111.8048 3.4732,111.8198 C3.5032,112.1058 3.3612,112.1198 3.3762,112.2618 C3.6602,112.2318 3.9442,112.2018 3.9002,111.7758 Z M3.8752,75.9738 C3.8462,75.6898 3.8302,75.5468 3.8012,75.2628 C4.3692,75.2018 4.0252,74.6628 4.2802,74.3488 C3.8082,73.9668 3.2842,74.4538 3.1722,74.7528 C3.5982,74.7078 3.7562,74.8348 3.8012,75.2628 C3.0742,75.1938 3.1792,76.1898 3.8752,75.9738 Z M2.9122,110.5838 C3.0542,110.5688 3.0842,110.8548 3.1962,110.5548 C3.1812,110.4118 2.8822,110.2998 2.9122,110.5838 Z M3.1372,104.5228 C3.0102,104.6788 2.8672,104.6928 2.8832,104.8358 C2.7402,104.8518 2.7252,104.7088 2.5832,104.7238 C2.5682,104.5818 2.7112,104.5678 2.6962,104.4248 C2.8382,104.4088 2.8522,104.5518 3.1372,104.5228 Z M2.6012,85.7408 C2.5722,85.4568 2.4592,85.7558 2.6012,85.7408 C2.7732,86.0108 2.8862,85.7108 2.6012,85.7408 Z M2.8262,82.4098 C3.3802,82.2088 3.1632,81.5128 3.5752,81.3238 C2.8342,81.1148 3.3282,80.3448 3.4262,79.9018 C2.9692,79.6628 2.6842,79.6928 2.4292,80.0078 C3.1042,80.9428 2.8792,81.5428 2.8262,82.4098 Z M3.0542,107.8388 C2.6282,107.8828 2.8002,108.1518 2.3442,107.9128 C3.5412,108.3618 2.2382,109.6498 3.1512,110.1288 C3.1892,109.1188 3.5862,108.7888 3.0542,107.8388 Z M2.6512,103.9978 C2.5092,104.0128 2.4932,103.8698 2.3512,103.8848 C2.3372,103.7428 2.3222,103.6018 2.3222,103.6018 C2.5912,103.4298 2.6212,103.7138 2.6512,103.9978 Z M3.0902,78.0688 C2.5352,78.2708 2.4532,78.8548 2.2282,79.4538 C2.7972,79.3948 2.8802,78.8098 3.1042,78.2108 C3.0212,78.7948 3.1792,78.9228 3.5912,78.7348 C3.0452,77.6428 4.3772,76.6398 3.0372,76.2038 C2.4982,76.5498 3.7562,77.5678 2.5872,77.4028 C2.5052,77.9868 3.1722,77.4838 3.0902,78.0688 Z M2.4342,100.5688 C2.4492,100.7118 2.3072,100.7278 2.1652,100.7418 C2.1502,100.5998 2.3072,100.7278 2.4342,100.5688 Z M2.2022,102.4628 C1.6332,102.5228 2.3142,102.1638 2.1422,101.8938 C2.7262,101.9778 2.3142,102.1638 2.2022,102.4628 Z M3.3802,87.6718 C3.3422,88.6828 2.5782,89.6258 2.5112,90.3528 C2.5112,90.3528 2.8402,90.7488 2.8552,90.8908 C3.0192,92.4558 1.7692,95.6078 1.7762,97.0438 C1.9482,97.3138 1.9782,97.5978 2.1502,97.8668 C1.2002,98.3978 2.3592,99.8588 1.4242,100.5308 C1.4842,101.1008 1.9102,101.0558 2.0972,101.4678 C1.8132,101.4978 1.6712,101.5128 1.5132,101.3848 C2.0222,103.4888 2.2312,105.4798 2.2992,107.4848 C2.5832,107.4548 2.8672,107.4258 3.0102,107.4108 C3.0472,106.4008 3.0472,106.4008 3.2422,105.5188 C2.8152,105.5638 2.7032,105.8608 2.6732,105.5778 C3.5942,104.7618 3.1902,103.6528 2.6582,102.7028 C3.0852,102.6578 3.3552,102.4848 3.4822,102.3278 C3.2802,101.7748 3.2502,101.4898 3.6322,101.0188 C3.1902,100.9218 3.1452,100.4948 2.8462,100.3818 C3.9622,98.6838 2.8462,94.9178 4.2472,93.1898 C4.0602,92.7768 3.8582,92.2228 3.6562,91.6708 C3.9402,91.6408 4.0822,91.6258 4.3522,91.4518 C3.3792,90.4048 4.3152,89.7318 4.2252,88.8778 C3.7982,88.9228 3.3712,88.9678 3.3262,88.5408 C3.7532,88.4958 3.9112,88.6218 4.2112,88.7358 C3.8062,87.6268 4.6442,87.3968 4.8842,86.9398 C4.9672,86.3558 4.4122,86.5578 4.2402,86.2868 C4.4952,85.9748 4.4652,85.6898 5.0492,85.7718 C4.8622,85.3598 4.8022,84.7908 4.6152,84.3798 C4.8852,84.2058 5.5212,83.4208 4.9072,83.0548 C5.0792,83.3238 4.6982,83.7958 4.6672,83.5108 C4.7352,82.7848 5.3042,82.7258 5.3712,81.9998 C4.9452,82.0448 4.6312,81.7888 4.2192,81.9758 C4.2942,82.6868 3.8962,83.0168 3.6422,83.3308 C3.9642,85.0228 3.3872,86.3768 3.3802,87.6718 Z M0.9692,92.0958 C0.2952,91.1598 0.4302,89.7078 0.5652,88.2548 C1.3812,89.1768 0.7212,91.1148 0.9692,92.0958 Z M0.7892,93.1208 C0.6472,93.1358 0.4742,92.8668 0.3322,92.8818 C0.4442,92.5818 0.5572,92.2818 0.9842,92.2368 C0.8712,92.5368 0.7592,92.8368 0.7892,93.1208 Z M23.9962,27.9878 C24.1682,28.2578 24.4822,28.5128 25.0362,28.3118 C25.4552,29.5608 24.3172,29.6808 23.9502,30.2938 C23.9722,31.8728 23.3362,32.6578 22.5582,33.4598 C22.9172,34.1418 22.3252,35.3538 21.4872,35.5858 C21.5322,36.0128 21.8162,35.9828 21.8462,36.2668 C21.4202,36.3118 21.4502,36.5958 21.0082,36.4978 C21.0532,36.9258 21.0822,37.2098 21.1122,37.4938 C20.8272,37.5248 20.6862,37.5388 20.5292,37.4108 C20.1322,37.7408 21.0452,38.2218 20.0342,38.1828 C20.1912,38.3108 20.3342,38.2958 20.6182,38.2658 C19.6152,39.6638 19.1212,40.4358 19.0312,42.3148 C18.4472,42.2328 17.9082,42.5758 17.9532,43.0028 C19.1352,43.3098 17.6982,46.0488 16.8892,46.5658 C17.3382,48.1008 16.1932,49.5138 15.8032,51.2818 C15.1072,51.4978 15.9012,50.8388 15.3312,50.8998 C15.1902,50.9138 15.2052,51.0568 15.0622,51.0708 C16.1622,51.9628 14.9572,52.8088 14.8222,54.2598 C14.6352,53.8488 14.4782,53.7218 13.9392,54.0648 C13.9692,54.3498 14.1112,54.3348 14.2682,54.4628 C14.4712,55.0168 14.3662,54.0198 14.8222,54.2598 C14.6052,56.2958 13.6692,56.9698 13.6242,59.2748 C13.4972,59.4328 13.0702,59.4778 12.6432,59.5228 C13.3912,61.1688 12.2902,63.0098 11.8872,64.6348 C11.4602,64.6798 11.3472,64.9788 10.7642,64.8958 C10.9662,65.4498 10.5692,65.7788 10.8842,66.0328 C11.7372,65.9438 10.9362,65.1648 11.4902,64.9638 C12.1482,65.7578 11.1902,67.5838 10.8532,68.4818 C10.9872,69.7608 10.4862,71.8268 9.8942,73.0398 C10.2602,75.1588 8.7632,77.3298 9.2412,79.1478 C9.1592,79.7318 8.8452,79.4778 8.4032,79.3798 C8.9352,80.3308 8.2232,80.4048 8.8382,80.7718 C8.7172,82.3668 8.2382,83.2798 7.4592,84.0808 C7.9312,84.4618 7.5722,83.7808 8.1412,83.7208 C8.1862,84.1478 8.2312,84.5738 8.2752,85.0008 C7.7212,85.2028 7.9162,84.3198 7.3622,84.5218 C7.1082,84.8368 8.0212,85.3158 8.3502,85.7118 C7.1972,88.4218 8.2742,90.4658 7.0922,92.8908 C7.2562,94.4548 7.5772,96.1458 6.7162,97.5298 C6.9332,98.2278 7.2252,99.6348 6.3872,99.8658 C6.5742,100.2778 6.7452,100.5478 7.2022,100.7868 C6.5512,104.1628 7.1942,107.5468 7.4402,111.2588 C9.3482,117.0978 10.0582,125.2208 18.3882,123.7688 C24.1762,119.9968 27.9042,114.4288 30.5322,107.9698 C30.9452,107.7818 30.8852,107.2138 31.4532,107.1538 C31.4242,106.8688 31.3942,106.5848 31.3642,106.3008 C34.2172,101.9748 35.6392,96.3598 38.4622,91.7498 C39.8932,84.8408 43.5242,79.7148 44.2432,72.8808 C44.5282,72.8508 44.6852,72.9788 44.7302,73.4038 C45.0972,72.7908 45.3062,72.0498 45.5012,71.1668 C45.4862,71.0248 45.2012,71.0538 44.9182,71.0838 C44.7002,70.3878 45.0972,70.0588 44.8802,69.3628 C45.1952,69.6168 46.2052,69.6538 46.1452,69.0858 C45.9142,68.2468 45.5622,69.0028 45.0902,68.6218 C45.0452,68.1938 45.6292,68.2768 46.0562,68.2328 C46.3252,68.0598 46.2952,67.7758 46.2502,67.3488 C45.6822,67.4078 46.0412,68.0898 45.3152,68.0228 C45.5102,67.1398 45.7202,66.3988 45.9292,65.6578 C46.4982,65.5978 46.4002,66.0388 46.9392,65.6938 C47.1792,65.2388 46.7452,63.8468 46.2892,63.6068 C46.4162,63.4488 46.4012,63.3078 46.3712,63.0228 C46.9252,62.8208 46.6022,63.8618 46.8872,63.8318 C47.5242,63.0468 46.2292,63.0368 46.4232,62.1548 C46.8502,62.1098 47.4342,62.1928 47.3892,61.7668 C47.4722,61.1818 46.6782,61.8408 46.6332,61.4128 C46.9552,60.3728 47.6592,58.8608 47.4122,57.8808 L47.5542,57.8648 C47.5402,57.7228 47.4122,57.8808 47.4122,57.8808 C41.8132,59.3318 36.9702,61.1348 31.9172,63.6798 C30.1432,64.5848 28.8252,65.7308 27.3362,66.6058 C26.1162,67.3088 24.8802,67.8698 23.9372,67.1068 C21.5882,61.1708 27.4792,58.3938 32.1272,57.4748 L32.1422,57.6158 C32.2842,57.6018 32.2702,57.4598 32.1272,57.4748 C32.1122,57.3308 32.0822,57.0468 32.0672,56.9048 C32.9362,56.9568 33.2732,56.0598 33.9022,56.5678 C34.1712,56.3968 34.4262,56.0818 34.5382,55.7828 C39.6962,54.2338 45.1532,52.7978 50.3252,51.3918 C54.2332,50.2618 58.4542,49.3858 62.4662,49.2528 C63.6192,49.2758 64.7872,49.4408 65.8572,50.0468 C65.3482,50.6758 63.9712,51.2518 63.3872,51.1688 C62.4742,50.6908 61.6202,50.7798 60.8272,51.4388 C60.7972,51.1538 60.7822,51.0118 60.9092,50.8548 C60.0412,50.8018 59.1882,50.8918 58.9632,51.4898 C58.4092,51.6928 58.6192,50.9508 58.3192,50.8388 C55.9472,51.5198 54.3672,51.5418 52.2632,52.0508 C53.2742,52.0878 54.4872,52.6788 55.1162,53.1888 C54.3892,53.1218 55.3022,53.6008 55.3172,53.7428 C55.8712,53.5408 55.1302,53.3298 55.1162,53.1888 C55.3852,53.0178 55.3552,52.7328 55.4822,52.5738 C55.9242,52.6718 56.9942,53.2778 56.7332,52.1548 C57.1442,51.9698 56.9342,52.7098 56.9642,52.9938 C58.0422,52.3058 59.7492,52.1258 61.7402,51.9168 C61.1342,52.9868 59.1792,52.1858 58.4162,53.1288 C59.2172,53.9078 60.1232,52.9488 61.0062,53.1458 C59.8762,54.7008 58.3562,55.2918 55.8112,55.7038 C57.0762,58.1588 54.7782,59.5508 54.9192,62.2698 C54.5082,62.4558 54.3952,62.7548 54.1262,62.9258 C54.7322,64.5898 54.5142,66.6238 53.0392,67.6428 C52.8822,70.2468 51.6842,72.5298 51.9242,74.8058 C51.4592,75.8608 50.8232,76.6478 50.9872,78.2118 C49.9302,83.2118 48.3132,89.7078 48.0872,95.7718 C47.3842,97.2838 47.9082,99.5288 47.1882,100.8998 C47.5102,102.5908 47.0092,104.6558 46.7612,106.4068 C47.0972,108.2418 47.1652,110.2468 46.7752,112.0138 C46.9322,112.1418 46.9322,112.1418 47.2172,112.1108 C46.8122,116.4678 47.9562,120.5188 48.9732,124.7248 C48.5322,124.6258 48.7342,125.1808 48.4502,125.2108 C47.8662,125.1288 47.6942,124.8598 47.2222,124.4768 C47.0952,124.6338 47.1102,124.7758 47.1402,125.0608 C46.1292,125.0248 45.8382,123.6158 44.9992,123.8488 C44.3782,122.0438 41.9912,122.5828 41.8932,120.2908 C42.2452,119.5358 42.4932,117.7848 41.3252,117.6198 C41.8192,116.8488 41.5572,115.7258 41.4382,114.5878 C41.3932,114.1608 40.8842,114.7898 41.0552,115.0598 C40.5392,114.2508 42.1572,113.2188 40.8022,112.6418 C41.3562,112.4408 41.3112,112.0138 42.0672,112.3648 C41.9772,111.5108 41.6622,111.2568 41.9032,110.7998 C41.1772,110.7338 41.4462,110.5608 40.5622,110.3658 C40.5032,109.7978 40.6152,109.4978 40.7132,109.0558 C40.8552,109.0408 40.8852,109.3248 40.9002,109.4678 C41.5362,108.6828 40.3532,108.3748 40.5032,107.0648 C41.4612,107.9708 40.4362,105.0588 41.5072,105.6648 C41.7092,106.2198 40.9972,106.2938 41.3572,106.9758 C41.7682,106.7888 41.8352,106.0628 41.7762,105.4928 C41.8732,105.0528 41.1922,105.4108 40.8932,105.2988 C40.9902,104.8578 40.9452,104.4308 41.2002,104.1158 C41.9262,104.1838 41.5302,104.5138 41.5892,105.0828 C42.2252,104.2958 41.6192,102.6338 42.0832,101.5788 C42.0692,101.4378 41.7842,101.4668 41.6422,101.4828 C41.4702,101.2118 40.9162,101.4128 40.9982,100.8298 C41.5522,100.6278 41.2002,101.3838 41.8962,101.1668 C42.3232,101.1218 41.6642,100.3278 42.4062,100.5378 C42.1892,99.8418 41.7622,99.8868 42.2562,99.1158 C41.9422,98.8618 41.5072,100.2018 41.0212,99.6778 C41.2612,99.2208 41.0582,98.6668 41.2982,98.2108 C40.3102,99.7518 39.3372,101.4368 39.2312,103.1728 C39.3732,103.1578 39.5012,103.0008 39.6282,102.8428 C39.5462,103.4278 39.6202,104.1388 38.9092,104.2128 C38.8652,103.7858 39.1492,103.7568 38.9622,103.3448 C38.3402,104.2728 39.2162,105.7628 37.9952,106.4668 C37.8082,106.0538 38.3482,105.7098 37.8762,105.3278 C37.4642,105.5168 37.5392,106.2268 37.1282,106.4128 C37.4572,106.8098 37.5842,106.6528 37.9952,106.4668 C37.6742,107.5068 37.0372,108.2918 36.7002,109.1908 C36.4162,109.2208 36.5282,108.9208 36.6552,108.7638 C35.0382,109.7968 34.9932,112.1018 33.5332,113.2628 C33.4512,113.8458 34.0342,113.9288 33.8102,114.5258 C33.3092,113.8598 33.0472,115.4698 32.3362,115.5448 C32.3952,116.1128 33.0162,115.1858 33.0612,115.6118 C33.1062,116.0378 32.9792,116.1968 32.5532,116.2408 C32.2232,115.8438 31.7442,116.7568 31.6322,117.0578 C31.4892,117.0718 31.4592,116.7868 31.4292,116.5028 C31.0482,116.9738 30.6512,117.3038 30.4272,117.9018 C30.8532,117.8578 30.8082,117.4308 31.2802,117.8138 C31.1522,117.9698 31.0252,118.1268 31.4522,118.0818 C31.6532,118.6368 30.9122,118.4258 31.1152,118.9808 C31.1152,118.9808 30.9722,118.9948 30.8302,119.0108 C30.8012,118.7268 30.9422,118.7108 30.7702,118.4418 C30.2312,118.7858 30.1492,119.3688 29.7522,119.6978 C29.7822,119.9828 30.1942,119.7958 30.0822,120.0958 C29.7972,120.1248 29.0862,120.1998 29.5282,120.2978 C29.3182,121.0378 29.2132,120.0418 29.0712,120.0578 C28.4502,120.9848 28.6072,121.1128 27.6862,121.9288 C27.7012,122.0708 27.7312,122.3558 28.0002,122.1838 C25.3872,126.0528 17.6332,128.8808 13.1042,125.4748 C12.5652,125.8178 13.7032,125.6988 13.4642,126.1548 C8.3742,124.2458 4.6242,120.0388 3.0162,114.3128 C3.1962,113.2858 2.6652,112.3358 2.1632,111.6698 C2.1032,111.1008 2.2002,110.6588 2.4402,110.2028 C2.2832,110.0758 1.8872,110.4048 1.5572,110.0078 C1.0262,106.3248 0.8182,101.6028 0.9232,97.1338 C0.9082,96.9908 0.7652,97.0058 0.6382,97.1628 C0.4512,96.7518 0.5642,96.4518 0.9912,96.4068 C0.4592,95.4558 1.2832,95.0818 0.8642,93.8318 C0.4372,93.8768 1.0962,94.6708 0.4962,94.4458 C0.3252,94.1768 0.1672,94.0498 0.2642,93.6078 C0.5192,93.2938 0.4072,93.5928 0.8342,93.5478 C1.5152,90.4568 1.1032,87.9108 2.0702,84.7898 C1.5842,84.2658 1.2912,85.5908 1.0592,84.7538 C0.7002,84.0718 1.7412,84.3938 1.8832,84.3788 C2.0932,83.6378 1.8762,82.9408 2.0412,81.7748 C1.6582,82.2448 1.9062,83.2258 1.5392,83.8388 C0.7832,83.4878 1.2852,81.4218 1.7792,80.6508 C1.9512,80.9208 1.7412,81.6618 2.0262,81.6328 C2.4372,81.4438 1.9212,80.6368 2.3322,80.4488 C2.1312,79.8948 1.9212,80.6368 1.6212,80.5238 C1.1132,78.4198 2.7832,76.5198 2.1322,74.4318 C2.5732,74.5278 2.5132,73.9588 2.7982,73.9288 C2.0792,72.5678 3.7792,70.9508 3.0312,69.3038 C3.1732,69.2888 3.1432,69.0038 3.4422,69.1168 C6.2892,55.1568 10.3782,42.0728 16.2112,30.5318 C16.1802,30.2478 16.1512,29.9628 16.1212,29.6788 C17.5512,28.2348 17.7082,25.6298 19.2962,24.3128 C19.4602,23.1458 19.4832,21.9918 20.5912,21.5888 C20.0902,20.9228 21.4972,20.6298 21.0782,19.3798 C21.2052,19.2228 21.6322,19.1778 21.9312,19.2898 C21.9692,18.2788 22.6202,17.6358 23.2712,16.9928 C23.3012,17.2768 23.4132,16.9788 23.2712,16.9928 C23.8632,15.7788 25.0682,14.9348 25.0312,13.2128 C25.1732,13.1978 25.4582,13.1688 25.4722,13.3108 C26.1912,11.9408 28.1232,11.1608 27.8012,9.4708 C29.4032,8.2958 30.2862,5.7588 32.1062,5.2798 C32.3302,4.6808 32.8172,5.2048 32.5702,4.2238 C34.2022,3.3338 35.3622,2.0618 36.8372,1.0438 C40.9172,0.1838 45.6402,-0.0252 47.9832,1.7408 C47.9752,3.0358 48.9412,2.6478 48.8882,3.5158 C48.9482,4.0848 48.5362,4.2718 48.4392,4.7128 C47.4432,4.8178 46.7922,5.4608 45.9082,5.2668 C40.5272,7.4138 36.8732,10.9618 33.5492,14.9058 C32.7472,16.8588 31.7892,18.6858 30.0452,19.8758 C29.9482,20.3178 29.5362,20.5028 29.4542,21.0878 C29.3412,21.3878 28.9142,21.4328 28.6452,21.6048 C28.1582,23.8128 27.0882,25.9388 25.3882,27.5558 C24.8942,28.3258 24.6622,27.4858 23.9962,27.9878 Z M0.1742,98.2188 C0.1442,97.9358 0.2572,97.6348 0.6982,97.7318 C0.4292,97.9048 0.6162,98.3168 0.1742,98.2188 Z M0.0022,95.2168 C-0.0418,94.7898 0.5412,94.8728 0.5122,94.5888 C0.9532,94.6858 0.4442,95.3148 0.0022,95.2168 Z" id="Fill-1" fill="#EA6A24" mask="url(#mask-2)"></path>
                </g>
                <g id="Group-6" transform="translate(70.000000, 0.713000)">
                    <mask id="mask-4" fill="white">
                        <use xlink:href="#path-3"></use>
                    </mask>
                    <g id="Clip-5"></g>
                    <path d="M63.1836,44.5459 C63.1686,44.4029 63.1686,44.4029 63.1546,44.2619 C63.1546,44.2619 63.0116,44.2759 62.8706,44.2909 C62.8846,44.4329 62.8846,44.4329 62.8996,44.5749 C63.0406,44.5609 63.1836,44.5459 63.1836,44.5459 Z M62.7426,41.7159 C63.2966,41.5139 62.3756,42.3299 62.9596,42.4119 C63.2136,42.0979 63.1096,41.1019 62.7426,41.7159 Z M62.7356,40.2789 C63.0196,40.2489 63.0496,40.5329 63.1626,40.2339 C63.1476,40.0919 62.8626,40.1219 62.7356,40.2789 Z M62.7876,36.6789 C62.5786,37.4199 62.8486,37.2469 62.7946,38.1149 C63.3496,37.9129 63.1026,36.9329 62.7876,36.6789 Z M62.8316,45.3019 C62.8466,45.4429 62.7046,45.4579 62.7046,45.4579 C62.7196,45.6009 62.7346,45.7429 62.7496,45.8859 C63.0346,45.8559 63.0036,45.5699 62.9746,45.2859 C63.5126,44.9419 62.3456,44.7769 62.9746,45.2859 L62.8316,45.3019 Z M62.8556,35.9519 L62.8266,35.6689 L62.5406,35.6979 C62.5556,35.8399 62.5556,35.8399 62.5716,35.9819 C62.5716,35.9819 62.7136,35.9669 62.8556,35.9519 Z M62.7416,49.9119 C62.7416,49.9119 62.7266,49.7699 62.7116,49.6279 C62.5696,49.6429 62.5696,49.6429 62.4266,49.6579 C62.4416,49.7999 62.4566,49.9419 62.4566,49.9419 C62.5986,49.9269 62.5986,49.9269 62.7416,49.9119 Z M62.4216,31.8279 C62.8406,33.0779 61.9346,34.0349 62.9236,35.2259 C62.8036,34.0889 63.0956,32.7639 62.4216,31.8279 Z M62.4726,47.3529 C62.8616,48.3169 62.3076,48.5199 62.3966,49.3739 C63.0786,49.0139 63.0856,47.7189 62.4726,47.3529 Z M62.3626,31.2599 C62.3766,31.4009 62.4216,31.8279 62.6916,31.6549 C62.8036,31.3569 62.6466,31.2299 62.3626,31.2599 Z M62.1836,29.5529 C62.3556,29.8219 62.0336,30.8619 62.5866,30.6599 C62.2576,30.2639 62.9096,29.6199 62.1836,29.5529 Z M61.8546,26.4239 C61.8836,26.7079 61.9136,26.9929 62.0716,27.1189 C62.3256,26.8059 62.2806,26.3789 61.8546,26.4239 Z M62.1796,51.4089 C62.1796,54.1419 61.4226,56.5209 61.5046,58.6699 C61.8496,56.4759 62.7476,54.0819 62.1796,51.4089 Z M60.9896,52.3979 C60.1516,52.6289 60.6156,51.5729 60.9586,52.1119 C60.9586,52.1119 60.9746,52.2539 60.9896,52.3979 Z M61.0336,61.0199 C60.9206,61.3189 60.6516,61.4909 60.7106,62.0609 L60.5686,62.0749 C60.4866,62.6599 60.4556,62.3749 60.6586,62.9289 C60.5456,63.2289 59.8796,63.7299 60.4786,63.9539 C60.4636,63.8119 60.6056,63.7969 60.7476,63.7809 C60.7176,63.4979 60.6886,63.2129 60.6586,62.9289 L60.8006,62.9139 C60.8826,62.3299 60.9126,62.6149 60.7106,62.0609 C60.9646,61.7449 61.3916,61.7009 61.1746,61.0049 C61.7136,60.6609 61.3256,59.6949 61.5646,59.2389 C60.8836,59.5979 61.1296,60.5789 61.1746,61.0049 L61.0336,61.0199 Z M60.1046,17.9799 C60.6726,17.9199 59.8866,17.2839 60.1046,17.9799 C59.8346,18.1509 60.1196,18.1209 60.1046,17.9799 Z M59.5566,67.5019 C59.7296,67.7719 59.6316,68.2139 59.9166,68.1839 C60.0436,68.0259 59.9986,67.5999 59.5566,67.5019 Z M58.8686,69.1559 C59.0556,69.5669 59.2276,69.8369 59.6546,69.7919 C59.7366,69.2099 59.1826,69.4109 58.8686,69.1559 Z M61.2846,31.9469 C60.5366,33.0329 60.6186,35.1809 61.3356,36.5439 C61.3666,36.8279 60.7676,36.6039 60.9546,37.0149 C61.1116,37.1429 61.2836,37.4109 61.3136,37.6949 L61.0136,37.5839 C61.0666,39.4469 61.2676,42.7339 60.6686,45.2409 C61.2226,45.0389 61.2826,45.6079 61.3416,46.1769 C61.0576,46.2069 60.7586,46.0949 60.6466,46.3939 C60.8476,46.9469 60.5406,48.1309 61.0416,48.7969 C60.6156,48.8419 60.7286,48.5419 60.4736,48.8579 C60.5026,49.1419 60.5476,49.5679 60.5786,49.8529 C60.7196,49.8369 61.0046,49.8079 61.0196,49.9489 C60.9376,50.5329 60.7356,49.9789 60.3536,50.4509 C60.2706,51.0349 60.9676,50.8169 60.8996,51.5429 C60.6156,51.5729 60.4576,51.4459 60.3156,51.4619 C60.1206,52.3439 60.5476,52.2989 60.6376,53.1529 C60.4956,53.1689 60.4646,52.8839 60.1966,53.0559 C60.0826,53.3549 60.1436,53.9239 59.8886,54.2379 C60.2176,54.6349 60.2866,53.9089 60.4726,54.3209 C60.3606,54.6199 59.6496,54.6949 59.6946,55.1219 C60.2256,56.0729 58.6976,57.9579 59.7976,58.8489 C58.9076,59.9489 58.9446,61.6709 58.5096,63.0109 C59.0796,62.9509 58.9216,62.8239 59.5056,62.9059 C58.7046,62.1279 60.6366,61.3499 59.5956,61.0269 C59.1546,60.9299 59.8276,61.8649 59.4006,61.9099 C59.0856,61.6549 59.4686,61.1849 59.2506,60.4879 C59.8356,60.5709 59.5506,60.6009 60.1046,60.3989 C60.0826,58.8189 60.4876,57.1939 60.7646,55.7289 C60.7346,55.4439 60.1956,55.7879 60.0086,55.3769 C60.2776,55.2029 60.7046,55.1589 60.8316,55.0019 C60.5846,54.0229 61.3486,53.0789 61.2886,52.5099 C61.5966,45.8629 62.1516,40.1959 61.7786,33.9079 C61.5616,33.2129 61.3896,32.9429 61.7706,32.4709 C61.1726,32.2469 61.3516,31.2219 61.5906,30.7649 C60.8356,30.4129 61.6816,28.8859 60.6256,28.4229 C60.9116,28.3929 61.1956,28.3619 61.1806,28.2189 C60.4696,25.5629 60.2686,22.2759 58.8016,19.2679 C59.5486,23.6469 60.6636,27.4109 60.6856,31.7229 C60.9696,31.6929 61.1276,31.8189 61.2846,31.9469 Z M58.3066,73.3859 C58.7626,73.6249 58.8156,72.7569 58.3886,72.8009 C58.4036,72.9429 58.4186,73.0859 58.2766,73.1019 C58.2766,73.1019 58.2906,73.2429 58.3066,73.3859 Z M58.0616,64.2079 C58.2626,64.7629 58.5776,65.0169 59.0346,65.2559 C58.4056,64.7479 59.5656,63.4759 58.6826,63.2799 C58.7116,63.5659 58.5846,63.7229 58.1586,63.7679 C58.1726,63.9089 58.2036,64.1929 58.0616,64.2079 Z M58.8536,66.2809 C58.7796,65.5699 58.0826,65.7889 57.9856,66.2299 C58.3976,66.0419 58.4266,66.3259 58.8536,66.2809 Z M57.9486,16.6249 C58.3226,17.4479 58.0446,18.9149 58.6436,19.1399 C58.8696,18.5409 58.4196,17.0069 57.9486,16.6249 Z M58.1796,68.0789 C58.0376,68.0939 58.0376,68.0939 57.8956,68.1079 C57.8796,67.9659 58.0076,67.8089 58.1796,68.0789 Z M58.2686,74.3959 C57.8416,74.4409 57.7146,74.5979 57.7596,75.0249 C58.3426,75.1069 58.1416,74.5529 58.2686,74.3959 Z M57.4926,16.3859 C57.7766,16.3559 57.7906,16.4979 57.9176,16.3409 C57.8886,16.0559 57.6046,16.0849 57.4926,16.3859 Z M58.4956,68.3329 C58.1346,67.6509 59.0856,67.1209 58.4566,66.6109 C58.4716,66.7539 58.3296,66.7689 58.1876,66.7839 C58.1576,66.4999 58.0156,66.5149 57.7316,66.5439 C57.8356,67.5389 57.8356,67.5389 57.4686,68.1529 C57.6256,68.2799 57.7526,68.1239 57.8956,68.1079 C57.9246,68.3929 58.2096,68.3629 58.4956,68.3329 Z M57.4986,20.5549 C57.4686,20.2709 57.4386,19.9849 57.4236,19.8439 C57.2816,19.8589 57.1396,19.8729 56.9966,19.8889 C57.0126,20.0299 57.0416,20.3159 57.0726,20.5999 C57.2136,20.5839 57.3566,20.5689 57.4986,20.5549 Z M58.0076,70.5409 C57.7456,69.4189 57.8586,69.1189 57.6556,68.5649 C57.5136,68.5789 57.3716,68.5949 57.0866,68.6239 C57.3196,69.4639 56.6526,69.9649 57.1686,70.7729 C57.7526,70.8559 57.5656,70.4439 58.0076,70.5409 Z M56.5856,14.6099 C57.0286,14.7079 57.0806,13.8399 56.8116,14.0129 C56.8266,14.1539 56.6836,14.1689 56.5406,14.1839 C56.5566,14.3269 56.5716,14.4689 56.5856,14.6099 Z M57.1986,71.0579 C57.0566,71.0719 56.7716,71.1029 56.4876,71.1319 C56.4356,71.9999 56.6216,72.4109 57.4916,72.4649 C57.5586,71.7389 57.5426,71.5959 57.1986,71.0579 Z M55.9936,74.6349 C56.4346,74.7329 56.3896,74.3059 56.8306,74.4019 C56.6146,73.7059 57.8496,73.1469 56.9656,72.9509 C56.9656,72.9509 56.9516,72.8099 56.9366,72.6669 C56.7936,72.6819 56.6526,72.6959 56.5096,72.7109 C56.5396,72.9949 56.6816,72.9809 56.9656,72.9509 C56.9136,73.8189 55.7466,73.6539 55.9936,74.6349 Z M55.7706,16.4219 C55.6726,16.8639 56.3546,16.5049 56.5266,16.7749 C56.4816,16.3479 56.1976,16.3769 55.7706,16.4219 Z M55.8526,15.8389 C55.8376,15.6949 55.8236,15.5539 55.8236,15.5539 C55.8236,15.5539 55.6806,15.5679 55.5386,15.5839 C55.5386,15.5839 55.5526,15.7259 55.5686,15.8689 C55.7096,15.8539 55.8526,15.8389 55.8526,15.8389 Z M55.3066,14.7449 C55.3356,15.0289 55.4936,15.1579 55.7786,15.1279 C55.8746,14.6859 55.4636,14.8729 55.3066,14.7449 Z M56.0526,75.2039 C55.8286,75.8029 55.4616,76.4159 55.2506,77.1569 C56.2466,77.0529 56.3816,75.6009 56.0526,75.2039 Z M55.2466,11.4429 C55.2766,11.7289 55.4346,11.8569 55.7186,11.8259 C55.6886,11.5419 55.5316,11.4139 55.2466,11.4429 Z M55.9256,78.0929 C55.4986,78.1379 55.7076,77.3969 55.0276,77.7569 C55.0416,77.8999 55.0726,78.1829 55.0866,78.3249 C55.6566,78.2649 55.8426,78.6769 55.9256,78.0929 Z M55.4036,14.3039 C55.3736,14.0199 55.2166,13.8929 55.0756,13.9069 C55.0896,14.0489 54.9476,14.0649 54.8206,14.2219 C55.1046,14.1919 55.1196,14.3329 55.4036,14.3039 Z M55.2506,79.8909 C55.2056,79.4629 54.9076,79.3509 54.6076,79.2379 C54.6526,79.6649 54.2106,79.5669 54.3976,79.9809 C54.6826,79.9499 54.9666,79.9199 55.2506,79.8909 Z M54.0766,81.0209 C54.5776,81.6869 55.1686,80.4729 54.4576,80.5479 C54.4726,80.6919 54.3296,80.7059 54.0456,80.7359 C54.0606,80.8779 54.0766,81.0209 54.0766,81.0209 Z M54.9996,13.1959 C54.4016,12.9719 54.4386,11.9609 53.9966,11.8629 C54.0416,12.2899 53.9286,12.5889 53.8016,12.7469 C54.6256,12.3729 54.0796,14.0119 54.9996,13.1959 Z M53.3196,83.3999 C53.0796,83.8569 53.8216,84.0669 53.9936,84.3359 C53.9336,83.7669 53.7606,83.4969 53.3196,83.3999 Z M53.7116,11.8939 C53.9216,11.1519 53.2486,10.2159 53.0536,11.1009 C53.6076,10.8979 53.2866,11.9389 53.7116,11.8939 Z M53.3576,85.1209 C53.3416,84.9789 53.3276,84.8369 53.3276,84.8369 C53.1846,84.8519 53.0416,84.8669 53.0416,84.8669 C53.0416,84.8669 53.0576,85.0089 53.0726,85.1509 C53.0726,85.1509 53.2146,85.1359 53.3576,85.1209 Z M52.3666,10.0219 C51.6016,10.9649 53.1736,9.5049 52.3506,9.8799 L52.3666,10.0219 Z M28.9226,5.8709 C28.4356,5.3469 28.8926,5.5869 28.8026,4.7329 C27.9186,4.5389 28.8106,3.4399 27.8146,3.5439 C28.0326,4.2399 28.1066,4.9509 27.8816,5.5489 C28.3086,5.5049 28.3686,6.0729 28.9226,5.8709 Z M27.5596,3.8579 C27.3886,3.5889 26.6776,3.6639 26.7366,4.2319 C27.0066,4.0599 27.4336,4.0149 27.5596,3.8579 Z M25.2166,7.5559 C25.2316,7.6969 25.2466,7.8399 25.2616,7.9819 C25.7186,8.2219 25.6136,7.2259 25.2166,7.5559 Z M24.3416,6.0659 C24.2446,6.5059 24.3036,7.0749 24.6476,7.6149 C24.8576,6.8739 24.7836,6.1629 24.3416,6.0659 Z M23.4656,7.3079 C23.6076,7.2929 23.7496,7.2779 23.7346,7.1359 C23.5926,7.1499 23.4506,7.1649 23.4656,7.3079 Z M23.9656,10.7059 C23.9216,10.2789 23.6216,10.1669 23.3226,10.0549 C23.2106,10.3549 23.3976,10.7659 23.6966,10.8789 C23.6816,10.7359 23.8236,10.7209 23.9656,10.7059 Z M20.1556,14.1259 C20.2836,13.9699 20.5676,13.9399 20.5526,13.7969 C20.4256,13.9539 20.1256,13.8419 20.1556,14.1259 Z M19.0256,15.6839 C18.8236,15.1289 19.2796,15.3689 19.4376,15.4959 C19.2346,14.9419 19.8186,15.0249 19.7586,14.4549 C19.0336,14.3879 19.4076,15.2109 18.5386,15.1589 C18.5686,15.4439 18.7416,15.7129 19.0256,15.6839 Z M17.7896,16.2439 C18.0746,16.2149 18.0896,16.3569 18.2166,16.1989 C18.1866,15.9139 17.9026,15.9439 17.7896,16.2439 Z M17.2886,18.3099 C17.2286,17.7409 17.8276,17.9659 17.6246,17.4119 C17.3406,17.4419 17.0566,17.4719 16.9296,17.6289 C16.9746,18.0559 17.1306,18.1829 17.2886,18.3099 Z M16.4526,95.1839 C16.1986,95.4979 16.4006,96.0509 16.6996,96.1639 C16.6696,95.8799 16.8796,95.1389 16.4526,95.1839 Z M16.9536,101.3149 C16.8936,100.7449 16.7146,99.0379 16.2496,100.0949 C17.0886,99.8619 15.9576,101.4189 16.9536,101.3149 Z M16.8096,19.2239 C16.7486,18.6539 15.8816,18.6029 16.0986,19.2989 C16.2406,19.2829 16.5256,19.2539 16.8096,19.2239 Z M15.8536,97.6909 C15.9956,97.6759 16.1676,97.9449 16.1386,97.6599 C16.1226,97.5189 15.8236,97.4059 15.8536,97.6909 Z M16.2876,99.0829 C16.4146,98.9259 16.6096,98.0419 16.1676,97.9449 C16.1986,98.2299 15.7566,98.1319 15.7866,98.4159 C16.1986,98.2299 15.9886,98.9709 16.2876,99.0829 Z M16.3476,94.1889 C16.4756,94.0299 16.3556,92.8939 16.0416,92.6379 C16.0716,92.9229 15.7876,92.9529 15.6746,93.2519 C16.5276,93.1619 15.6216,94.1199 16.3476,94.1889 Z M15.5636,88.0869 C15.5786,88.2289 15.4816,88.6719 15.7796,88.7829 C15.9076,88.6269 16.1176,87.8849 15.5636,88.0869 Z M15.5096,94.4199 C15.6516,94.4049 15.7946,94.3899 15.7796,94.2479 C15.7796,94.2479 15.4946,94.2779 15.5096,94.4199 Z M15.4426,95.1459 C15.8696,95.1009 15.2776,96.3139 15.9586,95.9539 C16.1836,95.3559 15.6666,94.5479 15.4426,95.1459 Z M15.3906,93.2819 C15.1216,93.4529 15.2926,93.7239 15.6066,93.9789 C15.8616,93.6639 15.8166,93.2369 15.3906,93.2819 Z M15.4666,83.0649 C15.4516,82.9219 15.4366,82.7799 15.4366,82.7799 C15.4366,82.7799 15.2946,82.7959 15.1516,82.8109 C15.1516,82.8109 15.1666,82.9519 15.1826,83.0949 C15.3246,83.0799 15.4666,83.0649 15.4666,83.0649 Z M15.2186,90.2799 C15.2476,90.5649 14.9786,90.7369 15.2786,90.8499 C15.2476,90.5649 15.5176,90.3929 15.2186,90.2799 Z M15.6156,87.2189 C15.6456,87.5029 15.0616,87.4209 15.0916,87.7059 C15.5336,87.8029 16.1996,87.3019 15.6156,87.2189 Z M15.6006,89.8089 C15.5556,89.3829 15.9966,89.4799 15.8096,89.0669 C15.6386,88.7979 14.9266,88.8729 14.9716,89.2999 C15.2566,89.2699 15.1736,89.8539 15.6006,89.8089 Z M15.3696,86.2379 C15.4356,85.5129 15.7586,84.4719 15.0026,84.1209 C14.9646,85.1309 14.9646,85.1309 14.7546,85.8719 C15.1826,85.8269 15.2116,86.1109 15.3696,86.2379 Z M14.4886,21.7689 C14.7726,21.7379 14.6756,22.1789 15.0876,21.9919 C14.8706,21.2959 16.3156,19.9939 15.3196,20.0999 C15.9036,20.1809 14.7656,20.3009 14.7806,20.4429 C15.0126,21.2799 14.5856,21.3249 14.4886,21.7689 Z M14.3006,71.9709 C14.7576,72.2099 14.8096,71.3429 14.5256,71.3729 C14.5406,71.5149 14.4136,71.6719 14.2706,71.6869 C14.2706,71.6869 14.2856,71.8289 14.3006,71.9709 Z M14.1656,73.4239 C14.6076,73.5209 14.6606,72.6529 14.2476,72.8399 C14.2636,72.9829 14.2636,72.9829 14.1206,72.9969 C14.1356,73.1389 14.1506,73.2809 14.1656,73.4239 Z M14.3896,75.5569 C14.3746,75.4149 14.3746,75.4149 14.3596,75.2719 C14.2186,75.2859 14.0766,75.3019 14.0766,75.3019 C14.0906,75.4449 14.0906,75.4449 14.1056,75.5869 C14.1056,75.5869 14.2476,75.5709 14.3896,75.5569 Z M13.9346,21.9699 C13.4106,22.4569 13.8966,22.9799 14.7356,22.7479 C14.8026,22.0229 14.2336,22.0819 13.9346,21.9699 Z M14.2026,80.6099 C14.1576,80.1829 14.1126,79.7559 13.8286,79.7849 C14.0296,80.3399 13.2366,80.9989 13.8506,81.3649 C14.1196,81.1919 13.6186,80.5259 14.2026,80.6099 Z M12.7966,19.3579 C12.6546,19.3719 12.5126,19.3869 12.5126,19.3869 C12.5276,19.5279 12.3856,19.5439 12.2586,19.7019 C12.5426,19.6719 12.9696,19.6269 12.7966,19.3579 Z M13.5596,23.8779 C12.9906,23.9379 12.8106,24.9639 12.4676,24.4249 C12.4676,24.4249 12.3396,24.5819 12.1976,24.5969 C12.2426,25.0239 12.5266,24.9939 12.4446,25.5779 C12.9386,24.8069 14.2186,24.6719 14.0836,23.3929 C13.5146,23.4519 13.6116,23.0099 13.0586,23.2129 C13.1036,23.6389 12.9606,23.6529 12.9906,23.9379 C13.3056,24.1929 13.5146,23.4519 13.5596,23.8779 Z M12.0336,20.2999 C12.0486,20.4429 11.3676,20.8019 11.9656,21.0259 C11.9356,20.7419 12.6176,20.3829 12.0336,20.2999 Z M11.8236,23.7739 C11.8086,23.6319 11.7926,23.4889 11.7786,23.3479 C11.7786,23.3479 11.6366,23.3619 11.4936,23.3769 C11.5086,23.5189 11.5236,23.6609 11.5386,23.8029 C11.6816,23.7879 11.8236,23.7739 11.8236,23.7739 Z M10.6546,26.3399 C10.6696,26.4839 9.6746,26.5879 10.2736,26.8129 C10.2436,26.5279 11.2536,26.5659 10.6546,26.3399 Z M9.9656,30.7269 C10.6326,30.2259 10.5726,29.6559 11.2986,29.7239 C11.1786,28.5859 11.7176,28.2419 11.7696,27.3739 C12.1966,27.3289 11.5536,26.6779 11.7696,27.3739 C10.8496,28.1899 10.4006,29.3879 9.9656,30.7269 Z M9.5626,24.1539 C9.7046,24.1389 9.8476,24.1239 9.8326,23.9829 C9.6896,23.9969 9.5476,24.0129 9.5626,24.1539 Z M9.8746,32.6059 C9.2466,32.0969 9.5696,31.0559 10.4816,31.5349 C10.4376,31.1079 10.4226,30.9659 10.2656,30.8399 C9.2846,31.0859 9.4186,32.3659 8.9106,32.9939 C9.4946,33.0779 9.2916,32.5239 9.8746,32.6059 Z M7.8026,30.6669 C7.8326,30.9509 7.7356,31.3929 8.0196,31.3629 C8.2886,31.1909 8.2446,30.7639 7.8026,30.6669 Z M46.6476,4.8709 C37.7476,0.9169 28.8996,9.7559 23.0076,15.2649 C22.4906,17.1889 20.5446,17.8239 20.2976,19.5759 C18.4106,20.7799 17.6396,23.0189 16.6956,24.9859 C16.5536,25.0009 16.2686,25.0309 16.1266,25.0459 C16.4866,25.7269 15.8206,26.2299 15.2956,26.7159 C15.2056,28.5949 13.0656,30.1139 12.7346,32.4489 C12.2786,32.2099 12.7946,33.0179 12.1966,32.7939 C10.4576,38.1519 8.9156,42.6279 7.5076,48.3839 C7.1186,52.8819 7.0946,56.7679 6.8996,60.3839 C7.1846,60.3539 7.3266,60.3389 7.3556,60.6229 C7.8266,66.4689 10.2586,71.8209 13.1776,74.9649 C13.4706,70.9079 14.1976,65.5119 15.3576,61.5079 C15.2156,58.7899 17.0126,56.7319 16.5726,53.9009 C16.8556,53.8719 16.8856,54.1569 17.1706,54.1269 C17.4476,52.6599 17.8816,51.3199 18.4736,50.1079 C17.8146,49.3149 19.0126,47.0309 20.0756,46.1999 C20.9306,40.6469 25.3316,36.0149 30.7136,36.5979 C31.1776,38.2749 32.1966,39.7499 32.2326,41.4709 C30.8706,42.1899 30.4516,43.6729 29.0886,44.3909 C28.2196,47.0699 26.5956,49.3979 25.6966,51.7939 C25.1196,53.1479 25.2686,54.5689 24.6926,55.9249 C24.5806,56.2249 24.1836,56.5539 23.9436,57.0099 C23.8316,57.3099 24.0636,58.1479 23.9666,58.5899 C23.8536,58.8889 23.4276,58.9339 23.3146,59.2339 C23.0376,60.6999 23.1046,62.7049 22.5286,64.0609 C22.4006,64.2169 22.1016,64.1059 21.9746,64.2619 C21.8766,64.7049 22.2216,65.2429 22.1386,65.8259 C22.0416,66.2699 21.5026,66.6119 21.4056,67.0549 C21.1426,68.6639 21.6216,70.4829 20.9476,72.2789 C20.7386,73.0209 20.7676,73.3059 20.5736,74.1879 C20.4156,76.7919 19.8016,79.1569 19.8986,81.4489 C21.4406,82.4369 23.5056,82.9389 24.9206,84.0839 C23.4686,83.9489 21.1186,83.4779 20.0326,82.7289 C18.9386,88.7379 20.3686,92.7589 20.3366,97.9379 C21.4146,99.9819 21.8406,102.6689 23.0386,105.8509 C25.6496,110.1779 29.7206,116.0769 34.8716,113.0909 C40.6956,108.3089 44.9326,102.1119 47.6286,94.9259 C47.8836,94.6119 48.2806,94.2819 48.5496,94.1099 C48.0936,93.8709 48.7746,93.5119 48.4456,93.1149 C52.2336,85.3829 53.7026,77.4649 56.2636,68.9989 C55.8976,66.8799 57.3416,65.5779 56.8926,64.0439 C58.5476,61.9999 57.5756,58.2199 58.6306,55.9519 C58.7286,52.7779 58.8566,49.8899 59.5236,46.6549 C59.5086,46.5129 59.2236,46.5429 59.0666,46.4159 C59.8246,38.5709 59.2716,30.5769 57.2816,22.5909 C57.6706,20.8239 56.4736,20.3749 56.1366,18.5399 C56.3916,18.2259 57.1176,18.2939 57.2296,17.9949 C56.6306,17.7699 56.4896,17.7839 55.9496,18.1289 C55.1496,14.6179 52.8356,13.1359 51.4966,9.9699 C50.0076,8.1129 48.1366,6.7279 46.6476,4.8709 Z M6.8446,29.7619 C6.9866,29.7459 6.9866,29.7459 7.1296,29.7319 C7.3836,29.4169 7.3686,29.2749 6.9416,29.3179 C6.9416,29.3179 6.9566,29.4609 6.8146,29.4769 C6.8296,29.6179 6.8296,29.6179 6.8446,29.7619 Z M6.1576,68.3699 C6.1276,68.0849 6.2696,68.0699 6.3976,67.9129 C6.1126,67.9429 6.0976,67.8009 5.9546,67.8159 C5.9706,67.9579 5.8426,68.1149 5.8576,68.2569 C5.9846,68.0999 5.9996,68.2409 6.1576,68.3699 Z M5.7676,67.4039 C5.8956,67.2459 6.0386,67.2319 6.0226,67.0899 C6.0386,67.2319 5.7386,67.1199 5.7676,67.4039 Z M5.1666,38.4199 C5.3086,38.4049 5.5936,38.3749 5.5786,38.2339 C5.4366,38.2489 5.1366,38.1369 5.1666,38.4199 Z M4.9046,42.7629 C5.0466,42.7479 5.1886,42.7329 5.1736,42.5899 C5.1736,42.5899 4.8896,42.6199 4.9046,42.7629 Z M5.3346,66.0109 C5.3196,65.8689 5.3046,65.7279 5.3046,65.7279 C5.1626,65.7419 5.0196,65.7579 4.8776,65.7729 C4.8776,65.7729 4.8926,65.9139 4.9076,66.0559 C5.0496,66.0409 5.1926,66.0249 5.3346,66.0109 Z M4.4926,40.2179 C4.6356,40.2029 4.7776,40.1889 4.7626,40.0449 C4.6206,40.0599 4.4776,40.0739 4.4926,40.2179 Z M5.8916,46.6859 C5.9586,45.9589 5.2776,46.3179 5.2326,45.8919 C5.4876,45.5759 5.4576,45.2919 6.0406,45.3749 C5.8396,44.8199 6.3926,44.6189 6.2056,44.2059 C5.9216,44.2359 5.7646,44.1089 5.7346,43.8249 C5.8466,43.5249 5.9146,42.7999 6.5426,43.3099 C6.1546,42.3439 5.9376,41.6479 7.0306,41.1009 C7.1276,40.6599 6.5736,40.8609 6.5436,40.5759 C7.0676,40.0909 7.3216,39.7749 6.9626,39.0949 C7.4866,38.6089 7.7116,38.0099 7.6216,37.1559 C7.9886,36.5429 9.3286,34.2449 8.8276,33.5779 C6.5436,37.8449 6.1396,42.2009 4.4386,46.5499 C5.0526,46.9159 5.0386,46.7749 5.8916,46.6859 Z M4.4976,52.5829 C4.5956,52.1419 4.0416,52.3429 4.1086,51.6169 C3.8926,50.9209 5.2316,51.3559 5.0146,50.6589 C4.9546,50.0899 4.4906,51.1469 4.5736,50.5619 C5.5086,49.8879 4.6336,48.3999 5.2846,47.7549 C4.5886,47.9719 5.1956,46.9009 4.5136,47.2609 C4.1846,49.5969 3.3526,51.2659 4.1616,53.4819 C4.5876,53.4369 4.0716,52.6279 4.4976,52.5829 Z M4.8856,64.4779 C4.8256,63.9079 4.6386,63.4969 4.4666,63.2269 C4.7506,63.1969 4.8936,63.1819 5.0056,62.8829 C4.8336,62.6129 4.4216,62.7999 4.3766,62.3729 C4.9316,62.1719 4.1596,61.6779 4.3766,62.3729 C4.0776,62.2619 4.0476,61.9779 3.7626,62.0079 C3.8376,62.7189 4.4066,62.6579 4.4666,63.2269 C3.9126,63.4299 4.1736,64.5519 4.8856,64.4779 Z M3.8866,44.0199 C4.0136,43.8629 4.1246,43.5639 4.2526,43.4049 C3.8116,43.3089 3.6986,43.6089 3.8866,44.0199 C3.3316,44.2219 4.1026,44.7159 3.8866,44.0199 Z M4.1676,60.3819 C4.0696,60.8239 3.5016,60.8839 3.7326,61.7229 C4.6016,61.7749 4.7366,60.3219 4.1676,60.3819 Z M4.0686,69.0209 C3.9566,69.3199 3.9266,69.0349 3.6426,69.0649 C3.7696,68.9079 4.0546,68.8789 4.0686,69.0209 Z M3.7116,54.6779 C3.5846,54.8359 3.6146,55.1199 3.6596,55.5469 C4.2436,55.6299 3.8836,54.9479 3.8536,54.6629 C4.4226,54.6039 4.4676,55.0309 4.6246,55.1569 C4.8346,54.4169 4.4906,53.8769 3.7646,53.8109 C3.7946,54.0959 3.8246,54.3799 3.8536,54.6629 L3.7116,54.6779 Z M4.5946,57.6069 C4.1676,57.6509 4.1826,57.7929 3.7116,57.4109 C3.3296,57.8829 3.7186,58.8479 4.1606,58.9449 C3.7706,57.9799 4.5126,58.1889 4.5946,57.6069 Z M4.1906,59.2299 C4.0486,59.2439 3.7636,59.2749 3.4786,59.3049 C3.6806,59.8589 3.8386,59.9859 3.5986,60.4419 C4.5946,60.3369 3.9506,59.6869 4.1906,59.2299 Z M3.5546,57.2829 C3.8246,57.1109 4.0936,56.9399 4.6626,56.8799 C4.5876,56.1689 4.1306,55.9279 3.6746,55.6899 C3.7046,55.9729 3.4196,56.0029 3.4346,56.1459 C4.1756,56.3559 3.4946,56.7149 3.5546,57.2829 Z M3.5406,46.2139 C3.5116,45.9289 3.4966,45.7859 3.2116,45.8159 C3.2416,46.1009 3.1296,46.3999 3.4136,46.3699 C3.3986,46.2289 3.3836,46.0859 3.5406,46.2139 Z M3.0466,46.9839 C3.2346,47.3949 2.4936,47.1859 2.8526,47.8659 C3.4206,47.8069 3.6306,47.0669 3.0466,46.9839 Z M2.6576,48.7499 C2.6876,49.0349 2.1486,49.3789 2.7466,49.6039 C2.5596,49.1919 3.0996,48.8469 2.6576,48.7499 Z M2.3806,50.2169 C2.1556,50.8169 2.2006,51.2429 2.3876,51.6539 C2.4996,51.3559 2.9786,50.4419 2.3806,50.2169 Z M2.1776,52.3959 C2.1926,52.5369 1.9826,53.2779 2.4096,53.2339 C2.3796,52.9499 2.8736,52.1789 2.1776,52.3959 Z M26.3326,3.1239 C27.8676,2.6749 28.8626,2.5699 30.1956,1.5669 C33.1666,1.1109 36.5206,0.1839 39.5516,0.2959 C44.1636,0.3879 51.4916,3.0679 54.3796,5.9279 C55.3376,6.8329 56.5796,7.7089 57.2536,8.6459 C57.7406,9.1699 57.8446,10.1649 58.3306,10.6899 C61.2116,14.8439 63.7556,19.8969 64.8336,24.6729 C67.7206,38.4609 66.6036,51.0889 64.8576,63.2059 C63.8316,65.7579 64.3996,68.4319 62.9626,71.1709 C63.1796,71.8669 62.9396,72.3229 63.0146,73.0339 C62.7296,73.0639 62.5876,73.0789 62.4306,72.9519 C62.4756,73.3789 62.7596,73.3489 62.6776,73.9329 C62.4976,74.9579 62.0566,74.8599 62.4456,75.8259 C62.1226,76.8659 61.9576,78.0339 61.3226,78.8199 C61.3526,79.1049 61.3816,79.3899 61.4126,79.6739 C60.3336,80.3619 60.6706,82.1959 59.8916,82.9979 C60.3846,84.9579 58.6186,87.2999 58.6256,88.7379 C58.5136,89.0369 58.3716,89.0519 58.0726,88.9399 C58.1176,89.3659 58.1626,89.7939 58.1916,90.0779 C54.8596,98.0489 51.3706,105.8939 45.8226,111.9399 C45.9126,112.7929 45.3586,112.9949 45.1336,113.5939 C43.4266,113.7739 43.6066,115.4809 41.8996,115.6589 C41.8176,116.2439 40.7906,116.0639 40.8666,116.7749 C38.0666,117.5009 35.4546,118.6379 33.4556,117.4099 C28.0216,117.6929 22.8056,113.2089 19.4676,108.8149 C19.0116,108.5739 18.6966,108.3189 18.3826,108.0669 C17.0726,105.1839 14.9246,102.5339 14.1696,99.4499 C13.9076,98.3259 14.0576,97.0169 13.7956,95.8949 C12.5536,89.5539 12.5396,83.9469 12.7126,78.7529 C9.6446,76.9179 6.9956,73.6019 5.1466,71.0649 C4.7876,70.3829 5.5286,70.5929 5.3416,70.1809 C4.9146,70.2259 4.7266,69.8139 4.2556,69.4329 C4.0386,68.7359 4.6076,68.6759 4.4056,68.1229 C2.9766,66.8339 4.3316,64.6789 2.5056,63.7219 C2.3036,63.1669 3.0446,63.3759 2.8566,62.9649 C2.4166,60.1359 2.5586,57.3879 2.4016,54.5289 C2.5146,54.2309 2.8586,54.7679 2.8136,54.3419 C1.9976,53.4199 2.0496,55.2849 1.8256,55.8839 C2.1326,57.4329 1.8096,58.4729 1.7346,60.4949 C2.0116,61.7589 1.9746,62.7699 2.1386,64.3339 C2.5126,65.1579 2.7596,66.1389 3.1486,67.1039 C2.0176,65.9289 0.8436,61.5959 0.9496,59.8579 C0.9346,59.7159 0.6496,59.7459 0.6346,59.6039 C0.2986,57.7699 0.7996,55.7039 0.2086,54.1839 C1.0266,41.4439 4.7636,29.1159 11.8166,19.6039 C11.7866,19.3189 11.7566,19.0359 11.6146,19.0509 C14.6916,14.1259 18.3976,9.7099 22.5746,5.6759 C23.4576,5.8699 24.2376,5.0689 24.8506,5.4369 C24.9626,5.1369 25.0006,4.1259 25.6146,4.4939 C25.7186,5.4889 25.0076,5.5649 25.0826,6.2749 C25.5236,6.3719 26.7746,5.9539 26.1006,5.0169 C26.5276,4.9719 26.6996,5.2419 26.9536,4.9269 C26.4526,4.2609 26.5646,3.9619 26.0786,3.4389 C26.2206,3.4239 26.3486,3.2659 26.3326,3.1239 Z" id="Fill-4" fill="#EA6A24" mask="url(#mask-4)"></path>
                </g>
            </g>
        </g>
    </g>
</svg>