<?xml version="1.0" encoding="UTF-8"?>
<svg width="138px" height="128px" viewBox="0 0 138 128" version="1.1" xmlns="http://www.w3.org/2000/svg" xmlns:xlink="http://www.w3.org/1999/xlink">
    <!-- Generator: Sketch 51.3 (57544) - http://www.bohemiancoding.com/sketch -->
    <title>wolf_go</title>
    <desc>Created with Sketch.</desc>
    <defs>
        <polygon id="path-1" points="0 0.398503434 65.8572 0.398503434 65.8572 127 0 127"></polygon>
    </defs>
    <g id="Page-1" stroke="none" stroke-width="1" fill="none" fill-rule="evenodd">
        <g id="A4" transform="translate(-584.000000, -350.000000)">
            <g id="wolf_go" transform="translate(584.773465, 350.000000)">
                <g id="Group-3" transform="translate(0.000000, 0.714000)">
                    <mask id="mask-2" fill="white">
                        <use xlink:href="#path-1"></use>
                    </mask>
                    <g id="Clip-2"></g>
                    <path d="M62.0542,52.1718 C62.1372,51.5878 62.6762,51.2438 63.3872,51.1688 C63.1472,51.6258 63.0802,52.3508 62.0542,52.1718 Z M60.2432,51.3548 C60.2732,51.6398 60.1012,51.3698 59.9592,51.3848 C59.9442,51.2428 60.2282,51.2138 60.2432,51.3548 Z M58.2742,53.1438 C57.8472,53.1888 57.4212,53.2338 57.4502,53.5188 C57.8922,53.6148 58.3192,53.5698 58.2742,53.1438 Z M57.3682,54.1018 C57.2852,54.6848 58.0122,54.7538 57.9522,54.1848 C57.8102,54.1998 57.6532,54.0718 57.3682,54.1018 Z M57.2792,53.2488 C56.8522,53.2928 56.5682,53.3228 56.5972,53.6088 C56.8822,53.5778 57.4802,53.8028 57.2792,53.2488 Z M47.3732,72.5508 C47.3582,72.4088 47.1862,72.1398 46.9162,72.3118 C47.0732,72.4388 46.9612,72.7388 47.2452,72.7088 C47.2452,72.7088 47.2312,72.5668 47.3732,72.5508 Z M46.6242,73.6358 C46.5272,74.0788 46.1002,74.1238 46.2872,74.5348 C47.0282,74.7448 47.0512,73.5908 46.6242,73.6358 Z M46.8042,67.1468 C47.0592,66.8328 46.8572,66.2788 46.5582,66.1668 C46.4452,66.4658 46.0182,66.5108 46.2212,67.0648 C46.5052,67.0348 46.6482,67.0198 46.8042,67.1468 Z M46.5802,65.0128 C46.1012,65.9268 45.6372,64.2508 46.5212,64.4438 C46.6922,64.7138 46.1542,65.0578 46.5802,65.0128 Z M45.9942,75.8598 C45.8672,76.0168 45.7402,76.1738 45.9272,76.5858 C46.3842,76.8248 46.2642,75.6888 45.9942,75.8598 Z M46.0622,77.8658 C46.2792,78.5618 45.2452,79.6768 46.0162,80.1718 C45.8152,79.6168 46.8332,78.3598 46.0622,77.8658 Z M45.2402,70.0438 C45.2842,70.4688 45.0752,71.2118 45.7562,70.8528 C45.8382,70.2678 45.5392,70.1558 45.2402,70.0438 Z M44.8782,85.7548 C45.0202,85.7398 45.3052,85.7098 45.2902,85.5678 C45.1472,85.5828 44.8632,85.6118 44.8782,85.7548 Z M44.7382,72.1098 C44.8652,71.9518 44.8502,71.8098 44.8202,71.5258 C45.0902,71.3538 45.1942,72.3488 44.7382,72.1098 Z M44.9522,86.4658 C44.9382,86.3238 44.9082,86.0398 44.6382,86.2118 C44.6542,86.3538 44.6832,86.6378 44.8252,86.6238 C44.8252,86.6238 44.8102,86.4808 44.9522,86.4658 Z M45.0122,89.7668 C44.5712,89.6708 44.7582,90.0818 44.4882,90.2538 C45.0722,90.3368 44.8852,89.9248 45.0122,89.7668 Z M44.9612,82.4398 C45.8292,82.4918 45.9202,80.6128 45.4782,80.5148 C45.1702,81.6988 44.5492,82.6258 44.3852,83.7948 C45.2532,83.8468 45.0362,83.1508 44.9612,82.4398 Z M44.3232,91.4218 C44.4662,91.4058 44.6082,91.3918 44.6082,91.3918 C44.5932,91.2488 44.7202,91.0918 44.8622,91.0778 C44.8622,91.0778 44.8472,90.9358 44.8322,90.7928 C44.6902,90.8068 44.5482,90.8218 44.4062,90.8368 C44.4212,90.9808 44.4212,90.9808 44.2782,90.9958 C44.2932,91.1368 44.3082,91.2788 44.3232,91.4218 Z M43.8912,79.0998 C44.1372,80.0808 43.9952,80.0948 43.9282,80.8218 C44.5642,80.0358 45.3512,77.9408 44.8042,76.8478 C44.8202,76.9898 44.8492,77.2748 44.5502,77.1628 C44.9242,77.9858 44.2732,78.6298 43.8912,79.0998 Z M44.1302,84.1088 C44.2042,84.8198 43.7782,84.8638 43.8382,85.4338 C44.2642,85.3888 44.6992,84.0488 44.1302,84.1088 Z M43.7552,86.0168 C43.8982,86.0018 44.0402,85.9868 44.0252,85.8448 C43.8982,86.0018 43.7402,85.8748 43.7552,86.0168 Z M43.7842,94.4978 C43.9262,94.4828 43.9412,94.6248 43.9712,94.9088 C43.8142,94.7828 43.5142,94.6698 43.7842,94.4978 Z M43.8592,92.4758 C43.7322,92.6338 43.0802,93.2768 43.6792,93.5028 C43.6492,93.2168 44.4582,92.7018 43.8592,92.4758 Z M42.9692,88.1118 C42.6842,88.1418 42.9842,88.2548 42.9692,88.1118 C43.1112,88.0968 43.0962,87.9558 43.0812,87.8128 C43.3512,87.6408 43.2912,87.0718 43.5452,86.7578 C42.9772,86.8178 43.0362,87.3858 43.0812,87.8128 C42.9392,87.8278 42.9542,87.9698 42.9692,88.1118 Z M42.7982,82.3788 C43.2542,82.6188 43.3062,81.7508 43.0222,81.7798 C42.8952,81.9378 42.9102,82.0798 42.7682,82.0938 C42.7682,82.0938 42.7832,82.2358 42.7982,82.3788 Z M43.0582,88.9658 C43.0292,88.6808 42.8712,88.5548 42.5872,88.5848 C42.7592,88.8538 42.6462,89.1528 42.9312,89.1228 C42.9162,88.9818 42.9012,88.8388 43.0582,88.9658 Z M43.0332,106.5118 C42.6072,106.5568 42.4792,106.7138 42.4942,106.8558 C42.7792,106.8258 42.9212,106.8108 43.0332,106.5118 Z M44.5542,94.9918 C44.3672,94.5798 43.9262,94.4828 43.8512,93.7718 C43.2672,93.6888 43.7992,94.6398 43.2152,94.5568 C43.1852,94.2728 43.4702,94.2428 43.4252,93.8168 C42.3912,94.9318 43.3262,96.9898 42.4952,98.6588 C42.5112,98.8018 42.7952,98.7728 42.8102,98.9138 C42.1662,100.9948 42.8462,103.3678 42.4052,106.0028 L42.6892,105.9738 C42.7042,106.1148 42.8612,106.2408 43.0042,106.2268 C43.0412,105.2168 42.7792,104.0938 43.5432,103.1508 C42.3532,101.4068 44.1352,99.2068 43.1992,97.1478 C43.4692,96.9748 43.8282,97.6568 43.9102,97.0728 C43.4242,96.5478 43.9182,95.7778 43.9712,94.9088 C44.1142,94.8938 44.2702,95.0218 44.5542,94.9918 Z M42.8242,107.2538 C42.0972,107.1848 42.4562,107.8648 42.7712,108.1208 C42.7262,107.6938 43.0112,107.6638 42.8242,107.2538 Z M42.2182,54.9758 C42.5922,55.7988 44.1272,55.3498 44.4932,54.7358 C44.9352,54.8338 44.8522,55.4178 45.4222,55.3578 C45.3922,55.0728 45.2042,54.6618 45.4892,54.6308 C46.1482,55.4248 47.5252,54.8488 48.7752,54.4298 C48.5582,53.7338 49.2542,53.5168 49.1952,52.9478 C49.4642,52.7758 49.1652,52.6638 49.1952,52.9478 C47.3612,53.2848 44.2092,54.7658 42.2182,54.9758 Z M42.3042,83.1498 C42.4382,84.4298 42.3862,85.2978 42.0932,86.6238 C43.0592,86.2348 42.4532,84.5708 42.7752,83.5308 C43.3442,83.4718 42.7532,84.6848 43.3212,84.6248 C43.3592,83.6138 44.4592,81.7738 43.8302,81.2638 C43.4642,81.8778 43.5542,82.7308 43.1572,83.0598 C42.9992,82.9328 42.4302,82.9928 42.3042,83.1498 Z M42.1672,92.7978 C42.1822,92.9408 41.9282,93.2548 42.2272,93.3668 C42.3392,93.0678 42.4672,92.9108 42.1672,92.7978 Z M42.6612,89.2958 C42.0932,89.3558 41.9952,89.7968 41.9132,90.3798 C42.4672,90.1788 42.7362,90.0058 42.6612,89.2958 Z M41.7972,115.2708 C42.2542,115.5088 42.3062,114.6408 41.8792,114.6858 C41.8942,114.8268 41.9092,114.9698 41.7662,114.9848 C41.7662,114.9848 41.7822,115.1268 41.7972,115.2708 Z M41.8392,86.9378 C42.0412,87.4908 41.3742,87.9918 41.9732,88.2168 C41.9442,87.9328 42.5502,86.8628 41.8392,86.9378 Z M41.6882,90.9798 C41.8302,90.9638 41.9732,90.9498 41.9582,90.8068 C41.8152,90.8218 41.6732,90.8368 41.6882,90.9798 Z M41.6872,96.4438 C42.0622,97.2668 41.0432,98.5238 42.2262,98.8318 C41.7552,98.4488 42.7432,96.9068 41.6872,96.4438 Z M42.0822,112.5068 C41.9402,112.5228 41.6552,112.5518 41.5122,112.5678 C41.5572,112.9938 41.8572,113.1068 41.6022,113.4208 C42.1722,113.3598 42.1272,112.9338 42.0822,112.5068 Z M41.8282,107.3588 C41.6862,107.3728 41.4022,107.4028 41.4172,107.5448 C41.7162,107.6558 41.0942,108.5848 41.9332,108.3538 C41.7312,107.7988 41.8882,107.9258 41.8282,107.3588 Z M41.2812,108.9958 C41.3112,109.2798 42.0232,109.2058 41.8502,108.9368 C41.8352,108.7948 41.3932,108.6968 41.2812,108.9958 Z M41.5962,111.9838 C41.1842,112.1698 41.1392,111.7438 41.0792,111.1748 C41.5062,111.1298 41.4232,111.7148 41.5962,111.9838 Z M41.7632,91.6908 C41.6212,91.7058 41.3222,91.5928 41.2092,91.8918 C41.7932,91.9758 40.4302,92.6928 41.2992,92.7458 C41.3962,92.3048 41.9652,92.2448 41.7632,91.6908 Z M41.2672,103.3898 C40.6542,103.0238 40.9612,101.8398 41.6422,101.4828 C41.4322,102.2228 41.6642,103.0608 41.2672,103.3898 Z M41.2672,100.6568 C41.1262,100.6728 41.1112,100.5308 40.9692,100.5458 C40.9532,100.4028 40.9382,100.2618 40.9242,100.1188 C41.0812,100.2468 41.2082,100.0888 41.1932,99.9458 C41.6192,99.9008 41.3952,100.5008 41.2672,100.6568 Z M41.5962,55.9038 C41.5812,55.7608 41.5672,55.6188 41.5522,55.4768 C41.2522,55.3638 41.2822,55.6488 40.8562,55.6928 C40.7592,56.1348 41.3122,55.9338 41.5962,55.9038 Z M41.3442,93.1718 C40.8872,92.9328 40.2212,93.4338 40.8352,93.8008 C40.8042,93.5158 41.5462,93.7268 41.3442,93.1718 Z M41.4262,95.3208 C40.5732,95.4108 40.6472,96.1218 40.5652,96.7058 C41.1182,96.5038 41.2012,95.9198 41.4262,95.3208 Z M40.4522,97.0048 C40.4682,97.1468 40.4822,97.2888 40.4972,97.4318 C40.9532,97.6708 40.8492,96.6758 40.4522,97.0048 Z M40.4442,55.8808 C40.4592,56.0238 40.2042,56.3378 40.5042,56.4488 C40.4742,56.1648 40.7432,55.9928 40.4442,55.8808 Z M40.1452,98.1878 C39.7192,98.2328 39.3822,99.1308 39.9512,99.0708 C39.7492,98.5168 40.3472,98.7418 40.1452,98.1878 Z M39.5982,102.5588 C39.7102,102.2588 39.8382,102.1028 39.9502,101.8028 C40.2502,101.9148 40.0402,102.6558 39.5982,102.5588 Z M39.1872,100.0138 C39.4562,99.8418 39.1722,99.8718 39.1872,100.0138 C38.9172,100.1858 39.2022,100.1558 39.1872,100.0138 Z M39.8902,56.0828 C39.4632,56.1278 39.0362,56.1728 38.9092,56.3298 C38.8422,57.0558 40.0932,56.6368 39.8902,56.0828 Z M40.0202,90.1488 C40.0122,91.4438 39.7202,92.7668 38.5442,93.8988 C38.5892,94.3248 38.6492,94.8938 39.2182,94.8338 C39.5772,92.7818 41.1492,91.3248 41.1352,88.4498 C41.6592,87.9628 41.5252,86.6828 41.8762,85.9258 C41.1952,86.2858 41.3002,87.2808 40.8052,88.0518 C41.0902,88.0218 40.9782,88.3208 41.1352,88.4498 C40.3112,88.8238 41.2842,89.8718 40.0202,90.1488 Z M38.2142,104.4308 C38.2432,104.7148 37.8162,104.7598 38.0182,105.3128 C38.7602,105.5238 38.6552,104.5268 38.2142,104.4308 Z M38.6702,56.7868 C38.6552,56.6438 38.6402,56.5018 38.6252,56.3588 C38.3412,56.3888 38.3252,56.2478 38.1832,56.2618 C38.3702,56.6728 37.6302,56.4638 37.8312,57.0178 C38.1312,57.1308 38.0862,56.7028 38.6702,56.7868 Z M37.7642,102.8958 C37.9072,102.8808 38.0492,102.8658 38.0492,102.8658 C38.3182,102.6928 38.2882,102.4078 37.8622,102.4528 C37.8622,102.4528 37.8772,102.5968 37.7352,102.6108 C37.7492,102.7528 37.7492,102.7528 37.7642,102.8958 Z M37.4872,107.0948 C36.9182,107.1538 36.5062,107.3418 36.5662,107.9108 C37.0222,108.1498 37.2322,107.4078 37.4872,107.0948 Z M36.0872,106.0918 C36.2292,106.0758 36.2442,106.2178 36.3712,106.0618 C36.3422,105.7768 36.0572,105.8078 36.0872,106.0918 Z M37.2412,97.9168 C36.3052,98.5908 35.9152,100.3578 35.8482,101.0838 C37.0392,100.0958 37.1292,98.2158 38.0052,96.9748 C37.7352,97.1468 37.5932,97.1608 37.4212,96.8918 C37.8182,96.5618 37.8472,96.8468 38.2742,96.8018 C38.2002,96.0908 38.4842,96.0618 38.5362,95.1928 C38.8212,95.1628 38.5212,95.0498 38.5362,95.1928 C37.5852,95.7248 36.8372,96.8088 37.2412,97.9168 Z M36.0202,101.3538 C35.7362,101.3828 35.6092,101.5408 35.6382,101.8248 C35.9232,101.7948 36.0502,101.6378 36.0202,101.3538 Z M38.7382,98.4798 C37.6522,100.4628 36.4092,102.3178 35.9382,104.6698 C35.7962,104.6848 35.6682,104.8408 35.6682,104.8408 C35.2112,104.6018 35.3012,105.4548 35.5862,105.4258 C35.5562,105.1418 35.6982,105.1258 35.6682,104.8408 C35.8102,104.8258 35.8102,104.8258 35.9382,104.6698 C37.0082,102.5428 37.8402,100.8748 38.8802,98.4648 C39.9282,97.4918 40.1082,96.4648 40.2432,95.0138 C40.9842,95.2228 41.0072,94.0698 40.2962,94.1448 C39.8762,95.6268 38.9852,96.7278 38.8802,98.4648 L38.7382,98.4798 Z M35.2332,111.6458 C35.1202,111.9438 35.0912,111.6598 34.9492,111.6748 C34.9342,111.5318 35.2182,111.5028 35.2332,111.6458 Z M34.7552,101.6308 C34.7852,101.9148 34.8002,102.0568 34.8152,102.1998 C35.2722,102.4388 35.1672,101.4428 34.7552,101.6308 Z M35.4732,105.7258 C34.9042,105.7848 34.8222,106.3668 34.5682,106.6828 C34.9792,106.4948 35.2342,106.1818 35.4732,105.7258 Z M34.6502,103.3658 C35.3622,103.2918 35.1442,102.5958 35.6992,102.3938 C34.8602,102.6258 34.3892,102.2438 34.1642,102.8418 C34.5902,102.7968 35.0472,103.0368 34.6502,103.3658 Z M34.5302,107.6928 C34.6572,107.5358 34.6422,107.3938 34.2002,107.2958 C34.2162,107.4388 34.2302,107.5808 34.1032,107.7368 C34.2452,107.7228 34.3872,107.7078 34.5302,107.6928 Z M34.6952,103.7928 C34.4552,104.2498 34.2242,103.4108 33.8422,103.8828 C33.9022,104.4518 34.3132,104.2648 34.6282,104.5198 C34.7552,104.3618 34.7252,104.0768 34.6952,103.7928 C34.9652,103.6218 34.6652,103.5088 34.6952,103.7928 Z M34.3582,104.6918 C33.7742,104.6098 33.1232,105.2528 33.7372,105.6198 C33.6772,105.0508 34.5602,105.2458 34.3582,104.6918 Z M33.5262,109.0928 C33.3852,109.1078 33.3852,109.1078 33.3992,109.2498 L33.2572,109.2648 C33.2722,109.4058 32.9052,110.0208 33.3322,109.9758 C33.4592,109.8178 33.4292,109.5338 33.3992,109.2498 C33.5412,109.2348 33.5412,109.2348 33.5262,109.0928 C33.6692,109.0768 33.6542,108.9358 33.7962,108.9208 C33.9242,108.7628 33.6242,108.6508 33.7962,108.9208 C33.6392,108.7918 33.5122,108.9508 33.5262,109.0928 Z M33.4522,105.6498 C33.1682,105.6798 33.0262,105.6938 32.8842,105.7088 C32.9292,106.1358 32.5322,106.4648 33.1152,106.5468 C33.3702,106.2328 33.6552,106.2028 33.4522,105.6498 Z M32.7032,106.7348 C32.7482,107.1608 32.9202,107.4308 33.2202,107.5428 C33.3022,106.9598 33.0032,106.8468 32.7032,106.7348 Z M32.4402,116.5398 C32.4402,116.5398 32.4102,116.2568 32.5532,116.2408 C32.5682,116.3828 32.5832,116.5248 32.4402,116.5398 Z M32.4792,107.3328 C32.3372,107.3478 32.1942,107.3618 32.0532,107.3778 C32.0972,107.8058 32.0292,108.5308 32.5842,108.3298 C32.3822,107.7758 32.3822,107.7758 32.4792,107.3328 Z M31.8482,117.7528 C31.8632,117.8948 31.7212,117.9098 31.5782,117.9248 C31.5642,117.7828 31.7062,117.7688 31.8482,117.7528 Z M31.5732,108.2908 C31.7012,108.1338 31.9992,108.2458 31.9702,107.9618 C31.8432,108.1188 31.5432,108.0068 31.5732,108.2908 Z M31.0712,110.3568 C31.1692,109.9158 30.7572,110.1028 30.5852,109.8328 C30.7712,110.2448 30.0752,110.4608 30.6602,110.5438 C30.6452,110.4008 30.9292,110.3718 31.0712,110.3568 Z M30.2912,119.3548 C30.4192,119.1968 30.5462,119.0398 30.8302,119.0108 C30.7182,119.3098 30.5762,119.3238 30.2912,119.3548 Z M30.2102,114.4748 C30.3372,114.3178 30.4942,114.4438 30.4642,114.1588 C30.3372,114.3178 30.1802,114.1898 30.2102,114.4748 Z M29.3952,12.3218 C28.6692,12.2548 29.0812,12.0688 28.8642,11.3718 C29.3052,11.4688 29.2232,12.0538 29.3952,12.3218 Z M28.5572,12.5538 C28.5722,12.6968 28.5872,12.8388 28.6022,12.9808 C28.6022,12.9808 28.4592,12.9958 28.3172,13.0108 C28.3032,12.8688 28.2872,12.7268 28.2722,12.5838 C28.4142,12.5688 28.5572,12.5538 28.5572,12.5538 Z M28.5252,121.6958 C28.5402,121.8388 28.5402,121.8388 28.5542,121.9818 C28.4122,121.9968 28.2702,122.0118 28.2702,122.0118 C28.2552,121.8688 28.2552,121.8688 28.2402,121.7268 C28.2402,121.7268 28.3832,121.7118 28.5252,121.6958 Z M28.1002,9.5828 C27.9892,9.8828 28.7972,9.3658 28.6552,9.3798 C28.4972,9.2538 28.1002,9.5828 28.1002,9.5828 Z M27.9122,14.6348 C28.0552,14.6198 28.0552,14.6198 28.1972,14.6048 C28.1972,14.6048 28.0702,14.7618 27.9122,14.6348 Z M27.4782,15.9748 C27.5232,16.4008 27.2392,16.4308 26.9542,16.4608 C26.9392,16.3188 27.0662,16.1618 27.0512,16.0198 C27.1942,16.0048 27.3362,15.9898 27.4782,15.9748 Z M27.1412,16.8738 C27.1712,17.1568 26.9992,16.8888 26.8572,16.9028 C26.8422,16.7608 27.1262,16.7308 27.1412,16.8738 Z M25.5252,17.9048 C25.5392,18.0478 25.3972,18.0628 25.2552,18.0778 C25.2402,17.9348 25.3972,18.0628 25.5252,17.9048 Z M25.2772,22.3888 C25.3222,22.8158 24.8802,22.7188 25.0672,23.1298 C25.5082,23.2278 25.7182,22.4868 25.2772,22.3888 Z M25.1732,18.6608 C25.2322,19.2308 25.4422,18.4898 25.7412,18.6018 C25.6292,18.9008 25.5162,19.2008 24.9482,19.2598 C24.6342,19.0058 24.7162,18.4228 25.3002,18.5048 C25.3152,18.6458 25.1732,18.6608 25.1732,18.6608 Z M25.0592,24.4248 C24.8722,24.0148 25.5082,23.2278 24.7972,23.3028 C24.8722,24.0148 24.0042,23.9608 24.4902,24.4848 C24.6322,24.4698 24.9172,24.4408 25.0592,24.4248 Z M23.5702,19.8368 C23.5552,19.6938 23.8252,19.5228 23.8102,19.3798 C24.2372,19.3348 23.8702,19.9488 23.5702,19.8368 Z M23.7032,29.3128 C23.5912,29.6118 23.3222,29.7848 23.7632,29.8808 C23.7332,29.5968 24.0032,29.4258 23.7032,29.3128 Z M23.4872,25.8848 C23.3592,26.0418 23.2472,26.3418 23.4192,26.6108 C23.8612,26.7078 23.6592,26.1538 23.6292,25.8698 L23.7722,25.8548 C23.8992,25.6978 24.1382,25.2408 23.6972,25.1438 C23.5842,25.4428 23.5992,25.5858 23.6292,25.8698 L23.4872,25.8848 Z M22.2442,27.7408 C22.0342,28.4818 21.4952,28.8258 21.4282,29.5518 C22.1392,29.4778 23.1422,28.0778 22.2442,27.7408 Z M20.2602,32.1198 C20.5442,32.0898 20.6862,32.0748 20.8292,32.0598 C20.7992,31.7758 20.7842,31.6318 20.7542,31.3488 C21.3232,31.2888 21.1212,30.7348 21.3752,30.4208 C20.6502,30.3528 20.7092,30.9218 20.7542,31.3488 C20.4852,31.5208 20.2152,31.6918 20.2602,32.1198 Z M20.1022,34.7248 C20.2442,34.7098 20.3872,34.6948 20.3722,34.5518 C20.2292,34.5668 20.0872,34.5818 20.1022,34.7248 Z M20.1482,32.4188 C19.8932,32.7338 20.1102,33.4298 20.6642,33.2278 C20.4922,32.9578 20.4472,32.5318 20.1482,32.4188 Z M20.1322,35.0078 C20.0202,35.3078 19.8782,35.3218 19.7652,35.6228 C20.2072,35.7198 20.5742,35.1058 20.1322,35.0078 Z M19.9392,30.4278 C19.9832,30.8548 19.3992,30.7718 19.6012,31.3258 C20.0432,31.4238 20.3802,30.5258 19.9392,30.4278 Z M20.0122,33.8708 C19.9982,33.7288 19.9832,33.5868 19.9832,33.5868 C19.8412,33.6018 19.6982,33.6158 19.5562,33.6308 C19.5562,33.6308 19.5712,33.7738 19.5862,33.9158 C19.7282,33.9008 19.8702,33.8858 20.0122,33.8708 Z M19.5482,34.9258 C19.2642,34.9568 19.2342,34.6718 19.0922,34.6858 C18.9802,34.9858 18.8372,35.0018 18.7102,35.1578 C19.1522,35.2548 19.3092,35.3818 19.5482,34.9258 Z M19.1812,35.5408 C18.8972,35.5708 18.4702,35.6148 18.6422,35.8848 C18.9272,35.8548 19.0542,35.6968 19.1812,35.5408 Z M18.6582,126.3278 C18.6432,126.1858 18.6282,126.0438 18.6282,126.0438 C18.4862,126.0598 18.3442,126.0738 18.3442,126.0738 C18.3442,126.0738 18.3592,126.2158 18.3742,126.3588 C18.3742,126.3588 18.5162,126.3438 18.6582,126.3278 Z M17.7742,41.2958 C17.7592,41.1528 17.7442,41.0118 17.4592,41.0418 C17.4742,41.1828 17.5042,41.4678 17.6612,41.5958 C17.6462,41.4538 17.6312,41.3108 17.7742,41.2958 Z M18.0132,43.5708 C17.7282,43.6008 17.3162,43.7888 17.2192,44.2308 C17.6762,44.4698 18.0732,44.1408 18.0132,43.5708 Z M17.4682,34.2818 C16.8842,34.1998 17.2952,34.0128 17.3932,33.5708 C17.8352,33.6688 17.2952,34.0128 17.4682,34.2818 Z M17.3692,40.1878 C17.3552,40.0468 17.3402,39.9028 17.3402,39.9028 C17.1972,39.9178 17.0552,39.9328 17.0552,39.9328 C17.0552,39.9328 17.0702,40.0758 17.0852,40.2178 C17.0852,40.2178 17.2272,40.2028 17.3692,40.1878 Z M17.5562,43.3318 C17.3692,42.9198 17.4812,42.6208 17.6092,42.4638 C17.3242,42.4928 17.2942,42.2088 16.9942,42.0968 C17.0392,42.5238 16.6282,42.7108 16.6732,43.1368 C17.0842,42.9498 17.1292,43.3768 17.5562,43.3318 Z M17.1452,40.7868 C16.5602,40.7048 16.6052,41.1308 16.6352,41.4158 C17.0772,41.5128 17.0332,41.0868 17.1452,40.7868 Z M16.9212,35.9218 C16.7792,35.9368 16.7632,35.7948 16.6212,35.8098 C16.6062,35.6658 16.5922,35.5248 16.5762,35.3818 C16.8612,35.3518 16.8912,35.6358 16.9212,35.9218 Z M16.5682,42.1408 C16.5542,41.9998 16.5542,41.9998 16.5382,41.8568 C16.3962,41.8718 16.2542,41.8868 16.1122,41.9018 C16.1272,42.0448 16.1272,42.0448 16.1412,42.1858 C16.2832,42.1718 16.4262,42.1558 16.5682,42.1408 Z M15.3562,38.8188 C15.3712,38.9608 15.3862,39.1018 15.4012,39.2448 C15.2592,39.2598 15.0872,38.9898 15.3562,38.8188 Z M15.1982,44.1548 C16.0812,44.3498 16.1032,43.1968 15.7752,42.7998 C15.7442,42.5158 16.8972,42.5378 16.4412,42.2988 C16.1572,42.3288 15.8722,42.3588 15.5882,42.3888 C15.8042,43.0848 15.5652,43.5408 15.1532,43.7278 C15.4382,43.6978 15.3252,43.9978 15.1982,44.1548 Z M15.0342,39.8588 C14.4802,40.0598 14.3902,39.2068 14.9742,39.2898 C14.9902,39.4308 15.0192,39.7158 15.0342,39.8588 Z M14.5692,46.3778 C15.4522,46.5718 15.4302,44.9928 15.2282,44.4398 C15.2582,44.7238 14.6742,44.6408 14.7032,44.9258 C15.3182,45.2918 14.5092,45.8098 14.5692,46.3778 Z M14.6742,47.3728 C14.6582,47.2318 14.6292,46.9468 14.3592,47.1198 C14.3742,47.2608 14.2622,47.5608 14.5462,47.5298 C14.5462,47.5298 14.5322,47.3878 14.6742,47.3728 Z M14.0312,43.9898 C14.1732,43.9748 14.1872,44.1168 14.3452,44.2448 C14.0602,44.2748 13.9182,44.2898 14.0312,43.9898 Z M13.8952,48.1738 C13.9102,48.3158 13.9252,48.4588 13.9402,48.6008 C14.3962,48.8408 14.2922,47.8458 13.8952,48.1738 Z M13.4372,53.3988 C13.3552,53.9828 14.0812,54.0488 14.1642,53.4668 C13.7372,53.5118 13.7222,53.3688 13.4372,53.3988 Z M13.3562,45.7868 C13.3712,45.9288 13.5142,45.9138 13.4992,45.7718 L13.3562,45.7868 Z M13.5882,43.8918 C13.1472,43.7958 13.3422,42.9118 13.4842,42.8968 C14.0532,42.8368 13.6862,43.4508 13.5882,43.8918 Z M13.6992,57.2548 C13.2722,57.2988 13.1452,57.4568 13.1902,57.8818 C13.6312,57.9798 13.4452,57.5678 13.6992,57.2548 Z M14.1122,51.6028 C14.3142,52.1568 14.7552,52.2538 14.5302,52.8528 C15.2572,52.9198 14.8832,52.0968 15.2802,51.7668 C14.2992,52.0138 14.5382,51.5578 14.7632,50.9588 C14.0372,50.8918 13.9392,51.3338 13.3562,51.2508 C13.1982,51.1228 13.1832,50.9818 13.1682,50.8388 C13.4082,50.3818 14.4262,49.1258 13.6852,48.9158 C13.6182,49.6408 12.1872,51.0858 13.3562,51.2508 C13.4302,51.9618 13.6842,51.6478 14.1122,51.6028 Z M13.6092,56.4008 C13.1982,56.5878 13.0402,56.4608 12.8832,56.3328 C13.0702,56.7448 12.9882,57.3288 13.6842,57.1118 C13.6692,56.9688 13.6392,56.6848 13.6092,56.4008 Z M12.7632,55.1958 C12.9062,55.1808 13.0482,55.1658 13.0332,55.0238 C12.8902,55.0388 12.7492,55.0528 12.7632,55.1958 Z M12.6372,49.8878 C12.6072,49.6038 12.4952,49.9018 12.6372,49.8878 C12.7942,50.0158 12.9212,49.8578 12.6372,49.8878 Z M12.5612,57.3738 C12.7032,57.3588 12.9882,57.3288 12.9732,57.1858 C12.8452,57.3438 12.5472,57.2308 12.5612,57.3738 Z M13.5202,52.8158 C13.5052,52.6718 13.5052,52.6718 13.6472,52.6578 C13.7602,52.3588 13.4752,52.3878 13.3332,52.4028 C13.2732,51.8348 13.0862,51.4228 12.5322,51.6258 C12.5622,51.9098 12.4352,52.0658 12.4502,52.2088 C12.8622,52.0218 12.9062,52.4478 13.3332,52.4028 C13.3472,52.5458 13.3782,52.8308 13.5202,52.8158 Z M12.4792,52.4928 C12.2102,52.6658 12.2552,53.0918 12.8092,52.8908 C12.7792,52.6058 12.6222,52.4778 12.4792,52.4928 Z M12.3832,47.4708 C12.3982,47.6118 12.2562,47.6268 12.1142,47.6418 C12.0982,47.5008 12.2412,47.4848 12.3832,47.4708 Z M12.2782,54.6718 C12.0602,53.9758 12.8012,54.1838 12.7562,53.7578 C12.4712,53.7878 12.4272,53.3608 11.8732,53.5628 C12.0752,54.1168 11.6342,54.0208 11.8352,54.5738 C11.9782,54.5588 12.1352,54.6868 12.2782,54.6718 Z M12.0522,60.7338 C12.0362,60.5918 12.0362,60.5918 12.0212,60.4498 C12.0212,60.4498 11.8792,60.4648 11.7372,60.4798 C11.7522,60.6218 11.7522,60.6218 11.7662,60.7638 C11.9092,60.7488 12.0522,60.7338 12.0522,60.7338 Z M12.0662,60.8768 C12.4412,61.6998 11.5432,61.3628 11.7602,62.0588 C12.1862,62.0138 12.6802,61.2438 12.0662,60.8768 Z M11.9332,48.6678 C11.3502,48.5858 11.8742,48.0998 11.8442,47.8148 C12.5552,47.7398 11.9182,48.5258 11.9332,48.6678 Z M12.1502,54.8278 C11.4242,54.7608 11.1622,56.3708 12.0002,56.1378 C12.2552,55.8238 12.2102,55.3978 12.1502,54.8278 Z M11.7402,49.5508 C11.4552,49.5818 11.4252,49.2968 11.3802,48.8708 C11.9332,48.6678 11.7092,49.2658 11.7402,49.5508 Z M11.8742,45.3668 C11.9042,45.6508 11.9192,45.7948 11.9342,45.9358 C11.7922,45.9508 11.6492,45.9658 11.3662,45.9958 C11.3512,45.8538 11.3362,45.7108 11.3362,45.7108 C11.4772,45.6958 11.4632,45.5538 11.5902,45.3968 C11.5902,45.3968 11.7322,45.3808 11.8742,45.3668 Z M10.9292,58.2638 C11.2812,57.5078 11.2882,58.9448 11.6852,58.6158 C11.6252,58.0468 11.5512,57.3358 12.1192,57.2758 C12.0752,56.8488 11.8052,57.0218 11.8872,56.4378 C11.4612,56.4828 11.0342,56.5268 10.7652,56.6998 C11.4382,57.6358 10.1582,57.7708 10.9292,58.2638 Z M11.3202,48.3008 C11.1932,48.4588 10.9232,48.6298 10.6382,48.6598 C10.7662,48.5038 10.7362,48.2188 10.7062,47.9338 C11.0062,48.0468 11.0202,48.1898 11.3202,48.3008 Z M10.9212,62.2918 C10.7792,62.3058 10.4952,62.3358 10.3522,62.3508 C10.5402,62.7628 10.5702,63.0468 11.0112,63.1438 C10.9512,62.5758 10.6672,62.6058 10.9212,62.2918 Z M10.9742,58.6908 C10.2632,58.7658 10.3532,59.6178 10.2702,60.2018 C11.5652,60.2098 10.7492,59.2888 10.9742,58.6908 Z M10.5042,50.1118 C10.5042,50.1118 10.5192,50.2548 10.5342,50.3968 C10.3922,50.4118 10.2492,50.4268 10.1072,50.4418 C10.0922,50.2998 10.0772,50.1568 10.0772,50.1568 C10.2192,50.1418 10.3622,50.1268 10.5042,50.1118 Z M9.8202,69.5958 C9.8492,69.8798 9.6252,70.4798 10.0522,70.4348 C9.7222,70.0388 10.5312,69.5208 9.8202,69.5958 Z M10.7272,60.4428 C10.4432,60.4728 10.1582,60.5028 9.8732,60.5318 C9.7762,60.9728 9.6792,61.4158 9.5812,61.8568 C10.1202,61.5128 10.3462,60.9128 10.7272,60.4428 Z M9.9872,54.7678 C10.0022,54.9108 10.0162,55.0518 10.0472,55.3378 C9.9042,55.3528 9.7622,55.3668 9.6202,55.3818 C9.6052,55.2398 9.4482,55.1118 9.4182,54.8278 C9.5602,54.8128 9.7022,54.7978 9.9872,54.7678 Z M9.8372,53.3458 C9.4102,53.3908 9.3812,53.1058 9.3502,52.8218 C9.6362,52.7918 9.8072,53.0608 9.8372,53.3458 Z M9.5742,57.6878 C9.6042,57.9718 9.3052,57.8598 9.1782,58.0168 C9.1472,57.7328 9.4472,57.8448 9.5742,57.6878 Z M9.5212,64.0188 C9.3192,63.4668 10.2022,63.6598 10.0002,63.1068 C9.5592,63.0088 9.6042,63.4368 9.1622,63.3388 C9.0642,63.7798 9.2222,63.9078 9.5212,64.0188 Z M9.2352,72.2458 C9.1382,72.6878 9.0252,72.9868 9.0852,73.5548 C9.7962,73.4808 9.6612,72.2008 9.2352,72.2458 Z M9.3332,71.8038 C9.3182,71.6628 9.3032,71.5198 9.2882,71.3778 C9.1462,71.3928 9.0042,71.4078 8.8612,71.4218 C8.8762,71.5648 8.8912,71.7078 8.9062,71.8488 C9.0492,71.8348 9.1902,71.8188 9.3332,71.8038 Z M8.7302,48.2858 C8.7452,48.4288 8.7602,48.5698 8.7752,48.7128 C8.6332,48.7278 8.4912,48.7428 8.4912,48.7428 C8.4752,48.5998 8.4612,48.4588 8.4462,48.3158 C8.4462,48.3158 8.5882,48.3008 8.7302,48.2858 Z M8.4292,59.1018 C8.5712,59.0868 8.7282,59.2138 8.7432,59.3568 C8.3162,59.4008 8.3012,59.2588 8.4292,59.1018 Z M8.5632,65.8468 C8.3612,65.2928 8.8032,65.3888 8.7732,65.1048 L8.9142,65.0898 C9.0422,64.9338 9.1542,64.6328 8.8542,64.5218 C8.8692,64.6628 8.7432,64.8208 8.7732,65.1048 C8.3312,65.0078 8.1212,65.7488 8.5632,65.8468 Z M8.5772,71.4528 C8.5622,71.3098 8.5622,71.3098 8.5472,71.1688 C8.4042,71.1828 8.2622,71.1978 8.2622,71.1978 C8.2772,71.3398 8.2772,71.3398 8.2922,71.4828 C8.2922,71.4828 8.4342,71.4668 8.5772,71.4528 Z M8.4662,60.8228 C8.1822,60.8528 8.1522,60.5678 8.1222,60.2848 C8.2792,60.4118 8.4362,60.5378 8.4662,60.8228 Z M8.3232,66.3018 C8.4122,67.1568 8.0152,67.4848 7.9332,68.0688 C8.3452,67.8828 8.9522,66.8118 8.3232,66.3018 Z M8.2942,57.8218 C8.1372,57.6938 8.1072,57.4098 7.9212,56.9988 C8.3772,57.2378 8.5342,57.3658 8.2942,57.8218 Z M8.3252,58.1068 C7.9132,58.2928 8.4592,59.3868 7.8902,59.4458 C7.6732,58.7508 7.9282,58.4348 7.8682,57.8668 C8.0252,57.9948 8.1822,58.1208 8.3252,58.1068 Z M7.5742,75.5848 C7.5882,75.7258 7.4612,75.8828 7.5062,76.3098 C8.0752,76.2508 8.1422,75.5248 7.5742,75.5848 Z M7.5672,68.6838 C7.5972,68.9678 7.3272,69.1388 7.3572,69.4238 C7.7992,69.5218 8.0082,68.7798 7.5672,68.6838 Z M7.5882,78.4588 C7.1462,78.3608 7.3482,78.9158 7.0782,79.0878 C7.5052,79.0428 7.6332,78.8858 7.5882,78.4588 Z M7.2132,80.3678 C7.2132,80.3678 7.1982,80.2248 7.1832,80.0838 C7.1832,80.0838 7.0412,80.0978 6.8982,80.1128 C6.9132,80.2548 6.9282,80.3978 6.9282,80.3978 C7.0712,80.3818 7.2132,80.3678 7.2132,80.3678 Z M7.2232,59.9468 C8.0772,59.8568 7.8002,61.3248 7.2312,61.3848 C6.9022,60.9878 6.6702,60.1508 7.2232,59.9468 Z M7.1512,90.7268 C7.1512,90.7268 7.1372,90.5848 7.1212,90.4418 L6.8372,90.4718 C6.8522,90.6148 6.8672,90.7568 6.8672,90.7568 L7.1512,90.7268 Z M7.2892,72.8818 C7.4982,72.1408 6.8172,72.5008 6.9152,72.0588 C7.2002,72.0288 7.3112,71.7298 7.5962,71.6998 C7.5662,71.4148 7.3942,71.1458 7.1102,71.1748 C7.0122,71.6168 6.6002,71.8038 6.6602,72.3728 C6.9452,72.3428 6.9902,72.7698 7.2892,72.8818 Z M6.5122,65.4868 C6.4292,66.0708 7.4252,65.9658 7.0802,65.4268 C7.9492,65.4788 6.8492,64.5888 7.0802,65.4268 C6.9382,65.4418 6.7962,65.4568 6.5122,65.4868 Z M7.0292,63.5628 C6.8862,63.5768 6.6012,63.6078 6.3182,63.6368 C6.4292,63.3378 6.5562,63.1818 6.5122,62.7548 C6.6842,63.0238 6.9842,63.1368 7.0292,63.5628 Z M6.6592,75.1048 C6.4282,74.2668 7.7612,73.2638 6.7352,73.0838 C6.4952,73.5408 6.5702,74.2528 6.1582,74.4388 C6.4582,74.5498 6.2482,75.2918 6.6592,75.1048 Z M6.1062,75.3068 C6.0092,75.7488 6.3082,75.8598 6.5922,75.8308 C6.6902,75.3898 6.2782,75.5768 6.1062,75.3068 Z M6.1722,82.7768 C5.9182,83.0908 5.8212,83.5338 6.2772,83.7728 C6.1052,83.5048 6.6142,82.8748 6.1722,82.7768 Z M6.0582,91.2728 C5.3402,89.9108 6.7032,86.4608 5.7982,84.6858 C6.0522,87.1038 5.0112,89.5148 5.4902,91.3328 C5.4602,91.0478 5.7742,91.3028 6.0582,91.2728 Z M5.3122,81.4298 C5.7682,81.6698 5.6792,80.8158 5.4092,80.9888 C5.4242,81.1298 5.4242,81.1298 5.2822,81.1448 C5.2972,81.2888 5.3122,81.4298 5.3122,81.4298 Z M5.2002,73.5328 C5.4852,73.5038 5.4032,74.0878 5.9572,73.8838 C5.9122,73.4588 5.1712,73.2478 5.2002,73.5328 Z M5.0022,93.5408 C5.0772,94.2518 4.6812,94.5818 4.8982,95.2778 C5.6242,95.3448 5.0472,93.9678 5.0022,93.5408 Z M4.7272,81.3488 C5.4392,81.2738 4.9082,80.3218 5.8212,80.8008 C6.0542,78.9078 5.9042,77.4848 6.4652,75.9878 C5.5302,76.6618 4.6682,78.0458 5.6562,79.2368 C5.2292,79.2818 5.4542,78.6828 5.0282,78.7278 C5.1332,79.7228 4.8922,80.1798 4.7272,81.3488 C4.6012,81.5048 4.7572,81.6318 4.7272,81.3488 Z M4.6692,75.3138 C4.9692,75.4268 4.7592,76.1678 5.3122,75.9648 C4.9392,75.1428 5.8222,75.3368 5.6202,74.7838 C5.3202,74.6698 5.3502,74.9548 5.2232,75.1128 C4.9242,74.9998 4.7812,75.0148 4.6692,75.3138 Z M4.8462,96.1468 C4.7482,96.5868 4.3962,97.3428 4.7102,97.5978 C4.8082,97.1558 5.5862,96.3548 4.8462,96.1468 Z M5.3082,103.2878 C5.2332,102.5758 4.6492,102.4938 5.1582,101.8648 C4.8742,101.8948 4.9712,101.4528 4.5602,101.6398 C4.4772,102.2238 4.3802,102.6658 4.4702,103.5198 C5.0542,103.6008 5.0392,103.4588 5.3082,103.2878 Z M4.7012,109.8208 C5.0142,112.8078 5.6502,117.4858 7.3872,120.3238 C5.6882,116.4768 5.9952,112.5618 4.8432,109.8068 C5.2322,108.0398 5.0232,106.0498 4.3582,103.8178 C4.4392,105.9658 4.1622,107.4338 4.8432,109.8068 L4.7012,109.8208 Z M5.0692,101.0118 C4.8672,100.4578 5.6302,99.5148 5.1442,98.9898 C5.0772,99.7168 4.4032,98.7808 4.3212,99.3638 C4.3662,99.7918 4.3282,100.8018 5.0692,101.0118 Z M6.9152,66.5948 C6.6322,66.6248 6.7282,66.1828 6.4442,66.2128 C6.1752,66.3848 6.3922,67.0808 5.8382,67.2828 C5.8232,67.1408 5.5382,67.1708 5.5232,67.0278 C5.3062,66.3318 5.7182,66.1458 6.3022,66.2278 C6.5272,65.6288 5.7182,66.1458 5.6732,65.7178 C6.3852,65.6428 5.9802,64.5368 6.2202,64.0788 C6.6612,64.1768 7.0662,65.2838 7.5602,64.5138 C6.6762,64.3178 7.5152,64.0868 7.9272,63.8998 C7.7102,63.2038 7.2832,63.2488 6.7822,62.5818 C7.0522,62.4108 7.0362,62.2678 7.3052,62.0958 C7.3502,62.5228 7.7772,62.4778 8.2042,62.4328 C8.2272,61.2798 9.0352,60.7638 8.7432,59.3568 L9.0282,59.3268 C9.4092,58.8548 9.6342,58.2558 10.0012,57.6428 C9.5142,57.1178 9.8972,56.6468 10.2482,55.8908 C10.6302,55.4208 10.9972,54.8058 10.7362,53.6818 C10.7062,53.3978 11.3042,53.6228 11.2592,53.1968 C10.6162,52.5458 12.0902,51.5278 11.6722,50.2768 C12.1132,50.3748 12.0832,50.0908 12.3672,50.0608 C12.1662,49.5058 12.1662,49.5058 12.5772,49.3198 C12.5332,48.8928 12.2332,48.7808 12.3162,48.1958 C12.7422,48.1518 13.1542,47.9648 13.2662,47.6648 C13.1242,47.6798 12.8392,47.7098 12.8252,47.5678 C13.3642,47.2238 13.5742,46.4828 13.7832,45.7418 C13.6412,45.7558 13.6412,45.7558 13.4992,45.7718 C13.4692,45.4858 13.1252,44.9478 13.5522,44.9028 C13.7082,45.0308 13.9922,45.0008 14.2772,44.9708 C14.2622,44.8278 14.2472,44.6858 14.3892,44.6708 C14.3752,44.5288 14.3602,44.3868 14.3452,44.2448 C14.7572,44.0578 14.2402,43.2488 14.2102,42.9648 C14.7342,42.4778 14.6292,41.4818 15.1992,41.4218 C14.5992,41.1988 15.5952,41.0938 15.5502,40.6668 C14.5102,40.3448 15.6332,40.0828 15.4012,39.2448 C15.5432,39.2298 15.5432,39.2298 15.6852,39.2148 C15.7382,38.3458 16.1202,37.8748 16.8902,38.3688 C16.8162,37.6578 16.9582,37.6438 16.7562,37.0888 C17.4522,36.8718 17.3402,37.1718 17.9382,37.3958 C17.7282,38.1368 17.2052,38.6248 17.1372,39.3508 C18.1032,38.9608 17.9832,37.8228 18.1632,36.7968 C17.5642,36.5728 17.2652,36.4608 16.8382,36.5058 C17.0782,36.0488 17.5052,36.0048 17.9472,36.1008 C18.1182,36.3708 18.2762,36.4978 18.5752,36.6098 C18.5302,36.1838 18.3732,36.0558 17.9472,36.1008 C17.9022,35.6748 17.3472,35.8768 17.4152,35.1508 C18.0142,35.3748 17.7972,34.6788 18.5532,35.0308 C18.3502,34.4768 19.1072,34.8298 19.0472,34.2598 C18.4182,33.7508 18.1262,35.0758 17.7522,34.2528 C18.6052,34.1628 18.5312,33.4518 18.4862,33.0248 C18.7702,32.9948 18.9122,32.9798 19.1972,32.9498 C19.3472,31.6398 19.2802,29.6338 20.7022,29.4848 C20.4402,28.3618 20.4932,27.4938 21.8032,27.6438 C21.4432,26.9618 21.3682,26.2508 22.2662,26.5888 C22.4172,25.2788 22.6342,23.2428 24.1392,22.5088 C24.0942,22.0818 23.3232,21.5888 23.8462,21.1008 C24.2592,20.9148 23.7802,21.8278 24.3182,21.4838 C24.6862,20.8698 25.0222,19.9708 24.8352,19.5598 C25.3222,20.0838 27.0812,19.0358 26.2812,18.2578 C27.5152,17.6958 28.4892,16.0118 28.1972,14.6048 C28.2792,14.0208 27.8672,14.2098 27.6962,13.9388 C27.6662,13.6548 27.7782,13.3548 28.0482,13.1828 C28.2492,13.7368 28.4372,14.1498 29.0202,14.2318 C29.7392,12.8608 29.7252,9.9868 31.4162,9.6658 C31.6562,9.2088 32.0382,8.7368 32.0912,7.8688 C31.2072,7.6738 30.9302,9.1408 30.4072,9.6288 C25.8992,13.2648 24.2222,19.1928 20.6432,23.4518 C20.0062,26.9698 17.3262,28.8328 16.6892,32.3508 C15.1322,33.9528 14.8182,36.4298 13.7172,38.2718 C13.5752,38.2858 13.5602,38.1438 13.4182,38.1588 C13.7392,39.8508 11.8672,41.1978 11.9352,43.2038 C11.6352,43.0908 11.6652,43.3758 11.5232,43.3898 C10.2652,47.8368 8.9912,52.1408 7.1792,56.7888 C7.5242,57.3278 7.2242,57.2158 7.2992,57.9268 C6.4912,58.4428 6.7672,59.7078 6.5722,60.5908 C6.4302,60.6058 6.2872,60.6208 6.0042,60.6508 C6.8492,61.8568 4.9182,62.6348 6.0182,63.5258 C5.7482,63.6968 5.4642,63.7268 5.1942,63.9008 C5.3142,65.0368 5.6882,65.8608 4.6252,66.6908 C4.9102,66.6608 5.0672,66.7888 5.2392,67.0578 C4.8572,67.5308 4.6172,67.9858 4.5352,68.5708 C4.6782,68.5558 4.9622,68.5258 4.9922,68.8088 C4.7222,68.9828 4.4682,69.2968 4.1982,69.4678 C4.7002,70.1338 3.8612,70.3658 4.2652,71.4738 C4.9912,71.5418 4.1462,70.3368 4.7152,70.2768 C4.9992,70.2468 4.9172,70.8308 5.3282,70.6438 C5.5532,70.0448 5.3062,69.0638 5.4332,68.9078 C6.1442,68.8328 5.4552,70.4868 6.1662,70.4128 C6.1072,69.8428 6.0622,69.4168 6.5332,69.7978 C6.5862,68.9298 5.4042,68.6228 5.7702,68.0078 C6.2122,68.1068 6.2722,68.6738 6.6992,68.6298 C6.6242,67.9188 6.5642,67.3508 7.1182,67.1478 C7.0882,66.8638 6.9452,66.8788 6.9152,66.5948 C7.3432,66.5498 6.5572,65.9138 6.9152,66.5948 Z M4.8042,76.5938 C4.7742,76.3098 4.7592,76.1678 4.7432,76.0248 C4.3172,76.0698 4.0332,76.0998 4.0632,76.3848 C4.3622,76.4978 4.3772,76.6388 4.8042,76.5938 Z M4.1362,85.2918 C4.1502,85.4348 4.0092,85.4488 3.8662,85.4638 C3.8522,85.3218 3.9942,85.3068 4.1362,85.2918 Z M4.4232,71.6018 C3.8682,71.8028 3.9662,71.3618 3.6662,71.2498 C3.4572,71.9908 3.8902,73.3828 5.0132,73.1218 C4.5272,72.5968 4.6552,72.4398 4.4232,71.6018 Z M3.4042,72.8588 C3.5462,72.8438 3.6892,72.8288 3.6742,72.6868 C3.5322,72.7018 3.3892,72.7158 3.4042,72.8588 Z M3.9002,111.7758 C3.7582,111.7898 3.6152,111.8048 3.4732,111.8198 C3.5032,112.1058 3.3612,112.1198 3.3762,112.2618 C3.6602,112.2318 3.9442,112.2018 3.9002,111.7758 Z M3.8752,75.9728 C3.8462,75.6888 3.8302,75.5468 3.8012,75.2618 C4.3692,75.2018 4.0252,74.6628 4.2802,74.3488 C3.8082,73.9668 3.2842,74.4538 3.1722,74.7528 C3.5982,74.7078 3.7562,74.8348 3.8012,75.2618 C3.0742,75.1938 3.1792,76.1898 3.8752,75.9728 Z M2.9122,110.5838 C3.0542,110.5688 3.0842,110.8548 3.1962,110.5548 C3.1812,110.4118 2.8822,110.2998 2.9122,110.5838 Z M3.1372,104.5228 C3.0102,104.6788 2.8672,104.6928 2.8832,104.8358 C2.7402,104.8518 2.7252,104.7088 2.5832,104.7238 C2.5682,104.5818 2.7112,104.5678 2.6962,104.4248 C2.8382,104.4088 2.8522,104.5518 3.1372,104.5228 Z M2.6012,85.7408 C2.5722,85.4568 2.4592,85.7548 2.6012,85.7408 C2.7732,86.0108 2.8862,85.7108 2.6012,85.7408 Z M2.8262,82.4098 C3.3802,82.2088 3.1632,81.5128 3.5752,81.3238 C2.8342,81.1148 3.3282,80.3438 3.4262,79.9018 C2.9692,79.6628 2.6842,79.6928 2.4292,80.0068 C3.1042,80.9428 2.8792,81.5428 2.8262,82.4098 Z M3.0542,107.8388 C2.6282,107.8828 2.8002,108.1518 2.3442,107.9128 C3.5412,108.3618 2.2382,109.6498 3.1512,110.1288 C3.1892,109.1188 3.5862,108.7888 3.0542,107.8388 Z M2.6512,103.9978 C2.5092,104.0128 2.4932,103.8698 2.3512,103.8848 C2.3372,103.7428 2.3222,103.6018 2.3222,103.6018 C2.5912,103.4298 2.6212,103.7138 2.6512,103.9978 Z M3.0902,78.0688 C2.5352,78.2698 2.4532,78.8548 2.2282,79.4538 C2.7972,79.3938 2.8802,78.8098 3.1042,78.2108 C3.0212,78.7948 3.1792,78.9218 3.5912,78.7348 C3.0452,77.6418 4.3772,76.6388 3.0372,76.2038 C2.4982,76.5488 3.7562,77.5678 2.5872,77.4028 C2.5052,77.9868 3.1722,77.4838 3.0902,78.0688 Z M2.4342,100.5688 C2.4492,100.7118 2.3072,100.7278 2.1652,100.7418 C2.1502,100.5998 2.3072,100.7278 2.4342,100.5688 Z M2.2022,102.4628 C1.6332,102.5228 2.3142,102.1638 2.1422,101.8938 C2.7262,101.9778 2.3142,102.1638 2.2022,102.4628 Z M3.3802,87.6718 C3.3422,88.6818 2.5782,89.6258 2.5112,90.3518 C2.5112,90.3518 2.8402,90.7488 2.8552,90.8908 C3.0192,92.4558 1.7692,95.6068 1.7762,97.0438 C1.9482,97.3128 1.9782,97.5968 2.1502,97.8668 C1.2002,98.3978 2.3592,99.8588 1.4242,100.5308 C1.4842,101.1008 1.9102,101.0558 2.0972,101.4678 C1.8132,101.4978 1.6712,101.5128 1.5132,101.3848 C2.0222,103.4888 2.2312,105.4798 2.2992,107.4848 C2.5832,107.4548 2.8672,107.4258 3.0102,107.4108 C3.0472,106.4008 3.0472,106.4008 3.2422,105.5188 C2.8152,105.5638 2.7032,105.8608 2.6732,105.5778 C3.5942,104.7618 3.1902,103.6528 2.6582,102.7028 C3.0852,102.6578 3.3552,102.4848 3.4822,102.3278 C3.2802,101.7748 3.2502,101.4898 3.6322,101.0188 C3.1902,100.9218 3.1452,100.4948 2.8462,100.3818 C3.9622,98.6838 2.8462,94.9178 4.2472,93.1888 C4.0602,92.7768 3.8582,92.2228 3.6562,91.6708 C3.9402,91.6398 4.0822,91.6258 4.3522,91.4518 C3.3792,90.4048 4.3152,89.7308 4.2252,88.8778 C3.7982,88.9218 3.3712,88.9668 3.3262,88.5408 C3.7532,88.4958 3.9112,88.6218 4.2112,88.7358 C3.8062,87.6268 4.6442,87.3958 4.8842,86.9388 C4.9672,86.3548 4.4122,86.5568 4.2402,86.2868 C4.4952,85.9738 4.4652,85.6888 5.0492,85.7718 C4.8622,85.3598 4.8022,84.7908 4.6152,84.3798 C4.8852,84.2058 5.5212,83.4208 4.9072,83.0548 C5.0792,83.3238 4.6982,83.7958 4.6672,83.5098 C4.7352,82.7848 5.3042,82.7258 5.3712,81.9998 C4.9452,82.0448 4.6312,81.7888 4.2192,81.9758 C4.2942,82.6868 3.8962,83.0168 3.6422,83.3308 C3.9642,85.0228 3.3872,86.3768 3.3802,87.6718 Z M0.9692,92.0958 C0.2952,91.1598 0.4302,89.7078 0.5652,88.2548 C1.3812,89.1758 0.7212,91.1148 0.9692,92.0958 Z M0.7892,93.1208 C0.6472,93.1358 0.4742,92.8668 0.3322,92.8808 C0.4442,92.5818 0.5572,92.2818 0.9842,92.2368 C0.8712,92.5368 0.7592,92.8368 0.7892,93.1208 Z M23.9962,27.9878 C24.1682,28.2568 24.4822,28.5118 25.0362,28.3108 C25.4552,29.5608 24.3172,29.6798 23.9502,30.2938 C23.9722,31.8728 23.3362,32.6578 22.5582,33.4598 C22.9172,34.1408 22.3252,35.3538 21.4872,35.5858 C21.5322,36.0118 21.8162,35.9828 21.8462,36.2668 C21.4202,36.3118 21.4502,36.5958 21.0082,36.4978 C21.0532,36.9258 21.0822,37.2098 21.1122,37.4938 C20.8272,37.5238 20.6862,37.5388 20.5292,37.4108 C20.1322,37.7408 21.0452,38.2208 20.0342,38.1818 C20.1912,38.3108 20.3342,38.2958 20.6182,38.2658 C19.6152,39.6638 19.1212,40.4358 19.0312,42.3138 C18.4472,42.2318 17.9082,42.5758 17.9532,43.0028 C19.1352,43.3088 17.6982,46.0488 16.8892,46.5658 C17.3382,48.0998 16.1932,49.5138 15.8032,51.2818 C15.1072,51.4978 15.9012,50.8388 15.3312,50.8988 C15.1902,50.9138 15.2052,51.0558 15.0622,51.0708 C16.1622,51.9628 14.9572,52.8078 14.8222,54.2598 C14.6352,53.8478 14.4782,53.7208 13.9392,54.0648 C13.9692,54.3498 14.1112,54.3348 14.2682,54.4628 C14.4712,55.0168 14.3662,54.0198 14.8222,54.2598 C14.6052,56.2958 13.6692,56.9688 13.6242,59.2748 C13.4972,59.4328 13.0702,59.4778 12.6432,59.5228 C13.3912,61.1688 12.2902,63.0088 11.8872,64.6338 C11.4602,64.6788 11.3472,64.9788 10.7642,64.8958 C10.9662,65.4498 10.5692,65.7788 10.8842,66.0328 C11.7372,65.9438 10.9362,65.1648 11.4902,64.9638 C12.1482,65.7568 11.1902,67.5838 10.8532,68.4818 C10.9872,69.7608 10.4862,71.8268 9.8942,73.0398 C10.2602,75.1588 8.7632,77.3298 9.2412,79.1468 C9.1592,79.7318 8.8452,79.4768 8.4032,79.3798 C8.9352,80.3308 8.2232,80.4048 8.8382,80.7718 C8.7172,82.3668 8.2382,83.2798 7.4592,84.0808 C7.9312,84.4618 7.5722,83.7808 8.1412,83.7208 C8.1862,84.1478 8.2312,84.5738 8.2752,85.0008 C7.7212,85.2028 7.9162,84.3198 7.3622,84.5218 C7.1082,84.8368 8.0212,85.3148 8.3502,85.7118 C7.1972,88.4218 8.2742,90.4648 7.0922,92.8898 C7.2562,94.4548 7.5772,96.1458 6.7162,97.5298 C6.9332,98.2278 7.2252,99.6348 6.3872,99.8658 C6.5742,100.2778 6.7452,100.5478 7.2022,100.7868 C6.5512,104.1628 7.1942,107.5468 7.4402,111.2588 C9.3482,117.0978 10.0582,125.2208 18.3882,123.7688 C24.1762,119.9968 27.9042,114.4288 30.5322,107.9698 C30.9452,107.7818 30.8852,107.2138 31.4532,107.1538 C31.4242,106.8688 31.3942,106.5848 31.3642,106.3008 C34.2172,101.9748 35.6392,96.3598 38.4622,91.7498 C39.8932,84.8398 43.5242,79.7138 44.2432,72.8798 C44.5282,72.8508 44.6852,72.9778 44.7302,73.4038 C45.0972,72.7908 45.3062,72.0498 45.5012,71.1668 C45.4862,71.0238 45.2012,71.0538 44.9182,71.0838 C44.7002,70.3878 45.0972,70.0588 44.8802,69.3628 C45.1952,69.6168 46.2052,69.6538 46.1452,69.0858 C45.9142,68.2468 45.5622,69.0028 45.0902,68.6218 C45.0452,68.1938 45.6292,68.2768 46.0562,68.2318 C46.3252,68.0598 46.2952,67.7758 46.2502,67.3488 C45.6822,67.4078 46.0412,68.0888 45.3152,68.0228 C45.5102,67.1388 45.7202,66.3988 45.9292,65.6578 C46.4982,65.5978 46.4002,66.0388 46.9392,65.6938 C47.1792,65.2388 46.7452,63.8468 46.2892,63.6068 C46.4162,63.4488 46.4012,63.3068 46.3712,63.0218 C46.9252,62.8208 46.6022,63.8618 46.8872,63.8318 C47.5242,63.0468 46.2292,63.0368 46.4232,62.1548 C46.8502,62.1098 47.4342,62.1918 47.3892,61.7658 C47.4722,61.1818 46.6782,61.8408 46.6332,61.4128 C46.9552,60.3728 47.6592,58.8608 47.4122,57.8798 L47.5542,57.8648 C47.5402,57.7228 47.4122,57.8798 47.4122,57.8798 C41.8132,59.3318 36.9702,61.1338 31.9172,63.6798 C30.1432,64.5848 28.8252,65.7308 27.3362,66.6058 C26.1162,67.3088 24.8802,67.8698 23.9372,67.1058 C21.5882,61.1708 27.4792,58.3938 32.1272,57.4748 L32.1422,57.6158 C32.2842,57.6008 32.2702,57.4598 32.1272,57.4748 C32.1122,57.3308 32.0822,57.0468 32.0672,56.9048 C32.9362,56.9568 33.2732,56.0598 33.9022,56.5678 C34.1712,56.3958 34.4262,56.0818 34.5382,55.7828 C39.6962,54.2338 45.1532,52.7978 50.3252,51.3908 C54.2332,50.2618 58.4542,49.3858 62.4662,49.2528 C63.6192,49.2758 64.7872,49.4398 65.8572,50.0468 C65.3482,50.6748 63.9712,51.2518 63.3872,51.1688 C62.4742,50.6898 61.6202,50.7798 60.8272,51.4378 C60.7972,51.1538 60.7822,51.0108 60.9092,50.8548 C60.0412,50.8018 59.1882,50.8908 58.9632,51.4898 C58.4092,51.6918 58.6192,50.9508 58.3192,50.8388 C55.9472,51.5188 54.3672,51.5418 52.2632,52.0498 C53.2742,52.0878 54.4872,52.6788 55.1162,53.1888 C54.3892,53.1218 55.3022,53.5998 55.3172,53.7428 C55.8712,53.5408 55.1302,53.3298 55.1162,53.1888 C55.3852,53.0168 55.3552,52.7318 55.4822,52.5738 C55.9242,52.6718 56.9942,53.2778 56.7332,52.1548 C57.1442,51.9688 56.9342,52.7098 56.9642,52.9938 C58.0422,52.3048 59.7492,52.1258 61.7402,51.9168 C61.1342,52.9868 59.1792,52.1858 58.4162,53.1288 C59.2172,53.9078 60.1232,52.9488 61.0062,53.1448 C59.8762,54.7008 58.3562,55.2918 55.8112,55.7038 C57.0762,58.1588 54.7782,59.5508 54.9192,62.2688 C54.5082,62.4558 54.3952,62.7548 54.1262,62.9258 C54.7322,64.5888 54.5142,66.6238 53.0392,67.6418 C52.8822,70.2468 51.6842,72.5298 51.9242,74.8048 C51.4592,75.8608 50.8232,76.6468 50.9872,78.2118 C49.9302,83.2118 48.3132,89.7078 48.0872,95.7708 C47.3842,97.2838 47.9082,99.5288 47.1882,100.8998 C47.5102,102.5908 47.0092,104.6558 46.7612,106.4068 C47.0972,108.2418 47.1652,110.2468 46.7752,112.0138 C46.9322,112.1418 46.9322,112.1418 47.2172,112.1108 C46.8122,116.4678 47.9562,120.5188 48.9732,124.7248 C48.5322,124.6258 48.7342,125.1808 48.4502,125.2108 C47.8662,125.1288 47.6942,124.8598 47.2222,124.4768 C47.0952,124.6338 47.1102,124.7758 47.1402,125.0608 C46.1292,125.0248 45.8382,123.6158 44.9992,123.8488 C44.3782,122.0438 41.9912,122.5828 41.8932,120.2908 C42.2452,119.5358 42.4932,117.7848 41.3252,117.6198 C41.8192,116.8488 41.5572,115.7258 41.4382,114.5878 C41.3932,114.1608 40.8842,114.7898 41.0552,115.0598 C40.5392,114.2508 42.1572,113.2188 40.8022,112.6418 C41.3562,112.4408 41.3112,112.0138 42.0672,112.3648 C41.9772,111.5108 41.6622,111.2568 41.9032,110.7998 C41.1772,110.7338 41.4462,110.5608 40.5622,110.3658 C40.5032,109.7978 40.6152,109.4978 40.7132,109.0558 C40.8552,109.0408 40.8852,109.3248 40.9002,109.4678 C41.5362,108.6828 40.3532,108.3748 40.5032,107.0648 C41.4612,107.9708 40.4362,105.0588 41.5072,105.6648 C41.7092,106.2198 40.9972,106.2938 41.3572,106.9758 C41.7682,106.7888 41.8352,106.0628 41.7762,105.4928 C41.8732,105.0528 41.1922,105.4108 40.8932,105.2988 C40.9902,104.8578 40.9452,104.4308 41.2002,104.1158 C41.9262,104.1838 41.5302,104.5138 41.5892,105.0828 C42.2252,104.2958 41.6192,102.6338 42.0832,101.5788 C42.0692,101.4378 41.7842,101.4668 41.6422,101.4828 C41.4702,101.2118 40.9162,101.4128 40.9982,100.8298 C41.5522,100.6278 41.2002,101.3838 41.8962,101.1668 C42.3232,101.1218 41.6642,100.3278 42.4062,100.5378 C42.1892,99.8418 41.7622,99.8868 42.2562,99.1158 C41.9422,98.8618 41.5072,100.2018 41.0212,99.6778 C41.2612,99.2208 41.0582,98.6668 41.2982,98.2108 C40.3102,99.7518 39.3372,101.4368 39.2312,103.1728 C39.3732,103.1578 39.5012,103.0008 39.6282,102.8428 C39.5462,103.4278 39.6202,104.1388 38.9092,104.2128 C38.8652,103.7858 39.1492,103.7568 38.9622,103.3448 C38.3402,104.2728 39.2162,105.7628 37.9952,106.4668 C37.8082,106.0538 38.3482,105.7098 37.8762,105.3278 C37.4642,105.5168 37.5392,106.2268 37.1282,106.4128 C37.4572,106.8098 37.5842,106.6528 37.9952,106.4668 C37.6742,107.5068 37.0372,108.2918 36.7002,109.1908 C36.4162,109.2208 36.5282,108.9208 36.6552,108.7638 C35.0382,109.7968 34.9932,112.1018 33.5332,113.2628 C33.4512,113.8458 34.0342,113.9288 33.8102,114.5258 C33.3092,113.8598 33.0472,115.4698 32.3362,115.5448 C32.3952,116.1128 33.0162,115.1858 33.0612,115.6118 C33.1062,116.0378 32.9792,116.1968 32.5532,116.2408 C32.2232,115.8438 31.7442,116.7568 31.6322,117.0578 C31.4892,117.0718 31.4592,116.7868 31.4292,116.5028 C31.0482,116.9738 30.6512,117.3038 30.4272,117.9018 C30.8532,117.8578 30.8082,117.4308 31.2802,117.8138 C31.1522,117.9698 31.0252,118.1268 31.4522,118.0818 C31.6532,118.6368 30.9122,118.4258 31.1152,118.9808 C31.1152,118.9808 30.9722,118.9948 30.8302,119.0108 C30.8012,118.7268 30.9422,118.7108 30.7702,118.4418 C30.2312,118.7858 30.1492,119.3688 29.7522,119.6978 C29.7822,119.9828 30.1942,119.7958 30.0822,120.0958 C29.7972,120.1248 29.0862,120.1998 29.5282,120.2978 C29.3182,121.0378 29.2132,120.0418 29.0712,120.0578 C28.4502,120.9848 28.6072,121.1128 27.6862,121.9288 C27.7012,122.0708 27.7312,122.3558 28.0002,122.1838 C25.3872,126.0528 17.6332,128.8808 13.1042,125.4748 C12.5652,125.8178 13.7032,125.6988 13.4642,126.1548 C8.3742,124.2458 4.6242,120.0388 3.0162,114.3128 C3.1962,113.2858 2.6652,112.3358 2.1632,111.6698 C2.1032,111.1008 2.2002,110.6588 2.4402,110.2028 C2.2832,110.0758 1.8872,110.4048 1.5572,110.0078 C1.0262,106.3248 0.8182,101.6028 0.9232,97.1328 C0.9082,96.9908 0.7652,97.0048 0.6382,97.1628 C0.4512,96.7518 0.5642,96.4518 0.9912,96.4068 C0.4592,95.4558 1.2832,95.0818 0.8642,93.8318 C0.4372,93.8768 1.0962,94.6708 0.4962,94.4458 C0.3252,94.1768 0.1672,94.0488 0.2642,93.6078 C0.5192,93.2938 0.4072,93.5918 0.8342,93.5478 C1.5152,90.4568 1.1032,87.9108 2.0702,84.7898 C1.5842,84.2658 1.2912,85.5908 1.0592,84.7538 C0.7002,84.0718 1.7412,84.3938 1.8832,84.3788 C2.0932,83.6378 1.8762,82.9408 2.0412,81.7738 C1.6582,82.2448 1.9062,83.2258 1.5392,83.8388 C0.7832,83.4878 1.2852,81.4218 1.7792,80.6508 C1.9512,80.9208 1.7412,81.6618 2.0262,81.6318 C2.4372,81.4438 1.9212,80.6358 2.3322,80.4488 C2.1312,79.8948 1.9212,80.6358 1.6212,80.5238 C1.1132,78.4198 2.7832,76.5198 2.1322,74.4308 C2.5732,74.5278 2.5132,73.9588 2.7982,73.9288 C2.0792,72.5668 3.7792,70.9508 3.0312,69.3028 C3.1732,69.2888 3.1432,69.0038 3.4422,69.1168 C6.2892,55.1568 10.3782,42.0728 16.2112,30.5318 C16.1802,30.2478 16.1512,29.9628 16.1212,29.6788 C17.5512,28.2338 17.7082,25.6298 19.2962,24.3128 C19.4602,23.1448 19.4832,21.9918 20.5912,21.5888 C20.0902,20.9218 21.4972,20.6298 21.0782,19.3798 C21.2052,19.2218 21.6322,19.1768 21.9312,19.2898 C21.9692,18.2788 22.6202,17.6348 23.2712,16.9928 C23.3012,17.2768 23.4132,16.9778 23.2712,16.9928 C23.8632,15.7788 25.0682,14.9338 25.0312,13.2128 C25.1732,13.1978 25.4582,13.1688 25.4722,13.3098 C26.1912,11.9398 28.1232,11.1608 27.8012,9.4698 C29.4032,8.2958 30.2862,5.7578 32.1062,5.2798 C32.3302,4.6798 32.8172,5.2048 32.5702,4.2238 C34.2022,3.3338 35.3622,2.0608 36.8372,1.0438 C40.9172,0.1828 45.6402,-0.0252 47.9832,1.7408 C47.9752,3.0358 48.9412,2.6468 48.8882,3.5158 C48.9482,4.0848 48.5362,4.2718 48.4392,4.7128 C47.4432,4.8168 46.7922,5.4608 45.9082,5.2668 C40.5272,7.4138 36.8732,10.9618 33.5492,14.9058 C32.7472,16.8588 31.7892,18.6858 30.0452,19.8758 C29.9482,20.3168 29.5362,20.5028 29.4542,21.0878 C29.3412,21.3868 28.9142,21.4318 28.6452,21.6038 C28.1582,23.8128 27.0882,25.9378 25.3882,27.5548 C24.8942,28.3258 24.6622,27.4858 23.9962,27.9878 Z M0.1742,98.2178 C0.1442,97.9348 0.2572,97.6348 0.6982,97.7318 C0.4292,97.9048 0.6162,98.3158 0.1742,98.2178 Z M0.0022,95.2168 C-0.0418,94.7898 0.5412,94.8728 0.5122,94.5888 C0.9532,94.6858 0.4442,95.3148 0.0022,95.2168 Z" id="Fill-1" fill="#CFA56B" mask="url(#mask-2)"></path>
                </g>
                <path d="M133.1836,44.2594 C133.1686,44.1164 133.1686,44.1164 133.1546,43.9754 C133.1546,43.9754 133.0116,43.9904 132.8706,44.0054 C132.8846,44.1464 132.8846,44.1464 132.8996,44.2894 C133.0406,44.2744 133.1836,44.2594 133.1836,44.2594 Z M132.7426,41.4294 C133.2966,41.2274 132.3756,42.0444 132.9596,42.1254 C133.2136,41.8114 133.1096,40.8154 132.7426,41.4294 Z M132.7356,39.9924 C133.0196,39.9634 133.0496,40.2474 133.1626,39.9474 C133.1476,39.8054 132.8626,39.8354 132.7356,39.9924 Z M132.7876,36.3924 C132.5786,37.1334 132.8486,36.9604 132.7946,37.8294 C133.3496,37.6264 133.1026,36.6464 132.7876,36.3924 Z M132.8316,45.0154 C132.8466,45.1564 132.7046,45.1724 132.7046,45.1724 C132.7196,45.3144 132.7346,45.4574 132.7496,45.5994 C133.0346,45.5694 133.0036,45.2844 132.9746,45.0004 C133.5126,44.6564 132.3456,44.4904 132.9746,45.0004 L132.8316,45.0154 Z M132.8556,35.6654 L132.8266,35.3824 C132.6836,35.3974 132.5406,35.4124 132.5406,35.4124 C132.5556,35.5534 132.5556,35.5534 132.5716,35.6954 C132.5716,35.6954 132.7136,35.6804 132.8556,35.6654 Z M132.7416,49.6254 C132.7416,49.6254 132.7266,49.4834 132.7116,49.3414 L132.4266,49.3714 C132.4416,49.5134 132.4566,49.6554 132.4566,49.6554 C132.5986,49.6404 132.5986,49.6404 132.7416,49.6254 Z M132.4216,31.5414 C132.8406,32.7914 131.9346,33.7494 132.9236,34.9394 C132.8036,33.8024 133.0956,32.4774 132.4216,31.5414 Z M132.4726,47.0664 C132.8616,48.0314 132.3076,48.2334 132.3966,49.0874 C133.0786,48.7274 133.0856,47.4324 132.4726,47.0664 Z M132.3626,30.9734 C132.3766,31.1144 132.4216,31.5414 132.6916,31.3684 C132.8036,31.0704 132.6466,30.9434 132.3626,30.9734 Z M132.1836,29.2664 C132.3556,29.5364 132.0336,30.5764 132.5866,30.3734 C132.2576,29.9774 132.9096,29.3344 132.1836,29.2664 Z M131.8546,26.1374 C131.8836,26.4214 131.9136,26.7064 132.0716,26.8334 C132.3256,26.5194 132.2806,26.0924 131.8546,26.1374 Z M132.1796,51.1224 C132.1796,53.8554 131.4226,56.2344 131.5046,58.3834 C131.8496,56.1894 132.7476,53.7954 132.1796,51.1224 Z M130.9896,52.1114 C130.1516,52.3424 130.6156,51.2864 130.9586,51.8264 C130.9586,51.8264 130.9746,51.9674 130.9896,52.1114 Z M131.0336,60.7334 C130.9206,61.0334 130.6516,61.2054 130.7106,61.7744 L130.5686,61.7894 C130.4866,62.3734 130.4556,62.0884 130.6586,62.6424 C130.5456,62.9424 129.8796,63.4434 130.4786,63.6674 C130.4636,63.5254 130.6056,63.5104 130.7476,63.4954 C130.7176,63.2124 130.6886,62.9264 130.6586,62.6424 L130.8006,62.6284 C130.8826,62.0434 130.9126,62.3284 130.7106,61.7744 C130.9646,61.4594 131.3916,61.4144 131.1746,60.7184 C131.7136,60.3744 131.3256,59.4094 131.5646,58.9524 C130.8836,59.3114 131.1296,60.2924 131.1746,60.7184 L131.0336,60.7334 Z M130.1046,17.6934 C130.6726,17.6344 129.8866,16.9974 130.1046,17.6934 C129.8346,17.8654 130.1196,17.8354 130.1046,17.6934 Z M129.5566,67.2154 C129.7296,67.4854 129.6316,67.9274 129.9166,67.8974 C130.0436,67.7394 129.9986,67.3134 129.5566,67.2154 Z M128.8686,68.8694 C129.0556,69.2814 129.2276,69.5504 129.6546,69.5054 C129.7366,68.9234 129.1826,69.1244 128.8686,68.8694 Z M131.2846,31.6614 C130.5366,32.7464 130.6186,34.8944 131.3356,36.2574 C131.3666,36.5414 130.7676,36.3174 130.9546,36.7284 C131.1116,36.8564 131.2836,37.1254 131.3136,37.4094 L131.0136,37.2974 C131.0666,39.1614 131.2676,42.4474 130.6686,44.9554 C131.2226,44.7534 131.2826,45.3214 131.3416,45.8904 C131.0576,45.9204 130.7586,45.8084 130.6466,46.1074 C130.8476,46.6614 130.5406,47.8444 131.0416,48.5104 C130.6156,48.5554 130.7286,48.2554 130.4736,48.5714 C130.5026,48.8554 130.5476,49.2814 130.5786,49.5664 C130.7196,49.5514 131.0046,49.5214 131.0196,49.6624 C130.9376,50.2464 130.7356,49.6924 130.3536,50.1654 C130.2706,50.7484 130.9676,50.5304 130.8996,51.2574 C130.6156,51.2864 130.4576,51.1604 130.3156,51.1754 C130.1206,52.0574 130.5476,52.0124 130.6376,52.8674 C130.4956,52.8824 130.4646,52.5974 130.1966,52.7694 C130.0826,53.0684 130.1436,53.6374 129.8886,53.9524 C130.2176,54.3484 130.2866,53.6234 130.4726,54.0344 C130.3606,54.3344 129.6496,54.4084 129.6946,54.8354 C130.2256,55.7864 128.6976,57.6724 129.7976,58.5624 C128.9076,59.6634 128.9446,61.3844 128.5096,62.7244 C129.0796,62.6644 128.9216,62.5374 129.5056,62.6194 C128.7046,61.8424 130.6366,61.0634 129.5956,60.7414 C129.1546,60.6434 129.8276,61.5784 129.4006,61.6234 C129.0856,61.3694 129.4686,60.8984 129.2506,60.2014 C129.8356,60.2844 129.5506,60.3144 130.1046,60.1124 C130.0826,58.5324 130.4876,56.9084 130.7646,55.4424 C130.7346,55.1574 130.1956,55.5014 130.0086,55.0914 C130.2776,54.9174 130.7046,54.8724 130.8316,54.7164 C130.5846,53.7364 131.3486,52.7924 131.2886,52.2234 C131.5966,45.5764 132.1516,39.9104 131.7786,33.6224 C131.5616,32.9264 131.3896,32.6574 131.7706,32.1844 C131.1726,31.9614 131.3516,30.9354 131.5906,30.4784 C130.8356,30.1264 131.6816,28.5994 130.6256,28.1364 C130.9116,28.1064 131.1956,28.0764 131.1806,27.9324 C130.4696,25.2764 130.2686,21.9904 128.8016,18.9814 C129.5486,23.3604 130.6636,27.1254 130.6856,31.4364 C130.9696,31.4064 131.1276,31.5334 131.2846,31.6614 Z M128.3066,73.0994 C128.7626,73.3384 128.8156,72.4704 128.3886,72.5144 C128.4036,72.6574 128.4186,72.8004 128.2766,72.8154 C128.2766,72.8154 128.2906,72.9564 128.3066,73.0994 Z M128.0616,63.9224 C128.2626,64.4764 128.5776,64.7304 129.0346,64.9694 C128.4056,64.4614 129.5656,63.1894 128.6826,62.9934 C128.7116,63.2794 128.5846,63.4364 128.1586,63.4814 C128.1726,63.6224 128.2036,63.9064 128.0616,63.9224 Z M128.8536,65.9944 C128.7796,65.2834 128.0826,65.5024 127.9856,65.9434 C128.3976,65.7554 128.4266,66.0394 128.8536,65.9944 Z M127.9486,16.3384 C128.3226,17.1624 128.0446,18.6294 128.6436,18.8534 C128.8696,18.2554 128.4196,16.7204 127.9486,16.3384 Z M128.1796,67.7924 C128.0376,67.8074 128.0376,67.8074 127.8956,67.8224 C127.8796,67.6794 128.0076,67.5224 128.1796,67.7924 Z M128.2686,74.1094 C127.8416,74.1544 127.7146,74.3114 127.7596,74.7384 C128.3426,74.8204 128.1416,74.2664 128.2686,74.1094 Z M127.4926,16.0994 C127.7766,16.0694 127.7906,16.2124 127.9176,16.0544 C127.8886,15.7694 127.6046,15.7994 127.4926,16.0994 Z M128.4956,68.0474 C128.1346,67.3644 129.0856,66.8344 128.4566,66.3244 C128.4716,66.4674 128.3296,66.4824 128.1876,66.4974 C128.1576,66.2134 128.0156,66.2284 127.7316,66.2584 C127.8356,67.2534 127.8356,67.2534 127.4686,67.8674 C127.6256,67.9944 127.7526,67.8374 127.8956,67.8224 C127.9246,68.1064 128.2096,68.0764 128.4956,68.0474 Z M127.4986,20.2684 C127.4686,19.9844 127.4386,19.6984 127.4236,19.5574 C127.2816,19.5724 127.1396,19.5874 126.9966,19.6024 C127.0126,19.7434 127.0416,20.0294 127.0726,20.3134 C127.2136,20.2984 127.3566,20.2824 127.4986,20.2684 Z M128.0076,70.2544 C127.7456,69.1334 127.8586,68.8324 127.6556,68.2784 C127.5136,68.2934 127.3716,68.3084 127.0866,68.3384 C127.3196,69.1774 126.6526,69.6784 127.1686,70.4864 C127.7526,70.5694 127.5656,70.1574 128.0076,70.2544 Z M126.5856,14.3244 C127.0286,14.4224 127.0806,13.5534 126.8116,13.7264 C126.8266,13.8674 126.6836,13.8824 126.5406,13.8974 C126.5566,14.0414 126.5716,14.1824 126.5856,14.3244 Z M127.1986,70.7714 C127.0566,70.7854 126.7716,70.8164 126.4876,70.8454 C126.4356,71.7144 126.6216,72.1254 127.4916,72.1784 C127.5586,71.4524 127.5426,71.3094 127.1986,70.7714 Z M125.9936,74.3484 C126.4346,74.4464 126.3896,74.0194 126.8306,74.1164 C126.6146,73.4204 127.8496,72.8604 126.9656,72.6644 C126.9656,72.6644 126.9516,72.5234 126.9366,72.3804 C126.7936,72.3954 126.6526,72.4104 126.5096,72.4254 C126.5396,72.7094 126.6816,72.6944 126.9656,72.6644 C126.9136,73.5324 125.7466,73.3684 125.9936,74.3484 Z M125.7706,16.1354 C125.6726,16.5774 126.3546,16.2184 126.5266,16.4884 C126.4816,16.0614 126.1976,16.0914 125.7706,16.1354 Z M125.8526,15.5524 C125.8376,15.4094 125.8236,15.2674 125.8236,15.2674 C125.8236,15.2674 125.6806,15.2824 125.5386,15.2974 C125.5386,15.2974 125.5526,15.4394 125.5686,15.5824 C125.7096,15.5674 125.8526,15.5524 125.8526,15.5524 Z M125.3066,14.4584 C125.3356,14.7424 125.4936,14.8714 125.7786,14.8424 C125.8746,14.3994 125.4636,14.5864 125.3066,14.4584 Z M126.0526,74.9174 C125.8286,75.5164 125.4616,76.1304 125.2506,76.8714 C126.2466,76.7664 126.3816,75.3144 126.0526,74.9174 Z M125.2466,11.1574 C125.2766,11.4424 125.4346,11.5704 125.7186,11.5404 C125.6886,11.2564 125.5316,11.1274 125.2466,11.1574 Z M125.9256,77.8064 C125.4986,77.8514 125.7076,77.1104 125.0276,77.4704 C125.0416,77.6134 125.0726,77.8964 125.0866,78.0384 C125.6566,77.9784 125.8426,78.3904 125.9256,77.8064 Z M125.4036,14.0174 C125.3736,13.7334 125.2166,13.6064 125.0756,13.6214 C125.0896,13.7624 124.9476,13.7784 124.8206,13.9354 C125.1046,13.9054 125.1196,14.0474 125.4036,14.0174 Z M125.2506,79.6044 C125.2056,79.1764 124.9076,79.0644 124.6076,78.9514 C124.6526,79.3784 124.2106,79.2804 124.3976,79.6944 C124.6826,79.6634 124.9666,79.6344 125.2506,79.6044 Z M124.0766,80.7344 C124.5776,81.4004 125.1686,80.1864 124.4576,80.2614 C124.4726,80.4054 124.3296,80.4194 124.0456,80.4494 C124.0606,80.5914 124.0766,80.7344 124.0766,80.7344 Z M124.9996,12.9104 C124.4016,12.6854 124.4386,11.6754 123.9966,11.5774 C124.0416,12.0044 123.9286,12.3024 123.8016,12.4604 C124.6256,12.0864 124.0796,13.7254 124.9996,12.9104 Z M123.3196,83.1134 C123.0796,83.5704 123.8216,83.7804 123.9936,84.0504 C123.9336,83.4804 123.7606,83.2104 123.3196,83.1134 Z M123.7116,11.6074 C123.9216,10.8664 123.2486,9.9294 123.0536,10.8144 C123.6076,10.6114 123.2866,11.6524 123.7116,11.6074 Z M123.3576,84.8344 C123.3416,84.6924 123.3276,84.5504 123.3276,84.5504 L123.0416,84.5804 C123.0416,84.5804 123.0576,84.7224 123.0726,84.8644 L123.3576,84.8344 Z M122.3666,9.7354 C121.6016,10.6784 123.1736,9.2184 122.3506,9.5934 L122.3666,9.7354 Z M98.9226,5.5854 C98.4356,5.0604 98.8926,5.3014 98.8026,4.4464 C97.9186,4.2534 98.8106,3.1534 97.8146,3.2584 C98.0326,3.9534 98.1066,4.6644 97.8816,5.2624 C98.3086,5.2184 98.3686,5.7864 98.9226,5.5854 Z M97.5596,3.5714 C97.3886,3.3024 96.6776,3.3774 96.7366,3.9454 C97.0066,3.7734 97.4336,3.7284 97.5596,3.5714 Z M95.2166,7.2694 C95.2316,7.4104 95.2466,7.5534 95.2616,7.6954 C95.7186,7.9354 95.6136,6.9394 95.2166,7.2694 Z M94.3416,5.7794 C94.2446,6.2194 94.3036,6.7894 94.6476,7.3284 C94.8576,6.5884 94.7836,5.8774 94.3416,5.7794 Z M93.4656,7.0214 C93.6076,7.0064 93.7496,6.9914 93.7346,6.8494 C93.5926,6.8634 93.4506,6.8794 93.4656,7.0214 Z M93.9656,10.4194 C93.9216,9.9924 93.6216,9.8804 93.3226,9.7684 C93.2106,10.0684 93.3976,10.4794 93.6966,10.5924 C93.6816,10.4494 93.8236,10.4344 93.9656,10.4194 Z M90.1556,13.8394 C90.2836,13.6834 90.5676,13.6534 90.5526,13.5104 C90.4256,13.6684 90.1256,13.5554 90.1556,13.8394 Z M89.0256,15.3974 C88.8236,14.8424 89.2796,15.0824 89.4376,15.2094 C89.2346,14.6554 89.8186,14.7384 89.7586,14.1684 C89.0336,14.1014 89.4076,14.9244 88.5386,14.8724 C88.5686,15.1574 88.7416,15.4264 89.0256,15.3974 Z M87.7896,15.9584 C88.0746,15.9284 88.0896,16.0704 88.2166,15.9134 C88.1866,15.6284 87.9026,15.6584 87.7896,15.9584 Z M87.2886,18.0234 C87.2286,17.4544 87.8276,17.6794 87.6246,17.1254 C87.3406,17.1554 87.0566,17.1854 86.9296,17.3424 C86.9746,17.7694 87.1306,17.8964 87.2886,18.0234 Z M86.4526,94.8974 C86.1986,95.2114 86.4006,95.7644 86.6996,95.8774 C86.6696,95.5934 86.8796,94.8524 86.4526,94.8974 Z M86.9536,101.0284 C86.8936,100.4594 86.7146,98.7524 86.2496,99.8084 C87.0886,99.5764 85.9576,101.1334 86.9536,101.0284 Z M86.8096,18.9374 C86.7486,18.3684 85.8816,18.3164 86.0986,19.0124 C86.2406,18.9974 86.5256,18.9674 86.8096,18.9374 Z M85.8536,97.4044 C85.9956,97.3894 86.1676,97.6594 86.1386,97.3744 C86.1226,97.2324 85.8236,97.1194 85.8536,97.4044 Z M86.2876,98.7974 C86.4146,98.6394 86.6096,97.7564 86.1676,97.6594 C86.1986,97.9434 85.7566,97.8454 85.7866,98.1304 C86.1986,97.9434 85.9886,98.6844 86.2876,98.7974 Z M86.3476,93.9024 C86.4756,93.7434 86.3556,92.6074 86.0416,92.3514 C86.0716,92.6364 85.7876,92.6664 85.6746,92.9664 C86.5276,92.8764 85.6216,93.8334 86.3476,93.9024 Z M85.5636,87.8014 C85.5786,87.9424 85.4816,88.3854 85.7796,88.4964 C85.9076,88.3404 86.1176,87.5984 85.5636,87.8014 Z M85.5096,94.1334 C85.6516,94.1184 85.7946,94.1034 85.7796,93.9624 C85.7796,93.9624 85.4946,93.9914 85.5096,94.1334 Z M85.4426,94.8594 C85.8696,94.8144 85.2776,96.0274 85.9586,95.6684 C86.1836,95.0694 85.6666,94.2614 85.4426,94.8594 Z M85.3906,92.9954 C85.1216,93.1674 85.2926,93.4374 85.6066,93.6924 C85.8616,93.3774 85.8166,92.9504 85.3906,92.9954 Z M85.4666,82.7784 C85.4516,82.6354 85.4366,82.4944 85.4366,82.4944 C85.4366,82.4944 85.2946,82.5094 85.1516,82.5244 C85.1516,82.5244 85.1666,82.6654 85.1826,82.8084 C85.3246,82.7934 85.4666,82.7784 85.4666,82.7784 Z M85.2186,89.9934 C85.2476,90.2784 84.9786,90.4514 85.2786,90.5634 C85.2476,90.2784 85.5176,90.1064 85.2186,89.9934 Z M85.6156,86.9324 C85.6456,87.2164 85.0616,87.1344 85.0916,87.4204 C85.5336,87.5164 86.1996,87.0154 85.6156,86.9324 Z M85.6006,89.5224 C85.5556,89.0964 85.9966,89.1934 85.8096,88.7804 C85.6386,88.5114 84.9266,88.5864 84.9716,89.0134 C85.2566,88.9834 85.1736,89.5674 85.6006,89.5224 Z M85.3696,85.9524 C85.4356,85.2264 85.7586,84.1854 85.0026,83.8344 C84.9646,84.8444 84.9646,84.8444 84.7546,85.5854 C85.1826,85.5404 85.2116,85.8244 85.3696,85.9524 Z M84.4886,21.4824 C84.7726,21.4524 84.6756,21.8924 85.0876,21.7064 C84.8706,21.0094 86.3156,19.7084 85.3196,19.8134 C85.9036,19.8944 84.7656,20.0144 84.7806,20.1564 C85.0126,20.9944 84.5856,21.0394 84.4886,21.4824 Z M84.3006,71.6844 C84.7576,71.9244 84.8096,71.0564 84.5256,71.0864 C84.5406,71.2284 84.4136,71.3854 84.2706,71.4004 C84.2706,71.4004 84.2856,71.5434 84.3006,71.6844 Z M84.1656,73.1374 C84.6076,73.2344 84.6606,72.3664 84.2476,72.5534 C84.2636,72.6964 84.2636,72.6964 84.1206,72.7104 C84.1356,72.8524 84.1506,72.9944 84.1656,73.1374 Z M84.3896,75.2704 C84.3746,75.1284 84.3746,75.1284 84.3596,74.9854 C84.2186,75.0004 84.0766,75.0154 84.0766,75.0154 C84.0906,75.1584 84.0906,75.1584 84.1056,75.3004 C84.1056,75.3004 84.2476,75.2854 84.3896,75.2704 Z M83.9346,21.6834 C83.4106,22.1714 83.8966,22.6934 84.7356,22.4624 C84.8026,21.7364 84.2336,21.7964 83.9346,21.6834 Z M84.2026,80.3234 C84.1576,79.8964 84.1126,79.4694 83.8286,79.4994 C84.0296,80.0534 83.2366,80.7124 83.8506,81.0794 C84.1196,80.9054 83.6186,80.2394 84.2026,80.3234 Z M82.7966,19.0714 C82.6546,19.0854 82.5126,19.1004 82.5126,19.1004 C82.5276,19.2424 82.3856,19.2574 82.2586,19.4154 C82.5426,19.3854 82.9696,19.3414 82.7966,19.0714 Z M83.5596,23.5924 C82.9906,23.6514 82.8106,24.6774 82.4676,24.1384 C82.4676,24.1384 82.3396,24.2954 82.1976,24.3104 C82.2426,24.7374 82.5266,24.7074 82.4446,25.2914 C82.9386,24.5204 84.2186,24.3854 84.0836,23.1064 C83.5146,23.1664 83.6116,22.7234 83.0586,22.9264 C83.1036,23.3524 82.9606,23.3674 82.9906,23.6514 C83.3056,23.9064 83.5146,23.1664 83.5596,23.5924 Z M82.0336,20.0134 C82.0486,20.1564 81.3676,20.5154 81.9656,20.7394 C81.9356,20.4554 82.6176,20.0964 82.0336,20.0134 Z M81.8236,23.4874 C81.8086,23.3454 81.7926,23.2024 81.7786,23.0614 C81.7786,23.0614 81.6366,23.0764 81.4936,23.0914 C81.5086,23.2324 81.5236,23.3754 81.5386,23.5164 C81.6816,23.5024 81.8236,23.4874 81.8236,23.4874 Z M80.6546,26.0534 C80.6696,26.1974 79.6746,26.3014 80.2736,26.5264 C80.2436,26.2414 81.2536,26.2794 80.6546,26.0534 Z M79.9656,30.4404 C80.6326,29.9394 80.5726,29.3694 81.2986,29.4374 C81.1786,28.3004 81.7176,27.9564 81.7696,27.0874 C82.1966,27.0424 81.5536,26.3914 81.7696,27.0874 C80.8496,27.9034 80.4006,29.1014 79.9656,30.4404 Z M79.5626,23.8674 C79.7046,23.8524 79.8476,23.8384 79.8326,23.6964 C79.6896,23.7114 79.5476,23.7264 79.5626,23.8674 Z M79.8746,32.3194 C79.2466,31.8104 79.5696,30.7694 80.4816,31.2494 C80.4376,30.8224 80.4226,30.6794 80.2656,30.5534 C79.2846,30.7994 79.4186,32.0794 78.9106,32.7084 C79.4946,32.7914 79.2916,32.2374 79.8746,32.3194 Z M77.8026,30.3804 C77.8326,30.6644 77.7356,31.1064 78.0196,31.0764 C78.2886,30.9044 78.2446,30.4774 77.8026,30.3804 Z M116.6476,4.5854 C107.7476,0.6314 98.8996,9.4694 93.0076,14.9784 C92.4906,16.9024 90.5446,17.5374 90.2976,19.2894 C88.4106,20.4944 87.6396,22.7324 86.6956,24.6994 C86.5536,24.7144 86.2686,24.7444 86.1266,24.7594 C86.4866,25.4404 85.8206,25.9434 85.2956,26.4294 C85.2056,28.3084 83.0656,29.8274 82.7346,32.1624 C82.2786,31.9234 82.7946,32.7314 82.1966,32.5084 C80.4576,37.8654 78.9156,42.3424 77.5076,48.0974 C77.1186,52.5954 77.0946,56.4814 76.8996,60.0974 C77.1846,60.0674 77.3266,60.0524 77.3556,60.3364 C77.8266,66.1824 80.2586,71.5344 83.1776,74.6784 C83.4706,70.6214 84.1976,65.2254 85.3576,61.2214 C85.2156,58.5044 87.0126,56.4454 86.5726,53.6154 C86.8556,53.5854 86.8856,53.8704 87.1706,53.8414 C87.4476,52.3744 87.8816,51.0344 88.4736,49.8214 C87.8146,49.0284 89.0126,46.7444 90.0756,45.9144 C90.9306,40.3604 95.3316,35.7284 100.7136,36.3114 C101.1776,37.9884 102.1966,39.4634 102.2326,41.1844 C100.8706,41.9034 100.4516,43.3864 99.0886,44.1044 C98.2196,46.7834 96.5956,49.1114 95.6966,51.5074 C95.1196,52.8614 95.2686,54.2824 94.6926,55.6384 C94.5806,55.9384 94.1836,56.2674 93.9436,56.7234 C93.8316,57.0234 94.0636,57.8614 93.9666,58.3034 C93.8536,58.6024 93.4276,58.6474 93.3146,58.9474 C93.0376,60.4144 93.1046,62.4194 92.5286,63.7744 C92.4006,63.9304 92.1016,63.8194 91.9746,63.9754 C91.8766,64.4184 92.2216,64.9564 92.1386,65.5404 C92.0416,65.9834 91.5026,66.3254 91.4056,66.7684 C91.1426,68.3774 91.6216,70.1964 90.9476,71.9934 C90.7386,72.7344 90.7676,73.0194 90.5736,73.9014 C90.4156,76.5064 89.8016,78.8714 89.8986,81.1624 C91.4406,82.1504 93.5056,82.6524 94.9206,83.7984 C93.4686,83.6634 91.1186,83.1914 90.0326,82.4424 C88.9386,88.4524 90.3686,92.4724 90.3366,97.6514 C91.4146,99.6954 91.8406,102.3834 93.0386,105.5644 C95.6496,109.8914 99.7206,115.7914 104.8716,112.8044 C110.6956,108.0224 114.9326,101.8264 117.6286,94.6394 C117.8836,94.3254 118.2806,93.9954 118.5496,93.8244 C118.0936,93.5854 118.7746,93.2254 118.4456,92.8294 C122.2336,85.0964 123.7026,77.1784 126.2636,68.7134 C125.8976,66.5934 127.3416,65.2924 126.8926,63.7574 C128.5476,61.7134 127.5756,57.9334 128.6306,55.6664 C128.7286,52.4924 128.8566,49.6034 129.5236,46.3694 C129.5086,46.2264 129.2236,46.2564 129.0666,46.1304 C129.8246,38.2844 129.2716,30.2914 127.2816,22.3044 C127.6706,20.5384 126.4736,20.0884 126.1366,18.2544 C126.3916,17.9394 127.1176,18.0074 127.2296,17.7084 C126.6306,17.4834 126.4896,17.4984 125.9496,17.8424 C125.1496,14.3324 122.8356,12.8494 121.4966,9.6834 C120.0076,7.8264 118.1366,6.4414 116.6476,4.5854 Z M76.8446,29.4754 C76.9866,29.4604 76.9866,29.4604 77.1296,29.4454 C77.3836,29.1304 77.3686,28.9884 76.9416,29.0324 C76.9416,29.0324 76.9566,29.1754 76.8146,29.1904 C76.8296,29.3314 76.8296,29.3314 76.8446,29.4754 Z M76.1576,68.0834 C76.1276,67.7984 76.2696,67.7834 76.3976,67.6274 C76.1126,67.6564 76.0976,67.5144 75.9546,67.5294 C75.9706,67.6724 75.8426,67.8284 75.8576,67.9704 C75.9846,67.8134 75.9996,67.9554 76.1576,68.0834 Z M75.7676,67.1174 C75.8956,66.9604 76.0386,66.9454 76.0226,66.8034 C76.0386,66.9454 75.7386,66.8334 75.7676,67.1174 Z M75.1666,38.1344 C75.3086,38.1184 75.5936,38.0894 75.5786,37.9474 C75.4366,37.9624 75.1366,37.8504 75.1666,38.1344 Z M74.9046,42.4764 C75.0466,42.4614 75.1886,42.4464 75.1736,42.3034 C75.1736,42.3034 74.8896,42.3334 74.9046,42.4764 Z M75.3346,65.7244 C75.3196,65.5834 75.3046,65.4414 75.3046,65.4414 C75.1626,65.4564 75.0196,65.4714 74.8776,65.4864 C74.8776,65.4864 74.8926,65.6284 74.9076,65.7694 C75.0496,65.7544 75.1926,65.7394 75.3346,65.7244 Z M74.4926,39.9314 C74.6356,39.9164 74.7776,39.9024 74.7626,39.7584 C74.6206,39.7734 74.4776,39.7884 74.4926,39.9314 Z M75.8916,46.3994 C75.9586,45.6734 75.2776,46.0314 75.2326,45.6054 C75.4876,45.2904 75.4576,45.0064 76.0406,45.0884 C75.8396,44.5344 76.3926,44.3334 76.2056,43.9204 C75.9216,43.9494 75.7646,43.8234 75.7346,43.5394 C75.8466,43.2384 75.9146,42.5134 76.5426,43.0234 C76.1546,42.0574 75.9376,41.3614 77.0306,40.8144 C77.1276,40.3734 76.5736,40.5744 76.5436,40.2894 C77.0676,39.8044 77.3216,39.4884 76.9626,38.8084 C77.4866,38.3224 77.7116,37.7234 77.6216,36.8694 C77.9886,36.2564 79.3286,33.9584 78.8276,33.2924 C76.5436,37.5584 76.1396,41.9154 74.4386,46.2634 C75.0526,46.6304 75.0386,46.4884 75.8916,46.3994 Z M74.4976,52.2964 C74.5956,51.8554 74.0416,52.0564 74.1086,51.3304 C73.8926,50.6344 75.2316,51.0694 75.0146,50.3734 C74.9546,49.8034 74.4906,50.8604 74.5736,50.2754 C75.5086,49.6014 74.6336,48.1134 75.2846,47.4684 C74.5886,47.6854 75.1956,46.6154 74.5136,46.9744 C74.1846,49.3104 73.3526,50.9794 74.1616,53.1954 C74.5876,53.1504 74.0716,52.3414 74.4976,52.2964 Z M74.8856,64.1914 C74.8256,63.6214 74.6386,63.2114 74.4666,62.9404 C74.7506,62.9104 74.8936,62.8954 75.0056,62.5964 C74.8336,62.3274 74.4216,62.5134 74.3766,62.0874 C74.9316,61.8854 74.1596,61.3914 74.3766,62.0874 C74.0776,61.9754 74.0476,61.6914 73.7626,61.7214 C73.8376,62.4324 74.4066,62.3724 74.4666,62.9404 C73.9126,63.1434 74.1736,64.2654 74.8856,64.1914 Z M73.8866,43.7334 C74.0136,43.5764 74.1246,43.2774 74.2526,43.1194 C73.8116,43.0224 73.6986,43.3224 73.8866,43.7334 C73.3316,43.9354 74.1026,44.4294 73.8866,43.7334 Z M74.1676,60.0954 C74.0696,60.5374 73.5016,60.5974 73.7326,61.4364 C74.6016,61.4884 74.7366,60.0364 74.1676,60.0954 Z M74.0686,68.7344 C73.9566,69.0334 73.9266,68.7484 73.6426,68.7784 C73.7696,68.6224 74.0546,68.5924 74.0686,68.7344 Z M73.7116,54.3914 C73.5846,54.5504 73.6146,54.8344 73.6596,55.2604 C74.2436,55.3434 73.8836,54.6614 73.8536,54.3764 C74.4226,54.3174 74.4676,54.7444 74.6246,54.8714 C74.8346,54.1304 74.4906,53.5914 73.7646,53.5244 C73.7946,53.8094 73.8246,54.0934 73.8536,54.3764 L73.7116,54.3914 Z M74.5946,57.3204 C74.1676,57.3644 74.1826,57.5064 73.7116,57.1244 C73.3296,57.5964 73.7186,58.5614 74.1606,58.6594 C73.7706,57.6934 74.5126,57.9024 74.5946,57.3204 Z M74.1906,58.9434 C74.0486,58.9584 73.7636,58.9884 73.4786,59.0184 C73.6806,59.5724 73.8386,59.6994 73.5986,60.1554 C74.5946,60.0514 73.9506,59.4004 74.1906,58.9434 Z M73.5546,56.9964 C73.8246,56.8254 74.0936,56.6534 74.6626,56.5934 C74.5876,55.8824 74.1306,55.6414 73.6746,55.4034 C73.7046,55.6864 73.4196,55.7164 73.4346,55.8594 C74.1756,56.0694 73.4946,56.4284 73.5546,56.9964 Z M73.5406,45.9274 C73.5116,45.6424 73.4966,45.4994 73.2116,45.5294 C73.2416,45.8144 73.1296,46.1134 73.4136,46.0834 C73.3986,45.9424 73.3836,45.7994 73.5406,45.9274 Z M73.0466,46.6974 C73.2346,47.1084 72.4936,46.8994 72.8526,47.5804 C73.4206,47.5204 73.6306,46.7804 73.0466,46.6974 Z M72.6576,48.4634 C72.6876,48.7484 72.1486,49.0924 72.7466,49.3174 C72.5596,48.9054 73.0996,48.5604 72.6576,48.4634 Z M72.3806,49.9304 C72.1556,50.5304 72.2006,50.9564 72.3876,51.3684 C72.4996,51.0694 72.9786,50.1554 72.3806,49.9304 Z M72.1776,52.1094 C72.1926,52.2504 71.9826,52.9924 72.4096,52.9474 C72.3796,52.6634 72.8736,51.8924 72.1776,52.1094 Z M96.3326,2.8384 C97.8676,2.3884 98.8626,2.2834 100.1956,1.2804 C103.1666,0.8254 106.5206,-0.1026 109.5516,0.0094 C114.1636,0.1014 121.4916,2.7814 124.3796,5.6414 C125.3376,6.5474 126.5796,7.4224 127.2536,8.3594 C127.7406,8.8834 127.8446,9.8784 128.3306,10.4034 C131.2116,14.5574 133.7556,19.6104 134.8336,24.3864 C137.7206,38.1744 136.6036,50.8024 134.8576,62.9204 C133.8316,65.4714 134.3996,68.1454 132.9626,70.8844 C133.1796,71.5804 132.9396,72.0364 133.0146,72.7474 C132.7296,72.7774 132.5876,72.7924 132.4306,72.6654 C132.4756,73.0924 132.7596,73.0624 132.6776,73.6464 C132.4976,74.6724 132.0566,74.5744 132.4456,75.5404 C132.1226,76.5804 131.9576,77.7474 131.3226,78.5334 C131.3526,78.8184 131.3816,79.1034 131.4126,79.3874 C130.3336,80.0754 130.6706,81.9094 129.8916,82.7114 C130.3846,84.6714 128.6186,87.0134 128.6256,88.4514 C128.5136,88.7504 128.3716,88.7654 128.0726,88.6534 C128.1176,89.0794 128.1626,89.5074 128.1916,89.7914 C124.8596,97.7624 121.3706,105.6074 115.8226,111.6534 C115.9126,112.5074 115.3586,112.7094 115.1336,113.3074 C113.4266,113.4874 113.6066,115.1944 111.8996,115.3734 C111.8176,115.9584 110.7906,115.7774 110.8666,116.4884 C108.0666,117.2154 105.4546,118.3514 103.4556,117.1244 C98.0216,117.4074 92.8056,112.9234 89.4676,108.5284 C89.0116,108.2884 88.6966,108.0334 88.3826,107.7804 C87.0726,104.8974 84.9246,102.2484 84.1696,99.1644 C83.9076,98.0404 84.0576,96.7304 83.7956,95.6084 C82.5536,89.2674 82.5396,83.6604 82.7126,78.4674 C79.6446,76.6324 76.9956,73.3154 75.1466,70.7784 C74.7876,70.0964 75.5286,70.3064 75.3416,69.8944 C74.9146,69.9394 74.7266,69.5274 74.2556,69.1464 C74.0386,68.4494 74.6076,68.3894 74.4056,67.8364 C72.9766,66.5484 74.3316,64.3924 72.5056,63.4354 C72.3036,62.8804 73.0446,63.0904 72.8566,62.6784 C72.4166,59.8494 72.5586,57.1014 72.4016,54.2424 C72.5146,53.9444 72.8586,54.4814 72.8136,54.0554 C71.9976,53.1344 72.0496,54.9984 71.8256,55.5974 C72.1326,57.1464 71.8096,58.1864 71.7346,60.2084 C72.0116,61.4724 71.9746,62.4834 72.1386,64.0474 C72.5126,64.8714 72.7596,65.8524 73.1486,66.8174 C72.0176,65.6424 70.8436,61.3094 70.9496,59.5714 C70.9346,59.4294 70.6496,59.4594 70.6346,59.3174 C70.2986,57.4834 70.7996,55.4174 70.2086,53.8974 C71.0266,41.1574 74.7636,28.8304 81.8166,19.3174 C81.7866,19.0324 81.7566,18.7494 81.6146,18.7644 C84.6916,13.8394 88.3976,9.4234 92.5746,5.3894 C93.4576,5.5834 94.2376,4.7834 94.8506,5.1504 C94.9626,4.8504 95.0006,3.8404 95.6146,4.2084 C95.7186,5.2034 95.0076,5.2784 95.0826,5.9884 C95.5236,6.0854 96.7746,5.6674 96.1006,4.7304 C96.5276,4.6854 96.6996,4.9554 96.9536,4.6404 C96.4526,3.9744 96.5646,3.6754 96.0786,3.1524 C96.2206,3.1374 96.3486,2.9794 96.3326,2.8384 Z" id="Fill-4" fill="#CFA56B"></path>
            </g>
        </g>
    </g>
</svg>